<svg width="24" height="24" viewBox="0 0 24 24" fill="none" xmlns="http://www.w3.org/2000/svg">
<g clip-path="url(#clip0_796_8344)">
<path d="M10.0811 19.8016C10.019 19.9383 9.9173 20.0533 9.78917 20.1315C9.66104 20.2098 9.51238 20.2478 9.36241 20.2406C9.21244 20.2334 9.06808 20.1814 8.948 20.0913C8.82792 20.0012 8.73766 19.8771 8.68889 19.7351L3.78858 4.72852C3.74846 4.59821 3.74462 4.45943 3.77747 4.3271C3.81032 4.19477 3.87863 4.0739 3.97504 3.97748C4.07145 3.88107 4.19233 3.81276 4.32466 3.77991C4.45699 3.74706 4.59577 3.7509 4.72608 3.79102L19.7355 8.68852C19.8775 8.73729 20.0015 8.82755 20.0917 8.94763C20.1818 9.06771 20.2338 9.21207 20.241 9.36204C20.2482 9.51201 20.2102 9.66067 20.1319 9.7888C20.0536 9.91693 19.9387 10.0186 19.802 10.0807L15.6048 11.906C15.4927 11.9549 15.3943 12.0304 15.3181 12.126C15.2419 12.2217 15.1902 12.3345 15.1675 12.4546C15.1449 12.5748 15.152 12.6987 15.1881 12.8155C15.2243 12.9323 15.2885 13.0385 15.3751 13.1248L20.0317 17.7813C20.1723 17.922 20.2512 18.1127 20.2512 18.3115C20.2512 18.5103 20.1723 18.701 20.0317 18.8416L18.8439 20.0304C18.7033 20.1709 18.5126 20.2499 18.3137 20.2499C18.1149 20.2499 17.9242 20.1709 17.7836 20.0304L13.1251 15.3748C13.0388 15.2882 12.9325 15.224 12.8157 15.1879C12.6988 15.1518 12.5749 15.1448 12.4547 15.1676C12.3346 15.1903 12.2218 15.2421 12.1262 15.3184C12.0306 15.3947 11.9552 15.4932 11.9064 15.6054L10.0811 19.8016Z" stroke="#3EC227" stroke-width="1.5" stroke-linecap="round" stroke-linejoin="round"/>
</g>
<defs>
<clipPath id="clip0_796_8344">
<rect width="24" height="24" fill="white"/>
</clipPath>
</defs>
</svg>
