<svg width="84" height="84" viewBox="0 0 84 84" fill="none" xmlns="http://www.w3.org/2000/svg">
<path d="M29.6841 58.4013L30.296 57.9676L30.296 57.9676L29.6841 58.4013ZM31.2229 59.5005L31.5979 58.851L31.5979 58.851L31.2229 59.5005ZM29.3176 57.3297L28.5682 57.3616L28.5682 57.3616L29.3176 57.3297ZM29.8608 55.5183L30.5551 55.8021L30.5551 55.8021L29.8608 55.5183ZM30.6149 53.6738L29.9206 53.39L29.9206 53.39L30.6149 53.6738ZM30.3784 51.6524L31.0069 51.2432L31.0069 51.2432L30.3784 51.6524ZM29.683 50.4502L29.0149 50.7909L29.0149 50.7909L29.683 50.4502ZM28.051 49.2365L28.1523 48.4934L28.1523 48.4934L28.051 49.2365ZM26.0787 48.9675L26.18 48.2244L26.18 48.2244L26.0787 48.9675ZM24.2383 48.5323L24.6406 47.8993L24.6406 47.8993L24.2383 48.5323ZM23.4936 47.6791L22.812 47.9922L22.812 47.9922L23.4936 47.6791ZM23.4936 41.2658L24.1751 41.5789L24.1751 41.5789L23.4936 41.2658ZM24.2383 40.4126L24.6406 41.0456L24.6406 41.0456L24.2383 40.4126ZM26.0787 39.9774L26.18 40.7206L26.18 40.7206L26.0787 39.9774ZM28.051 39.7085L28.1523 40.4516L28.1523 40.4516L28.051 39.7085ZM29.683 38.4948L30.3512 38.8355L30.3512 38.8355L29.683 38.4948ZM30.3784 37.2926L31.0069 37.7018L31.0069 37.7018L30.3784 37.2926ZM30.6149 35.2711L31.3091 34.9873L31.3091 34.9873L30.6149 35.2711ZM29.8608 33.4266L30.5551 33.1428L30.5551 33.1428L29.8608 33.4266ZM29.3176 31.6152L30.0669 31.6471L30.0669 31.6471L29.3176 31.6152ZM29.6841 30.5437L30.296 30.9774L30.296 30.9774L29.6841 30.5437ZM31.2229 29.4444L31.5979 30.094C31.6239 30.079 31.6489 30.0624 31.6729 30.0444L31.2229 29.4444ZM31.2229 29.4444L30.8479 28.7949C30.8219 28.8099 30.7969 28.8265 30.7729 28.8444L31.2229 29.4444ZM33.5168 28.1201L33.1418 27.4705L33.1418 27.4705L33.5168 28.1201ZM35.2382 27.337L35.3078 28.0838L35.3078 28.0838L35.2382 27.337ZM36.3494 27.5554L36.0024 28.2203L36.0024 28.2203L36.3494 27.5554ZM37.6465 28.9316L37.0536 29.3909L37.0536 29.3909L37.6465 28.9316ZM38.8676 30.5078L39.4605 30.0485L39.4605 30.0485L38.8676 30.5078ZM40.7326 31.3141L40.6936 30.5651L40.6936 30.5651L40.7326 31.3141ZM42.1246 31.3141L42.0856 32.0631L42.0856 32.0631L42.1246 31.3141ZM43.9896 30.5078L43.3967 30.0484L43.3967 30.0484L43.9896 30.5078ZM45.2109 28.9313L45.8037 29.3906L45.8037 29.3906L45.2109 28.9313ZM46.5079 27.5551L46.855 28.22L46.855 28.22L46.5079 27.5551ZM47.6192 27.3368L47.5495 28.0835L47.5495 28.0835L47.6192 27.3368ZM49.3405 28.1198L48.9655 28.7693L48.9655 28.7693L49.3405 28.1198ZM51.6345 29.4442L51.2595 30.0937L51.2595 30.0937L51.6345 29.4442ZM53.1733 30.5434L53.7852 30.1097L53.7852 30.1097L53.1733 30.5434ZM53.5398 31.615L54.2891 31.5831L54.2891 31.5831L53.5398 31.615ZM52.9965 33.4264L52.3023 33.1426L52.3023 33.1426L52.9965 33.4264ZM52.2424 35.271L51.5482 34.9872L51.5482 34.9872L52.2424 35.271ZM52.4789 37.2925L53.1074 36.8832L53.1074 36.8832L52.4789 37.2925ZM53.1743 38.4948L52.5062 38.8355L52.5062 38.8355L53.1743 38.4948ZM54.8064 39.7085L54.9077 38.9654L54.9077 38.9654L54.8064 39.7085ZM56.7787 39.9774L56.88 39.2343L56.88 39.2343L56.7787 39.9774ZM58.619 40.4126L59.0213 39.7796L59.0213 39.7796L58.619 40.4126ZM59.3638 41.2658L60.0453 40.9528L60.0453 40.9528L59.3638 41.2658ZM59.3638 47.6791L60.0453 47.9922L60.0453 47.9922L59.3638 47.6791ZM58.619 48.5323L58.2168 47.8993L58.2168 47.8993L58.619 48.5323ZM56.7787 48.9675L56.6774 48.2244C56.6701 48.2254 56.6627 48.2265 56.6554 48.2277L56.7787 48.9675ZM56.7787 48.9675L56.88 49.7107C56.8874 49.7097 56.8947 49.7085 56.902 49.7073L56.7787 48.9675ZM54.8064 49.2365L54.9077 49.9796L54.9077 49.9796L54.8064 49.2365ZM53.1743 50.4502L53.8425 50.7909L53.8425 50.7909L53.1743 50.4502ZM52.4789 51.6525L53.1074 52.0617L53.1074 52.0617L52.4789 51.6525ZM52.2424 53.6739L51.5482 53.9577L51.5482 53.9577L52.2424 53.6739ZM52.9965 55.5186L52.3023 55.8024L52.3023 55.8024L52.9965 55.5186ZM53.5398 57.3299L54.2891 57.3618L54.2891 57.3618L53.5398 57.3299ZM53.1733 58.4015L53.7852 58.8352L53.7852 58.8352L53.1733 58.4015ZM51.6345 59.5007L51.2595 58.8512L51.2595 58.8512L51.6345 59.5007ZM49.3405 60.8251L48.9655 60.1756C48.9516 60.1837 48.9379 60.1922 48.9245 60.2011L49.3405 60.8251ZM49.3405 60.8252L49.7336 61.4639C49.7413 61.4591 49.749 61.4542 49.7565 61.4492L49.3405 60.8252ZM49.3404 60.8252L49.7154 61.4747C49.7215 61.4712 49.7275 61.4676 49.7335 61.464L49.3404 60.8252ZM47.6192 61.6082L47.6888 62.3549L47.6888 62.3549L47.6192 61.6082ZM46.5079 61.3898L46.855 60.7249L46.855 60.7249L46.5079 61.3898ZM45.2109 60.0136L45.8037 59.5543L45.8037 59.5543L45.2109 60.0136ZM43.9896 58.4372L43.3967 58.8965L43.3967 58.8965L43.9896 58.4372ZM42.1246 57.6309L42.1635 58.3799L42.1636 58.3799L42.1246 57.6309ZM40.7326 57.6309L40.7716 56.8819L40.7716 56.8819L40.7326 57.6309ZM38.8676 58.4372L38.2747 57.9779L38.2747 57.9779L38.8676 58.4372ZM37.6465 60.0134L38.2394 60.4727L38.2394 60.4727L37.6465 60.0134ZM36.3494 61.3896L36.0024 60.7247L36.0024 60.7247L36.3494 61.3896ZM35.2382 61.6079L35.3078 60.8612L35.3078 60.8612L35.2382 61.6079ZM33.5169 60.8249L33.8919 60.1754L33.889 60.1737L33.5169 60.8249ZM33.5168 60.8249L33.1418 61.4744L33.1447 61.4761L33.5168 60.8249ZM29.0722 58.835C29.2704 59.1145 29.5203 59.3243 29.8032 59.518C30.0784 59.7063 30.4292 59.9083 30.8479 60.15L31.5979 58.851C31.1593 58.5978 30.8672 58.4285 30.6505 58.2802C30.4415 58.1372 30.3507 58.0448 30.296 57.9676L29.0722 58.835ZM28.5682 57.3616C28.5908 57.891 28.7658 58.4027 29.0722 58.835L30.296 57.9676C30.1567 57.771 30.0771 57.5385 30.0669 57.2978L28.5682 57.3616ZM29.1666 55.2345C28.9837 55.682 28.83 56.0565 28.7278 56.3739C28.6228 56.7003 28.5537 57.0192 28.5682 57.3616L30.0669 57.2978C30.0629 57.2032 30.0781 57.0746 30.1557 56.8336C30.2361 56.5836 30.3634 56.2709 30.5551 55.8021L29.1666 55.2345ZM29.9206 53.39L29.1666 55.2345L30.5551 55.8021L31.3091 53.9576L29.9206 53.39ZM29.7499 52.0616C30.028 52.4888 30.0863 52.9848 29.9206 53.39L31.3091 53.9576C31.6874 53.0322 31.5132 52.0207 31.0069 51.2432L29.7499 52.0616ZM29.0149 50.7909C29.238 51.2284 29.4835 51.6525 29.7499 52.0616L31.0069 51.2432C30.7692 50.878 30.5502 50.4997 30.3512 50.1095L29.0149 50.7909ZM27.9496 49.9796C28.383 50.0387 28.7833 50.3367 29.0149 50.7909L30.3512 50.1095C29.9302 49.284 29.1421 48.6283 28.1523 48.4934L27.9496 49.9796ZM25.9773 49.7107L27.9496 49.9796L28.1523 48.4934L26.18 48.2244L25.9773 49.7107ZM23.8361 49.1653C24.1253 49.3491 24.436 49.4487 24.7712 49.5209C25.0972 49.5912 25.4983 49.6453 25.9773 49.7107L26.18 48.2244C25.6782 48.156 25.3437 48.1099 25.0871 48.0546C24.8395 48.0012 24.7205 47.9501 24.6406 47.8993L23.8361 49.1653ZM22.812 47.9922C23.0332 48.4737 23.3888 48.8811 23.8361 49.1653L24.6406 47.8993C24.4373 47.7701 24.2757 47.585 24.1751 47.3661L22.812 47.9922ZM22.561 45.7969C22.561 46.2803 22.5605 46.6851 22.5861 47.0176C22.6123 47.3595 22.669 47.6808 22.812 47.9922L24.1751 47.3661C24.1356 47.28 24.101 47.1552 24.0817 46.9028C24.0615 46.6409 24.061 46.3033 24.061 45.7969H22.561ZM22.561 43.1481V45.7969H24.061V43.1481H22.561ZM22.812 40.9528C22.669 41.2642 22.6123 41.5855 22.5861 41.9274C22.5605 42.2599 22.561 42.6646 22.561 43.1481H24.061C24.061 42.6417 24.0615 42.304 24.0817 42.0422C24.101 41.7898 24.1356 41.6649 24.1751 41.5789L22.812 40.9528ZM23.8361 39.7796C23.3888 40.0638 23.0332 40.4712 22.812 40.9528L24.1751 41.5789C24.2757 41.36 24.4373 41.1748 24.6406 41.0456L23.8361 39.7796ZM25.9773 39.2343C25.4983 39.2996 25.0972 39.3538 24.7712 39.424C24.436 39.4962 24.1253 39.5958 23.8361 39.7796L24.6406 41.0456C24.7205 40.9948 24.8395 40.9437 25.0871 40.8904C25.3437 40.8351 25.6782 40.789 26.18 40.7206L25.9773 39.2343ZM27.9496 38.9654L25.9773 39.2343L26.18 40.7206L28.1523 40.4516L27.9496 38.9654ZM29.0149 38.1541C28.7833 38.6082 28.383 38.9063 27.9496 38.9654L28.1523 40.4516C29.1421 40.3166 29.9302 39.6609 30.3512 38.8355L29.0149 38.1541ZM29.7499 36.8833C29.4835 37.2925 29.238 37.7166 29.0149 38.1541L30.3512 38.8355C30.5501 38.4453 30.7692 38.0669 31.0069 37.7018L29.7499 36.8833ZM29.9206 35.5549C30.0863 35.9602 30.028 36.4561 29.7499 36.8833L31.0069 37.7018C31.5132 36.9242 31.6874 35.9128 31.3091 34.9873L29.9206 35.5549ZM29.1666 33.7104L29.9206 35.5549L31.3091 34.9873L30.5551 33.1428L29.1666 33.7104ZM28.5682 31.5834C28.5537 31.9257 28.6228 32.2446 28.7278 32.571C28.83 32.8884 28.9837 33.2629 29.1666 33.7104L30.5551 33.1428C30.3634 32.6741 30.2361 32.3613 30.1557 32.1114C30.0781 31.8704 30.0629 31.7417 30.0669 31.6471L28.5682 31.5834ZM29.0722 30.11C28.7658 30.5423 28.5908 31.0539 28.5682 31.5834L30.0669 31.6471C30.0771 31.4065 30.1567 31.1739 30.296 30.9774L29.0722 30.11ZM30.8479 28.7949C30.4292 29.0367 30.0784 29.2386 29.8032 29.427C29.5203 29.6206 29.2704 29.8304 29.0722 30.11L30.296 30.9774C30.3507 30.9001 30.4415 30.8078 30.6505 30.6648C30.8672 30.5164 31.1593 30.3472 31.5979 30.094L30.8479 28.7949ZM30.7729 28.8444L30.7729 28.8444L31.6729 30.0444L31.6729 30.0444L30.7729 28.8444ZM33.1418 27.4705L30.8479 28.7949L31.5979 30.094L33.8918 28.7696L33.1418 27.4705ZM35.1685 26.5903C34.8273 26.6221 34.5207 26.7336 34.2115 26.8818C33.9108 27.026 33.5605 27.2288 33.1418 27.4705L33.8918 28.7696C34.3304 28.5164 34.6231 28.348 34.8598 28.2345C35.0882 28.1251 35.2136 28.0926 35.3078 28.0838L35.1685 26.5903ZM36.6965 26.8905C36.2267 26.6453 35.6961 26.541 35.1685 26.5903L35.3078 28.0838C35.5477 28.0614 35.7889 28.1088 36.0024 28.2203L36.6965 26.8905ZM38.2394 28.4722C37.9433 28.0901 37.6958 27.7698 37.472 27.5226C37.2419 27.2684 37.0003 27.0491 36.6965 26.8905L36.0024 28.2203C36.0863 28.2641 36.1901 28.3416 36.36 28.5293C36.5363 28.7239 36.7435 28.9905 37.0536 29.3909L38.2394 28.4722ZM39.4605 30.0485L38.2394 28.4722L37.0536 29.3909L38.2747 30.9671L39.4605 30.0485ZM40.6936 30.5651C40.1857 30.5915 39.7282 30.394 39.4605 30.0485L38.2747 30.9671C38.8858 31.7559 39.8465 32.1112 40.7716 32.0631L40.6936 30.5651ZM41.4287 30.546C41.1822 30.546 40.9371 30.5524 40.6936 30.5651L40.7716 32.0631C40.9891 32.0517 41.2082 32.046 41.4287 32.046V30.546ZM42.1635 30.5651C41.9201 30.5524 41.6751 30.546 41.4287 30.546V32.046C41.6491 32.046 41.8681 32.0517 42.0856 32.0631L42.1635 30.5651ZM43.3967 30.0484C43.129 30.394 42.6715 30.5915 42.1635 30.5651L42.0856 32.0631C43.0107 32.1112 43.9714 31.7559 44.5825 30.9671L43.3967 30.0484ZM44.618 28.472L43.3967 30.0484L44.5825 30.9671L45.8037 29.3906L44.618 28.472ZM46.1609 26.8903C45.8571 27.0488 45.6154 27.2681 45.3853 27.5223C45.1615 27.7695 44.914 28.0898 44.618 28.472L45.8037 29.3906C46.1139 28.9903 46.3211 28.7237 46.4973 28.529C46.6672 28.3414 46.771 28.2638 46.855 28.22L46.1609 26.8903ZM47.6888 26.59C47.1612 26.5408 46.6306 26.6451 46.1609 26.8903L46.855 28.22C47.0685 28.1086 47.3097 28.0612 47.5495 28.0835L47.6888 26.59ZM49.7155 27.4703C49.2968 27.2286 48.9466 27.0257 48.6458 26.8816C48.3367 26.7334 48.03 26.6218 47.6888 26.59L47.5495 28.0835C47.6438 28.0923 47.7692 28.1248 47.9975 28.2342C48.2343 28.3477 48.527 28.5161 48.9655 28.7693L49.7155 27.4703ZM52.0095 28.7947L49.7155 27.4703L48.9655 28.7693L51.2595 30.0937L52.0095 28.7947ZM53.7852 30.1097C53.587 29.8302 53.3371 29.6204 53.0541 29.4267C52.7789 29.2384 52.4281 29.0364 52.0095 28.7947L51.2595 30.0937C51.698 30.3469 51.9902 30.5162 52.2069 30.6645C52.4158 30.8075 52.5066 30.8999 52.5614 30.9771L53.7852 30.1097ZM54.2891 31.5831C54.2666 31.0537 54.0916 30.542 53.7852 30.1097L52.5614 30.9771C52.7007 31.1737 52.7802 31.4062 52.7905 31.6469L54.2891 31.5831ZM53.6907 33.7102C53.8737 33.2627 54.0273 32.8882 54.1295 32.5708C54.2346 32.2444 54.3037 31.9255 54.2891 31.5831L52.7905 31.6469C52.7945 31.7415 52.7792 31.8701 52.7017 32.1111C52.6212 32.3611 52.4939 32.6738 52.3023 33.1426L53.6907 33.7102ZM52.9367 35.5548L53.6907 33.7102L52.3023 33.1426L51.5482 34.9872L52.9367 35.5548ZM53.1074 36.8832C52.8293 36.456 52.771 35.9601 52.9367 35.5548L51.5482 34.9872C51.1699 35.9127 51.3441 36.9242 51.8504 37.7017L53.1074 36.8832ZM53.8425 38.1541C53.6194 37.7165 53.3738 37.2924 53.1074 36.8832L51.8504 37.7017C52.0881 38.0669 52.3072 38.4453 52.5062 38.8355L53.8425 38.1541ZM54.9077 38.9654C54.4744 38.9063 54.0741 38.6082 53.8425 38.1541L52.5062 38.8355C52.9271 39.6609 53.7153 40.3166 54.7051 40.4516L54.9077 38.9654ZM56.88 39.2343L54.9077 38.9654L54.7051 40.4516L56.6774 40.7206L56.88 39.2343ZM59.0213 39.7796C58.7321 39.5958 58.4213 39.4962 58.0862 39.424C57.7602 39.3538 57.3591 39.2996 56.88 39.2343L56.6774 40.7206C57.1791 40.789 57.5136 40.8351 57.7703 40.8904C58.0178 40.9437 58.1368 40.9948 58.2168 41.0456L59.0213 39.7796ZM60.0453 40.9528C59.8241 40.4712 59.4685 40.0638 59.0213 39.7796L58.2168 41.0456C58.4201 41.1748 58.5817 41.36 58.6822 41.5789L60.0453 40.9528ZM60.2963 43.1481C60.2963 42.6646 60.2968 42.2599 60.2713 41.9274C60.2451 41.5855 60.1883 41.2642 60.0453 40.9528L58.6822 41.5789C58.7218 41.6649 58.7563 41.7898 58.7757 42.0422C58.7958 42.304 58.7963 42.6417 58.7963 43.1481H60.2963ZM60.2963 45.7969V43.1481H58.7963V45.7969H60.2963ZM60.0453 47.9922C60.1883 47.6808 60.2451 47.3595 60.2713 47.0176C60.2968 46.6851 60.2963 46.2803 60.2963 45.7969H58.7963C58.7963 46.3033 58.7958 46.6409 58.7757 46.9028C58.7563 47.1552 58.7218 47.28 58.6822 47.3661L60.0453 47.9922ZM59.0213 49.1653C59.4685 48.8811 59.8241 48.4737 60.0453 47.9922L58.6822 47.3661C58.5817 47.585 58.4201 47.7702 58.2168 47.8993L59.0213 49.1653ZM56.8801 49.7107C57.3591 49.6453 57.7602 49.5912 58.0862 49.5209C58.4214 49.4487 58.7321 49.3491 59.0213 49.1653L58.2168 47.8993C58.1368 47.9501 58.0178 48.0012 57.7703 48.0546C57.5136 48.1099 57.1792 48.156 56.6774 48.2244L56.8801 49.7107ZM56.902 49.7073L56.902 49.7073L56.6554 48.2277L56.6554 48.2277L56.902 49.7073ZM54.9077 49.9796L56.88 49.7107L56.6774 48.2244L54.7051 48.4934L54.9077 49.9796ZM53.8425 50.7909C54.0741 50.3367 54.4744 50.0387 54.9077 49.9796L54.7051 48.4934C53.7153 48.6283 52.9271 49.284 52.5062 50.1095L53.8425 50.7909ZM53.1074 52.0617C53.3738 51.6525 53.6194 51.2284 53.8425 50.7909L52.5062 50.1095C52.3072 50.4997 52.0881 50.8781 51.8504 51.2433L53.1074 52.0617ZM52.9367 53.3901C52.771 52.9849 52.8293 52.4889 53.1074 52.0617L51.8504 51.2433C51.3441 52.0208 51.1699 53.0323 51.5482 53.9577L52.9367 53.3901ZM53.6907 55.2348L52.9367 53.3901L51.5482 53.9577L52.3023 55.8024L53.6907 55.2348ZM54.2891 57.3618C54.3037 57.0195 54.2346 56.7005 54.1295 56.3742C54.0273 56.0567 53.8737 55.6823 53.6907 55.2348L52.3023 55.8024C52.4939 56.2711 52.6212 56.5839 52.7017 56.8338C52.7792 57.0748 52.7945 57.2035 52.7905 57.2981L54.2891 57.3618ZM53.7852 58.8352C54.0916 58.4029 54.2666 57.8913 54.2891 57.3618L52.7905 57.2981C52.7802 57.5387 52.7007 57.7713 52.5614 57.9678L53.7852 58.8352ZM52.0095 60.1503C52.4282 59.9085 52.7789 59.7066 53.0541 59.5182C53.3371 59.3246 53.587 59.1148 53.7852 58.8352L52.5614 57.9678C52.5066 58.0451 52.4158 58.1374 52.2069 58.2804C51.9902 58.4287 51.698 58.598 51.2595 58.8512L52.0095 60.1503ZM49.7155 61.4747L52.0095 60.1503L51.2595 58.8512L48.9655 60.1756L49.7155 61.4747ZM49.7565 61.4492L49.7566 61.4492L48.9245 60.2011L48.9245 60.2011L49.7565 61.4492ZM49.7335 61.464L49.7336 61.4639L48.9474 60.1864L48.9473 60.1865L49.7335 61.464ZM47.6888 62.3549C48.03 62.3231 48.3366 62.2115 48.6458 62.0634C48.9465 61.9192 49.2968 61.7164 49.7154 61.4747L48.9654 60.1757C48.5269 60.4289 48.2342 60.5972 47.9975 60.7107C47.7692 60.8201 47.6438 60.8526 47.5495 60.8614L47.6888 62.3549ZM46.1609 62.0547C46.6306 62.2999 47.1612 62.4042 47.6888 62.3549L47.5495 60.8614C47.3097 60.8838 47.0685 60.8364 46.855 60.7249L46.1609 62.0547ZM44.618 60.4729C44.914 60.8551 45.1615 61.1754 45.3853 61.4226C45.6155 61.6768 45.8571 61.8961 46.1609 62.0547L46.855 60.7249C46.771 60.6811 46.6672 60.6036 46.4973 60.4159C46.3211 60.2212 46.1139 59.9546 45.8037 59.5543L44.618 60.4729ZM43.3967 58.8965L44.618 60.4729L45.8037 59.5543L44.5825 57.9779L43.3967 58.8965ZM42.1636 58.3799C42.6715 58.3534 43.129 58.551 43.3967 58.8965L44.5825 57.9779C43.9714 57.1891 43.0107 56.8338 42.0856 56.8819L42.1636 58.3799ZM41.4287 58.3989C41.6751 58.3989 41.9201 58.3925 42.1635 58.3799L42.0856 56.8819C41.8681 56.8932 41.6491 56.8989 41.4287 56.8989V58.3989ZM40.6936 58.3799C40.9371 58.3925 41.1822 58.3989 41.4287 58.3989V56.8989C41.2082 56.8989 40.9891 56.8932 40.7716 56.8819L40.6936 58.3799ZM39.4605 58.8965C39.7282 58.551 40.1857 58.3534 40.6936 58.3799L40.7716 56.8819C39.8465 56.8337 38.8858 57.189 38.2747 57.9779L39.4605 58.8965ZM38.2394 60.4727L39.4605 58.8965L38.2747 57.9779L37.0536 59.5541L38.2394 60.4727ZM36.6965 62.0544C37.0003 61.8959 37.2419 61.6765 37.472 61.4224C37.6958 61.1752 37.9433 60.8549 38.2394 60.4727L37.0536 59.5541C36.7435 59.9544 36.5363 60.221 36.36 60.4156C36.1901 60.6033 36.0863 60.6809 36.0024 60.7247L36.6965 62.0544ZM35.1685 62.3547C35.6961 62.4039 36.2267 62.2996 36.6965 62.0544L36.0024 60.7247C35.7889 60.8361 35.5477 60.8835 35.3078 60.8612L35.1685 62.3547ZM33.1419 61.4744C33.5605 61.7162 33.9108 61.919 34.2115 62.0631C34.5207 62.2113 34.8273 62.3229 35.1685 62.3547L35.3078 60.8612C35.2136 60.8524 35.0882 60.8199 34.8599 60.7105C34.6231 60.597 34.3304 60.4286 33.8919 60.1754L33.1419 61.4744ZM33.1447 61.4761L33.1448 61.4761L33.889 60.1737L33.8889 60.1737L33.1447 61.4761ZM30.8479 60.15L33.1418 61.4744L33.8918 60.1754L31.5979 58.851L30.8479 60.15ZM45.6199 44.4724C45.6199 46.7871 43.7434 48.6636 41.4287 48.6636V50.1636C44.5718 50.1636 47.1199 47.6156 47.1199 44.4724H45.6199ZM41.4287 40.2812C43.7434 40.2812 45.6199 42.1577 45.6199 44.4724H47.1199C47.1199 41.3293 44.5718 38.7812 41.4287 38.7812V40.2812ZM37.2375 44.4724C37.2375 42.1577 39.114 40.2812 41.4287 40.2812V38.7812C38.2855 38.7812 35.7375 41.3293 35.7375 44.4724H37.2375ZM41.4287 48.6636C39.114 48.6636 37.2375 46.7871 37.2375 44.4724H35.7375C35.7375 47.6156 38.2855 50.1636 41.4287 50.1636V48.6636Z" fill="#233441"/>
<path fill-rule="evenodd" clip-rule="evenodd" d="M35.6607 7.15197C35.6607 4.29239 37.8222 2.29492 40.5856 2.29492C43.349 2.29492 45.5105 4.29239 45.5105 7.15197C45.5105 9.53634 44.4893 11.8043 43.2851 13.4949C42.6858 14.3363 42.0568 15.0121 41.5188 15.469C41.2491 15.6982 41.0148 15.8615 40.8297 15.9634C40.6875 16.0418 40.6092 16.0644 40.5856 16.0709C40.5619 16.0644 40.4837 16.0418 40.3415 15.9634C40.1564 15.8615 39.9221 15.6982 39.6524 15.469C39.1144 15.0121 38.4854 14.3363 37.8861 13.4949C36.6819 11.8043 35.6607 9.53634 35.6607 7.15197ZM40.5856 0.794922C37.0436 0.794922 34.1607 3.41503 34.1607 7.15197C34.1607 9.94709 35.3464 12.5149 36.6644 14.3652C37.3261 15.2943 38.0371 16.0652 38.6814 16.6123C39.0027 16.8853 39.3202 17.1134 39.6179 17.2773C39.8951 17.43 40.2371 17.5735 40.5856 17.5735C40.9341 17.5735 41.2761 17.43 41.5533 17.2773C41.851 17.1134 42.1684 16.8853 42.4898 16.6123C43.1341 16.0652 43.845 15.2943 44.5068 14.3652C45.8248 12.5149 47.0105 9.94709 47.0105 7.15197C47.0105 3.41503 44.1276 0.794922 40.5856 0.794922ZM40.5856 5.78714C40.0354 5.78714 39.5895 6.23312 39.5895 6.78327C39.5895 7.33341 40.0354 7.77939 40.5856 7.77939C41.1357 7.77939 41.5817 7.33341 41.5817 6.78327C41.5817 6.23312 41.1357 5.78714 40.5856 5.78714ZM38.0895 6.78327C38.0895 5.4047 39.207 4.28714 40.5856 4.28714C41.9642 4.28714 43.0817 5.4047 43.0817 6.78327C43.0817 8.16184 41.9642 9.27939 40.5856 9.27939C39.207 9.27939 38.0895 8.16184 38.0895 6.78327ZM34.4963 14.8112C34.6433 15.1985 34.4484 15.6316 34.0612 15.7785C33.4965 15.9927 33.099 16.2173 32.8563 16.424C32.6097 16.634 32.605 16.7503 32.605 16.7622C32.605 16.7766 32.6166 16.9336 32.9816 17.1986C33.33 17.4514 33.8823 17.7103 34.6322 17.9406C36.123 18.3982 38.228 18.6926 40.5856 18.6926C42.9432 18.6926 45.0482 18.3982 46.539 17.9406C47.2889 17.7103 47.8412 17.4514 48.1896 17.1986C48.5546 16.9336 48.5662 16.7766 48.5662 16.7622C48.5662 16.7503 48.5615 16.634 48.3149 16.424C48.0722 16.2173 47.6747 15.9927 47.11 15.7785C46.7228 15.6316 46.5279 15.1985 46.6749 14.8112C46.8218 14.424 47.2549 14.2291 47.6421 14.3761C48.2909 14.6222 48.8634 14.9209 49.2874 15.282C49.7075 15.6397 50.0662 16.1358 50.0662 16.7622C50.0662 17.488 49.5893 18.0361 49.0707 18.4125C48.5354 18.801 47.8092 19.1197 46.9792 19.3745C45.3101 19.8869 43.0498 20.1926 40.5856 20.1926C38.1214 20.1926 35.8611 19.8869 34.192 19.3745C33.362 19.1197 32.6358 18.801 32.1005 18.4125C31.5819 18.0361 31.105 17.488 31.105 16.7622C31.105 16.1358 31.4637 15.6397 31.8838 15.282C32.3078 14.9209 32.8804 14.6222 33.5291 14.3761C33.9163 14.2291 34.3494 14.424 34.4963 14.8112Z" fill="#3EC227"/>
<path fill-rule="evenodd" clip-rule="evenodd" d="M70.9139 54.0953C71.2319 54.0255 71.5612 54.0255 71.8791 54.0953C72.242 54.175 72.5685 54.3715 72.9396 54.5948L73.0172 54.6414L78.5859 57.9826L78.6592 58.0265C79.0113 58.2372 79.3212 58.4227 79.5549 58.6884C79.7597 58.9214 79.9142 59.1942 80.0086 59.4897C80.1162 59.8268 80.1158 60.188 80.1153 60.5983L80.1152 60.6837V65.9347L80.1153 66.0201C80.1158 66.4305 80.1162 66.7916 80.0086 67.1287C79.9142 67.4242 79.7597 67.697 79.5549 67.93C79.3212 68.1958 79.0113 68.3812 78.6591 68.5919L78.5859 68.6358L73.0172 71.977L72.9396 72.0236C72.5685 72.2469 72.242 72.4434 71.8791 72.5231C71.5612 72.5929 71.2319 72.5929 70.9139 72.5231C70.551 72.4434 70.2246 72.247 69.8535 72.0236L69.7759 71.977L64.2072 68.6358L64.1339 68.5919C63.7818 68.3812 63.4719 68.1958 63.2382 67.93C63.0333 67.697 62.8789 67.4242 62.7845 67.1287C62.6769 66.7916 62.6773 66.4305 62.6778 66.0201L62.6779 65.9347V60.6837L62.6778 60.5983C62.6773 60.188 62.6769 59.8268 62.7845 59.4897C62.8789 59.1942 63.0333 58.9214 63.2382 58.6884C63.4719 58.4227 63.7818 58.2372 64.1339 58.0265L64.2072 57.9826L69.7759 54.6414L69.8535 54.5948C70.2246 54.3715 70.551 54.175 70.9139 54.0953ZM71.5574 55.5604C71.4514 55.5372 71.3416 55.5372 71.2357 55.5604C71.1444 55.5805 71.0417 55.6312 70.5476 55.9277L65.2779 59.0895L67.6476 60.5377L73.7319 56.8195L72.2455 55.9277C71.7513 55.6312 71.6487 55.5805 71.5574 55.5604ZM69.0859 61.4166L71.3966 62.8287L77.5152 59.0895L75.1834 57.6904L69.0859 61.4166ZM78.6093 60.1788L72.1466 64.1283V70.7499C72.1777 70.7314 72.2106 70.7117 72.2455 70.6907L77.8141 67.3495C78.2815 67.0691 78.3696 67.0065 78.4284 66.9395C78.4967 66.8619 78.5482 66.7709 78.5796 66.6724C78.6068 66.5875 78.6152 66.4798 78.6152 65.9347V60.6837C78.6152 60.4408 78.6135 60.2847 78.6093 60.1788ZM70.6466 70.7499V64.1283L64.1838 60.1788C64.1795 60.2847 64.1779 60.4408 64.1779 60.6837V65.9347C64.1779 66.4798 64.1863 66.5875 64.2134 66.6724C64.2449 66.7709 64.2964 66.8619 64.3646 66.9395C64.4235 67.0065 64.5116 67.0691 64.979 67.3495L70.5476 70.6907C70.5825 70.7117 70.6154 70.7314 70.6466 70.7499Z" fill="#3EC227"/>
<path fill-rule="evenodd" clip-rule="evenodd" d="M14.8698 52.4277C12.1002 52.4277 9.85505 54.6729 9.85505 57.4424C9.85505 57.8717 9.86883 58.3735 9.92278 58.85C9.97823 59.3398 10.0699 59.7412 10.1943 60.003C10.3304 60.2895 10.2715 60.6308 10.0471 60.8551L5.10597 65.7963C4.71663 66.1856 4.71663 66.8169 5.10597 67.2062C5.49531 67.5956 6.12656 67.5956 6.5159 67.2062L11.4571 62.2651C11.6814 62.0407 12.0226 61.9818 12.3092 62.1179C12.571 62.2423 12.9724 62.334 13.4622 62.3894C13.9387 62.4434 14.4405 62.4571 14.8698 62.4571C17.6393 62.4571 19.8845 60.212 19.8845 57.4424C19.8845 57.4175 19.8843 57.3927 19.8839 57.3679L18.9866 58.2652C18.9606 58.2912 18.9349 58.3169 18.9097 58.3422C18.4972 58.7553 18.1782 59.0747 17.82 59.2675C17.0064 59.7053 16.0273 59.7053 15.2136 59.2675C14.8554 59.0747 14.5365 58.7553 14.124 58.3422C14.0987 58.3169 14.073 58.2912 14.047 58.2652C14.021 58.2392 13.9953 58.2135 13.97 58.1882C13.5569 57.7757 13.2375 57.4568 13.0447 57.0986C12.6069 56.2849 12.6069 55.3058 13.0447 54.4922C13.2375 54.134 13.5569 53.815 13.97 53.4025C13.9953 53.3773 14.021 53.3516 14.047 53.3256L14.9443 52.4283C14.9195 52.4279 14.8947 52.4277 14.8698 52.4277ZM8.35505 57.4424C8.35505 53.8445 11.2718 50.9277 14.8698 50.9277C15.5153 50.9277 16.1402 51.0219 16.7308 51.1976C16.984 51.273 17.179 51.4761 17.2439 51.7323C17.3087 51.9885 17.234 52.2599 17.0471 52.4468L15.1077 54.3862C14.5808 54.9131 14.4394 55.0658 14.3656 55.203C14.1666 55.5729 14.1666 56.0179 14.3656 56.3877C14.4394 56.525 14.5808 56.6777 15.1077 57.2045C15.6345 57.7314 15.7872 57.8728 15.9245 57.9466C16.2943 58.1456 16.7393 58.1456 17.1092 57.9466C17.2464 57.8728 17.3991 57.7314 17.9259 57.2045L19.8654 55.2651C20.0523 55.0782 20.3237 55.0035 20.5799 55.0683C20.8361 55.1332 21.0392 55.3282 21.1146 55.5814C21.2903 56.172 21.3845 56.7969 21.3845 57.4424C21.3845 61.0404 18.4677 63.9571 14.8698 63.9571C14.4149 63.9571 13.8499 63.9429 13.2934 63.8799C12.9294 63.8387 12.5409 63.7738 12.1776 63.6658L7.57656 68.2669C6.60143 69.242 5.02044 69.242 4.04531 68.2669C3.07018 67.2918 3.07018 65.7108 4.04531 64.7356L8.64638 60.1346C8.53841 59.7713 8.47352 59.3828 8.4323 59.0187C8.3693 58.4623 8.35505 57.8973 8.35505 57.4424Z" fill="#3EC227"/>
<path fill-rule="evenodd" clip-rule="evenodd" d="M28.3072 14.6131C28.7135 14.6936 29.1082 14.4295 29.1886 14.0232L30.4064 7.8753C30.4868 7.46898 30.2227 7.07435 29.8164 6.99387L23.6685 5.77615C23.2622 5.69567 22.8676 5.95982 22.7871 6.36614C22.7066 6.77246 22.9708 7.16709 23.3771 7.24757L27.2083 8.00642C26.8057 8.20052 26.3564 8.42414 25.8679 8.6778C23.7408 9.78232 20.8643 11.4597 17.8641 13.7532C11.8744 18.3321 5.3218 25.4224 3.35061 35.3743C2.05688 41.9059 2.59012 48.3778 4.59716 54.2585C4.73095 54.6505 5.1572 54.8599 5.54921 54.7261C5.94122 54.5923 6.15055 54.1661 6.01676 53.774C4.09261 48.1362 3.5809 41.9318 4.82202 35.6658C6.69384 26.2156 12.9334 19.4107 18.7751 14.9449C21.6907 12.716 24.4897 11.0836 26.5592 10.009C27.391 9.57708 28.104 9.23578 28.6579 8.98256L27.7172 13.7317C27.6368 14.138 27.9009 14.5327 28.3072 14.6131ZM71.8382 48.0617C71.554 48.363 71.568 48.8377 71.8693 49.1219L76.429 53.4217C76.7304 53.7059 77.205 53.6919 77.4892 53.3906L81.789 48.8309C82.0732 48.5296 82.0593 48.0549 81.7579 47.7707C81.4566 47.4865 80.9819 47.5005 80.6977 47.8018L78.0182 50.6433C78.0678 50.1991 78.1173 49.6997 78.1621 49.1511C78.3575 46.7623 78.4661 43.4342 78.1185 39.6738C77.4247 32.1664 74.903 22.8471 67.522 15.8867C62.6777 11.3185 56.9127 8.32945 50.8649 6.90293C50.4617 6.80784 50.0578 7.05757 49.9627 7.46072C49.8676 7.86387 50.1173 8.26777 50.5205 8.36287C56.3186 9.73046 61.8455 12.5955 66.4929 16.978C73.5018 23.5874 75.9482 32.4899 76.6249 39.8119C76.9626 43.4662 76.8572 46.7047 76.6671 49.0288C76.5907 49.963 76.5008 50.7483 76.4207 51.3521L72.8984 48.0306C72.5971 47.7464 72.1224 47.7603 71.8382 48.0617ZM18.8655 67.6563C19.2692 67.5636 19.6716 67.8157 19.7644 68.2194C19.8571 68.6231 19.605 69.0256 19.2013 69.1183L14.4877 70.2008C14.9436 70.5987 15.5429 71.1034 16.2718 71.6781C18.0962 73.1165 20.7271 74.989 23.9499 76.724C30.4072 80.2001 39.1629 83.0839 48.5538 80.9272C54.7803 79.4972 60.2358 76.5026 64.598 72.4584C64.9017 72.1768 65.3763 72.1948 65.6579 72.4985C65.9395 72.8023 65.9216 73.2768 65.6178 73.5584C61.068 77.7765 55.3782 80.899 48.8895 82.3892C39.0032 84.6597 29.8607 81.6094 23.2389 78.0448C19.9223 76.2593 17.2185 74.3347 15.3431 72.8561C14.9117 72.5159 14.5238 72.1992 14.1821 71.9129L15.0505 75.694C15.1432 76.0977 14.8911 76.5001 14.4874 76.5929C14.0837 76.6856 13.6813 76.4335 13.5886 76.0298L12.1941 69.958C12.1014 69.5543 12.3535 69.1519 12.7572 69.0592L18.8655 67.6563Z" fill="#233441"/>
</svg>
