<svg width="84" height="84" viewBox="0 0 84 84" fill="none" xmlns="http://www.w3.org/2000/svg">
<path fill-rule="evenodd" clip-rule="evenodd" d="M28.0718 27.1852C28.0718 19.0673 34.6527 12.4863 42.7707 12.4863C50.8887 12.4863 57.4696 19.0673 57.4696 27.1852C57.4696 35.3032 50.8887 41.8841 42.7707 41.8841C34.6527 41.8841 28.0718 35.3032 28.0718 27.1852ZM42.7707 10.9863C33.8243 10.9863 26.5718 18.2388 26.5718 27.1852C26.5718 36.1317 33.8243 43.3841 42.7707 43.3841C51.7171 43.3841 58.9696 36.1317 58.9696 27.1852C58.9696 18.2388 51.7171 10.9863 42.7707 10.9863ZM37.3409 27.1852C37.3409 26.9152 37.3606 26.6498 37.3987 26.3903H42.7705C43.1847 26.3903 43.5205 26.0546 43.5205 25.6403C43.5205 25.2261 43.1847 24.8903 42.7705 24.8903H37.8483C38.7131 23.0387 40.592 21.7557 42.7705 21.7557C44.3921 21.7557 45.8469 22.4656 46.8429 23.594C47.117 23.9046 47.5909 23.9341 47.9015 23.66C48.212 23.3859 48.2416 22.912 47.9675 22.6014C46.6988 21.1641 44.8403 20.2557 42.7705 20.2557C39.7477 20.2557 37.177 22.1911 36.23 24.8903H35.046C34.6318 24.8903 34.296 25.2261 34.296 25.6403C34.296 26.0546 34.6318 26.3903 35.046 26.3903H35.886C35.8562 26.6512 35.8409 26.9164 35.8409 27.1852C35.8409 27.4541 35.8562 27.7193 35.886 27.9801H35.046C34.6318 27.9801 34.296 28.3159 34.296 28.7301C34.296 29.1443 34.6318 29.4801 35.046 29.4801H36.23C37.177 32.1794 39.7477 34.1148 42.7705 34.1148C44.8403 34.1148 46.6988 33.2064 47.9675 31.769C48.2416 31.4585 48.212 30.9845 47.9015 30.7104C47.5909 30.4363 47.117 30.4659 46.8429 30.7764C45.8469 31.9049 44.3921 32.6148 42.7705 32.6148C40.592 32.6148 38.7131 31.3318 37.8483 29.4801H41.2256C41.6398 29.4801 41.9756 29.1443 41.9756 28.7301C41.9756 28.3159 41.6398 27.9801 41.2256 27.9801H37.3987C37.3606 27.7207 37.3409 27.4553 37.3409 27.1852Z" fill="#3EC227"/>
<path d="M16.7061 75.5889V66.9531C16.7061 66.4008 17.1538 65.9531 17.7061 65.9531H35.7009C36.3057 65.9531 36.7721 66.4858 36.6921 67.0853L35.5407 75.721C35.4745 76.2179 35.0507 76.5889 34.5495 76.5889H17.7061C17.1538 76.5889 16.7061 76.1412 16.7061 75.5889Z" stroke="#233441" stroke-width="1.5"/>
<path d="M19.9678 65.8105C19.9678 65.8105 20.087 64.5739 19.6842 63.967C19.232 63.2857 18.5978 63.283 17.8406 62.9743C16.6837 62.5026 15.3926 62.6008 14.7208 62.2652C14.049 61.9297 12.7355 60.1381 12.7355 60.1381C12.7355 60.1381 3.90951 49.1219 3.51782 46.0989C3.12612 43.0759 2.30854 32.5785 3.51782 27.6636C3.81979 26.4363 4.78053 25.6535 6.04436 25.641C7.32414 25.6283 7.99964 25.9507 8.62298 27.6636C9.24632 29.3765 10.0411 36.314 10.0411 36.314M10.0411 36.314C10.0411 36.314 10.5857 44.2411 10.8471 44.8526C11.1084 45.4641 15.2043 47.1462 16.4225 49.786C17.087 51.2259 17.2734 53.7566 17.2734 53.7566M10.0411 36.314C10.0411 36.314 10.7551 35.2389 11.4592 34.8959C12.4051 34.4351 13.091 34.5128 14.1536 34.8959C15.2161 35.279 17.3741 38.8255 18.3183 40.5834C19.2625 42.3412 20.1563 44.172 22.0949 45.3898C23.0886 46.0141 23.8634 45.8956 24.9311 46.3825C26.6084 47.1474 27.5937 47.6362 28.9018 48.9351C30.7303 50.7507 31.1633 52.3197 32.0216 54.7493C32.5541 56.2564 32.7668 57.1409 33.0143 58.72C33.4431 61.4556 33.0143 65.8105 33.0143 65.8105" stroke="#233441" stroke-width="1.5" stroke-linecap="round"/>
<path d="M67.8477 75.5889V66.9531C67.8477 66.4008 67.3999 65.9531 66.8477 65.9531H48.8521C48.2473 65.9531 47.7809 66.4858 47.8609 67.0853L49.0123 75.7211C49.0786 76.2179 49.5024 76.5889 50.0036 76.5889H66.8477C67.3999 76.5889 67.8477 76.1412 67.8477 75.5889Z" stroke="#233441" stroke-width="1.5"/>
<path d="M64.5858 65.8105C64.5858 65.8105 64.4666 64.5739 64.8694 63.967C65.3217 63.2857 65.9558 63.283 66.713 62.9743C67.8701 62.5026 69.1612 62.6008 69.833 62.2652C70.5048 61.9297 71.8184 60.1381 71.8184 60.1381C71.8184 60.1381 80.6447 49.1219 81.0364 46.0989C81.4281 43.0759 82.2457 32.5785 81.0364 27.6636C80.7344 26.4363 79.7736 25.6535 78.5097 25.641C77.2299 25.6283 76.5544 25.9507 75.931 27.6636C75.3077 29.3765 74.5129 36.314 74.5129 36.314M74.5129 36.314C74.5129 36.314 73.9682 44.2411 73.7068 44.8526C73.4455 45.4641 69.3494 47.1462 68.1312 49.786C67.4667 51.2259 67.2803 53.7566 67.2803 53.7566M74.5129 36.314C74.5129 36.314 73.7988 35.2389 73.0947 34.8959C72.1487 34.4351 71.4628 34.5128 70.4002 34.8959C69.3376 35.279 67.1795 38.8255 66.2353 40.5834C65.2911 42.3412 64.3973 44.172 62.4586 45.3898C61.4649 46.0141 60.69 45.8956 59.6223 46.3825C57.945 47.1474 56.9596 47.6362 55.6515 48.9351C53.8229 50.7507 53.3899 52.3197 52.5315 54.7493C51.9991 56.2564 51.7863 57.1409 51.5388 58.72C51.11 61.4556 51.5388 65.8105 51.5388 65.8105" stroke="#233441" stroke-width="1.5" stroke-linecap="round"/>
</svg>
