<svg width="33" height="32" viewBox="0 0 33 32" fill="none" xmlns="http://www.w3.org/2000/svg">
<path fill-rule="evenodd" clip-rule="evenodd" d="M11.1665 3.25H11.1329C9.76122 3.25 8.68579 3.24999 7.82144 3.32061C6.9413 3.39252 6.21419 3.54138 5.55606 3.87671C4.47413 4.42798 3.59449 5.30762 3.04322 6.38955C2.70788 7.04769 2.55903 7.77479 2.48712 8.65494C2.4165 9.51929 2.4165 10.5947 2.4165 11.9664V12V20V20.0336C2.4165 21.4053 2.4165 22.4807 2.48712 23.3451C2.55903 24.2252 2.70788 24.9523 3.04322 25.6104C3.59449 26.6924 4.47413 27.572 5.55606 28.1233C6.21419 28.4586 6.9413 28.6075 7.82144 28.6794C8.68577 28.75 9.76119 28.75 11.1329 28.75H11.1329H11.1665H21.8332H21.8667H21.8668C23.2385 28.75 24.3139 28.75 25.1782 28.6794C26.0584 28.6075 26.7855 28.4586 27.4436 28.1233C28.5255 27.572 29.4052 26.6924 29.9565 25.6104C30.2918 24.9523 30.4406 24.2252 30.5126 23.3451C30.5832 22.4807 30.5832 21.4053 30.5832 20.0336V20.0336V20V12V11.9664V11.9664C30.5832 10.5947 30.5832 9.51927 30.5126 8.65494C30.4406 7.77479 30.2918 7.04769 29.9565 6.38955C29.4052 5.30762 28.5255 4.42798 27.4436 3.87671C26.7855 3.54138 26.0584 3.39252 25.1782 3.32061C24.3139 3.24999 23.2385 3.25 21.8667 3.25H21.8332H11.1665ZM6.23704 5.21322C6.64847 5.00359 7.15621 4.87996 7.94359 4.81563C8.73972 4.75058 9.754 4.75 11.1665 4.75H21.8332C23.2457 4.75 24.26 4.75058 25.0561 4.81563C25.8435 4.87996 26.3512 5.00359 26.7626 5.21322C27.5623 5.62068 28.2125 6.27085 28.6199 7.07054C28.8296 7.48197 28.9532 7.9897 29.0175 8.77708C29.0826 9.57322 29.0832 10.5875 29.0832 12V20C29.0832 21.4125 29.0826 22.4268 29.0175 23.2229C28.9532 24.0103 28.8296 24.518 28.6199 24.9295C28.2125 25.7291 27.5623 26.3793 26.7626 26.7868C26.3512 26.9964 25.8435 27.12 25.0561 27.1844C24.26 27.2494 23.2457 27.25 21.8332 27.25H11.1665C9.75399 27.25 8.73972 27.2494 7.94359 27.1844C7.15621 27.12 6.64847 26.9964 6.23704 26.7868C5.43736 26.3793 4.78719 25.7291 4.37973 24.9295C4.17009 24.518 4.04647 24.0103 3.98213 23.2229C3.91709 22.4268 3.9165 21.4125 3.9165 20V12C3.9165 10.5875 3.91709 9.57322 3.98213 8.77708C4.04647 7.9897 4.17009 7.48197 4.37973 7.07054C4.78719 6.27085 5.43736 5.62068 6.23704 5.21322ZM8.91586 10.0426C8.57122 9.81286 8.10556 9.906 7.8758 10.2506C7.64604 10.5953 7.73917 11.0609 8.08381 11.2907L9.41715 12.1796L10.7587 13.074L10.8978 13.1667C12.6888 14.361 13.7555 15.0724 14.9268 15.3531C15.9609 15.6008 17.0388 15.6008 18.0728 15.3531C19.2442 15.0724 20.3109 14.361 22.1019 13.1667L22.241 13.074L23.5825 12.1796L24.9159 11.2907C25.2605 11.0609 25.3536 10.5953 25.1239 10.2506C24.8941 9.906 24.4285 9.81286 24.0838 10.0426L22.7505 10.9315L21.4089 11.8259C19.4354 13.1416 18.6021 13.6838 17.7233 13.8944C16.919 14.0871 16.0806 14.0871 15.2764 13.8944C14.3976 13.6838 13.5643 13.1416 11.5907 11.8259L10.2492 10.9315L8.91586 10.0426Z" fill="#3EC227"/>
</svg>
