<svg width="84" height="84" viewBox="0 0 84 84" fill="none" xmlns="http://www.w3.org/2000/svg">
<path fill-rule="evenodd" clip-rule="evenodd" d="M28.6415 8.19604C28.5908 8.18983 28.5401 8.18482 28.4893 8.18101C28.649 8.31854 28.7501 8.5222 28.7501 8.74947V22.3121V27.7809C28.7501 28.1951 28.4143 28.5309 28.0001 28.5309C27.5859 28.5309 27.2501 28.1951 27.2501 27.7809V22.3121V8.74947C27.2501 8.57194 27.3118 8.40882 27.4149 8.28037C27.0398 8.38386 26.6374 8.59722 25.6878 9.11515L8.61004 18.4303C8.10929 18.7034 8.01455 18.7655 7.95139 18.8333C7.87807 18.912 7.82254 19.0056 7.78856 19.1076C7.75929 19.1955 7.75015 19.3084 7.75015 19.8788V74.0348C7.75015 74.5378 7.7509 74.8631 7.77269 75.1008C7.78935 75.2825 7.81406 75.3443 7.81849 75.3543C7.87457 75.4304 7.95902 75.4805 8.05262 75.4933C8.06359 75.4924 8.12966 75.4845 8.29716 75.4121C8.51623 75.3175 8.80222 75.1623 9.24379 74.9215L24.9696 66.3438L25.0639 66.2923C25.9548 65.8061 26.5286 65.493 27.1489 65.3457C27.1826 65.3377 27.2163 65.3301 27.2501 65.3229V61.2495C27.2501 60.8352 27.5859 60.4995 28.0001 60.4995C28.4143 60.4995 28.7501 60.8352 28.7501 61.2495V65.2442C28.7748 65.2468 28.7994 65.2496 28.8241 65.2526C29.4568 65.3302 30.0619 65.5779 31.0011 65.9623L31.1006 66.0031L53.4677 75.1532C54.4458 75.5534 54.8726 75.7224 55.2501 75.7871V61.2495V55.7808C55.2501 55.3666 55.5859 55.0308 56.0001 55.0308C56.4143 55.0308 56.7501 55.3666 56.7501 55.7808V61.2495V75.6669C57.0872 75.5478 57.4992 75.3276 58.3125 74.884L75.3903 65.5688C75.891 65.2957 75.9857 65.2336 76.0489 65.1658C76.1222 65.0871 76.1778 64.9936 76.2117 64.8915C76.241 64.8036 76.2502 64.6907 76.2502 64.1203V9.96437C76.2502 9.46138 76.2494 9.13602 76.2276 8.89837C76.2109 8.71658 76.1862 8.65482 76.1818 8.64478C76.1257 8.56876 76.0413 8.51864 75.9477 8.50581C75.9367 8.50674 75.8706 8.51464 75.7031 8.58703C75.4841 8.6817 75.1981 8.83683 74.7565 9.07769L59.0307 17.6554L58.9363 17.7069C58.0455 18.193 57.4717 18.5062 56.8514 18.6534C56.8177 18.6614 56.7839 18.669 56.7501 18.6763V21.5174C56.7501 21.9316 56.4143 22.2674 56.0001 22.2674C55.5859 22.2674 55.2501 21.9316 55.2501 21.5174V18.755C55.2255 18.7523 55.2008 18.7495 55.1762 18.7465C54.5435 18.6689 53.9384 18.4213 52.9993 18.0368L52.8997 17.9961L30.5326 8.84592C29.4598 8.40702 29.0502 8.24616 28.6415 8.19604ZM27.1489 6.80028C27.6974 6.67011 28.2646 6.63858 28.8241 6.70719C29.4568 6.78479 30.0619 7.03244 31.0011 7.41687L31.1006 7.4576L53.4677 16.6078C54.5405 17.0467 54.9501 17.2075 55.3588 17.2576C55.7416 17.3046 56.1297 17.283 56.505 17.194C56.9056 17.0989 57.2948 16.8936 58.3125 16.3385L74.0382 7.76085L74.0685 7.74436C74.4713 7.52462 74.8182 7.3354 75.1081 7.2101C75.4028 7.08275 75.7482 6.9702 76.1247 7.01625C76.639 7.07914 77.1033 7.35476 77.4047 7.77608C77.6254 8.08459 77.692 8.44172 77.7213 8.76141C77.7502 9.07588 77.7502 9.47091 77.7502 9.92964V9.92974V9.92984V9.96437V64.1203L77.7502 64.2099V64.21C77.7508 64.6388 77.7512 65.0161 77.6349 65.3654C77.533 65.6716 77.3664 65.9522 77.1464 66.1883C76.8954 66.4577 76.564 66.638 76.1872 66.8428L76.1085 66.8857L59.0307 76.2008L58.9363 76.2523C58.0455 76.7385 57.4717 77.0516 56.8514 77.1989C56.3029 77.329 55.7357 77.3606 55.1762 77.292C54.5435 77.2144 53.9385 76.9667 52.9994 76.5823L52.9993 76.5823L52.8997 76.5415L30.5326 67.3914C29.4598 66.9525 29.0502 66.7916 28.6415 66.7415C28.2587 66.6945 27.8706 66.7161 27.4953 66.8052C27.0947 66.9003 26.7055 67.1055 25.6878 67.6606L9.96207 76.2383L9.93189 76.2548L9.9314 76.255L9.93102 76.2552C9.52856 76.4748 9.18195 76.6638 8.8922 76.789C8.59751 76.9164 8.2521 77.0289 7.87557 76.9829C7.36134 76.92 6.89705 76.6444 6.5956 76.2231C6.37487 75.9146 6.30827 75.5574 6.27896 75.2377C6.25012 74.9232 6.25013 74.528 6.25015 74.0692L6.25015 74.0348V19.8788L6.25007 19.7893C6.24953 19.3604 6.24904 18.9831 6.36539 18.6337C6.46733 18.3276 6.63392 18.0469 6.85387 17.8109C7.1049 17.5414 7.43634 17.3612 7.81308 17.1563L7.89177 17.1135L24.9696 7.7983L25.0639 7.7468C25.9548 7.26068 26.5286 6.94751 27.1489 6.80028ZM28.0001 42.1245C28.4143 42.1245 28.7501 42.4603 28.7501 42.8745V43.7495L28.7502 46.5933C28.7502 47.0075 28.4145 47.3433 28.0003 47.3433C27.586 47.3433 27.2502 47.0076 27.2502 46.5933L27.2501 43.7495V42.8745C27.2501 42.4603 27.5859 42.1245 28.0001 42.1245ZM56.7501 37.187C56.7501 36.7728 56.4143 36.437 56.0001 36.437C55.5859 36.437 55.2501 36.7728 55.2501 37.187V37.6245V38.4995V39.3745V39.812V40.0307C55.2501 40.4449 55.5859 40.7807 56.0001 40.7807C56.4143 40.7807 56.7501 40.4449 56.7501 40.0307V39.812V39.3745V38.4995V37.6245V37.187Z" fill="#233441"/>
<path fill-rule="evenodd" clip-rule="evenodd" d="M53.8125 24.8125C51.3272 24.8125 49.3125 26.8272 49.3125 29.3125C49.3125 31.7978 51.3272 33.8125 53.8125 33.8125C56.2978 33.8125 58.3125 31.7978 58.3125 29.3125C58.3125 26.8272 56.2978 24.8125 53.8125 24.8125ZM47.8125 29.3125C47.8125 25.9988 50.4988 23.3125 53.8125 23.3125C57.1262 23.3125 59.8125 25.9988 59.8125 29.3125C59.8125 32.6262 57.1262 35.3125 53.8125 35.3125C50.4988 35.3125 47.8125 32.6262 47.8125 29.3125ZM31.0625 49.3125C28.5772 49.3125 26.5625 51.3272 26.5625 53.8125C26.5625 56.2978 28.5772 58.3125 31.0625 58.3125C33.5478 58.3125 35.5625 56.2978 35.5625 53.8125C35.5625 51.3272 33.5478 49.3125 31.0625 49.3125ZM25.0625 53.8125C25.0625 50.4988 27.7488 47.8125 31.0625 47.8125C34.1222 47.8125 36.647 50.1028 37.0161 53.0625H51.1875C54.156 53.0625 56.5625 50.656 56.5625 47.6875C56.5625 44.719 54.156 42.3125 51.1875 42.3125H33.6875C29.8905 42.3125 26.8125 39.2345 26.8125 35.4375C26.8125 31.6405 29.8905 28.5625 33.6875 28.5625H41.5018L38.4072 25.4678C38.1143 25.1749 38.1143 24.7001 38.4072 24.4072C38.7001 24.1143 39.1749 24.1143 39.4678 24.4072L43.8428 28.7822C44.1357 29.0751 44.1357 29.5499 43.8428 29.8428L39.4678 34.2178C39.1749 34.5107 38.7001 34.5107 38.4072 34.2178C38.1143 33.9249 38.1143 33.4501 38.4072 33.1572L41.5018 30.0625H33.6875C30.719 30.0625 28.3125 32.469 28.3125 35.4375C28.3125 38.406 30.719 40.8125 33.6875 40.8125H51.1875C54.9845 40.8125 58.0625 43.8905 58.0625 47.6875C58.0625 51.4845 54.9845 54.5625 51.1875 54.5625H37.0161C36.647 57.5222 34.1222 59.8125 31.0625 59.8125C27.7488 59.8125 25.0625 57.1262 25.0625 53.8125Z" fill="#3EC227"/>
</svg>
