<svg width="84" height="84" viewBox="0 0 84 84" fill="none" xmlns="http://www.w3.org/2000/svg">
<path fill-rule="evenodd" clip-rule="evenodd" d="M39.6927 29.0224C39.9058 29.3776 39.7906 29.8383 39.4354 30.0514L39.169 30.2113L38.6362 30.531L37.5706 31.1704L33.3081 33.7279L26.7055 37.6894L33.4259 41.7963L48.0941 32.8325L45.3239 31.1704C44.9687 30.9572 44.8536 30.4965 45.0667 30.1414C45.2798 29.7862 45.7405 29.671 46.0957 29.8841L50.3582 32.4416L57.7181 36.8576L57.7914 36.9014C58.1435 37.1121 58.4534 37.2976 58.6871 37.5633C58.8919 37.7963 59.0464 38.0691 59.1408 38.3646C59.2484 38.7017 59.248 39.0629 59.2475 39.4732L59.2474 39.5587V51.5001C59.2474 51.9143 58.9116 52.2501 58.4974 52.2501C58.0832 52.2501 57.7474 51.9143 57.7474 51.5001V39.5587C57.7474 39.0136 57.739 38.9058 57.7119 38.8209C57.6804 38.7224 57.6289 38.6315 57.5606 38.5538C57.5422 38.5329 57.521 38.5124 57.4861 38.4855C57.4276 38.6278 57.325 38.7534 57.1837 38.8397L42.1975 47.998V64.1848C42.2283 64.1673 42.261 64.1486 42.2956 64.1287L50.6264 59.3496C50.9857 59.1434 51.4441 59.2676 51.6502 59.6269C51.8563 59.9862 51.7321 60.4446 51.3729 60.6507L43.042 65.4298L42.9652 65.474C42.5975 65.6855 42.274 65.8717 41.9167 65.945C41.6037 66.0093 41.2805 66.0061 40.9688 65.9357C40.613 65.8554 40.2932 65.663 39.9297 65.4442L39.8538 65.3986L25.1764 56.5922L25.1032 56.5483C24.751 56.3376 24.4411 56.1522 24.2074 55.8864C24.0026 55.6534 23.8481 55.3806 23.7538 55.0851C23.6461 54.748 23.6465 54.3869 23.647 53.9765L23.6471 53.8911V39.5587L23.647 39.4732C23.6465 39.0629 23.6461 38.7017 23.7538 38.3646C23.8481 38.0691 24.0026 37.7963 24.2074 37.5633C24.4411 37.2976 24.751 37.1121 25.1032 36.9014L25.1764 36.8576L32.5363 32.4416L36.7988 29.8841L37.8645 29.2447L38.3973 28.925L38.6637 28.7652C39.0189 28.5521 39.4796 28.6673 39.6927 29.0224ZM40.6975 64.1554V47.998L25.7113 38.8397C25.5699 38.7533 25.4672 38.6276 25.4087 38.4852C25.3737 38.5122 25.3524 38.5328 25.3339 38.5538C25.2656 38.6315 25.2141 38.7224 25.1827 38.8209C25.1555 38.9058 25.1471 39.0136 25.1471 39.5587V53.8911C25.1471 54.4362 25.1555 54.5439 25.1827 54.6288C25.2141 54.7273 25.2656 54.8182 25.3339 54.8959C25.3928 54.9629 25.4808 55.0255 25.9482 55.3059L40.6256 64.1124C40.6506 64.1274 40.6745 64.1417 40.6975 64.1554ZM56.1892 37.6895L49.5865 33.7279L49.5446 33.7027C49.5336 33.7103 49.5224 33.7175 49.511 33.7245L34.8642 42.6753L41.4475 46.6984L56.1892 37.6895Z" fill="#233441"/>
<path fill-rule="evenodd" clip-rule="evenodd" d="M23.3524 5.11719H23.3854H61.7471H61.7801C62.8723 5.11718 63.7378 5.11718 64.4354 5.17418C65.1488 5.23246 65.7524 5.35407 66.3036 5.63491C67.1973 6.09031 67.924 6.81696 68.3794 7.71073C68.6602 8.26191 68.7818 8.86553 68.8401 9.57892C68.8971 10.2765 68.8971 11.142 68.8971 12.2342V12.2672V24.1392V51C68.8971 51.4142 68.5613 51.75 68.1471 51.75C67.7329 51.75 67.3971 51.4142 67.3971 51V24.1392V15.3672L17.7354 15.3672V68.2202H42.5662H50.9995C51.4137 68.2202 51.7495 68.556 51.7495 68.9702C51.7495 69.3844 51.4137 69.7202 50.9995 69.7202H42.5662H17.7354V72.5554C17.7354 73.6879 17.7359 74.4922 17.7874 75.1215C17.8381 75.7422 17.9344 76.1264 18.0896 76.4309C18.4012 77.0424 18.8984 77.5396 19.5099 77.8512C19.8144 78.0063 20.1986 78.1027 20.8192 78.1534C21.4486 78.2048 22.2529 78.2054 23.3854 78.2054H51C51.4142 78.2054 51.75 78.5412 51.75 78.9554C51.75 79.3696 51.4142 79.7054 51 79.7054H23.3854H23.3525C22.2603 79.7054 21.3947 79.7054 20.6971 79.6484C19.9837 79.5901 19.3801 79.4685 18.8289 79.1877C17.9351 78.7323 17.2085 78.0056 16.7531 77.1119C16.4722 76.5607 16.3506 75.9571 16.2923 75.2437C16.2353 74.5461 16.2353 73.6806 16.2354 72.5884V72.5554V12.2672V12.2342C16.2353 11.142 16.2353 10.2765 16.2923 9.57892C16.3506 8.86553 16.4722 8.26191 16.7531 7.71073C17.2085 6.81696 17.9351 6.09031 18.8289 5.63491C19.3801 5.35407 19.9837 5.23246 20.6971 5.17418C21.3947 5.11718 22.2602 5.11718 23.3523 5.11719H23.3524ZM17.7354 13.8672L67.3971 13.8672V12.2672C67.3971 11.1347 67.3965 10.3305 67.3451 9.70107C67.2944 9.08044 67.198 8.69619 67.0429 8.39172C66.7313 7.78019 66.2341 7.28301 65.6226 6.97142C65.3181 6.81628 64.9339 6.7199 64.3132 6.66919C63.6838 6.61777 62.8796 6.61719 61.7471 6.61719H23.3854C22.2529 6.61719 21.4486 6.61777 20.8192 6.66919C20.1986 6.7199 19.8144 6.81628 19.5099 6.97142C18.8984 7.28301 18.4012 7.78019 18.0896 8.39172C17.9344 8.69619 17.8381 9.08044 17.7874 9.70107C17.7359 10.3305 17.7354 11.1347 17.7354 12.2672V13.8672Z" fill="#233441"/>
<circle cx="42.6175" cy="73.9105" r="2.33824" stroke="#233441" stroke-width="1.5"/>
<path d="M42.6181 26.1053C43.8461 26.1053 44.8416 25.1098 44.8416 23.8817C44.8416 22.6537 43.8461 21.6582 42.6181 21.6582C41.39 21.6582 40.3945 22.6537 40.3945 23.8817C40.3945 25.1098 41.39 26.1053 42.6181 26.1053Z" stroke="#3EC227" stroke-width="1.5" stroke-linecap="round" stroke-linejoin="round"/>
<path d="M48.1767 23.8811C48.1767 28.884 42.6179 32.7752 42.6179 32.7752C42.6179 32.7752 37.0591 28.884 37.0591 23.8811C37.0591 22.4068 37.6447 20.9929 38.6872 19.9504C39.7297 18.9079 41.1436 18.3223 42.6179 18.3223C44.0922 18.3223 45.5061 18.9079 46.5486 19.9504C47.5911 20.9929 48.1767 22.4068 48.1767 23.8811V23.8811Z" stroke="#3EC227" stroke-width="1.5" stroke-linecap="round" stroke-linejoin="round"/>
<path fill-rule="evenodd" clip-rule="evenodd" d="M67.6663 53.916C59.8883 53.916 53.583 60.2213 53.583 67.9993C53.583 75.7774 59.8883 82.0827 67.6663 82.0827C75.4444 82.0827 81.7497 75.7774 81.7497 67.9993C81.7497 60.2213 75.4444 53.916 67.6663 53.916ZM55.083 67.9993C55.083 61.0498 60.7168 55.416 67.6663 55.416C74.6159 55.416 80.2497 61.0498 80.2497 67.9993C80.2497 74.9489 74.6159 80.5827 67.6663 80.5827C60.7168 80.5827 55.083 74.9489 55.083 67.9993ZM68.4163 62.666C68.4163 62.2518 68.0806 61.916 67.6663 61.916C67.2521 61.916 66.9163 62.2518 66.9163 62.666V67.9993C66.9163 68.2501 67.0417 68.4843 67.2503 68.6234L71.2503 71.2901C71.595 71.5198 72.0606 71.4267 72.2904 71.082C72.5201 70.7374 72.427 70.2717 72.0824 70.042L68.4163 67.598V62.666Z" fill="#3EC227"/>
</svg>
