<svg width="84" height="84" viewBox="0 0 84 84" fill="none" xmlns="http://www.w3.org/2000/svg">
<g clip-path="url(#clip0_3014_23933)">
<path fill-rule="evenodd" clip-rule="evenodd" d="M9.55091 14.75C9.55091 12.9551 11.006 11.5 12.8009 11.5H70.9242C72.7191 11.5 74.1742 12.9551 74.1742 14.75V18.271H9.55091V14.75ZM74.1742 51V19.771H9.55091V62.25H36.2977H37.8782H52.0005C52.4147 62.25 52.7505 62.5858 52.7505 63C52.7505 63.4142 52.4147 63.75 52.0005 63.75H37.8782H36.2977H6.00049C4.75785 63.75 3.75049 64.7574 3.75049 66C3.75049 67.2426 4.75785 68.25 6.00049 68.25H19.6491H27.9734H32.1355H40.4459H52.0005C52.4147 68.25 52.7505 68.5858 52.7505 69C52.7505 69.4142 52.4147 69.75 52.0005 69.75H40.4459H32.1355H27.9734H19.6491H6.00049C3.92942 69.75 2.25049 68.0711 2.25049 66C2.25049 63.9289 3.92942 62.25 6.00049 62.25H8.05091V14.75C8.05091 12.1266 10.1776 10 12.8009 10H70.9242C73.5476 10 75.6742 12.1266 75.6742 14.75V51C75.6742 51.4142 75.3384 51.75 74.9242 51.75C74.51 51.75 74.1742 51.4142 74.1742 51ZM35.3746 14.3638C34.9603 14.3638 34.6246 14.6996 34.6246 15.1138C34.6246 15.528 34.9603 15.8638 35.3746 15.8638L67.8351 15.8638C68.2493 15.8638 68.5851 15.528 68.5851 15.1138C68.5851 14.6996 68.2493 14.3638 67.8351 14.3638L35.3746 14.3638ZM15.3887 15.1138C15.3887 14.6996 15.7245 14.3638 16.1387 14.3638H18.5432C18.9574 14.3638 19.2932 14.6996 19.2932 15.1138C19.2932 15.528 18.9574 15.8638 18.5432 15.8638H16.1387C15.7245 15.8638 15.3887 15.528 15.3887 15.1138ZM20.9477 14.3638C20.5334 14.3638 20.1977 14.6996 20.1977 15.1138C20.1977 15.528 20.5334 15.8638 20.9477 15.8638H23.3521C23.7664 15.8638 24.1021 15.528 24.1021 15.1138C24.1021 14.6996 23.7664 14.3638 23.3521 14.3638H20.9477ZM25.0066 15.1138C25.0066 14.6996 25.3424 14.3638 25.7566 14.3638H28.1611C28.5753 14.3638 28.9111 14.6996 28.9111 15.1138C28.9111 15.528 28.5753 15.8638 28.1611 15.8638H25.7566C25.3424 15.8638 25.0066 15.528 25.0066 15.1138ZM14.5226 24.925C14.5226 24.7869 14.6345 24.675 14.7726 24.675H48.3201C48.4582 24.675 48.5701 24.7869 48.5701 24.925V29.3881C48.5701 29.5262 48.4582 29.6381 48.3201 29.6381H14.7726C14.6345 29.6381 14.5226 29.5262 14.5226 29.3881V24.925ZM14.7726 23.175C13.8061 23.175 13.0226 23.9585 13.0226 24.925V29.3881C13.0226 30.3546 13.8061 31.1381 14.7726 31.1381H48.3201C49.2866 31.1381 50.0701 30.3546 50.0701 29.3881V24.925C50.0701 23.9585 49.2866 23.175 48.3201 23.175H14.7726ZM14.7726 44.3131C14.6345 44.3131 14.5226 44.425 14.5226 44.5631V57.5911C14.5226 57.7291 14.6345 57.8411 14.7726 57.8411H27.1995C27.3376 57.8411 27.4495 57.7291 27.4495 57.5911V44.5631C27.4495 44.425 27.3376 44.3131 27.1995 44.3131H14.7726ZM13.0226 44.5631C13.0226 43.5966 13.8061 42.8131 14.7726 42.8131H27.1995C28.166 42.8131 28.9495 43.5966 28.9495 44.5631V57.5911C28.9495 58.5576 28.166 59.3411 27.1995 59.3411H14.7726C13.8061 59.3411 13.0226 58.5576 13.0226 57.5911V44.5631ZM14.5226 34.3711C14.5226 34.233 14.6345 34.1211 14.7726 34.1211H48.3201C48.4582 34.1211 48.5701 34.233 48.5701 34.3711V38.8343C48.5701 38.9724 48.4582 39.0843 48.3201 39.0843H14.7726C14.6345 39.0843 14.5226 38.9724 14.5226 38.8343V34.3711ZM14.7726 32.6211C13.8061 32.6211 13.0226 33.4046 13.0226 34.3711V38.8343C13.0226 39.8008 13.8061 40.5843 14.7726 40.5843H48.3201C49.2866 40.5843 50.0701 39.8008 50.0701 38.8343V34.3711C50.0701 33.4046 49.2866 32.6211 48.3201 32.6211H14.7726ZM35.7726 44.313C35.6345 44.313 35.5226 44.425 35.5226 44.563V57.5911C35.5226 57.7291 35.6345 57.8411 35.7726 57.8411H41.986H48.4495V57.6518V56.7126V54.8341V51.0771V44.563C48.4495 44.425 48.3376 44.313 48.1995 44.313H35.7726ZM34.0226 44.563C34.0226 43.5966 34.8061 42.813 35.7726 42.813H48.1995C49.166 42.813 49.9495 43.5965 49.9495 44.563V51.0771V54.8341V56.7126V57.6518V58.1214C49.9495 58.795 49.4034 59.3411 48.7299 59.3411H41.986H35.7726C34.8061 59.3411 34.0226 58.5576 34.0226 57.5911V44.563ZM56.7505 25C56.7505 24.8619 56.8624 24.75 57.0005 24.75H69.0005C69.1386 24.75 69.2505 24.8619 69.2505 25V51C69.2505 51.4142 69.5863 51.75 70.0005 51.75C70.4147 51.75 70.7505 51.4142 70.7505 51V25C70.7505 24.0335 69.967 23.25 69.0005 23.25H57.0005C56.034 23.25 55.2505 24.0335 55.2505 25V51C55.2505 51.4142 55.5863 51.75 56.0005 51.75C56.4147 51.75 56.7505 51.4142 56.7505 51V25Z" fill="#233441"/>
<path fill-rule="evenodd" clip-rule="evenodd" d="M55.75 67.9993C55.75 61.0498 61.3838 55.416 68.3333 55.416C75.2829 55.416 80.9167 61.0498 80.9167 67.9993C80.9167 74.9489 75.2829 80.5827 68.3333 80.5827C61.3838 80.5827 55.75 74.9489 55.75 67.9993ZM68.3333 53.916C60.5553 53.916 54.25 60.2213 54.25 67.9993C54.25 75.7774 60.5553 82.0827 68.3333 82.0827C76.1113 82.0827 82.4167 75.7774 82.4167 67.9993C82.4167 60.2213 76.1113 53.916 68.3333 53.916ZM74.8637 65.1963C75.1566 64.9035 75.1566 64.4286 74.8637 64.1357C74.5708 63.8428 74.0959 63.8428 73.803 64.1357L67 70.9387L64.197 68.1357C63.9041 67.8428 63.4292 67.8428 63.1363 68.1357C62.8434 68.4286 62.8434 68.9035 63.1363 69.1963L66.4697 72.5297C66.7626 72.8226 67.2374 72.8226 67.5303 72.5297L74.8637 65.1963Z" fill="#3EC227"/>
</g>
<defs>
<clipPath id="clip0_3014_23933">
<rect width="84" height="84" fill="white"/>
</clipPath>
</defs>
</svg>
