<svg width="25" height="24" viewBox="0 0 25 24" fill="none" xmlns="http://www.w3.org/2000/svg">
<g id="phone">
<path id="Icon" fill-rule="evenodd" clip-rule="evenodd" d="M6.87971 2.83063C6.69768 2.76194 6.46102 2.75015 5.58852 2.75015C5.07881 2.75015 4.74376 2.75079 4.48252 2.77341C4.23485 2.79486 4.10708 2.83273 4.01091 2.88045C3.75373 3.00809 3.48298 3.31406 3.3876 3.58486C3.30285 3.82548 3.31457 4.05991 3.42862 4.99006C3.73168 7.46159 4.41348 9.70513 5.42295 11.6807L6.82144 10.0186C7.6211 9.06824 7.9193 8.7029 8.0965 8.30196C8.26244 7.9265 8.35575 7.52301 8.37149 7.11282C8.3883 6.67478 8.28077 6.21562 7.97953 5.01066L7.85724 4.52151C7.64563 3.67506 7.57679 3.44833 7.466 3.28839C7.32155 3.07984 7.11706 2.92019 6.87971 2.83063ZM6.21436 13.0699L7.9692 10.9844C7.99432 10.9545 8.01914 10.925 8.04365 10.8959C8.7434 10.0646 9.19406 9.52924 9.46848 8.90832C9.71101 8.35957 9.84738 7.76985 9.87039 7.17035C9.89642 6.49198 9.72656 5.81312 9.4628 4.75903C9.45356 4.72211 9.44421 4.68472 9.43474 4.64686L9.31245 4.1577C9.30226 4.11694 9.29224 4.0767 9.28235 4.03698C9.11635 3.37045 8.98657 2.84933 8.69909 2.43429C8.3813 1.97548 7.93143 1.62423 7.40925 1.42721C6.93687 1.24897 6.39983 1.24945 5.71294 1.25007C5.67201 1.25011 5.63054 1.25015 5.58852 1.25015L5.55801 1.25014C5.08702 1.25013 4.6867 1.25012 4.35313 1.279C3.9988 1.30968 3.66802 1.37606 3.34409 1.53682C2.73704 1.83809 2.19795 2.44733 1.9728 3.08653C1.75741 3.69802 1.83197 4.30081 1.92481 5.0513C1.92976 5.09131 1.93476 5.13174 1.93977 5.17262C2.31498 8.23256 3.23938 10.9966 4.64702 13.3814C6.16356 15.9507 8.23479 18.069 10.7624 19.6374C13.2265 21.1664 16.1136 22.1662 19.3273 22.5603C19.3682 22.5653 19.4086 22.5703 19.4486 22.5753C20.1992 22.6682 20.8021 22.7427 21.4136 22.5273C22.0528 22.3022 22.662 21.7631 22.9633 21.1561C23.1248 20.8306 23.1908 20.4961 23.2212 20.1384C23.25 19.8003 23.25 19.3929 23.25 18.9117V18.8813C23.25 18.8408 23.25 18.8009 23.2501 18.7614C23.2507 18.0901 23.2511 17.5632 23.0729 17.0909C22.8759 16.5687 22.5246 16.1188 22.0658 15.801C21.6508 15.5136 21.1297 15.3838 20.4631 15.2178C20.4234 15.2079 20.3832 15.1979 20.3424 15.1877L19.6341 15.0106C19.5989 15.0018 19.5642 14.9931 19.5298 14.9845C18.5453 14.7382 17.9111 14.5795 17.2737 14.5931C16.7101 14.6051 16.1532 14.7173 15.629 14.9245C15.0361 15.1589 14.5128 15.5508 13.7006 16.1593C13.6723 16.1805 13.6436 16.202 13.6145 16.2237L11.1247 18.088C9.14357 16.7758 7.48811 15.0846 6.21436 13.0699ZM12.5174 18.9191C14.5654 20.0157 16.9117 20.7529 19.5099 21.0715C20.4402 21.1856 20.6746 21.1973 20.9153 21.1125C21.1861 21.0172 21.492 20.7464 21.6197 20.4892C21.6666 20.3946 21.705 20.2654 21.7266 20.0111C21.7494 19.7442 21.75 19.401 21.75 18.8813C21.75 18.0313 21.7384 17.8029 21.6695 17.6204C21.5799 17.3831 21.4203 17.1786 21.2117 17.0341C21.0518 16.9233 20.8251 16.8545 19.9786 16.6429L19.2703 16.4658C18.1457 16.1847 17.7174 16.084 17.3057 16.0927C16.9201 16.101 16.539 16.1778 16.1804 16.3195C15.7974 16.4709 15.4415 16.7297 14.5136 17.4244L12.5174 18.9191Z" fill="#3EC227"/>
</g>
</svg>
