<svg width="84" height="84" viewBox="0 0 84 84" fill="none" xmlns="http://www.w3.org/2000/svg">
<g clip-path="url(#clip0_3014_23932)">
<path d="M58.2742 74.5031H65.1911V69.5697C65.1911 68.7954 64.5476 68.1602 63.7634 68.1602H21.6991C20.9149 68.1602 20.2715 68.7954 20.2715 69.5697V74.5031H52.7748" stroke="#233441" stroke-width="1.5" stroke-linecap="round" stroke-linejoin="round"/>
<rect x="5.75" y="9.75" width="73.5" height="46.5" rx="3.25" stroke="#233441" stroke-width="1.5"/>
<path d="M54.1121 17.6465H30.9686C30.1802 17.6465 29.541 18.2776 29.541 19.056V47.5346C29.541 48.3131 30.1802 48.9441 30.9686 48.9441H54.1121C54.9005 48.9441 55.5397 48.3131 55.5397 47.5346V19.056C55.5397 18.2776 54.9005 17.6465 54.1121 17.6465Z" stroke="#233441" stroke-width="1.5" stroke-miterlimit="10"/>
<path d="M29.541 46.3825H14.0585C13.2743 46.3825 12.6309 45.7473 12.6309 44.973V21.6263C12.6309 20.8521 13.2743 20.2168 14.0585 20.2168H29.541" stroke="#233441" stroke-width="1.5" stroke-miterlimit="10"/>
<path d="M16.5415 40.7949H24.3431" stroke="#233441" stroke-width="1.5" stroke-linecap="round" stroke-linejoin="round"/>
<path d="M24.3332 28.1771C23.5892 27.1844 22.3928 26.5293 21.0456 26.5293C18.7936 26.5293 16.9639 28.3359 16.9639 30.5594C16.9639 32.7829 18.7936 34.5895 21.0456 34.5895C22.4029 34.5895 23.5993 33.9343 24.3432 32.9318" stroke="#3EC227" stroke-width="1.5" stroke-linecap="round" stroke-linejoin="round"/>
<path d="M15.3652 29.6758H21.1561" stroke="#3EC227" stroke-width="1.5" stroke-linecap="round" stroke-linejoin="round"/>
<path d="M15.3652 31.5625H20.1508" stroke="#3EC227" stroke-width="1.5" stroke-linecap="round" stroke-linejoin="round"/>
<path d="M55.5396 20.2168H71.0221C71.8063 20.2168 72.4497 20.8521 72.4497 21.6263V44.9631C72.4497 45.7373 71.8063 46.3726 71.0221 46.3726H55.5396" stroke="#233441" stroke-width="1.5" stroke-miterlimit="10"/>
<path d="M55.9112 68.1608L51.5781 56.6562" stroke="#233441" stroke-width="1.5" stroke-miterlimit="10"/>
<path d="M29.0884 68.1608L33.4215 56.6562" stroke="#233441" stroke-width="1.5" stroke-miterlimit="10"/>
<path d="M59.4502 40.7949H67.2518" stroke="#233441" stroke-width="1.5" stroke-linecap="round" stroke-linejoin="round"/>
<path d="M36.3872 39.7129H48.7029" stroke="#233441" stroke-width="1.5" stroke-linecap="round" stroke-linejoin="round"/>
<path d="M36.3872 43.8223H48.7029" stroke="#233441" stroke-width="1.5" stroke-linecap="round" stroke-linejoin="round"/>
<path d="M48.8139 25.5976C47.6678 24.059 45.828 23.0664 43.7469 23.0664C40.2784 23.0664 37.4634 25.8458 37.4634 29.2703C37.4634 32.6949 40.2784 35.4743 43.7469 35.4743C45.838 35.4743 47.6779 34.4717 48.824 32.9232" stroke="#3EC227" stroke-width="1.5" stroke-linecap="round" stroke-linejoin="round"/>
<path d="M35 27.9102H43.9176" stroke="#3EC227" stroke-width="1.5" stroke-linecap="round" stroke-linejoin="round"/>
<path d="M35 30.8086H42.3592" stroke="#3EC227" stroke-width="1.5" stroke-linecap="round" stroke-linejoin="round"/>
<path d="M67.2419 28.1771C66.4979 27.1844 65.3015 26.5293 63.9543 26.5293C61.7023 26.5293 59.8726 28.3359 59.8726 30.5594C59.8726 32.7829 61.7023 34.5895 63.9543 34.5895C65.3116 34.5895 66.5079 33.9343 67.2519 32.9318" stroke="#3EC227" stroke-width="1.5" stroke-linecap="round" stroke-linejoin="round"/>
<path d="M58.2842 29.6758H64.065" stroke="#3EC227" stroke-width="1.5" stroke-linecap="round" stroke-linejoin="round"/>
<path d="M58.2842 31.5625H63.0596" stroke="#3EC227" stroke-width="1.5" stroke-linecap="round" stroke-linejoin="round"/>
</g>
<defs>
<clipPath id="clip0_3014_23932">
<rect width="75" height="66" fill="white" transform="translate(5 9)"/>
</clipPath>
</defs>
</svg>
