<svg width="48" height="48" viewBox="0 0 48 48" fill="none" xmlns="http://www.w3.org/2000/svg">
<path fill-rule="evenodd" clip-rule="evenodd" d="M21.2 3H21.2413H21.2413C22.0463 2.99999 22.7106 2.99998 23.2518 3.04419C23.8139 3.09012 24.3306 3.18868 24.816 3.43598C25.5686 3.81947 26.1805 4.43139 26.564 5.18404C26.8113 5.66937 26.9099 6.18608 26.9558 6.74818C27 7.28936 27 7.95369 27 8.75863V8.75866V8.75868V8.7587V8.8V11H36.3764L36.5326 11C37.7028 10.9995 38.5118 10.9992 39.2563 11.237C39.913 11.4467 40.5192 11.7899 41.0369 12.2451C41.6239 12.7613 42.0398 13.4551 42.6415 14.4587L42.7218 14.5927L45.9454 19.9654L45.9846 20.0306C46.2867 20.5339 46.496 20.8826 46.6465 21.2613C46.7797 21.5964 46.8762 21.945 46.9344 22.3009C47.0002 22.703 47.0001 23.1096 47 23.6967L47 23.7727V34.8L47 34.8385C47 35.3657 47 35.8205 46.9694 36.195C46.9371 36.5904 46.8658 36.9836 46.673 37.362C46.3854 37.9265 45.9264 38.3854 45.362 38.673C44.9836 38.8658 44.5904 38.9371 44.195 38.9694C43.8204 39 43.3657 39 42.8385 39H42.8H40.929C40.4438 42.3923 37.5264 45 33.9999 45C30.4735 45 27.5561 42.3923 27.0709 39H20.929C20.4438 42.3923 17.5264 45 14 45C10.4735 45 7.55613 42.3923 7.07091 39H6.80018H6.75886H6.75874C5.95383 39 5.28952 39 4.74835 38.9558C4.18626 38.9099 3.66955 38.8113 3.18422 38.564C2.43157 38.1805 1.81964 37.5686 1.43615 36.816C1.18886 36.3306 1.09029 35.8139 1.04437 35.2518C1.00016 34.7106 1.00016 34.0463 1.00018 33.2413V33.2412V33.2V8.8V8.75877V8.75867C1.00016 7.95371 1.00016 7.28936 1.04437 6.74818C1.09029 6.18608 1.18886 5.66937 1.43615 5.18404C1.81964 4.43139 2.43157 3.81947 3.18422 3.43598C3.66955 3.18868 4.18626 3.09012 4.74835 3.04419C5.28955 2.99998 5.95391 2.99999 6.75888 3H6.80018H21.2ZM36.3764 13H27V16C27 16.0041 27 16.0082 26.9999 16.0123V18.8C26.9999 19.3766 27.0007 19.7488 27.0239 20.0322C27.0461 20.3038 27.0837 20.4045 27.1089 20.454C27.2048 20.6422 27.3578 20.7951 27.5459 20.891C27.5954 20.9162 27.6961 20.9539 27.9678 20.9761C28.2511 20.9992 28.6234 21 29.1999 21H44.2338C44.2327 20.9981 44.2316 20.9963 44.2305 20.9944L41.0069 15.6217C40.293 14.432 40.0395 14.0313 39.7163 13.7471C39.4056 13.474 39.0419 13.268 38.6479 13.1422C38.2378 13.0112 37.7638 13 36.3764 13ZM44.9932 23C44.9992 23.1754 45 23.412 45 23.7727V34.8C45 35.3766 44.9992 35.7488 44.9761 36.0322C44.9539 36.3038 44.9162 36.4045 44.891 36.454C44.7951 36.6422 44.6421 36.7951 44.454 36.891C44.4045 36.9162 44.3038 36.9539 44.0321 36.9761C43.7488 36.9992 43.3765 37 42.8 37H40.929C40.4438 33.6077 37.5264 31 33.9999 31C30.4735 31 27.5561 33.6077 27.0709 37H20.929C20.4438 33.6077 17.5264 31 14 31C10.4735 31 7.55613 33.6077 7.07091 37H6.80018C5.9436 37 5.36131 36.9992 4.91122 36.9624C4.4728 36.9266 4.2486 36.8617 4.0922 36.782C3.71587 36.5903 3.40991 36.2843 3.21816 35.908C3.13847 35.7516 3.07355 35.5274 3.03773 35.089C3.00095 34.6389 3.00018 34.0566 3.00018 33.2V8.8C3.00018 7.94342 3.00095 7.36113 3.03773 6.91104C3.07355 6.47262 3.13847 6.24842 3.21816 6.09202C3.40991 5.7157 3.71587 5.40974 4.0922 5.21799C4.2486 5.1383 4.4728 5.07337 4.91122 5.03755C5.36131 5.00078 5.9436 5 6.80018 5H21.2C22.0566 5 22.6389 5.00078 23.089 5.03755C23.5274 5.07337 23.7516 5.1383 23.908 5.21799C24.2843 5.40974 24.5903 5.7157 24.782 6.09202C24.8617 6.24842 24.9266 6.47262 24.9625 6.91104C24.9992 7.36113 25 7.94342 25 8.8V11.9877C25 11.9918 24.9999 11.9959 24.9999 12V18.8V18.8386C24.9999 19.3657 24.9999 19.8205 25.0305 20.195C25.0628 20.5904 25.1341 20.9836 25.3269 21.362C25.6145 21.9265 26.0735 22.3854 26.638 22.673C27.0163 22.8658 27.4096 22.9371 27.8049 22.9694C28.1795 23 28.6343 23 29.1614 23H29.1999H44.9932ZM9.00004 37.9858L9.00014 38L9.00004 38.0142C9.00769 40.7691 11.2433 43 14 43C16.7614 43 18.9999 40.7614 18.9999 38C18.9999 35.2386 16.7614 33 14 33C11.2433 33 9.00769 35.2309 9.00004 37.9858ZM29 38.0032L29 38L29 37.996C29.0022 35.2364 31.2399 33 33.9999 33C36.7613 33 38.9999 35.2386 38.9999 38C38.9999 40.7614 36.7613 43 33.9999 43C31.2396 43 29.0017 40.7632 29 38.0032Z" fill="#343A40"/>
<path d="M9 21L11.5 23.5L17 18" stroke="#343A40" stroke-width="2" stroke-linecap="round" stroke-linejoin="round"/>
</svg>
