<svg width="49" height="48" viewBox="0 0 49 48" fill="none" xmlns="http://www.w3.org/2000/svg">
<g clip-path="url(#clip0_21_6443)">
<mask id="path-1-outside-1_21_6443" maskUnits="userSpaceOnUse" x="0" y="-0.5" width="49" height="49" fill="black">
<rect fill="white" y="-0.5" width="49" height="49"/>
<path d="M8.83284 16.4657C8.83706 16.4658 8.84129 16.4658 8.84551 16.4658L15.0702 16.4673C15.5002 16.4673 15.8657 16.1887 15.9792 15.774C16.0929 15.3591 15.9204 14.9332 15.5503 14.7143L14.6036 14.1542C16.1252 12.646 16.981 10.5883 16.9674 8.43236C16.9402 4.12085 13.4113 0.562896 9.10107 0.500842C4.6347 0.436676 1 4.04952 1 8.48386C1 12.7362 4.5037 16.3736 8.83284 16.4657ZM4.34599 3.77836C5.61554 2.52698 7.29359 1.85273 9.08133 1.87761C12.6479 1.92893 15.5679 4.87322 15.5905 8.44099C15.6027 10.3659 14.7772 12.1964 13.3257 13.463C13.083 13.6747 12.9559 13.9924 12.9853 14.3129C13.0146 14.6331 13.1976 14.9221 13.4744 15.0858L13.4812 15.0898L8.8523 15.0887C5.27388 15.0201 2.37695 12.0721 2.37695 8.48386C2.37695 6.70108 3.07626 5.03001 4.34599 3.77836ZM47.3115 46.123H46.623V35.8703C46.623 33.1841 45.0358 30.7449 42.5716 29.6526L38.9432 28.0975C39.8261 27.8188 40.6237 27.322 41.2727 26.6329C42.2519 25.5933 42.8135 24.1827 42.8135 22.7627C42.8135 21.4579 42.3576 20.2263 41.495 19.2009C40.416 17.9197 39.8218 16.2914 39.8218 14.6157V11.3165C39.8218 8.42695 38.6965 5.71086 36.6532 3.66866C34.61 1.62526 31.8937 0.500016 29.0045 0.500016C23.0402 0.500016 18.188 5.35221 18.188 11.3164V14.5082C18.1884 16.2421 17.507 17.8971 16.3997 19.2312C15.0062 20.9101 14.7167 23.1802 15.6443 25.1554C16.3327 26.6215 17.5746 27.6749 19.0612 28.1208L15.4582 29.6876C12.9304 30.7513 11.2969 33.2106 11.2969 35.953V44.0577C11.2969 44.4379 11.6051 44.7462 11.9854 44.7462C12.3657 44.7462 12.6739 44.4379 12.6739 44.0577V35.953C12.6739 33.7662 13.9764 31.8049 15.9998 30.9535L20.516 28.9896V33.1338H18.4411C17.8564 33.1338 17.2967 33.3831 16.9055 33.8179C16.5145 34.2526 16.3256 34.8354 16.3873 35.4169L17.5221 46.123H1.68848C1.30816 46.123 1 46.4313 1 46.8115C1 47.1917 1.30816 47.5 1.68848 47.5H47.3115C47.6918 47.5 48 47.1917 48 46.8115C48 46.4313 47.6918 46.123 47.3115 46.123ZM40.4415 20.0874C41.0925 20.8613 41.4365 21.7863 41.4365 22.7626C41.4365 23.8354 41.0115 24.9019 40.2704 25.6888C39.4857 26.5219 38.4078 26.9807 37.2351 26.9807H36.3378L35.1593 26.4755C34.1297 26.034 33.4255 25.0874 33.2816 23.9979C35.4058 22.8541 36.8532 20.6093 36.8532 18.0323V12.8565C37.0547 12.8702 37.256 12.8776 37.4567 12.8776C37.7879 12.8776 38.1177 12.8588 38.4449 12.8217V14.6156C38.4448 16.6153 39.1541 18.5587 40.4415 20.0874ZM29.1718 30.9563C26.7088 30.9999 24.2643 30.6878 21.893 30.0301V28.3908L22.0921 28.3043L22.0968 28.3022L23.3251 27.7682C24.6923 27.1738 25.6585 25.9564 25.9514 24.5337C26.5509 24.708 27.1837 24.8033 27.8387 24.8033H30.0822C30.7397 24.8033 31.3748 24.7073 31.9764 24.5317C32.2789 25.9478 33.2488 27.1543 34.6166 27.7411L35.9275 28.3029L35.93 28.3039L36.0271 28.3455V29.8947C33.7989 30.5586 31.4954 30.9157 29.1718 30.9563ZM36.0269 31.3282V33.1339H21.893V31.4558C24.1249 32.041 26.4165 32.3372 28.7237 32.3372C28.881 32.3372 29.0384 32.3358 29.1959 32.333C31.5082 32.2927 33.8017 31.9548 36.0269 31.3282ZM38.4448 11.4334C36.5484 11.6896 34.4107 11.1816 32.938 10.0405C32.6375 9.80766 32.2051 9.86238 31.9721 10.163C31.7392 10.4636 31.7941 10.896 32.0946 11.1289C33.0575 11.8748 34.2188 12.4003 35.4762 12.6652V16.4134C35.1454 17.1674 34.7771 17.7944 33.9468 18.4794C33.5972 18.7679 33.2146 19.0074 32.8048 19.1974C32.4703 18.5444 31.7907 18.0963 31.008 18.0963H29.3946C28.2817 18.0963 27.3764 19.0017 27.3764 20.1144C27.3764 21.2272 28.2817 22.1326 29.3946 22.1326H31.008C31.9445 22.1326 32.734 21.4913 32.9606 20.6249C33.8816 20.274 35.3837 19.0216 35.3837 19.0216C34.9175 21.5246 32.7184 23.426 30.0822 23.426H27.8386C24.8644 23.426 22.4447 21.0063 22.4447 18.032V12.7102C24.783 12.3436 26.9921 11.5524 29.018 10.354C32.1028 8.52939 34.0815 6.14506 35.2756 4.2613C37.3187 6.08099 38.4809 8.68976 38.4448 11.4334ZM31.649 20.1164C31.648 20.4691 31.3609 20.7558 31.0079 20.7558H29.3945C29.0409 20.7558 28.7533 20.4681 28.7533 20.1146C28.7533 19.7611 29.041 19.4734 29.3945 19.4734H31.0079C31.3608 19.4734 31.6478 19.7599 31.649 20.1125V20.1164ZM19.565 11.3164C19.565 6.11146 23.7995 1.87697 29.0045 1.87697C30.8711 1.87697 32.6549 2.41582 34.1792 3.41897C33.0803 5.18046 31.2307 7.44564 28.317 9.16922C26.3181 10.3516 24.1256 11.1064 21.8 11.4128H21.757H21.7552H19.5649L19.565 11.3164ZM16.8905 24.5701C16.1924 23.0831 16.4103 21.3743 17.4584 20.1116C18.7736 18.5271 19.5665 16.5692 19.565 14.5082V12.7898H21.0677V18.0323C21.0677 20.6108 22.5169 22.8567 24.6431 23.9998C24.5101 25.0976 23.8079 26.0566 22.776 26.5053L21.6828 26.9807H20.6849C19.0427 26.9807 17.5888 26.057 16.8905 24.5701ZM40.8574 35.2718L39.7071 46.123H18.9068L17.7565 35.2718C17.7357 35.0751 17.797 34.8858 17.9293 34.7389C18.0615 34.5918 18.2434 34.5108 18.4411 34.5108H40.1728C40.3706 34.5108 40.5524 34.5918 40.6847 34.7389C40.817 34.8858 40.8783 35.0751 40.8574 35.2718ZM45.2461 46.123H41.0918L42.2267 35.4171C42.2884 34.8355 42.0994 34.2527 41.7084 33.818C41.3173 33.3832 40.7577 33.1339 40.1728 33.1339H37.4039V28.9357L42.0213 30.9148C43.9803 31.7832 45.2461 33.7283 45.2461 35.8703V46.123ZM29.3069 37.7007C27.8643 37.7007 26.6907 38.8743 26.6907 40.3169C26.6907 41.7595 27.8643 42.9331 29.3069 42.9331C30.7495 42.9331 31.9231 41.7595 31.9231 40.3169C31.9231 38.8743 30.7495 37.7007 29.3069 37.7007ZM29.3069 41.5562C28.6236 41.5562 28.0677 41.0002 28.0677 40.3169C28.0677 39.6336 28.6236 39.0776 29.3069 39.0776C29.9903 39.0776 30.5462 39.6336 30.5462 40.3169C30.5462 41.0002 29.9904 41.5562 29.3069 41.5562Z"/>
</mask>
<path d="M8.83284 16.4657C8.83706 16.4658 8.84129 16.4658 8.84551 16.4658L15.0702 16.4673C15.5002 16.4673 15.8657 16.1887 15.9792 15.774C16.0929 15.3591 15.9204 14.9332 15.5503 14.7143L14.6036 14.1542C16.1252 12.646 16.981 10.5883 16.9674 8.43236C16.9402 4.12085 13.4113 0.562896 9.10107 0.500842C4.6347 0.436676 1 4.04952 1 8.48386C1 12.7362 4.5037 16.3736 8.83284 16.4657ZM4.34599 3.77836C5.61554 2.52698 7.29359 1.85273 9.08133 1.87761C12.6479 1.92893 15.5679 4.87322 15.5905 8.44099C15.6027 10.3659 14.7772 12.1964 13.3257 13.463C13.083 13.6747 12.9559 13.9924 12.9853 14.3129C13.0146 14.6331 13.1976 14.9221 13.4744 15.0858L13.4812 15.0898L8.8523 15.0887C5.27388 15.0201 2.37695 12.0721 2.37695 8.48386C2.37695 6.70108 3.07626 5.03001 4.34599 3.77836ZM47.3115 46.123H46.623V35.8703C46.623 33.1841 45.0358 30.7449 42.5716 29.6526L38.9432 28.0975C39.8261 27.8188 40.6237 27.322 41.2727 26.6329C42.2519 25.5933 42.8135 24.1827 42.8135 22.7627C42.8135 21.4579 42.3576 20.2263 41.495 19.2009C40.416 17.9197 39.8218 16.2914 39.8218 14.6157V11.3165C39.8218 8.42695 38.6965 5.71086 36.6532 3.66866C34.61 1.62526 31.8937 0.500016 29.0045 0.500016C23.0402 0.500016 18.188 5.35221 18.188 11.3164V14.5082C18.1884 16.2421 17.507 17.8971 16.3997 19.2312C15.0062 20.9101 14.7167 23.1802 15.6443 25.1554C16.3327 26.6215 17.5746 27.6749 19.0612 28.1208L15.4582 29.6876C12.9304 30.7513 11.2969 33.2106 11.2969 35.953V44.0577C11.2969 44.4379 11.6051 44.7462 11.9854 44.7462C12.3657 44.7462 12.6739 44.4379 12.6739 44.0577V35.953C12.6739 33.7662 13.9764 31.8049 15.9998 30.9535L20.516 28.9896V33.1338H18.4411C17.8564 33.1338 17.2967 33.3831 16.9055 33.8179C16.5145 34.2526 16.3256 34.8354 16.3873 35.4169L17.5221 46.123H1.68848C1.30816 46.123 1 46.4313 1 46.8115C1 47.1917 1.30816 47.5 1.68848 47.5H47.3115C47.6918 47.5 48 47.1917 48 46.8115C48 46.4313 47.6918 46.123 47.3115 46.123ZM40.4415 20.0874C41.0925 20.8613 41.4365 21.7863 41.4365 22.7626C41.4365 23.8354 41.0115 24.9019 40.2704 25.6888C39.4857 26.5219 38.4078 26.9807 37.2351 26.9807H36.3378L35.1593 26.4755C34.1297 26.034 33.4255 25.0874 33.2816 23.9979C35.4058 22.8541 36.8532 20.6093 36.8532 18.0323V12.8565C37.0547 12.8702 37.256 12.8776 37.4567 12.8776C37.7879 12.8776 38.1177 12.8588 38.4449 12.8217V14.6156C38.4448 16.6153 39.1541 18.5587 40.4415 20.0874ZM29.1718 30.9563C26.7088 30.9999 24.2643 30.6878 21.893 30.0301V28.3908L22.0921 28.3043L22.0968 28.3022L23.3251 27.7682C24.6923 27.1738 25.6585 25.9564 25.9514 24.5337C26.5509 24.708 27.1837 24.8033 27.8387 24.8033H30.0822C30.7397 24.8033 31.3748 24.7073 31.9764 24.5317C32.2789 25.9478 33.2488 27.1543 34.6166 27.7411L35.9275 28.3029L35.93 28.3039L36.0271 28.3455V29.8947C33.7989 30.5586 31.4954 30.9157 29.1718 30.9563ZM36.0269 31.3282V33.1339H21.893V31.4558C24.1249 32.041 26.4165 32.3372 28.7237 32.3372C28.881 32.3372 29.0384 32.3358 29.1959 32.333C31.5082 32.2927 33.8017 31.9548 36.0269 31.3282ZM38.4448 11.4334C36.5484 11.6896 34.4107 11.1816 32.938 10.0405C32.6375 9.80766 32.2051 9.86238 31.9721 10.163C31.7392 10.4636 31.7941 10.896 32.0946 11.1289C33.0575 11.8748 34.2188 12.4003 35.4762 12.6652V16.4134C35.1454 17.1674 34.7771 17.7944 33.9468 18.4794C33.5972 18.7679 33.2146 19.0074 32.8048 19.1974C32.4703 18.5444 31.7907 18.0963 31.008 18.0963H29.3946C28.2817 18.0963 27.3764 19.0017 27.3764 20.1144C27.3764 21.2272 28.2817 22.1326 29.3946 22.1326H31.008C31.9445 22.1326 32.734 21.4913 32.9606 20.6249C33.8816 20.274 35.3837 19.0216 35.3837 19.0216C34.9175 21.5246 32.7184 23.426 30.0822 23.426H27.8386C24.8644 23.426 22.4447 21.0063 22.4447 18.032V12.7102C24.783 12.3436 26.9921 11.5524 29.018 10.354C32.1028 8.52939 34.0815 6.14506 35.2756 4.2613C37.3187 6.08099 38.4809 8.68976 38.4448 11.4334ZM31.649 20.1164C31.648 20.4691 31.3609 20.7558 31.0079 20.7558H29.3945C29.0409 20.7558 28.7533 20.4681 28.7533 20.1146C28.7533 19.7611 29.041 19.4734 29.3945 19.4734H31.0079C31.3608 19.4734 31.6478 19.7599 31.649 20.1125V20.1164ZM19.565 11.3164C19.565 6.11146 23.7995 1.87697 29.0045 1.87697C30.8711 1.87697 32.6549 2.41582 34.1792 3.41897C33.0803 5.18046 31.2307 7.44564 28.317 9.16922C26.3181 10.3516 24.1256 11.1064 21.8 11.4128H21.757H21.7552H19.5649L19.565 11.3164ZM16.8905 24.5701C16.1924 23.0831 16.4103 21.3743 17.4584 20.1116C18.7736 18.5271 19.5665 16.5692 19.565 14.5082V12.7898H21.0677V18.0323C21.0677 20.6108 22.5169 22.8567 24.6431 23.9998C24.5101 25.0976 23.8079 26.0566 22.776 26.5053L21.6828 26.9807H20.6849C19.0427 26.9807 17.5888 26.057 16.8905 24.5701ZM40.8574 35.2718L39.7071 46.123H18.9068L17.7565 35.2718C17.7357 35.0751 17.797 34.8858 17.9293 34.7389C18.0615 34.5918 18.2434 34.5108 18.4411 34.5108H40.1728C40.3706 34.5108 40.5524 34.5918 40.6847 34.7389C40.817 34.8858 40.8783 35.0751 40.8574 35.2718ZM45.2461 46.123H41.0918L42.2267 35.4171C42.2884 34.8355 42.0994 34.2527 41.7084 33.818C41.3173 33.3832 40.7577 33.1339 40.1728 33.1339H37.4039V28.9357L42.0213 30.9148C43.9803 31.7832 45.2461 33.7283 45.2461 35.8703V46.123ZM29.3069 37.7007C27.8643 37.7007 26.6907 38.8743 26.6907 40.3169C26.6907 41.7595 27.8643 42.9331 29.3069 42.9331C30.7495 42.9331 31.9231 41.7595 31.9231 40.3169C31.9231 38.8743 30.7495 37.7007 29.3069 37.7007ZM29.3069 41.5562C28.6236 41.5562 28.0677 41.0002 28.0677 40.3169C28.0677 39.6336 28.6236 39.0776 29.3069 39.0776C29.9903 39.0776 30.5462 39.6336 30.5462 40.3169C30.5462 41.0002 29.9904 41.5562 29.3069 41.5562Z" fill="#233441"/>
<path d="M8.83284 16.4657C8.83706 16.4658 8.84129 16.4658 8.84551 16.4658L15.0702 16.4673C15.5002 16.4673 15.8657 16.1887 15.9792 15.774C16.0929 15.3591 15.9204 14.9332 15.5503 14.7143L14.6036 14.1542C16.1252 12.646 16.981 10.5883 16.9674 8.43236C16.9402 4.12085 13.4113 0.562896 9.10107 0.500842C4.6347 0.436676 1 4.04952 1 8.48386C1 12.7362 4.5037 16.3736 8.83284 16.4657ZM4.34599 3.77836C5.61554 2.52698 7.29359 1.85273 9.08133 1.87761C12.6479 1.92893 15.5679 4.87322 15.5905 8.44099C15.6027 10.3659 14.7772 12.1964 13.3257 13.463C13.083 13.6747 12.9559 13.9924 12.9853 14.3129C13.0146 14.6331 13.1976 14.9221 13.4744 15.0858L13.4812 15.0898L8.8523 15.0887C5.27388 15.0201 2.37695 12.0721 2.37695 8.48386C2.37695 6.70108 3.07626 5.03001 4.34599 3.77836ZM47.3115 46.123H46.623V35.8703C46.623 33.1841 45.0358 30.7449 42.5716 29.6526L38.9432 28.0975C39.8261 27.8188 40.6237 27.322 41.2727 26.6329C42.2519 25.5933 42.8135 24.1827 42.8135 22.7627C42.8135 21.4579 42.3576 20.2263 41.495 19.2009C40.416 17.9197 39.8218 16.2914 39.8218 14.6157V11.3165C39.8218 8.42695 38.6965 5.71086 36.6532 3.66866C34.61 1.62526 31.8937 0.500016 29.0045 0.500016C23.0402 0.500016 18.188 5.35221 18.188 11.3164V14.5082C18.1884 16.2421 17.507 17.8971 16.3997 19.2312C15.0062 20.9101 14.7167 23.1802 15.6443 25.1554C16.3327 26.6215 17.5746 27.6749 19.0612 28.1208L15.4582 29.6876C12.9304 30.7513 11.2969 33.2106 11.2969 35.953V44.0577C11.2969 44.4379 11.6051 44.7462 11.9854 44.7462C12.3657 44.7462 12.6739 44.4379 12.6739 44.0577V35.953C12.6739 33.7662 13.9764 31.8049 15.9998 30.9535L20.516 28.9896V33.1338H18.4411C17.8564 33.1338 17.2967 33.3831 16.9055 33.8179C16.5145 34.2526 16.3256 34.8354 16.3873 35.4169L17.5221 46.123H1.68848C1.30816 46.123 1 46.4313 1 46.8115C1 47.1917 1.30816 47.5 1.68848 47.5H47.3115C47.6918 47.5 48 47.1917 48 46.8115C48 46.4313 47.6918 46.123 47.3115 46.123ZM40.4415 20.0874C41.0925 20.8613 41.4365 21.7863 41.4365 22.7626C41.4365 23.8354 41.0115 24.9019 40.2704 25.6888C39.4857 26.5219 38.4078 26.9807 37.2351 26.9807H36.3378L35.1593 26.4755C34.1297 26.034 33.4255 25.0874 33.2816 23.9979C35.4058 22.8541 36.8532 20.6093 36.8532 18.0323V12.8565C37.0547 12.8702 37.256 12.8776 37.4567 12.8776C37.7879 12.8776 38.1177 12.8588 38.4449 12.8217V14.6156C38.4448 16.6153 39.1541 18.5587 40.4415 20.0874ZM29.1718 30.9563C26.7088 30.9999 24.2643 30.6878 21.893 30.0301V28.3908L22.0921 28.3043L22.0968 28.3022L23.3251 27.7682C24.6923 27.1738 25.6585 25.9564 25.9514 24.5337C26.5509 24.708 27.1837 24.8033 27.8387 24.8033H30.0822C30.7397 24.8033 31.3748 24.7073 31.9764 24.5317C32.2789 25.9478 33.2488 27.1543 34.6166 27.7411L35.9275 28.3029L35.93 28.3039L36.0271 28.3455V29.8947C33.7989 30.5586 31.4954 30.9157 29.1718 30.9563ZM36.0269 31.3282V33.1339H21.893V31.4558C24.1249 32.041 26.4165 32.3372 28.7237 32.3372C28.881 32.3372 29.0384 32.3358 29.1959 32.333C31.5082 32.2927 33.8017 31.9548 36.0269 31.3282ZM38.4448 11.4334C36.5484 11.6896 34.4107 11.1816 32.938 10.0405C32.6375 9.80766 32.2051 9.86238 31.9721 10.163C31.7392 10.4636 31.7941 10.896 32.0946 11.1289C33.0575 11.8748 34.2188 12.4003 35.4762 12.6652V16.4134C35.1454 17.1674 34.7771 17.7944 33.9468 18.4794C33.5972 18.7679 33.2146 19.0074 32.8048 19.1974C32.4703 18.5444 31.7907 18.0963 31.008 18.0963H29.3946C28.2817 18.0963 27.3764 19.0017 27.3764 20.1144C27.3764 21.2272 28.2817 22.1326 29.3946 22.1326H31.008C31.9445 22.1326 32.734 21.4913 32.9606 20.6249C33.8816 20.274 35.3837 19.0216 35.3837 19.0216C34.9175 21.5246 32.7184 23.426 30.0822 23.426H27.8386C24.8644 23.426 22.4447 21.0063 22.4447 18.032V12.7102C24.783 12.3436 26.9921 11.5524 29.018 10.354C32.1028 8.52939 34.0815 6.14506 35.2756 4.2613C37.3187 6.08099 38.4809 8.68976 38.4448 11.4334ZM31.649 20.1164C31.648 20.4691 31.3609 20.7558 31.0079 20.7558H29.3945C29.0409 20.7558 28.7533 20.4681 28.7533 20.1146C28.7533 19.7611 29.041 19.4734 29.3945 19.4734H31.0079C31.3608 19.4734 31.6478 19.7599 31.649 20.1125V20.1164ZM19.565 11.3164C19.565 6.11146 23.7995 1.87697 29.0045 1.87697C30.8711 1.87697 32.6549 2.41582 34.1792 3.41897C33.0803 5.18046 31.2307 7.44564 28.317 9.16922C26.3181 10.3516 24.1256 11.1064 21.8 11.4128H21.757H21.7552H19.5649L19.565 11.3164ZM16.8905 24.5701C16.1924 23.0831 16.4103 21.3743 17.4584 20.1116C18.7736 18.5271 19.5665 16.5692 19.565 14.5082V12.7898H21.0677V18.0323C21.0677 20.6108 22.5169 22.8567 24.6431 23.9998C24.5101 25.0976 23.8079 26.0566 22.776 26.5053L21.6828 26.9807H20.6849C19.0427 26.9807 17.5888 26.057 16.8905 24.5701ZM40.8574 35.2718L39.7071 46.123H18.9068L17.7565 35.2718C17.7357 35.0751 17.797 34.8858 17.9293 34.7389C18.0615 34.5918 18.2434 34.5108 18.4411 34.5108H40.1728C40.3706 34.5108 40.5524 34.5918 40.6847 34.7389C40.817 34.8858 40.8783 35.0751 40.8574 35.2718ZM45.2461 46.123H41.0918L42.2267 35.4171C42.2884 34.8355 42.0994 34.2527 41.7084 33.818C41.3173 33.3832 40.7577 33.1339 40.1728 33.1339H37.4039V28.9357L42.0213 30.9148C43.9803 31.7832 45.2461 33.7283 45.2461 35.8703V46.123ZM29.3069 37.7007C27.8643 37.7007 26.6907 38.8743 26.6907 40.3169C26.6907 41.7595 27.8643 42.9331 29.3069 42.9331C30.7495 42.9331 31.9231 41.7595 31.9231 40.3169C31.9231 38.8743 30.7495 37.7007 29.3069 37.7007ZM29.3069 41.5562C28.6236 41.5562 28.0677 41.0002 28.0677 40.3169C28.0677 39.6336 28.6236 39.0776 29.3069 39.0776C29.9903 39.0776 30.5462 39.6336 30.5462 40.3169C30.5462 41.0002 29.9904 41.5562 29.3069 41.5562Z" stroke="#233441" stroke-width="0.6" mask="url(#path-1-outside-1_21_6443)"/>
<path fill-rule="evenodd" clip-rule="evenodd" d="M11.1693 4.5419C11.5035 4.7647 11.5938 5.21624 11.371 5.55045L6.83952 12.3476C6.61672 12.6819 6.16518 12.7722 5.83097 12.5494C5.49677 12.3266 5.40646 11.875 5.62927 11.5408L10.1607 4.74361C10.3835 4.40941 10.8351 4.3191 11.1693 4.5419ZM6.23427 5.8743C6.01027 5.8743 5.82868 6.05589 5.82868 6.27989C5.82868 6.5039 6.01027 6.68549 6.23427 6.68549C6.45827 6.68549 6.63986 6.5039 6.63986 6.27989C6.63986 6.05589 6.45827 5.8743 6.23427 5.8743ZM4.37413 6.27989C4.37413 5.25257 5.20694 4.41976 6.23427 4.41976C7.2616 4.41976 8.09441 5.25257 8.09441 6.27989C8.09441 7.30722 7.2616 8.14003 6.23427 8.14003C5.20694 8.14003 4.37413 7.30722 4.37413 6.27989ZM10.3601 10.8113C10.3601 10.5873 10.5417 10.4057 10.7657 10.4057C10.9897 10.4057 11.1713 10.5873 11.1713 10.8113C11.1713 11.0353 10.9897 11.2169 10.7657 11.2169C10.5417 11.2169 10.3601 11.0353 10.3601 10.8113ZM10.7657 8.95118C9.73837 8.95118 8.90556 9.784 8.90556 10.8113C8.90556 11.8386 9.73837 12.6715 10.7657 12.6715C11.793 12.6715 12.6258 11.8386 12.6258 10.8113C12.6258 9.784 11.793 8.95118 10.7657 8.95118Z" fill="#233441"/>
</g>
<defs>
<clipPath id="clip0_21_6443">
<rect width="48" height="48" fill="white" transform="translate(0.5)"/>
</clipPath>
</defs>
</svg>
