<svg width="24" height="184" viewBox="0 0 24 184" fill="none" xmlns="http://www.w3.org/2000/svg">
<line x1="11" y1="50" x2="11" stroke="#233441" stroke-width="2" stroke-dasharray="4 4"/>
<line x1="10.9995" y1="136" x2="10.9995" y2="50" stroke="#233441" stroke-width="2" stroke-dasharray="4 4"/>
<rect x="1" y="63" width="21.9988" height="21.9988" rx="10.9994" fill="white"/>
<path d="M11.6753 78.12C11.0833 78.12 10.5033 78.036 9.93532 77.868C9.37532 77.692 8.90332 77.452 8.51932 77.148L9.19132 75.936C9.49532 76.184 9.86332 76.384 10.2953 76.536C10.7273 76.688 11.1793 76.764 11.6513 76.764C12.2113 76.764 12.6473 76.652 12.9593 76.428C13.2713 76.196 13.4273 75.884 13.4273 75.492C13.4273 75.108 13.2833 74.804 12.9953 74.58C12.7073 74.356 12.2433 74.244 11.6033 74.244H10.8353V73.176L13.2353 70.32L13.4393 70.908H8.92732V69.6H14.6513V70.644L12.2513 73.5L11.4353 73.02H11.9033C12.9353 73.02 13.7073 73.252 14.2193 73.716C14.7393 74.172 14.9993 74.76 14.9993 75.48C14.9993 75.952 14.8793 76.388 14.6393 76.788C14.3993 77.188 14.0313 77.512 13.5353 77.76C13.0473 78 12.4273 78.12 11.6753 78.12Z" fill="#233441"/>
<rect x="1" y="63" width="21.9988" height="21.9988" rx="10.9994" stroke="#233441" stroke-width="2"/>
<line x1="10.9995" y1="170.12" x2="10.9995" y2="136" stroke="#233441" stroke-width="2" stroke-dasharray="4 4"/>
<rect x="1" y="149" width="21.9988" height="21.9988" rx="10.9994" fill="white"/>
<path d="M8.33525 162.092V161.012L12.4752 155.6H14.1432L10.0632 161.012L9.28325 160.772H15.9432V162.092H8.33525ZM12.9432 164V162.092L12.9912 160.772V159.08H14.4552V164H12.9432Z" fill="#233441"/>
<rect x="1" y="149" width="21.9988" height="21.9988" rx="10.9994" stroke="#233441" stroke-width="2"/>
</svg>
