<svg width="24" height="200" viewBox="0 0 24 200" fill="none" xmlns="http://www.w3.org/2000/svg">
<rect x="1" y="13" width="22" height="22" rx="11" fill="#67BF44"/>
<path d="M11.5868 28V20.2L12.2708 20.908H9.81084V19.6H13.1468V28H11.5868Z" fill="white"/>
<rect x="1" y="13" width="22" height="22" rx="11" stroke="#67BF44" stroke-width="2"/>
<line x1="11" y1="118" x2="11" y2="32" stroke="#67BF44" stroke-width="2"/>
<line x1="10.9995" y1="118" x2="10.9995" y2="86" stroke="#67BF44" stroke-width="2"/>
<line x1="10.9995" y1="150" x2="10.9995" y2="118" stroke="#233441" stroke-width="2" stroke-dasharray="4 4"/>
<rect x="1" y="99" width="21.9988" height="21.9988" rx="10.9994" fill="white"/>
<path d="M8.92732 114V112.956L12.2633 109.788C12.5433 109.524 12.7513 109.292 12.8873 109.092C13.0233 108.892 13.1113 108.708 13.1513 108.54C13.1993 108.364 13.2233 108.2 13.2233 108.048C13.2233 107.664 13.0913 107.368 12.8273 107.16C12.5633 106.944 12.1753 106.836 11.6633 106.836C11.2553 106.836 10.8833 106.908 10.5473 107.052C10.2193 107.196 9.93532 107.416 9.69532 107.712L8.60332 106.872C8.93132 106.432 9.37132 106.092 9.92332 105.852C10.4833 105.604 11.1073 105.48 11.7953 105.48C12.4033 105.48 12.9313 105.58 13.3793 105.78C13.8353 105.972 14.1833 106.248 14.4233 106.608C14.6713 106.968 14.7953 107.396 14.7953 107.892C14.7953 108.164 14.7593 108.436 14.6873 108.708C14.6153 108.972 14.4793 109.252 14.2793 109.548C14.0793 109.844 13.7873 110.176 13.4033 110.544L10.5353 113.268L10.2113 112.68H15.1193V114H8.92732Z" fill="#67BF44"/>
<rect x="1" y="99" width="21.9988" height="21.9988" rx="10.9994" stroke="#67BF44" stroke-width="2"/>
<line x1="11" y1="200" x2="11" y2="150" stroke="#233441" stroke-width="2" stroke-dasharray="4 4"/>
</svg>
