<svg width="426" height="24" viewBox="0 0 426 24" fill="none" xmlns="http://www.w3.org/2000/svg">
    <line x1="0.5" y1="11" x2="88.5006" y2="11" stroke="#233441" stroke-width="2" stroke-dasharray="4 4"/>
    <rect x="89.5" y="1.00061" width="21.9988" height="21.9988" rx="10.9994" stroke="#233441" stroke-width="2"/>
    <path d="M100.176 16.1206C99.5838 16.1206 99.0038 16.0366 98.4358 15.8686C97.8758 15.6926 97.4038 15.4526 97.0198 15.1486L97.6918 13.9366C97.9958 14.1846 98.3638 14.3846 98.7958 14.5366C99.2278 14.6886 99.6798 14.7646 100.152 14.7646C100.712 14.7646 101.148 14.6526 101.46 14.4286C101.772 14.1966 101.928 13.8846 101.928 13.4926C101.928 13.1086 101.784 12.8046 101.496 12.5806C101.208 12.3566 100.744 12.2446 100.104 12.2446H99.3358V11.1766L101.736 8.32061L101.94 8.90861H97.4278V7.60061H103.152V8.64461L100.752 11.5006L99.9358 11.0206H100.404C101.436 11.0206 102.208 11.2526 102.72 11.7166C103.24 12.1726 103.5 12.7606 103.5 13.4806C103.5 13.9526 103.38 14.3886 103.14 14.7886C102.9 15.1886 102.532 15.5126 102.036 15.7606C101.548 16.0006 100.928 16.1206 100.176 16.1206Z" fill="#233441"/>
    <line x1="112.5" y1="11" x2="200.501" y2="11" stroke="#233441" stroke-width="2" stroke-dasharray="4 4"/>
    <line x1="200.5" y1="11" x2="226" y2="11" stroke="#233441" stroke-width="2" stroke-dasharray="4 4"/>
    <line x1="226" y1="11" x2="314.001" y2="11" stroke="#233441" stroke-width="2" stroke-dasharray="4 4"/>
    <rect x="315" y="1.00061" width="21.9988" height="21.9988" rx="10.9994" stroke="#233441" stroke-width="2"/>
    <path d="M322.336 14.0926V13.0126L326.476 7.60061H328.144L324.064 13.0126L323.284 12.7726H329.944V14.0926H322.336ZM326.944 16.0006V14.0926L326.992 12.7726V11.0806H328.456V16.0006H326.944Z" fill="#233441"/>
</svg>
