<svg width="49" height="48" viewBox="0 0 49 48" fill="none" xmlns="http://www.w3.org/2000/svg">
<path fill-rule="evenodd" clip-rule="evenodd" d="M16.0491 1.75005L16.1836 1.75009H24.1391L24.2737 1.75005C25.0513 1.74963 25.6288 1.74933 26.1297 1.88043C27.5283 2.24648 28.6205 3.33872 28.9866 4.73731C29.0639 5.03286 29.0955 5.35505 29.1084 5.72928C30.0112 5.73309 30.7722 5.74717 31.4184 5.79922C32.324 5.87216 33.0952 6.02466 33.7962 6.38183C34.9251 6.95707 35.843 7.87495 36.4183 9.00393C36.7745 9.70317 36.9276 10.4668 37.0008 11.3624C37.0722 12.237 37.0722 13.321 37.0722 14.6839V14.684V14.6841V14.7279V24.4994C37.0722 25.0516 36.6245 25.4994 36.0722 25.4994C35.5199 25.4994 35.0722 25.0516 35.0722 24.4994V14.7279C35.0722 13.3112 35.0714 12.3089 35.0074 11.5253C34.9444 10.7534 34.8249 10.2822 34.6362 9.91191C34.2528 9.15926 33.6408 8.54734 32.8882 8.16384C32.5196 7.97604 32.0439 7.85607 31.2579 7.79276C30.6829 7.74646 29.9908 7.73319 29.1083 7.72939C29.0954 8.10238 29.0637 8.42365 28.9866 8.71843C28.6205 10.117 27.5283 11.2093 26.1297 11.5753C25.6288 11.7064 25.0513 11.7061 24.2737 11.7057H24.2737L24.1391 11.7056H16.1836L16.0491 11.7057H16.049C15.2714 11.7061 14.6939 11.7064 14.193 11.5753C12.7944 11.2093 11.7022 10.117 11.3361 8.71843C11.2589 8.42341 11.2273 8.10185 11.2144 7.72848C10.3172 7.73061 9.62997 7.74012 9.06496 7.78248C8.35558 7.83567 7.91981 7.93651 7.57536 8.0953C6.71043 8.49403 6.01616 9.1883 5.61743 10.0532C5.45864 10.3977 5.3578 10.8335 5.30461 11.5428C5.25065 12.2625 5.25 13.1804 5.25 14.4779V36.5168C5.25 37.9334 5.25078 38.9357 5.3148 39.7193C5.37787 40.4912 5.49729 40.9624 5.68597 41.3327C6.06947 42.0854 6.68139 42.6973 7.43404 43.0808C7.80435 43.2695 8.27552 43.3889 9.04744 43.452C9.83104 43.516 10.8334 43.5168 12.25 43.5168H20.1611H24.1389H26C26.5523 43.5168 27 43.9645 27 44.5168C27 45.069 26.5523 45.5168 26 45.5168H24.1389H20.1611H12.25H12.2062H12.2061H12.206C10.8431 45.5168 9.75913 45.5168 8.88458 45.4453C7.98898 45.3721 7.2253 45.2191 6.52606 44.8628C5.39708 44.2876 4.4792 43.3697 3.90396 42.2407C3.54768 41.5415 3.39462 40.7778 3.32144 39.8822C3.24999 39.0076 3.24999 37.9236 3.25 36.5605V36.5168V14.4779V14.4378V14.4378C3.24999 13.1894 3.24999 12.1965 3.31021 11.3933C3.37184 10.5713 3.50065 9.86773 3.80114 9.21591C4.39925 7.91852 5.44065 6.87712 6.73804 6.27901C7.38986 5.97852 8.09339 5.84971 8.91542 5.78808C9.55176 5.74037 10.3072 5.73046 11.2144 5.72841C11.2272 5.35455 11.2588 5.03263 11.3361 4.73731C11.7022 3.33872 12.7944 2.24648 14.193 1.88043C14.6939 1.74933 15.2714 1.74963 16.0491 1.75005ZM16.1836 3.75009C15.2114 3.75009 14.917 3.75831 14.6994 3.81526C14.0001 3.99828 13.454 4.5444 13.271 5.2437C13.214 5.46132 13.2058 5.75573 13.2058 6.72787C13.2058 7.70001 13.214 7.99442 13.271 8.21204C13.454 8.91134 14.0001 9.45746 14.6994 9.64048C14.917 9.69743 15.2114 9.70565 16.1836 9.70565H24.1391C25.1113 9.70565 25.4057 9.69743 25.6233 9.64048C26.3226 9.45746 26.8687 8.91134 27.0517 8.21204C27.1087 7.99442 27.1169 7.70001 27.1169 6.72787C27.1169 5.75573 27.1087 5.46132 27.0517 5.2437C26.8687 4.5444 26.3226 3.99828 25.6233 3.81526C25.4057 3.75831 25.1113 3.75009 24.1391 3.75009H16.1836ZM26.8349 23.3461C27.2254 22.9556 27.2254 22.3224 26.8349 21.9319C26.4444 21.5414 25.8112 21.5414 25.4207 21.9319L18.1722 29.1803L15.896 26.9041C15.5055 26.5136 14.8723 26.5136 14.4818 26.9041C14.0913 27.2946 14.0913 27.9278 14.4818 28.3183L17.4651 31.3016C17.6527 31.4892 17.907 31.5945 18.1722 31.5945C18.4374 31.5945 18.6918 31.4892 18.8793 31.3016L26.8349 23.3461Z" fill="#67BF44"/>
<path d="M29.8661 44.9328L30.6064 44.2607H30.6064L29.8661 44.9328ZM31 45.6976L30.5 46.5637L31 45.6976ZM29.3529 43.4326L30.3499 43.5105L29.3529 43.4326ZM29.7809 42.1335L28.8553 41.7551V41.7551L29.7809 42.1335ZM29.5782 40.1852L28.7126 40.6858L28.7136 40.6876L29.5782 40.1852ZM29.5615 40.1562L28.6948 40.6551L28.6958 40.6569L29.5615 40.1562ZM27.9771 39.0092L28.1122 38.0184H28.1122L27.9771 39.0092ZM26.6381 38.7304L26.2071 39.6328L26.2071 39.6328L26.6381 38.7304ZM25.5954 37.5358L26.5477 37.2307L26.5477 37.2307L25.5954 37.5358ZM25.5954 34.807L26.5477 35.1121L26.5477 35.1121L25.5954 34.807ZM26.6381 33.6125L26.2071 32.7101H26.2071L26.6381 33.6125ZM27.9771 33.3336L28.1122 34.3245H28.1122L27.9771 33.3336ZM29.5615 32.1866L28.6958 31.686L28.6948 31.6878L29.5615 32.1866ZM29.5782 32.1577L28.7136 31.6552L28.7126 31.657L29.5782 32.1577ZM29.7809 30.2093L30.7066 29.8309C30.7045 29.8257 30.7023 29.8206 30.7001 29.8154L29.7809 30.2093ZM29.7809 30.2093L28.8411 30.551C28.8475 30.5686 28.8544 30.586 28.8618 30.6032L29.7809 30.2093ZM29.7809 30.2093L30.7207 29.8675C30.7162 29.8552 30.7115 29.843 30.7066 29.8309L29.7809 30.2093ZM29.3529 28.9103L30.3499 28.8323V28.8323L29.3529 28.9103ZM29.8661 27.41L29.1257 26.7378L29.8661 27.41ZM31 26.6452L31.5 27.5112C31.5186 27.5005 31.5368 27.4892 31.5547 27.4773L31 26.6452ZM31 26.6452L30.5167 25.7698C30.4923 25.7832 30.4685 25.7977 30.4453 25.8132L31 26.6452ZM31 26.6452L31.4833 27.5207C31.4889 27.5176 31.4945 27.5144 31.5 27.5112L31 26.6452ZM32.2293 26.0456L32.4412 27.0229L32.2293 26.0456ZM33.7852 26.3513L34.3511 25.5269V25.5269L33.7852 26.3513ZM34.6961 27.3715L35.4867 26.7591L35.4867 26.7591L34.6961 27.3715ZM36.4837 28.1714L36.4827 27.1714L36.4817 27.1714L36.4837 28.1714ZM36.5 28.1714L36.501 27.1714L36.499 27.1714L36.5 28.1714ZM36.5161 28.1714L36.518 27.1714L36.517 27.1714L36.5161 28.1714ZM38.3039 27.3714L39.0944 27.9838L39.0944 27.9838L38.3039 27.3714ZM39.2148 26.3512L38.6488 25.5268L38.6488 25.5268L39.2148 26.3512ZM40.7707 26.0454L40.5588 27.0227L40.7707 26.0454ZM42 26.6451L41.5 27.5111L41.5 27.5111L42 26.6451ZM43.1339 27.4098L43.8743 26.7377L43.8743 26.7377L43.1339 27.4098ZM43.6471 28.9101L42.6501 28.8322V28.8322L43.6471 28.9101ZM43.2191 30.2092L42.2934 29.8307C42.2821 29.8584 42.2721 29.8865 42.2633 29.9151L43.2191 30.2092ZM43.219 30.2092L44.1447 30.5876C44.156 30.5599 44.166 30.5318 44.1748 30.5033L43.219 30.2092ZM43.4218 32.1577L44.2874 31.6571L44.2864 31.6552L43.4218 32.1577ZM43.4385 32.1866L44.3052 31.6878L44.3042 31.686L43.4385 32.1866ZM45.0229 33.3336L44.8878 34.3245L45.0229 33.3336ZM46.3619 33.6125L45.931 34.5148H45.931L46.3619 33.6125ZM47.4046 34.807L46.4523 35.1121L46.4523 35.1121L47.4046 34.807ZM47.4046 37.5358L46.4523 37.2307L46.4523 37.2307L47.4046 37.5358ZM46.3619 38.7304L46.7929 39.6328L46.7929 39.6328L46.3619 38.7304ZM45.0229 39.0092L44.8878 38.0184L45.0229 39.0092ZM43.4385 40.1562L44.3042 40.6568L44.3052 40.6551L43.4385 40.1562ZM43.4218 40.1852L44.2864 40.6876L44.2875 40.6858L43.4218 40.1852ZM43.2191 42.1337L44.1447 41.7553L44.1447 41.7553L43.2191 42.1337ZM43.6471 43.4327L44.644 43.3547V43.3547L43.6471 43.4327ZM43.1339 44.933L43.8743 45.6052L43.1339 44.933ZM42 45.6978L42.5 46.5638L42 45.6978ZM40.7707 46.2974L40.5588 45.3201L40.5588 45.3201L40.7707 46.2974ZM39.2148 45.9917L39.7808 45.1672H39.7808L39.2148 45.9917ZM38.3039 44.9715L39.0944 44.359L38.3039 44.9715ZM36.5161 44.1714L36.517 45.1714L36.518 45.1714L36.5161 44.1714ZM36.5 44.1714L36.4991 45.1714L36.5009 45.1714L36.5 44.1714ZM36.4837 44.1714L36.4817 45.1714L36.4827 45.1714L36.4837 44.1714ZM34.6961 44.9713L33.9056 44.3589L33.9056 44.3589L34.6961 44.9713ZM33.7852 45.9915L34.3511 46.8159L34.3511 46.8159L33.7852 45.9915ZM32.2293 46.2972L32.4412 45.32H32.4412L32.2293 46.2972ZM29.1257 45.605C29.4668 45.9808 29.9478 46.2448 30.5 46.5637L31.5 44.8316C30.8204 44.4393 30.6855 44.3477 30.6064 44.2607L29.1257 45.605ZM28.356 43.3546C28.2915 44.1788 28.57 44.993 29.1257 45.605L30.6064 44.2607C30.4212 44.0566 30.3284 43.7852 30.3499 43.5105L28.356 43.3546ZM28.8553 41.7551C28.614 42.3454 28.3955 42.8486 28.356 43.3546L30.3499 43.5105C30.359 43.3933 30.4097 43.2383 30.7066 42.5119L28.8553 41.7551ZM28.7136 40.6876C28.9425 41.0815 28.9711 41.4718 28.8553 41.7551L30.7066 42.5119C31.1109 41.5229 30.9046 40.4773 30.4428 39.6827L28.7136 40.6876ZM28.6958 40.6569L28.7126 40.6858L30.4439 39.6845L30.4271 39.6556L28.6958 40.6569ZM27.842 40C28.1445 40.0413 28.4678 40.2606 28.6948 40.6551L30.4282 39.6574C29.9707 38.8626 29.1693 38.1625 28.1122 38.0184L27.842 40ZM26.2071 39.6328C26.6651 39.8515 27.2101 39.9139 27.842 40L28.1122 38.0184C27.3347 37.9124 27.1751 37.8787 27.069 37.828L26.2071 39.6328ZM24.643 37.8409C24.8952 38.6282 25.4611 39.2765 26.2071 39.6328L27.069 37.828C26.8204 37.7093 26.6317 37.4932 26.5477 37.2307L24.643 37.8409ZM24.5 36.1714C24.5 36.8091 24.4882 37.3576 24.643 37.8409L26.5477 37.2307C26.5118 37.1188 26.5 36.9561 26.5 36.1714H24.5ZM24.643 34.5019C24.4882 34.9852 24.5 35.5338 24.5 36.1714H26.5C26.5 35.3867 26.5118 35.2241 26.5477 35.1121L24.643 34.5019ZM26.2071 32.7101C25.4611 33.0664 24.8952 33.7147 24.643 34.5019L26.5477 35.1121C26.6317 34.8497 26.8204 34.6336 27.069 34.5148L26.2071 32.7101ZM27.842 32.3428C27.2101 32.429 26.6651 32.4914 26.2071 32.7101L27.069 34.5148C27.1751 34.4642 27.3347 34.4305 28.1122 34.3245L27.842 32.3428ZM28.6948 31.6878C28.4678 32.0823 28.1445 32.3016 27.842 32.3428L28.1122 34.3245C29.1693 34.1803 29.9707 33.4803 30.4282 32.6854L28.6948 31.6878ZM28.7126 31.657L28.6958 31.686L30.4271 32.6873L30.4439 32.6583L28.7126 31.657ZM28.8553 30.5877C28.9711 30.871 28.9425 31.2613 28.7136 31.6552L30.4428 32.6601C30.9046 31.8656 31.1109 30.8199 30.7066 29.8309L28.8553 30.5877ZM28.8618 30.6032L28.8618 30.6032L30.7001 29.8154L30.7001 29.8154L28.8618 30.6032ZM28.8411 30.551L28.8411 30.551L30.7207 29.8676L30.7207 29.8675L28.8411 30.551ZM28.356 28.9882C28.3955 29.4942 28.614 29.9975 28.8553 30.5877L30.7066 29.8309C30.4097 29.1046 30.359 28.9496 30.3499 28.8323L28.356 28.9882ZM29.1257 26.7378C28.57 27.3499 28.2915 28.1641 28.356 28.9882L30.3499 28.8323C30.3284 28.5576 30.4212 28.2862 30.6064 28.0822L29.1257 26.7378ZM30.5 25.7792C29.9478 26.098 29.4668 26.3621 29.1257 26.7378L30.6064 28.0822C30.6855 27.9951 30.8204 27.9036 31.5 27.5112L30.5 25.7792ZM30.4453 25.8132L30.4453 25.8132L31.5547 27.4773L31.5547 27.4773L30.4453 25.8132ZM30.5167 25.7698L30.5167 25.7698L31.4833 27.5207L31.4833 27.5207L30.5167 25.7698ZM32.0173 25.0683C31.5214 25.1759 31.0522 25.4604 30.5 25.7792L31.5 27.5112C32.1796 27.1189 32.3263 27.0478 32.4412 27.0229L32.0173 25.0683ZM34.3511 25.5269C33.6696 25.059 32.8252 24.8931 32.0173 25.0683L32.4412 27.0229C32.7105 26.9645 32.992 27.0198 33.2192 27.1757L34.3511 25.5269ZM35.4867 26.7591C35.0961 26.255 34.7695 25.8142 34.3511 25.5269L33.2192 27.1757C33.3161 27.2423 33.425 27.3636 33.9056 27.984L35.4867 26.7591ZM36.4817 27.1714C36.0271 27.1723 35.6746 27.0017 35.4867 26.7591L33.9056 27.984C34.5591 28.8275 35.5663 29.1733 36.4857 29.1714L36.4817 27.1714ZM36.499 27.1714L36.4827 27.1714L36.4847 29.1714L36.501 29.1714L36.499 27.1714ZM36.517 27.1714L36.501 27.1714L36.499 29.1714L36.5151 29.1714L36.517 27.1714ZM37.5133 26.759C37.3253 27.0017 36.9727 27.1723 36.518 27.1714L36.5141 29.1714C37.4335 29.1732 38.4409 28.8274 39.0944 27.9838L37.5133 26.759ZM38.6488 25.5268C38.2305 25.814 37.9039 26.2549 37.5133 26.759L39.0944 27.9838C39.575 27.3635 39.6839 27.2421 39.7808 27.1756L38.6488 25.5268ZM40.9827 25.0682C40.1748 24.893 39.3304 25.0589 38.6488 25.5268L39.7808 27.1756C40.008 27.0196 40.2895 26.9643 40.5588 27.0227L40.9827 25.0682ZM42.5 25.779C41.9478 25.4602 41.4786 25.1757 40.9827 25.0682L40.5588 27.0227C40.6737 27.0476 40.8204 27.1187 41.5 27.5111L42.5 25.779ZM43.8743 26.7377C43.5332 26.3619 43.0522 26.0979 42.5 25.779L41.5 27.5111C42.1796 27.9034 42.3145 27.995 42.3935 28.082L43.8743 26.7377ZM44.644 28.9881C44.7085 28.1639 44.43 27.3497 43.8743 26.7377L42.3935 28.082C42.5788 28.2861 42.6716 28.5575 42.6501 28.8322L44.644 28.9881ZM44.1447 30.5876C44.386 29.9973 44.6045 29.4941 44.644 28.9881L42.6501 28.8322C42.641 28.9494 42.5903 29.1044 42.2934 29.8307L44.1447 30.5876ZM44.1748 30.5033L44.1748 30.5032L42.2633 29.9151L42.2633 29.9151L44.1748 30.5033ZM44.2864 31.6552C44.0575 31.2613 44.0289 30.8709 44.1447 30.5876L42.2934 29.8308C41.8891 30.8198 42.0954 31.8656 42.5572 32.6601L44.2864 31.6552ZM44.3042 31.686L44.2874 31.6571L42.5561 32.6583L42.5728 32.6872L44.3042 31.686ZM45.158 32.3428C44.8555 32.3016 44.5322 32.0823 44.3052 31.6878L42.5718 32.6854C43.0293 33.4803 43.8307 34.1803 44.8878 34.3245L45.158 32.3428ZM46.7929 32.7101C46.3349 32.4914 45.7899 32.429 45.158 32.3428L44.8878 34.3245C45.6653 34.4305 45.8249 34.4642 45.931 34.5148L46.7929 32.7101ZM48.357 34.5019C48.1048 33.7147 47.5389 33.0664 46.7929 32.7101L45.931 34.5148C46.1796 34.6336 46.3683 34.8497 46.4523 35.1121L48.357 34.5019ZM48.5 36.1714C48.5 35.5338 48.5118 34.9852 48.357 34.5019L46.4523 35.1121C46.4882 35.2241 46.5 35.3867 46.5 36.1714H48.5ZM48.357 37.8409C48.5118 37.3576 48.5 36.8091 48.5 36.1714H46.5C46.5 36.9561 46.4882 37.1188 46.4523 37.2307L48.357 37.8409ZM46.7929 39.6328C47.5389 39.2765 48.1048 38.6282 48.357 37.8409L46.4523 37.2307C46.3683 37.4932 46.1796 37.7093 45.931 37.828L46.7929 39.6328ZM45.158 40C45.7899 39.9139 46.3349 39.8515 46.7929 39.6328L45.931 37.828C45.8249 37.8787 45.6653 37.9124 44.8878 38.0184L45.158 40ZM44.3052 40.6551C44.5322 40.2606 44.8555 40.0413 45.158 40L44.8878 38.0184C43.8307 38.1625 43.0293 38.8626 42.5718 39.6574L44.3052 40.6551ZM44.2875 40.6858L44.3042 40.6568L42.5728 39.6556L42.5561 39.6846L44.2875 40.6858ZM44.1447 41.7553C44.0289 41.4719 44.0575 41.0816 44.2864 40.6876L42.5572 39.6827C42.0954 40.4773 41.8891 41.523 42.2934 42.5121L44.1447 41.7553ZM44.644 43.3547C44.6045 42.8488 44.386 42.3455 44.1447 41.7553L42.2934 42.5121C42.5903 43.2384 42.641 43.3934 42.6501 43.5107L44.644 43.3547ZM43.8743 45.6052C44.43 44.9931 44.7085 44.1789 44.644 43.3547L42.6501 43.5107C42.6716 43.7854 42.5788 44.0568 42.3935 44.2608L43.8743 45.6052ZM42.5 46.5638C43.0522 46.245 43.5332 45.9809 43.8743 45.6052L42.3935 44.2608C42.3145 44.3479 42.1796 44.4394 41.5 44.8317L42.5 46.5638ZM40.9827 47.2747C41.4786 47.1671 41.9478 46.8826 42.5 46.5638L41.5 44.8317C40.8204 45.2241 40.6737 45.2952 40.5588 45.3201L40.9827 47.2747ZM38.6488 46.8161C39.3304 47.284 40.1748 47.4499 40.9827 47.2747L40.5588 45.3201C40.2895 45.3785 40.008 45.3232 39.7808 45.1672L38.6488 46.8161ZM37.5133 45.5839C37.9039 46.088 38.2305 46.5288 38.6489 46.8161L39.7808 45.1672C39.6839 45.1007 39.575 44.9793 39.0944 44.359L37.5133 45.5839ZM36.518 45.1714C36.9727 45.1705 37.3253 45.3412 37.5133 45.5839L39.0944 44.359C38.4409 43.5154 37.4335 43.1696 36.5141 43.1714L36.518 45.1714ZM36.5009 45.1714L36.517 45.1714L36.5151 43.1714L36.499 43.1714L36.5009 45.1714ZM36.4827 45.1714L36.4991 45.1714L36.5009 43.1714L36.4846 43.1714L36.4827 45.1714ZM35.4867 45.5837C35.6746 45.3411 36.0271 45.1705 36.4817 45.1714L36.4857 43.1714C35.5663 43.1696 34.5591 43.5154 33.9056 44.3589L35.4867 45.5837ZM34.3511 46.8159C34.7695 46.5287 35.0961 46.0878 35.4867 45.5837L33.9056 44.3589C33.425 44.9792 33.3161 45.1005 33.2192 45.1671L34.3511 46.8159ZM32.0173 47.2745C32.8252 47.4497 33.6696 47.2838 34.3511 46.8159L33.2192 45.1671C32.992 45.3231 32.7105 45.3784 32.4412 45.32L32.0173 47.2745ZM30.5 46.5637C31.0522 46.8825 31.5214 47.167 32.0173 47.2745L32.4412 45.32C32.3263 45.295 32.1796 45.2239 31.5 44.8316L30.5 46.5637ZM38.5 36.1714C38.5 37.276 37.6046 38.1714 36.5 38.1714V40.1714C38.7091 40.1714 40.5 38.3805 40.5 36.1714H38.5ZM36.5 34.1714C37.6046 34.1714 38.5 35.0668 38.5 36.1714H40.5C40.5 33.9622 38.7091 32.1714 36.5 32.1714V34.1714ZM34.5 36.1714C34.5 35.0668 35.3954 34.1714 36.5 34.1714V32.1714C34.2909 32.1714 32.5 33.9622 32.5 36.1714H34.5ZM36.5 38.1714C35.3954 38.1714 34.5 37.276 34.5 36.1714H32.5C32.5 38.3805 34.2909 40.1714 36.5 40.1714V38.1714Z" fill="#67BF44"/>
</svg>
