<svg width="48" height="48" viewBox="0 0 48 48" fill="none" xmlns="http://www.w3.org/2000/svg">
<path fill-rule="evenodd" clip-rule="evenodd" d="M22.965 4.00012C22.8949 4.00005 22.8221 4.00003 22.7465 4.00003H11C9.58337 4.00003 8.58104 4.00081 7.79744 4.06483C7.02552 4.1279 6.55435 4.24732 6.18404 4.43601C5.43139 4.8195 4.81947 5.43142 4.43597 6.18407C4.24729 6.55438 4.12787 7.02555 4.0648 7.79747C4.00078 8.58106 4 9.58339 4 11V36.9277C4 38.3444 4.00078 39.3467 4.0648 40.1303C4.12787 40.9022 4.24729 41.3734 4.43597 41.7437C4.81947 42.4963 5.43139 43.1083 6.18404 43.4918C6.55435 43.6804 7.02552 43.7999 7.79744 43.8629C8.58103 43.9269 9.58337 43.9277 11 43.9277H19.7711H23.9638H26.5C27.0523 43.9277 27.5 44.3754 27.5 44.9277C27.5 45.48 27.0523 45.9277 26.5 45.9277H23.9638H19.7711H11H10.9562H10.9561C9.59313 45.9277 8.50914 45.9277 7.63458 45.8563C6.73898 45.7831 5.9753 45.6301 5.27606 45.2738C4.14708 44.6985 3.2292 43.7806 2.65396 42.6517C2.29768 41.9524 2.14462 41.1888 2.07144 40.2931C1.99999 39.4186 1.99999 38.3345 2 36.9715V36.9277V11V10.9563C1.99999 9.59322 1.99999 8.50919 2.07144 7.63461C2.14462 6.73901 2.29768 5.97534 2.65396 5.27609C3.2292 4.14712 4.14708 3.22923 5.27606 2.65399C5.9753 2.29771 6.73898 2.14465 7.63458 2.07147C8.50917 2.00002 9.5932 2.00002 10.9562 2.00003L11 2.00003H22.7465L22.8689 2.00002C23.9746 1.9998 24.6978 1.99966 25.3898 2.16581C26.0021 2.31279 26.5873 2.55522 27.1242 2.88419C27.731 3.25607 28.2422 3.76751 29.0239 4.54949L29.1105 4.63607L34.9061 10.4317L34.9927 10.5183L34.9927 10.5183C35.7747 11.3 36.2861 11.8112 36.658 12.418C36.987 12.9549 37.2294 13.5401 37.3764 14.1524C37.5425 14.8444 37.5424 15.5675 37.5422 16.6731V16.6732L37.5422 16.7957V21.3434V23.5C37.5422 24.0523 37.0944 24.5 36.5422 24.5C35.9899 24.5 35.5422 24.0523 35.5422 23.5V21.3434V16.7957C35.5422 16.7203 35.5421 16.6478 35.5421 16.5779C35.5261 16.5786 35.5101 16.579 35.494 16.579H27.1639H27.1253H27.1253C26.5981 16.579 26.1434 16.5791 25.7688 16.5485C25.3735 16.5162 24.9803 16.4448 24.6019 16.252C24.0374 15.9644 23.5785 15.5055 23.2908 14.941C23.0981 14.5626 23.0267 14.1694 22.9944 13.7741C22.9638 13.3995 22.9638 12.9447 22.9639 12.4176V12.379V4.04884C22.9639 4.03251 22.9643 4.01626 22.965 4.00012ZM35.4218 14.579C35.323 14.1855 35.1648 13.8091 34.9527 13.463C34.7197 13.0828 34.3903 12.7443 33.4919 11.8459L27.6963 6.05028C26.7979 5.15187 26.4594 4.82245 26.0792 4.58947C25.7332 4.3775 25.3572 4.21942 24.9639 4.1206V12.379C24.9639 12.9556 24.9646 13.3279 24.9878 13.6112C25.01 13.8828 25.0477 13.9836 25.0729 14.033C25.1687 14.2212 25.3217 14.3742 25.5099 14.47C25.5593 14.4952 25.66 14.5329 25.9317 14.5551C26.215 14.5782 26.5873 14.579 27.1639 14.579H35.4218ZM13.4819 22.9629C12.9296 22.9629 12.4819 23.4106 12.4819 23.9629C12.4819 24.5152 12.9296 24.9629 13.4819 24.9629H26.0602C26.6125 24.9629 27.0602 24.5152 27.0602 23.9629C27.0602 23.4106 26.6125 22.9629 26.0602 22.9629H13.4819ZM13.4819 31.3494C12.9296 31.3494 12.4819 31.7971 12.4819 32.3494C12.4819 32.9017 12.9296 33.3494 13.4819 33.3494H21.8675C22.4197 33.3494 22.8675 32.9017 22.8675 32.3494C22.8675 31.7971 22.4197 31.3494 21.8675 31.3494H13.4819Z" fill="#67BF44"/>
<path fill-rule="evenodd" clip-rule="evenodd" d="M27 36C27 31.0294 31.0294 27 36 27C40.9706 27 45 31.0294 45 36C45 40.9706 40.9706 45 36 45C31.0294 45 27 40.9706 27 36ZM36 25C29.9249 25 25 29.9249 25 36C25 42.0751 29.9249 47 36 47C42.0751 47 47 42.0751 47 36C47 29.9249 42.0751 25 36 25ZM41.2071 34.2071C41.5976 33.8166 41.5976 33.1834 41.2071 32.7929C40.8166 32.4024 40.1834 32.4024 39.7929 32.7929L35 37.5858L33.2071 35.7929C32.8166 35.4024 32.1834 35.4024 31.7929 35.7929C31.4024 36.1834 31.4024 36.8166 31.7929 37.2071L34.2929 39.7071C34.4804 39.8946 34.7348 40 35 40C35.2652 40 35.5196 39.8946 35.7071 39.7071L41.2071 34.2071Z" fill="#67BF44"/>
</svg>
