<svg width="25" height="24" viewBox="0 0 25 24" fill="none" xmlns="http://www.w3.org/2000/svg">
<g clip-path="url(#clip0_990_43182)">
<path d="M7.7418 21.5933C7.7418 21.5933 0.452026 13.8377 0.452026 7.94198C0.452026 3.90623 3.72106 0.625 7.7418 0.625C11.7625 0.625 15.0316 3.90623 15.0316 7.94198C15.0316 9.09409 14.7532 10.3172 14.3052 11.5396" stroke="#233441" stroke-linejoin="round"/>
<path d="M7.65427 11.2067C9.49833 11.2067 10.9932 9.70626 10.9932 7.85533C10.9932 6.00439 9.49833 4.50391 7.65427 4.50391C5.81021 4.50391 4.31531 6.00439 4.31531 7.85533C4.31531 9.70626 5.81021 11.2067 7.65427 11.2067Z" stroke="#233441" stroke-miterlimit="10"/>
<path d="M9.69405 22.1094V21.0654L13.03 17.8974C13.31 17.6334 13.518 17.4014 13.654 17.2014C13.79 17.0014 13.878 16.8174 13.918 16.6494C13.966 16.4734 13.99 16.3094 13.99 16.1574C13.99 15.7734 13.858 15.4774 13.594 15.2694C13.33 15.0534 12.942 14.9454 12.43 14.9454C12.022 14.9454 11.65 15.0174 11.314 15.1614C10.986 15.3054 10.702 15.5254 10.462 15.8214L9.37005 14.9814C9.69805 14.5414 10.138 14.2014 10.69 13.9614C11.25 13.7134 11.874 13.5894 12.562 13.5894C13.17 13.5894 13.698 13.6894 14.146 13.8894C14.602 14.0814 14.95 14.3574 15.19 14.7174C15.438 15.0774 15.562 15.5054 15.562 16.0014C15.562 16.2734 15.526 16.5454 15.454 16.8174C15.382 17.0814 15.246 17.3614 15.046 17.6574C14.846 17.9534 14.554 18.2854 14.17 18.6534L11.302 21.3774L10.978 20.7894H15.886V22.1094H9.69405ZM20.6384 15.6294C21.1504 15.6294 21.6064 15.7294 22.0064 15.9294C22.4144 16.1294 22.7344 16.4374 22.9664 16.8534C23.1984 17.2614 23.3144 17.7894 23.3144 18.4374V22.1094H21.8144V18.6294C21.8144 18.0614 21.6784 17.6374 21.4064 17.3574C21.1424 17.0774 20.7704 16.9374 20.2904 16.9374C19.9384 16.9374 19.6264 17.0094 19.3544 17.1534C19.0824 17.2974 18.8704 17.5134 18.7184 17.8014C18.5744 18.0814 18.5024 18.4374 18.5024 18.8694V22.1094H17.0024V13.2054H18.5024V17.4294L18.1784 16.9014C18.4024 16.4934 18.7264 16.1814 19.1504 15.9654C19.5824 15.7414 20.0784 15.6294 20.6384 15.6294Z" fill="#3EC227"/>
</g>
<defs>
<clipPath id="clip0_990_43182">
<rect width="24.274" height="24" fill="white"/>
</clipPath>
</defs>
</svg>
