<svg width="25" height="24" viewBox="0 0 25 24" fill="none" xmlns="http://www.w3.org/2000/svg">
<g clip-path="url(#clip0_990_43265)">
<path d="M8.2418 21.5933C8.2418 21.5933 0.952026 13.8377 0.952026 7.94198C0.952026 3.90623 4.22106 0.625 8.2418 0.625C12.2625 0.625 15.5316 3.90623 15.5316 7.94198C15.5316 9.09409 15.2532 10.3172 14.8052 11.5396" stroke="#233441" stroke-linejoin="round"/>
<path d="M8.15427 11.2067C9.99833 11.2067 11.4932 9.70626 11.4932 7.85533C11.4932 6.00439 9.99833 4.50391 8.15427 4.50391C6.31021 4.50391 4.81531 6.00439 4.81531 7.85533C4.81531 9.70626 6.31021 11.2067 8.15427 11.2067Z" stroke="#233441" stroke-miterlimit="10"/>
<path d="M13.086 22.2294C12.494 22.2294 11.914 22.1454 11.346 21.9774C10.786 21.8014 10.314 21.5614 9.93005 21.2574L10.59 20.0454C10.894 20.2934 11.262 20.4934 11.694 20.6454C12.134 20.7974 12.59 20.8734 13.062 20.8734C13.614 20.8734 14.046 20.7574 14.358 20.5254C14.678 20.2934 14.838 19.9814 14.838 19.5894C14.838 19.3254 14.77 19.0934 14.634 18.8934C14.506 18.6934 14.274 18.5414 13.938 18.4374C13.61 18.3334 13.158 18.2814 12.582 18.2814H10.554L10.986 13.7094H15.918V15.0174H11.562L12.378 14.2734L12.054 17.6934L11.238 16.9614H12.93C13.762 16.9614 14.43 17.0734 14.934 17.2974C15.446 17.5134 15.818 17.8174 16.05 18.2094C16.29 18.5934 16.41 19.0334 16.41 19.5294C16.41 20.0174 16.29 20.4654 16.05 20.8734C15.81 21.2814 15.442 21.6094 14.946 21.8574C14.458 22.1054 13.838 22.2294 13.086 22.2294ZM21.1619 15.6294C21.6739 15.6294 22.1299 15.7294 22.5299 15.9294C22.9379 16.1294 23.2579 16.4374 23.4899 16.8534C23.7219 17.2614 23.8379 17.7894 23.8379 18.4374V22.1094H22.3379V18.6294C22.3379 18.0614 22.2019 17.6374 21.9299 17.3574C21.6659 17.0774 21.2939 16.9374 20.8139 16.9374C20.4619 16.9374 20.1499 17.0094 19.8779 17.1534C19.6059 17.2974 19.3939 17.5134 19.2419 17.8014C19.0979 18.0814 19.0259 18.4374 19.0259 18.8694V22.1094H17.5259V13.2054H19.0259V17.4294L18.7019 16.9014C18.9259 16.4934 19.2499 16.1814 19.6739 15.9654C20.1059 15.7414 20.6019 15.6294 21.1619 15.6294Z" fill="#3EC227"/>
</g>
<defs>
<clipPath id="clip0_990_43265">
<rect width="24.274" height="24" fill="white" transform="translate(0.5)"/>
</clipPath>
</defs>
</svg>
