<svg width="24" height="24" viewBox="0 0 24 24" fill="none" xmlns="http://www.w3.org/2000/svg">
<g clip-path="url(#clip0_993_1303)">
<path d="M18.2222 5.6H17.3333V4.8C17.3333 4.36 16.9333 4 16.4444 4C15.9556 4 15.5556 4.36 15.5556 4.8V5.6H8.44444V4.8C8.44444 4.36 8.04444 4 7.55556 4C7.06667 4 6.66667 4.36 6.66667 4.8V5.6H5.77778C4.79111 5.6 4.00889 6.32 4.00889 7.2L4 18.4C4 19.28 4.79111 20 5.77778 20H18.2222C19.2 20 20 19.28 20 18.4V7.2C20 6.32 19.2 5.6 18.2222 5.6ZM17.3333 18.4H6.66667C6.17778 18.4 5.77778 18.04 5.77778 17.6V9.6H18.2222V17.6C18.2222 18.04 17.8222 18.4 17.3333 18.4Z" fill="#233441"/>
<path d="M11.1112 11.2002H8.44455C7.95566 11.2002 7.55566 11.5602 7.55566 12.0002V14.4002C7.55566 14.8402 7.95566 15.2002 8.44455 15.2002H11.1112C11.6001 15.2002 12.0001 14.8402 12.0001 14.4002V12.0002C12.0001 11.5602 11.6001 11.2002 11.1112 11.2002Z" fill="#233441"/>
</g>
<defs>
<clipPath id="clip0_993_1303">
<rect width="16" height="16" fill="white" transform="translate(4 4)"/>
</clipPath>
</defs>
</svg>
