<svg width="23" height="22" viewBox="0 0 23 22" fill="none" xmlns="http://www.w3.org/2000/svg">
<path fill-rule="evenodd" clip-rule="evenodd" d="M8.58325 0.917969C8.58325 0.503755 8.24747 0.167969 7.83325 0.167969C7.41904 0.167969 7.08325 0.503755 7.08325 0.917969V1.09433C6.70033 1.10213 6.35598 1.11621 6.04499 1.14162C5.3316 1.19991 4.72797 1.32152 4.1768 1.60235C3.28303 2.05775 2.55637 2.78441 2.10097 3.67818C1.82013 4.22935 1.69853 4.83298 1.64024 5.54637C1.58324 6.24399 1.58325 7.10949 1.58325 8.20163L1.58325 8.23463V13.768L1.58325 13.801C1.58325 14.8931 1.58324 15.7586 1.64024 16.4562C1.69853 17.1696 1.82013 17.7732 2.10097 18.3244C2.55637 19.2182 3.28303 19.9449 4.1768 20.4002C4.72797 20.6811 5.3316 20.8027 6.04499 20.861C6.7426 20.918 7.6081 20.918 8.70023 20.918H8.73325H14.2666H14.2996C15.3917 20.918 16.2572 20.918 16.9549 20.861C17.6682 20.8027 18.2719 20.6811 18.823 20.4002C19.7168 19.9449 20.4435 19.2182 20.8989 18.3244C21.1797 17.7732 21.3013 17.1696 21.3596 16.4562C21.4166 15.7586 21.4166 14.8931 21.4166 13.801V13.768V8.23464V8.20162C21.4166 7.10948 21.4166 6.24399 21.3596 5.54637C21.3013 4.83298 21.1797 4.22936 20.8989 3.67818C20.4435 2.78441 19.7168 2.05775 18.823 1.60235C18.2719 1.32152 17.6682 1.19991 16.9549 1.14162C16.6439 1.11621 16.2995 1.10213 15.9166 1.09433V0.917969C15.9166 0.503755 15.5808 0.167969 15.1666 0.167969C14.7524 0.167969 14.4166 0.503755 14.4166 0.917969V1.08464L14.2996 1.08464L14.2666 1.08464H8.73325L8.70025 1.08464L8.58325 1.08464V0.917969ZM14.4166 3.66797V2.58464L14.2666 2.58464H8.73325L8.58325 2.58464V3.66797C8.58325 4.08218 8.24747 4.41797 7.83325 4.41797C7.41904 4.41797 7.08325 4.08218 7.08325 3.66797V2.59462C6.73784 2.60194 6.43647 2.61464 6.16713 2.63664C5.54651 2.68735 5.16226 2.78373 4.85778 2.93886C4.24626 3.25045 3.74907 3.74764 3.43748 4.35917C3.28234 4.66364 3.18597 5.04789 3.13526 5.66852C3.08384 6.2979 3.08325 7.10215 3.08325 8.23463V13.768C3.08325 14.9004 3.08384 15.7047 3.13526 16.3341C3.18597 16.9547 3.28234 17.339 3.43748 17.6434C3.74907 18.255 4.24626 18.7522 4.85778 19.0637C5.16226 19.2189 5.54651 19.3153 6.16713 19.366C6.79652 19.4174 7.60077 19.418 8.73325 19.418H14.2666C15.3991 19.418 16.2033 19.4174 16.8327 19.366C17.4533 19.3153 17.8376 19.2189 18.1421 19.0637C18.7536 18.7522 19.2508 18.255 19.5624 17.6434C19.7175 17.339 19.8139 16.9547 19.8646 16.3341C19.916 15.7047 19.9166 14.9004 19.9166 13.768V8.23464C19.9166 7.10216 19.916 6.2979 19.8646 5.66852C19.8139 5.04789 19.7175 4.66364 19.5624 4.35917C19.2508 3.74764 18.7536 3.25045 18.1421 2.93886C17.8376 2.78373 17.4533 2.68735 16.8327 2.63664C16.5634 2.61464 16.262 2.60194 15.9166 2.59462V3.66797C15.9166 4.08218 15.5808 4.41797 15.1666 4.41797C14.7524 4.41797 14.4166 4.08218 14.4166 3.66797ZM6.91659 6.58464C6.50237 6.58464 6.16659 6.92042 6.16659 7.33464C6.16659 7.74885 6.50237 8.08464 6.91659 8.08464H16.0833C16.4975 8.08464 16.8333 7.74885 16.8333 7.33464C16.8333 6.92042 16.4975 6.58464 16.0833 6.58464H6.91659ZM6.16659 11.0013C6.16659 10.5871 6.50237 10.2513 6.91659 10.2513H12.4166C12.8308 10.2513 13.1666 10.5871 13.1666 11.0013C13.1666 11.4155 12.8308 11.7513 12.4166 11.7513H6.91659C6.50237 11.7513 6.16659 11.4155 6.16659 11.0013ZM6.91659 13.918C6.50237 13.918 6.16659 14.2538 6.16659 14.668C6.16659 15.0822 6.50237 15.418 6.91659 15.418H9.66658C10.0808 15.418 10.4166 15.0822 10.4166 14.668C10.4166 14.2538 10.0808 13.918 9.66658 13.918H6.91659Z" fill="#233441"/>
</svg>
