<svg width="17" height="16" viewBox="0 0 17 16" fill="none" xmlns="http://www.w3.org/2000/svg">
<g clip-path="url(#clip0_1852_15858)">
<path d="M14.4722 1.6H13.5833V0.8C13.5833 0.36 13.1833 0 12.6944 0C12.2056 0 11.8056 0.36 11.8056 0.8V1.6H4.69444V0.8C4.69444 0.36 4.29444 0 3.80556 0C3.31667 0 2.91667 0.36 2.91667 0.8V1.6H2.02778C1.04111 1.6 0.258889 2.32 0.258889 3.2L0.25 14.4C0.25 15.28 1.04111 16 2.02778 16H14.4722C15.45 16 16.25 15.28 16.25 14.4V3.2C16.25 2.32 15.45 1.6 14.4722 1.6ZM13.5833 14.4H2.91667C2.42778 14.4 2.02778 14.04 2.02778 13.6V5.6H14.4722V13.6C14.4722 14.04 14.0722 14.4 13.5833 14.4Z" fill="#3EC227"/>
<path d="M7.36122 7.19922H4.69455C4.20566 7.19922 3.80566 7.55922 3.80566 7.99922V10.3992C3.80566 10.8392 4.20566 11.1992 4.69455 11.1992H7.36122C7.85011 11.1992 8.25011 10.8392 8.25011 10.3992V7.99922C8.25011 7.55922 7.85011 7.19922 7.36122 7.19922Z" fill="#3EC227"/>
</g>
<defs>
<clipPath id="clip0_1852_15858">
<rect width="16" height="16" fill="white" transform="translate(0.25)"/>
</clipPath>
</defs>
</svg>
