<svg width="20" height="20" viewBox="0 0 20 20" fill="none" xmlns="http://www.w3.org/2000/svg">
<g clip-path="url(#clip0_1249_43029)">
<path fill-rule="evenodd" clip-rule="evenodd" d="M4.68537 7.29497C4.68537 4.27543 7.01579 2.14922 10.0001 2.14922C12.9843 2.14922 15.3147 4.27543 15.3147 7.29497C15.3147 9.75886 14.2518 11.5541 13.0317 12.7422C12.4192 13.3386 11.7706 13.778 11.2062 14.0657C10.6212 14.364 10.1882 14.4685 10.0001 14.4685C9.8119 14.4685 9.37889 14.364 8.79391 14.0657C8.22948 13.778 7.58088 13.3386 6.96842 12.7422C5.74829 11.5541 4.68537 9.75886 4.68537 7.29497ZM10.0001 0.949219C6.41245 0.949219 3.48537 3.5548 3.48537 7.29497C3.48537 10.1387 4.7226 12.2302 6.13123 13.6019C6.83314 14.2855 7.58106 14.7943 8.24886 15.1348C8.8961 15.4648 9.53102 15.6685 10.0001 15.6685C10.4691 15.6685 11.104 15.4648 11.7513 15.1348C12.4191 14.7943 13.167 14.2855 13.8689 13.6019C15.2775 12.2302 16.5147 10.1387 16.5147 7.29497C16.5147 3.5548 13.5877 0.949219 10.0001 0.949219ZM9.67826 3.67968C9.89022 3.63313 10.1098 3.63313 10.3217 3.67968C10.5637 3.73281 10.7813 3.86377 11.0287 4.01265L11.0804 4.04375L12.649 4.9849L12.6979 5.01416C12.9326 5.15462 13.1392 5.27824 13.295 5.45542C13.4316 5.61072 13.5346 5.79259 13.5975 5.9896C13.6693 6.21434 13.669 6.45511 13.6686 6.72868L13.6686 6.78563V8.1424L13.6686 8.19936C13.669 8.47293 13.6693 8.7137 13.5975 8.93844C13.5346 9.13545 13.4316 9.31732 13.295 9.47262C13.1392 9.64979 12.9326 9.77341 12.6979 9.91387L12.649 9.94314L11.0804 10.8843L11.0287 10.9154L11.0287 10.9154C10.7813 11.0643 10.5637 11.1952 10.3217 11.2484C10.251 11.2639 10.1795 11.2742 10.1077 11.2794C10.073 11.287 10.037 11.291 9.99999 11.291C9.96301 11.291 9.92696 11.287 9.89226 11.2794C9.82046 11.2742 9.74894 11.2639 9.67826 11.2484C9.43633 11.1952 9.21869 11.0643 8.97129 10.9154L8.91955 10.8843L7.35097 9.94314L7.30211 9.91388C7.06735 9.77342 6.86074 9.64979 6.70495 9.47262C6.56839 9.31732 6.46542 9.13545 6.4025 8.93844C6.33073 8.7137 6.33103 8.47293 6.33136 8.19937L6.33141 8.14241V6.78563L6.33136 6.72867C6.33103 6.45511 6.33073 6.21434 6.4025 5.9896C6.46542 5.79259 6.56839 5.61072 6.70495 5.45542C6.86074 5.27825 7.06734 5.15463 7.30209 5.01417L7.30209 5.01417L7.3021 5.01416L7.35097 4.9849L8.91955 4.04375L8.97129 4.01265C9.21869 3.86377 9.43633 3.73281 9.67826 3.67968ZM10.5 10.0663L10.5659 10.0268L12.1345 9.08565C12.4461 8.89869 12.5048 8.85692 12.5441 8.81229C12.5896 8.76052 12.6239 8.6999 12.6449 8.63423C12.663 8.57761 12.6686 8.50579 12.6686 8.1424V6.78563C12.6686 6.70226 12.6683 6.63423 12.6676 6.57821L10.5 7.90287V10.0663ZM12.0434 5.78772L11.5067 5.46572L9.46819 6.71148L9.99999 7.03648L12.0434 5.78772ZM8.50932 6.12551L10.5391 4.88513C10.2327 4.70172 10.1664 4.6694 10.1072 4.65641C10.0366 4.64089 9.9634 4.64089 9.89275 4.65641C9.83189 4.66977 9.76347 4.70359 9.43405 4.90124L7.95658 5.78772L8.50932 6.12551ZM7.33238 6.57821L9.49999 7.90287V10.0663L9.43405 10.0268L7.86547 9.08565C7.55387 8.89869 7.49517 8.85692 7.45592 8.81229C7.4104 8.76052 7.37608 8.6999 7.35511 8.63423C7.33703 8.57761 7.33141 8.50579 7.33141 8.14241V6.78563C7.33141 6.70226 7.33171 6.63423 7.33238 6.57821ZM3.98916 14.0107C4.10671 14.3205 3.95084 14.667 3.64102 14.7845C3.0875 14.9945 2.68811 15.2181 2.43799 15.4311C2.18474 15.6468 2.1505 15.7911 2.1505 15.8542C2.1505 15.9278 2.20083 16.1126 2.56696 16.3784C2.91976 16.6345 3.46888 16.8901 4.20141 17.115C5.65912 17.5625 7.70938 17.8483 10.0001 17.8483C12.2907 17.8483 14.341 17.5625 15.7987 17.115C16.5312 16.8901 17.0804 16.6345 17.4331 16.3784C17.7993 16.1126 17.8496 15.9278 17.8496 15.8542C17.8496 15.7911 17.8154 15.6468 17.5621 15.4311C17.312 15.2181 16.9126 14.9945 16.3591 14.7845C16.0493 14.667 15.8934 14.3205 16.0109 14.0107C16.1285 13.7009 16.4749 13.545 16.7848 13.6626C17.4056 13.8981 17.945 14.181 18.3401 14.5175C18.7322 14.8513 19.0496 15.2995 19.0496 15.8542C19.0496 16.4969 18.6271 16.9946 18.1381 17.3495C17.6357 17.7142 16.9474 18.0176 16.1509 18.2621C14.5505 18.7535 12.3759 19.0483 10.0001 19.0483C7.62417 19.0483 5.44965 18.7535 3.84922 18.2621C3.05269 18.0176 2.3644 17.7142 1.86205 17.3495C1.37305 16.9946 0.9505 16.4969 0.9505 15.8542C0.9505 15.2995 1.26795 14.8513 1.65997 14.5175C2.0551 14.181 2.59456 13.8981 3.21534 13.6626C3.52516 13.545 3.87161 13.7009 3.98916 14.0107Z" fill="#3EC227"/>
</g>
<defs>
<clipPath id="clip0_1249_43029">
<rect width="20" height="20" fill="white"/>
</clipPath>
</defs>
</svg>
