<svg width="20" height="20" viewBox="0 0 20 20" fill="none" xmlns="http://www.w3.org/2000/svg">
<path fill-rule="evenodd" clip-rule="evenodd" d="M2.19702 1.13764C1.90412 0.844745 1.42925 0.844745 1.13636 1.13764C0.843464 1.43053 0.843464 1.90541 1.13636 2.1983L2.00124 3.06318C1.74851 3.33664 1.53286 3.64502 1.36174 3.98084C1.11724 4.46071 1.0138 4.98201 0.964592 5.58423C0.916675 6.17071 0.91668 6.89628 0.916687 7.80218L0.916687 7.83464V12.168L0.916687 12.2004C0.91668 13.1063 0.916675 13.8319 0.964592 14.4184C1.0138 15.0206 1.11724 15.5419 1.36174 16.0218C1.75323 16.7901 2.3779 17.4148 3.14623 17.8062C3.6261 18.0508 4.1474 18.1542 4.74962 18.2034C5.33609 18.2513 6.06166 18.2513 6.96754 18.2513H7.00002H13H13.0325C13.9384 18.2513 14.6639 18.2513 15.2504 18.2034C15.8221 18.1567 16.3208 18.0611 16.7804 17.8424L17.803 18.865C18.0959 19.1579 18.5708 19.1579 18.8637 18.865C19.1566 18.5721 19.1566 18.0972 18.8637 17.8043L17.4336 16.3742L7.19702 6.13764L3.62711 2.56773L2.19702 1.13764ZM2.69825 4.66183C2.79745 4.46714 2.92031 4.28704 3.0632 4.12515L4.85603 5.91797H2.44502C2.44923 5.84473 2.45406 5.7743 2.45961 5.70638C2.50123 5.19692 2.57945 4.895 2.69825 4.66183ZM2.41688 7.41797H6.35603L15.5897 16.6516C15.457 16.6751 15.3052 16.6939 15.1283 16.7084C14.6101 16.7507 13.9458 16.7513 13 16.7513H7.00002C6.05422 16.7513 5.38998 16.7507 4.87177 16.7084C4.36231 16.6668 4.06038 16.5885 3.82721 16.4697C3.34113 16.2221 2.94593 15.8269 2.69825 15.3408C2.57945 15.1076 2.50123 14.8057 2.45961 14.2962C2.41727 13.778 2.41669 13.1138 2.41669 12.168V7.83464C2.41669 7.68926 2.4167 7.55053 2.41688 7.41797ZM13 3.2513C13.9458 3.2513 14.6101 3.25189 15.1283 3.29422C15.6377 3.33585 15.9397 3.41406 16.1728 3.53287C16.6589 3.78054 17.0541 4.17574 17.3018 4.66183C17.4206 4.895 17.4988 5.19692 17.5404 5.70638C17.546 5.77482 17.5509 5.8458 17.5551 5.91964C17.5384 5.91853 17.5216 5.91797 17.5047 5.91797H10C9.58581 5.91797 9.25002 6.25376 9.25002 6.66797C9.25002 7.08218 9.58581 7.41797 10 7.41797H17.5047C17.5312 7.41797 17.5574 7.41659 17.5832 7.41391C17.5833 7.5477 17.5834 7.68777 17.5834 7.83464V12.168C17.5834 13.0071 17.583 13.6265 17.5528 14.1223C17.5444 14.2601 17.5338 14.385 17.5207 14.4993C17.4736 14.9109 17.769 15.2827 18.1805 15.3298C18.5921 15.3769 18.9639 15.0815 19.011 14.6699C19.0277 14.5241 19.0403 14.3722 19.05 14.2137C19.0834 13.667 19.0834 13.0022 19.0834 12.1908V12.168V7.83464V7.80216C19.0834 6.89627 19.0834 6.17071 19.0354 5.58424C18.9862 4.98201 18.8828 4.46071 18.6383 3.98084C18.2468 3.21251 17.6221 2.58784 16.8538 2.19636C16.3739 1.95185 15.8526 1.84841 15.2504 1.79921C14.6639 1.75129 13.9384 1.7513 13.0325 1.7513L13 1.7513H7.00002H6.99621C6.56219 1.7513 6.17212 1.7513 5.82319 1.75603C5.40902 1.76164 5.07781 2.10195 5.08342 2.51612C5.08904 2.9303 5.42934 3.26151 5.84352 3.25589C6.18125 3.25132 6.5616 3.2513 7.00002 3.2513H13ZM4.99992 9.2513C4.58571 9.2513 4.24992 9.58709 4.24992 10.0013C4.24992 10.4155 4.58571 10.7513 4.99992 10.7513H6.66659C7.0808 10.7513 7.41659 10.4155 7.41659 10.0013C7.41659 9.58709 7.0808 9.2513 6.66659 9.2513H4.99992Z" fill="#3EC227"/>
</svg>
