<svg width="20" height="21" viewBox="0 0 20 21" fill="none" xmlns="http://www.w3.org/2000/svg">
<g clip-path="url(#clip0_1726_14540)">
<path d="M17.8626 20.0476H12.3658C11.4378 20.0476 10.6824 19.2921 10.6824 18.3642V11.5037C10.6824 10.5758 11.4378 9.82031 12.3658 9.82031H17.8626C18.7906 9.82031 19.546 10.5758 19.546 11.5037V18.3642C19.546 19.2921 18.7906 20.0476 17.8626 20.0476ZM12.3658 11.1839C12.1892 11.1839 12.046 11.3271 12.046 11.5037V18.3642C12.046 18.5408 12.1892 18.6839 12.3658 18.6839H17.8626C18.0392 18.6839 18.1824 18.5408 18.1824 18.3642V11.5037C18.1824 11.3271 18.0392 11.1839 17.8626 11.1839H12.3658Z" fill="#233441"/>
<path d="M17.8626 8.45312H12.3658C11.4378 8.45312 10.6824 7.69767 10.6824 6.76972V2.63653C10.6824 1.70858 11.4378 0.953125 12.3658 0.953125H17.8626C18.7906 0.953125 19.546 1.70858 19.546 2.63653V6.76972C19.546 7.69767 18.7906 8.45312 17.8626 8.45312ZM12.3658 2.31676C12.1892 2.31676 12.046 2.45994 12.046 2.63653V6.76972C12.046 6.94631 12.1892 7.08949 12.3658 7.08949H17.8626C18.0392 7.08949 18.1824 6.94631 18.1824 6.76972V2.63653C18.1824 2.45994 18.0392 2.31676 17.8626 2.31676H12.3658Z" fill="#233441"/>
<path d="M7.63494 11.1804H2.13812C1.21017 11.1804 0.454712 10.4249 0.454712 9.49699V2.63653C0.454712 1.70858 1.21017 0.953125 2.13812 0.953125H7.63494C8.56289 0.953125 9.31835 1.70858 9.31835 2.63653V9.49699C9.31835 10.4249 8.56289 11.1804 7.63494 11.1804ZM2.13812 2.31676C1.96153 2.31676 1.81835 2.45994 1.81835 2.63653V9.49699C1.81835 9.67358 1.96153 9.81676 2.13812 9.81676H7.63494C7.81153 9.81676 7.95471 9.67358 7.95471 9.49699V2.63653C7.95471 2.45994 7.81153 2.31676 7.63494 2.31676H2.13812Z" fill="#233441"/>
<path d="M7.63494 20.0469H2.13812C1.21017 20.0469 0.454712 19.2914 0.454712 18.3635V14.2303C0.454712 13.3023 1.21017 12.5469 2.13812 12.5469H7.63494C8.56289 12.5469 9.31835 13.3023 9.31835 14.2303V18.3635C9.31835 19.2914 8.56289 20.0469 7.63494 20.0469ZM2.13812 13.9105C1.96153 13.9105 1.81835 14.0537 1.81835 14.2303V18.3635C1.81835 18.5401 1.96153 18.6832 2.13812 18.6832H7.63494C7.81153 18.6832 7.95471 18.5401 7.95471 18.3635V14.2303C7.95471 14.0537 7.81153 13.9105 7.63494 13.9105H2.13812Z" fill="#233441"/>
</g>
<defs>
<clipPath id="clip0_1726_14540">
<rect width="20" height="20" fill="white" transform="translate(0 0.5)"/>
</clipPath>
</defs>
</svg>
