<svg width="18" height="18" viewBox="0 0 18 18" fill="none" xmlns="http://www.w3.org/2000/svg">
<path d="M16.7232 7.64388V8.39388C17.1374 8.39388 17.4732 8.05809 17.4732 7.64388H16.7232ZM1.27637 7.64388H0.526367C0.526367 8.05809 0.862154 8.39388 1.27637 8.39388L1.27637 7.64388ZM1.27637 10.4524V9.70239C0.862154 9.70239 0.526367 10.0382 0.526367 10.4524H1.27637ZM16.7232 10.4524H17.4732C17.4732 10.0382 17.1374 9.70239 16.7232 9.70239V10.4524ZM4.60774 12.3795C4.31485 12.6724 4.31485 13.1473 4.60774 13.4402C4.90063 13.7331 5.37551 13.7331 5.6684 13.4402L4.60774 12.3795ZM13.3918 5.71676C13.6847 5.42387 13.6847 4.94899 13.3918 4.6561C13.0989 4.36321 12.624 4.36321 12.3311 4.6561L13.3918 5.71676ZM12.1115 11.5056C12.1115 11.8669 11.8186 12.1598 11.4572 12.1598V13.6598C12.647 13.6598 13.6115 12.6953 13.6115 11.5056H12.1115ZM11.4572 12.1598C11.0959 12.1598 10.803 11.8669 10.803 11.5056H9.30296C9.30296 12.6953 10.2675 13.6598 11.4572 13.6598V12.1598ZM10.803 11.5056C10.803 11.1442 11.0959 10.8513 11.4572 10.8513V9.35132C10.2675 9.35132 9.30296 10.3158 9.30296 11.5056H10.803ZM11.4572 10.8513C11.8186 10.8513 12.1115 11.1442 12.1115 11.5056H13.6115C13.6115 10.3158 12.647 9.35132 11.4572 9.35132V10.8513ZM17.4732 7.64388V4.83537H15.9732V7.64388H17.4732ZM17.4732 4.83537C17.4732 2.86945 15.8806 1.27686 13.9147 1.27686V2.77686C15.0522 2.77686 15.9732 3.69788 15.9732 4.83537H17.4732ZM13.9147 1.27686H4.08488V2.77686H13.9147V1.27686ZM4.08488 1.27686C2.11896 1.27686 0.526367 2.86945 0.526367 4.83537H2.02637C2.02637 3.69788 2.94739 2.77686 4.08488 2.77686V1.27686ZM0.526367 4.83537V7.64388H2.02637V4.83537H0.526367ZM1.27637 8.39388C1.63449 8.39388 1.93062 8.69001 1.93062 9.04813H3.43062C3.43062 7.86158 2.46292 6.89388 1.27637 6.89388V8.39388ZM1.93062 9.04813C1.93062 9.40626 1.63449 9.70239 1.27637 9.70239V11.2024C2.46292 11.2024 3.43062 10.2347 3.43062 9.04813H1.93062ZM0.526367 10.4524V13.2609H2.02637V10.4524H0.526367ZM0.526367 13.2609C0.526367 15.2268 2.11896 16.8194 4.08488 16.8194V15.3194C2.94739 15.3194 2.02637 14.3984 2.02637 13.2609H0.526367ZM4.08488 16.8194H13.9147V15.3194H4.08488V16.8194ZM13.9147 16.8194C15.8806 16.8194 17.4732 15.2268 17.4732 13.2609H15.9732C15.9732 14.3984 15.0522 15.3194 13.9147 15.3194V16.8194ZM17.4732 13.2609V10.4524H15.9732V13.2609H17.4732ZM16.7232 9.70239C16.365 9.70239 16.0689 9.40626 16.0689 9.04813H14.5689C14.5689 10.2347 15.5366 11.2024 16.7232 11.2024V9.70239ZM16.0689 9.04813C16.0689 8.69001 16.365 8.39388 16.7232 8.39388V6.89388C15.5366 6.89388 14.5689 7.86158 14.5689 9.04813H16.0689ZM7.19658 6.59069C7.19658 6.95202 6.90366 7.24494 6.54232 7.24494V8.74494C7.73209 8.74494 8.69658 7.78045 8.69658 6.59069H7.19658ZM6.54232 7.24494C6.18099 7.24494 5.88807 6.95202 5.88807 6.59069H4.38807C4.38807 7.78045 5.35256 8.74494 6.54232 8.74494V7.24494ZM5.88807 6.59069C5.88807 6.22935 6.18099 5.93643 6.54232 5.93643V4.43643C5.35256 4.43643 4.38807 5.40092 4.38807 6.59069H5.88807ZM6.54232 5.93643C6.90366 5.93643 7.19658 6.22935 7.19658 6.59069H8.69658C8.69658 5.40092 7.73209 4.43643 6.54232 4.43643V5.93643ZM5.6684 13.4402L13.3918 5.71676L12.3311 4.6561L4.60774 12.3795L5.6684 13.4402Z" fill="#3EC227"/>
</svg>
