<svg width="20" height="20" viewBox="0 0 20 20" fill="none" xmlns="http://www.w3.org/2000/svg">
<path fill-rule="evenodd" clip-rule="evenodd" d="M10.0054 2.9375L9.98322 2.9375C9.72222 2.93749 9.49123 2.93748 9.29979 2.95312C9.09593 2.96977 8.8847 3.00711 8.67906 3.11189C8.378 3.26529 8.13323 3.51006 7.97984 3.81112C7.87506 4.01675 7.83772 4.22799 7.82106 4.43184C7.80542 4.62328 7.80543 4.85428 7.80545 5.11528L7.80545 5.1375V5.89557H5.0408L4.95328 5.89554C4.37772 5.89524 3.95802 5.89502 3.57042 6.0188C3.22894 6.12785 2.9137 6.30634 2.64451 6.54305C2.33894 6.81173 2.1232 7.17172 1.82733 7.66542L1.78233 7.74049L1.18001 8.74436L1.15481 8.78635L1.1548 8.78636L1.1548 8.78636C0.924184 9.17061 0.773257 9.42208 0.665004 9.69446C0.569104 9.93575 0.499591 10.1867 0.457679 10.443C0.410367 10.7322 0.410406 11.0255 0.410466 11.4737L0.41047 11.5226V14.5092L0.410469 14.5314C0.410457 14.7924 0.410446 15.0234 0.426087 15.2148C0.442743 15.4187 0.480082 15.6299 0.58486 15.8356C0.738257 16.1366 0.983026 16.3814 1.28409 16.5348C1.48972 16.6396 1.70096 16.6769 1.90481 16.6936C2.09624 16.7092 2.32722 16.7092 2.58821 16.7092H2.58824H2.58826H2.61047H2.693C2.96796 17.9776 4.09679 18.9278 5.44755 18.9278C6.79832 18.9278 7.92716 17.9776 8.2021 16.7091H10.088C10.3629 17.9776 11.4918 18.9278 12.8425 18.9278C14.1933 18.9278 15.3221 17.9776 15.5971 16.7091H15.6795H15.7018H15.7019H15.7019H15.7019C15.9628 16.7091 16.1938 16.7092 16.3852 16.6935C16.5891 16.6769 16.8003 16.6395 17.0059 16.5347C17.307 16.3813 17.5518 16.1366 17.7052 15.8355C17.8099 15.6299 17.8473 15.4186 17.8639 15.2148C17.8796 15.0234 17.8796 14.7924 17.8795 14.5313V14.5091V10.2766V10.2758L17.8833 7.593L17.8833 7.59216V6.9004V3.5375C17.8833 3.20613 17.6146 2.9375 17.2833 2.9375H10.7247H10.0054ZM8.99192 8.10182C9.00078 8.0608 9.00545 8.01822 9.00545 7.97455V7.26335C9.00556 7.184 9.00555 7.10232 9.00555 7.01826V6.99311L9.00555 6.49557C9.00555 6.49173 9.00552 6.4879 9.00545 6.48408V5.1375C9.00545 4.84757 9.00591 4.66621 9.01708 4.52956C9.02767 4.39991 9.04483 4.36418 9.04904 4.35591C9.08739 4.28064 9.14859 4.21945 9.22385 4.1811C9.23213 4.17688 9.26786 4.15973 9.39751 4.14913C9.53416 4.13797 9.71552 4.1375 10.0054 4.1375H10.7247H16.6833V6.9004V7.59133V7.59216L16.6795 10.275L16.6795 10.2758V14.5091C16.6795 14.7991 16.6791 14.9804 16.6679 15.1171C16.6573 15.2467 16.6402 15.2825 16.6359 15.2907C16.5976 15.366 16.5364 15.4272 16.4611 15.4655C16.4529 15.4698 16.4171 15.4869 16.2875 15.4975C16.1508 15.5087 15.9695 15.5091 15.6795 15.5091H15.597C15.322 14.2408 14.1932 13.2907 12.8425 13.2907C11.4919 13.2907 10.3631 14.2408 10.088 15.5091H8.20204C7.927 14.2408 6.79822 13.2907 5.44755 13.2907C4.09686 13.2907 2.96807 14.2408 2.69304 15.5092H2.61047C2.32054 15.5092 2.13918 15.5087 2.00253 15.4975C1.87288 15.487 1.83715 15.4698 1.82887 15.4656C1.75361 15.4272 1.69242 15.366 1.65407 15.2908C1.64985 15.2825 1.63269 15.2468 1.6221 15.1171C1.61094 14.9805 1.61047 14.7991 1.61047 14.5092V11.5226C1.61047 11.1487 1.61143 10.9458 1.62339 10.7931H5.20556H5.2307C5.7694 10.7931 6.20996 10.7931 6.56801 10.7639C6.93862 10.7336 7.27334 10.669 7.58593 10.5097C8.07515 10.2605 8.4729 9.86271 8.72217 9.37349C8.88144 9.06089 8.94603 8.72617 8.97631 8.35557C8.98288 8.2752 8.98797 8.19068 8.99192 8.10182ZM7.80545 7.23491V7.09557H5.0408C4.34047 7.09557 4.12215 7.10231 3.93547 7.16193C3.7516 7.22065 3.58186 7.31675 3.43691 7.44421C3.28975 7.57361 3.17164 7.75735 2.81132 8.35788L2.209 9.36175C2.15668 9.44895 2.11093 9.52534 2.07067 9.59311H5.20556C5.77551 9.59311 6.16689 9.59264 6.47029 9.56786C6.76669 9.54364 6.92591 9.49923 7.04114 9.44052C7.30457 9.3063 7.51874 9.09212 7.65296 8.8287C7.71168 8.71347 7.75608 8.55425 7.7803 8.25785C7.80142 7.99938 7.80488 7.67707 7.80545 7.23491ZM14.461 16.1033L14.461 16.1091L14.461 16.115C14.458 17.0063 13.7345 17.7278 12.8425 17.7278C11.9486 17.7278 11.224 17.0032 11.224 16.1093C11.224 15.2154 11.9486 14.4908 12.8425 14.4908C13.7344 14.4908 14.4578 15.2122 14.461 16.1033ZM7.06603 16.0983L7.06594 16.1091L7.06603 16.12C7.06027 17.0089 6.33785 17.7278 5.44755 17.7278C4.55366 17.7278 3.82902 17.0032 3.82902 16.1093C3.82902 15.2154 4.55366 14.4908 5.44755 14.4908C6.33779 14.4908 7.06016 15.2095 7.06603 16.0983Z" fill="#3EC227"/>
<path d="M10.7629 9.75297L12.0028 10.9928L14.7925 8.20312" stroke="#3EC227" stroke-width="1.2" stroke-linecap="round" stroke-linejoin="round"/>
</svg>
