<svg width="24" height="24" viewBox="0 0 24 24" fill="none" xmlns="http://www.w3.org/2000/svg">
<g clip-path="url(#clip0_990_43166)">
<path d="M11.7684 2.81641V4.96753" stroke="#233441" stroke-linecap="round" stroke-linejoin="round"/>
<path d="M11.7684 19.7734V21.9246" stroke="#233441" stroke-linecap="round" stroke-linejoin="round"/>
<path d="M2.20898 12.375H4.36011" stroke="#233441" stroke-linecap="round" stroke-linejoin="round"/>
<path d="M19.1672 12.375H21.3184" stroke="#233441" stroke-linecap="round" stroke-linejoin="round"/>
<path d="M7.11902 7.55469L11.8843 12.3296L15.357 8.85694" stroke="#233441" stroke-linecap="round" stroke-linejoin="round"/>
<path d="M4.84244 3.06641C4.49518 3.32686 4.17685 3.6066 3.86817 3.91528C1.74598 5.99888 0.424438 8.89277 0.424438 12.105C0.424438 14.9314 1.4373 17.5166 3.1254 19.4941C3.6463 20.1018 4.22508 20.6613 4.85209 21.1532C5.40193 21.5777 5.99035 21.9539 6.60772 22.2722C7.3119 22.6388 8.05466 22.9378 8.83601 23.15C9.49196 23.3333 10.1672 23.4587 10.8617 23.5166C11.1994 23.5455 11.537 23.5648 11.8842 23.5648C12.3473 23.5648 12.8103 23.5455 13.254 23.4876C18.9453 22.8124 23.3537 17.9699 23.3537 12.105C23.3537 10.9502 23.1847 9.83569 22.8679 8.78545" stroke="#233441" stroke-linecap="round" stroke-linejoin="round"/>
<path d="M21.0397 18.9857C19.8118 20.6147 18.128 21.9246 16.0883 22.7212C10.6251 24.8546 4.51084 22.5097 1.8116 17.4539C1.59628 17.0616 1.40988 16.6373 1.24145 16.206C1.11513 15.8825 1.01029 15.561 0.914435 15.236C0.715707 14.568 0.586895 13.8934 0.519013 13.2157C0.432472 12.4107 0.440836 11.61 0.526133 10.8208C0.598084 10.1299 0.734473 9.44493 0.929826 8.77837C1.16001 8.01536 1.47063 7.27271 1.84723 6.56644C3.0752 4.27465 5.11487 2.39079 7.74761 1.36268C10.1697 0.416822 12.7125 0.353483 15.0325 1.01021" stroke="#233441" stroke-linecap="round" stroke-linejoin="round"/>
<path d="M20.5642 4.36681C20.2904 4.68625 19.7884 4.70907 19.4689 4.43526C19.1495 4.16146 19.1267 3.65948 19.4005 3.34004C19.6743 3.0206 20.1763 2.99778 20.4957 3.27159C20.8152 3.54539 20.838 4.04737 20.5642 4.36681Z" fill="#3EC227" stroke="#3EC227" stroke-width="2" stroke-linecap="round" stroke-linejoin="round"/>
</g>
<defs>
<clipPath id="clip0_990_43166">
<rect width="23.7781" height="24" fill="white"/>
</clipPath>
</defs>
</svg>
