<svg width="24" height="24" viewBox="0 0 24 24" fill="none" xmlns="http://www.w3.org/2000/svg">
<g clip-path="url(#clip0_1852_15807)">
<mask id="path-1-outside-1_1852_15807" maskUnits="userSpaceOnUse" x="-1" y="1.86719" width="26" height="20" fill="black">
<rect fill="white" x="-1" y="1.86719" width="26" height="20"/>
<path fill-rule="evenodd" clip-rule="evenodd" d="M0 3.40193C0 3.1066 0.23941 2.86719 0.534738 2.86719H13.922C14.1449 2.86719 14.3444 3.00545 14.4227 3.21416L14.9125 4.52024L15.1574 5.09997L17.9618 5.09682C18.1256 5.09682 18.2804 5.17192 18.3818 5.30059L20.7895 8.35604L23.8853 12.2845C23.9596 12.3788 24 12.4954 24 12.6154V17.4483C24 17.7436 23.7606 17.983 23.4653 17.983H21.9931C22.0015 18.0722 22.0057 18.1625 22.0057 18.2538C22.0057 19.8417 20.719 21.129 19.1294 21.129C17.5419 21.129 16.2552 19.8417 16.2552 18.2538C16.2552 18.1625 16.2595 18.0722 16.2678 17.983H15.0008L7.6907 17.9771C7.65416 17.6186 7.55176 17.2796 7.39581 16.9724C7.58877 17.3587 7.6973 17.7945 7.6973 18.2557C7.6973 19.8437 6.41059 21.131 4.821 21.131C3.23349 21.131 1.94678 19.8437 1.94678 18.2557C1.94678 18.1617 1.95129 18.0687 1.9601 17.9771H0.534738C0.23941 17.9771 0 17.7376 0 17.4423V3.40193ZM19.1294 15.3785C18.0257 15.3785 17.0675 16.0007 16.5859 16.9136L15.4364 16.9177V6.16944L15.5924 6.1663H17.7023L19.4393 8.37052H17.8137C17.5183 8.37052 17.2789 8.60993 17.2789 8.90526V13.0556C17.2789 13.3509 17.5183 13.5903 17.8137 13.5903L22.9305 13.5898V16.9136H21.675C21.1933 16.0007 20.2345 15.3785 19.1294 15.3785ZM2.28163 16.9076C2.76459 15.999 3.72052 15.3804 4.821 15.3804C5.92292 15.3804 6.87929 15.999 7.36239 16.9076H14.3669V6.11106L13.5515 3.93666H1.06948V12.7005H10.7261C10.8738 12.7005 10.9935 12.8202 10.9935 12.9679V13.5034C10.9935 13.6511 10.8738 13.7708 10.7261 13.7708H1.06948V16.9076H2.28163ZM6.62992 18.2557C6.62992 19.2539 5.81945 20.0631 4.821 20.0631C3.82254 20.0631 3.01417 19.2539 3.01417 18.2557C3.01417 17.2575 3.82254 16.4483 4.821 16.4483C5.81945 16.4483 6.62992 17.2575 6.62992 18.2557ZM19.1294 20.0612C20.1279 20.0612 20.9383 19.252 20.9383 18.2538C20.9383 17.2556 20.1279 16.4464 19.1294 16.4464C18.131 16.4464 17.3226 17.2556 17.3226 18.2538C17.3226 19.252 18.131 20.0612 19.1294 20.0612ZM20.2821 9.44H18.3484V12.5208L22.7097 12.5205L20.2821 9.44ZM3.19995 6.01074C2.64767 6.01074 2.19995 6.45846 2.19995 7.01074V10.0107C2.19995 10.563 2.64767 11.0107 3.19995 11.0107H12.2C12.7522 11.0107 13.2 10.563 13.2 10.0107V7.01074C13.2 6.45846 12.7522 6.01074 12.2 6.01074H3.19995Z"/>
</mask>
<path fill-rule="evenodd" clip-rule="evenodd" d="M0 3.40193C0 3.1066 0.23941 2.86719 0.534738 2.86719H13.922C14.1449 2.86719 14.3444 3.00545 14.4227 3.21416L14.9125 4.52024L15.1574 5.09997L17.9618 5.09682C18.1256 5.09682 18.2804 5.17192 18.3818 5.30059L20.7895 8.35604L23.8853 12.2845C23.9596 12.3788 24 12.4954 24 12.6154V17.4483C24 17.7436 23.7606 17.983 23.4653 17.983H21.9931C22.0015 18.0722 22.0057 18.1625 22.0057 18.2538C22.0057 19.8417 20.719 21.129 19.1294 21.129C17.5419 21.129 16.2552 19.8417 16.2552 18.2538C16.2552 18.1625 16.2595 18.0722 16.2678 17.983H15.0008L7.6907 17.9771C7.65416 17.6186 7.55176 17.2796 7.39581 16.9724C7.58877 17.3587 7.6973 17.7945 7.6973 18.2557C7.6973 19.8437 6.41059 21.131 4.821 21.131C3.23349 21.131 1.94678 19.8437 1.94678 18.2557C1.94678 18.1617 1.95129 18.0687 1.9601 17.9771H0.534738C0.23941 17.9771 0 17.7376 0 17.4423V3.40193ZM19.1294 15.3785C18.0257 15.3785 17.0675 16.0007 16.5859 16.9136L15.4364 16.9177V6.16944L15.5924 6.1663H17.7023L19.4393 8.37052H17.8137C17.5183 8.37052 17.2789 8.60993 17.2789 8.90526V13.0556C17.2789 13.3509 17.5183 13.5903 17.8137 13.5903L22.9305 13.5898V16.9136H21.675C21.1933 16.0007 20.2345 15.3785 19.1294 15.3785ZM2.28163 16.9076C2.76459 15.999 3.72052 15.3804 4.821 15.3804C5.92292 15.3804 6.87929 15.999 7.36239 16.9076H14.3669V6.11106L13.5515 3.93666H1.06948V12.7005H10.7261C10.8738 12.7005 10.9935 12.8202 10.9935 12.9679V13.5034C10.9935 13.6511 10.8738 13.7708 10.7261 13.7708H1.06948V16.9076H2.28163ZM6.62992 18.2557C6.62992 19.2539 5.81945 20.0631 4.821 20.0631C3.82254 20.0631 3.01417 19.2539 3.01417 18.2557C3.01417 17.2575 3.82254 16.4483 4.821 16.4483C5.81945 16.4483 6.62992 17.2575 6.62992 18.2557ZM19.1294 20.0612C20.1279 20.0612 20.9383 19.252 20.9383 18.2538C20.9383 17.2556 20.1279 16.4464 19.1294 16.4464C18.131 16.4464 17.3226 17.2556 17.3226 18.2538C17.3226 19.252 18.131 20.0612 19.1294 20.0612ZM20.2821 9.44H18.3484V12.5208L22.7097 12.5205L20.2821 9.44ZM3.19995 6.01074C2.64767 6.01074 2.19995 6.45846 2.19995 7.01074V10.0107C2.19995 10.563 2.64767 11.0107 3.19995 11.0107H12.2C12.7522 11.0107 13.2 10.563 13.2 10.0107V7.01074C13.2 6.45846 12.7522 6.01074 12.2 6.01074H3.19995Z" fill="#233441"/>
<path d="M14.4227 3.21416L14.5163 3.17904L14.5163 3.17904L14.4227 3.21416ZM14.9125 4.52024L14.8188 4.55538L14.8204 4.55916L14.9125 4.52024ZM15.1574 5.09997L15.0653 5.13888L15.0911 5.20004L15.1575 5.19997L15.1574 5.09997ZM17.9618 5.09682V4.99682L17.9617 4.99682L17.9618 5.09682ZM18.3818 5.30059L18.3032 5.36248L18.3818 5.30059ZM20.7895 8.35604L20.711 8.41793L20.7895 8.35604ZM23.8853 12.2845L23.8067 12.3464L23.8853 12.2845ZM21.9931 17.983V17.883H21.8834L21.8936 17.9923L21.9931 17.983ZM16.2678 17.983L16.3673 17.9923L16.3775 17.883H16.2678V17.983ZM15.0008 17.983L15.0007 18.083H15.0008V17.983ZM7.6907 17.9771L7.59122 17.9872L7.60037 18.077L7.69062 18.0771L7.6907 17.9771ZM7.39581 16.9724L7.48498 16.9271L7.30635 17.0171L7.39581 16.9724ZM1.9601 17.9771L2.05964 17.9866L2.07018 17.8771H1.9601V17.9771ZM16.5859 16.9136L16.5862 17.0136L16.6463 17.0133L16.6743 16.9602L16.5859 16.9136ZM15.4364 16.9177H15.3364V17.018L15.4367 17.0177L15.4364 16.9177ZM15.4364 6.16944L15.4344 6.06946L15.3364 6.07143V6.16944H15.4364ZM15.5924 6.1663V6.06628L15.5904 6.06632L15.5924 6.1663ZM17.7023 6.1663L17.7809 6.10441L17.7508 6.0663H17.7023V6.1663ZM19.4393 8.37052V8.47052H19.6454L19.5179 8.30863L19.4393 8.37052ZM17.8137 13.5903V13.6903H17.8137L17.8137 13.5903ZM22.9305 13.5898H23.0305V13.4898L22.9305 13.4898L22.9305 13.5898ZM22.9305 16.9136V17.0136H23.0305V16.9136H22.9305ZM21.675 16.9136L21.5866 16.9602L21.6147 17.0136H21.675V16.9136ZM2.28163 16.9076V17.0076H2.34172L2.36993 16.9545L2.28163 16.9076ZM7.36239 16.9076L7.2741 16.9545L7.30231 17.0076H7.36239V16.9076ZM14.3669 16.9076V17.0076H14.4669V16.9076H14.3669ZM14.3669 6.11106H14.4669V6.09293L14.4605 6.07595L14.3669 6.11106ZM13.5515 3.93666L13.6451 3.90155L13.6208 3.83666H13.5515V3.93666ZM1.06948 3.93666V3.83666H0.969476V3.93666H1.06948ZM1.06948 12.7005H0.969476V12.8005H1.06948V12.7005ZM1.06948 13.7708V13.6708H0.969476V13.7708H1.06948ZM1.06948 16.9076H0.969476V17.0076H1.06948V16.9076ZM18.3484 9.44V9.34H18.2484V9.44H18.3484ZM20.2821 9.44L20.3606 9.3781L20.3306 9.34H20.2821V9.44ZM18.3484 12.5208H18.2484V12.6208L18.3484 12.6208L18.3484 12.5208ZM22.7097 12.5205L22.7097 12.6205L22.9158 12.6205L22.7882 12.4586L22.7097 12.5205ZM0.534738 2.76719C0.184182 2.76719 -0.1 3.05137 -0.1 3.40193H0.1C0.1 3.16183 0.294639 2.96719 0.534738 2.96719V2.76719ZM13.922 2.76719H0.534738V2.96719H13.922V2.76719ZM14.5163 3.17904C14.4234 2.93131 14.1866 2.76719 13.922 2.76719V2.96719C14.1032 2.96719 14.2654 3.0796 14.3291 3.24927L14.5163 3.17904ZM15.0062 4.48513L14.5163 3.17904L14.3291 3.24927L14.8189 4.55535L15.0062 4.48513ZM15.2495 5.06105L15.0046 4.48133L14.8204 4.55916L15.0653 5.13888L15.2495 5.06105ZM17.9617 4.99682L15.1573 4.99997L15.1575 5.19997L17.9619 5.19682L17.9617 4.99682ZM18.4603 5.23869C18.34 5.08596 18.1562 4.99682 17.9618 4.99682V5.19682C18.0949 5.19682 18.2208 5.25787 18.3032 5.36248L18.4603 5.23869ZM20.8681 8.29415L18.4603 5.23869L18.3032 5.36248L20.711 8.41793L20.8681 8.29415ZM23.9638 12.2226L20.8681 8.29415L20.711 8.41793L23.8067 12.3464L23.9638 12.2226ZM24.1 12.6154C24.1 12.4729 24.052 12.3345 23.9638 12.2226L23.8067 12.3464C23.8671 12.423 23.9 12.5178 23.9 12.6154H24.1ZM24.1 17.4483V12.6154H23.9V17.4483H24.1ZM23.4653 18.083C23.8158 18.083 24.1 17.7989 24.1 17.4483H23.9C23.9 17.6884 23.7054 17.883 23.4653 17.883V18.083ZM21.9931 18.083H23.4653V17.883H21.9931V18.083ZM22.1057 18.2538C22.1057 18.1594 22.1013 18.0659 22.0927 17.9737L21.8936 17.9923C21.9016 18.0784 21.9057 18.1656 21.9057 18.2538H22.1057ZM19.1294 21.229C20.7742 21.229 22.1057 19.897 22.1057 18.2538H21.9057C21.9057 19.7865 20.6638 21.029 19.1294 21.029V21.229ZM16.1552 18.2538C16.1552 19.8969 17.4866 21.229 19.1294 21.229V21.029C17.5972 21.029 16.3552 19.7865 16.3552 18.2538H16.1552ZM16.1682 17.9737C16.1596 18.0659 16.1552 18.1594 16.1552 18.2538H16.3552C16.3552 18.1656 16.3593 18.0784 16.3673 17.9923L16.1682 17.9737ZM15.0008 18.083H16.2678V17.883H15.0008V18.083ZM7.69062 18.0771L15.0007 18.083L15.0009 17.883L7.69078 17.8771L7.69062 18.0771ZM7.30664 17.0177C7.45714 17.3141 7.55595 17.6412 7.59122 17.9872L7.79018 17.9669C7.75237 17.596 7.64639 17.2451 7.48498 16.9271L7.30664 17.0177ZM7.7973 18.2557C7.7973 17.7787 7.68501 17.3276 7.48527 16.9277L7.30635 17.0171C7.49254 17.3898 7.5973 17.8104 7.5973 18.2557H7.7973ZM4.821 21.231C6.46581 21.231 7.7973 19.8989 7.7973 18.2557H7.5973C7.5973 19.7884 6.35537 21.031 4.821 21.031V21.231ZM1.84678 18.2557C1.84678 19.8989 3.17823 21.231 4.821 21.231V21.031C3.28876 21.031 2.04678 19.7885 2.04678 18.2557H1.84678ZM1.86056 17.9675C1.85144 18.0624 1.84678 18.1585 1.84678 18.2557H2.04678C2.04678 18.1649 2.05114 18.0751 2.05964 17.9866L1.86056 17.9675ZM0.534738 18.0771H1.9601V17.8771H0.534738V18.0771ZM-0.1 17.4423C-0.1 17.7929 0.184182 18.0771 0.534738 18.0771V17.8771C0.294639 17.8771 0.1 17.6824 0.1 17.4423H-0.1ZM-0.1 3.40193V17.4423H0.1V3.40193H-0.1ZM16.6743 16.9602C17.1393 16.0789 18.0643 15.4785 19.1294 15.4785V15.2785C17.9872 15.2785 16.9956 15.9225 16.4974 16.8669L16.6743 16.9602ZM15.4367 17.0177L16.5862 17.0136L16.5855 16.8136L15.436 16.8177L15.4367 17.0177ZM15.3364 6.16944V16.9177H15.5364V6.16944H15.3364ZM15.5904 6.06632L15.4344 6.06946L15.4384 6.26942L15.5944 6.26628L15.5904 6.06632ZM17.7023 6.0663H15.5924V6.2663H17.7023V6.0663ZM19.5179 8.30863L17.7809 6.10441L17.6238 6.22819L19.3608 8.43242L19.5179 8.30863ZM17.8137 8.47052H19.4393V8.27052H17.8137V8.47052ZM17.3789 8.90526C17.3789 8.66516 17.5736 8.47052 17.8137 8.47052V8.27052C17.4631 8.27052 17.1789 8.5547 17.1789 8.90526H17.3789ZM17.3789 13.0556V8.90526H17.1789V13.0556H17.3789ZM17.8137 13.4903C17.5736 13.4903 17.3789 13.2957 17.3789 13.0556H17.1789C17.1789 13.4061 17.4631 13.6903 17.8137 13.6903V13.4903ZM22.9305 13.4898L17.8136 13.4903L17.8137 13.6903L22.9305 13.6898L22.9305 13.4898ZM23.0305 16.9136V13.5898H22.8305V16.9136H23.0305ZM21.675 17.0136H22.9305V16.8136H21.675V17.0136ZM19.1294 15.4785C20.196 15.4785 21.1215 16.0789 21.5866 16.9602L21.7634 16.8669C21.2651 15.9225 20.273 15.2785 19.1294 15.2785V15.4785ZM4.821 15.2804C3.68208 15.2804 2.69295 15.9208 2.19333 16.8606L2.36993 16.9545C2.83623 16.0773 3.75896 15.4804 4.821 15.4804V15.2804ZM7.45069 16.8606C6.95091 15.9207 5.96132 15.2804 4.821 15.2804V15.4804C5.88452 15.4804 6.80768 16.0774 7.2741 16.9545L7.45069 16.8606ZM14.3669 16.8076H7.36239V17.0076H14.3669V16.8076ZM14.2669 6.11106V16.9076H14.4669V6.11106H14.2669ZM13.4578 3.97178L14.2733 6.14618L14.4605 6.07595L13.6451 3.90155L13.4578 3.97178ZM1.06948 4.03666H13.5515V3.83666H1.06948V4.03666ZM1.16948 12.7005V3.93666H0.969476V12.7005H1.16948ZM10.7261 12.6005H1.06948V12.8005H10.7261V12.6005ZM11.0935 12.9679C11.0935 12.765 10.929 12.6005 10.7261 12.6005V12.8005C10.8185 12.8005 10.8935 12.8755 10.8935 12.9679H11.0935ZM11.0935 13.5034V12.9679H10.8935V13.5034H11.0935ZM10.7261 13.8708C10.929 13.8708 11.0935 13.7063 11.0935 13.5034H10.8935C10.8935 13.5959 10.8185 13.6708 10.7261 13.6708V13.8708ZM1.06948 13.8708H10.7261V13.6708H1.06948V13.8708ZM1.16948 16.9076V13.7708H0.969476V16.9076H1.16948ZM2.28163 16.8076H1.06948V17.0076H2.28163V16.8076ZM4.821 20.1631C5.87458 20.1631 6.72992 19.3092 6.72992 18.2557H6.52992C6.52992 19.1986 5.76432 19.9631 4.821 19.9631V20.1631ZM2.91417 18.2557C2.91417 19.3091 3.76726 20.1631 4.821 20.1631V19.9631C3.87782 19.9631 3.11417 19.1987 3.11417 18.2557H2.91417ZM4.821 16.3483C3.76726 16.3483 2.91417 17.2023 2.91417 18.2557H3.11417C3.11417 17.3127 3.87782 16.5483 4.821 16.5483V16.3483ZM6.72992 18.2557C6.72992 17.2022 5.87458 16.3483 4.821 16.3483V16.5483C5.76432 16.5483 6.52992 17.3128 6.52992 18.2557H6.72992ZM20.8383 18.2538C20.8383 19.1966 20.0727 19.9612 19.1294 19.9612V20.1612C20.183 20.1612 21.0383 19.3073 21.0383 18.2538H20.8383ZM19.1294 16.5464C20.0727 16.5464 20.8383 17.3109 20.8383 18.2538H21.0383C21.0383 17.2002 20.183 16.3464 19.1294 16.3464V16.5464ZM17.4226 18.2538C17.4226 17.3107 18.1862 16.5464 19.1294 16.5464V16.3464C18.0757 16.3464 17.2226 17.2004 17.2226 18.2538H17.4226ZM19.1294 19.9612C18.1862 19.9612 17.4226 19.1968 17.4226 18.2538H17.2226C17.2226 19.3072 18.0757 20.1612 19.1294 20.1612V19.9612ZM18.3484 9.54H20.2821V9.34H18.3484V9.54ZM18.4484 12.5208V9.44H18.2484V12.5208H18.4484ZM22.7096 12.4205L18.3484 12.4208L18.3484 12.6208L22.7097 12.6205L22.7096 12.4205ZM20.2036 9.50189L22.6311 12.5824L22.7882 12.4586L20.3606 9.3781L20.2036 9.50189ZM2.29995 7.01074C2.29995 6.51369 2.70289 6.11074 3.19995 6.11074V5.91074C2.59244 5.91074 2.09995 6.40323 2.09995 7.01074H2.29995ZM2.29995 10.0107V7.01074H2.09995V10.0107H2.29995ZM3.19995 10.9107C2.70289 10.9107 2.29995 10.5078 2.29995 10.0107H2.09995C2.09995 10.6183 2.59244 11.1107 3.19995 11.1107V10.9107ZM12.2 10.9107H3.19995V11.1107H12.2V10.9107ZM13.1 10.0107C13.1 10.5078 12.697 10.9107 12.2 10.9107V11.1107C12.8075 11.1107 13.3 10.6183 13.3 10.0107H13.1ZM13.1 7.01074V10.0107H13.3V7.01074H13.1ZM12.2 6.11074C12.697 6.11074 13.1 6.51369 13.1 7.01074H13.3C13.3 6.40323 12.8075 5.91074 12.2 5.91074V6.11074ZM3.19995 6.11074H12.2V5.91074H3.19995V6.11074Z" fill="#233441" mask="url(#path-1-outside-1_1852_15807)"/>
</g>
<defs>
<clipPath id="clip0_1852_15807">
<rect width="24" height="24" fill="white"/>
</clipPath>
</defs>
</svg>
