<svg width="20" height="20" viewBox="0 0 20 20" fill="none" xmlns="http://www.w3.org/2000/svg">
<path fill-rule="evenodd" clip-rule="evenodd" d="M3.5694 4.26097C4.23805 3.9106 5.27664 3.40825 6.44167 2.99465C7.61376 2.57854 8.87513 2.26641 9.99997 2.26641C11.1248 2.26641 12.3862 2.57854 13.5583 2.99465C14.7233 3.40825 15.7619 3.91059 16.4305 4.26096C16.7263 4.41595 16.7584 4.44034 16.7894 4.47287C16.8243 4.5094 16.8627 4.57285 16.8788 4.62066C16.8928 4.66195 16.9 4.7096 16.9 5.07229L16.9 10.2272C16.9 11.6934 16.8941 12.3071 16.7011 12.9271C16.5432 13.4341 16.197 14.0633 15.8532 14.468C15.4309 14.9651 14.9983 15.245 13.9478 15.9106C13.182 16.3958 12.3842 16.8604 11.6651 17.2018C10.921 17.5549 10.3476 17.7331 9.99998 17.7331C9.65238 17.7331 9.07894 17.5549 8.3349 17.2018C7.61578 16.8604 6.81791 16.3958 6.05214 15.9106C5.00163 15.245 4.56907 14.9651 4.14673 14.468C3.80292 14.0633 3.45672 13.4341 3.29887 12.9271C3.10586 12.3072 3.09997 11.6934 3.09997 10.2272L3.09997 5.07229C3.09997 4.70961 3.10712 4.66196 3.1211 4.62067C3.13728 4.57285 3.17567 4.5094 3.2105 4.47288C3.24153 4.44034 3.27362 4.41596 3.5694 4.26097ZM9.99997 1.06641C8.67851 1.06641 7.26915 1.42751 6.0402 1.8638C4.80418 2.3026 3.71139 2.8318 3.01244 3.19805L2.96648 3.22207L2.96647 3.22207C2.74356 3.33842 2.52579 3.45209 2.34211 3.6447C2.18664 3.80771 2.05671 4.02248 1.98447 4.23586C1.89902 4.48824 1.89946 4.74674 1.89991 5.01401L1.89997 5.07229L1.89997 10.2272L1.89997 10.3187C1.89984 11.6667 1.89977 12.4701 2.15311 13.2838C2.35897 13.945 2.78383 14.7171 3.23222 15.2449C3.7839 15.8943 4.37222 16.267 5.3532 16.8884L5.3532 16.8884L5.40992 16.9243C6.19549 17.422 7.03923 17.9151 7.82033 18.2859C8.5765 18.6448 9.36186 18.9331 9.99998 18.9331C10.6381 18.9331 11.4235 18.6448 12.1796 18.2859C12.9607 17.9151 13.8045 17.422 14.59 16.9243L14.6467 16.8884L14.6468 16.8883C15.6277 16.267 16.2161 15.8943 16.7677 15.2449C17.2161 14.7171 17.641 13.945 17.8468 13.2838C18.1002 12.4701 18.1001 11.6667 18.1 10.3187V10.3187L18.1 10.2272L18.1 5.07229L18.1 5.01402C18.1005 4.74674 18.1009 4.48824 18.0155 4.23585C17.9432 4.02248 17.8133 3.80771 17.6578 3.64469C17.4742 3.45209 17.2564 3.33842 17.0335 3.22207L16.9875 3.19805C16.2886 2.8318 15.1958 2.3026 13.9597 1.8638C12.7308 1.42751 11.3214 1.06641 9.99997 1.06641ZM13.3409 8.34067C13.5752 8.10636 13.5752 7.72646 13.3409 7.49214C13.1066 7.25783 12.7267 7.25783 12.4924 7.49214L9.16664 10.8179L7.92424 9.57548C7.68992 9.34116 7.31002 9.34116 7.07571 9.57548C6.84139 9.80979 6.84139 10.1897 7.07571 10.424L8.74238 12.0907C8.97669 12.325 9.35659 12.325 9.5909 12.0907L13.3409 8.34067Z" fill="#3EC227"/>
</svg>
