<svg width="15" height="16" viewBox="0 0 15 16" fill="none" xmlns="http://www.w3.org/2000/svg">
<path fill-rule="evenodd" clip-rule="evenodd" d="M1.8125 8C1.8125 4.85888 4.35888 2.3125 7.5 2.3125C10.6411 2.3125 13.1875 4.85888 13.1875 8C13.1875 11.1411 10.6411 13.6875 7.5 13.6875C4.35888 13.6875 1.8125 11.1411 1.8125 8ZM7.5 1.1875C3.73756 1.1875 0.6875 4.23756 0.6875 8C0.6875 11.7624 3.73756 14.8125 7.5 14.8125C11.2624 14.8125 14.3125 11.7624 14.3125 8C14.3125 4.23756 11.2624 1.1875 7.5 1.1875ZM6.02278 5.72728C5.80311 5.50761 5.44695 5.50761 5.22728 5.72728C5.00761 5.94695 5.00761 6.30311 5.22728 6.52278L6.70454 8.00003L5.22728 9.47728C5.00761 9.69695 5.00761 10.0531 5.22728 10.2728C5.44695 10.4924 5.80311 10.4924 6.02278 10.2728L7.50003 8.79553L8.97728 10.2728C9.19695 10.4924 9.55311 10.4924 9.77278 10.2728C9.99245 10.0531 9.99245 9.69695 9.77278 9.47728L8.29553 8.00003L9.77278 6.52278C9.99245 6.30311 9.99245 5.94695 9.77278 5.72728C9.55311 5.50761 9.19695 5.50761 8.97728 5.72728L7.50003 7.20454L6.02278 5.72728Z" fill="#E97986"/>
</svg>
