<svg width="15" height="14" viewBox="0 0 15 14" fill="none" xmlns="http://www.w3.org/2000/svg">
<path fill-rule="evenodd" clip-rule="evenodd" d="M1.8125 7C1.8125 3.85888 4.35888 1.3125 7.5 1.3125C10.6411 1.3125 13.1875 3.85888 13.1875 7C13.1875 10.1411 10.6411 12.6875 7.5 12.6875C4.35888 12.6875 1.8125 10.1411 1.8125 7ZM7.5 0.1875C3.73756 0.1875 0.6875 3.23756 0.6875 7C0.6875 10.7624 3.73756 13.8125 7.5 13.8125C11.2624 13.8125 14.3125 10.7624 14.3125 7C14.3125 3.23756 11.2624 0.1875 7.5 0.1875ZM6.02278 4.72728C5.80311 4.50761 5.44695 4.50761 5.22728 4.72728C5.00761 4.94695 5.00761 5.30311 5.22728 5.52278L6.70454 7.00003L5.22728 8.47728C5.00761 8.69695 5.00761 9.05311 5.22728 9.27278C5.44695 9.49245 5.80311 9.49245 6.02278 9.27278L7.50003 7.79553L8.97728 9.27278C9.19695 9.49245 9.55311 9.49245 9.77278 9.27278C9.99245 9.05311 9.99245 8.69695 9.77278 8.47728L8.29553 7.00003L9.77278 5.52278C9.99245 5.30311 9.99245 4.94695 9.77278 4.72728C9.55311 4.50761 9.19695 4.50761 8.97728 4.72728L7.50003 6.20454L6.02278 4.72728Z" fill="#DB1F35"/>
</svg>
