<svg width="24" height="24" viewBox="0 0 24 24" fill="none" xmlns="http://www.w3.org/2000/svg">
<path fill-rule="evenodd" clip-rule="evenodd" d="M6.11816 9.75244C6.11816 6.57216 8.7482 4 12 4C15.2519 4 17.8819 6.57216 17.8819 9.75244C17.8819 13.1792 14.1679 17.9045 12.647 19.7042C12.3109 20.0986 11.6975 20.0986 11.3614 19.7042C9.83214 17.9045 6.11816 13.1792 6.11816 9.75244ZM9.89844 9.7522C9.89844 10.8862 10.8395 11.8066 11.9991 11.8066C13.1587 11.8066 14.0998 10.8862 14.0998 9.7522C14.0998 8.61814 13.1587 7.69775 11.9991 7.69775C10.8395 7.69775 9.89844 8.61814 9.89844 9.7522Z" fill="#233441"/>
</svg>
