<svg width="24" height="24" viewBox="0 0 24 24" fill="none" xmlns="http://www.w3.org/2000/svg">
<path fill-rule="evenodd" clip-rule="evenodd" d="M7.61816 9.75244C7.61816 7.43188 9.54499 5.5 12 5.5C14.4551 5.5 16.3819 7.43188 16.3819 9.75244C16.3819 11.0221 15.6541 12.7535 14.5541 14.5576C13.7062 15.9483 12.7355 17.2266 12.0031 18.1298C11.2688 17.2276 10.296 15.9486 9.44671 14.5571C8.34594 12.7534 7.61816 11.022 7.61816 9.75244ZM6.11816 9.75244C6.11816 13.1792 9.83215 17.9045 11.3614 19.7042C11.6975 20.0986 12.3109 20.0986 12.6471 19.7042C14.1679 17.9045 17.8819 13.1792 17.8819 9.75244C17.8819 6.57216 15.2519 4 12 4C8.7482 4 6.11816 6.57216 6.11816 9.75244ZM9.8985 9.75244C9.8985 10.8865 10.8396 11.8069 11.9992 11.8069C13.1587 11.8069 14.0998 10.8865 14.0998 9.75244C14.0998 8.61839 13.1587 7.698 11.9992 7.698C10.8396 7.698 9.8985 8.61839 9.8985 9.75244Z" fill="#233441"/>
<path d="M14.5541 14.5576L14.5114 14.5316L14.5541 14.5576ZM12.0031 18.1298L11.9643 18.1614L12.0032 18.2091L12.0419 18.1613L12.0031 18.1298ZM9.44671 14.5571L9.40403 14.5831L9.44671 14.5571ZM11.3614 19.7042L11.3233 19.7365L11.3234 19.7366L11.3614 19.7042ZM12.6471 19.7042L12.6851 19.7366L12.6852 19.7364L12.6471 19.7042ZM12 5.45C9.51832 5.45 7.56816 7.40333 7.56816 9.75244H7.66816C7.66816 7.46043 9.57166 5.55 12 5.55V5.45ZM16.4319 9.75244C16.4319 7.40333 14.4818 5.45 12 5.45V5.55C14.4284 5.55 16.3319 7.46043 16.3319 9.75244H16.4319ZM14.5968 14.5836C15.6974 12.7786 16.4319 11.037 16.4319 9.75244H16.3319C16.3319 11.0073 15.6108 12.7285 14.5114 14.5316L14.5968 14.5836ZM12.0419 18.1613C12.7751 17.2572 13.7473 15.9769 14.5968 14.5836L14.5114 14.5316C13.6651 15.9197 12.6959 17.1961 11.9643 18.0983L12.0419 18.1613ZM9.40403 14.5831C10.2549 15.9773 11.2292 17.2582 11.9643 18.1614L12.0419 18.0982C11.3084 17.197 10.3371 15.92 9.48939 14.531L9.40403 14.5831ZM7.56816 9.75244C7.56816 11.0368 8.30266 12.7785 9.40403 14.5831L9.48939 14.531C8.38922 12.7283 7.66816 11.0072 7.66816 9.75244H7.56816ZM11.3995 19.6718C10.6357 18.7729 9.32674 17.1439 8.209 15.3124C7.08997 13.4788 6.16816 11.451 6.16816 9.75244H6.06816C6.06816 11.4806 7.00335 13.5289 8.12364 15.3645C9.24522 17.2023 10.5579 18.8357 11.3233 19.7365L11.3995 19.6718ZM12.609 19.6717C12.2928 20.0428 11.7156 20.0428 11.3995 19.6717L11.3234 19.7366C11.6795 20.1545 12.329 20.1545 12.6851 19.7366L12.609 19.6717ZM17.8319 9.75244C17.8319 11.4511 16.9101 13.4788 15.7921 15.3124C14.6754 17.1439 13.3686 18.7729 12.6089 19.6719L12.6852 19.7364C13.4464 18.8357 14.757 17.2023 15.8775 15.3645C16.9967 13.5289 17.9319 11.4806 17.9319 9.75244H17.8319ZM12 4.05C15.2253 4.05 17.8319 6.60082 17.8319 9.75244H17.9319C17.9319 6.5435 15.2784 3.95 12 3.95V4.05ZM6.16816 9.75244C6.16816 6.60082 8.77476 4.05 12 4.05V3.95C8.72165 3.95 6.06816 6.5435 6.06816 9.75244H6.16816ZM11.9992 11.7569C10.8662 11.7569 9.9485 10.8578 9.9485 9.75244H9.8485C9.8485 10.9152 10.813 11.8569 11.9992 11.8569V11.7569ZM14.0498 9.75244C14.0498 10.8578 13.1322 11.7569 11.9992 11.7569V11.8569C13.1853 11.8569 14.1498 10.9152 14.1498 9.75244H14.0498ZM11.9992 7.748C13.1322 7.748 14.0498 8.64705 14.0498 9.75244H14.1498C14.1498 8.58973 13.1853 7.648 11.9992 7.648V7.748ZM9.9485 9.75244C9.9485 8.64705 10.8662 7.748 11.9992 7.748V7.648C10.813 7.648 9.8485 8.58973 9.8485 9.75244H9.9485Z" fill="#233441"/>
</svg>
