<svg width="25" height="24" viewBox="0 0 25 24" fill="none" xmlns="http://www.w3.org/2000/svg">
<g clip-path="url(#clip0_1852_15852)">
<path d="M1.03474 18.0271H2.40558C2.39975 18.1025 2.39678 18.1788 2.39678 18.2557C2.39678 19.8713 3.70586 21.181 5.321 21.181C6.9382 21.181 8.2473 19.8713 8.2473 18.2557C8.2473 18.1788 8.24433 18.1025 8.2385 18.0271L16.7134 18.033C16.708 18.1059 16.7052 18.1795 16.7052 18.2538C16.7052 19.8693 18.0143 21.179 19.6294 21.179C21.2466 21.179 22.5557 19.8693 22.5557 18.2538C22.5557 18.1795 22.5529 18.1059 22.5475 18.033H23.9653C24.2882 18.033 24.55 17.7712 24.55 17.4483V12.6154C24.55 12.4841 24.5058 12.3567 24.4245 12.2535L18.921 5.26964C18.8102 5.12894 18.6409 5.04682 18.4618 5.04682H18.4617L15.6906 5.04993L15.459 4.50172L14.9695 3.1966C14.8839 2.96838 14.6658 2.81719 14.422 2.81719H1.03474C0.711796 2.81719 0.45 3.07898 0.45 3.40193V17.4423C0.45 17.7653 0.711796 18.0271 1.03474 18.0271ZM3.69995 6.64629C3.12005 6.64629 2.64995 7.11639 2.64995 7.69629V10.6963C2.64995 11.2762 3.12005 11.7463 3.69995 11.7463H6.69995C7.27985 11.7463 7.74995 11.2762 7.74995 10.6963V7.69629C7.74995 7.11639 7.27985 6.64629 6.69995 6.64629H3.69995ZM9.69995 6.64629C9.12005 6.64629 8.64995 7.11639 8.64995 7.69629V10.6963C8.64995 11.2762 9.12005 11.7463 9.69995 11.7463H12.7C13.2799 11.7463 13.75 11.2762 13.75 10.6963V7.69629C13.75 7.11639 13.2799 6.64629 12.7 6.64629H9.69995ZM9.75117 7.74434H12.6492V10.6443H9.75117V7.74434ZM19.6294 15.3285C18.5172 15.3285 17.5502 15.9496 17.0558 16.8637L15.9864 16.8675V6.21844L16.0924 6.2163H16.0929H18.1781L19.8363 8.32052H18.3137C17.9907 8.32052 17.7289 8.58232 17.7289 8.90526V13.0556C17.7289 13.3785 17.9907 13.6403 18.3137 13.6403L23.3805 13.6398V16.8636H22.205C21.7104 15.9495 20.743 15.3285 19.6294 15.3285ZM5.321 15.3304C4.21205 15.3304 3.24745 15.9479 2.75176 16.8576H1.61948V13.8208H11.2261C11.4014 13.8208 11.5435 13.6787 11.5435 13.5034V12.9679C11.5435 12.7926 11.4014 12.6505 11.2261 12.6505H1.61948V3.98666H14.0168L14.8169 6.12013V16.8576H7.89226C7.39641 15.9479 6.43136 15.3304 5.321 15.3304ZM7.07992 18.2557C7.07992 19.2263 6.29189 20.0131 5.321 20.0131C4.35018 20.0131 3.56417 19.2263 3.56417 18.2557C3.56417 17.2851 4.35018 16.4983 5.321 16.4983C6.29189 16.4983 7.07992 17.2852 7.07992 18.2557ZM21.3883 18.2538C21.3883 19.2243 20.6003 20.0112 19.6294 20.0112C18.6586 20.0112 17.8726 19.2244 17.8726 18.2538C17.8726 17.2831 18.6586 16.4964 19.6294 16.4964C20.6003 16.4964 21.3883 17.2832 21.3883 18.2538ZM18.8984 12.4708V9.49H20.7578L23.1066 12.4705L18.8984 12.4708Z" fill="#233441" stroke="#233441" stroke-width="0.1"/>
</g>
<defs>
<clipPath id="clip0_1852_15852">
<rect width="24" height="24" fill="white" transform="translate(0.5)"/>
</clipPath>
</defs>
</svg>
