<svg width="20" height="20" viewBox="0 0 20 20" fill="none" xmlns="http://www.w3.org/2000/svg">
<path fill-rule="evenodd" clip-rule="evenodd" d="M15.4161 1.87598C15.7608 2.10575 15.8539 2.5714 15.6241 2.91604L5.62414 17.916C5.39438 18.2607 4.92872 18.3538 4.58408 18.1241C4.23943 17.8943 4.1463 17.4286 4.37606 17.084L14.3761 2.08399C14.6058 1.73935 15.0715 1.64622 15.4161 1.87598ZM5 3.25002C4.0335 3.25002 3.25 4.03352 3.25 5.00002C3.25 5.96652 4.0335 6.75002 5 6.75002C5.9665 6.75002 6.75 5.96652 6.75 5.00002C6.75 4.03352 5.9665 3.25002 5 3.25002ZM1.75 5.00002C1.75 3.20509 3.20507 1.75002 5 1.75002C6.79493 1.75002 8.25 3.20509 8.25 5.00002C8.25 6.79494 6.79493 8.25002 5 8.25002C3.20507 8.25002 1.75 6.79494 1.75 5.00002ZM13.25 15C13.25 14.0335 14.0335 13.25 15 13.25C15.9665 13.25 16.75 14.0335 16.75 15C16.75 15.9665 15.9665 16.75 15 16.75C14.0335 16.75 13.25 15.9665 13.25 15ZM15 11.75C13.2051 11.75 11.75 13.2051 11.75 15C11.75 16.7949 13.2051 18.25 15 18.25C16.7949 18.25 18.25 16.7949 18.25 15C18.25 13.2051 16.7949 11.75 15 11.75Z" fill="#3EC227"/>
</svg>
