<svg width="18" height="18" viewBox="0 0 18 18" fill="none" xmlns="http://www.w3.org/2000/svg">
<path d="M8.328 10.313C8.328 10.103 8.361 9.917 8.427 9.755C8.499 9.593 8.586 9.449 8.688 9.323C8.796 9.197 8.91 9.08 9.03 8.972C9.15 8.864 9.261 8.762 9.363 8.666C9.471 8.564 9.558 8.459 9.624 8.351C9.696 8.243 9.732 8.123 9.732 7.991C9.732 7.775 9.642 7.601 9.462 7.469C9.288 7.337 9.054 7.271 8.76 7.271C8.478 7.271 8.226 7.331 8.004 7.451C7.782 7.565 7.599 7.727 7.455 7.937L6.366 7.298C6.606 6.932 6.939 6.641 7.365 6.425C7.791 6.203 8.307 6.092 8.913 6.092C9.363 6.092 9.759 6.158 10.101 6.29C10.443 6.416 10.71 6.602 10.902 6.848C11.1 7.094 11.199 7.397 11.199 7.757C11.199 7.991 11.163 8.198 11.091 8.378C11.019 8.558 10.926 8.714 10.812 8.846C10.698 8.978 10.575 9.101 10.443 9.215C10.317 9.329 10.197 9.44 10.083 9.548C9.969 9.656 9.873 9.77 9.795 9.89C9.723 10.01 9.687 10.151 9.687 10.313H8.328ZM9.012 12.572C8.76 12.572 8.553 12.491 8.391 12.329C8.229 12.167 8.148 11.975 8.148 11.753C8.148 11.525 8.229 11.336 8.391 11.186C8.553 11.03 8.76 10.952 9.012 10.952C9.27 10.952 9.477 11.03 9.633 11.186C9.795 11.336 9.876 11.525 9.876 11.753C9.876 11.975 9.795 12.167 9.633 12.329C9.477 12.491 9.27 12.572 9.012 12.572Z" fill="#233441"/>
<rect x="0.375" y="0.375" width="17.25" height="17.25" rx="8.625" stroke="#233441" stroke-width="0.75"/>
</svg>
