<svg width="24" height="18" viewBox="0 0 24 18" fill="none" xmlns="http://www.w3.org/2000/svg">
<g clip-path="url(#clip0_990_43356)">
<path d="M8.96246 14.6949H15.5123V1.84713C15.5123 1.53707 15.2604 1.28516 14.9503 1.28516H2.4126" stroke="#233441" stroke-width="0.8" stroke-linecap="round" stroke-linejoin="round"/>
<path d="M2.84858 1.27734H0.939823C0.620082 1.27734 0.368164 1.52926 0.368164 1.849V14.1348C0.368164 14.4449 0.620082 14.6968 0.930134 14.6968H4.27289" stroke="#233441" stroke-width="0.8" stroke-linecap="round" stroke-linejoin="round"/>
<path d="M6.96189 16.689C8.06043 16.5099 8.80578 15.4742 8.62667 14.3756C8.44757 13.2771 7.41183 12.5318 6.3133 12.7109C5.21476 12.89 4.46941 13.9257 4.64852 15.0242C4.82762 16.1228 5.86336 16.8681 6.96189 16.689Z" stroke="#233441" stroke-width="0.8" stroke-linecap="round" stroke-linejoin="round"/>
<path d="M19.4752 16.7104C20.5882 16.7104 21.4905 15.8081 21.4905 14.695C21.4905 13.582 20.5882 12.6797 19.4752 12.6797C18.3621 12.6797 17.4598 13.582 17.4598 14.695C17.4598 15.8081 18.3621 16.7104 19.4752 16.7104Z" stroke="#233441" stroke-width="0.8" stroke-linecap="round" stroke-linejoin="round"/>
<path d="M12.9349 14.6953H17.3144" stroke="#233441" stroke-width="0.8" stroke-linecap="round" stroke-linejoin="round"/>
<path d="M15.522 4.91016H18.9713C19.291 4.91016 19.5914 5.06518 19.7658 5.33648L22.4691 9.29934H22.6629C23.1958 9.29934 23.6318 9.73535 23.6318 10.2683V13.737C23.6318 14.2699 23.1958 14.7059 22.6629 14.7059H21.6552" stroke="#233441" stroke-width="0.8" stroke-linecap="round" stroke-linejoin="round"/>
<path d="M22.4691 9.2987H18.5353C18.0024 9.2987 17.5664 8.86269 17.5664 8.32979V6.80859" stroke="#233441" stroke-width="0.8" stroke-linecap="round" stroke-linejoin="round"/>
<path d="M4.32422 7.43362L6.70158 9.81098L11.3633 5.17578" stroke="#3EC227" stroke-width="1.5" stroke-linecap="round" stroke-linejoin="round"/>
</g>
<defs>
<clipPath id="clip0_990_43356">
<rect width="24" height="16.1809" fill="white" transform="translate(0 0.910156)"/>
</clipPath>
</defs>
</svg>
