<svg width="25" height="24" viewBox="0 0 25 24" fill="none" xmlns="http://www.w3.org/2000/svg">
<g clip-path="url(#clip0_990_43350)">
<path d="M7.7418 21.5933C7.7418 21.5933 0.452026 13.8377 0.452026 7.94198C0.452026 3.90623 3.72106 0.625 7.7418 0.625C11.7625 0.625 15.0316 3.90623 15.0316 7.94198C15.0316 9.09409 14.7532 10.3172 14.3052 11.5396" stroke="#233441" stroke-linejoin="round"/>
<path d="M7.65427 11.2067C9.49833 11.2067 10.9932 9.70626 10.9932 7.85533C10.9932 6.00439 9.49833 4.50391 7.65427 4.50391C5.81021 4.50391 4.31531 6.00439 4.31531 7.85533C4.31531 9.70626 5.81021 11.2067 7.65427 11.2067Z" stroke="#233441" stroke-miterlimit="10"/>
<path d="M9.71403 18.1131H12.4012L13.9909 14.1328L15.9968 21.7823L17.5108 18.1131H20.3493" stroke="#3EC227" stroke-width="1.5" stroke-linecap="round" stroke-linejoin="round"/>
</g>
<defs>
<clipPath id="clip0_990_43350">
<rect width="24.274" height="24" fill="white"/>
</clipPath>
</defs>
</svg>
