<svg width="20" height="20" viewBox="0 0 20 20" fill="none" xmlns="http://www.w3.org/2000/svg">
<path fill-rule="evenodd" clip-rule="evenodd" d="M9.22966 0.916717L9.12086 0.916609C8.60826 0.915844 8.15835 0.915172 7.75746 1.07284C7.40692 1.2107 7.09661 1.43437 6.85497 1.72332C6.57862 2.05378 6.43698 2.48081 6.27561 2.96735L6.24131 3.0706L6.12593 3.41672H3.33317H1.6665C1.25229 3.41672 0.916504 3.7525 0.916504 4.16672C0.916504 4.58093 1.25229 4.91672 1.6665 4.91672H2.62599L3.07525 12.5542L3.07696 12.5831C3.13228 13.5237 3.17618 14.2701 3.2558 14.8731C3.33728 15.4901 3.46219 16.0126 3.70754 16.4932C4.20594 17.4694 5.02665 18.2433 6.0305 18.6835C6.52466 18.9002 7.05353 18.9942 7.67433 19.0393C8.28091 19.0834 9.02856 19.0834 9.97062 19.0834H9.97067H9.97072H9.97077H9.99984H10.0289H10.029H10.029H10.0291C10.9711 19.0834 11.7188 19.0834 12.3253 19.0393C12.9461 18.9942 13.475 18.9002 13.9692 18.6835C14.973 18.2433 15.7937 17.4694 16.2921 16.4932C16.5375 16.0126 16.6624 15.4901 16.7439 14.8731C16.8235 14.2701 16.8674 13.5238 16.9227 12.5834L16.9227 12.5833L16.9227 12.5832L16.9244 12.5542L17.2191 7.54409C17.2435 7.13059 16.928 6.77567 16.5145 6.75134C16.101 6.72702 15.746 7.04251 15.7217 7.45601L15.427 12.4661C15.3696 13.442 15.3284 14.1341 15.2568 14.6767C15.1862 15.2114 15.0921 15.5449 14.9562 15.8111C14.6152 16.4791 14.0536 17.0086 13.3668 17.3098C13.093 17.4298 12.7546 17.5042 12.2166 17.5433C11.6708 17.5829 10.9775 17.5834 9.99984 17.5834C9.0222 17.5834 8.32892 17.5829 7.78303 17.5433C7.24511 17.5042 6.90665 17.4298 6.63291 17.3098C5.94606 17.0086 5.38453 16.4791 5.04351 15.8111C4.9076 15.5449 4.8135 15.2114 4.74289 14.6767C4.67124 14.1341 4.63007 13.442 4.57267 12.4661L4.12858 4.91672H6.64921C6.66084 4.91699 6.67244 4.91699 6.68401 4.91672H13.3157C13.3272 4.91699 13.3388 4.91699 13.3505 4.91672H18.3332C18.7474 4.91672 19.0832 4.58093 19.0832 4.16672C19.0832 3.7525 18.7474 3.41672 18.3332 3.41672H13.8737L13.7584 3.0706L13.7241 2.96735C13.5627 2.48081 13.4211 2.05378 13.1447 1.72332C12.9031 1.43437 12.5927 1.2107 12.2422 1.07284C11.8413 0.915172 11.3914 0.915844 10.8788 0.916609L10.77 0.916717H9.22966ZM12.2924 3.41672C12.1107 2.87683 12.0584 2.7625 11.994 2.68558C11.9135 2.58927 11.81 2.51471 11.6932 2.46876C11.5929 2.42932 11.456 2.41672 10.77 2.41672H9.22966C8.54363 2.41672 8.40674 2.42932 8.30647 2.46876C8.18963 2.51471 8.08619 2.58927 8.00564 2.68558C7.94132 2.7625 7.88902 2.87683 7.70727 3.41672H12.2924ZM9.08317 8.33338C9.08317 7.91917 8.74738 7.58338 8.33317 7.58338C7.91896 7.58338 7.58317 7.91917 7.58317 8.33338V14.1667C7.58317 14.5809 7.91896 14.9167 8.33317 14.9167C8.74738 14.9167 9.08317 14.5809 9.08317 14.1667V8.33338ZM11.6665 7.58338C12.0807 7.58338 12.4165 7.91917 12.4165 8.33338V11.6667C12.4165 12.0809 12.0807 12.4167 11.6665 12.4167C11.2523 12.4167 10.9165 12.0809 10.9165 11.6667V8.33338C10.9165 7.91917 11.2523 7.58338 11.6665 7.58338Z" fill="white"/>
</svg>
