<svg width="24" height="24" viewBox="0 0 24 24" fill="none" xmlns="http://www.w3.org/2000/svg">
<path fill-rule="evenodd" clip-rule="evenodd" d="M18 3C16.8954 3 16 3.89543 16 5C16 6.10457 16.8954 7 18 7C19.1046 7 20 6.10457 20 5C20 3.89543 19.1046 3 18 3ZM14 5C14 2.79086 15.7909 1 18 1C20.2091 1 22 2.79086 22 5C22 7.20914 20.2091 9 18 9C15.7909 9 14 7.20914 14 5ZM5 17C3.89543 17 3 17.8954 3 19C3 20.1046 3.89543 21 5 21C6.10457 21 7 20.1046 7 19C7 17.8954 6.10457 17 5 17ZM8.87398 18C8.42994 16.2748 6.86384 15 5 15C2.79086 15 1 16.7909 1 19C1 21.2091 2.79086 23 5 23C6.86384 23 8.42994 21.7252 8.87398 20H16.5C18.9853 20 21 17.9853 21 15.5C21 13.0147 18.9853 11 16.5 11H6.5C5.11929 11 4 9.88071 4 8.5C4 7.11929 5.11929 6 6.5 6H9.58579L8.79289 6.79289C8.40237 7.18342 8.40237 7.81658 8.79289 8.20711C9.18342 8.59763 9.81658 8.59763 10.2071 8.20711L12.7071 5.70711C13.0976 5.31658 13.0976 4.68342 12.7071 4.29289L10.2071 1.79289C9.81658 1.40237 9.18342 1.40237 8.79289 1.79289C8.40237 2.18342 8.40237 2.81658 8.79289 3.20711L9.58579 4H6.5C4.01472 4 2 6.01472 2 8.5C2 10.9853 4.01472 13 6.5 13H16.5C17.8807 13 19 14.1193 19 15.5C19 16.8807 17.8807 18 16.5 18H8.87398Z" fill="#233441"/>
</svg>
