<svg width="25" height="25" viewBox="0 0 25 25" fill="none" xmlns="http://www.w3.org/2000/svg">
<path d="M12.2684 3.81641V5.96753" stroke="#233441" stroke-linecap="round" stroke-linejoin="round"/>
<path d="M12.2684 20.7734V22.9246" stroke="#233441" stroke-linecap="round" stroke-linejoin="round"/>
<path d="M2.70898 13.375H4.86011" stroke="#233441" stroke-linecap="round" stroke-linejoin="round"/>
<path d="M19.6672 13.375H21.8184" stroke="#233441" stroke-width="0.8" stroke-linecap="round" stroke-linejoin="round"/>
<path d="M7.61902 8.55469L12.3843 13.3296L15.857 9.85694" stroke="#233441" stroke-linecap="round" stroke-linejoin="round"/>
<path d="M10.6784 1.58445C7.74033 2.04562 4.98246 3.63157 3.11466 6.24493C1.47122 8.54438 0.792042 11.2366 1.01558 13.827C1.08601 14.6243 1.23156 15.416 1.45562 16.1808C1.65615 16.8459 1.91613 17.4941 2.2333 18.112C2.59306 18.8197 3.02347 19.4949 3.53575 20.1219C3.96284 20.6524 4.43928 21.1471 4.97068 21.598C5.22853 21.8179 5.49199 22.0299 5.77452 22.2318C6.15122 22.501 6.53914 22.7546 6.93379 22.9655C11.9567 25.7254 18.3589 24.3491 21.7692 19.5775C22.7431 18.215 23.3785 16.7145 23.6854 15.1736" stroke="#233441" stroke-linecap="round" stroke-linejoin="round"/>
<path d="M15.0688 1.52734C19.5859 1.52734 23.6556 6.0442 23.6556 10.6506" stroke="#3EC227" stroke-width="2" stroke-linecap="round" stroke-linejoin="round"/>
</svg>
