<svg width="22" height="22" viewBox="0 0 22 22" fill="none" xmlns="http://www.w3.org/2000/svg">
<path fill-rule="evenodd" clip-rule="evenodd" d="M10.9999 1.08203C5.52309 1.08203 1.08325 5.52187 1.08325 10.9987C1.08325 16.4755 5.52309 20.9154 10.9999 20.9154C16.4767 20.9154 20.9166 16.4755 20.9166 10.9987C20.9166 5.52187 16.4767 1.08203 10.9999 1.08203ZM2.58325 10.9987C2.58325 6.3503 6.35152 2.58203 10.9999 2.58203C15.6483 2.58203 19.4166 6.3503 19.4166 10.9987C19.4166 15.6471 15.6483 19.4154 10.9999 19.4154C6.35152 19.4154 2.58325 15.6471 2.58325 10.9987ZM11.7499 7.33203C11.7499 6.91782 11.4141 6.58203 10.9999 6.58203C10.5857 6.58203 10.2499 6.91782 10.2499 7.33203V10.9987C10.2499 11.2495 10.3752 11.4836 10.5839 11.6227L13.3339 13.4561C13.6785 13.6858 14.1442 13.5927 14.374 13.2481C14.6037 12.9034 14.5106 12.4378 14.1659 12.208L11.7499 10.5973V7.33203Z" fill="#233441"/>
</svg>
