<svg width="29" height="24" viewBox="0 0 29 24" fill="none" xmlns="http://www.w3.org/2000/svg">
<path d="M5.07837 10.2539V18.1648C5.07837 18.4607 5.31694 18.7088 5.62231 18.7088H8.90501" stroke="#233441" stroke-width="0.8" stroke-miterlimit="10" stroke-linecap="round"/>
<path d="M17.5 6.09375H18.4286C18.858 6.09375 19.2111 6.44683 19.2111 6.87625V17.7454C19.2111 18.2703 18.7817 18.6997 18.2568 18.6997H13.4855" stroke="#233441" stroke-width="0.8" stroke-miterlimit="10" stroke-linecap="round"/>
<path d="M11.1953 20.9868C12.4645 20.9868 13.4855 19.9562 13.4855 18.6965C13.4855 17.4369 12.4549 16.4062 11.1953 16.4062C9.93565 16.4062 8.90503 17.4369 8.90503 18.6965C8.90503 19.9562 9.93565 20.9868 11.1953 20.9868Z" stroke="#233441" stroke-width="0.8" stroke-miterlimit="10" stroke-linecap="round"/>
<path d="M23.4195 20.9868C24.6887 20.9868 25.7098 19.9562 25.7098 18.6965C25.7098 17.4369 24.6792 16.4062 23.4195 16.4062C22.1599 16.4062 21.1293 17.4369 21.1293 18.6965C21.1293 19.9562 22.1599 20.9868 23.4195 20.9868Z" stroke="#233441" stroke-width="0.8" stroke-miterlimit="10" stroke-linecap="round"/>
<path d="M17.3121 18.6992H21.1292" stroke="#233441" stroke-width="0.8" stroke-miterlimit="10" stroke-linecap="round"/>
<path d="M25.7097 18.6964H26.664C27.1888 18.6964 27.6182 18.2669 27.6182 17.7421V14.0968C27.6182 13.8582 27.5324 13.6292 27.3701 13.4479L23.6962 9.43991C23.5149 9.23951 23.2572 9.125 22.99 9.125H19.2015" stroke="#233441" stroke-width="0.8" stroke-miterlimit="10" stroke-linecap="round"/>
<path d="M27.6183 13.7359H22.847C22.3221 13.7359 21.8927 13.3064 21.8927 12.7816V11.207" stroke="#233441" stroke-width="0.8" stroke-miterlimit="10" stroke-linecap="round"/>
<path d="M8.8733 6.84009L10.2928 4.19922L11.8443 6.84009L14.7822 7.4343L12.6365 9.74504L13.1317 12.9141L10.2928 11.4286L7.48688 12.9141L7.84999 9.74504L5.7373 7.4343L8.8733 6.84009Z" stroke="#3EC227" stroke-width="1.5" stroke-linecap="round" stroke-linejoin="round"/>
<path d="M13.4856 3.70728L14.9051 1.06641L16.4566 3.70728L19.3945 4.30149L17.2488 6.61223L17.744 9.78125" stroke="#3EC227" stroke-width="1.5" stroke-linecap="round" stroke-linejoin="round"/>
<path d="M6.95447 3.70728L5.535 1.06641L3.9835 3.70728L1.04555 4.30149L3.19124 6.61223L2.69608 9.78125" stroke="#3EC227" stroke-width="1.5" stroke-linecap="round" stroke-linejoin="round"/>
</svg>
