<svg width="20" height="21" viewBox="0 0 20 21" fill="none" xmlns="http://www.w3.org/2000/svg">
<path d="M16.1719 12.3594C14.9031 12.3594 13.8708 13.3916 13.8708 14.6605C13.8708 15.9291 14.9031 16.9613 16.1719 16.9613C17.4409 16.9613 18.473 15.9291 18.473 14.6605C18.473 13.3916 17.4407 12.3594 16.1719 12.3594ZM16.1719 15.6708C15.6145 15.6708 15.1612 15.2175 15.1612 14.6602C15.1612 14.1028 15.6145 13.6495 16.1719 13.6495C16.7293 13.6495 17.1826 14.103 17.1826 14.6602C17.1827 15.2174 16.7293 15.6708 16.1719 15.6708Z" fill="#233441"/>
<path d="M12.8602 4.03906H0.645156C0.288828 4.03906 0 4.32789 0 4.68426V14.6197C0 14.9761 0.288828 15.2649 0.645156 15.2649H2.66668V13.9746H1.29031V5.32942H12.215V14.6197H13.5054V4.68426C13.5054 4.32789 13.2166 4.03906 12.8602 4.03906Z" fill="#233441"/>
<path d="M14.5164 13.9766H5.82825V15.2669H14.5164V13.9766Z" fill="#233441"/>
<path d="M4.23658 12.3594C2.96775 12.3594 1.93549 13.3916 1.93549 14.6605C1.93549 15.9291 2.96775 16.9613 4.23658 16.9613C5.5054 16.9613 6.53767 15.9291 6.53767 14.6605C6.53763 13.3916 5.5054 12.3594 4.23658 12.3594ZM4.23658 15.6708C3.67916 15.6708 3.22584 15.2175 3.22584 14.6602C3.22584 14.1028 3.67916 13.6495 4.23658 13.6495C4.794 13.6495 5.24732 14.103 5.24732 14.6602C5.24732 15.2174 4.79376 15.6708 4.23658 15.6708Z" fill="#233441"/>
<path d="M19.3548 9.39062H12.8601V10.6809H18.7096V13.9713H17.7848V15.2616H19.3547C19.711 15.2616 19.9999 14.973 19.9999 14.6164V10.0358C19.9999 9.67945 19.7111 9.39062 19.3548 9.39062Z" fill="#233441"/>
<path d="M17.404 6.71699C17.2907 6.51098 17.0739 6.38281 16.8386 6.38281H12.8601V7.67312H16.4571L17.9291 10.3497L19.0599 9.72773L17.404 6.71699Z" fill="#233441"/>
</svg>
