<svg width="39" height="18" viewBox="0 0 39 18" fill="none" xmlns="http://www.w3.org/2000/svg">
<path fill-rule="evenodd" clip-rule="evenodd" d="M7.18081 2.86688C6.72805 3.42517 6.00363 3.86551 5.2792 3.80261C5.18865 3.04773 5.54332 2.24568 5.95835 1.75029C6.41112 1.17627 7.20345 0.767384 7.84487 0.735931C7.92033 1.52226 7.62603 2.29286 7.18081 2.86688ZM13.8968 1.67162V13.9304H15.723V9.73933H18.2509C20.56 9.73933 22.1824 8.08804 22.1824 5.69761C22.1824 3.30718 20.5902 1.67162 18.3113 1.67162H13.8968ZM17.8282 3.27578H15.7228V8.14314H17.8206C19.4128 8.14314 20.3184 7.25459 20.3184 5.70552C20.3184 4.15646 19.4128 3.27578 17.8282 3.27578ZM25.5179 14.0249C26.6649 14.0249 27.7289 13.4194 28.2118 12.4601H28.2495V13.9305H29.9399V7.8286C29.9399 6.05937 28.5816 4.91919 26.4913 4.91919C24.552 4.91919 23.1182 6.07509 23.0654 7.66347H24.7104C24.8463 6.9086 25.5179 6.41321 26.4385 6.41321C27.5553 6.41321 28.1816 6.95578 28.1816 7.95441V8.63065L25.9027 8.77219C23.7823 8.90587 22.6353 9.81014 22.6353 11.3828C22.6353 12.9712 23.82 14.0249 25.5179 14.0249ZM24.416 11.3356C24.416 12.0826 25.0348 12.5701 26.0082 12.5701C27.2458 12.5701 28.1815 11.7523 28.1815 10.6043V9.91233L26.1516 10.046C25.0122 10.1168 24.416 10.565 24.416 11.3356ZM32.1961 17.2646C33.9769 17.2646 34.8146 16.5569 35.5465 14.4102L38.7536 5.03718H36.8973L34.7466 12.2793H34.7089L32.5583 5.03718H30.6491L33.743 13.962L33.577 14.5046C33.2978 15.4246 32.845 15.7784 32.0376 15.7784C31.8942 15.7784 31.615 15.7627 31.5018 15.747V17.2174C31.6075 17.2488 32.0602 17.2646 32.1961 17.2646ZM6.14637 4.3444C6.61674 4.15194 7.19907 3.91366 7.83728 3.95194C8.24476 3.98339 9.42195 4.1092 10.1766 5.27297C10.1731 5.27567 10.1654 5.28086 10.1541 5.28856C9.96738 5.41507 8.7814 6.21874 8.79563 7.80494C8.8098 9.69472 10.2871 10.3994 10.4804 10.4917C10.493 10.4977 10.501 10.502 10.501 10.502C10.5002 10.5046 10.4987 10.5096 10.4965 10.5171C10.458 10.6471 10.2039 11.5037 9.62569 12.3814C9.08992 13.1991 8.53906 14.0012 7.66372 14.0169C7.25179 14.0246 6.9743 13.8996 6.68535 13.7695C6.38146 13.6326 6.0649 13.4901 5.56591 13.4901C5.049 13.4901 4.71795 13.6365 4.39928 13.7774C4.12248 13.8998 3.85501 14.018 3.48319 14.0326C2.63803 14.0641 1.99662 13.1677 1.46084 12.3499C0.366665 10.6986 -0.470949 7.69485 0.660961 5.66613C1.21182 4.65177 2.21545 4.01484 3.29454 3.99912C3.76532 3.9902 4.21426 4.17604 4.60693 4.33859C4.9066 4.46265 5.17351 4.57314 5.39235 4.57314C5.58736 4.57314 5.84368 4.46825 6.14637 4.3444Z" fill="black"/>
</svg>
