<svg width="41" height="18" viewBox="0 0 41 18" fill="none" xmlns="http://www.w3.org/2000/svg">
<path fill-rule="evenodd" clip-rule="evenodd" d="M18.7557 13.663V8.81437H21.2582C22.2836 8.81437 23.1491 8.47077 23.8547 7.79311L24.024 7.62131C25.3129 6.21827 25.2282 4.03257 23.8547 2.73452C23.1679 2.04732 22.2272 1.67508 21.2582 1.69417H17.2411V13.663H18.7557ZM18.7559 7.34443V3.16394H21.2964C21.8421 3.16394 22.3596 3.37392 22.7454 3.7557C23.564 4.55744 23.5828 5.89367 22.7924 6.72404C22.4067 7.13446 21.8609 7.36352 21.2964 7.34443H18.7559Z" fill="#3C4043"/>
<path fill-rule="evenodd" clip-rule="evenodd" d="M31.0893 6.11325C30.4402 5.51195 29.5558 5.20653 28.4363 5.20653C26.9969 5.20653 25.915 5.74102 25.2001 6.80046L26.536 7.64992C27.0252 6.92454 27.6931 6.56185 28.5398 6.56185C29.076 6.56185 29.5935 6.76228 29.998 7.12497C30.3931 7.46858 30.6189 7.96489 30.6189 8.48984V8.84299C30.0356 8.51847 29.3018 8.34667 28.3987 8.34667C27.345 8.34667 26.4983 8.59483 25.868 9.10069C25.2377 9.60655 24.9178 10.2747 24.9178 11.1241C24.899 11.8972 25.2283 12.6322 25.8116 13.1285C26.4042 13.663 27.1569 13.9302 28.0412 13.9302C29.0854 13.9302 29.9133 13.4625 30.5436 12.5272H30.6095V13.663H32.0583V8.61392C32.0583 7.55448 31.7384 6.71456 31.0893 6.11325ZM26.9784 12.1549C26.6679 11.9258 26.4797 11.5536 26.4797 11.1527C26.4797 10.7041 26.6867 10.3319 27.0913 10.036C27.5053 9.74014 28.0228 9.58743 28.6344 9.58743C29.4812 9.57788 30.1399 9.76877 30.6103 10.1506C30.6103 10.7996 30.3563 11.3627 29.8576 11.8399C29.406 12.2981 28.7944 12.5558 28.1545 12.5558C27.7311 12.5653 27.3171 12.4221 26.9784 12.1549Z" fill="#3C4043"/>
<path d="M40.3748 5.47376L35.3134 17.2612H33.7517L35.6333 13.138L32.3123 5.47376H33.9587L36.3577 11.3532H36.3859L38.7284 5.47376H40.3748Z" fill="#3C4043"/>
<path d="M13.5266 7.76438C13.5266 7.2967 13.489 6.82901 13.4137 6.37088H7.02588V9.01471H10.6855C10.535 9.86417 10.0458 10.6277 9.33077 11.105V12.823H11.5134C12.7928 11.6299 13.5266 9.86417 13.5266 7.76438Z" fill="#4285F4"/>
<path d="M7.02611 14.4837C8.85121 14.4837 10.3938 13.8729 11.5134 12.823L9.33077 11.105C8.71927 11.5249 7.93866 11.7635 7.02611 11.7635C5.25746 11.7635 3.76163 10.5513 3.22539 8.92877H0.976941V10.704C2.12468 13.0234 4.46721 14.4837 7.02611 14.4837Z" fill="#34A853"/>
<path d="M3.22539 8.92877C2.94311 8.0793 2.94339 7.15366 3.22567 6.29466V4.52892H0.976863C0.00771238 6.46646 0.00771238 8.75714 0.976863 10.6947L3.22539 8.92877Z" fill="#FBBC04"/>
<path d="M7.02611 3.45986C7.99511 3.44077 8.92647 3.81301 9.62265 4.49067L11.5606 2.5245C10.3282 1.36007 8.7101 0.720584 7.02611 0.739673C4.46721 0.739673 2.12461 2.20961 0.976863 4.52892L3.22539 6.30412C3.76163 4.67201 5.25746 3.45986 7.02611 3.45986Z" fill="#EA4335"/>
</svg>
