<svg width="43" height="20" viewBox="0 0 43 20" fill="none" xmlns="http://www.w3.org/2000/svg">
<path d="M21.188 2.70341C18.9036 4.36731 17.4259 7.01644 17.4259 10.0002C17.4259 12.984 18.9036 15.6332 21.188 17.2971C19.6161 18.442 17.6622 19.1204 15.5449 19.1204C10.3505 19.1204 6.13965 15.0372 6.13965 10.0002C6.13965 4.96329 10.3505 0.880035 15.5449 0.880035C17.6622 0.880035 19.6161 1.55848 21.188 2.70341Z" fill="#ED0006"/>
<path d="M21.1879 17.297C18.9034 15.6331 17.4258 12.984 17.4258 10.0002C17.4258 7.01637 18.9034 4.36724 21.1878 2.70334C23.4723 4.36724 24.9499 7.01638 24.9499 10.0002C24.9499 12.984 23.4723 15.6331 21.1879 17.297Z" fill="#FF5E00"/>
<path d="M21.1875 17.2971C23.4719 15.6332 24.9496 12.984 24.9496 10.0002C24.9496 7.01644 23.4719 4.36731 21.1875 2.70341C22.7594 1.55848 24.7133 0.880035 26.8306 0.880035C32.025 0.880035 36.2358 4.96329 36.2358 10.0002C36.2358 15.0372 32.025 19.1204 26.8306 19.1204C24.7133 19.1204 22.7594 18.442 21.1875 17.2971Z" fill="#F9A000"/>
</svg>
