<svg width="16" height="16" viewBox="0 0 16 16" fill="none" xmlns="http://www.w3.org/2000/svg">
<path d="M15.996 4.25475C15.9242 5.72759 15.7492 6.7948 15.4922 7.85391C15.0239 9.79006 14.1084 11.4966 12.8601 13.0281C11.8749 14.2369 10.6144 15.1018 9.22961 15.7927C8.67324 16.0699 8.1098 16.0689 7.55242 15.7917C5.77914 14.9076 4.27392 13.716 3.1794 12.0357C2.58864 11.1294 2.04947 10.1967 1.69037 9.17705C1.16536 7.68498 0.865935 6.14537 0.812322 4.55923C0.777928 3.55575 1.24426 2.89318 2.14051 2.50878C3.92695 1.74403 5.72856 1.01166 7.50083 0.214539C8.12092 -0.0646548 8.64188 -0.0767936 9.26805 0.206446C11.0545 1.01267 12.8733 1.74606 14.6739 2.52092C15.5954 2.91745 16.0486 3.62049 15.997 4.25374L15.996 4.25475ZM7.38652 8.93022C7.29144 8.84323 7.21557 8.77849 7.14476 8.70869C6.76238 8.32935 6.39316 7.93585 5.9946 7.57472C5.83477 7.43007 5.62032 7.30665 5.41194 7.26113C5.10644 7.19437 4.81309 7.40275 4.66843 7.71027C4.50253 8.06129 4.631 8.36476 4.86973 8.60956C5.50399 9.26202 6.14836 9.90336 6.80487 10.5326C7.18117 10.8937 7.59693 10.8906 7.9702 10.5214C9.29334 9.21346 10.6064 7.89539 11.9194 6.57731C12.1783 6.31734 12.2491 5.93598 12.1176 5.67297C11.8607 5.1601 11.2527 5.08424 10.8036 5.51921C10.3747 5.93497 9.95794 6.36387 9.5351 6.78671C8.827 7.49481 8.11789 8.20189 7.38754 8.93022H7.38652Z" fill="white"/>
</svg>
