<svg width="43" height="18" viewBox="0 0 43 18" fill="none" xmlns="http://www.w3.org/2000/svg">
<path fill-rule="evenodd" clip-rule="evenodd" d="M11.3713 15.2688H8.01644L5.50071 5.3889C5.38131 4.93442 5.12777 4.53264 4.75483 4.34327C3.82411 3.86739 2.79851 3.48866 1.67969 3.29765V2.91727H7.08408C7.82997 2.91727 8.38938 3.48866 8.48262 4.15226L9.78792 11.279L13.1411 2.91727H16.4027L11.3713 15.2688ZM18.2675 15.2688H15.0991L17.7081 2.91727H20.8764L18.2675 15.2688ZM24.9755 6.33906C25.0688 5.67381 25.6282 5.29344 26.2808 5.29344C27.3064 5.19793 28.4236 5.38894 29.356 5.86318L29.9154 3.20383C28.983 2.82346 27.9574 2.63245 27.0267 2.63245C23.9516 2.63245 21.7139 4.34332 21.7139 6.71779C21.7139 8.52417 23.2989 9.47264 24.4177 10.044C25.6282 10.6138 26.0944 10.9942 26.0011 11.5639C26.0011 12.4185 25.0688 12.7989 24.138 12.7989C23.0192 12.7989 21.9004 12.514 20.8764 12.0381L20.317 14.6991C21.4358 15.1734 22.6463 15.3644 23.7651 15.3644C27.2132 15.4582 29.356 13.749 29.356 11.1835C29.356 7.95278 24.9755 7.76342 24.9755 6.33906ZM40.4445 15.2688L37.9287 2.91727H35.2266C34.6671 2.91727 34.1077 3.29765 33.9213 3.86739L29.2627 15.2688H32.5244L33.1754 13.4641H37.1829L37.5558 15.2688H40.4445ZM35.6927 6.24361L36.6234 10.8987H34.0144L35.6927 6.24361Z" fill="#1434CB"/>
</svg>
