<svg xmlns="http://www.w3.org/2000/svg" width="84" height="85" fill="none"><g clip-path="url(#a)"><path stroke="#3EC227" stroke-linecap="round" stroke-linejoin="round" stroke-width="2" d="M65 81.864a2 2 0 1 0 0-4 2 2 0 0 0 0 4ZM19 39.62a2 2 0 1 0 0-4 2 2 0 0 0 0 4ZM21.5 37.497H59c3.183 0 6.235.989 8.485 2.75 1.529 1.195 2.603 2.68 3.134 4.29M62.5 79.742H23c-3.978 0-7.794-1.237-10.607-3.438C9.58 74.105 8 71.12 8 68.008c0-3.112 1.58-6.097 4.393-8.298 2.813-2.2 6.629-3.437 10.607-3.437h27M64.769 61.696a4.308 4.308 0 1 0 0-8.615 4.308 4.308 0 0 0 0 8.615Z"/><path stroke="#3EC227" stroke-linecap="round" stroke-linejoin="round" stroke-width="2" d="M75.538 57.388c0 9.693-10.769 17.231-10.769 17.231S54 67.081 54 57.39a10.77 10.77 0 1 1 21.538 0v0Z"/><path fill="#3EC227" fill-rule="evenodd" d="M21.102 2.067h.041c.805 0 1.47 0 2.01.045.563.046 1.08.144 1.565.391a4 4 0 0 1 1.748 1.748c.247.486.346 1.002.392 1.565.041.507.044 1.123.044 1.862h5.401c1.168 0 1.975 0 2.718.236A4.999 4.999 0 0 1 36.8 8.92c.586.514 1.003 1.206 1.605 2.207l.08.133 1.442 2.393.04.065c.303.505.514.854.665 1.234a5 5 0 0 1 .29 1.043c.067.403.066.811.066 1.4v6.359c0 .526 0 .981-.03 1.356-.033.395-.104.788-.297 1.166a3 3 0 0 1-1.31 1.312c-.38.192-.772.264-1.168.296-.374.03-.829.03-1.356.03h-.161a5.223 5.223 0 0 1-5.13 4.21 5.223 5.223 0 0 1-5.129-4.21H22.58a5.223 5.223 0 0 1-5.13 4.21 5.223 5.223 0 0 1-5.13-4.213c-.621-.01-1.13-.05-1.582-.2a4 4 0 0 1-2.534-2.535c-.205-.617-.205-1.343-.204-2.318V7.826c0-.805 0-1.47.044-2.01.046-.563.145-1.08.392-1.565a4 4 0 0 1 1.748-1.748c.485-.247 1.002-.345 1.564-.391.541-.045 1.206-.045 2.01-.045H21.103Zm5.8 7.611h5.245c1.384 0 1.857.011 2.267.142a3 3 0 0 1 1.067.602c.323.284.577.683 1.291 1.87l1.442 2.392.004.007h-9.116c-.576 0-.948 0-1.232-.024-.271-.022-.372-.06-.422-.085a1 1 0 0 1-.437-.437c-.025-.049-.063-.15-.085-.421-.023-.284-.024-.656-.024-1.233V9.678Zm12.08 7.013c.005.177.006.415.006.78v6.242c0 .577 0 .95-.024 1.233-.022.271-.06.372-.085.421a1 1 0 0 1-.437.438c-.05.025-.15.062-.422.085-.283.023-.655.023-1.232.023h-.122a5.223 5.223 0 0 0-5.13-4.207 5.223 5.223 0 0 0-5.129 4.208H22.58a5.223 5.223 0 0 0-5.13-4.208 5.223 5.223 0 0 0-5.128 4.202c-.533-.01-.767-.034-.953-.096a2 2 0 0 1-1.267-1.267c-.09-.269-.102-.636-.102-1.857V7.868c0-.857 0-1.44.037-1.89.036-.438.101-.662.18-.819a2 2 0 0 1 .875-.874c.156-.08.38-.144.819-.18.45-.037 1.032-.038 1.889-.038h7.302c.857 0 1.439.001 1.889.038.438.036.663.1.819.18a2 2 0 0 1 .874.874c.08.157.145.381.18.82.037.45.038 1.032.038 1.888V12.53c0 .527 0 .982.03 1.356.033.396.105.789.297 1.167a3 3 0 0 0 1.311 1.311c.379.193.772.264 1.167.297.375.03.83.03 1.357.03H38.982Zm-7.446 7.015a3.217 3.217 0 0 1 3.226 3.208 3.217 3.217 0 0 1-3.226 3.208 3.217 3.217 0 0 1-3.225-3.208 3.217 3.217 0 0 1 3.225-3.208Zm-14.086 0a3.217 3.217 0 0 1 3.226 3.208 3.217 3.217 0 0 1-3.226 3.208 3.217 3.217 0 0 1-3.225-3.208 3.217 3.217 0 0 1 3.225-3.208Z" clip-rule="evenodd"/></g><defs><clipPath id="a"><path fill="#fff" d="M0 .62h84v84H0z"/></clipPath></defs></svg>