<svg width="18" height="19" viewBox="0 0 18 19" fill="none" xmlns="http://www.w3.org/2000/svg">
<path d="M5.31 7.90914L4.05 9.16914L8.1 13.2191L17.1 4.21914L15.84 2.95914L8.1 10.6991L5.31 7.90914ZM16.2 9.61914C16.2 13.5791 12.96 16.8191 9 16.8191C5.04 16.8191 1.8 13.5791 1.8 9.61914C1.8 5.65914 5.04 2.41914 9 2.41914C9.72 2.41914 10.35 2.50914 10.98 2.68914L12.42 1.24914C11.34 0.889141 10.17 0.619141 9 0.619141C4.05 0.619141 0 4.66914 0 9.61914C0 14.5691 4.05 18.6191 9 18.6191C13.95 18.6191 18 14.5691 18 9.61914H16.2Z" fill="#67BF44"/>
</svg>
