<svg width="83" height="25" viewBox="0 0 83 25" fill="none" xmlns="http://www.w3.org/2000/svg">
<path d="M71.5527 23.0627C71.3076 23.6404 70.5722 24.6307 69.1832 24.6307H63.6271C63.1218 24.64 62.624 24.5057 62.1906 24.243C61.7572 23.9804 61.4056 23.6 61.1759 23.1452L53.6589 7.71328C52.8418 6.22785 51.3711 5.7327 49.9821 5.7327H36.3371C35.0298 5.7327 34.2944 6.55794 34.2944 7.71328C34.2944 8.95114 35.1115 9.69385 36.3371 9.69385H45.8151C49.8187 9.69385 53.1687 12.1696 53.1687 17.121C53.1687 22.0724 49.737 24.5481 45.8151 24.5481H33.6407C32.4968 24.5481 31.5981 23.888 31.5981 22.4851V19.8443C31.5981 19.3491 31.9249 19.1016 32.3334 19.1016H43.1187C44.1809 19.1016 45.0797 18.4414 45.0797 17.121C45.0797 15.8006 44.2626 15.1404 43.1187 15.1404H32.8237C31.1895 15.1404 29.5554 14.6453 28.4932 13.9026C27.9213 20.5045 23.264 24.5481 16.4823 24.5481H1.36655C1.03972 24.5481 0.712891 24.3006 0.712891 23.8054V10.5191C0.712891 10.0239 1.03972 9.77637 1.36655 9.77637H6.67749C8.14821 9.77637 8.80187 10.7667 8.80187 11.8395V18.5239C8.80187 19.0191 9.04699 19.1841 9.45552 19.1841H14.0311C17.6262 19.1841 20.6494 16.956 20.6494 12.4997C20.6494 7.96085 17.6262 5.81523 14.0311 5.81523H1.36655C0.958011 5.7327 0.712891 5.56766 0.712891 5.07251V2.43175C0.712891 0.94632 1.77508 0.368652 2.75556 0.368652H16.6457C20.5676 0.368652 24.081 1.85408 26.2054 4.49485C27.2676 1.77156 29.8005 0.368652 32.9871 0.368652H52.9235C55.3748 0.368652 58.0711 1.19389 59.5418 4.08223L65.9966 17.6987L66.3235 17.8637C66.4869 17.8637 66.6503 17.8637 66.732 17.6987L74.7393 0.698748C74.7393 0.698748 74.9027 0.368652 75.3112 0.368652H81.4392C81.7661 0.368652 82.0929 0.616224 82.0929 1.11137V1.44146L71.471 23.0627H71.5527Z" fill="#00386C"/>
</svg>
