<svg xmlns="http://www.w3.org/2000/svg" width="84" height="86" fill="none"><path fill="#3EC227" fill-rule="evenodd" d="M15.733 14.937a32.6 32.6 0 0 0-1.016 2.152L2.127 45.433c-.2.45-.161.972.104 1.386.265.414.72.664 1.21.664h8.64v10.182a7.317 7.317 0 0 0 2.11 5.14 7.171 7.171 0 0 0 5.09 2.132h7.2v18.91c0 .385.15.755.42 1.028s.637.426 1.02.426H65.36c.382 0 .748-.153 1.018-.426s.422-.643.422-1.029V50.543A32.648 32.648 0 0 0 74 30.028a32.654 32.654 0 0 0-3.664-15.09h-3.297c2.588 4.402 4.08 9.568 4.08 15.089a29.685 29.685 0 0 1-6.859 19.049h.001c-.22.264-.34.596-.34.94V82.39H29.36V63.481c0-.386-.152-.756-.422-1.028a1.433 1.433 0 0 0-1.018-.426h-8.64a4.301 4.301 0 0 1-3.053-1.28 4.389 4.389 0 0 1-1.267-3.084V46.027c0-.386-.152-.756-.422-1.029a1.433 1.433 0 0 0-1.018-.426H5.665l5.842-13.151 5.842-13.152a29.493 29.493 0 0 1 1.68-3.332h-3.296Z" clip-rule="evenodd"/><path fill="#3EC227" d="m52.417 19.558.388-.642a.417.417 0 0 0-.013-.008l-.375.65Zm0 0-.387.642.012.007.375-.65Zm-.522-.324.461-.592-.46.592Zm-.708-2.07-.727-.186.727.185Zm.215-.577-.695-.283.694.284Zm-.17-1.622-.649.376.001.001.649-.377Zm-.014-.026-.65.374v.002l.65-.376Zm-1.32-.955-.101.743.101-.743Zm-.606-.102-.203.722.203-.722Zm-1.439-1.649-.743.104.743-.104Zm0-1.228-.743-.104.743.104Zm1.44-1.649.202.722-.203-.722Zm.605-.102-.093-.744-.008.001.101.743Zm0 0 .093.745.008-.002-.1-.743Zm1.32-.955-.65-.375v.001l.65.374Zm.014-.026-.648-.377v.002l.648.375Zm.17-1.622.694-.284-.695.284Zm-.215-.576.727-.185-.727.185Zm.708-2.07.461.59-.461-.59Zm.522-.324-.343-.667a.739.739 0 0 0-.032.017l.375.65Zm0 0 .344.666a.739.739 0 0 0 .031-.017l-.375-.65Zm.542-.29-.282-.696.282.695Zm2.147.421-.524.537.524-.537Zm.391.474-.593.46.593-.46Zm1.49.666v-.75h-.002l.002.75Zm.013 0v-.75.75Zm.014 0 .001-.75-.001.75Zm1.49-.666.593.459-.593-.46Zm.391-.474-.523-.537.523.537Zm2.147-.422.282-.695-.282.695Zm.542.29-.375.65.031.017.344-.667Zm0 0 .375-.65a.789.789 0 0 0-.031-.016l-.344.666Zm.522.324.462-.591-.462.591Zm.709 2.07.726.186-.726-.185Zm-.215.576-.694-.283-.005.013.699.27Zm0 0 .694.284.005-.013-.7-.27Zm.169 1.625.65-.375-.002-.001-.648.376Zm.013.023.65-.374-.001-.002-.65.376Zm1.321.956-.101.743.101-.743Zm.606.102-.203.722.203-.722Zm1.44 1.649.742-.104-.743.104Zm0 1.228.742.104-.743-.104Zm-1.44 1.649.203.722-.203-.722Zm-.606.102-.101-.743-.01.001.111.742Zm0 0 .075.746a.75.75 0 0 0 .036-.004l-.11-.742Zm0 0-.075-.746a.75.75 0 0 0-.026.003l.101.743Zm-1.321.956.649.376v-.001l-.65-.375Zm-.013.023.648.377.001-.002-.65-.375Zm-.17 1.625.695-.284-.694.284Zm.215.575.727-.185-.727.185Zm-.708 2.071.462.591-.462-.591Zm-1.064.614-.281-.695.281.695Zm-2.147-.422-.524.537.524-.537Zm-.391-.473-.593.459.593-.46Zm-1.49-.667v.75h.001l-.001-.75Zm-.014 0v.75-.75Zm-.013 0-.002.75h.001v-.75Zm-1.49.666-.592-.459.593.46Zm-.39.474.523.537-.524-.537Zm-2.148.422.281-.695-.281.695Zm-.93.352.776-1.284-.775 1.284Zm-.595-.375c.16.126.354.235.608.382l.75-1.299c-.296-.17-.377-.22-.436-.266l-.922 1.183Zm-.974-2.847a2.75 2.75 0 0 0 .974 2.847l.922-1.183a1.25 1.25 0 0 1-.442-1.294l-1.454-.37Zm.247-.674c-.11.271-.197.477-.247.674l1.454.37c.018-.071.052-.16.182-.477l-1.389-.567Zm-.123-.962c.2.345.232.697.123.962l1.389.567c.325-.794.16-1.638-.215-2.283l-1.297.754Zm-.016-.027.015.026 1.299-.751-.015-.026-1.299.75Zm-.771-.588c.283.039.572.241.77.586l1.3-.748c-.37-.645-1.018-1.208-1.867-1.324l-.203 1.486Zm-.708-.123c.197.055.417.083.708.123L50 13.241c-.34-.046-.433-.061-.505-.081l-.406 1.444Zm-1.979-2.267a2.75 2.75 0 0 0 1.98 2.267l.405-1.444a1.25 1.25 0 0 1-.899-1.03l-1.486.207Zm-.026-.718c0 .294-.002.516.026.718l1.486-.207c-.01-.074-.012-.169-.012-.51h-1.5Zm.026-.718c-.028.202-.026.425-.026.718h1.5c0-.342.002-.437.012-.51L47.11 10.9Zm1.98-2.267a2.75 2.75 0 0 0-1.98 2.267l1.486.208a1.25 1.25 0 0 1 .9-1.03l-.407-1.445Zm.707-.123c-.29.04-.511.068-.708.123l.406 1.444c.072-.02.166-.034.505-.08l-.203-1.487Zm.008 0 .186 1.487-.186-1.488Zm.762-.586c-.198.345-.487.548-.77.586L50 9.997c.849-.115 1.496-.678 1.868-1.324l-1.3-.748Zm.016-.027-.015.026 1.299.75.015-.025-1.299-.751Zm.124-.964c.109.266.077.618-.123.962l1.297.754c.375-.645.54-1.489.215-2.283l-1.389.567Zm-.247-.674c.05.198.136.403.247.674l1.389-.567c-.13-.317-.164-.405-.182-.477l-1.454.37Zm.974-2.847a2.75 2.75 0 0 0-.974 2.847l1.454-.37a1.25 1.25 0 0 1 .442-1.294l-.922-1.183Zm.608-.382c-.254.147-.447.256-.608.382l.922 1.183c.059-.046.14-.095.436-.266l-.75-1.299Zm.032-.017.687 1.333-.687-1.333Zm.603-.319c-.189.077-.38.19-.635.336l.75 1.3c.296-.172.38-.218.448-.246l-.563-1.39Zm2.953.58a2.75 2.75 0 0 0-2.953-.58l.563 1.39a1.25 1.25 0 0 1 1.342.264l1.048-1.074Zm.46.552c-.18-.232-.314-.41-.46-.552L54.582 4.35c.053.052.113.126.322.396l1.186-.918Zm.895.375c-.398.001-.719-.148-.895-.375l-1.186.918c.526.678 1.338.959 2.084.957l-.003-1.5Zm.014 0h-.013l.002 1.5H57l-.002-1.5Zm.016 0H57l-.002 1.5h.014l.002-1.5Zm.896-.376c-.176.228-.497.377-.896.376l-.003 1.5c.747.002 1.56-.279 2.085-.957l-1.186-.919Zm.46-.551c-.146.142-.28.32-.46.551l1.186.919c.21-.27.269-.345.322-.396l-1.047-1.074Zm2.953-.58a2.75 2.75 0 0 0-2.952.58l1.047 1.074a1.25 1.25 0 0 1 1.342-.264l.563-1.39Zm.635.336c-.254-.147-.446-.26-.635-.336l-.563 1.39c.069.028.152.074.448.245l.75-1.3Zm-.031-.017-.688 1.333.688-1.333Zm.64.399c-.161-.126-.355-.235-.609-.382l-.75 1.299c.296.17.378.22.436.266l.922-1.183Zm.973 2.847a2.75 2.75 0 0 0-.973-2.847l-.923 1.183c.391.305.565.813.443 1.294l1.453.37Zm-.247.674c.111-.271.197-.477.247-.674l-1.453-.37c-.019.071-.053.16-.182.477l1.388.567Zm.005-.013-1.398-.541 1.398.541Zm.118.978c-.2-.346-.232-.699-.123-.965l-1.388-.567c-.325.795-.16 1.64.214 2.285l1.297-.753Zm.014.023-.013-.022-1.298.75.012.023 1.299-.75Zm.773.59c-.283-.04-.573-.243-.772-.588l-1.3.748c.372.646 1.02 1.21 1.87 1.325l.202-1.486Zm.708.122c-.196-.055-.417-.083-.708-.123l-.202 1.486c.339.047.433.061.504.081l.406-1.444Zm1.979 2.267a2.75 2.75 0 0 0-1.979-2.267l-.406 1.444c.478.135.83.54.9 1.03l1.485-.207Zm.026.718c0-.293.002-.516-.026-.718l-1.486.208c.01.073.012.168.012.51h1.5Zm-.026.718c.028-.202.026-.424.026-.718h-1.5c0 .342-.002.437-.012.51l1.486.208Zm-1.979 2.267a2.75 2.75 0 0 0 1.979-2.267l-1.486-.207a1.25 1.25 0 0 1-.9 1.03l.407 1.444Zm-.708.123c.291-.04.512-.068.708-.123l-.406-1.444c-.071.02-.165.035-.504.08l.203 1.487Zm.01-.001-.222-1.484.222 1.484Zm-.036.004-.15-1.492.15 1.492Zm-.746.585c.199-.346.488-.55.772-.588l-.202-1.486c-.85.116-1.498.68-1.87 1.325l1.3.749Zm-.014.023.013-.022-1.299-.751-.012.022 1.298.751Zm-.124.966c-.109-.266-.077-.62.123-.964l-1.297-.754c-.375.646-.54 1.49-.214 2.286l1.388-.568Zm.247.674c-.05-.197-.136-.402-.247-.674l-1.388.568c.129.316.163.405.182.477l1.453-.37Zm-.973 2.847a2.75 2.75 0 0 0 .973-2.847l-1.453.37a1.25 1.25 0 0 1-.443 1.295l.922 1.182Zm-.609.382c.254-.146.448-.256.608-.382l-.922-1.182c-.058.045-.14.094-.436.265l.75 1.3Zm-.635.336c.19-.076.38-.189.635-.336l-.75-1.299c-.296.171-.38.217-.448.245l.563 1.39Zm-2.953-.58a2.75 2.75 0 0 0 2.953.58l-.563-1.39a1.25 1.25 0 0 1-1.342-.264l-1.047 1.074Zm-.46-.551c.18.232.314.409.46.551l1.048-1.074c-.053-.051-.113-.126-.322-.396l-1.186.919Zm-.896-.376c.399-.001.72.148.896.376l1.186-.919c-.526-.678-1.338-.959-2.085-.957l.003 1.5Zm-.014 0h.014l-.002-1.5h-.014l.002 1.5Zm-.015 0H57l.002-1.5h-.013l-.002 1.5Zm-.896.376c.176-.228.497-.377.895-.376l.003-1.5c-.746-.002-1.558.28-2.083.957l1.185.919Zm-.46.551c.146-.143.28-.32.46-.551l-1.185-.919c-.21.27-.27.345-.322.396l1.047 1.074Zm-2.953.58a2.75 2.75 0 0 0 2.953-.58l-1.047-1.074a1.25 1.25 0 0 1-1.343.264l-.563 1.39Zm-.635-.336c.255.147.446.26.635.336l.563-1.39c-.068-.028-.152-.074-.448-.245l-.75 1.3Zm6.707-8.588A1.75 1.75 0 0 1 57 13.37v1.5a3.25 3.25 0 0 0 3.25-3.25h-1.5ZM57 9.87c.967 0 1.75.784 1.75 1.75h1.5A3.25 3.25 0 0 0 57 8.37v1.5Zm-1.75 1.75c0-.966.784-1.75 1.75-1.75v-1.5a3.25 3.25 0 0 0-3.25 3.25h1.5ZM57 13.37a1.75 1.75 0 0 1-1.75-1.75h-1.5A3.25 3.25 0 0 0 57 14.87v-1.5ZM41.52 31.594l-.693-.284.694.284Zm.813 2.376.376-.65-.376.65Zm-.947-3.675-.65.376.001.001.649-.377Zm-.011-.019-.65.375.65-.375Zm-1.058-.765.102-.743-.102.743Zm0-3.784-.1-.743.1.743Zm1.058-.765-.65-.376v.002l.65.374Zm.011-.02-.648-.377-.001.002.649.375Zm.135-1.298.694-.284-.694.284Zm.813-2.376.375.65-.375-.65Zm2.464.484.593-.459-.593.46Zm1.191.534v-.75.75Zm.011 0v-.75.75Zm.01 0 .002-.75-.001.75Zm1.193-.534-.593-.459.593.46Zm2.464-.484-.375.65.375-.65Zm.813 2.376-.695-.284.695.284Zm.135 1.3.649-.376v-.001l-.65.377Zm.011.02.65-.375v-.001l-.65.375Zm1.055.763.102-.743-.102.743Zm0 3.784-.101-.743.101.743Zm-1.055.764.65.375v-.001l-.65-.374Zm-.011.019.648.377.001-.002-.649-.375Zm-.135 1.3.694-.284-.694.284Zm-.813 2.376.375.65-.375-.65Zm-2.464-.484.593-.46-.593.46Zm-1.192-.534v.75h.002l-.002-.75Zm-.011 0v.75-.75Zm-.01 0-.002.75.001-.75Zm-1.192.534-.593-.46.593.46Zm-3.971-2.176a2.66 2.66 0 0 0 1.132 3.31l.75-1.3a1.16 1.16 0 0 1-.494-1.442l-1.388-.568Zm-.09-.638c.143.246.155.479.09.638l1.388.568c.281-.69.137-1.413-.18-1.96l-1.298.754Zm-.012-.02.011.019 1.299-.751-.011-.02-1.299.752Zm-.509-.398c.17.023.367.15.509.396l1.3-.748c-.315-.547-.87-1.034-1.606-1.134l-.203 1.486Zm-2.3-2.635a2.66 2.66 0 0 0 2.3 2.635l.203-1.486a1.16 1.16 0 0 1-1.003-1.149h-1.5Zm2.3-2.635a2.66 2.66 0 0 0-2.3 2.635h1.5c0-.58.428-1.07 1.003-1.149l-.203-1.486Zm.509-.396c-.142.246-.338.373-.509.396l.203 1.486c.736-.1 1.29-.587 1.606-1.134l-1.3-.748Zm.012-.021-.012.02 1.299.75.011-.02-1.298-.75Zm.09-.639c.065.16.053.392-.09.637l1.297.754c.318-.546.463-1.27.181-1.959l-1.388.568Zm1.132-3.31a2.66 2.66 0 0 0-1.132 3.31l1.388-.568a1.16 1.16 0 0 1 .494-1.442l-.75-1.3Zm3.432.675a2.66 2.66 0 0 0-3.432-.674l.75 1.299a1.16 1.16 0 0 1 1.496.294l1.186-.919Zm.597.243c-.284 0-.491-.106-.597-.243l-1.186.919c.455.587 1.154.825 1.786.824l-.003-1.5Zm.011 0h-.01l.001 1.5H46v-1.5Zm.013 0H46l-.002 1.5h.011l.002-1.5Zm.598-.243c-.106.137-.314.243-.598.243l-.003 1.5c.633.001 1.331-.237 1.787-.824l-1.186-.919Zm3.432-.674a2.66 2.66 0 0 0-3.432.674l1.186.919a1.16 1.16 0 0 1 1.496-.294l.75-1.3Zm1.132 3.309a2.66 2.66 0 0 0-1.132-3.31l-.75 1.3c.502.29.713.906.493 1.442l1.389.568Zm.09.639c-.144-.246-.156-.48-.09-.639l-1.389-.568c-.281.69-.136 1.414.181 1.96l1.297-.753Zm.011.02-.011-.019-1.299.75.012.02 1.298-.75Zm.508.397c-.17-.023-.365-.149-.507-.395l-1.3.748c.314.547.868 1.033 1.604 1.133l.203-1.486Zm2.3 2.635a2.66 2.66 0 0 0-2.3-2.635l-.203 1.486a1.16 1.16 0 0 1 1.003 1.149h1.5Zm-2.3 2.635a2.66 2.66 0 0 0 2.3-2.635h-1.5c0 .58-.429 1.07-1.003 1.149l.203 1.486Zm-.507.395c.142-.246.337-.372.507-.395l-.203-1.486c-.736.1-1.29.587-1.604 1.133l1.3.748Zm-.012.02.011-.019-1.298-.75-.011.019 1.298.75Zm-.09.641c-.065-.16-.053-.393.09-.64l-1.297-.753c-.318.547-.463 1.272-.181 1.96l1.388-.567Zm-1.132 3.31a2.66 2.66 0 0 0 1.132-3.31l-1.388.568a1.16 1.16 0 0 1-.494 1.442l.75 1.3Zm-3.432-.675a2.66 2.66 0 0 0 3.432.674l-.75-1.299a1.16 1.16 0 0 1-1.496-.294l-1.186.919Zm-.597-.243c.283 0 .491.106.597.243l1.186-.919c-.455-.587-1.154-.825-1.786-.824l.003 1.5Zm-.012 0h.01v-1.5h-.012l.002 1.5Zm-.012 0h.01l.002-1.5h-.011l-.002 1.5Zm-.598.243c.105-.137.313-.243.597-.243l.003-1.5c-.633 0-1.331.237-1.786.824l1.186.919Zm-3.432.674a2.66 2.66 0 0 0 3.431-.674l-1.185-.919a1.16 1.16 0 0 1-1.496.294l-.75 1.3Zm5.292-7c0 .69-.56 1.25-1.25 1.25v1.5a2.75 2.75 0 0 0 2.75-2.75h-1.5ZM46 26.37c.69 0 1.25.56 1.25 1.25h1.5A2.75 2.75 0 0 0 46 24.87v1.5Zm-1.25 1.25c0-.69.56-1.25 1.25-1.25v-1.5a2.75 2.75 0 0 0-2.75 2.75h1.5ZM46 28.87c-.69 0-1.25-.56-1.25-1.25h-1.5A2.75 2.75 0 0 0 46 30.37v-1.5ZM24.365 21.38l.556-.503-.556.504Zm1.134.765-.375.65.375-.65Zm-1.647-2.265.748.059-.748-.059Zm.428-1.299-.694-.284.694.284Zm-.203-1.95-.649.376.001.002.649-.377Zm-.016-.027-.65.374.001.002.65-.376Zm-1.584-1.147.101-.743-.1.743Zm-1.339-.279-.323.677.323-.677Zm-1.043-1.194.715-.23-.715.23Zm0-2.73.715.23-.715-.23Zm1.043-1.194-.323-.676.323.676Zm1.34-.278.1.743-.1-.743Zm1.583-1.148-.649-.375v.001l.65.374Zm.018-.03-.648-.377-.001.002.649.375Zm.203-1.947-.712.237a.709.709 0 0 0 .017.047l.695-.284Zm0 0 .711-.237a.707.707 0 0 0-.017-.047l-.694.284Zm-.428-1.299-.748.059.748-.059Zm.513-1.5-.556-.504.556.504Zm1.134-.765.375.65a.733.733 0 0 0 .04-.026l-.415-.624Zm0 0-.363-.656a.753.753 0 0 0-.053.032l.416.624Zm0 0 .362.657a.996.996 0 0 0 .013-.007l-.375-.65Zm1.229-.6.159.733-.159-.732Zm1.556.306.424-.618-.424.618Zm.91 1.02-.592.46.593-.46Zm1.788.8v-.75h-.001l.001.75Zm.016 0v-.75.75Zm.015 0 .002-.75h-.001v.75Zm1.788-.8.593.46-.593-.46Zm.911-1.02-.424-.618.424.618Zm1.556-.306-.159.733.159-.733Zm1.23.6-.376.65.375-.65Zm1.133.765-.555.504.555-.504Zm.513 1.5.748.058-.748-.058Zm-.428 1.299-.694-.284a.747.747 0 0 0-.023.063l.717.22Zm0 0 .694.284a.712.712 0 0 0 .023-.064l-.717-.22Zm.203 1.947.65-.375-.002-.002-.648.377Zm.017.03.65-.374V8.26l-.65.375Zm1.585 1.148-.101.743.1-.743Zm1.339.278-.323.677.323-.677Zm1.043 1.195-.715.229.715-.23Zm0 2.729-.715-.23.715.23Zm-1.043 1.194.323.677-.323-.677Zm-1.34.28-.1-.744.1.743Zm-1.584 1.146.65.376v-.002l-.65-.374Zm-.016.028.649.377v-.002l-.648-.375Zm-.202 1.95-.694.283.694-.283Zm.428 1.299-.748.058.748-.058Zm-.513 1.5-.556-.504.556.504Zm-2.363 1.364.158.733-.158-.733Zm-1.556-.305-.425.618.425-.618Zm-.911-1.02.593-.46a.562.562 0 0 0-.017-.02l-.576.48Zm0 0-.593.459a.844.844 0 0 0 .016.02l.577-.48Zm-1.788-.8v.75h.001l-.002-.75Zm-.017 0v.75-.75Zm-.017 0-.002.75h.001v-.75Zm-1.788.8-.593-.46.593.46Zm-.91 1.02.424.618-.425-.619Zm-1.556.305.159-.733-.16.733Zm-2.919-.86c.308.34.746.582 1.314.91l.75-1.3c-.663-.382-.842-.495-.953-.619l-1.111 1.009Zm-.705-2.063a2.75 2.75 0 0 0 .705 2.063l1.11-1.009a1.25 1.25 0 0 1-.32-.937l-1.495-.117Zm.481-1.524c-.248.607-.446 1.067-.481 1.524l1.495.117c.013-.166.084-.365.374-1.074l-1.388-.567Zm-.157-1.29c.258.445.309.918.157 1.29l1.388.567c.369-.901.185-1.865-.248-2.61l-1.297.754Zm-.017-.028.016.027 1.299-.75-.016-.028-1.299.75Zm-1.036-.78c.397.054.78.334 1.035.778l1.3-.748c-.428-.745-1.17-1.385-2.133-1.516l-.202 1.486Zm-1.561-.345c.414.198.91.257 1.56.345l.203-1.486c-.759-.104-.967-.14-1.117-.213l-.646 1.354Zm-1.434-1.643a2.75 2.75 0 0 0 1.434 1.643l.646-1.354a1.25 1.25 0 0 1-.651-.746l-1.429.457Zm-.131-1.593c0 .656-.009 1.157.131 1.594l1.429-.458c-.051-.159-.06-.37-.06-1.136h-1.5Zm.131-1.593c-.14.437-.131.937-.131 1.593h1.5c0-.766.009-.977.06-1.135l-1.429-.458Zm1.434-1.642a2.75 2.75 0 0 0-1.434 1.642l1.429.458a1.25 1.25 0 0 1 .651-.747l-.646-1.353Zm1.56-.346c-.65.089-1.146.148-1.56.346l.646 1.353c.15-.072.358-.109 1.117-.212l-.202-1.487Zm1.037-.778c-.256.445-.64.724-1.036.778l.202 1.487c.963-.132 1.705-.772 2.134-1.516l-1.3-.749Zm.018-.031-.018.03 1.299.751.017-.03-1.298-.751Zm.157-1.288c.152.371.101.843-.156 1.286l1.296.754c.433-.744.617-1.707.249-2.608l-1.389.568Zm-.017-.047 1.423-.474-1.423.474Zm-.464-1.477c.036.457.233.917.481 1.524l1.389-.568c-.29-.709-.362-.907-.375-1.073l-1.495.117Zm.705-2.063a2.75 2.75 0 0 0-.705 2.063L24.6 5.3a1.25 1.25 0 0 1 .321-.938l-1.11-1.008Zm1.315-.91c-.568.328-1.006.57-1.315.91l1.111 1.008c.112-.123.29-.236.954-.62l-.75-1.298Zm-.041.025.832 1.248-.832-1.248Zm.053-.032.725 1.313-.725-1.313Zm1.433-.676c-.448.097-.877.355-1.445.683l.75 1.299c.663-.383.85-.481 1.013-.517l-.318-1.465Zm2.14.42a2.75 2.75 0 0 0-2.14-.42l.318 1.465a1.25 1.25 0 0 1 .972.192l.85-1.237Zm1.079 1.18c-.402-.52-.701-.92-1.08-1.18l-.849 1.237c.137.094.274.255.743.86l1.186-.918Zm1.193.508c-.513.001-.947-.191-1.193-.509l-1.186.919c.595.768 1.52 1.092 2.382 1.09l-.003-1.5Zm.016 0h-.016l.002 1.5H31l-.002-1.5Zm.017 0h-.015l-.002 1.5h.016l.001-1.5Zm1.194-.51c-.246.319-.68.511-1.193.51l-.003 1.5c.861.002 1.787-.322 2.382-1.09l-1.186-.92Zm1.08-1.178c-.379.26-.678.66-1.08 1.179l1.186.918c.47-.605.605-.767.743-.86l-.85-1.237Zm2.139-.42a2.75 2.75 0 0 0-2.14.42l.85 1.236a1.25 1.25 0 0 1 .972-.19l.318-1.467Zm1.445.682c-.568-.328-.997-.586-1.445-.683l-.318 1.466c.163.035.35.133 1.013.516l.75-1.299Zm1.314.91c-.308-.34-.746-.582-1.314-.91l-.75 1.3c.664.382.842.496.954.619l1.11-1.009Zm.706 2.063a2.75 2.75 0 0 0-.706-2.063l-1.11 1.009c.231.255.347.594.32.937l1.496.117Zm-.481 1.525c.248-.608.445-1.067.481-1.525L37.4 5.3c-.013.166-.085.365-.375 1.074l1.389.568Zm.022-.064-1.434-.44 1.434.44Zm.134 1.35c-.257-.443-.308-.915-.157-1.286l-1.388-.568c-.368.9-.184 1.864.249 2.608l1.296-.754Zm.019.032-.018-.03-1.298.75.017.031 1.299-.751Zm1.036.78c-.397-.055-.78-.334-1.035-.779l-1.3.749c.428.744 1.17 1.384 2.133 1.516l.202-1.487Zm1.561.345c-.414-.198-.91-.257-1.56-.346l-.203 1.487c.759.103.967.14 1.117.212l.646-1.353Zm1.434 1.642a2.75 2.75 0 0 0-1.434-1.642l-.646 1.353c.31.149.546.419.651.747l1.429-.458Zm.131 1.593c0-.656.009-1.156-.131-1.593l-1.429.458c.051.158.06.369.06 1.135h1.5Zm-.131 1.594c.14-.437.131-.938.131-1.594h-1.5c0 .767-.009.978-.06 1.136l1.429.457Zm-1.434 1.642a2.75 2.75 0 0 0 1.434-1.643l-1.429-.457a1.25 1.25 0 0 1-.651.746l.646 1.354Zm-1.56.345c.65-.088 1.146-.147 1.56-.345l-.646-1.354c-.15.072-.358.11-1.117.213l.202 1.486Zm-1.036.778c.255-.444.638-.724 1.035-.778l-.202-1.486c-.963.131-1.705.771-2.133 1.516l1.3.748Zm-.017.03.016-.028-1.299-.751-.016.027 1.299.751Zm-.158 1.29c-.152-.372-.101-.845.157-1.29l-1.297-.753c-.433.745-.617 1.71-.248 2.61l1.388-.567Zm.481 1.524c-.035-.457-.233-.917-.481-1.524l-1.388.567c.29.71.361.908.374 1.074l1.495-.117Zm-.705 2.063a2.75 2.75 0 0 0 .706-2.063l-1.496.117a1.25 1.25 0 0 1-.32.938l1.11 1.008Zm-1.314.91c.568-.328 1.006-.57 1.314-.91l-1.11-1.008c-.112.123-.29.236-.954.62l.75 1.298Zm-1.446.683c.449-.097.878-.355 1.446-.683l-.75-1.299c-.664.383-.851.481-1.014.516l.318 1.466Zm-2.139-.42a2.75 2.75 0 0 0 2.14.42l-.319-1.466a1.25 1.25 0 0 1-.972-.19l-.849 1.236Zm-1.08-1.18c.403.52.702.92 1.08 1.18l.85-1.237c-.138-.094-.274-.255-.743-.86l-1.186.918Zm.017.021 1.153-.96-1.153.96Zm-1.21-.53c.513 0 .947.192 1.194.51l1.185-.919c-.595-.768-1.52-1.093-2.382-1.09l.003 1.5Zm-.017 0h.016l-.001-1.5h-.017l.002 1.5Zm-.019 0H31l.002-1.5h-.017l-.002 1.5Zm-1.194.51c.246-.318.68-.51 1.193-.51l.003-1.5c-.86-.002-1.786.322-2.382 1.09l1.186.92Zm-1.08 1.179c.38-.26.679-.661 1.08-1.18l-1.186-.918c-.469.605-.605.767-.742.861l.849 1.237Zm-2.138.42a2.75 2.75 0 0 0 2.139-.42l-.85-1.237a1.25 1.25 0 0 1-.972.191l-.317 1.466Zm-1.446-.683c.568.328.997.586 1.446.683l.317-1.466c-.162-.035-.35-.133-1.013-.516l-.75 1.299Zm8.126-10.176A2.25 2.25 0 0 1 31 14.87v1.5a3.75 3.75 0 0 0 3.75-3.75h-1.5ZM31 10.37a2.25 2.25 0 0 1 2.25 2.25h1.5A3.75 3.75 0 0 0 31 8.87v1.5Zm-2.25 2.25A2.25 2.25 0 0 1 31 10.37v-1.5a3.75 3.75 0 0 0-3.75 3.75h1.5ZM31 14.87a2.25 2.25 0 0 1-2.25-2.25h-1.5A3.75 3.75 0 0 0 31 16.37v-1.5Z"/></svg>