<svg width="174" height="37" viewBox="0 0 174 37" fill="none" xmlns="http://www.w3.org/2000/svg">
<path d="M154.541 12.866L154.601 12.5631L154.719 12.1997L154.897 11.9573L155.016 11.6544L155.313 11.4727L155.61 11.291L155.966 11.1698H156.619L156.916 11.291L157.272 11.4727L157.45 11.6544L157.687 11.9573L157.865 12.1997L157.984 12.5631V13.2901L157.865 13.593L157.687 13.9565L157.45 14.1382L157.272 14.3806L156.916 14.5623L156.619 14.6229L156.263 14.6835H155.966L155.61 14.5623L155.313 14.3806L155.016 14.1382L154.897 13.9565L154.719 13.593L154.601 13.2901L154.541 12.866ZM145.163 32.07L145.756 32.5546L146.35 33.0393L146.944 33.4633L147.537 33.8874L148.249 34.2509L148.843 34.6144L149.555 34.9173L150.327 35.1596L150.98 35.4019L151.751 35.6442L152.464 35.826L153.235 36.0077L153.948 36.1289H154.719L155.491 36.25H157.034L157.865 36.1894L158.578 36.1289L159.349 36.0077L160.062 35.826L160.833 35.6442L161.545 35.4019L162.258 35.1596L163.029 34.9173L163.682 34.6144L164.276 34.2509L165.048 33.8874L165.641 33.4633L166.235 33.0393L166.828 32.5546L167.422 32.07L165.285 29.7679L164.513 30.4343L163.623 31.0401L162.733 31.6459L161.842 32.07L160.893 32.4941L159.943 32.7969L158.874 33.0393L157.806 33.1604V20.7415H160.774V18.3183H157.806V16.5009L158.34 16.2585L158.815 15.9556L159.231 15.5922L159.587 15.1681L159.883 14.6835L160.062 14.1382L160.24 13.5324V12.1391L160.062 11.715L160.002 11.4121L159.765 10.9881L159.587 10.6852L159.349 10.3823L159.112 10.0794L158.815 9.83704L158.459 9.59472L158.162 9.41297L157.865 9.29181L157.45 9.11007L157.094 8.98891H155.432L155.076 9.11007L154.719 9.29181L154.423 9.41297L154.066 9.59472L153.77 9.83704L153.414 10.0794L153.235 10.3823L152.939 10.6852L152.82 10.9881L152.582 11.4121L152.464 11.715L152.404 12.1391L152.345 12.5631V13.593L152.464 14.1988L152.701 14.6835L152.939 15.1681L153.354 15.5922L153.77 15.9556L154.245 16.2585L154.779 16.5009V18.3183H151.692V20.7415H154.66V33.1604L153.651 33.0393L152.582 32.7969L151.633 32.4941L150.683 32.07L149.733 31.5853L148.843 31.0401L148.012 30.4343L147.24 29.7679L145.163 32.07ZM138.812 18.3183L138.871 17.4701L138.93 16.5614L139.049 15.7133L139.227 14.8046L139.405 14.0171L139.643 13.1084L139.88 12.3208L140.236 11.4727L140.592 10.7457L140.948 9.9582L141.364 9.29181L141.839 8.50427L142.314 7.89847L142.907 7.17151L143.382 6.5657L143.976 5.9599L144.569 5.3541L145.163 4.80888L145.816 4.26365L146.528 3.77901L147.3 3.29437L147.953 2.93089L148.724 2.50683L149.496 2.14335L150.327 1.84044L151.099 1.53754L151.93 1.3558L152.82 1.11348L153.651 0.992321L154.482 0.87116L155.432 0.81058L156.263 0.75H157.153L158.043 0.87116L158.934 0.992321L159.765 1.11348L160.596 1.3558L161.486 1.53754L162.258 1.84044L163.029 2.14335L163.801 2.50683L164.573 2.93089L165.285 3.29437L166.057 3.77901L166.71 4.26365L167.303 4.86946L168.015 5.3541L168.609 5.9599L169.203 6.5657L169.677 7.17151L170.271 7.83789L170.687 8.50427L171.161 9.29181L171.577 9.9582L171.992 10.7457L172.349 11.4727L172.645 12.3208L172.942 13.1084L173.12 14.0171L173.358 14.8046L173.536 15.7133L173.654 16.5614V17.4701L173.714 18.3183V19.227L173.654 19.9539L173.536 20.8021L173.417 21.5896L173.239 22.3771L173.061 23.1041L172.823 23.8917L172.586 24.6186L172.289 25.3456L171.992 26.0725L171.577 26.7389L171.221 27.4053L170.865 28.0111L170.449 28.7381L169.974 29.3439L169.499 29.9497L167.244 27.6476L167.956 26.6783L168.609 25.5879L169.203 24.4975L169.618 23.2859L169.974 22.0742L170.212 20.8626L170.39 19.651V16.8643L170.271 16.198L170.152 15.471L170.034 14.744L169.796 14.0777L169.559 13.4113L169.321 12.8055L169.084 12.0785L168.728 11.4727L168.372 10.8669L168.015 10.2611L167.6 9.6553L167.184 9.11007L166.769 8.62543L166.294 8.08021L165.76 7.59557L165.285 7.17151L164.751 6.74744L164.157 6.2628L163.564 5.89932L162.97 5.59642L162.377 5.23294L161.783 4.93004L161.189 4.68772L160.477 4.4454L159.824 4.26365L159.112 4.14249L158.459 3.96075L157.747 3.90017H156.975L156.263 3.77901L155.55 3.83959L154.838 3.90017H154.066L153.354 4.14249L152.701 4.26365L152.108 4.4454L151.336 4.68772L150.742 4.93004L150.089 5.23294L149.496 5.59642L148.902 5.89932L148.309 6.2628L147.715 6.74744L147.24 7.17151L146.765 7.59557L146.172 8.08021L145.756 8.62543L145.282 9.11007L144.866 9.71588L144.51 10.2611L144.154 10.8669L143.738 11.4727L143.441 12.0785L143.204 12.7449L142.907 13.3507L142.729 14.0777L142.492 14.744L142.314 15.471L142.195 16.198L142.136 16.8643L142.076 17.6519V19.651L142.254 20.8626L142.551 22.0742L142.848 23.2859L143.323 24.4975L143.916 25.5879L144.51 26.6783L145.282 27.6476L143.026 29.9497L142.551 29.3439L142.076 28.7381L141.661 28.0717L141.245 27.4659L140.889 26.7389L140.533 26.0725L140.177 25.3456L139.939 24.6186L139.702 23.8917L139.464 23.1041L139.227 22.3771L139.108 21.5896L138.99 20.8021L138.871 19.9539V19.227L138.812 18.3183ZM123.972 23.9522V12.9872H126.821V21.4684H131.689V23.8917L123.972 23.9522ZM113.822 23.9522H121.835V21.4684H116.493V19.5299H120.886V17.2884H116.493V15.2893H121.538V12.866H113.822V23.9522ZM101.535 18.5V17.7125L101.654 17.1067L101.772 16.622L101.891 16.0162L102.129 15.5316L102.366 15.0469L102.663 14.5623L102.96 14.1988L103.316 13.8353L103.731 13.5324L104.206 13.2295L104.622 12.9872L105.156 12.8055L105.69 12.6843L106.224 12.5631H106.818L107.708 12.6237L108.124 12.6843L108.539 12.8055L108.895 12.9872L109.311 13.1084L109.608 13.2901L109.904 13.5324L110.261 13.7748L110.498 14.0777L110.795 14.3806L110.973 14.6835L111.151 15.1075L111.329 15.471L111.448 15.8951L111.507 16.3191H108.658L108.539 15.9556L108.42 15.6527L108.242 15.471L108.005 15.2287L107.768 15.1075L107.471 15.0469L107.174 14.9864H106.343L106.046 15.1075L105.809 15.2287L105.571 15.4104L105.334 15.5922L105.037 15.9556L104.8 16.5009L104.562 17.0461L104.443 17.6519V19.1058L104.622 19.7116L104.8 20.3174L105.096 20.8626L105.453 21.2867L105.69 21.4079L105.868 21.5896L106.165 21.7108H106.402L106.758 21.8319H107.649L108.064 21.7108L108.48 21.529L108.895 21.3473V19.8934H106.937V17.7125H111.566V22.6801L111.032 23.0435L110.439 23.407L109.904 23.6493L109.311 23.8917L108.717 24.0128L108.242 24.1946L107.649 24.2551H106.58L105.987 24.134L105.393 24.0128L104.8 23.8917L104.384 23.6493L103.909 23.407L103.434 23.0435L103.078 22.7406L102.781 22.3166L102.425 21.8925L102.188 21.4079L101.95 20.8626L101.832 20.2568L101.713 19.651L101.654 19.0452L101.535 18.5ZM94.1153 19.9539L95.4805 15.7739L96.8457 20.0145L94.1153 19.9539ZM89.8415 23.8917H92.8094L93.2843 22.256H97.6174L98.2109 23.8917H101.119L97.0238 12.9266H93.9372L89.8415 23.8917ZM79.0978 23.8917H81.7095V17.349L85.5084 23.9522H88.4763V12.9872H85.8052V19.4087L81.947 12.9872H78.9791L79.0978 23.8917ZM66.9295 19.5299V18.1365H71.1439V13.6536H72.8059V18.1365H77.0796V19.5299H72.8059V23.9522H71.1439V19.5299H66.9295ZM57.6103 23.9522H65.6236V21.4684H60.2814V19.5299H64.6739V17.2884H60.2814V15.2893H65.3268V12.866H57.6103V23.9522ZM45.6201 23.9522H48.2912V17.349L52.0307 23.9522H55.058V12.9872H52.3869V19.4087L48.5286 12.9872H45.5607L45.6201 23.9522ZM33.5112 23.9522H36.3603V19.7116H40.2186V23.9522H43.0677V12.9872H40.2186V17.1067H36.3603V12.9872H33.5112V23.9522ZM23.361 23.9522H31.3743V21.4684H26.0321V19.5299H30.4246V17.2884H26.0321V15.2893H31.0775V12.866H23.361V23.9522ZM11.5488 19.4087V20.7415L11.7863 21.2867L11.905 21.7713L12.1424 22.1954L12.3205 22.5589L12.6173 22.983L12.9141 23.2859L13.2702 23.5888L13.6264 23.7705L13.9825 23.9522L14.398 24.134L14.8135 24.2551L15.3477 24.3157L15.7632 24.3763H17.1285L17.6033 24.2551L18.0188 24.134L18.375 23.9522L18.8498 23.7705L19.206 23.5888L19.5028 23.2859L19.8589 22.983L20.0963 22.5589L20.3338 22.1954L20.5118 21.7713L20.6899 21.2867L20.8086 20.7415L20.9273 20.1357V12.9872H18.0188V20.3174L17.8407 20.7415L17.7814 21.0444L17.544 21.3473L17.3065 21.529L17.0097 21.7108L16.6536 21.8319H15.7632L15.3477 21.7108L15.0509 21.529L14.8135 21.3473L14.6354 21.0444L14.4574 20.7415V20.3174L14.3386 19.8934V12.9872H11.6082L11.5488 19.4087ZM0.923828 23.9522H3.71364V20.8626L4.72271 19.651L7.21573 23.8917H10.5398L6.62216 17.5307L10.0649 13.0478H6.74087L3.77299 16.9249V13.0478H0.923828V23.9522Z" fill="#003369"/>
</svg>
