<svg width="160" height="27" viewBox="0 0 160 27" fill="none" xmlns="http://www.w3.org/2000/svg">
<path d="M12.0003 22.2682H5.61457V4.7321H12.0003C16.4977 4.7321 18.9092 7.57423 18.9092 13.4184C18.9092 18.4921 17.3028 22.2283 12.0003 22.2682V22.2682ZM14.7741 13.7855C14.7741 10.2528 14.4118 7.49427 10.6353 7.49427H9.78997V19.4225H11.2757C13.486 19.4225 14.7741 17.638 14.7741 13.7818V13.7855ZM27.5052 22.2646H20.7572V4.7321H27.8272C31.161 4.7321 32.9687 6.11319 32.9687 9.40235C32.9687 11.1069 31.5635 12.3244 30.0375 13.0949C32.1673 13.7019 33.6128 15.003 33.6128 17.1946C33.6128 20.7672 30.6413 22.2682 27.5052 22.2682V22.2646ZM24.8924 11.6702H26.3379C27.7028 11.6702 28.7055 11.0633 28.7055 9.55863C28.7055 7.89406 27.4174 7.44703 26.0524 7.44703H24.8887V11.6702H24.8924ZM29.1885 17.1074C29.1885 15.3228 28.0651 14.9158 26.4184 14.9158H24.8887V19.4189H26.3745C27.8602 19.4189 29.1849 18.9318 29.1849 17.1074H29.1885ZM34.5789 0.105469H4.20569C2.11982 0.105469 0.392578 1.7664 0.392578 3.91799V23.0387C0.392578 25.1903 2.11982 26.8949 4.20569 26.8949H34.5789C36.6281 26.8949 38.3554 25.1903 38.3554 23.0387V3.91799C38.3554 1.7664 36.6281 0.105469 34.5789 0.105469V0.105469ZM35.5816 23.0387C35.5816 23.6493 35.179 24.1363 34.5789 24.1363H4.20569C3.60555 24.1363 3.16276 23.6493 3.16276 23.0387V3.91799C3.16276 3.30741 3.60555 2.82039 4.20569 2.82039H34.5789C35.179 2.82039 35.5816 3.30741 35.5816 3.91799V23.0387Z" fill="#ED1C24"/>
<path d="M156.722 15.6063C156.305 14.9194 155.869 14.4905 155.393 14.1998C157.329 13.5638 158.197 12.4516 158.197 10.4999C158.197 7.53787 156.385 6.09863 152.656 6.09863H146.999V20.9635H150.805V15.0975H151.288C152.144 15.0975 152.455 15.3265 153.125 16.464L155.77 20.9635H159.924L156.722 15.6027V15.6063ZM150.805 8.9662H152.539C154.021 8.9662 154.493 9.3878 154.493 10.6962C154.493 12.0046 153.966 12.4807 152.539 12.4807H150.805V8.96257V8.9662ZM137.572 17.9469V14.8322H142.637V11.9573H137.572V9.10431H143.991V6.09136H133.774V20.9635H144.298L144.565 17.9505H137.576L137.572 17.9469ZM125.975 13.1022C126.118 12.9168 131.545 6.09863 131.545 6.09863H127.593C127.593 6.09863 123.227 11.8047 122.733 12.4444V6.095H118.931V20.9635H122.733V14.6759C123.227 15.3228 127.516 20.9635 127.516 20.9635H132.035C132.035 20.9635 126.122 13.2875 125.979 13.0986L125.975 13.1022ZM112.494 6.095V14.2216C111.989 13.5529 106.368 6.095 106.368 6.095H103.177V20.9635H106.405V11.9755C106.913 12.6442 113.189 20.9635 113.189 20.9635H115.722V6.095H112.494V6.095ZM93.7469 17.9505V14.8358H98.8152V11.961H93.7469V9.10795H100.166V6.095H89.9448V20.9635H100.473L100.736 17.9505H93.7506H93.7469ZM82.9333 6.095V11.8628H77.6784V6.095H73.8763V20.9635H77.6784V14.8358H82.9333V20.9635H86.7355V6.095H82.9333V6.095ZM71.1317 17.598C69.7265 18.125 68.8116 18.3103 67.626 18.3103C65.1632 18.3103 64.2044 16.9874 64.2044 13.5783C64.2044 10.1692 65.1376 8.70452 67.6479 8.70452C68.8116 8.70452 69.8289 8.91169 71.0512 9.39143L71.2598 9.47502V6.39666L71.161 6.35668C70.0156 5.93872 68.8702 5.74609 67.5491 5.74609C65.4998 5.74609 63.7543 6.32397 62.5028 7.42884C60.9366 8.80265 60.2083 10.758 60.2083 13.5928C60.2083 15.9952 60.7023 17.7143 61.7709 18.9972C63.0151 20.4728 64.9729 21.2542 67.432 21.2542C68.808 21.2542 70.1327 20.9744 71.2525 20.4401L71.3403 20.4001V17.5144L71.1354 17.5907L71.1317 17.598ZM54.8143 12.0446L54.5765 11.9428C53.0432 11.2813 52.9846 11.2559 52.6187 10.9979C52.1174 10.6417 51.949 10.3655 51.949 9.90389C51.949 9.08977 52.6224 8.67545 53.958 8.67545C55.14 8.67545 56.0037 8.87898 57.3723 9.48593L57.5882 9.58042V6.47298L57.4857 6.433C56.1683 5.94962 55.0632 5.74609 53.797 5.74609C50.3901 5.74609 48.4396 7.39249 48.4396 10.2673C48.4396 12.4298 49.4094 13.6728 51.9088 14.6977C54.5618 15.8062 54.8143 16.0861 54.8143 16.8965C54.8143 17.8415 54.0202 18.3249 52.4613 18.3249C51.1147 18.3249 50.0974 18.0559 48.5787 17.3L48.3555 17.1873V20.2984L48.4433 20.342C49.8558 20.9925 51.0891 21.2542 52.6992 21.2542C56.4245 21.2542 58.4774 19.6078 58.4774 16.6167C58.4774 14.3488 57.5516 13.1967 54.807 12.0482" fill="#231F20"/>
</svg>
