<svg xmlns="http://www.w3.org/2000/svg" width="85" height="85" fill="none"><g clip-path="url(#a)"><path fill="#3EC227" fill-rule="evenodd" d="M72.084 8.08c-1.757 0-3.78.636-5.466 1.339-.982.41-1.335.565-1.744.944-.318.295-.69.854-.84 1.26-.19.518-.2 1.009-.2 2.331v2.074c0 2.344.008 3.364.357 4.435.27.83.929 1.967 1.514 2.615.76.841 1.426 1.23 2.978 2.12.71.407 1.397.76 2.004 1.01.626.256 1.096.373 1.397.373.3 0 .771-.117 1.397-.374.608-.249 1.294-.602 2.004-1.01 1.552-.89 2.217-1.278 2.978-2.119.585-.648 1.244-1.785 1.514-2.616.35-1.07.357-2.09.357-4.434v-2.074c0-1.322-.01-1.813-.2-2.33a3.822 3.822 0 0 0-.84-1.26c-.409-.38-.762-.536-1.744-.945-1.685-.703-3.71-1.338-5.466-1.338Zm-6.043-.045c1.738-.725 3.984-1.454 6.043-1.454s4.305.729 6.043 1.454l.067.027c.904.377 1.499.625 2.12 1.201.491.456.996 1.214 1.228 1.842.293.796.292 1.563.292 2.738v2.301c0 2.196 0 3.461-.43 4.783-.336 1.031-1.102 2.352-1.829 3.157-.932 1.031-1.796 1.527-3.288 2.382l-.056.033c-.74.424-1.49.812-2.18 1.096-.674.277-1.366.486-1.967.486s-1.293-.21-1.966-.486a19.104 19.104 0 0 1-2.181-1.096l-.056-.033c-1.492-.855-2.356-1.351-3.288-2.382-.727-.805-1.493-2.126-1.829-3.157-.43-1.322-.43-2.587-.43-4.783v-2.3c0-1.176 0-1.943.292-2.739a5.291 5.291 0 0 1 1.228-1.842c.621-.576 1.216-.824 2.12-1.2l.067-.028ZM76.114 14.3a.75.75 0 0 1 0 1.06l-4.5 4.5a.75.75 0 0 1-1.06 0l-2-2a.75.75 0 0 1 1.06-1.06l1.47 1.47 3.97-3.97a.75.75 0 0 1 1.06 0ZM61.277 8.381h-.042c-.919 0-1.67 0-2.279.05-.63.052-1.197.161-1.726.43a4.41 4.41 0 0 0-1.927 1.928c-.27.529-.38 1.096-.43 1.726-.05.61-.05 1.36-.05 2.279v1.112H46.61c-1.344-.001-2.242-.002-3.068.262-.728.233-1.4.613-1.975 1.118-.65.572-1.112 1.343-1.804 2.496l-.084.14-2.487 4.146-.041.068c-.347.578-.58.965-.746 1.385a5.55 5.55 0 0 0-.32 1.153c-.072.446-.072.897-.072 1.571v9.516c0 .602 0 1.114.034 1.534.036.441.115.868.322 1.276A3.273 3.273 0 0 0 37.8 42c.408.208.835.286 1.276.322.42.035.932.035 1.535.035h1.12a6.644 6.644 0 0 0 13.136 0h5.675a6.644 6.644 0 0 0 13.136-.001c.61-.003 1.134-.013 1.582-.05.63-.05 1.197-.16 1.726-.43a4.41 4.41 0 0 0 1.927-1.927c.27-.529.38-1.096.431-1.727.05-.609.05-1.36.05-2.278V27.83a1 1 0 1 0-2 0v8.072c0 .97-.001 1.64-.043 2.157-.042.507-.118.782-.22.982-.23.453-.6.822-1.053 1.053-.2.102-.475.178-.981.22-.375.03-.83.039-1.42.041a6.644 6.644 0 0 0-13.135.002h-5.675a6.644 6.644 0 0 0-13.136 0h-1.08c-.654 0-1.083-.001-1.412-.028-.317-.026-.452-.071-.53-.111a1.273 1.273 0 0 1-.557-.556c-.04-.08-.085-.213-.11-.53-.028-.33-.028-.759-.028-1.412v-9.397c0-.501 0-.797.013-1.014h14.2c.603 0 1.115 0 1.535-.034.44-.036.868-.115 1.275-.323a3.272 3.272 0 0 0 1.43-1.43c.208-.407.287-.834.323-1.275.034-.42.034-.932.034-1.535v-5.808c0-.02 0-.04-.002-.06v-2.009c0-.971.001-1.64.043-2.158.042-.506.118-.781.22-.981a2.41 2.41 0 0 1 1.053-1.053c.2-.102.475-.178.981-.22.519-.042 1.187-.043 2.158-.043h.188a1 1 0 1 0 0-2h-.188Zm-6.453 12.346a1.08 1.08 0 0 1-.002-.06v-2.762h-8.047c-1.568 0-2.132.011-2.623.168a3.545 3.545 0 0 0-1.263.715c-.387.34-.687.818-1.494 2.163l-2.487 4.146-.128.213h13.408c.653 0 1.082 0 1.411-.028.317-.026.452-.07.53-.11.24-.123.434-.317.556-.557.04-.079.086-.213.111-.53.027-.329.028-.759.028-1.412v-1.946ZM48.3 46a4.643 4.643 0 0 1-4.643-4.62v-.045a4.643 4.643 0 0 1 9.285.023v.03A4.643 4.643 0 0 1 48.3 46Zm23.453-4.694v.021l-.001.03v.023l.001.029a4.643 4.643 0 1 1 0-.103Zm2.539 18.849c0-.155.009-.307.025-.456h4.048a.75.75 0 0 0 0-1.5H74.79a4.073 4.073 0 0 1 6.63-.739.75.75 0 0 0 1.125-.993 5.576 5.576 0 0 0-9.401 1.731h-.81a.75.75 0 0 0 0 1.5h.475a5.637 5.637 0 0 0 0 .912h-.475a.75.75 0 0 0 0 1.5h.81a5.576 5.576 0 0 0 9.401 1.732.75.75 0 0 0-1.124-.993 4.073 4.073 0 0 1-6.63-.739h2.367a.75.75 0 0 0 0-1.5h-2.842a4.135 4.135 0 0 1-.025-.456Zm-4.037-4.39H71.654a.852.852 0 0 1 0 1.705H70.29c-.968 0-1.644 0-2.17.044-.515.042-.812.12-1.036.235a2.558 2.558 0 0 0-1.117 1.117c-.115.225-.193.521-.235 1.037-.043.526-.044 1.2-.044 2.17v1.399c-.001.507-.005.939-.035 1.3-.035.431-.111.837-.306 1.22a3.125 3.125 0 0 1-1.366 1.366c-.383.195-.789.271-1.22.306-.414.034-.92.034-1.527.034H54.347c-.023.242-.025.554-.025 1.162v3.668c0 .541 0 .904.02 1.185.018.274.052.407.088.495.144.348.42.624.769.769.088.036.22.07.494.088.122.008.26.013.42.016a4.263 4.263 0 0 1 8.352.004h3.011a4.263 4.263 0 0 1 8.329-.11 2.558 2.558 0 0 0 1.814-2.447v-5.31a.852.852 0 0 1 1.705 0v5.31c0 2.087-1.5 3.823-3.481 4.19a4.263 4.263 0 0 1-8.367.071h-3.01a4.263 4.263 0 0 1-8.354-.003 10.402 10.402 0 0 1-.535-.02c-.36-.025-.7-.078-1.03-.214a3.125 3.125 0 0 1-1.692-1.692c-.136-.33-.19-.67-.214-1.03-.024-.346-.024-.768-.024-1.273V68.79c0-.683 0-1.123.071-1.556A5.4 5.4 0 0 1 53 66.11c.162-.408.389-.785.74-1.37l.036-.061.254-.424.075-.125c.7-1.167 1.151-1.919 1.784-2.475a5.397 5.397 0 0 1 1.922-1.089c.803-.256 1.68-.256 3.04-.255h3.15c.008-.195.018-.377.032-.548.05-.621.158-1.167.415-1.672a4.262 4.262 0 0 1 1.862-1.862c.505-.257 1.05-.364 1.672-.415.603-.05 1.348-.05 2.271-.05Zm-9.256 6.251h2.985v1.193c0 .65-.001 1.087-.028 1.424-.027.326-.075.482-.127.585a1.42 1.42 0 0 1-.621.62c-.103.053-.259.1-.585.127-.336.028-.773.029-1.424.029h-6.22c.072-.124.158-.267.26-.437l.254-.424c.802-1.335 1.114-1.838 1.523-2.197.382-.336.83-.59 1.315-.745.518-.165 1.11-.175 2.668-.175Zm10.655 16.478a2.557 2.557 0 0 1-2.556-2.526v-.061a2.557 2.557 0 1 1 2.556 2.587Zm-8.806-2.557v-.011a2.557 2.557 0 1 0 0 .023v-.012ZM12.77 43.494a7.313 7.313 0 0 0 0 14.625h23.75a9.313 9.313 0 0 1 0 18.625H22.335a1 1 0 1 1 0-2h14.188a7.312 7.312 0 1 0 0-14.625h-23.75a9.312 9.312 0 1 1 0-18.625h13.062a1 1 0 0 1 0 2H12.771ZM6.877 68.161a2.958 2.958 0 1 1 5.917 0 2.958 2.958 0 0 1-5.917 0Zm2.958-4.959a4.958 4.958 0 0 0-1.001 9.816v2.602a1 1 0 1 0 2 0v-2.602a4.96 4.96 0 0 0-.999-9.816ZM4.651 75.068a1 1 0 1 0-.632-1.897c-.82.273-1.59.652-2.163 1.226-.603.604-.938 1.377-.938 2.298 0 .805.39 1.485.916 2.009.521.52 1.225.942 2.014 1.275 1.583.668 3.7 1.057 5.987 1.057 2.286 0 4.403-.39 5.986-1.057.79-.334 1.493-.756 2.014-1.275.525-.524.916-1.204.916-2.009 0-.921-.335-1.694-.937-2.298-.573-.574-1.342-.953-2.163-1.226a1 1 0 1 0-.632 1.897c.68.226 1.118.48 1.379.741.23.231.353.496.353.886 0 .118-.052.317-.328.593-.28.279-.736.577-1.38.848-1.282.541-3.123.9-5.208.9-2.086 0-3.927-.359-5.21-.9-.643-.271-1.099-.57-1.379-.849-.276-.275-.328-.474-.328-.592 0-.39.123-.655.354-.886.26-.261.7-.515 1.38-.741Z" clip-rule="evenodd"/></g><defs><clipPath id="a"><path fill="#fff" d="M.334.62h84v84h-84z"/></clipPath></defs></svg>