<svg xmlns="http://www.w3.org/2000/svg" width="85" height="85" fill="none"><path fill="#3EC227" fill-rule="evenodd" d="M41.964 6.038a3 3 0 0 1 1.678 0c.258.075.542.221.968.533.435.32.956.765 1.707 1.408l8.085 6.93 6.125 5.25a1 1 0 0 0 1.301-1.518l-6.125-5.25-8.084-6.93-.03-.025c-.714-.612-1.293-1.108-1.797-1.478-.52-.382-1.02-.674-1.59-.84a5 5 0 0 0-2.798 0c-.57.166-1.07.458-1.59.84-.505.37-1.084.866-1.797 1.478l-.03.025-18.1 15.514-.096.083c-.73.625-1.235 1.057-1.605 1.594a4.999 4.999 0 0 0-.717 1.559c-.167.63-.167 1.295-.166 2.256v43.326c0 1.084 0 1.958.057 2.666.06.729.186 1.369.488 1.961a5 5 0 0 0 2.185 2.185c.592.302 1.232.428 1.961.487.708.058 1.582.058 2.666.058h36.286c1.083 0 1.958 0 2.665-.058.73-.06 1.37-.185 1.962-.487a5 5 0 0 0 2.185-2.185c.302-.592.427-1.232.487-1.961.058-.708.058-1.582.058-2.666V50.9a1 1 0 0 0-2 0v19.85c0 1.137-.001 1.93-.051 2.546-.05.605-.142.953-.276 1.216a3 3 0 0 1-1.311 1.311c-.264.134-.611.227-1.217.276-.616.05-1.409.051-2.545.051h-36.2c-1.137 0-1.93 0-2.546-.051-.605-.05-.953-.142-1.216-.276a3 3 0 0 1-1.311-1.31c-.134-.264-.227-.612-.276-1.217-.05-.617-.051-1.41-.051-2.546V27.594c0-1.136.008-1.524.1-1.871a3 3 0 0 1 .43-.936c.204-.296.493-.554 1.356-1.293l18.1-15.515c.75-.643 1.271-1.089 1.707-1.408.425-.312.71-.458.968-.533Zm.37 23.144a4.25 4.25 0 1 1 0 8.5 4.25 4.25 0 0 1 0-8.5Zm6.25 4.25a6.25 6.25 0 1 0-12.5 0 6.25 6.25 0 0 0 12.5 0Z" clip-rule="evenodd"/><path fill="#3EC227" fill-rule="evenodd" d="M65.625 23.01c-5.972 0-10.813 4.841-10.813 10.813 0 5.971 4.841 10.812 10.813 10.812s10.813-4.84 10.813-10.812c0-5.972-4.841-10.813-10.813-10.813ZM52.812 33.823c0-7.076 5.737-12.813 12.813-12.813 7.076 0 12.813 5.737 12.813 12.813 0 3.178-1.158 6.086-3.074 8.325l4.093 4.093a1 1 0 0 1-1.414 1.414l-4.093-4.093a12.762 12.762 0 0 1-8.325 3.073c-7.076 0-12.813-5.736-12.813-12.812Zm8.126-2.306a3.038 3.038 0 0 1 3.038-3.038h.899V27.26a.75.75 0 1 1 1.5 0v1.219h.563a3.375 3.375 0 0 1 3.374 3.375.75.75 0 0 1-1.5 0c0-1.035-.839-1.875-1.874-1.875h-.563v3.96l1.86.62a3.038 3.038 0 0 1-.96 5.92h-.9v1.219a.75.75 0 0 1-1.5 0v-1.219h-.563a3.375 3.375 0 0 1-3.374-3.375.75.75 0 0 1 1.5 0c0 1.035.839 1.875 1.874 1.875h.563v-3.96l-1.86-.62a3.038 3.038 0 0 1-2.078-2.882Zm3.937 1.921V29.98h-.9a1.538 1.538 0 0 0-.486 2.998l1.386.461Zm1.5 2.082v3.459h.9a1.538 1.538 0 0 0 .486-2.998l-1.386-.461ZM29 64.698a1 1 0 1 0-2 0v5a1 1 0 0 0 2 0v-5Zm6-3a1 1 0 0 1 1 1v7a1 1 0 0 1-2 0v-7a1 1 0 0 1 1-1Zm8-1a1 1 0 1 0-2 0v9a1 1 0 0 0 2 0v-9Zm6-3a1 1 0 0 1 1 1v11a1 1 0 0 1-2 0v-11a1 1 0 0 1 1-1Zm8-1a1 1 0 1 0-2 0v13a1 1 0 0 0 2 0v-13Z" clip-rule="evenodd"/></svg>