<svg width="28" height="20" fill="none" xmlns="http://www.w3.org/2000/svg"><rect width="28" height="20" rx="2" fill="#fff"/><mask id="a" mask-type="alpha" maskUnits="userSpaceOnUse" x="0" y="0" width="28" height="20"><rect width="28" height="20" rx="2" fill="#fff"/></mask><g mask="url(#a)"><path fill="#0A17A7" d="M0 0h28v20H0z"/><path fill-rule="evenodd" clip-rule="evenodd" d="m-1.28-1.92 11.95 8.06v-7.47h6.66v7.47l11.95-8.06L30.78.3l-9.45 6.38H28v6.66h-6.67l9.44 6.38-1.49 2.2-11.95-8.05v7.47h-6.66v-7.47l-11.95 8.06-1.5-2.21 9.45-6.38H0V6.67h6.67L-2.77.29l1.49-2.2z" fill="#fff"/><path d="M18.67 6.33 31.33-2M20.01 13.7l11.36 7.65M8 6.31-3.83-1.67M9.29 13.6l-13.13 8.71" stroke="#DB1F35" stroke-width=".67" stroke-linecap="round"/><path fill-rule="evenodd" clip-rule="evenodd" d="M0 12h12v8h4v-8h12V8H16V0h-4v8H0v4z" fill="#E6273E"/></g></svg>