<svg width="28" height="20" fill="none" xmlns="http://www.w3.org/2000/svg"><rect width="28" height="20" rx="2" fill="#fff"/><mask id="a" mask-type="alpha" maskUnits="userSpaceOnUse" x="0" y="0" width="28" height="20"><rect width="28" height="20" rx="2" fill="#fff"/></mask><g mask="url(#a)"><path fill-rule="evenodd" clip-rule="evenodd" d="M0 5.33h28V0H0v5.33zM0 20h28v-5.33H0V20z" fill="#DD172C"/><path fill-rule="evenodd" clip-rule="evenodd" d="M0 14.67h28V5.33H0v9.34z" fill="#FFD133"/><path fill-rule="evenodd" clip-rule="evenodd" d="M7.33 9.33h1.34V10H7.33v-.67z" fill="#FFEDB1"/><path d="M6.06 9.36A.33.33 0 0 1 6.39 9h1.89c.2 0 .34.17.33.36l-.17 2.06a1 1 0 0 1-1 .91h-.21a1 1 0 0 1-1-.91l-.17-2.06z" stroke="#A41517" stroke-width=".67"/><path fill-rule="evenodd" clip-rule="evenodd" d="M6 10h2.67v.67H8L7.33 12l-.66-1.33H6V10z" fill="#A41517"/><rect x="4" y="8" width="1.33" height="4.67" rx=".67" fill="#A41517"/><rect x="9.33" y="8" width="1.33" height="4.67" rx=".67" fill="#A41517"/><path d="M6 7.73c0-.59.48-1.06 1.07-1.06h.53c.59 0 1.07.47 1.07 1.06 0 .15-.12.27-.27.27H6.27A.27.27 0 0 1 6 7.73z" fill="#A41517"/></g></svg>