<svg width="33" height="32" fill="none" xmlns="http://www.w3.org/2000/svg"><path fill-rule="evenodd" clip-rule="evenodd" d="M11.2 3.3H7.7a6 6 0 0 0-2.2.6c-1.1.5-2 1.4-2.6 2.5a6 6 0 0 0-.5 2.3V23.3c0 1 .2 1.7.5 2.3.6 1 1.5 2 2.6 2.5a6 6 0 0 0 2.2.6h17.4a6 6 0 0 0 2.2-.6c1.1-.5 2-1.4 2.6-2.5a6 6 0 0 0 .5-2.3V8.7a6 6 0 0 0-.5-2.3c-.6-1-1.5-2-2.6-2.5a6 6 0 0 0-2.2-.6h-14Zm-5 2c.4-.3 1-.4 1.7-.5h17.2c.7 0 1.3.2 1.7.4.8.4 1.4 1 1.8 1.9.2.4.4.9.4 1.7V23.2c0 .8-.2 1.3-.4 1.7-.4.8-1 1.5-1.8 1.9-.4.2-1 .3-1.7.4H7.9c-.7 0-1.3-.2-1.7-.4-.8-.4-1.4-1-1.8-1.9-.2-.4-.4-.9-.4-1.7V8.8c0-.8.2-1.3.4-1.7.4-.8 1-1.5 1.8-1.9ZM9 10a.8.8 0 0 0-.8 1.3l1.3.9 1.4.9h.1c1.8 1.3 2.9 2 4 2.3 1 .2 2.1.2 3.2 0 1.1-.3 2.2-1 4-2.2l.1-.1 1.4-1 1.3-.8a.8.8 0 0 0-.8-1.3l-1.3 1-1.4.8a13 13 0 0 1-3.7 2c-.8.3-1.6.3-2.4 0a13 13 0 0 1-3.7-2l-1.4-.9L9 10Z" fill="#233441"/></svg>