<svg width="1065" height="238" fill="none" xmlns="http://www.w3.org/2000/svg"><path d="m896.999 48.103-67.562 67.64 51.684 51.683H775.418A191.321 191.321 0 0 0 585.809.156h-96.128a191.48 191.48 0 0 0-189.688 167.348h97.218a95.973 95.973 0 0 1 92.625-71.61h96.206a95.739 95.739 0 0 1 92.47 71.61h-93.015v95.739h92.937a95.507 95.507 0 0 1-92.47 71.688h-96.206a95.74 95.74 0 0 1-92.469-71.61H250.956v-95.817H107.347v95.739h143.609c0 24.752-16.112 71.61-77.448 71.61H59.711c-52.928 0-95.972-42.966-95.972-95.895v-47.324c0-52.929 42.966-95.973 95.972-95.973h191.245V0H59.711A191.867 191.867 0 0 0-132 191.711v47.481A191.865 191.865 0 0 0 59.711 430.825h113.797c76.047 0 128.431-39.307 154.195-90.057a191.09 191.09 0 0 0 162.133 90.057h96.206a191.475 191.475 0 0 0 189.61-167.426H881.51l-51.917 51.917 67.718 67.64L1064.5 215.685 896.999 48.103Z" fill="#172734" fill-opacity=".15"/></svg>