<svg width="82" height="83" fill="none" xmlns="http://www.w3.org/2000/svg"><path fill-rule="evenodd" clip-rule="evenodd" d="M64.16.3c1.4 0 2.53 1.14 2.53 2.54v14.34h12.65a2.53 2.53 0 0 1 0 5.07H65.2L38.95 48.5a2.53 2.53 0 1 1-3.58-3.57L61.69 18.6a2.54 2.54 0 0 1-.06-.57V2.84c0-1.4 1.13-2.53 2.53-2.53Zm-27 15.2a31.22 31.22 0 1 0 30.6 24.97 2.53 2.53 0 0 1 4.95-1 36.28 36.28 0 1 1-28.3-28.3 2.53 2.53 0 0 1-1 4.95c-2.02-.4-4.11-.62-6.25-.62ZM19.44 46.72A17.72 17.72 0 0 1 40.7 29.35a2.53 2.53 0 1 0 1.01-4.96 22.78 22.78 0 1 0 17.77 17.77 2.53 2.53 0 0 0-4.96 1 17.72 17.72 0 1 1-35.08 3.55Z" fill="#E4E9EC"/></svg>
