<svg width="114" height="34" viewBox="0 0 114 34" fill="none" xmlns="http://www.w3.org/2000/svg">
<path fill-rule="evenodd" clip-rule="evenodd" d="M70.3412 26.5904C63.7999 31.4208 54.288 34.0001 46.1091 34.0001C34.6416 34.0001 24.3165 29.7596 16.5065 22.704C15.8929 22.1491 16.4422 21.3935 17.1786 21.8243C25.6079 26.7303 36.0299 29.6795 46.7948 29.6795C54.0557 29.6795 62.0428 28.1772 69.3871 25.06C70.4968 24.5886 71.4239 25.7863 70.339 26.5916M73.066 23.4743C72.2314 22.4029 67.5397 22.969 65.4172 23.2194C64.7743 23.2984 64.6762 22.7378 65.2548 22.3352C68.9991 19.6984 75.1457 20.4597 75.8641 21.3427C76.5825 22.2258 75.678 28.3915 72.1581 31.3329C71.6168 31.784 71.1025 31.5438 71.3427 30.9449C72.1322 28.9712 73.9051 24.5491 73.066 23.4743Z" fill="#A0ACB5"/>
<path fill-rule="evenodd" clip-rule="evenodd" d="M65.5649 3.72289V1.16051C65.5626 1.07472 65.5778 0.989349 65.6095 0.909617C65.6413 0.829885 65.689 0.757465 65.7496 0.696776C65.8103 0.636088 65.8828 0.588404 65.9625 0.556639C66.0422 0.524874 66.1276 0.509694 66.2134 0.512025H77.6854C78.0531 0.512025 78.3486 0.77706 78.3486 1.16051V3.3541C78.3441 3.72176 78.0328 4.20334 77.4847 4.96461L71.5412 13.4525C73.7517 13.3983 76.0817 13.7277 78.0847 14.8566C78.5358 15.1115 78.6486 15.4848 78.6937 15.8536V18.5885C78.6937 18.9607 78.2809 19.3983 77.8479 19.1727C74.3178 17.3231 69.6295 17.1201 65.7273 19.1919C65.3292 19.4084 64.9119 18.9754 64.9119 18.6032V16.0058C64.9119 15.5886 64.9164 14.878 65.3337 14.2431L72.2212 4.36574H66.2382C65.8705 4.36574 65.5751 4.10635 65.5751 3.72289M23.7131 19.7129H20.2237C19.8898 19.6881 19.6259 19.4378 19.6 19.1186V1.2045C19.6 0.845856 19.9 0.561649 20.2722 0.561649H23.527C23.8654 0.576311 24.136 0.836833 24.1608 1.15939V3.50071H24.2251C25.0744 1.2372 26.6702 0.181578 28.8198 0.181578C31.0044 0.181578 32.369 1.2372 33.3513 3.50071C34.1972 1.2372 36.1145 0.181578 38.1727 0.181578C39.6355 0.181578 41.2358 0.784954 42.2125 2.14058C43.3178 3.64733 43.0922 5.83753 43.0922 7.75706L43.0843 19.0644C43.0843 19.4231 42.7843 19.7129 42.4121 19.7129H38.9159C38.5776 19.6881 38.2878 19.4084 38.2878 19.0644V9.55704C38.2878 8.80141 38.3554 6.91571 38.1896 6.19955C37.9302 4.99731 37.1487 4.65784 36.137 4.65784C35.2912 4.65784 34.4092 5.22175 34.0506 6.12625C33.6919 7.03075 33.7269 8.54201 33.7269 9.55816V19.0543C33.7269 19.4129 33.4269 19.7028 33.0547 19.7028H29.5585C29.2055 19.678 28.9303 19.3983 28.9303 19.0543L28.9258 9.55816C28.9258 7.55969 29.2552 4.61837 26.7751 4.61837C24.2669 4.61837 24.365 7.48526 24.365 9.55816V19.0543C24.365 19.4129 24.065 19.7028 23.6928 19.7028M88.2259 0.196238C93.4048 0.196238 96.2085 4.64431 96.2085 10.2991C96.2085 15.7634 93.1105 20.0975 88.2259 20.0975C83.1508 20.0975 80.3708 15.6495 80.3708 10.1074C80.3708 4.5304 83.1745 0.182705 88.2259 0.182705M88.2552 3.84018C85.6839 3.84018 85.5203 7.34541 85.5203 9.52997C85.5203 11.7145 85.4865 16.3927 88.2248 16.3927C90.9293 16.3927 91.0579 12.6224 91.0579 10.3251C91.0579 8.81381 90.9936 7.00594 90.5391 5.57249C90.1466 4.32514 89.3661 3.83906 88.2564 3.83906M102.926 19.7129H99.4499C99.1115 19.6881 98.8217 19.4084 98.8217 19.0644L98.8172 1.14585C98.8465 0.816533 99.1363 0.561649 99.4893 0.561649H102.726C103.031 0.576311 103.281 0.7827 103.35 1.0624V3.80296H103.414C104.391 1.35337 105.76 0.184962 108.171 0.184962C109.75 0.184962 111.264 0.748865 112.246 2.29622C113.148 3.72853 113.148 6.13978 113.148 7.87322V19.1513C113.109 19.4671 112.819 19.7152 112.476 19.7152H108.982C108.663 19.6904 108.398 19.4558 108.364 19.1513V9.4217C108.364 7.4627 108.59 4.59469 106.179 4.59469C105.33 4.59469 104.55 5.16423 104.149 6.027C103.659 7.12097 103.595 8.21156 103.595 9.41945V19.0667C103.59 19.4254 103.286 19.7152 102.912 19.7152M56.4184 11.1439C56.4184 12.504 56.4522 13.625 55.7643 14.8453C55.2094 15.8265 54.3263 16.431 53.3485 16.431C52.0087 16.431 51.2226 15.4104 51.2226 13.9025C51.2226 10.9273 53.8887 10.3871 56.4161 10.3871V11.1427M59.9349 19.6509C59.7037 19.8573 59.371 19.872 59.1116 19.7344C57.9533 18.7723 57.7424 18.3246 57.1086 17.4077C55.1936 19.3611 53.8346 19.9453 51.3545 19.9453C48.4143 19.9453 46.1305 18.134 46.1305 14.5059C46.1305 11.6728 47.6621 9.74425 49.8523 8.80141C51.747 7.96683 54.3928 7.82021 56.4161 7.58901V7.13789C56.4161 6.30783 56.4804 5.32663 55.9876 4.60935C55.5658 3.9665 54.7504 3.70146 54.0286 3.70146C52.6978 3.70146 51.5136 4.38379 51.2248 5.79918C51.1662 6.11497 50.935 6.42286 50.6158 6.43752L47.2324 6.07437C46.9482 6.01008 46.629 5.78114 46.7136 5.34129C47.4895 1.23608 51.2023 0 54.518 0C56.2165 0 58.436 0.451124 59.7759 1.73682C61.4743 3.32252 61.3119 5.43829 61.3119 7.74127V13.1807C61.3119 14.816 61.9886 15.5322 62.6281 16.4175C62.8491 16.7333 62.8988 17.11 62.6134 17.3457L59.945 19.6735L59.9405 19.6622M10.6599 11.1551C10.6599 12.5153 10.6937 13.6363 10.0057 14.8566C9.45086 15.8378 8.57343 16.4423 7.58998 16.4423C6.25014 16.4423 5.4697 15.4216 5.4697 13.9138C5.4697 10.9386 8.13584 10.3984 10.6576 10.3984V11.154M14.1764 19.6622C13.9452 19.8686 13.6125 19.8832 13.3531 19.7456C12.1948 18.7836 11.9997 18.3359 11.3501 17.419C9.43507 19.3723 8.07945 19.9565 5.59601 19.9565C2.66146 19.9577 0.374268 18.1464 0.374268 14.5194C0.374268 11.6863 1.91034 9.75779 4.09603 8.81494C5.99075 7.98036 8.63658 7.83375 10.6599 7.60255V7.15142C10.6599 6.32136 10.7242 5.34017 10.2381 4.62288C9.8095 3.98003 8.99748 3.715 8.27907 3.715C6.94826 3.715 5.76067 4.39732 5.45955 5.81272C5.4009 6.1285 5.1697 6.4364 4.85617 6.45106L1.46824 6.0879C1.18403 6.02362 0.870503 5.79467 0.949449 5.35483C1.72989 1.24961 5.43812 0.0135349 8.75387 0.0135349C10.4524 0.0135349 12.6719 0.464657 14.0117 1.75036C15.7102 3.33605 15.5478 5.45182 15.5478 7.7548V13.1942C15.5478 14.8295 16.2245 15.5457 16.8639 16.431C17.0895 16.7468 17.1391 17.1235 16.8527 17.3592L14.191 19.6735L14.1798 19.6622" fill="#233441"/>
</svg>
