<svg width="38" height="38" fill="none" xmlns="http://www.w3.org/2000/svg">
  <path fill-rule="evenodd" clip-rule="evenodd" d="M12.7.4c.6 0 1.2.5 1.2 1.2V2H24v-.4a1.2 1.2 0 0 1 2.4 0v.6c1.4.1 2.6.4 3.7 1 2 1 3.6 2.6 4.7 4.6a11 11 0 0 1 1 4.2l.1 6.3v1.3L36 26a11 11 0 0 1-1 4.2c-1 2-2.7 3.6-4.7 4.7a11 11 0 0 1-4.2 1l-6.3.1h-1.3L12 36a11 11 0 0 1-4.2-1c-2-1-3.6-2.7-4.7-4.7a11 11 0 0 1-1-4.2L2 19.7v-1.3L2 12c.1-1.6.4-3 1-4.2 1-2 2.7-3.6 4.7-4.7 1-.5 2.3-.8 3.7-1v-.5c0-.7.5-1.2 1.2-1.2Zm11.4 4v2a1.2 1.2 0 0 0 2.4 0V4.5a7.6 7.6 0 0 1 6.2 4.3c.5.8.7 1.8.8 3.3l.1 6.2v7.4a8.7 8.7 0 0 1-.9 3.3c-.8 1.6-2 2.8-3.6 3.6-.8.5-1.8.7-3.3.8l-6.2.1h-7.4a8.7 8.7 0 0 1-3.3-.9c-1.6-.8-2.8-2-3.6-3.6-.5-.8-.7-1.8-.8-3.3l-.1-6.2v-7.4a8.3 8.3 0 0 1 4.4-7c.8-.3 1.6-.5 2.7-.6v1.7a1.2 1.2 0 1 0 2.4 0v-2H24Zm-7.4 19.8a6 6 0 0 0 2.3.5 6 6 0 0 0 2.3-.5c.7-.2 1.2-.6 1.6-1.1a2.7 2.7 0 0 0 .2-3 3 3 0 0 0-.9-1 3 3 0 0 0-1.2-.5v-.1c.6-.1 1-.4 1.5-1 .3-.4.5-1 .5-1.6 0-.6-.1-1.1-.5-1.6-.3-.4-.8-.8-1.4-1a5 5 0 0 0-2.1-.5c-.8 0-1.5.2-2 .4-.7.3-1.2.7-1.5 1.1-.4.5-.5 1-.5 1.6a2.6 2.6 0 0 0 2 2.6 3 3 0 0 0-2.1 1.6c-.3.4-.4.8-.4 1.3 0 .6.2 1.2.6 1.7.4.5 1 .9 1.6 1.1Zm3.3-1.5-1 .2-1-.2-.7-.6c-.2-.3-.2-.6-.2-.9 0-.3 0-.6.2-.9l.7-.6 1-.2c.4 0 .7 0 1 .2l.7.6.2 1c0 .2 0 .5-.2.8l-.7.6Zm-.1-5.2c-.3.2-.6.2-1 .2-.2 0-.5 0-.8-.2a1.5 1.5 0 0 1-.8-1.3l.2-.8.6-.5c.3-.2.6-.2.9-.2.3 0 .6 0 .9.2a1.5 1.5 0 0 1 .8 1.3c0 .3-.1.6-.3.8l-.5.5Z" fill="#3EC227"/>
</svg>
