<svg width="174" height="30" viewBox="0 0 174 30" fill="none" xmlns="http://www.w3.org/2000/svg">
<path d="M13.1557 24.5513H6.19962V5.44873H13.1557C18.0549 5.44873 20.6818 8.54473 20.6818 14.9109C20.6818 20.4378 18.9319 24.5077 13.1557 24.5513ZM16.1773 15.3108C16.1773 11.4626 15.7827 8.45763 11.6688 8.45763H10.748V21.4513H12.3664C14.7741 21.4513 16.1773 19.5074 16.1773 15.3068V15.3108ZM30.0457 24.5473H22.6949V5.44873H30.3965C34.028 5.44873 35.9972 6.95318 35.9972 10.5361C35.9972 12.393 34.4665 13.7192 32.8042 14.5586C35.1242 15.2197 36.6988 16.6371 36.6988 19.0244C36.6988 22.9162 33.4619 24.5513 30.0457 24.5513V24.5473ZM27.1994 13.0066H28.774C30.2609 13.0066 31.3532 12.3454 31.3532 10.7064C31.3532 8.89313 29.95 8.40616 28.4631 8.40616H27.1955V13.0066H27.1994ZM31.8794 18.9294C31.8794 16.9855 30.6556 16.5421 28.8617 16.5421H27.1955V21.4474H28.8139C30.4323 21.4474 31.8754 20.9169 31.8754 18.9294H31.8794ZM37.7512 0.408813H4.66489C2.3927 0.408813 0.511169 2.21811 0.511169 4.56189V25.3906C0.511169 27.7344 2.3927 29.5912 4.66489 29.5912H37.7512C39.9835 29.5912 41.865 27.7344 41.865 25.3906V4.56189C41.865 2.21811 39.9835 0.408813 37.7512 0.408813ZM38.8434 25.3906C38.8434 26.0557 38.4049 26.5863 37.7512 26.5863H4.66489C4.01114 26.5863 3.5288 26.0557 3.5288 25.3906V4.56189C3.5288 3.89677 4.01114 3.36625 4.66489 3.36625H37.7512C38.4049 3.36625 38.8434 3.89677 38.8434 4.56189V25.3906Z" fill="#858C91"/>
<path d="M170.512 17.2944C170.058 16.5461 169.583 16.079 169.065 15.7622C171.174 15.0694 172.118 13.8579 172.118 11.7319C172.118 8.50523 170.145 6.93744 166.083 6.93744H159.92V23.1301H164.066V16.7401H164.592C165.525 16.7401 165.864 16.9895 166.593 18.2287L169.476 23.1301H174L170.512 17.2904V17.2944ZM164.066 10.0612H165.956C167.57 10.0612 168.084 10.5204 168.084 11.9457C168.084 13.3709 167.51 13.8896 165.956 13.8896H164.066V10.0572V10.0612ZM149.652 19.844V16.4511H155.169V13.3195H149.652V10.2116H156.644V6.92952H145.514V23.1301H156.978L157.269 19.848H149.656L149.652 19.844ZM137.019 14.5666C137.175 14.3647 143.086 6.93744 143.086 6.93744H138.781C138.781 6.93744 134.025 13.1532 133.487 13.85V6.93348H129.345V23.1301H133.487V16.2809C134.025 16.9856 138.697 23.1301 138.697 23.1301H143.62C143.62 23.1301 137.179 14.7685 137.023 14.5626L137.019 14.5666ZM122.334 6.93348V15.786C121.783 15.0575 115.66 6.93348 115.66 6.93348H112.184V23.1301H115.7V13.3393C116.254 14.0677 123.091 23.1301 123.091 23.1301H125.849V6.93348H122.334ZM101.912 19.848V16.4551H107.433V13.3234H101.912V10.2156H108.904V6.93348H97.77V23.1301H109.239L109.526 19.848H101.916H101.912ZM90.1322 6.93348V13.2165H84.4079V6.93348H80.2661V23.1301H84.4079V16.4551H90.1322V23.1301H94.274V6.93348H90.1322ZM77.2764 19.464C75.7457 20.038 74.7491 20.24 73.4575 20.24C70.7747 20.24 69.7303 18.7988 69.7303 15.0852C69.7303 11.3716 70.7468 9.7761 73.4814 9.7761C74.7491 9.7761 75.8573 10.0018 77.1887 10.5244L77.4159 10.6154V7.26208L77.3083 7.21853C76.0606 6.76324 74.8129 6.55341 73.3738 6.55341C71.1415 6.55341 69.24 7.1829 67.8767 8.38646C66.1706 9.88299 65.3773 12.013 65.3773 15.1011C65.3773 17.718 65.9154 19.5907 67.0794 20.9882C68.4348 22.5956 70.5675 23.4468 73.2462 23.4468C74.7451 23.4468 76.1881 23.142 77.4079 22.56L77.5036 22.5164V19.3729L77.2804 19.4561L77.2764 19.464ZM59.5015 13.4145L59.2424 13.3036C57.5721 12.5831 57.5083 12.5554 57.1097 12.2743C56.5636 11.8863 56.3802 11.5854 56.3802 11.0826C56.3802 10.1958 57.1137 9.74443 58.5687 9.74443C59.8563 9.74443 60.797 9.96613 62.2879 10.6273L62.5231 10.7302V7.34522L62.4115 7.30167C60.9764 6.77511 59.7726 6.55341 58.3933 6.55341C54.6821 6.55341 52.5574 8.34687 52.5574 11.4785C52.5574 13.8342 53.6137 15.1882 56.3364 16.3046C59.2264 17.5121 59.5015 17.817 59.5015 18.6999C59.5015 19.7292 58.6365 20.2558 56.9383 20.2558C55.4713 20.2558 54.3631 19.9628 52.7088 19.1393L52.4657 19.0166V22.4056L52.5613 22.4531C54.1001 23.1618 55.4434 23.4468 57.1974 23.4468C61.2555 23.4468 63.4918 21.6533 63.4918 18.395C63.4918 15.9246 62.4832 14.6695 59.4935 13.4185" fill="#233441"/>
</svg>
