<svg width="152" height="24" viewBox="0 0 152 24" fill="none" xmlns="http://www.w3.org/2000/svg">
<path fill-rule="evenodd" clip-rule="evenodd" d="M121.15 23.6617V17.4917H121.621L122.66 17.2836L123.396 17.0189L124.094 16.6235L124.716 16.1708L125.282 15.6051L125.771 14.962L126.244 14.0759L126.489 13.34L126.659 12.5661L126.678 11.906L126.64 11.1321L126.469 10.3583L126.187 9.6409L125.808 8.94288L125.337 8.32072L124.487 7.54685L123.827 7.13127L123.11 6.79155L122.355 6.58416L121.562 6.47038H121.148V0.243116L121.865 0.261678L123.054 0.39402L124.204 0.639334L125.319 0.998428L126.375 1.45113L127.395 1.99824L128.396 2.69625L129.376 3.54517L130.226 4.45138L130.924 5.37615L131.527 6.3574L132 7.35722L132.32 8.30055L132.414 8.71532V0.676452H138.094L145.643 11.8302L145.624 0.619966L151.815 0.676452V23.397H146.228L138.547 12.3014V23.397H132.414V15.3404L132.262 15.7737L131.867 16.7558L131.338 17.7742L130.716 18.7369L129.998 19.6431L129.206 20.4734L128.32 21.2287L127.376 21.8888L126.375 22.4545L125.3 22.9258L124.093 23.3042L122.903 23.5487L121.771 23.6625L121.15 23.6617ZM121.15 0.243116V6.47038H120.771L119.979 6.58416L119.225 6.8101L118.506 7.14983L117.846 7.56541L117.243 8.09397L116.715 8.67901L116.282 9.35847L115.96 10.0565L115.734 10.8118L115.601 11.6042V12.3781L115.715 13.1705L115.923 13.9258L116.244 14.6618L116.395 14.9442L116.508 15.0959L116.735 15.4171L117.282 16.0021L117.886 16.4919L118.565 16.9083L119.301 17.2093L120.057 17.4175L120.849 17.5119L121.152 17.4934V23.6633H120.624L119.491 23.5689L118.359 23.3623L117.227 23.0032L116.152 22.5505L115.132 22.0228L114.188 21.3796L113.339 20.6623L112.98 20.3613L112.679 20.0587V23.3986H99.6769V0.676452H105.772V17.7734H111L110.773 17.3021L110.529 16.8123L110.112 15.7737L109.793 14.6989L109.566 13.5659L109.452 12.4346V11.321L109.585 10.1509L109.831 8.96225L110.17 7.81072L110.622 6.75362L111.19 5.7538L111.831 4.81048L112.567 3.92283L113.398 3.11184L114.284 2.39445L115.246 1.77149L116.247 1.2623L117.303 0.828156L118.398 0.525549L119.53 0.336727L120.661 0.24231L121.15 0.243116ZM56.7421 19.6802V14.3955H58.1196V10.1686L56.7421 12.2635V1.97887L57.5346 0.676452H64.1024V23.397H58.1196V19.681L56.7421 19.6802ZM69.0651 23.397H75.1036V6.2065H79.4434V0.676452H64.894V6.2065H69.0643L69.0651 23.397ZM80.0663 23.397H86.2193V14.8312H92.4466V23.397H98.5601V0.676452L92.4466 0.65789V9.41415H86.2193V0.676452H80.0663V23.397ZM10.9984 6.5083L11.5455 6.69713L12.2814 7.05542L12.9609 7.50893L13.5653 8.03748L14.0939 8.64189L14.528 9.32134L14.8677 10.0387L15.0937 10.794L15.226 11.53L15.2639 12.2086L15.2074 12.8881L15.0751 13.6055L14.8104 14.3414L14.4521 15.0588L13.9236 15.7568L13.2635 16.3983L12.5276 16.9471L11.7537 17.3425L10.9992 17.6071V23.3058L11.5463 23.23L12.8294 22.9088L14.0374 22.4755L15.0557 21.9663L16.037 21.3232L16.9432 20.5872L17.7356 19.815L18.4336 18.9467L19.1131 17.9267L19.4714 17.3231V23.3986H32.0211V17.9267H25.5292V14.7933H32.0211V9.39558H25.5292V6.0548H32.0211V0.676452H19.4714V6.96101L19.339 6.60272L18.8299 5.7538L18.1318 4.82903L17.2256 3.86715L16.2823 3.05535L15.3204 2.39526L14.2068 1.82878L12.8294 1.33815L11.4704 0.97906L10.9992 0.904011L10.9984 6.5083ZM56.7421 1.97887V12.2635L55.3639 14.3963L56.7421 14.3955V19.6802L53.1948 19.681L52.7606 20.1143L51.8738 20.9261L50.949 21.6435L49.9678 22.2471L48.93 22.7563L47.8544 23.1727L46.7408 23.4737L45.5892 23.6819L44.4192 23.7577L43.2676 23.7392L42.1355 23.5875L40.9654 23.3244L39.7759 22.9274L38.6817 22.4376L37.7198 21.834L36.7951 21.1545L35.9841 20.3992L35.2288 19.5495L34.5493 18.6433L33.9635 17.6443L33.4357 16.4734L33.0016 15.1903L32.7183 14.0017L32.586 12.8308L32.5489 11.6994L32.6433 10.5479L32.8321 9.41576L33.1339 8.30297L33.5681 7.18937L34.1152 6.1137L34.7567 5.15181L35.4741 4.26417L36.2665 3.47174L37.1533 2.75516L38.0967 2.11363L39.1538 1.54796L40.3424 1.05733L41.5504 0.717609L42.6826 0.510219L43.8341 0.396439L44.9848 0.434364L46.117 0.547337L47.2491 0.81202L48.3813 1.18968L49.457 1.64237L50.4568 2.20886L51.3815 2.86895L52.2305 3.60488L52.9478 4.32227L53.2311 4.662L50.0985 9.53115L49.7023 9.17286L49.3061 8.81458L48.4192 8.15368L47.4186 7.55008L46.3429 7.05945L45.2673 6.75766L44.3231 6.64468L43.4177 6.70116L42.493 6.92792L41.5876 7.26765L40.8516 7.73891L40.248 8.24809L39.738 8.8525L39.3039 9.53196L38.9835 10.2679L38.7568 11.0418L38.6632 11.8116V12.5855L38.7955 13.3593L39.0408 14.1146L39.3805 14.8506L39.834 15.5107L40.3812 16.0957L40.9856 16.567L41.665 16.9624L42.4203 17.265L43.2692 17.4538L44.119 17.5482L44.93 17.4917L45.6853 17.34L46.4406 17.056L47.12 16.6985L47.7616 16.2458L48.2707 15.7923L48.4975 15.5672L56.7421 1.97887ZM6.71426 17.9251V6.2065H8.39353L9.22389 6.22506L10.0163 6.30092L10.7894 6.43326L10.9976 6.50911V0.904011L10.0914 0.77167L8.54443 0.677259H0.844482V23.3978H9.67659L10.5069 23.3615L10.9976 23.305V17.6063L10.9217 17.6249L10.0163 17.8113L8.95921 17.8872L8.37416 17.9251H6.71426Z" fill="#233441"/>
</svg>
