<svg width="85" height="43" fill="none" xmlns="http://www.w3.org/2000/svg"><path d="M70.76 42.33c.22.18.54.27.96.27.3 0 .56-.07.79-.23.22-.15.37-.4.44-.71a.57.57 0 0 0-.23-.57 1.7 1.7 0 0 0-.29-.23l-.35-.21a4.53 4.53 0 0 1-.63-.5.79.79 0 0 1-.2-.72c.08-.38.29-.68.6-.9.32-.2.69-.3 1.1-.3.12 0 .26 0 .42.02.16.02.31.07.46.12l-.15.42c-.2-.11-.47-.17-.81-.17-.12 0-.24 0-.36.03s-.23.07-.35.14c-.1.06-.2.14-.28.24a.9.9 0 0 0-.16.38.49.49 0 0 0 .03.3c.04.1.1.18.2.25.08.08.18.15.3.21l.34.22c.25.13.46.3.63.5a.88.88 0 0 1 .17.8c-.1.47-.32.8-.67 1-.35.2-.71.31-1.1.31a2.11 2.11 0 0 1-1-.21l.14-.46zm-3.49-4.03h2.27l-.08.4h-1.8l-.32 1.65h1.71l-.08.4h-1.71l-.34 1.77h1.88l-.07.4h-2.35l.9-4.62zm-2.6 0h.45l-.89 4.62h-.45l.89-4.62zm-4.63 2.05h.49c.28 0 .55-.06.81-.19a.91.91 0 0 0 .5-.66.85.85 0 0 0 0-.45.41.41 0 0 0-.2-.24.9.9 0 0 0-.36-.1l-.45-.01h-.47l-.32 1.65zm-.06-2.05h1.2c.88-.01 1.25.39 1.12 1.2-.06.3-.2.54-.44.72-.23.19-.5.3-.8.34v.02c.18.02.3.08.35.17.04.04.07.1.09.16l.05.22.45 1.79h-.5l-.37-1.56c-.07-.29-.17-.47-.28-.54a.47.47 0 0 0-.22-.07H59.97l-.42 2.17h-.46l.9-4.62zm-4.4 0h2.27l-.08.4h-1.8l-.33 1.65h1.72l-.08.4h-1.71l-.35 1.77h1.9l-.09.4H54.7l.9-4.62zm-4.33 4.62h-.5l-.82-4.62h.48l.69 4.16 2.34-4.16h.46l-2.65 4.62zm-3.4-4.62h.46l-.9 4.62h-.45l.9-4.62zm-4 0h.46l-.81 4.22h1.85l-.08.4h-2.3l.89-4.62zm-4.34 0h2.26l-.07.4h-1.81l-.32 1.65h1.72l-.08.4h-1.72l-.34 1.77h1.89l-.08.4h-2.34l.89-4.62zm-5.9 4.22H34c1.4.03 2.25-.61 2.55-1.94.12-.7.04-1.2-.26-1.48-.3-.27-.72-.4-1.26-.4h-.66l-.74 3.82zm.37-4.22h1.14c.82 0 1.37.22 1.66.64.27.42.34.98.2 1.66a2.62 2.62 0 0 1-1.08 1.79c-.56.35-1.23.53-2 .53h-.82l.9-4.62zM28.14 25.75c-.55 0-1.02.22-1.4.68a2.51 2.51 0 0 0-.57 1.67c0 .49.14.88.41 1.17.28.29.65.43 1.1.43a1.8 1.8 0 0 0 1.43-.65c.37-.44.56-1 .56-1.7 0-.5-.14-.89-.4-1.17a1.47 1.47 0 0 0-1.13-.43zm38.79 2.75h-9.6c0 .72.15 1.29.46 1.69.3.4.74.6 1.3.6.38 0 .73-.1 1.03-.29.3-.19.64-.52 1-1l5.12 1.1a9.06 9.06 0 0 1-3.27 3.61 8.86 8.86 0 0 1-4.7 1.22c-2.1 0-3.83-.63-5.17-1.9a6.2 6.2 0 0 1-1.86-3.27l-.84 4.63h-6.87l1.35-7.28a10.6 10.6 0 0 0 .14-1.4.88.88 0 0 0-.24-.65.81.81 0 0 0-.62-.24c-.5 0-.9.23-1.2.7a7 7 0 0 0-.77 2.42l-1.17 6.45h-6.83l.73-3.94a8.61 8.61 0 0 1-3.97 3.66 9.3 9.3 0 0 1-3.9.82c-2.1 0-3.84-.63-5.2-1.9a6.24 6.24 0 0 1-2.02-4.25c-.7 1.13-1.58 2.1-2.67 2.9a12.25 12.25 0 0 1-4.4 2.07 26.1 26.1 0 0 1-6.3.64H0L3.78 14.4h5.54c1.71 0 3.15.1 4.3.26s2.1.42 2.83.77a8.8 8.8 0 0 1 3.7 3.29 9.1 9.1 0 0 1 1.28 4.83 8.86 8.86 0 0 1 7.18-3.56c2.24 0 4.02.63 5.36 1.88a6.27 6.27 0 0 1 1.92 3.87l1-5.32h6.4l-.41 2.09a9.76 9.76 0 0 1 2.52-1.91c.84-.43 1.7-.64 2.57-.64 1.25 0 2.25.4 3 1.19a4.33 4.33 0 0 1 1.15 3.13v.15c.35-.65.78-1.24 1.28-1.77a8.86 8.86 0 0 1 6.43-2.7c2.1 0 3.83.61 5.18 1.83a5.99 5.99 0 0 1 2.03 4.65 17.5 17.5 0 0 1-.11 2.06zm-9.24-2.7h3.48v-.2c0-.46-.13-.82-.37-1.09-.25-.26-.59-.4-1-.4-.53 0-.96.14-1.3.41-.33.27-.6.7-.8 1.29zm11.46.95 2.21-20.43L84.31.72l-10.5 26.03h-4.66zm1.66 8.6c-.95 0-1.76-.31-2.42-.92a2.95 2.95 0 0 1-.99-2.23c0-1.08.39-2 1.15-2.76a3.83 3.83 0 0 1 2.81-1.14c.98 0 1.79.3 2.45.94.66.62.99 1.4.99 2.33 0 1.01-.4 1.9-1.2 2.65a3.92 3.92 0 0 1-2.79 1.13zM8.57 28.73h.08c1.65 0 2.94-.42 3.88-1.26a4.39 4.39 0 0 0 1.4-3.44c0-1.07-.34-1.91-1.01-2.53a3.82 3.82 0 0 0-2.72-.94h-.14l-1.5 8.17z" fill="#fff"/><path fill-rule="evenodd" clip-rule="evenodd" d="M51.49 5.27a11.62 11.62 0 0 0-4.33-3.42c-.97-.44-2.01-.73-3.1-.86C42.73.8 40.8.8 39.5.93c.9.69 2.08 2.13 2.59 3.19-.64-1.2-2.2-2.35-3.43-2.97v-.01c-.83-.42-1.67-.73-2.5-.92h-.02c-.26-.06-.55-.13-.83-.17a5.74 5.74 0 0 0-.99-.05 12.5 12.5 0 0 0-3.22 2.48s-1.7.9-2.74 1.19a12.45 12.45 0 0 1-.69.14c-.47-.32-1.04-.64-1.53-.4-.34.17-.34.63-.3.94.07.35.23.7.43 1-.77 1.23-1 2.52-.15 3.78-.15.74-.6 1.55-.97 2.21l.33.17c.77.27 1.67.54 2.47.26.35-.18.68-.4.95-.68.17-.18.53-.63.53-.63s.93-.14 1.39-.33c.94-.38 1.92-1.34 1.95-2.38.04.85-.2 1.6-.88 2.17-.48.4-1.41.9-2.04.92 0 0-.34.48-.71.8-.25.2-.51.38-.79.55-2.55 2.28-3.75 4.4-3.98 6.86 1-.83 2.76-1.16 4.27-2.98 2.4-.27 4.33-1.04 5.59-3.06-.27-.65-1.46-1.6-2.06-2.03.8.23 1.63.87 2.29 1.64.02 0 0 0 0 0l.02.03.11.17c.76 1.14 1.04 2.57 1.27 3.95-1.47.27-2.04 1-2.43 1.39h9.5c.92-1.7 2.13-3.82 4.1-4.7l.08.01c1.5.35 2.53 2 3.23 3.44-.8.22-1.56.68-2.03 1.24h5.48a14.5 14.5 0 0 0 .62-4.21c0-3.33-1.1-6.37-2.92-8.67zm-19.8.07c-.07.09-.15.17-.23.24.24-.46.23-.96-.07-1.2-.3-.25-.8-.17-1.2.16.06-.1.12-.19.2-.28.41-.5 1.05-.68 1.4-.39.37.3.32.96-.1 1.47zm9.5 7.44-.06.2a10.39 10.39 0 0 0-.72 3.58c-.27.05-.68.09-1.38.32.63-1.43 1.12-3.21.96-4.75.4.19.71.34 1.23.51l-.02.14z" fill="#fff"/></svg>
