<svg width="77" height="85" fill="none" xmlns="http://www.w3.org/2000/svg"><path fill-rule="evenodd" clip-rule="evenodd" d="M30 3.4C30 2 31.3.6 32.8.6h15a2.8 2.8 0 1 1 0 5.6h-15A2.8 2.8 0 0 1 30 3.4Zm-20.6 45a31 31 0 1 1 31 31H21.5a2.8 2.8 0 0 0 0 5.6h18.7A36.6 36.6 0 1 0 3.8 48.4a2.8 2.8 0 0 0 5.6 0ZM0 59.7c0-1.6 1.3-2.8 2.8-2.8h18.8a2.8 2.8 0 0 1 0 5.6H2.8A2.8 2.8 0 0 1 0 59.7Zm7.5 11.2c0-1.5 1.3-2.8 2.8-2.8h22.5a2.8 2.8 0 0 1 0 5.6H10.3A2.8 2.8 0 0 1 7.5 71Zm35.6-33.7a2.8 2.8 0 0 0-5.6 0v15a2.8 2.8 0 0 0 5.6 0v-15Z" fill="#E4E9EC"/></svg>
