<svg width="125" height="41" viewBox="0 0 125 41" fill="none" xmlns="http://www.w3.org/2000/svg">
<path fill-rule="evenodd" clip-rule="evenodd" d="M40.6461 0H0V40.6521H40.6461V0ZM10.4939 6.54826V14.149H12.7215C15.1361 14.149 15.2589 13.7514 15.4402 11.8571H16.1418V17.3822H15.4402C15.2589 15.4879 15.1361 15.1254 12.7215 15.1254H10.4939V21.662C10.4939 23.0067 10.8622 23.3107 13.3354 23.3107V24.1351H4.63549V23.3049C6.43627 23.3049 7.07941 23.2113 7.07941 21.7497V8.01578C7.07941 6.54826 6.43627 6.46056 4.63549 6.46056V5.63618H16.2002C17.0684 5.66829 17.9377 5.61739 18.7962 5.48417V11.1905H18.0302C17.6385 7.22063 16.8609 6.54826 13.3003 6.54826H10.4939ZM37.2079 5.48417C36.3514 5.61752 35.4841 5.66842 34.6178 5.63618H23.4214C22.5552 5.66842 21.6879 5.61752 20.8314 5.48417V11.1905H21.5914C21.989 7.22063 22.8134 6.54826 26.3214 6.54826H27.2978V21.6561C27.2978 23.0886 26.719 23.3049 24.4329 23.3049V24.1351H33.5771V23.3107C31.2911 23.3107 30.7415 23.0944 30.7415 21.662V6.54826H31.7179C35.2785 6.54826 36.0503 7.22063 36.4479 11.1905H37.2079V5.48417Z" fill="#233441"/>
<path d="M47.6989 16.2701C47.6989 16.9879 47.9039 17.1588 49.2369 17.1588V17.6031H44.6797V17.1588C45.5911 17.1588 45.8987 17.079 45.8987 16.2815V8.93291C45.8987 8.13539 45.5911 8.05564 44.6797 8.05564V7.61131H50.9915C51.4601 7.62808 51.9292 7.60138 52.3928 7.53156V10.3457H52.0055C51.789 8.28351 51.2877 8.06704 49.3737 8.06704H47.6989V12.1458H49.066C50.3763 12.1458 50.456 11.9407 50.5585 10.9153H50.9117V13.9003H50.5585C50.456 12.875 50.3763 12.6813 49.066 12.6813H47.6989V16.2701Z" fill="#233441"/>
<path d="M53.3256 17.6085V17.1642C54.2256 17.1642 54.5446 17.0844 54.5446 16.2869V8.9383C54.5446 8.14078 54.2256 8.06103 53.3256 8.06103V7.6167H57.6094V8.06103C56.6979 8.06103 56.3903 8.14078 56.3903 8.9383V16.2869C56.3903 17.0844 56.6979 17.1642 57.6094 17.1642V17.6085H53.3256Z" fill="#233441"/>
<path d="M67.3272 17.768L60.4913 9.30289V16.2413C60.4913 17.0503 61.0609 17.1642 61.9952 17.1642V17.6085H58.3835V17.1642C59.3178 17.1642 59.8419 17.0503 59.8419 16.2413V8.53955C59.6557 8.34774 59.4257 8.204 59.1717 8.12065C58.9176 8.03731 58.6472 8.01685 58.3835 8.06103V7.6167H61.5964L66.8373 14.3615V8.98388C66.8373 8.17496 66.279 8.06103 65.3334 8.06103V7.6167H68.9678V8.06103C68.0222 8.06103 67.4981 8.17496 67.4981 8.98388V17.768H67.3272Z" fill="#233441"/>
<path d="M72.2804 17.6031H68.6118V17.1588C69.5689 17.1588 70.0018 17.0221 70.298 16.2132L73.5565 7.53156H74.4679L77.977 16.2815C78.2846 17.0563 78.4327 17.1588 79.1163 17.1588V17.6031H74.9578V17.1588C76.2453 17.1588 76.3592 17.0563 76.0971 16.2815L75.049 13.6269H71.8817L70.9588 16.2018C70.6512 16.9879 71.1183 17.1588 72.2235 17.1588L72.2804 17.6031ZM72.1323 13.0459H74.8553L73.4198 9.55954L72.1323 13.0459Z" fill="#233441"/>
<path d="M88.5371 17.768L81.7012 9.30289V16.2413C81.7012 17.0503 82.2594 17.1642 83.2051 17.1642V17.6085H79.6732V17.1642C80.5505 17.1642 81.0518 17.0503 81.0518 16.2413V8.56234C80.8295 8.35632 80.563 8.204 80.2726 8.1171C79.9823 8.03019 79.6759 8.01101 79.377 8.06103V7.6167H82.7949L88.0358 14.3615V8.98388C88.0358 8.17496 87.4775 8.06103 86.5319 8.06103V7.6167H90.1663V8.06103C89.2321 8.06103 88.708 8.17496 88.708 8.98388V17.768H88.5371Z" fill="#233441"/>
<path d="M98.663 7.60077H98.9023L99.0504 10.5858H98.6744C98.6722 10.2262 98.5963 9.87089 98.4514 9.54179C98.3065 9.21268 98.0957 8.91676 97.832 8.67228C97.5683 8.4278 97.2573 8.23995 96.9182 8.12032C96.5791 8.0007 96.219 7.95184 95.8603 7.97675C94.0146 7.97675 92.5905 9.5604 92.5905 11.9985C92.5905 15.1203 94.5501 16.8862 96.6123 16.8862C97.0836 16.8953 97.551 16.7976 97.9792 16.6003C98.4073 16.4029 98.7853 16.1112 99.0846 15.7469L99.3694 16.0431C98.9452 16.5872 98.3972 17.022 97.771 17.3113C97.1447 17.6007 96.4584 17.7362 95.7692 17.7065C95.1008 17.7157 94.4374 17.5909 93.8182 17.3393C93.1989 17.0878 92.6363 16.7147 92.1637 16.2421C91.691 15.7694 91.3179 15.2069 91.0664 14.5876C90.8149 13.9683 90.69 13.3049 90.6992 12.6366C90.6808 11.952 90.8004 11.2707 91.0509 10.6333C91.3013 9.99588 91.6774 9.41538 92.1569 8.92637C92.6363 8.43736 93.2093 8.04983 93.8416 7.78686C94.4739 7.52389 95.1527 7.39086 95.8375 7.3957C96.6628 7.46468 97.473 7.65669 98.2415 7.96536C98.4807 8.02232 98.5605 7.87421 98.663 7.60077Z" fill="#233441"/>
<path d="M100.189 17.6085V17.1642C101.101 17.1642 101.409 17.0844 101.409 16.2869V8.9383C101.409 8.14078 101.101 8.06103 100.189 8.06103V7.6167H104.473V8.06103C103.573 8.06103 103.254 8.14078 103.254 8.9383V16.2869C103.254 17.0844 103.573 17.1642 104.473 17.1642V17.6085H100.189Z" fill="#233441"/>
<path d="M108.528 17.6031H105.167V17.1588C105.482 17.2168 105.807 17.1507 106.075 16.9745C106.342 16.7983 106.531 16.5255 106.603 16.2132L109.861 7.53156H110.772L114.282 16.2815C114.589 17.0563 114.737 17.1588 115.421 17.1588V17.6031H111.228V17.1588C112.516 17.1588 112.63 17.0563 112.368 16.2815L111.331 13.6269H108.198L107.275 16.2018C106.979 16.9879 107.434 17.1588 108.539 17.1588L108.528 17.6031ZM108.38 13.0459H111.103L109.679 9.55954L108.38 13.0459Z" fill="#233441"/>
<path d="M116.137 17.6085V17.1642C117.048 17.1642 117.367 17.0844 117.367 16.2869V8.9383C117.367 8.14078 117.048 8.06103 116.137 8.06103V7.6167H120.409V8.06103C119.509 8.06103 119.27 8.14078 119.27 8.9383V16.4008C119.27 17.0617 119.589 17.1414 120.136 17.1414H120.648C122.574 17.1414 123.2 16.8566 123.736 14.6577H124.089L123.782 17.6085H116.137Z" fill="#233441"/>
<path d="M53.6923 23.0161V26.0011H53.3049C53.0999 23.8477 52.5872 23.5857 50.6731 23.5857H50.0579V31.7432C50.0579 32.518 50.3541 32.6433 51.596 32.6433V33.0876H46.7197V32.6433C47.9615 32.6433 48.2692 32.518 48.2692 31.7432V23.5857H47.6653C45.7513 23.5857 45.2386 23.8477 45.0221 26.0011H44.6461V23.0161C45.1099 23.0849 45.5789 23.1116 46.0475 23.0958H52.2454C52.7291 23.1154 53.2136 23.0887 53.6923 23.0161Z" fill="#233441"/>
<path d="M54.6699 33.0862V32.6418C55.5699 32.6418 55.8889 32.5507 55.8889 31.7646V24.3704C55.8889 23.5729 55.5699 23.4931 54.6699 23.4931V23.0488H58.9537V23.4931C58.0423 23.4931 57.7346 23.5729 57.7346 24.3704V31.719C57.7346 32.5051 58.0423 32.5963 58.9537 32.5963V33.0406L54.6699 33.0862Z" fill="#233441"/>
<path d="M71.8375 23.0938V23.5381C70.9374 23.5381 70.5386 23.5381 70.6184 24.3812L71.3931 31.7982C71.4729 32.5502 71.7691 32.6413 72.6692 32.6413V33.0856H68.3967V32.6413C69.2854 32.6413 69.536 32.5502 69.536 31.7982L68.7271 23.9939L65.5712 33.2451H65.4459L62.3925 23.9939L61.6406 31.7754C61.5494 32.573 62.0963 32.6413 63.0078 32.6413V33.0856H59.681V32.6413C60.581 32.6413 60.9 32.4932 60.957 31.7754L61.7203 24.3812C61.8001 23.5837 61.4013 23.5381 60.5013 23.5381V23.0938H64.0104L66.1181 29.9297L68.3967 23.0938H71.8375Z" fill="#233441"/>
<path d="M79.8107 29.4176H79.4575C79.355 28.4036 79.2752 28.1985 77.965 28.1985H76.4497V31.8329C76.4497 32.4937 76.7801 32.5735 77.327 32.5735H78.1473C80.0841 32.5735 80.7108 32.2886 81.2349 30.0784L81.5994 30.1353L81.2463 33.0862H73.4191V32.6418C74.3306 32.6418 74.6382 32.5507 74.6382 31.7646V24.3704C74.6382 23.5729 74.3306 23.4931 73.4191 23.4931V23.0488H80.9386V25.5325H80.5513C80.3234 23.7779 79.8791 23.5615 77.8967 23.5615H76.4155V27.6288H77.9764C79.2866 27.6288 79.3664 27.4124 79.4689 26.3984H79.8221L79.8107 29.4176Z" fill="#233441"/>
<path d="M87.7615 31.0255C87.7615 30.1141 87.1804 29.6584 86.1892 29.1115L84.6056 28.2912C83.4663 27.6418 82.7143 26.9468 82.7143 25.6935C82.7302 25.3073 82.8232 24.9282 82.988 24.5785C83.1528 24.2288 83.386 23.9157 83.6738 23.6577C83.9616 23.3996 84.2982 23.2018 84.6637 23.076C85.0292 22.9501 85.4162 22.8988 85.8019 22.925C86.5463 23.0011 87.2735 23.1973 87.9552 23.506C88.183 23.506 88.2856 23.3579 88.3881 23.0731H88.6616L88.8097 25.8758H88.4451C88.3925 25.2424 88.1096 24.6502 87.6497 24.2114C87.1899 23.7726 86.5852 23.5176 85.95 23.4946C85.7379 23.4692 85.5229 23.4883 85.3187 23.5505C85.1144 23.6128 84.9253 23.7169 84.7635 23.8562C84.6017 23.9955 84.4706 24.167 84.3787 24.3598C84.2868 24.5525 84.236 24.7623 84.2296 24.9758C84.2296 25.9328 84.9588 26.3088 85.7449 26.7531L87.1121 27.4823C88.3995 28.1772 89.311 28.8836 89.311 30.2166C89.2923 30.6424 89.1883 31.06 89.005 31.4448C88.8218 31.8295 88.563 32.1734 88.2442 32.4562C87.9253 32.7389 87.5528 32.9546 87.1489 33.0905C86.745 33.2264 86.3179 33.2797 85.893 33.2472C85.0766 33.1689 84.2792 32.9532 83.5346 32.6092C83.3068 32.6092 83.1928 32.8029 83.0903 33.1219H82.7599L82.532 30.1369L82.8966 30.0799C82.9434 30.7991 83.2654 31.4727 83.7958 31.9607C84.3262 32.4487 85.0243 32.7136 85.7449 32.7003C86.85 32.7003 87.7615 32.2218 87.7615 31.0255Z" fill="#233441"/>
</svg>
