<svg width="90" height="23" viewBox="0 0 90 23" fill="none" xmlns="http://www.w3.org/2000/svg">
<path d="M89.2316 11.0864L88.4151 11.3069C87.6394 8.66126 86.337 7.5279 84.4998 7.5279C83.2096 7.5279 82.2951 8.3771 82.2951 9.73256C82.2951 11.0227 83.3566 11.7168 86.2423 12.882C88.8985 13.8586 90 15.054 90 17.1443C90 20.3248 87.5014 22.3196 83.3974 22.3196C81.4238 22.3196 79.1881 21.8786 77.9282 21.3748L77.7706 16.9557L78.5463 16.7981C79.7116 19.8218 81.2026 20.9657 83.1435 20.9657C84.8231 20.9657 85.705 19.8005 85.705 18.6035C85.705 17.4064 85.0224 16.714 82.398 15.7701C79.8994 14.9511 78.1887 13.8806 78.1887 11.2244C78.1887 8.61145 80.4873 6.39535 84.3944 6.39535C86.2423 6.39535 87.9219 6.71054 89.0242 7.21435L89.2316 11.0864ZM72.3292 12.4721C72.4239 10.394 72.0026 7.39153 70.2927 7.39153C68.5396 7.39153 67.5736 10.1947 67.5426 12.5986L72.3292 12.4721ZM70.7124 6.38392C75.0156 6.38392 77.0945 9.53333 77.1264 13.6691H67.4389C67.4062 17.3329 69.3496 20.1035 72.9816 20.1035C74.5657 20.1035 75.4802 19.6625 76.4454 18.9701L76.8969 19.4739C75.8354 20.9225 73.6308 22.3073 70.6912 22.3073C65.9675 22.3073 62.6923 19.064 62.6923 14.4865C62.6817 10.3507 65.369 6.38229 70.7124 6.38229M56.7512 14.0455C56.6565 10.7794 55.461 8.17787 53.1608 8.17787C52.6138 8.17787 52.1949 8.27259 51.5441 8.49305L51.7319 21.0793C51.963 21.174 52.5076 21.2368 52.8971 21.2368C55.1328 21.2368 56.7495 18.0768 56.7495 14.0464M61.5467 13.8014C61.5467 18.9767 58.2806 22.3147 52.7395 22.3147C50.7659 22.3147 48.7188 21.9995 46.9453 21.5904C47.1029 19.5123 47.1029 6.64195 46.9453 4.21682C46.7877 2.95689 46.4309 2.35836 45.4543 2.23262L44.8035 2.16974V1.59245L51.638 0.33252C51.6053 1.39403 51.5433 4.21682 51.5433 7.523C52.7403 6.92447 53.8418 6.57826 55.332 6.57826C58.8905 6.57826 61.5378 9.60192 61.5378 13.8006M44.1454 10.99C42.0354 9.60437 39.7687 10.2029 39.3163 10.99C39.1171 13.4152 39.1588 17.1419 39.349 19.0624C39.4437 20.3223 39.8006 20.8572 40.7763 20.9519L42.0665 21.0776V21.8966H32.4125V21.0776L33.158 20.9519C34.0921 20.8572 34.4179 20.3231 34.4808 19.0624C34.7119 17.0153 34.7747 12.7219 34.4808 10.3597C34.4179 9.00584 34.0921 8.50122 33.158 8.37547L32.4125 8.28075V7.71407L39.309 6.39127L39.2143 9.91874C40.831 6.26552 44.0433 5.82459 45.7858 6.80117L44.1454 10.99ZM21.5133 14.3705C21.5133 18.223 22.5527 21.3724 24.652 21.3724C26.9196 21.3724 27.5704 18.2859 27.5704 14.3705C27.5704 10.4552 26.5628 7.40052 24.4316 7.40052C22.1453 7.40052 21.5133 10.3923 21.5133 14.3705ZM32.4517 14.3077C32.4517 18.7268 29.5333 22.3098 24.3271 22.3098C19.2041 22.3098 16.6222 18.8983 16.6222 14.4261C16.6222 10.038 19.5405 6.38474 24.7468 6.38474C29.8698 6.38474 32.4517 9.81748 32.4517 14.2995M19.044 6.69911L17.9825 7.01429C17.0794 3.91714 15.4839 2.15423 12.7338 2.15423H9.14344C8.9442 4.21192 8.84948 7.39235 8.9442 10.8259L11.3367 10.7002C12.9534 10.7002 13.6352 9.53496 14.0313 7.84227H14.9344V15.0017H14.0158C13.6271 13.2706 12.9542 12.0948 11.3212 11.9993L8.92869 11.9666C8.92869 14.5175 8.96135 16.7009 9.12792 18.0237C9.28552 19.9132 9.81056 20.7739 11.1962 20.9527L12.4978 21.0784V21.8974H0.779587V21.0784L1.75617 20.9527C3.11 20.7649 3.66688 19.9132 3.82448 18.0237C4.08577 14.9372 4.15109 8.34526 3.82448 4.68143C3.66688 2.72173 3.11082 1.94193 1.75617 1.78433L0.779587 1.62674V0.777536H19.0212L19.044 6.69911Z" fill="#233441"/>
</svg>
