<svg width="38" height="20" fill="none" xmlns="http://www.w3.org/2000/svg">
  <g clip-path="url(#a)">
    <path d="M.6 2.08c0-.54.44-.99.98-.99h21.46c.55 0 .99.45.99 1v11.16c0 .56-.45 1-1 1H1.59a.99.99 0 0 1-.99-1V2.08Z" stroke="#858C91" stroke-width="1.5"/>
    <path d="M19.13 3.38h-3.72a.99.99 0 0 0-.99 1v6.78c0 .54.45.99 1 .99h3.71c.55 0 1-.45 1-1V4.38a.99.99 0 0 0-1-.99ZM10.64 17.42a1.49 1.49 0 1 1-2.98 0 1.49 1.49 0 0 1 2.98 0Zm22.85 0a1.49 1.49 0 1 1-2.97 0 1.49 1.49 0 0 1 2.98 0h-.01ZM26.9 1.72l.9 1.62a.83.83 0 1 1-1.56.4V1.9a.35.35 0 0 1 .66-.17Z" stroke="#858C91" stroke-width="1.5"/>
    <path d="M13.22 16.62h10.8M.6 16.62h4.49" stroke="#858C91" stroke-width="1.5" stroke-linecap="round" stroke-linejoin="round"/>
    <path d="M26.25 15.82V7.59c0-.54.45-.99 1-.99h1.77a1 1 0 0 1 .77.37l2.68 3.3c.23.27.51.48.84.62l2.1.88c.17.08.33.2.43.37l1.4 2.1c.11.16.17.36.17.56v1.02c0 .55-.45.99-1 .99h-.4a.8.8 0 0 1-.8-.8 1.98 1.98 0 0 0-1.98-1.98H30.8a1.98 1.98 0 0 0-1.98 1.98.8.8 0 0 1-.8.8h-.78a.99.99 0 0 1-.99-1Z" stroke="#858C91" stroke-width="1.5"/>
    <path d="M11.4 7.15H9.9l1.2-1.2a.47.47 0 0 0 0-.68.48.48 0 0 0-.67 0L8.55 7.15H7.6V6.2l1.88-1.88a.48.48 0 0 0 0-.67.47.47 0 0 0-.67 0L7.6 4.85v-1.5a.48.48 0 0 0-.47-.48.48.48 0 0 0-.48.48v1.5l-1.2-1.2a.47.47 0 0 0-.68 0 .48.48 0 0 0 0 .67L6.65 6.2v.95H5.7L3.82 5.27a.48.48 0 0 0-.67 0 .47.47 0 0 0 0 .67l1.2 1.21h-1.5a.48.48 0 0 0-.48.47c0 .27.22.48.48.48h1.5l-1.2 1.2a.47.47 0 0 0 0 .68c.18.18.49.18.67 0L5.7 8.1h.95v.95l-1.88 1.88a.48.48 0 0 0 0 .67c.19.19.49.19.67 0l1.21-1.2v1.5c0 .26.21.47.47.47.27 0 .48-.2.48-.47v-1.5l1.2 1.2c.2.19.5.19.68 0a.48.48 0 0 0 0-.67L7.6 9.05V8.1h.95l1.88 1.88c.18.18.49.18.67 0a.47.47 0 0 0 0-.67L9.9 8.1h1.5c.26 0 .47-.21.47-.47a.48.48 0 0 0-.47-.48Z" fill="#3EC227"/>
  </g>
  <defs>
    <clipPath id="a">
      <path fill="#fff" transform="translate(0 .5)" d="M0 0h38v19H0z"/>
    </clipPath>
  </defs>
</svg>
