<svg width="39" height="41" fill="none" xmlns="http://www.w3.org/2000/svg">
  <path fill-rule="evenodd" clip-rule="evenodd" d="M19.5 1.8c-9.8 0-17.7 8-17.7 17.7v11.1A4.5 4.5 0 0 0 5.5 34l1.5.1h1.7a4.5 4.5 0 0 0 3.5-3.6l.1-1.5V23.4A4.5 4.5 0 0 0 8.5 20L7 19.8H5.4l-1.2.5v-.8a15.3 15.3 0 0 1 30.6 0v.8c-.4-.2-.8-.4-1.2-.4l-1.5-.1h-1.7a4.5 4.5 0 0 0-3.5 3.6l-.1 1.5V30.6a4.5 4.5 0 0 0 3.6 3.5l1.5.1h1.7a4.5 4.5 0 0 0 3.5-3.6l.1-1.5V19.5c0-9.8-8-17.7-17.7-17.7Zm15.3 23V30.2a2 2 0 0 1-1.7 1.6H31a2 2 0 0 1-1.6-1.6V24a2 2 0 0 1 1.6-1.6H33a2 2 0 0 1 1.6 1.6v1ZM7 22.3H5.9A2 2 0 0 0 4.3 24V30a2 2 0 0 0 1.6 1.6H8a2 2 0 0 0 1.6-1.6V24a2 2 0 0 0-1.6-1.6H7Z" fill="#3EC227"/>
  <path d="M32 33v.5a4 4 0 0 1-4 4h-4" stroke="#3EC227" stroke-width="2" stroke-linecap="round"/>
  <rect x="16" y="35" width="8" height="5" rx="2.5" stroke="#3EC227" stroke-width="2"/>
</svg>
