<svg width="48" height="30" viewBox="0 0 48 30" fill="none" xmlns="http://www.w3.org/2000/svg">
<g clip-path="url(#clip0_118_1966)">
<path d="M33.4689 0.911958C35.1976 0.0982692 36.0556 0.206589 36.0743 1.02827C36.0988 2.09794 35.9329 3.51556 35.8147 4.54516C35.173 10.13 34.0994 14.6939 34.0178 20.4292C36.8431 13.4453 39.2132 8.59171 42.2633 2.61249C43.233 0.710441 43.8504 1.06417 44.646 0.726056C47.7472 -0.591362 47.8634 0.2179 47.4581 1.82647C45.9532 7.79597 42.1087 26.5858 41.5197 29.479C41.3487 30.3159 40.3974 29.9613 40.149 29.6339C39.0454 28.1769 37.8021 28.1541 37.9418 27.1848C38.6333 22.3611 41.1239 10.2587 41.7729 7.40659C38.4609 13.8856 35.0289 21.9844 33.2669 26.5763C32.8925 27.5515 32.2125 27.48 31.7885 26.7664C31.1923 25.7644 30.0359 25.2527 29.8449 24.0685C29.2394 20.3028 30.5364 13.1255 30.7171 8.58458C28.915 13.5447 25.8893 23.1752 24.5639 27.526C24.0159 29.3264 22.1968 29.0325 22.6803 27.2779C24.6946 19.976 29.0323 7.06171 30.911 2.41749C31.3524 1.32643 32.5086 1.36393 33.4689 0.911958ZM22.485 0.0146626C23.0336 0.140687 22.9889 0.758515 22.6537 1.6022C21.6644 4.09159 20.2926 7.36208 18.724 11.2184C19.7101 11.111 20.2449 11.0746 20.2449 11.0746C21.6607 10.9076 21.9243 11.5835 21.5257 12.3029C21.2082 12.8763 20.8257 12.4939 19.5009 14.3795C18.7545 15.442 17.5359 15.7226 16.859 15.8643C15.2285 19.9859 13.4812 24.5834 11.7833 29.4835C11.5362 30.1971 10.8144 30.0407 10.5974 29.7508C9.80005 28.6877 9.21206 28.6525 8.59393 27.7926C8.51963 27.6534 8.37424 27.4641 8.46168 27.1227C8.91626 25.3492 10.123 21.7047 11.9587 16.9066C9.64616 17.3852 7.14418 17.8996 6.11126 18.1288C4.87167 21.2572 3.66272 24.3952 2.51739 27.4952C1.8068 29.4181 -0.0426751 29.0464 0.606355 27.229C1.64017 24.3337 2.78138 21.3268 3.92568 18.4109C2.64462 18.2802 2.21129 17.4165 1.49529 16.6948C1.21881 16.4161 0.616013 16.4553 0.320859 16.0644C-0.210084 15.3622 -0.157157 15.0503 1.06905 14.7125C2.66832 14.2716 4.27681 13.8617 5.8935 13.4832C7.96551 8.37778 9.83791 3.99827 10.8359 1.66134C11.6052 -0.139395 13.5884 0.0283101 12.835 1.8047C11.304 5.41491 9.73424 9.1654 8.18494 12.9685C10.0956 12.5576 12.017 12.1939 13.9474 11.8779C15.3625 8.4091 16.8489 4.96712 18.4056 1.55401C18.5144 1.31585 18.8319 0.978843 19.1626 0.924745C20.2046 0.754458 21.8992 -0.120092 22.485 0.0146626ZM18.937 23.3848C19.0999 23.2897 19.262 23.1739 19.4221 23.0467C19.2989 22.7003 19.1778 22.3533 19.0589 22.0055C18.9382 22.1528 18.8201 22.3019 18.7045 22.4528C18.0109 23.3622 18.4216 23.6858 18.937 23.3848ZM19.8599 19.0735C20.7188 18.1477 19.0208 17.7603 19.4117 19.1763C19.4336 19.2562 19.4609 19.35 19.4916 19.4534C19.6172 19.3293 19.74 19.2027 19.8599 19.0735ZM20.7537 21.8639C21.6039 21.1605 22.416 21.8582 21.5753 23.0477C21.3945 23.3034 21.1903 23.5786 20.9663 23.8495C21.0544 24.0918 21.1465 24.3327 21.2427 24.5721C21.6773 25.6361 20.536 25.9029 20.168 25.0216C20.1359 24.9447 20.1024 24.8622 20.0679 24.7763C19.3741 25.3631 18.5717 25.7325 17.7145 25.478C16.3039 25.0591 15.9451 23.1629 17.262 21.7021C17.7903 21.116 18.188 20.7094 18.5202 20.3845C18.4388 20.1326 18.3607 19.8797 18.286 19.6259C18.115 19.0345 17.9606 18.3453 18.5805 17.6427C19.743 16.3257 22.44 17.4948 21.0758 19.5225C20.7472 20.0109 20.363 20.4722 19.9623 20.9398C20.0998 21.3577 20.2398 21.7749 20.3821 22.1914C20.5031 22.0793 20.627 21.9701 20.7537 21.8639Z" fill="#233441"/>
</g>
<defs>
<clipPath id="clip0_118_1966">
<rect width="47.6471" height="30" fill="white"/>
</clipPath>
</defs>
</svg>
