<svg width="73" height="91" fill="none" xmlns="http://www.w3.org/2000/svg"><path d="m37 7.3 2 1.5-2-1.5Zm-31.2 39 2 1.5-2-1.6Zm31 37.4-2-1.5 2 1.5ZM45.4 38l-1.2 2.2 1.2-2.2Zm-1.1-1.1L42 38l2.3-1.1Zm26 3.9h2.5-2.5Zm-1-2 1.6-2-1.5 2ZM30.4 87.2l1.8-1.7-1.8 1.7Zm2.2.8.4 2.4-.4-2.4Zm-4.3-35 1.2-2.2-1.2 2.2Zm1.1 1.1-2.2 1.1 2.2-1Zm-26-3.9H.8h2.5Zm1 2-1.6 2 1.5-2ZM41.2 3l.3 2.5-.4-2.5Zm2.2.8-1.9 1.7 1.9-1.7Zm-8.5 2L4 44.6l3.9 3.1 31.1-39-3.9-3ZM9 55.1h16.6v-5H9v5ZM27 56.7v24.5h5V56.7h-5Zm11.6 28.6 31.2-39-4-3.1-31.1 39 3.9 3Zm26-49.6H48.2v5h16.7v-5Zm-18-1.5V9.8h-5v24.4h5Zm1.4 1.5h-1.4c-.3 0-.2 0 0 0l-2.4 4.5a5 5 0 0 0 2 .5H48v-5Zm-6.5-1.5v1.9c0 .6.2 1.2.5 2l4.5-2.4c0 .2 0 .2 0 0v-1.5h-5Zm5 1.5L42.1 38a5 5 0 0 0 2.2 2.2l2.3-4.5ZM70 46.3l-4-3.1 4 3.1Zm0 0 2-2.6c.4-.7 1-1.7 1-3h-5c0-.3.2-.3-.2.2L66 43.2l3.9 3.1Zm-5.1-5.6 2.8.1c.7 0 .6.2.3 0l3.1-4c-1-.7-2-.9-3-1h-3.2v5Zm8.1 0a5 5 0 0 0-1.9-3.9l-3.1 4h5ZM27.1 81.3l.1 4.3c0 1 .3 2.3 1.2 3.4l3.7-3.4c.3.3.2.5 0-.5v-3.8h-5Zm7.7 1a52.6 52.6 0 0 1-2.5 2.9c-.6.7-.6.5-.2.4l.8 5a5.6 5.6 0 0 0 3-2l2.8-3.2-4-3.1Zm-6.4 6.7a5 5 0 0 0 4.5 1.5l-.8-4.9-3.7 3.4Zm-2.8-33.7H27c.3.1.2.1.1 0l2.3-4.4a5 5 0 0 0-2-.5h-1.8v5Zm6.5 1.5V55a5 5 0 0 0-.5-2L27 55.3v1.5h5Zm-5-1.5 4.5-2.2a5 5 0 0 0-2.2-2.2L27 55.2ZM4 44.7c-.8 1-1.6 1.9-2 2.6-.5.7-1 1.7-1 3h5c0 .3-.2.3.1-.2l1.8-2.3-4-3.1Zm5 5.5H6.1c-.7 0-.6-.2-.3 0l-3.1 4c1 .7 2 .9 3 1h3.2v-5Zm-8 0c-.1 1.6.6 3 1.8 4l3.1-4h-5Zm38-41.4L41.4 6c.6-.7.6-.5.2-.4l-.8-5a5.6 5.6 0 0 0-3 2L35 5.7l4 3.1Zm7.7 1V5.5c-.2-1-.4-2.3-1.3-3.4l-3.7 3.4c-.3-.3-.1-.5 0 .5v3.8h5Zm-5-4.3 3.7-3.4A5 5 0 0 0 40.8.6l.8 4.9Z" fill="#E4E9EC"/></svg>
