<svg width="40" height="40" fill="none" xmlns="http://www.w3.org/2000/svg">
  <path fill-rule="evenodd" clip-rule="evenodd" d="M21.8 4.6c-.3-.3-.7-.4-1.2-.4l-.2.2c-.2 0-.4.3-.7.6l-2.5 3-7.7 9.6a37.5 37.5 0 0 0-2.2 3.2c0 .4.2.8.5 1a37.5 37.5 0 0 0 3.9.3h2.7c.5 0 1 .2 1.5.4.7.4 1.2 1 1.6 1.6l.4 1.5v4.7a53.3 53.3 0 0 0 .2 4.8l.1.3c.3.3.7.4 1.2.4l.2-.2c.2 0 .4-.3.7-.6l2.5-3 7.7-9.6a37.4 37.4 0 0 0 2.2-3.2c0-.4-.2-.8-.5-1 0 0-.2-.2-.9-.2h-4l-1.7-.1c-.5 0-1-.2-1.5-.4-.7-.4-1.2-1-1.6-1.6l-.4-1.5V9.7a53.4 53.4 0 0 0-.3-5Zm-1.5-2.8c1.2-.2 2.5.2 3.3 1.1.6.7.8 1.7.9 2.7v7.1a21.2 21.2 0 0 0 .2 2c.1.3.3.5.6.6h.5l1.5.1h4.2c.8.2 1.7.3 2.3.8.9.7 1.4 1.8 1.4 3 0 .8-.4 1.5-.8 2.2l-2 2.5-7.6 9.6a54 54 0 0 1-2.7 3.2c-.6.7-1.4 1.4-2.4 1.5-1.2.2-2.5-.2-3.3-1.1-.6-.7-.8-1.7-.9-2.7v-7.1a21.3 21.3 0 0 0-.2-2c-.1-.3-.3-.5-.6-.6h-.5l-1.5-.1H8.5c-.8-.2-1.7-.3-2.3-.8a3.8 3.8 0 0 1-1.4-3c0-.8.4-1.5.8-2.2l2-2.5 7.6-9.6A54 54 0 0 1 18 3.2c.6-.7 1.4-1.4 2.4-1.5Z" fill="#3EC227"/>
</svg>
