<svg width="40" height="40" fill="none" xmlns="http://www.w3.org/2000/svg">
  <path fill-rule="evenodd" clip-rule="evenodd" d="M19.6 2h.7c1.4 0 2.5 0 3.4.2 1 0 1.7.2 2.5.6 1.1.6 2.1 1.5 2.7 2.7.4.7.5 1.5.6 2.4v4.4c1 0 1.7.3 2.4.6a8 8 0 0 1 3.5 3.5c.5 1 .7 2 .8 3.1v11a8.1 8.1 0 0 1-.8 3 8 8 0 0 1-3.5 3.6c-.9.4-1.9.6-3 .7l-4.5.1H11.1A8.1 8.1 0 0 1 8 37a8 8 0 0 1-3.5-3.5c-.5-1-.7-2-.8-3.1v-11c.1-1.2.3-2.2.8-3a8 8 0 0 1 3.5-3.6c.7-.3 1.5-.5 2.3-.6V7.9c.2-.9.3-1.7.7-2.4a6.2 6.2 0 0 1 2.7-2.7c.8-.4 1.6-.6 2.5-.6l3.3-.1Zm7.5 9.3v.8H12.9V8.2l.4-1.6c.4-.7 1-1.2 1.7-1.6a4 4 0 0 1 1.5-.4h7A4 4 0 0 1 25 5c.7.4 1.3 1 1.7 1.6.1.4.3.8.3 1.6v3.1Zm-15.7 3.4c-1 0-1.7.2-2.2.5-1 .5-1.8 1.3-2.4 2.3-.2.5-.4 1.2-.5 2.2v10.6c.1 1 .3 1.7.5 2.2.6 1 1.4 1.8 2.4 2.3.5.3 1.2.4 2.2.5l4.3.1H28.6c1-.2 1.7-.3 2.2-.6 1-.5 1.8-1.3 2.4-2.3.2-.5.4-1.2.5-2.2V19.7c-.1-1-.3-1.7-.5-2.2-.6-1-1.4-1.8-2.4-2.3-.5-.3-1.2-.4-2.2-.5l-4.3-.1h-8.6a58 58 0 0 0-4.3 0Zm9.8 8.6a1.2 1.2 0 1 0-2.4 0v3.4a1.2 1.2 0 1 0 2.4 0v-3.4Z" fill="#3EC227"/>
</svg>
