<svg width="279" height="57" viewBox="0 0 279 57" fill="none" xmlns="http://www.w3.org/2000/svg">
<path d="M3.78 10.07C3.34667 10.07 2.95 9.97 2.59 9.77C2.23667 9.57 1.95333 9.27 1.74 8.87C1.53333 8.46333 1.43 7.95 1.43 7.33C1.43 6.70333 1.53 6.19 1.73 5.79C1.93667 5.39 2.21667 5.09333 2.57 4.9C2.92333 4.7 3.32667 4.6 3.78 4.6C4.30667 4.6 4.77 4.71333 5.17 4.94C5.57667 5.16667 5.89667 5.48333 6.13 5.89C6.37 6.29667 6.49 6.77667 6.49 7.33C6.49 7.88333 6.37 8.36667 6.13 8.78C5.89667 9.18667 5.57667 9.50333 5.17 9.73C4.77 9.95667 4.30667 10.07 3.78 10.07ZM0.82 11.94V4.66H2.01V5.92L1.97 7.34L2.07 8.76V11.94H0.82ZM3.64 9C3.94 9 4.20667 8.93333 4.44 8.8C4.68 8.66667 4.87 8.47333 5.01 8.22C5.15 7.96667 5.22 7.67 5.22 7.33C5.22 6.98333 5.15 6.68667 5.01 6.44C4.87 6.18667 4.68 5.99333 4.44 5.86C4.20667 5.72667 3.94 5.66 3.64 5.66C3.34 5.66 3.07 5.72667 2.83 5.86C2.59 5.99333 2.4 6.18667 2.26 6.44C2.12 6.68667 2.05 6.98333 2.05 7.33C2.05 7.67 2.12 7.96667 2.26 8.22C2.4 8.47333 2.59 8.66667 2.83 8.8C3.07 8.93333 3.34 9 3.64 9ZM7.47547 10V4.66H8.66547V6.13L8.52547 5.7C8.68547 5.34 8.93547 5.06667 9.27547 4.88C9.62214 4.69333 10.0521 4.6 10.5655 4.6V5.79C10.5121 5.77667 10.4621 5.77 10.4155 5.77C10.3688 5.76333 10.3221 5.76 10.2755 5.76C9.80214 5.76 9.42547 5.9 9.14547 6.18C8.86547 6.45333 8.72547 6.86333 8.72547 7.41V10H7.47547ZM13.887 10.07C13.2937 10.07 12.7737 9.95333 12.327 9.72C11.887 9.48 11.5437 9.15333 11.297 8.74C11.057 8.32667 10.937 7.85667 10.937 7.33C10.937 6.79667 11.0537 6.32667 11.287 5.92C11.527 5.50667 11.8537 5.18333 12.267 4.95C12.687 4.71667 13.1637 4.6 13.697 4.6C14.217 4.6 14.6804 4.71333 15.087 4.94C15.4937 5.16667 15.8137 5.48667 16.047 5.9C16.2804 6.31333 16.397 6.8 16.397 7.36C16.397 7.41333 16.3937 7.47333 16.387 7.54C16.387 7.60667 16.3837 7.67 16.377 7.73H11.927V6.9H15.717L15.227 7.16C15.2337 6.85333 15.1704 6.58333 15.037 6.35C14.9037 6.11667 14.7204 5.93333 14.487 5.8C14.2604 5.66667 13.997 5.6 13.697 5.6C13.3904 5.6 13.1204 5.66667 12.887 5.8C12.6604 5.93333 12.4804 6.12 12.347 6.36C12.2204 6.59333 12.157 6.87 12.157 7.19V7.39C12.157 7.71 12.2304 7.99333 12.377 8.24C12.5237 8.48667 12.7304 8.67667 12.997 8.81C13.2637 8.94333 13.5704 9.01 13.917 9.01C14.217 9.01 14.487 8.96333 14.727 8.87C14.967 8.77667 15.1804 8.63 15.367 8.43L16.037 9.2C15.797 9.48 15.4937 9.69667 15.127 9.85C14.767 9.99667 14.3537 10.07 13.887 10.07ZM18.7201 10L16.4301 4.66H17.7301L19.7001 9.37H19.0601L21.1001 4.66H22.3001L20.0101 10H18.7201ZM22.8813 10V4.66H24.1313V10H22.8813ZM23.5113 3.78C23.278 3.78 23.0847 3.70667 22.9313 3.56C22.7847 3.41333 22.7113 3.23667 22.7113 3.03C22.7113 2.81667 22.7847 2.64 22.9313 2.5C23.0847 2.35333 23.278 2.28 23.5113 2.28C23.7447 2.28 23.9347 2.35 24.0813 2.49C24.2347 2.62333 24.3113 2.79333 24.3113 3C24.3113 3.22 24.238 3.40667 24.0913 3.56C23.9447 3.70667 23.7513 3.78 23.5113 3.78ZM27.972 10.07C27.4253 10.07 26.9386 9.95333 26.512 9.72C26.0853 9.48 25.7486 9.15333 25.502 8.74C25.2553 8.32667 25.132 7.85667 25.132 7.33C25.132 6.79667 25.2553 6.32667 25.502 5.92C25.7486 5.50667 26.0853 5.18333 26.512 4.95C26.9386 4.71667 27.4253 4.6 27.972 4.6C28.5253 4.6 29.0153 4.71667 29.442 4.95C29.8753 5.18333 30.212 5.50333 30.452 5.91C30.6986 6.31667 30.822 6.79 30.822 7.33C30.822 7.85667 30.6986 8.32667 30.452 8.74C30.212 9.15333 29.8753 9.48 29.442 9.72C29.0153 9.95333 28.5253 10.07 27.972 10.07ZM27.972 9C28.2786 9 28.552 8.93333 28.792 8.8C29.032 8.66667 29.2186 8.47333 29.352 8.22C29.492 7.96667 29.562 7.67 29.562 7.33C29.562 6.98333 29.492 6.68667 29.352 6.44C29.2186 6.18667 29.032 5.99333 28.792 5.86C28.552 5.72667 28.282 5.66 27.982 5.66C27.6753 5.66 27.402 5.72667 27.162 5.86C26.9286 5.99333 26.742 6.18667 26.602 6.44C26.462 6.68667 26.392 6.98333 26.392 7.33C26.392 7.67 26.462 7.96667 26.602 8.22C26.742 8.47333 26.9286 8.66667 27.162 8.8C27.402 8.93333 27.672 9 27.972 9ZM34.0773 10.07C33.6239 10.07 33.2239 9.98667 32.8773 9.82C32.5306 9.64667 32.2606 9.38667 32.0673 9.04C31.8739 8.68667 31.7773 8.24333 31.7773 7.71V4.66H33.0273V7.54C33.0273 8.02 33.1339 8.38 33.3473 8.62C33.5673 8.85333 33.8773 8.97 34.2773 8.97C34.5706 8.97 34.8239 8.91 35.0373 8.79C35.2573 8.67 35.4273 8.49 35.5473 8.25C35.6739 8.01 35.7373 7.71333 35.7373 7.36V4.66H36.9873V10H35.7973V8.56L36.0073 9C35.8273 9.34667 35.5639 9.61333 35.2173 9.8C34.8706 9.98 34.4906 10.07 34.0773 10.07ZM40.0739 10.07C39.6272 10.07 39.1972 10.0133 38.7839 9.9C38.3772 9.78 38.0539 9.63667 37.8139 9.47L38.2939 8.52C38.5339 8.67333 38.8206 8.8 39.1539 8.9C39.4872 9 39.8206 9.05 40.1539 9.05C40.5472 9.05 40.8306 8.99667 41.0039 8.89C41.1839 8.78333 41.2739 8.64 41.2739 8.46C41.2739 8.31333 41.2139 8.20333 41.0939 8.13C40.9739 8.05 40.8172 7.99 40.6239 7.95C40.4306 7.91 40.2139 7.87333 39.9739 7.84C39.7406 7.80667 39.5039 7.76333 39.2639 7.71C39.0306 7.65 38.8172 7.56667 38.6239 7.46C38.4306 7.34667 38.2739 7.19667 38.1539 7.01C38.0339 6.82333 37.9739 6.57667 37.9739 6.27C37.9739 5.93 38.0706 5.63667 38.2639 5.39C38.4572 5.13667 38.7272 4.94333 39.0739 4.81C39.4272 4.67 39.8439 4.6 40.3239 4.6C40.6839 4.6 41.0472 4.64 41.4139 4.72C41.7806 4.8 42.0839 4.91333 42.3239 5.06L41.8439 6.01C41.5906 5.85667 41.3339 5.75333 41.0739 5.7C40.8206 5.64 40.5672 5.61 40.3139 5.61C39.9339 5.61 39.6506 5.66667 39.4639 5.78C39.2839 5.89333 39.1939 6.03667 39.1939 6.21C39.1939 6.37 39.2539 6.49 39.3739 6.57C39.4939 6.65 39.6506 6.71333 39.8439 6.76C40.0372 6.80667 40.2506 6.84667 40.4839 6.88C40.7239 6.90667 40.9606 6.95 41.1939 7.01C41.4272 7.07 41.6406 7.15333 41.8339 7.26C42.0339 7.36 42.1939 7.50333 42.3139 7.69C42.4339 7.87667 42.4939 8.12 42.4939 8.42C42.4939 8.75333 42.3939 9.04333 42.1939 9.29C42.0006 9.53667 41.7239 9.73 41.3639 9.87C41.0039 10.0033 40.5739 10.07 40.0739 10.07ZM43.3704 10V2.58H44.6204V10H43.3704ZM46.501 12.01C46.241 12.01 45.981 11.9667 45.721 11.88C45.461 11.7933 45.2443 11.6733 45.071 11.52L45.571 10.6C45.6977 10.7133 45.841 10.8033 46.001 10.87C46.161 10.9367 46.3243 10.97 46.491 10.97C46.7177 10.97 46.901 10.9133 47.041 10.8C47.181 10.6867 47.311 10.4967 47.431 10.23L47.741 9.53L47.841 9.38L49.861 4.66H51.061L48.561 10.43C48.3943 10.83 48.2077 11.1467 48.001 11.38C47.801 11.6133 47.5743 11.7767 47.321 11.87C47.0743 11.9633 46.801 12.01 46.501 12.01ZM47.601 10.19L45.191 4.66H46.491L48.451 9.27L47.601 10.19Z" fill="#233441"/>
<g clip-path="url(#clip0_31_8418)">
<path d="M142.391 24.1358L138.201 28.3256L141.406 31.527H134.852C134.489 28.6669 133.095 26.037 130.931 24.1297C128.766 22.2225 125.98 21.1687 123.094 21.1658H117.134C114.247 21.1697 111.46 22.2244 109.295 24.1323C107.13 26.0403 105.735 28.6709 105.372 31.5318H111.4C111.733 30.2631 112.477 29.1401 113.516 28.3378C114.555 27.5355 115.83 27.0989 117.143 27.0961H123.109C124.421 27.0986 125.695 27.5352 126.733 28.3377C127.77 29.1402 128.512 30.2634 128.843 31.5318H123.075V37.4622H128.838C128.51 38.7327 127.769 39.8584 126.731 40.6623C125.693 41.4661 124.417 41.9025 123.104 41.9027H117.139C115.826 41.9003 114.552 41.4637 113.515 40.6612C112.477 39.8586 111.735 38.7354 111.405 37.467H102.331V31.5318H93.426V37.4622H102.331C102.331 38.9954 101.332 41.8979 97.5285 41.8979H90.4721C87.1901 41.8979 84.5211 39.2365 84.5211 35.9579V33.0265C84.5211 29.7479 87.1853 27.0817 90.4721 27.0817H102.331V21.1561H90.4721C87.3201 21.1587 84.2979 22.4106 82.0691 24.6371C79.8403 26.8636 78.587 29.8826 78.5845 33.0313V35.9724C78.5883 39.1203 79.8421 42.138 82.0708 44.3635C84.2995 46.5889 87.3209 47.8402 90.4721 47.8427H97.5285C102.244 47.8427 105.492 45.4079 107.09 42.2643C108.154 43.9704 109.635 45.3777 111.394 46.3537C113.153 47.3296 115.131 47.8421 117.143 47.8427H123.109C125.996 47.8374 128.782 46.7816 130.946 44.8728C133.11 42.9639 134.504 40.3329 134.866 37.4718H141.43L138.211 40.6877L142.41 44.8776L152.777 34.5163L142.391 24.1358Z" fill="#3EC227"/>
<path d="M75.9981 45.9778H74.1254V47.8437H75.9981V45.9778ZM72.0307 42.3328V43.7551L69.1637 41.2046C68.9996 41.0696 68.9224 40.8671 68.961 40.6646C68.9851 40.4717 69.1106 40.3126 69.2892 40.2113C69.4823 40.1101 69.7043 40.0571 69.9167 40.0571H74.1398V38.1912H69.9215C69.3133 38.1912 68.7197 38.3406 68.2033 38.6058C67.8503 38.7826 67.5448 39.0411 67.3123 39.3598C67.0797 39.6785 66.9268 40.0482 66.8663 40.4379C66.8203 40.7619 66.8448 41.092 66.938 41.4057C67.0313 41.7194 67.1913 42.0093 67.4069 42.2556C67.0448 42.4916 66.7358 42.8003 66.4995 43.1621C66.2104 43.5964 66.056 44.1062 66.0555 44.6278V44.8688C66.0555 46.5081 67.5613 47.8292 69.4051 47.8292H70.7661C72.6098 47.8292 74.1254 46.4937 74.1254 44.8544V42.3183H72.0307V42.3279V42.3328ZM68.9127 43.6297L71.3984 45.8379C71.2053 45.9344 70.993 45.9874 70.7806 45.9874H69.4147C68.7342 45.9874 68.1791 45.4956 68.1791 44.8929V44.6519C68.1791 44.4108 68.266 44.1842 68.4301 43.9962C68.5459 43.8178 68.7197 43.7069 68.9127 43.6297ZM42.618 34.4931H40.002C36.7297 34.4931 34.0751 31.8413 34.0751 28.5772V28.0613C34.0751 24.7924 36.7297 22.1406 40.002 22.1406H42.6421C45.9097 22.1406 48.5642 24.7924 48.5642 28.0613V28.5531C48.5642 31.8317 45.9 34.4931 42.6132 34.4931H42.618ZM39.9972 25.1974C39.236 25.2 38.5068 25.5038 37.9694 26.0425C37.432 26.5811 37.1302 27.3105 37.1303 28.071V28.5917C37.1315 29.3509 37.434 30.0786 37.9714 30.6154C38.5088 31.1522 39.2372 31.4543 39.9972 31.4556H42.6083C43.3764 31.4556 44.113 31.1508 44.656 30.6083C45.1991 30.0658 45.5042 29.33 45.5042 28.5628V28.071C45.503 27.3118 45.2005 26.5841 44.6631 26.0473C44.1257 25.5105 43.3973 25.2083 42.6373 25.2071H39.9972V25.1974ZM26.372 34.4931H24.1373C21.0966 34.4931 18.6303 32.0197 18.6303 28.9967V22.4203H21.6855V29.0063C21.6855 29.3293 21.7491 29.649 21.8728 29.9473C21.9965 30.2457 22.1778 30.5167 22.4064 30.7451C22.635 30.9734 22.9063 31.1545 23.205 31.2781C23.5036 31.4017 23.8237 31.4653 24.147 31.4653H26.3865C27.7379 31.4653 28.848 30.366 28.848 29.0063V22.4203H31.9032V29.0063C31.893 30.4651 31.3057 31.8606 30.2695 32.8884C29.2333 33.9163 27.8323 34.4932 26.372 34.4931ZM60.4278 22.1551H50.0267V25.1926H53.7045V34.4979H56.7451V25.1878H60.4229V22.1503L60.4278 22.1551ZM74.1254 25.1974V22.1551H63.0003V34.4979H74.1254V31.4556H66.0458V29.826H74.1254V27.1404H66.0458V25.1974H74.1254ZM11.4388 31.4556H5.92694C5.16697 31.4543 4.4385 31.1522 3.90112 30.6154C3.36374 30.0786 3.06128 29.3509 3.06 28.5917V28.071C3.06 26.4799 4.34868 25.1974 5.92694 25.1974H8.56703C9.327 25.1987 10.0555 25.5008 10.5929 26.0376C11.1302 26.5745 11.4327 27.3022 11.434 28.0613V31.4556H14.494V28.071C14.494 24.8021 11.8394 22.1551 8.56703 22.1551H5.92694C2.65457 22.1551 0 24.8069 0 28.071V28.5917C0 31.8558 2.65457 34.5076 5.92211 34.5076H11.4436V31.4556H11.4388ZM17.5298 31.4653H14.4891V34.5028H17.5298V31.4653Z" fill="#233441"/>
</g>
<path d="M164.557 38.5699C164.104 38.5699 163.701 38.4699 163.347 38.2699C162.994 38.0699 162.714 37.7699 162.507 37.3699C162.307 36.9633 162.207 36.4499 162.207 35.8299C162.207 35.2033 162.311 34.6899 162.517 34.2899C162.731 33.8899 163.014 33.5933 163.367 33.3999C163.727 33.1999 164.124 33.0999 164.557 33.0999C165.084 33.0999 165.547 33.2133 165.947 33.4399C166.354 33.6666 166.674 33.9833 166.907 34.3899C167.147 34.7966 167.267 35.2766 167.267 35.8299C167.267 36.3833 167.147 36.8633 166.907 37.2699C166.674 37.6766 166.354 37.9966 165.947 38.2299C165.547 38.4566 165.084 38.5699 164.557 38.5699ZM161.597 38.4999V31.0799H162.847V34.3999L162.747 35.8199L162.787 37.2399V38.4999H161.597ZM164.417 37.4999C164.717 37.4999 164.984 37.4333 165.217 37.2999C165.457 37.1666 165.647 36.9733 165.787 36.7199C165.927 36.4666 165.997 36.1699 165.997 35.8299C165.997 35.4833 165.927 35.1866 165.787 34.9399C165.647 34.6866 165.457 34.4933 165.217 34.3599C164.984 34.2266 164.717 34.1599 164.417 34.1599C164.117 34.1599 163.847 34.2266 163.607 34.3599C163.367 34.4933 163.177 34.6866 163.037 34.9399C162.897 35.1866 162.827 35.4833 162.827 35.8299C162.827 36.1699 162.897 36.4666 163.037 36.7199C163.177 36.9733 163.367 37.1666 163.607 37.2999C163.847 37.4333 164.117 37.4999 164.417 37.4999ZM168.546 40.5099C168.286 40.5099 168.026 40.4666 167.766 40.3799C167.506 40.2933 167.29 40.1733 167.116 40.0199L167.616 39.0999C167.743 39.2133 167.886 39.3033 168.046 39.3699C168.206 39.4366 168.37 39.4699 168.536 39.4699C168.763 39.4699 168.946 39.4133 169.086 39.2999C169.226 39.1866 169.356 38.9966 169.476 38.7299L169.786 38.0299L169.886 37.8799L171.906 33.1599H173.106L170.606 38.9299C170.44 39.3299 170.253 39.6466 170.046 39.8799C169.846 40.1133 169.62 40.2766 169.366 40.3699C169.12 40.4633 168.846 40.5099 168.546 40.5099ZM169.646 38.6899L167.236 33.1599H168.536L170.496 37.7699L169.646 38.6899Z" fill="#233441"/>
<g clip-path="url(#clip1_31_8418)">
<mask id="path-5-outside-1_31_8418" maskUnits="userSpaceOnUse" x="215.115" y="50.9386" width="44" height="7" fill="black">
<rect fill="white" x="215.115" y="50.9386" width="44" height="7"/>
<path d="M255.505 56.2355C255.74 56.4243 256.077 56.5204 256.515 56.5204C256.825 56.5204 257.099 56.4391 257.336 56.2773C257.572 56.1159 257.723 55.8668 257.794 55.5298C257.834 55.2944 257.757 55.0968 257.561 54.9355C257.476 54.8515 257.374 54.7736 257.254 54.6984C257.135 54.6249 257.013 54.5513 256.888 54.4778C256.765 54.3988 256.648 54.3165 256.535 54.2287C256.417 54.1463 256.316 54.053 256.229 53.9521C256.04 53.7534 255.973 53.5026 256.027 53.1975C256.107 52.8046 256.318 52.4962 256.656 52.2701C256.985 52.0527 257.366 51.9419 257.801 51.9386C257.925 51.9386 258.071 51.9474 258.238 51.9655C258.403 51.994 258.564 52.0379 258.718 52.0972L258.558 52.5324C258.346 52.4138 258.065 52.3529 257.713 52.3529C257.589 52.3529 257.465 52.3644 257.34 52.3875C257.214 52.4149 257.092 52.4643 256.973 52.5324C256.864 52.5933 256.767 52.6762 256.682 52.7821C256.596 52.8929 256.539 53.0274 256.508 53.1838C256.486 53.2996 256.497 53.4055 256.542 53.5026C256.589 53.5998 256.656 53.6848 256.743 53.7583C256.834 53.8374 256.939 53.9109 257.06 53.9795C257.175 54.053 257.294 54.1288 257.417 54.2078C257.681 54.3461 257.901 54.5217 258.077 54.7335C258.164 54.8361 258.226 54.9558 258.263 55.0941C258.297 55.2324 258.297 55.3915 258.262 55.571C258.159 56.0511 257.925 56.4002 257.555 56.6158C257.191 56.8293 256.811 56.9347 256.413 56.9347C255.945 56.9243 255.594 56.8513 255.363 56.7141L255.505 56.2355ZM251.862 52.0204H254.229L254.149 52.4363H252.259L251.927 54.1601H253.719L253.64 54.5749H251.847L251.488 56.4369H253.461L253.381 56.8529H250.93L251.862 52.0204ZM249.136 52.0204H249.614L248.681 56.8524H248.205L249.136 52.0204ZM244.303 54.1595H244.808C245.108 54.1633 245.392 54.0991 245.662 53.9652C245.938 53.8313 246.112 53.5998 246.184 53.2727C246.223 53.074 246.22 52.9176 246.178 52.8029C246.135 52.6866 246.064 52.6037 245.963 52.5532C245.862 52.4978 245.741 52.4632 245.595 52.449C245.449 52.4396 245.294 52.4363 245.127 52.4363H244.636L244.303 54.1595ZM244.238 52.0204H245.484C246.41 52.0061 246.803 52.4243 246.662 53.2732C246.596 53.5871 246.444 53.8379 246.205 54.0278C245.964 54.2221 245.686 54.3417 245.374 54.3867L245.371 54.401C245.55 54.424 245.673 54.4833 245.736 54.5804C245.774 54.6271 245.802 54.6847 245.821 54.7533C245.845 54.823 245.864 54.8993 245.881 54.9821L246.343 56.8513H245.818L245.434 55.2165C245.363 54.9168 245.264 54.7297 245.141 54.6562C245.08 54.615 245.007 54.5903 244.92 54.5799C244.834 54.576 244.733 54.5733 244.617 54.5733H244.222L243.783 56.8507H243.305L244.238 52.0204ZM239.638 52.0204H242.005L241.925 52.4363H240.036L239.703 54.1601H241.496L241.416 54.5749H239.622L239.264 56.4369H241.236L241.156 56.8529H238.705L239.638 52.0204ZM235.108 56.8518H234.595L233.728 52.0198H234.233L234.95 56.3738L237.397 52.0198H237.875L235.108 56.8518ZM231.558 52.0204H232.034L231.103 56.8524H230.625L231.558 52.0204ZM227.378 52.0204H227.856L227.003 56.4364H228.941L228.861 56.8524H226.447L227.378 52.0204ZM222.833 52.0204H225.199L225.119 52.4363H223.229L222.897 54.1601H224.691L224.611 54.5749H222.817L222.458 56.4369H224.431L224.351 56.8529H221.9L222.833 52.0204ZM216.674 56.4364H217.068C218.534 56.4688 219.419 55.7899 219.724 54.4015C219.855 53.6727 219.765 53.1569 219.454 52.8578C219.136 52.5719 218.699 52.4314 218.144 52.4363H217.445L216.674 56.4364ZM217.048 52.0204H218.246C219.101 52.0297 219.68 52.253 219.978 52.6921C220.266 53.1305 220.34 53.7095 220.196 54.429C220.021 55.2916 219.64 55.9134 219.055 56.2921C218.475 56.6658 217.777 56.8524 216.961 56.8524H216.115L217.048 52.0204Z"/>
</mask>
<path d="M255.505 56.2355C255.74 56.4243 256.077 56.5204 256.515 56.5204C256.825 56.5204 257.099 56.4391 257.336 56.2773C257.572 56.1159 257.723 55.8668 257.794 55.5298C257.834 55.2944 257.757 55.0968 257.561 54.9355C257.476 54.8515 257.374 54.7736 257.254 54.6984C257.135 54.6249 257.013 54.5513 256.888 54.4778C256.765 54.3988 256.648 54.3165 256.535 54.2287C256.417 54.1463 256.316 54.053 256.229 53.9521C256.04 53.7534 255.973 53.5026 256.027 53.1975C256.107 52.8046 256.318 52.4962 256.656 52.2701C256.985 52.0527 257.366 51.9419 257.801 51.9386C257.925 51.9386 258.071 51.9474 258.238 51.9655C258.403 51.994 258.564 52.0379 258.718 52.0972L258.558 52.5324C258.346 52.4138 258.065 52.3529 257.713 52.3529C257.589 52.3529 257.465 52.3644 257.34 52.3875C257.214 52.4149 257.092 52.4643 256.973 52.5324C256.864 52.5933 256.767 52.6762 256.682 52.7821C256.596 52.8929 256.539 53.0274 256.508 53.1838C256.486 53.2996 256.497 53.4055 256.542 53.5026C256.589 53.5998 256.656 53.6848 256.743 53.7583C256.834 53.8374 256.939 53.9109 257.06 53.9795C257.175 54.053 257.294 54.1288 257.417 54.2078C257.681 54.3461 257.901 54.5217 258.077 54.7335C258.164 54.8361 258.226 54.9558 258.263 55.0941C258.297 55.2324 258.297 55.3915 258.262 55.571C258.159 56.0511 257.925 56.4002 257.555 56.6158C257.191 56.8293 256.811 56.9347 256.413 56.9347C255.945 56.9243 255.594 56.8513 255.363 56.7141L255.505 56.2355ZM251.862 52.0204H254.229L254.149 52.4363H252.259L251.927 54.1601H253.719L253.64 54.5749H251.847L251.488 56.4369H253.461L253.381 56.8529H250.93L251.862 52.0204ZM249.136 52.0204H249.614L248.681 56.8524H248.205L249.136 52.0204ZM244.303 54.1595H244.808C245.108 54.1633 245.392 54.0991 245.662 53.9652C245.938 53.8313 246.112 53.5998 246.184 53.2727C246.223 53.074 246.22 52.9176 246.178 52.8029C246.135 52.6866 246.064 52.6037 245.963 52.5532C245.862 52.4978 245.741 52.4632 245.595 52.449C245.449 52.4396 245.294 52.4363 245.127 52.4363H244.636L244.303 54.1595ZM244.238 52.0204H245.484C246.41 52.0061 246.803 52.4243 246.662 53.2732C246.596 53.5871 246.444 53.8379 246.205 54.0278C245.964 54.2221 245.686 54.3417 245.374 54.3867L245.371 54.401C245.55 54.424 245.673 54.4833 245.736 54.5804C245.774 54.6271 245.802 54.6847 245.821 54.7533C245.845 54.823 245.864 54.8993 245.881 54.9821L246.343 56.8513H245.818L245.434 55.2165C245.363 54.9168 245.264 54.7297 245.141 54.6562C245.08 54.615 245.007 54.5903 244.92 54.5799C244.834 54.576 244.733 54.5733 244.617 54.5733H244.222L243.783 56.8507H243.305L244.238 52.0204ZM239.638 52.0204H242.005L241.925 52.4363H240.036L239.703 54.1601H241.496L241.416 54.5749H239.622L239.264 56.4369H241.236L241.156 56.8529H238.705L239.638 52.0204ZM235.108 56.8518H234.595L233.728 52.0198H234.233L234.95 56.3738L237.397 52.0198H237.875L235.108 56.8518ZM231.558 52.0204H232.034L231.103 56.8524H230.625L231.558 52.0204ZM227.378 52.0204H227.856L227.003 56.4364H228.941L228.861 56.8524H226.447L227.378 52.0204ZM222.833 52.0204H225.199L225.119 52.4363H223.229L222.897 54.1601H224.691L224.611 54.5749H222.817L222.458 56.4369H224.431L224.351 56.8529H221.9L222.833 52.0204ZM216.674 56.4364H217.068C218.534 56.4688 219.419 55.7899 219.724 54.4015C219.855 53.6727 219.765 53.1569 219.454 52.8578C219.136 52.5719 218.699 52.4314 218.144 52.4363H217.445L216.674 56.4364ZM217.048 52.0204H218.246C219.101 52.0297 219.68 52.253 219.978 52.6921C220.266 53.1305 220.34 53.7095 220.196 54.429C220.021 55.2916 219.64 55.9134 219.055 56.2921C218.475 56.6658 217.777 56.8524 216.961 56.8524H216.115L217.048 52.0204Z" fill="#CD3E38"/>
<path d="M255.505 56.2355C255.74 56.4243 256.077 56.5204 256.515 56.5204C256.825 56.5204 257.099 56.4391 257.336 56.2773C257.572 56.1159 257.723 55.8668 257.794 55.5298C257.834 55.2944 257.757 55.0968 257.561 54.9355C257.476 54.8515 257.374 54.7736 257.254 54.6984C257.135 54.6249 257.013 54.5513 256.888 54.4778C256.765 54.3988 256.648 54.3165 256.535 54.2287C256.417 54.1463 256.316 54.053 256.229 53.9521C256.04 53.7534 255.973 53.5026 256.027 53.1975C256.107 52.8046 256.318 52.4962 256.656 52.2701C256.985 52.0527 257.366 51.9419 257.801 51.9386C257.925 51.9386 258.071 51.9474 258.238 51.9655C258.403 51.994 258.564 52.0379 258.718 52.0972L258.558 52.5324C258.346 52.4138 258.065 52.3529 257.713 52.3529C257.589 52.3529 257.465 52.3644 257.34 52.3875C257.214 52.4149 257.092 52.4643 256.973 52.5324C256.864 52.5933 256.767 52.6762 256.682 52.7821C256.596 52.8929 256.539 53.0274 256.508 53.1838C256.486 53.2996 256.497 53.4055 256.542 53.5026C256.589 53.5998 256.656 53.6848 256.743 53.7583C256.834 53.8374 256.939 53.9109 257.06 53.9795C257.175 54.053 257.294 54.1288 257.417 54.2078C257.681 54.3461 257.901 54.5217 258.077 54.7335C258.164 54.8361 258.226 54.9558 258.263 55.0941C258.297 55.2324 258.297 55.3915 258.262 55.571C258.159 56.0511 257.925 56.4002 257.555 56.6158C257.191 56.8293 256.811 56.9347 256.413 56.9347C255.945 56.9243 255.594 56.8513 255.363 56.7141L255.505 56.2355ZM251.862 52.0204H254.229L254.149 52.4363H252.259L251.927 54.1601H253.719L253.64 54.5749H251.847L251.488 56.4369H253.461L253.381 56.8529H250.93L251.862 52.0204ZM249.136 52.0204H249.614L248.681 56.8524H248.205L249.136 52.0204ZM244.303 54.1595H244.808C245.108 54.1633 245.392 54.0991 245.662 53.9652C245.938 53.8313 246.112 53.5998 246.184 53.2727C246.223 53.074 246.22 52.9176 246.178 52.8029C246.135 52.6866 246.064 52.6037 245.963 52.5532C245.862 52.4978 245.741 52.4632 245.595 52.449C245.449 52.4396 245.294 52.4363 245.127 52.4363H244.636L244.303 54.1595ZM244.238 52.0204H245.484C246.41 52.0061 246.803 52.4243 246.662 53.2732C246.596 53.5871 246.444 53.8379 246.205 54.0278C245.964 54.2221 245.686 54.3417 245.374 54.3867L245.371 54.401C245.55 54.424 245.673 54.4833 245.736 54.5804C245.774 54.6271 245.802 54.6847 245.821 54.7533C245.845 54.823 245.864 54.8993 245.881 54.9821L246.343 56.8513H245.818L245.434 55.2165C245.363 54.9168 245.264 54.7297 245.141 54.6562C245.08 54.615 245.007 54.5903 244.92 54.5799C244.834 54.576 244.733 54.5733 244.617 54.5733H244.222L243.783 56.8507H243.305L244.238 52.0204ZM239.638 52.0204H242.005L241.925 52.4363H240.036L239.703 54.1601H241.496L241.416 54.5749H239.622L239.264 56.4369H241.236L241.156 56.8529H238.705L239.638 52.0204ZM235.108 56.8518H234.595L233.728 52.0198H234.233L234.95 56.3738L237.397 52.0198H237.875L235.108 56.8518ZM231.558 52.0204H232.034L231.103 56.8524H230.625L231.558 52.0204ZM227.378 52.0204H227.856L227.003 56.4364H228.941L228.861 56.8524H226.447L227.378 52.0204ZM222.833 52.0204H225.199L225.119 52.4363H223.229L222.897 54.1601H224.691L224.611 54.5749H222.817L222.458 56.4369H224.431L224.351 56.8529H221.9L222.833 52.0204ZM216.674 56.4364H217.068C218.534 56.4688 219.419 55.7899 219.724 54.4015C219.855 53.6727 219.765 53.1569 219.454 52.8578C219.136 52.5719 218.699 52.4314 218.144 52.4363H217.445L216.674 56.4364ZM217.048 52.0204H218.246C219.101 52.0297 219.68 52.253 219.978 52.6921C220.266 53.1305 220.34 53.7095 220.196 54.429C220.021 55.2916 219.64 55.9134 219.055 56.2921C218.475 56.6658 217.777 56.8524 216.961 56.8524H216.115L217.048 52.0204Z" stroke="#CD3E38" stroke-width="0.357329" mask="url(#path-5-outside-1_31_8418)"/>
<path d="M210.947 38.8978C210.373 38.8978 209.883 39.1332 209.484 39.6074C209.085 40.0815 208.886 40.6654 208.886 41.3591C208.886 41.8683 209.031 42.2739 209.315 42.5773C209.604 42.8825 209.989 43.0323 210.463 43.0323C211.077 43.0323 211.576 42.8024 211.961 42.3491C212.345 41.8941 212.54 41.2998 212.54 40.571C212.54 40.0519 212.401 39.6425 212.116 39.3478C211.835 39.0487 211.441 38.8978 210.947 38.8978ZM251.498 41.7739H241.463C241.463 42.5324 241.623 43.1212 241.947 43.5416C242.268 43.9603 242.716 44.1705 243.295 44.1705C243.705 44.1705 244.07 44.0695 244.384 43.8703C244.703 43.6705 245.048 43.3215 245.418 42.8227L250.778 43.9647C249.891 45.6423 248.753 46.9006 247.36 47.7491C245.967 48.5975 244.329 49.0211 242.448 49.0211C240.246 49.0211 238.444 48.3626 237.041 47.0411C236.034 46.0901 235.387 44.9503 235.101 43.6173L234.221 48.4537H227.037L228.444 40.8465C228.489 40.5853 228.529 40.3312 228.554 40.0864C228.58 39.8428 228.589 39.6019 228.589 39.373C228.589 39.0981 228.505 38.8736 228.339 38.7041C228.175 38.5329 227.961 38.4494 227.696 38.4494C227.171 38.4494 226.747 38.6931 226.432 39.1777C226.112 39.6677 225.848 40.5112 225.633 41.7086L224.406 48.4531H217.267L218.035 44.3351C217.769 44.8131 217.456 45.2691 217.097 45.7021C216.218 46.7656 215.15 47.5833 213.886 48.1584C212.624 48.7319 211.266 49.0211 209.813 49.0211C207.607 49.0211 205.794 48.3571 204.372 47.0356C203.092 45.8404 202.386 44.3598 202.257 42.5922C201.529 43.7704 200.602 44.7818 199.469 45.6269C198.141 46.6257 196.608 47.3441 194.861 47.788C193.114 48.2331 190.916 48.4526 188.267 48.4526H181.522L185.471 27.0365H191.267C193.059 27.0365 194.557 27.127 195.759 27.3015C196.963 27.476 197.952 27.746 198.721 28.105C200.408 28.9435 201.696 30.0921 202.589 31.5491C203.479 33.0023 203.924 34.6876 203.927 36.5968C204.168 36.2713 204.431 35.9624 204.721 35.6682C205.62 34.7545 206.638 34.0609 207.777 33.5856C208.92 33.1115 210.137 32.8777 211.435 32.8777C213.776 32.8777 215.643 33.5313 217.036 34.844C218.162 35.9048 218.833 37.252 219.05 38.8857L220.086 33.3277H226.786L226.351 35.5085C227.224 34.6195 228.108 33.9555 228.988 33.511C229.872 33.0681 230.764 32.8481 231.673 32.8481C232.982 32.8481 234.03 33.2613 234.823 34.0855C235.617 34.9087 236.017 36.003 236.017 37.3645C236.017 37.415 236.017 37.4671 236.015 37.5193C236.38 36.8371 236.828 36.2197 237.359 35.6682C238.239 34.7638 239.257 34.0647 240.409 33.5763C241.563 33.0917 242.785 32.8475 244.073 32.8475C246.275 32.8475 248.083 33.4857 249.495 34.7633C250.908 36.0408 251.616 37.6586 251.616 39.6216C251.616 39.991 251.607 40.3553 251.586 40.7044C251.568 41.0539 251.538 41.415 251.498 41.7739ZM241.843 38.9587H245.477V38.7392C245.477 38.265 245.347 37.8847 245.088 37.606C244.828 37.331 244.478 37.1916 244.039 37.1916C243.495 37.1916 243.045 37.331 242.697 37.6164C242.341 37.8957 242.057 38.3446 241.843 38.9587ZM253.819 39.9482L256.133 18.5853L269.673 12.721L258.69 39.9482H253.819ZM255.558 48.9328C254.56 48.9328 253.718 48.6112 253.027 47.9713C252.341 47.3265 251.996 46.5527 251.996 45.6423C251.996 44.5102 252.397 43.5492 253.198 42.753C253.998 41.9572 254.978 41.5605 256.137 41.5605C257.154 41.5605 258.005 41.8875 258.696 42.545C259.381 43.1986 259.726 44.013 259.726 44.9843C259.726 46.0424 259.312 46.967 258.484 47.754C257.657 48.5415 256.681 48.9328 255.558 48.9328ZM190.48 42.0138H190.564C192.291 42.0138 193.643 41.5742 194.618 40.695C195.591 39.8214 196.08 38.624 196.08 37.1005C196.08 35.9832 195.73 35.0997 195.031 34.4505C194.338 33.8002 193.389 33.4764 192.186 33.4764H192.041L190.48 42.0138Z" fill="#CD3E38"/>
<path fill-rule="evenodd" clip-rule="evenodd" d="M235.357 17.4842C234.126 15.9252 232.581 14.6899 230.837 13.9046C229.818 13.4458 228.73 13.1423 227.596 13.0155C226.204 12.8114 224.178 12.7982 222.824 12.9497C223.759 13.6642 224.995 15.1733 225.532 16.2813C224.863 15.0383 223.226 13.8277 221.944 13.173C221.941 13.1719 221.939 13.1692 221.936 13.1676C221.08 12.723 220.201 12.4015 219.33 12.2066C219.323 12.2044 219.316 12.2017 219.308 12.1989C219.035 12.1386 218.74 12.0711 218.439 12.0272C218.337 12.0129 218.236 12.0014 218.136 11.9926C217.993 11.9707 217.857 11.9707 217.728 11.9877C217.622 11.9822 217.516 11.9783 217.412 11.9772C216.17 12.6232 214.887 13.6428 214.04 14.5702C214.04 14.5702 212.257 15.5092 211.176 15.8116C211.096 15.8313 211.016 15.8505 210.936 15.8686C210.777 15.9049 210.618 15.9356 210.459 15.963C209.96 15.6272 209.37 15.2847 208.852 15.5416C208.503 15.7144 208.497 16.2028 208.549 16.525C208.61 16.8855 208.785 17.2483 208.994 17.5704C208.184 18.8507 207.946 20.1996 208.837 21.5254C208.677 22.2915 208.203 23.1444 207.822 23.8331L208.165 24.0125C208.966 24.2919 209.908 24.5745 210.747 24.2842C211.108 24.0894 211.459 23.8693 211.744 23.5669C211.914 23.3847 212.295 22.9067 212.295 22.9067C212.295 22.9067 213.27 22.7695 213.748 22.572C214.728 22.1675 215.756 21.1649 215.791 20.0745C215.827 20.9684 215.571 21.7592 214.865 22.347C214.369 22.7591 213.393 23.2887 212.732 23.3095C212.732 23.3095 212.379 23.8111 211.986 24.1404C211.727 24.3583 211.457 24.547 211.166 24.7166C208.5 27.1054 207.242 29.3253 207.002 31.8935C208.054 31.0226 209.889 30.6753 211.468 28.7787C213.985 28.4944 215.996 27.6882 217.309 25.5798C217.026 24.8988 215.789 23.9017 215.157 23.4555C215.986 23.6997 216.859 24.3665 217.55 25.1726C217.551 25.1726 217.551 25.1726 217.551 25.1726C217.573 25.1765 217.562 25.1737 217.552 25.1726C217.56 25.1842 217.566 25.1946 217.574 25.2061C217.615 25.2621 217.654 25.3186 217.691 25.3768C218.486 26.5759 218.78 28.0631 219.014 29.5096C219.013 29.5096 219.012 29.5096 219.011 29.5096C217.476 29.7956 216.886 30.5457 216.48 30.9617H226.418C227.371 29.1903 228.635 26.9644 230.694 26.0468C230.72 26.0573 230.748 26.0545 230.779 26.0622C232.339 26.4282 233.424 28.1426 234.152 29.6523C233.33 29.8899 232.528 30.3696 232.034 30.9546L237.766 30.9612C238.121 29.7851 238.339 28.5372 238.396 27.2415C238.406 27.0127 238.411 26.7817 238.411 26.549C238.412 23.067 237.256 19.8895 235.357 17.4842ZM214.658 17.5605C214.581 17.6533 214.499 17.735 214.412 17.8047C214.668 17.3267 214.653 16.8087 214.34 16.5513C214.027 16.2945 213.516 16.3785 213.096 16.722C213.149 16.6221 213.212 16.5255 213.289 16.4339C213.729 15.8972 214.394 15.7155 214.772 16.0267C215.15 16.3384 215.1 17.0244 214.658 17.5605ZM224.598 25.3411L224.524 25.537C224.021 26.718 223.88 27.7865 223.774 29.2918C223.489 29.3384 223.066 29.3823 222.331 29.6199C222.99 28.1328 223.499 26.2647 223.338 24.6562C223.749 24.8555 224.08 25.0102 224.626 25.1962L224.598 25.3411Z" fill="#C4C5C5"/>
</g>
<defs>
<clipPath id="clip0_31_8418">
<rect width="152.777" height="26.6873" fill="white" transform="translate(0 21.1563)"/>
</clipPath>
<clipPath id="clip1_31_8418">
<rect width="87.8047" height="44.9999" fill="white" transform="translate(181.777 12)"/>
</clipPath>
</defs>
</svg>
