<svg width="279" height="57" viewBox="0 0 279 57" fill="none" xmlns="http://www.w3.org/2000/svg">
<g clip-path="url(#clip0_31_8160)">
<path fill-rule="evenodd" clip-rule="evenodd" d="M151.549 17.5783C151.584 16.9011 151.348 16.2556 150.883 15.7654C150.424 15.2786 149.775 15 149.108 15H131.967C129.992 15 128.196 16.0934 127.392 17.7899C126.926 18.774 126.186 19.5923 125.251 20.1531C124.489 20.6116 123.671 20.9749 122.821 21.2324C120.673 21.8849 119.23 23.8319 119.23 26.0786V28.4982V30.9178C119.23 33.1646 120.673 35.1116 122.821 35.7641C123.671 36.0216 124.489 36.3848 125.251 36.8434C126.186 37.4042 126.926 38.2189 127.392 39.2065C128.196 40.9031 129.992 41.9965 131.967 41.9965H148.996C150.361 41.9965 151.482 40.9807 151.549 39.6827C151.584 39.0055 151.348 38.36 150.883 37.8698C150.417 37.3795 149.786 37.1079 149.108 37.1079H130.909C128.711 37.1079 126.651 36.1238 125.258 34.4132C124.521 33.5067 124.115 32.3005 124.115 31.0201V25.9869C124.115 24.7066 124.521 23.5003 125.258 22.5939C126.651 20.8797 128.711 19.8992 130.909 19.8992H148.992C150.357 19.8992 151.479 18.8833 151.546 17.5854L151.549 17.5783ZM4.88857 30.8438C4.88857 32.1911 3.79164 33.288 2.44429 33.288V33.2845C1.09693 33.2845 0 32.1876 0 30.8402V26.1527C0 24.8054 1.09693 23.712 2.44429 23.712C3.79164 23.712 4.88857 24.8089 4.88857 26.1562V30.8438ZM133.977 28.343C133.977 27.0874 135 26.0645 136.256 26.0645H141.278C142.534 26.0645 143.557 27.0874 143.557 28.343C143.557 29.5987 142.534 30.6216 141.278 30.6216H136.256C135 30.6216 133.977 29.5987 133.977 28.343ZM107.845 17.4443C107.845 16.0969 108.942 15 110.289 15C111.636 15 112.733 16.0969 112.733 17.4443V39.5487C112.733 40.896 111.636 41.9929 110.289 41.9929C109.764 41.9929 109.263 41.8236 108.832 41.5027C108.811 41.4886 108.568 41.2805 108.511 41.2205C107.873 40.6315 107.295 39.8273 106.861 39.1959L105.52 37.2384C105.027 36.5153 104.427 35.8699 103.743 35.3161L102.66 34.4485C101.69 33.669 100.586 33.1082 99.3833 32.7801C98.0641 32.4239 96.8543 31.8067 95.7891 30.9496L93.5777 29.1684C92.5125 28.3113 91.6519 27.2602 91.0205 26.0469C90.4456 24.9394 89.659 23.98 88.6891 23.2005L88.3999 22.9677C87.7191 22.4175 86.9608 21.9731 86.1496 21.6451L85.2749 21.2888V39.5522C85.2749 40.8995 84.1779 41.9965 82.8306 41.9965C81.4832 41.9965 80.3863 40.8995 80.3863 39.5522V17.4478C80.3863 16.1005 81.4832 15.0035 82.8306 15.0035C83.4125 15.0035 83.9804 15.2222 84.4319 15.6137C85.0809 16.1357 85.7122 16.8447 86.3471 17.7723L87.6733 19.7087C88.1777 20.4459 88.7878 21.1019 89.4862 21.6557L89.8001 21.9061C90.7524 22.6644 91.8282 23.2111 93.0027 23.5356C94.3642 23.913 95.5599 24.5232 96.6145 25.3732L98.8577 27.1791C99.9088 28.0256 100.762 29.0661 101.394 30.2618C101.986 31.3905 102.755 32.3287 103.704 33.0976L104.797 33.9829C105.485 34.5402 106.251 34.9916 107.072 35.3267L107.845 35.6406V17.4443ZM70.2917 21.2324C69.4417 20.9749 68.6234 20.6116 67.8615 20.1531C66.9268 19.5923 66.1861 18.7775 65.7206 17.7899C64.9199 16.0969 63.1246 15 61.1459 15H51.591C49.6158 15 47.817 16.0934 47.0163 17.7899C46.5508 18.774 45.8101 19.5923 44.8754 20.1531C44.1135 20.6116 43.2952 20.9749 42.4452 21.2324C40.2972 21.8849 38.8546 23.8319 38.8546 26.0786V30.9214C38.8546 33.1681 40.2972 35.1151 42.4452 35.7676C43.2988 36.0251 44.1135 36.3884 44.8754 36.8469C45.8101 37.4077 46.5508 38.2225 47.0163 39.2101C47.8205 40.9066 49.6158 42 51.591 42H61.1459C63.1211 42 64.9164 40.9066 65.7206 39.2101C66.1861 38.226 66.9268 37.4077 67.8615 36.8469C68.6234 36.3919 69.4417 36.0286 70.2917 35.7676C72.4397 35.1151 73.8823 33.1681 73.8823 30.9214V26.0786C73.8823 23.8319 72.4397 21.8849 70.2917 21.2324ZM43.7432 31.0166V25.9834C43.7432 24.7031 44.1488 23.4968 44.886 22.5903C46.2792 20.8762 48.339 19.8956 50.5364 19.8956H62.204C64.4014 19.8956 66.4613 20.8797 67.8545 22.5903C68.5916 23.4968 68.9973 24.7031 68.9973 25.9834V31.0166C68.9973 32.2969 68.5916 33.5032 67.8545 34.4097C66.4613 36.1238 64.4014 37.1044 62.204 37.1044H50.5364C48.339 37.1044 46.2792 36.1203 44.886 34.4097C44.1488 33.5032 43.7432 32.2969 43.7432 31.0166ZM26.3334 20.1531C27.0952 20.6116 27.9135 20.9749 28.7636 21.2324V21.2253C30.9116 21.8779 32.3541 23.8248 32.3541 26.0716V30.9143C32.3541 33.1611 30.9116 35.108 28.7636 35.7605C27.9135 36.018 27.0952 36.3813 26.3334 36.8398C25.3987 37.4007 24.658 38.2189 24.1924 39.203C23.3882 40.8995 21.5929 41.9929 19.6178 41.9929H2.44428C1.09693 41.9894 0.00705421 40.8995 0.00705421 39.5487C0.00705421 38.1978 1.10398 37.1044 2.45134 37.0973H20.6724C22.8698 37.0973 24.9296 36.1168 26.3228 34.4026C27.06 33.4961 27.4656 32.2899 27.4656 31.0095V25.9764C27.4656 24.696 27.06 23.4897 26.3228 22.5833C24.9296 20.8726 22.8698 19.8886 20.6724 19.8886H2.44428C1.0934 19.8886 0 18.7916 0 17.4443C0 16.0969 1.0934 15 2.44428 15H19.6178C21.5929 15 23.3882 16.0969 24.1924 17.7899C24.658 18.7775 25.3987 19.5923 26.3334 20.1531Z" fill="black"/>
<path d="M173.758 28.45C173.758 30.842 172.107 32.714 169.806 33.104V35.47H168.064V33.104C165.776 32.714 164.112 30.842 164.112 28.45C164.112 25.759 166.205 23.731 168.935 23.731C171.678 23.731 173.758 25.759 173.758 28.45ZM168.935 31.453C170.664 31.453 171.873 30.218 171.873 28.45C171.873 26.682 170.664 25.447 168.935 25.447C167.206 25.447 165.997 26.682 165.997 28.45C165.997 30.218 167.206 31.453 168.935 31.453ZM180.951 33.169C178.559 33.169 177.116 31.713 177.116 29.256V23.9H178.936V29.256C178.936 30.66 179.651 31.453 180.951 31.453C182.238 31.453 182.953 30.66 182.953 29.256V23.9H184.773V29.256C184.773 31.713 183.33 33.169 180.951 33.169ZM192.957 33.169C190.227 33.169 188.134 31.141 188.134 28.45C188.134 25.759 190.227 23.731 192.957 23.731C195.7 23.731 197.78 25.759 197.78 28.45C197.78 31.141 195.7 33.169 192.957 33.169ZM192.957 31.453C194.686 31.453 195.895 30.218 195.895 28.45C195.895 26.682 194.686 25.447 192.957 25.447C191.228 25.447 190.019 26.682 190.019 28.45C190.019 30.218 191.228 31.453 192.957 31.453ZM204.775 33H202.955V25.629H200.082V23.9H207.661V25.629H204.775V33ZM212.781 29.217V31.31H217.643V33H210.961V23.9H217.578V25.59H212.781V27.553H216.863V29.217H212.781ZM227.922 27.787H230.145L227.584 30.101L229.833 33H227.74L226.466 31.388L225.335 32.389C224.685 32.961 223.97 33.169 223.125 33.169C221.539 33.169 220.473 31.947 220.473 30.699C220.473 29.711 220.993 28.853 222.059 28.086L223.203 27.28L222.085 25.876V23.9H227.909V25.499H224.23V25.759L226.674 28.918L227.922 27.787ZM224.464 31.063L225.491 30.166L224.139 28.463L223.086 29.23C222.501 29.659 222.202 30.036 222.202 30.543C222.202 31.063 222.605 31.531 223.32 31.531C223.736 31.531 224.113 31.375 224.464 31.063ZM238.609 28.164H242.756V29.62H241.768C241.196 31.817 239.506 33.169 237.205 33.169C234.488 33.169 232.395 31.128 232.395 28.45C232.395 25.772 234.488 23.731 237.205 23.731C239.337 23.731 241.079 24.979 241.638 26.916H239.688C239.246 25.98 238.349 25.447 237.205 25.447C235.489 25.447 234.28 26.682 234.28 28.437C234.28 30.205 235.502 31.453 237.205 31.453C238.518 31.453 239.467 30.777 239.831 29.62H238.609V28.164ZM250.086 33.169C247.356 33.169 245.263 31.141 245.263 28.45C245.263 25.759 247.356 23.731 250.086 23.731C252.829 23.731 254.909 25.759 254.909 28.45C254.909 31.141 252.829 33.169 250.086 33.169ZM250.086 31.453C251.815 31.453 253.024 30.218 253.024 28.45C253.024 26.682 251.815 25.447 250.086 25.447C248.357 25.447 247.148 26.682 247.148 28.45C247.148 30.218 248.357 31.453 250.086 31.453Z" fill="black"/>
<path d="M267.316 31.2635C268.843 31.2635 270.08 30.0263 270.08 28.5C270.08 26.9737 268.843 25.7365 267.316 25.7365C265.79 25.7365 264.553 26.9737 264.553 28.5C264.553 30.0263 265.79 31.2635 267.316 31.2635Z" fill="black"/>
</g>
<defs>
<clipPath id="clip0_31_8160">
<rect width="270.08" height="27.0101" fill="white" transform="translate(0 14.9949)"/>
</clipPath>
</defs>
</svg>
