<svg width="41" height="34" viewBox="0 0 41 34" fill="none" xmlns="http://www.w3.org/2000/svg">
<path d="M12.7995 16.3637C14.3681 17.0054 15.5803 18.0393 16.4359 19.4653C17.3628 20.82 17.8263 22.46 17.8263 24.3851C17.8263 26.952 17.0063 29.0554 15.3664 30.6953C13.7264 32.3352 11.6943 33.1552 9.27008 33.1552C6.70323 33.1552 4.59984 32.3352 2.9599 30.6953C1.31997 29.0554 0.5 26.952 0.5 24.3851C0.5 23.1017 0.642603 21.8539 0.927809 20.6418C1.28432 19.4297 1.92603 17.6115 2.85295 15.1872L8.52142 0H17.0776L12.7995 16.3637ZM35.4734 16.3637C37.042 17.0054 38.2541 18.0393 39.1098 19.4653C40.0367 20.82 40.5001 22.46 40.5001 24.3851C40.5001 26.952 39.6802 29.0554 38.0402 30.6953C36.4003 32.3352 34.3682 33.1552 31.944 33.1552C29.3771 33.1552 27.2737 32.3352 25.6338 30.6953C23.9938 29.0554 23.1739 26.952 23.1739 24.3851C23.1739 23.1017 23.3165 21.8539 23.6017 20.6418C23.9582 19.4297 24.5999 17.6115 25.5268 15.1872L31.1953 0H39.7515L35.4734 16.3637Z" fill="#67BF44"/>
</svg>
