<svg width="40" height="40" fill="none" xmlns="http://www.w3.org/2000/svg">
  <path fill-rule="evenodd" clip-rule="evenodd" d="M30 4.58a3.75 3.75 0 1 0 0 7.5 3.75 3.75 0 0 0 0-7.5Zm-6.25 3.75a6.25 6.25 0 1 1 12.5 0 6.25 6.25 0 0 1-12.5 0ZM8.33 27.92a3.75 3.75 0 1 0 0 7.5 3.75 3.75 0 0 0 0-7.5Zm6.13 2.5a6.25 6.25 0 1 0 0 2.5H27.5a7.08 7.08 0 1 0 0-14.17H10.83a4.58 4.58 0 0 1 0-9.17h6.15l-2.03 2.04a1.25 1.25 0 1 0 1.77 1.76l4.16-4.16a1.25 1.25 0 0 0 0-1.77l-4.16-4.17a1.25 1.25 0 1 0-1.77 1.77l2.03 2.03h-6.15a7.08 7.08 0 0 0 0 14.17H27.5a4.58 4.58 0 0 1 0 9.17H14.46Z" fill="#3EC227"/>
</svg>
