<svg width="900" height="48" fill="none" xmlns="http://www.w3.org/2000/svg"><rect width="48" height="48" rx="16" fill="#EFF2F4"/><path d="M23.619 31V17.8l.86.94h-4.02V17h5.14v14h-1.98Z" fill="#233441"/><path stroke="#A0ACB5" stroke-width="3" stroke-miterlimit="2.999" stroke-linecap="round" stroke-dasharray="1 20 1 20" d="M66.5 22.5h199"/><rect x="284" width="48" height="48" rx="16" fill="#EFF2F4"/><path d="M302.998 31v-1.36l5.7-5.5c.506-.48.88-.9 1.12-1.26.253-.373.42-.713.5-1.02.093-.32.14-.627.14-.92 0-.72-.254-1.287-.76-1.7-.507-.413-1.247-.62-2.22-.62-.747 0-1.42.127-2.02.38-.6.24-1.12.62-1.56 1.14l-1.36-1.18c.533-.68 1.246-1.2 2.14-1.56.906-.373 1.9-.56 2.98-.56.973 0 1.82.16 2.54.48.72.307 1.273.753 1.66 1.34.4.587.6 1.28.6 2.08 0 .453-.06.9-.18 1.34-.12.44-.347.907-.68 1.4-.334.493-.814 1.047-1.44 1.66l-5.08 4.9-.48-.78h8.46V31h-10.06Z" fill="#233441"/><path stroke="#A0ACB5" stroke-width="3" stroke-miterlimit="2.999" stroke-linecap="round" stroke-dasharray="1 20 1 20" d="M350.5 22.5h199"/><rect x="568" width="48" height="48" rx="16" fill="#EFF2F4"/><path d="M591.517 31.16a9.173 9.173 0 0 1-2.88-.46c-.92-.307-1.673-.72-2.26-1.24l.92-1.58c.467.44 1.074.8 1.82 1.08.747.28 1.547.42 2.4.42 1.04 0 1.847-.22 2.42-.66.587-.453.88-1.06.88-1.82 0-.733-.28-1.32-.84-1.76-.546-.453-1.42-.68-2.62-.68h-1.12v-1.4l4.16-5.12.28.8h-7.66V17h9.24v1.36l-4.14 5.1-1.04-.62h.66c1.694 0 2.96.38 3.8 1.14.854.76 1.28 1.727 1.28 2.9a4.16 4.16 0 0 1-.58 2.16c-.386.653-.973 1.173-1.76 1.56-.773.373-1.76.56-2.96.56Z" fill="#233441"/><path stroke="#A0ACB5" stroke-width="3" stroke-miterlimit="2.999" stroke-linecap="round" stroke-dasharray="1 20 1 20" d="M634.5 22.5h199"/><rect x="852" width="48" height="48" rx="16" fill="#EFF2F4"/><path d="M870.071 27.56v-1.4l7.16-9.16h2.16l-7.1 9.16-1.02-.32h11.18v1.72h-12.38Zm7.78 3.44v-3.44l.06-1.72V22.8h1.88V31h-1.94Z" fill="#233441"/></svg>