<svg width="72" height="30" viewBox="0 0 72 30" fill="none" xmlns="http://www.w3.org/2000/svg">
<g clip-path="url(#clip0_118_1968)">
<path fill-rule="evenodd" clip-rule="evenodd" d="M57.4505 0.427384L68.0194 28.7279L71.678 28.729V28.9322H60.0332V28.729H63.4615L59.9861 19.4225H52.9316V19.4262L52.9694 19.5344C53.2509 20.3558 53.3909 21.2164 53.3823 22.0828V25.5715C53.3823 27.3659 54.1896 29.1848 55.7314 29.1848C56.6366 29.1848 57.3592 28.8717 58.2195 28.0992L58.3422 28.2111C57.4078 29.1795 56.2762 29.5912 54.5793 29.5912C53.2985 29.5912 52.2025 29.2888 51.3206 28.6929L51.1536 28.5751C49.9928 27.7135 49.2394 26.3053 48.9152 24.3888L48.8633 24.0795L48.8093 23.6115L48.8039 23.5308L46.8589 28.7264H49.6188V28.9301H43.8445V28.7264H46.6341L48.7693 23.0209V23.0087C48.7464 22.672 48.7329 22.3348 48.7288 21.9974V19.5074C48.7288 16.4459 46.4104 14.6896 42.3675 14.6896H38.3939V28.7279H41.8368V28.9312H28.3805V28.7279H31.8095L28.334 19.4214H18.6893L15.2463 28.625L15.39 28.6017C19.9111 27.8366 21.9901 24.4487 22.0182 20.8816H22.2279V28.9312H0.343262L16.5881 1.56815H10.0556C4.64172 1.56815 2.19148 5.67332 2.15365 9.76575H1.94451V1.36387H21.6632L21.5432 1.56815L5.421 28.7279H13.9028C14.1136 28.7279 14.3233 28.7179 14.5346 28.7014C14.6751 28.6919 14.8166 28.6781 14.9604 28.6606L15.0117 28.6553L25.5823 0.408813H25.7914L25.7984 0.427384L34.1041 22.6676V1.56815H30.6843V1.36122H42.4535C48.11 1.36122 52.0588 4.21154 52.0588 8.29496C52.0588 11.2726 49.354 13.7441 45.3306 14.4471L44.5919 14.5395L45.336 14.6137C47.776 14.8881 49.7134 15.625 51.0866 16.8035L51.0958 16.812L57.2343 0.408813H57.4429L57.4505 0.427384ZM52.8289 19.1678L52.8494 19.2177H59.9078L55.1667 6.52173L51.2644 16.9584L51.2855 16.978L51.4838 17.1712C52.0579 17.7461 52.5145 18.4242 52.8289 19.1678ZM38.3966 14.4853V1.56815H41.4288C45.4798 1.56815 47.6187 3.91017 47.6187 8.33847C47.6187 13.0485 46.3909 14.4853 42.3675 14.4853H38.3966ZM23.5173 6.52173L18.766 19.2182H28.2584L23.5173 6.52173Z" fill="#233441"/>
</g>
<defs>
<clipPath id="clip0_118_1968">
<rect width="71.3347" height="29.1824" fill="white" transform="translate(0.343262 0.408813)"/>
</clipPath>
</defs>
</svg>
