<svg width="84" height="84" fill="none" xmlns="http://www.w3.org/2000/svg"><ellipse cx="50" cy="50" rx="19.8" ry="39.6" transform="rotate(-45 50 50)" stroke="#233441" stroke-width="2" stroke-linecap="round" stroke-linejoin="round"/><ellipse cx="50.9" cy="50" rx="19.8" ry="39.6" transform="rotate(45 51 50)" stroke="#233441" stroke-width="2" stroke-linecap="round" stroke-linejoin="round"/><path fill-rule="evenodd" clip-rule="evenodd" d="M11.4 31.2c1 2.8 2.3 5.8 4 8.9a80 80 0 0 1 24.7-24.6c-3-1.8-6-3.1-9-4-7.9-2.7-14.4-2.2-18 1.5-3.8 3.7-4.3 10.2-1.7 18.2Zm-1.8.6c1 3.3 2.6 6.7 4.7 10.2-2 3.5-3.7 6.9-4.7 10.2-2.8 8.2-2.5 15.7 2 20.2s12 4.8 20.2 2c3.3-1 6.7-2.6 10.2-4.7 3.5 2 6.9 3.7 10.2 4.7 8.2 2.8 15.7 2.5 20.2-2s4.8-12 2-20.2c-1-3.3-2.6-6.7-4.7-10.2 2-3.5 3.7-6.9 4.7-10.2 2.8-8.2 2.5-15.7-2-20.2s-12-4.8-20.2-2c-3.3 1-6.7 2.6-10.2 4.7-3.5-2-6.9-3.7-10.2-4.7-8.2-2.8-15.7-2.5-20.2 2s-4.8 12-2 20.2Zm21.6 40.8c2.8-1 5.8-2.3 8.9-4a80 80 0 0 1-24.6-24.7c-1.8 3-3.1 6-4 9-2.7 7.9-2.2 14.4 1.5 18 3.7 3.8 10.2 4.3 18.2 1.7ZM27.9 56c4.5 4.6 9.3 8.4 14.1 11.3A77.3 77.3 0 0 0 67.4 42 77.3 77.3 0 0 0 42 16.6 77.3 77.3 0 0 0 16.6 42c3 4.8 6.7 9.6 11.3 14.1Zm25 16.5c-3-1-6-2.3-9-4a80 80 0 0 0 24.6-24.7c1.8 3 3.1 6 4 9 2.7 7.9 2.2 14.4-1.5 18-3.7 3.8-10.2 4.3-18.2 1.7Zm19.7-41.4c-1 2.8-2.3 5.8-4 8.9a80 80 0 0 0-24.7-24.6c3-1.8 6-3.1 9-4 7.9-2.7 14.4-2.2 18 1.5 3.8 3.7 4.3 10.2 1.7 18.2ZM39 32a1 1 0 1 0-2 0v1.1l-1.3.4a5 5 0 0 0-2.2 2.2l-.4 1.3H32a1 1 0 1 0 0 2h1v2h-1a1 1 0 1 0 0 2h1v2h-1a1 1 0 1 0 0 2h1.1l.4 1.3a5 5 0 0 0 2.2 2.2l1.3.4V52a1 1 0 0 0 2 0v-1h2v1a1 1 0 0 0 2 0v-1h2v1a1 1 0 0 0 2 0v-1.1l1.3-.4a5 5 0 0 0 2.2-2.2l.4-1.3H52a1 1 0 0 0 0-2h-1v-2h1a1 1 0 0 0 0-2h-1v-2h1a1 1 0 0 0 0-2h-1.1l-.4-1.3a5 5 0 0 0-2.2-2.2l-1.3-.4V32a1 1 0 1 0-2 0v1h-2v-1a1 1 0 1 0-2 0v1h-2v-1Zm10 8.4v5.7l-.3 1.3a3 3 0 0 1-1.3 1.3c-.3.1-.6.2-1.3.2l-2.5.1h-5.7l-1.3-.3a3 3 0 0 1-1.3-1.3c-.1-.3-.2-.6-.2-1.3l-.1-2.5v-5.7l.3-1.3c.3-.5.8-1 1.3-1.3.3-.1.6-.2 1.3-.2l2.5-.1h5.7l1.3.3c.5.3 1 .8 1.3 1.3a34.7 34.7 0 0 1 .3 3.8ZM41.4 38h1.1a1 1 0 1 1 0 2h-1.1a12.6 12.6 0 0 0-1.1 0 .5.5 0 0 0-.2.3v.2l-.1.9v1.2a12.6 12.6 0 0 0 0 1.1l.3.2h.2l.9.1h1.2a12.5 12.5 0 0 0 1.1 0l.2-.3v-.2l.1-.9v-1.1a1 1 0 1 1 2 0v2.1c0 .4-.1.7-.3 1-.2.5-.6.9-1 1.1l-1 .3h-3.3c-.4 0-.7-.1-1-.3-.5-.2-.9-.6-1.1-1l-.3-1v-3.3c0-.4.1-.7.3-1 .2-.5.6-.9 1-1.1l1-.3h1Z" fill="#3EC227"/></svg>