<svg width="84" height="84" fill="none" xmlns="http://www.w3.org/2000/svg"><path fill-rule="evenodd" clip-rule="evenodd" d="M64.57 33.62c.86 0 1.44 0 1.9.04.43.04.66.1.81.18.38.2.68.5.88.88.08.15.14.38.18.82.03.45.03 1.03.03 1.88v32.4c0 .86 0 1.45-.03 1.9-.04.43-.1.66-.18.81a2 2 0 0 1-.88.88c-.15.08-.38.14-.82.18-.45.04-1.03.04-1.89.04H62.9a8.41 8.41 0 0 0-16.7 0h-8a8.41 8.41 0 0 0-16.71 0h-3.27c-.58 0-.95 0-1.23-.03a1.14 1.14 0 0 1-.43-.08 1 1 0 0 1-.43-.44 1.14 1.14 0 0 1-.09-.42c-.02-.28-.02-.66-.02-1.23V55.83a1 1 0 0 0 .23.03H36.56c.53 0 .99 0 1.36-.03.4-.03.79-.1 1.17-.3a3 3 0 0 0 1.3-1.3c.2-.39.27-.78.3-1.17.04-.38.04-.83.04-1.36V35.08c0-.8.65-1.46 1.45-1.46h22.4ZM38.73 47.47v-3.96H26.05c-1.38 0-1.86 0-2.27.14a3 3 0 0 0-1.07.6c-.32.29-.57.69-1.29 1.88l-4.63 7.73h19.74c.57 0 .94 0 1.23-.02.27-.03.37-.06.42-.09a1 1 0 0 0 .44-.43c.02-.05.06-.16.08-.43.02-.28.03-.65.03-1.23v-4.19Zm-8.89 35.57a8.41 8.41 0 0 1-8.35-7.41h-3.31c-.53 0-.98 0-1.36-.03-.4-.04-.79-.1-1.16-.3a3 3 0 0 1-1.31-1.31c-.2-.38-.27-.77-.3-1.17-.03-.37-.03-.83-.03-1.35V56.56c0-.59 0-1 .06-1.4a5 5 0 0 1 .3-1.04c.14-.38.35-.72.65-1.23l.04-.06 4.64-7.73.08-.13c.6-1 1.02-1.7 1.6-2.22a5 5 0 0 1 1.78-1 9.02 9.02 0 0 1 2.73-.24h12.83v-6.43c0-1.9 1.54-3.46 3.45-3.46H64.62c.8 0 1.46 0 2 .05.57.04 1.08.14 1.57.39a4 4 0 0 1 1.75 1.75c.25.48.34 1 .39 1.56.04.54.04 1.2.04 2.01V69.87c0 .8 0 1.47-.04 2a4.09 4.09 0 0 1-.4 1.57 4 4 0 0 1-1.74 1.75c-.49.25-1 .35-1.56.4-.55.04-1.21.04-2.01.04H62.9a8.41 8.41 0 0 1-16.7 0h-8a8.41 8.41 0 0 1-8.36 7.4Zm31.12-8.44a.72.72 0 0 0 0 .05 6.41 6.41 0 1 1 0-.05Zm-31.12-6.38a6.41 6.41 0 1 0 0 12.82 6.41 6.41 0 0 0 0-12.83ZM42.33 5.87a36.31 36.31 0 0 0-26.84 11.81A1 1 0 0 1 14 16.33 38.31 38.31 0 0 1 42.33 3.87c11.2 0 21.29 4.8 28.3 12.46a1 1 0 1 1-1.47 1.35 36.31 36.31 0 0 0-26.83-11.8Zm0 9.53a25.63 25.63 0 0 0-17.63 6.99 1 1 0 0 1-1.37-1.46 27.63 27.63 0 0 1 19-7.53c7.35 0 14.03 2.86 19 7.53a1 1 0 1 1-1.38 1.46 25.63 25.63 0 0 0-17.62-7Zm-9.75 13.1a14.97 14.97 0 0 1 9.75-3.58c3.72 0 7.12 1.35 9.74 3.59a1 1 0 1 0 1.3-1.52 16.97 16.97 0 0 0-11.04-4.07c-4.22 0-8.08 1.53-11.05 4.07a1 1 0 1 0 1.3 1.52Z" fill="#3EC227"/></svg>