<svg width="84" height="84" fill="none" xmlns="http://www.w3.org/2000/svg"><path fill-rule="evenodd" clip-rule="evenodd" d="M45.129 49.9h-.042c-.805 0-1.469 0-2.01.045-.562.045-1.079.144-1.564.391a4 4 0 0 0-1.748 1.748c-.248.486-.346 1.002-.392 1.565-.044.54-.044 1.205-.044 2.01v.127H33.496c-1.17 0-1.98 0-2.724.237a5 5 0 0 0-1.78 1.008c-.588.517-1.004 1.21-1.605 2.214l-.08.134-1.639 2.73-.039.065c-.302.504-.511.852-.662 1.23-.133.336-.23.685-.288 1.04-.065.403-.065.81-.065 1.396v6.914c0 .527 0 .982.03 1.356.033.396.104.789.297 1.167a3 3 0 0 0 1.31 1.311c.38.193.772.265 1.168.297.374.03.83.03 1.356.03h.346a5.416 5.416 0 0 0 10.644 0h4.07a5.416 5.416 0 0 0 10.645-.003c.259-.004.493-.01.704-.024.443-.029.853-.09 1.25-.244a4 4 0 0 0 2.281-2.281c.154-.397.215-.807.244-1.25.027-.427.027-.948.027-1.58V55.66c0-.805 0-1.47-.044-2.01-.046-.563-.144-1.08-.392-1.565a4 4 0 0 0-1.748-1.748c-.485-.247-1.002-.346-1.564-.391-.541-.045-1.205-.045-2.01-.045h-8.099Zm-5.8 7.886h-5.677c-1.388 0-1.862.011-2.272.142a2.998 2.998 0 0 0-1.068.605c-.323.285-.577.685-1.29 1.875l-1.639 2.73-.003.006h9.749c.576 0 .948-.001 1.232-.024.271-.023.372-.06.422-.085a1 1 0 0 0 .437-.437c.025-.05.063-.15.085-.422.023-.284.024-.656.024-1.232v-3.158ZM26.62 65.144c-.006.175-.007.412-.007.772v6.8c0 .576 0 .948.024 1.232.022.271.06.372.085.421a1 1 0 0 0 .437.437c.05.026.15.063.422.085.283.024.655.024 1.232.024h.306a5.416 5.416 0 0 1 10.645 0h4.07a5.416 5.416 0 0 1 10.644-.003c.222-.004.41-.01.576-.02.347-.022.528-.063.655-.112a2 2 0 0 0 1.14-1.14c.05-.127.09-.309.113-.656.023-.355.023-.811.023-1.483v-15.8c0-.857 0-1.44-.037-1.89-.036-.438-.101-.662-.18-.819a2 2 0 0 0-.875-.874c-.156-.08-.38-.144-.819-.18-.45-.037-1.032-.038-1.889-.038H45.13c-.857 0-1.44.001-1.89.038-.438.036-.662.1-.818.18a2 2 0 0 0-.874.874c-.08.157-.145.381-.18.82-.038.45-.038 1.032-.038 1.888v5.282c0 .527 0 .982-.031 1.357-.032.395-.104.788-.296 1.167a3 3 0 0 1-1.311 1.31c-.379.193-.772.265-1.167.297-.375.03-.83.03-1.357.03H26.621Zm11.236 10.768a3.414 3.414 0 1 0 0 .003v-.003Zm7.886.006a3.414 3.414 0 1 0 6.829 0 3.414 3.414 0 0 0-6.829-.003v.003Z" fill="#3EC227"/><path d="M10.316 58.837a35.5 35.5 0 1 1 61.287 3.003" stroke="#3EC227" stroke-width="2" stroke-linecap="round"/><path d="M6.743 42.486a7.875 7.875 0 1 0 5.334-14.819 7.875 7.875 0 0 0-5.334 14.82ZM55.743 18.486a7.875 7.875 0 1 0 5.334-14.819 7.875 7.875 0 0 0-5.334 14.82ZM71.743 65.486a7.875 7.875 0 1 0 5.334-14.819 7.875 7.875 0 0 0-5.334 14.82ZM9.282 66.202a5.495 5.495 0 1 0 3.722-10.341 5.495 5.495 0 0 0-3.722 10.34ZM26.504 16.202A5.495 5.495 0 1 0 30.226 5.86a5.495 5.495 0 0 0-3.722 10.34ZM72.504 37.202a5.495 5.495 0 1 0 3.722-10.341 5.495 5.495 0 0 0-3.722 10.34Z" fill="#233441" stroke="#3EC227" stroke-width="2" stroke-linecap="round" stroke-linejoin="round"/><path d="m17.334 38 51.5-3.5M32.334 16l36.5 37M54.333 17.5l-38 13.5" stroke="#3EC227" stroke-width="2"/></svg>
