<svg width="84" height="84" fill="none" xmlns="http://www.w3.org/2000/svg"><path fill-rule="evenodd" clip-rule="evenodd" d="M16.9 9.5h-2.7c-.7.1-1.4.2-2 .5a5 5 0 0 0-2.2 2.2c-.3.6-.4 1.3-.4 2l-.1 2.7v41.6H4.3a5 5 0 0 0-.4 0c-.2 0-.4 0-.6.2a1.5 1.5 0 0 0-.8 1.2v9.9c.1.7.2 1.4.5 2A5 5 0 0 0 5.2 74c.6.3 1.3.4 2 .4l2.7.1H78.7a3 3 0 0 0 1.2-.3 3 3 0 0 0 1.3-1.3l.3-1.2V33.3a3 3 0 0 0-.3-1.2 3 3 0 0 0-1.3-1.3 3 3 0 0 0-1.2-.3H74.5v-6a1 1 0 1 0-2 0v6H54.3a3 3 0 0 0-1.2.3 3 3 0 0 0-1.3 1.3 3 3 0 0 0-.3 1.2v25.2h-40V14.4l.3-1.3c.3-.5.8-1 1.3-1.3.3-.1.6-.2 1.3-.2l2.5-.1H61a1 1 0 1 0 0-2H16.9Zm49.6 63H55.7a17 17 0 0 1-1.7-.1 1 1 0 0 1-.4-.4v-.5l-.1-1.2V34.7a17 17 0 0 1 .1-1.7l.4-.4h.5l1.2-.1h21.6a17 17 0 0 1 1.7.1l.4.4v.5l.1 1.2v35.6a17 17 0 0 1-.1 1.7 1 1 0 0 1-.4.4h-.5l-1.2.1H66.5Zm-15-2.2v-9.8h-47v9.1l.3 1.3c.3.5.8 1 1.3 1.3a34.7 34.7 0 0 0 3.8.3h41.8l-.2-.8v-1.4Zm15-24.8a3.5 3.5 0 1 0 0-7 3.5 3.5 0 0 0 0 7Z" fill="#3EC227"/><path d="M22 22h28M22 36h21M22 50h21M61 23l7.3-19.4a1 1 0 0 1 2 0l2.8 8a1 1 0 0 0 .6.7l8 2.9a1 1 0 0 1 0 1.9l-19.3 7.2A1 1 0 0 1 61 23v0ZM73.4 12l8.9-8.9" stroke="#3EC227" stroke-width="2" stroke-linecap="round" stroke-linejoin="round"/></svg>