<svg width="84" height="84" fill="none" xmlns="http://www.w3.org/2000/svg"><path d="M56 43.4h4.8c1 0 3.3.6 3.3 3.3v19.5c0 1.5.9 4.3 4.3 4.3s4.9-2.8 5.2-4.3V32.4c0-1.2-.3-4-1.4-5.2L67 21" stroke="#3EC227" stroke-width="1.9" stroke-linecap="round"/><path d="M72.7 32.4h-4.3c-.8 0-2.4.5-2.4 2.4V40c0 .8.5 2.4 2.4 2.4h4.3" stroke="#3EC227" stroke-width="2" stroke-linecap="round"/><path d="m40.7 51-9.4 9.5-3.8-3.8-7.5 7.5" stroke="#3EC227" stroke-width="2" stroke-linecap="round" stroke-linejoin="round"/><path d="M41.6 72H13V43m0-9.8v-19C13 12 13.8 8 18.8 8h31.4c2 0 5.8 1.2 5.8 6.1V72h-4.3M5 81h59.5" stroke="#3EC227" stroke-width="2" stroke-linecap="round"/><path stroke="#3EC227" stroke-width="2" d="M24 17h21v16H24z"/></svg>