<svg width="84" height="84" fill="none" xmlns="http://www.w3.org/2000/svg"><path fill-rule="evenodd" clip-rule="evenodd" d="M16.9 9.5h-2.7c-.7.1-1.4.2-2 .5a5 5 0 0 0-2.2 2.2c-.3.6-.4 1.3-.4 2l-.1 2.7V59H4.1l-.6.1a1.5 1.5 0 0 0-.8 1.3v2.9c0 .7.2 1.3.4 1.8a5 5 0 0 0 2.5 2.4c.5.3 1.1.4 1.8.5H77c.6-.1 1.2-.2 1.8-.5a5 5 0 0 0 2.4-2.4c.3-.5.4-1.1.4-1.8v-3.4a1.5 1.5 0 0 0-1.3-.9H74.5V31.5a1 1 0 1 0-2 0v27h-61V14.4l.3-1.3c.3-.5.8-1 1.3-1.3.3-.1.6-.2 1.3-.2l2.5-.1h35.7a1 1 0 1 0 0-2H17ZM4.7 63.1V61h75a30.9 30.9 0 0 1-.3 3.3 3 3 0 0 1-1.5 1.4l-1.1.3H9.9a34.6 34.6 0 0 1-3.5-.3 3 3 0 0 1-1.5-1.4L4.7 63Z" fill="#3EC227"/><path fill-rule="evenodd" clip-rule="evenodd" d="M58.9 13.6a10.4 10.4 0 1 1 20.8 0 10.4 10.4 0 0 1-20.8 0ZM69.3 1.2a12.4 12.4 0 1 0 8 21.8l4 4a1 1 0 0 0 1.3-1.5l-3.9-3.9a12.4 12.4 0 0 0-9.4-20.4Z" fill="#3EC227"/><path d="M24.7 46.8V35.7a2.2 2.2 0 0 1 2.2-2.3H29a2.2 2.2 0 0 1 2.2 2.3v11m-6.6 0a2.2 2.2 0 0 0 2.2 2.3H29a2.2 2.2 0 0 0 2.2-2.2m-6.6 0V40a2.2 2.2 0 0 0-2.3-2.2h-2.2A2.2 2.2 0 0 0 18 40v6.7a2.2 2.2 0 0 0 2.2 2.2h2.2a2.2 2.2 0 0 0 2.3-2.2Zm6.6 0V31.2a2.2 2.2 0 0 1 2.3-2.2h2.2a2.2 2.2 0 0 1 2.2 2.2v15.6a2.2 2.2 0 0 1-2.2 2.2h-2.2a2.2 2.2 0 0 1-2.3-2.2ZM56 39V29M64.7 34 47.3 44M46.2 40.8 46 39a10 10 0 0 1 6.7-9.4V37l-6.5 3.7Z" stroke="#3EC227" stroke-width="2" stroke-linecap="round" stroke-linejoin="round"/><path d="M56 29a10 10 0 1 1-8.6 15" stroke="#3EC227" stroke-width="2" stroke-linecap="round" stroke-linejoin="round"/></svg>