<svg width="84" height="84" fill="none" xmlns="http://www.w3.org/2000/svg"><path d="M43 30.1a8 8 0 1 0 0-16 8 8 0 0 0 0 16Z" stroke="#3EC227" stroke-width="2" stroke-linecap="round" stroke-linejoin="round"/><path d="M63 22.1c0 18-20 32-20 32s-20-14-20-32a20 20 0 1 1 40 0v0Z" stroke="#3EC227" stroke-width="2" stroke-linecap="round" stroke-linejoin="round"/><path d="M16.8 46v-1a1 1 0 0 0-1 .6l1 .4ZM2.5 80l-1-.4a1 1 0 0 0 1 1.4v-1Zm79 0v1a1 1 0 0 0 1-1.4l-1 .4ZM66.1 46l1-.4a1 1 0 0 0-1-.6v1ZM3 79.1l-1-.4 1 .4Zm25-32.1a1 1 0 1 0 0-2v2Zm29.2-2a1 1 0 1 0 0 2v-2Zm25.3 34.6L67 45.6l-1.8.8 15.4 34 1.8-.8ZM2.5 81h1v-2h-1v2Zm1 0h78v-2h-78v2ZM16 45.6l-14 33.1 1.9.8 14-33.1-2-.8Zm-14 33.1-.3 1 1.8.7.4-.9-1.9-.8ZM61.4 47H66v-2h-4.7v2Zm-33.5-2H17v2h11v-2Zm33.5 0H57v2h4.3v-2Z" fill="#3EC227"/><path d="M60.5 80S53 71.5 47 70.5s-7.7-.8-10.5-2-1.2-4-2-8-7.1-2.3-8.5-6c-1.2-3.2-.5-6-.5-6L26 46" stroke="#3EC227" stroke-width="2"/></svg>