<svg width="84" height="84" fill="none" xmlns="http://www.w3.org/2000/svg"><path fill-rule="evenodd" clip-rule="evenodd" d="M21.4 31.8H7.2c-.8 0-1.3.2-1.6.4a4 4 0 0 0-1.8 1.7 43.6 43.6 0 0 0-.4 4.8V66l.4 1.6a4 4 0 0 0 1.8 1.7c.3.2.8.3 1.6.4h11.2a1 1 0 1 1 0 2H7c-.9 0-1.6-.2-2.3-.6A6 6 0 0 1 2 68.5c-.3-.7-.5-1.5-.5-2.4l-.1-3.3V35.4c.1-1 .3-1.7.6-2.4a6 6 0 0 1 2.7-2.6c.7-.4 1.4-.5 2.3-.6H21.2l2.5.1a6 6 0 0 1 1.8.7c.6.4 1 1 1.9 1.7l5.4 5.4 1.7 2c.3.5.6 1.1.7 1.7.2.7.2 1.4.2 2.5V52.7a1 1 0 1 1-2 0v-8.9h-9.2a3 3 0 0 1-1.2-.4 3 3 0 0 1-1.3-1.3 3 3 0 0 1-.3-1.2v-9.1Zm11.8 10a4 4 0 0 0-.4-1 10 10 0 0 0-1.5-1.7L26 33.8a10 10 0 0 0-1.6-1.5 4 4 0 0 0-1-.4v7.7a17 17 0 0 0 .1 1.6l.4.4.5.1H33.2Zm-13.4 6.4c.4.4.4 1 0 1.4l-7 7.1a1 1 0 0 1-1.5 0L8 53a1 1 0 0 1 1.5-1.4l2.7 2.9 6.3-6.4a1 1 0 0 1 1.4 0Z" fill="#3EC227"/><path fill-rule="evenodd" clip-rule="evenodd" d="M33 53.8a4 4 0 0 0-1.8 0l-2 1h-.1L22.2 59h-.1c-.7.5-1.3.8-1.7 1.3a4 4 0 0 0-.8 1.4c-.2.6-.2 1.3-.2 2.1v6.5c0 .9 0 1.5.2 2.1.1.6.4 1 .8 1.5L22 75h.1l6.9 4.2h.1a7 7 0 0 0 2 1 4 4 0 0 0 1.7 0 7 7 0 0 0 2-1h.1l7-4.1V75a7 7 0 0 0 1.7-1.2c.4-.5.7-1 .8-1.5.2-.6.2-1.2.2-2V63.7c0-.8 0-1.5-.2-2a4 4 0 0 0-.8-1.5c-.4-.5-1-.8-1.7-1.2V59l-7-4.1v-.1a7 7 0 0 0-2-1Zm-1.4 2h.9c.3 0 .6.2 1.5.8l6.9 4.1.3.2-9.1 5.6-9.2-5.6.3-.2 6.9-4.1a6 6 0 0 1 1.5-.8Zm-10.1 6.6-.1 1.6V71.8l.5.7 1.3 1 6.9 4 1 .6v-9.9l-9.6-5.8ZM33 78l1-.5 6.8-4.1a6 6 0 0 0 1.3-1l.4-.7.1-1.6V62.4L33 68.2v10ZM59.4 5.8H45.2c-.8 0-1.3.2-1.6.4a4 4 0 0 0-1.8 1.7 43.6 43.6 0 0 0-.4 4.8V40l.4 1.6a4 4 0 0 0 1.8 1.7c.3.2.8.3 1.6.4h11.2a1 1 0 1 1 0 2H45c-.9 0-1.6-.2-2.3-.6a6 6 0 0 1-2.7-2.6c-.3-.7-.5-1.5-.5-2.4l-.1-3.3V9.4c.1-1 .3-1.7.6-2.4a6 6 0 0 1 2.7-2.6c.7-.4 1.4-.5 2.3-.6H59.2l2.5.1a6 6 0 0 1 1.8.7c.6.4 1 1 1.9 1.7l5.4 5.4 1.7 2c.3.5.6 1.1.7 1.7.2.7.2 1.4.2 2.5V26.7a1 1 0 1 1-2 0v-8.9h-9.2a3 3 0 0 1-1.2-.4 3 3 0 0 1-1.3-1.3 3 3 0 0 1-.3-1.2V5.8Zm11.8 10a4 4 0 0 0-.4-1 10 10 0 0 0-1.5-1.7L64 7.8a10 10 0 0 0-1.6-1.5 4 4 0 0 0-1-.4v7.7a17 17 0 0 0 .1 1.6l.4.4.5.1H71.2ZM52 17.6a5 5 0 0 0-4.4 2.6h4.4a1 1 0 0 1 0 2h-5a5.1 5.1 0 0 0 0 1h3.4a1 1 0 0 1 0 2h-2.8a5 5 0 0 0 8.1.8 1 1 0 0 1 1.5 1.4 7 7 0 0 1-11.8-2.2h-1a1 1 0 1 1 0-2h.5a7.2 7.2 0 0 1 0-1h-.5a1 1 0 1 1 0-2h1A7 7 0 0 1 57 18a1 1 0 1 1-1.5 1.4 5 5 0 0 0-3.7-1.8Z" fill="#3EC227"/><path fill-rule="evenodd" clip-rule="evenodd" d="M67.7 29.6c0-.5.4-1 1-1h4.7a1 1 0 0 1 0 2h-4.7a1 1 0 0 1-1-1Zm-6.3 14.1a9.6 9.6 0 0 1 15-8 1 1 0 0 0 1-1.6c-1.8-1.2-4-2-6.4-2-6.4 0-11.6 5.2-11.6 11.6a1 1 0 1 0 2 0Zm20-5.1a1 1 0 1 0-1.8.9A9.6 9.6 0 0 1 71 53.3h-5.9a1 1 0 0 0 0 2h6a11.6 11.6 0 0 0 10.3-16.7Zm-23.1 8.7c0-.6.4-1 1-1H65a1 1 0 1 1 0 2h-5.8a1 1 0 0 1-1-1Zm2.3 3.5c0-.6.5-1 1-1h7a1 1 0 0 1 0 2h-7a1 1 0 0 1-1-1ZM72 40.2a1 1 0 0 0-2 0v4.7a1 1 0 1 0 2 0v-4.7Z" fill="#3EC227"/></svg>