<svg width="84" height="84" fill="none" xmlns="http://www.w3.org/2000/svg"><g clip-path="url(#a)"><path fill-rule="evenodd" clip-rule="evenodd" d="M60.94 7.76h-.04c-.92 0-1.67 0-2.28.05-.63.05-1.2.16-1.72.43a4.4 4.4 0 0 0-1.93 1.93c-.27.53-.38 1.1-.43 1.73-.05.6-.05 1.36-.05 2.27v1.12h-8.21c-1.35 0-2.25 0-3.07.26-.73.23-1.4.61-1.98 1.12-.65.57-1.11 1.34-1.8 2.5l-.09.13-2.48 4.15-.04.07c-.35.57-.58.96-.75 1.38-.15.37-.25.76-.32 1.15-.07.45-.07.9-.07 1.58v9.51c0 .6 0 1.12.03 1.54.04.44.12.86.32 1.27.32.62.82 1.12 1.44 1.43.4.2.83.29 1.27.32.42.04.93.04 1.54.04h1.12a6.64 6.64 0 0 0 13.13 0h5.68a6.64 6.64 0 0 0 13.13 0c.61 0 1.14-.02 1.58-.05.64-.05 1.2-.16 1.73-.43a4.4 4.4 0 0 0 1.93-1.93c.27-.53.38-1.1.43-1.73.05-.6.05-1.36.05-2.27V24.75a1 1 0 1 0-2 0v10.53c0 .97 0 1.64-.04 2.16-.05.5-.12.78-.22.98-.23.46-.6.82-1.06 1.06-.2.1-.47.17-.98.21-.37.04-.83.04-1.42.05a6.64 6.64 0 0 0-13.13 0h-5.68a6.64 6.64 0 0 0-13.13 0H40.3c-.65 0-1.08 0-1.4-.03a1.42 1.42 0 0 1-.54-.11 1.27 1.27 0 0 1-.55-.56 1.41 1.41 0 0 1-.11-.53 19.4 19.4 0 0 1-.03-1.4v-9.4l.01-1.02h14.2c.6 0 1.12 0 1.54-.03.44-.04.86-.12 1.27-.33a3.27 3.27 0 0 0 1.43-1.43c.2-.4.29-.83.32-1.27.04-.42.04-.93.04-1.54V14.22c0-.97 0-1.64.04-2.16.04-.5.12-.78.22-.98.23-.46.6-.82 1.05-1.06.2-.1.48-.17.98-.22.52-.04 1.2-.04 2.16-.04h5.83a1 1 0 1 0 0-2h-5.83ZM54.5 17.3h-8.05c-1.57 0-2.13 0-2.62.16-.47.15-.9.4-1.27.72-.38.34-.68.82-1.49 2.16l-2.49 4.15-.13.21h13.41c.65 0 1.08 0 1.41-.03.32-.02.45-.07.53-.1.24-.13.44-.33.56-.56.04-.08.08-.22.11-.53.03-.33.03-.76.03-1.42V17.3ZM52.6 40.74a4.64 4.64 0 1 0-9.29 0 4.64 4.64 0 0 0 9.29 0Zm14.16-4.64a4.64 4.64 0 1 0 0 9.28 4.64 4.64 0 0 0 0-9.28Zm3.15 19.05H71.32a.85.85 0 0 1 0 1.7h-1.36c-.97 0-1.65 0-2.17.04-.52.05-.82.12-1.04.24-.48.24-.87.64-1.12 1.12-.11.22-.2.52-.23 1.03-.05.53-.05 1.2-.05 2.17V62.84c0 .51 0 .95-.03 1.31a3.2 3.2 0 0 1-.3 1.22c-.3.59-.79 1.07-1.37 1.37-.39.2-.8.27-1.22.3-.42.04-.92.04-1.53.04H54c-.02.24-.02.55-.02 1.16v3.67c0 .54 0 .9.02 1.18.02.28.05.41.09.5.14.35.42.62.77.77.08.03.22.07.49.09l.42.01a4.26 4.26 0 0 1 8.35 0h3.01a4.26 4.26 0 0 1 8.33-.1 2.56 2.56 0 0 0 1.81-2.45V66.6a.85.85 0 1 1 1.71 0v5.3c0 2.1-1.5 3.83-3.48 4.2a4.26 4.26 0 0 1-8.37.07h-3a4.26 4.26 0 0 1-8.36 0l-.54-.02a3.2 3.2 0 0 1-1.03-.22 3.12 3.12 0 0 1-1.69-1.69 3.2 3.2 0 0 1-.21-1.03c-.03-.35-.03-.77-.03-1.27V68.17c0-.68 0-1.12.07-1.56.07-.38.17-.76.32-1.12.16-.4.38-.78.74-1.37l.03-.06.26-.42.07-.13c.7-1.17 1.15-1.92 1.78-2.47a5.4 5.4 0 0 1 1.93-1.1c.8-.25 1.68-.25 3.04-.25h3.14l.04-.55c.05-.62.16-1.16.41-1.67.41-.8 1.06-1.45 1.86-1.86.51-.26 1.06-.36 1.68-.41.6-.05 1.34-.05 2.27-.05Zm-9.26 6.25h2.99v1.19c0 .65 0 1.09-.03 1.42-.03.33-.07.49-.13.59-.13.27-.35.48-.62.62-.1.05-.26.1-.58.13-.34.02-.78.02-1.43.02h-6.22l.26-.43.26-.43c.8-1.33 1.11-1.83 1.52-2.2a3.7 3.7 0 0 1 1.32-.74c.51-.16 1.1-.17 2.66-.17Zm10.66 16.47a2.56 2.56 0 0 1-2.56-2.53v-.04a2.56 2.56 0 1 1 2.56 2.57ZM57.4 75.32a2.56 2.56 0 1 1 5.11 0 2.56 2.56 0 0 1-5.11 0Zm21.64-16.18a1 1 0 0 0-1.41-1.42l-1.18 1.17-1.17-1.17a1 1 0 0 0-1.42 1.42l1.18 1.17-1.18 1.17a1 1 0 1 0 1.42 1.42l1.17-1.18 1.18 1.18a1 1 0 1 0 1.41-1.42l-1.17-1.17 1.17-1.17Zm-1.16-45.97a1 1 0 1 0-1.52-1.3l-4.88 5.7-2.07-2.4a1 1 0 0 0-1.51 1.3l2.82 3.29a1 1 0 0 0 1.52 0l5.64-6.59Zm-65.44 29.7a7.31 7.31 0 0 0 0 14.63h23.75a9.31 9.31 0 1 1 0 18.62H22a1 1 0 0 1 0-2h14.19a7.31 7.31 0 0 0 0-14.62H12.44a9.31 9.31 0 0 1 0-18.63H25.5a1 1 0 1 1 0 2H12.44Zm-5.9 24.67a2.96 2.96 0 1 1 5.92 0 2.96 2.96 0 0 1-5.92 0Zm2.96-4.96a4.96 4.96 0 0 0-1 9.82V75a1 1 0 1 0 2 0v-2.6a4.96 4.96 0 0 0-1-9.82ZM4.32 74.45a1 1 0 0 0-.64-1.9c-.82.27-1.59.65-2.16 1.23-.6.6-.94 1.37-.94 2.3 0 .8.4 1.48.92 2s1.22.95 2.01 1.28c1.59.67 3.7 1.06 5.99 1.06s4.4-.4 5.99-1.06c.79-.33 1.49-.76 2.01-1.28.53-.52.92-1.2.92-2 0-.93-.34-1.7-.94-2.3a5.44 5.44 0 0 0-2.16-1.23 1 1 0 0 0-.64 1.9c.68.22 1.12.48 1.38.74.23.23.36.5.36.89 0 .11-.06.31-.33.59-.28.28-.74.57-1.38.85-1.28.54-3.12.9-5.21.9a13.9 13.9 0 0 1-5.21-.9 4.38 4.38 0 0 1-1.38-.85c-.27-.28-.33-.48-.33-.6 0-.38.13-.65.36-.88.26-.26.7-.52 1.38-.74Z" fill="#3EC227"/></g><defs><clipPath id="a"><path fill="#fff" d="M0 0h84v84H0z"/></clipPath></defs></svg>