<svg width="84" height="84" fill="none" xmlns="http://www.w3.org/2000/svg"><path fill-rule="evenodd" clip-rule="evenodd" d="M31.62 4.03a4 4 0 0 1 1.73.56c.38.23.72.56 1.62 1.46l8.65 8.65c.9.9 1.22 1.23 1.46 1.61a4 4 0 0 1 .56 1.74 1 1 0 0 0-.3-.05H33.86c-.58 0-.95 0-1.24-.02a1.14 1.14 0 0 1-.42-.09 1 1 0 0 1-.43-.44 1.14 1.14 0 0 1-.09-.42c-.02-.28-.02-.65-.02-1.23V4.33a1 1 0 0 0-.05-.3ZM29.72 4H12c-1.42 0-2.42 0-3.2.06-.77.07-1.25.19-1.62.38a4 4 0 0 0-1.74 1.74c-.2.37-.31.85-.38 1.62C5 8.58 5 9.58 5 11v37.33c0 1.42 0 2.42.06 3.2.07.78.19 1.25.38 1.62a4 4 0 0 0 1.74 1.75c.37.19.85.3 1.62.37.78.06 1.78.06 3.2.06h1.5a1 1 0 1 1 0 2h-1.54c-1.37 0-2.45 0-3.33-.07a6.16 6.16 0 0 1-2.35-.58 6 6 0 0 1-2.63-2.62c-.35-.7-.5-1.47-.58-2.36C3 50.82 3 49.74 3 48.38V10.96c0-1.37 0-2.45.07-3.33.07-.9.23-1.65.58-2.35a6 6 0 0 1 2.63-2.63c.7-.35 1.46-.5 2.35-.58C9.51 2 10.6 2 11.96 2h18.18c1.1 0 1.83 0 2.52.17a6 6 0 0 1 1.74.71c.6.38 1.12.89 1.9 1.67l.08.09 8.65 8.64.09.09c.78.78 1.3 1.3 1.66 1.9A6 6 0 0 1 47.5 17c.17.7.17 1.42.17 2.52v3.98a1 1 0 1 1-2 0v-3.56a1 1 0 0 1-.34.06h-11.5c-.53 0-.98 0-1.36-.03-.4-.03-.79-.1-1.17-.3a3 3 0 0 1-1.3-1.3c-.2-.39-.27-.78-.3-1.17-.03-.38-.03-.83-.03-1.36V4.33a1 1 0 0 1 .05-.33ZM13.33 23.67a1 1 0 1 0 0 2h16a1 1 0 1 0 0-2h-16Zm0 9.66a1 1 0 1 0 0 2H24a1 1 0 0 0 0-2H13.33Z" fill="#3EC227"/><path fill-rule="evenodd" clip-rule="evenodd" d="M49.81 27.57h-.04c-.8 0-1.47 0-2.01.04-.56.05-1.08.15-1.57.4a4 4 0 0 0-1.74 1.74c-.25.49-.35 1-.4 1.57-.04.54-.04 1.2-.04 2V37.98H30.27c-1.17 0-1.98 0-2.72.24a5 5 0 0 0-1.78 1c-.6.52-1 1.22-1.6 2.22l-.09.13-5.03 8.38-.03.07c-.3.5-.52.85-.67 1.23a5 5 0 0 0-.28 1.04c-.07.4-.07.8-.07 1.4v15.94c0 .53 0 .98.03 1.36.03.4.1.79.3 1.17a3 3 0 0 0 1.3 1.3c.39.2.78.27 1.18.3.37.03.82.03 1.35.03h3.7a8.8 8.8 0 0 0 17.5 0h8.5a8.8 8.8 0 0 0 17.5 0h2.1c.8 0 1.47 0 2.01-.04a4.1 4.1 0 0 0 1.57-.4 4 4 0 0 0 1.74-1.74c.25-.49.35-1 .4-1.56.04-.55.04-1.21.04-2.01V52.27a1 1 0 1 0-2 0v15.71c0 .86 0 1.44-.04 1.9-.03.43-.1.66-.18.81a2 2 0 0 1-.87.88c-.16.08-.38.14-.82.18-.45.03-1.03.03-1.89.03h-2.06a8.8 8.8 0 0 0-17.5 0h-8.5a8.8 8.8 0 0 0-17.5 0H22.2c-.58 0-.95 0-1.23-.02a1.14 1.14 0 0 1-.42-.09 1 1 0 0 1-.44-.43 1.14 1.14 0 0 1-.09-.42c-.02-.29-.02-.66-.02-1.24V52.93c.1.03.2.05.3.05h21.55c.53 0 .98 0 1.35-.03.4-.04.8-.1 1.17-.3a3 3 0 0 0 1.31-1.31c.2-.38.27-.77.3-1.17.03-.37.03-.83.03-1.35V33.36c0-.85 0-1.43.04-1.88.03-.44.1-.66.18-.82a2 2 0 0 1 .87-.87c.16-.08.38-.15.82-.18.45-.04 1.03-.04 1.89-.04h3.36a1 1 0 0 0 0-2H49.8Zm-5.8 16.62v-4.22H30.43c-1.4 0-1.86.01-2.27.14a3 3 0 0 0-1.07.6c-.33.3-.58.7-1.3 1.88l-5.02 8.38H41.8c.58 0 .95 0 1.23-.02.27-.02.37-.06.42-.08a1 1 0 0 0 .44-.44c.03-.05.06-.15.09-.42.02-.28.02-.66.02-1.23v-4.6Zm23.4 28.58v.02a6.8 6.8 0 1 1 0-.02Zm-32.8-6.79a6.8 6.8 0 1 0 0 13.6 6.8 6.8 0 0 0 0-13.6Z" fill="#3EC227"/><path fill-rule="evenodd" clip-rule="evenodd" d="M61.87 25.25c2.39-1.08 5.62-2.25 8.36-2.25 2.75 0 5.98 1.17 8.37 2.25 1.04.48 1.37.64 1.72.98.29.28.6.77.74 1.15.16.45.17.9.17 2.24v6.08c0 2.35 0 3.32-.31 4.3-.25.81-.8 1.81-1.35 2.46-.67.79-1.36 1.23-3.04 2.3-1.23.77-2.5 1.52-3.65 2.06-1.19.57-2.1.85-2.65.85-.54 0-1.45-.28-2.64-.85a35.83 35.83 0 0 1-3.65-2.06c-1.68-1.07-2.37-1.51-3.04-2.3A7.8 7.8 0 0 1 59.55 40c-.3-.99-.32-1.96-.32-4.31v-6.08c0-1.34.02-1.79.18-2.24.13-.38.45-.87.73-1.15.35-.34.69-.5 1.73-.98ZM70.23 21c-3.2 0-6.75 1.32-9.19 2.43l-.1.05c-.92.42-1.57.71-2.19 1.32-.5.49-.99 1.24-1.23 1.9a8 8 0 0 0-.29 2.78v6.37c0 2.15 0 3.44.41 4.75a9.78 9.78 0 0 0 1.73 3.15c.9 1.05 1.84 1.64 3.4 2.64l.1.06c1.26.8 2.6 1.58 3.86 2.18a8.97 8.97 0 0 0 3.5 1.04c1.03 0 2.3-.47 3.5-1.04a37.8 37.8 0 0 0 3.87-2.18l.1-.06c1.56-1 2.5-1.6 3.4-2.64a9.78 9.78 0 0 0 1.73-3.15c.4-1.3.4-2.6.4-4.75v-6.37a8 8 0 0 0-.29-2.78 5.42 5.42 0 0 0-1.22-1.9c-.63-.6-1.28-.9-2.2-1.32l-.1-.05C77 22.33 73.44 21 70.24 21Zm5.38 11.7a1 1 0 0 0-1.42-1.4l-5.29 5.29-1.96-1.96a1 1 0 0 0-1.41 1.41l2.66 2.67a1 1 0 0 0 1.42 0l6-6Z" fill="#3EC227"/></svg>