<svg width="88" height="88" fill="none" xmlns="http://www.w3.org/2000/svg"><g clip-path="url(#a)" fill="#5C656D"><path d="M82.84 15.77V3.7c0-2.05-1.66-3.7-3.7-3.7H60.62a1.29 1.29 0 1 0 0 2.57h18.52c.62 0 1.13.5 1.13 1.13v10.77H7.73V3.71c0-.63.51-1.13 1.13-1.13h45.75a1.29 1.29 0 1 0 0-2.58H8.86a3.71 3.71 0 0 0-3.7 3.7v39.37a1.29 1.29 0 1 0 2.57 0V17.06h72.54v51.66c0 .62-.51 1.13-1.13 1.13H65.09V59.61a4.25 4.25 0 0 0-6.12-3.84 4.2 4.2 0 0 0-6.85-1.6c0 .01 0 .02-.02.02a4.2 4.2 0 0 0-4.55-.85v-4.6a7.97 7.97 0 1 0-8.43-.13v15.58c0 .03 0 .06-.05.08-.05.02-.07 0-.09-.02l-5.22-5.22a4.98 4.98 0 0 0-7.03 0l-.76.75c-.9.91-.9 2.4 0 3.3l6.77 6.77H8.86c-.62 0-1.13-.5-1.13-1.13V49.1a1.29 1.29 0 1 0-2.57 0v19.63c0 2.05 1.66 3.7 3.7 3.7h26.46l2.89 2.9c.59.59.91 1.37.91 2.2v8.43c0 1.13.92 2.05 2.05 2.05H58.3c1.13 0 2.04-.92 2.04-2.05V81.1c0-.58.2-1.15.57-1.6l1.6-2a11.88 11.88 0 0 0 2.35-5.07h14.28c2.04 0 3.7-1.66 3.7-3.7V15.77ZM38.06 41.91a5.39 5.39 0 1 1 9.49 3.48v-.85c0-2.3-1.76-4.19-4.01-4.3a4.23 4.23 0 0 0-4.42 4.2v.69a5.37 5.37 0 0 1-1.06-3.22Zm22.43 33.97-1.6 2.01a5.17 5.17 0 0 0-1.12 3.21v4.32H41.7v-7.9c0-1.52-.6-2.95-1.67-4.03L27.97 61.43l.58-.58a2.4 2.4 0 0 1 3.39 0l5.22 5.22a2.65 2.65 0 0 0 4.54-1.88V44.46a1.62 1.62 0 0 1 1.72-1.63 1.7 1.7 0 0 1 1.55 1.7v12.7a1.29 1.29 0 1 0 2.58 0 1.64 1.64 0 0 1 3.27 0 1.29 1.29 0 1 0 2.58 0 1.62 1.62 0 0 1 1.72-1.63 1.7 1.7 0 0 1 1.55 1.7v2.23a1.29 1.29 0 1 0 2.57 0c0-.45.18-.87.51-1.18.33-.31.76-.48 1.21-.45a1.7 1.7 0 0 1 1.55 1.71v10.5a9.3 9.3 0 0 1-2.02 5.77Z"/><path d="M72.26 8.53a3.96 3.96 0 1 0-7.91 0 3.96 3.96 0 0 0 7.91 0Zm-5.33 0a1.38 1.38 0 1 1 2.76 0 1.38 1.38 0 0 1-2.76 0ZM53.66 8.53a3.96 3.96 0 1 0 7.92 0 3.96 3.96 0 0 0-7.92 0Zm3.95-1.37a1.38 1.38 0 1 1 0 2.75 1.38 1.38 0 0 1 0-2.75ZM42.96 8.53a3.96 3.96 0 1 0 7.92 0 3.96 3.96 0 0 0-7.92 0Zm5.33 0a1.38 1.38 0 1 1-2.75 0 1.38 1.38 0 0 1 2.75 0ZM31.36 38.36c-.7-.13-1.37.33-1.5 1.03a13.94 13.94 0 0 0 0 5.04 1.29 1.29 0 0 0 2.54-.47 11.31 11.31 0 0 1 0-4.1c.13-.7-.34-1.37-1.04-1.5ZM54.46 44.2a1.29 1.29 0 0 0 2.56.2 13.88 13.88 0 0 0 0-5 1.29 1.29 0 0 0-2.54.46 11.35 11.35 0 0 1-.02 4.33ZM26.24 33.97a1.29 1.29 0 0 0-1.66.74 20.07 20.07 0 0 0 0 14.4 1.29 1.29 0 0 0 2.4-.92 17.48 17.48 0 0 1 0-12.56 1.29 1.29 0 0 0-.74-1.66ZM60.64 49.85a1.28 1.28 0 0 0 1.67-.74c.87-2.3 1.32-4.71 1.32-7.2 0-2.48-.45-4.9-1.32-7.2a1.29 1.29 0 1 0-2.41.92 17.5 17.5 0 0 1 0 12.56c-.26.66.08 1.41.74 1.66Z"/></g><defs><clipPath id="a"><path fill="#fff" d="M0 0h88v88H0z"/></clipPath></defs></svg>