<svg width="81" height="80" fill="none" xmlns="http://www.w3.org/2000/svg"><path d="M34.25 11.25h10v2.5h-10v-2.5ZM26.75 11.25h3.75v2.5h-3.75v-2.5ZM30.5 18.75h13.75v2.5H30.5v-2.5ZM19.25 18.75h7.5v2.5h-7.5v-2.5ZM49.25 58.75h12.5v2.5h-12.5v-2.5ZM33 58.75h12.5v2.5H33v-2.5ZM19.25 58.75h10v2.5h-10v-2.5ZM58 66.25h3.75v2.5H58v-2.5ZM44.25 66.25h10v2.5h-10v-2.5ZM19.25 66.25H40.5v2.5H19.25v-2.5ZM19.25 33.75h5v2.5h-5v-2.5ZM56.75 33.75h3.75v2.5h-3.75v-2.5ZM19.25 43.75h5v2.5h-5v-2.5Z" fill="#5C656D"/><path d="M16.75 77.5h47.5a6.26 6.26 0 0 0 6.25-6.25V45a1.25 1.25 0 0 0-1.25-1.25h-5v2.5H68v25A3.75 3.75 0 0 1 64.25 75h-47.5A3.75 3.75 0 0 1 13 71.25v-25h2.5v-2.5h-3.75A1.25 1.25 0 0 0 10.5 45v26.25a6.26 6.26 0 0 0 6.25 6.25Z" fill="#5C656D"/><path d="M56.75 43.75h3.75v2.5h-3.75v-2.5ZM40.5 53.75a13.75 13.75 0 1 0 0-27.5 13.75 13.75 0 0 0 0 27.5Zm0-25a11.25 11.25 0 1 1 0 22.5 11.25 11.25 0 0 1 0-22.5Z" fill="#5C656D"/><path d="m36.38 45.88 4.12-4.11 4.12 4.11 1.76-1.76L42.27 40l4.11-4.12-1.76-1.76-4.12 4.11-4.12-4.11-1.76 1.76L38.73 40l-4.11 4.12 1.76 1.76Z" fill="#5C656D"/><path d="M11.75 36.25h3.75v-2.5H13v-25A3.75 3.75 0 0 1 16.75 5h31.68c.28 0 .55.03.82.1v12.4a6.26 6.26 0 0 0 6.25 6.25H63v-2.5h-7.5a3.75 3.75 0 0 1-3.75-3.75V6.77L66.9 21.92a3.72 3.72 0 0 1 1.1 2.65v9.18h-3.75v2.5h5A1.25 1.25 0 0 0 70.5 35V24.57a6.2 6.2 0 0 0-1.83-4.42L52.85 4.33a6.2 6.2 0 0 0-4.42-1.83H16.75a6.26 6.26 0 0 0-6.25 6.25V35a1.25 1.25 0 0 0 1.25 1.25Z" fill="#5C656D"/></svg>