<svg width="66" height="42" viewBox="0 0 66 42" fill="none" xmlns="http://www.w3.org/2000/svg">
<rect x="0.5" y="0.5" width="65" height="41" rx="3.5" stroke="white"/>
<path fill-rule="evenodd" clip-rule="evenodd" d="M20.743 14.8663C20.2902 15.4246 19.5658 15.8649 18.8414 15.802C18.7508 15.0472 19.1055 14.2451 19.5205 13.7497C19.9733 13.1757 20.7656 12.7668 21.407 12.7354C21.4825 13.5217 21.1882 14.2923 20.743 14.8663ZM27.459 13.671V25.9299H29.2851V21.7387H31.813C34.1221 21.7387 35.7445 20.0875 35.7445 17.697C35.7445 15.3066 34.1523 13.671 31.8734 13.671H27.459ZM31.3903 15.2752H29.285V20.1426H31.3828C32.975 20.1426 33.8805 19.254 33.8805 17.7049C33.8805 16.1559 32.975 15.2752 31.3903 15.2752ZM39.08 26.0243C40.227 26.0243 41.291 25.4188 41.774 24.4595H41.8117V25.9299H43.502V19.828C43.502 18.0588 42.1437 16.9186 40.0535 16.9186C38.1141 16.9186 36.6804 18.0745 36.6276 19.6629H38.2726C38.4084 18.908 39.08 18.4126 40.0006 18.4126C41.1175 18.4126 41.7438 18.9552 41.7438 19.9538V20.6301L39.4649 20.7716C37.3444 20.9053 36.1974 21.8096 36.1974 23.3822C36.1974 24.9706 37.3822 26.0243 39.08 26.0243ZM37.9782 23.335C37.9782 24.082 38.5969 24.5695 39.5704 24.5695C40.8079 24.5695 41.7437 23.7518 41.7437 22.6037V21.9118L39.7138 22.0454C38.5743 22.1162 37.9782 22.5644 37.9782 23.335ZM45.7582 29.264C47.5391 29.264 48.3767 28.5563 49.1087 26.4096L52.3158 17.0366H50.4594L48.3088 24.2787H48.2711L46.1204 17.0366H44.2113L47.3052 25.9614L47.1392 26.504C46.86 27.424 46.4072 27.7778 45.5998 27.7778C45.4564 27.7778 45.1772 27.7621 45.064 27.7464V29.2168C45.1696 29.2483 45.6224 29.264 45.7582 29.264ZM19.7085 16.3438C20.1789 16.1514 20.7612 15.9131 21.3994 15.9514C21.8069 15.9828 22.9841 16.1086 23.7387 17.2724C23.7353 17.2751 23.7276 17.2803 23.7162 17.288C23.5295 17.4145 22.3436 18.2182 22.3578 19.8044C22.372 21.6941 23.8492 22.3989 24.0425 22.4911C24.0551 22.4971 24.0632 22.5015 24.0632 22.5015C24.0624 22.504 24.0609 22.5091 24.0587 22.5165C24.0201 22.6465 23.766 23.5031 23.1879 24.3808C22.6521 25.1986 22.1012 26.0006 21.2259 26.0163C20.8139 26.024 20.5365 25.899 20.2475 25.7689C19.9436 25.6321 19.6271 25.4895 19.1281 25.4895C18.6112 25.4895 18.2801 25.6359 17.9614 25.7768C17.6846 25.8992 17.4172 26.0174 17.0453 26.0321C16.2002 26.0635 15.5588 25.1671 15.023 24.3493C13.9288 22.698 13.0912 19.6943 14.2231 17.6655C14.774 16.6512 15.7776 16.0143 16.8567 15.9985C17.3275 15.9896 17.7764 16.1755 18.1691 16.338C18.4688 16.4621 18.7357 16.5726 18.9545 16.5726C19.1495 16.5726 19.4058 16.4677 19.7085 16.3438Z" fill="white"/>
</svg>
