<svg width="22" height="18" viewBox="0 0 22 18" fill="none" xmlns="http://www.w3.org/2000/svg">
<path fill-rule="evenodd" clip-rule="evenodd" d="M20.4404 9.72819C14.5975 9.76002 8.61789 9.79378 2.50156 9.82948C5.47409 12.8051 7.62142 14.9562 8.94357 16.2826C9.0949 16.4726 9.11114 16.8697 8.82482 17.1799C8.53851 17.4901 8.02841 17.4778 7.88284 17.3274C5.38116 14.8162 2.82941 12.2647 0.227595 9.67289C0.0757835 9.53514 -0.000121365 9.35766 -0.000121346 9.14046C-0.000121327 8.92326 0.0757835 8.74615 0.227595 8.60912C2.83374 6.06037 5.51578 3.44082 8.27372 0.750459C8.59828 0.488334 9.07048 0.512275 9.34848 0.81717C9.62648 1.12206 9.65516 1.44043 9.28301 1.8574C7.16399 3.933 4.94527 6.09663 2.62685 8.34828C8.67575 8.30784 14.6136 8.27369 20.4404 8.24584C20.7333 8.24584 21.1772 8.46974 21.1772 9.00738C21.1772 9.54502 20.7662 9.72819 20.4404 9.72819Z" fill="#233441"/>
</svg>
