<svg width="40" height="40" fill="none" xmlns="http://www.w3.org/2000/svg"><g clip-path="url(#a)" fill="#333F48"><path d="m38.12 20.8 1.6-4.99-2.22-.7V10H25.1L17.8-.04 13.62 3l-1.9-1.38-3.04 4.19-2.23-.73L4.85 10H2.5v4.31l-2.54 3.5 1.92 1.39-1.6 4.98 2.22.72V30h12.4l7.3 10.04L26.38 37l1.9 1.38 3.04-4.19 2.23.73 1.6-4.92h2.35v-4.31l2.54-3.5-1.92-1.39ZM2.5 23.58l-.64-.2.64-2.02v2.22Zm0-5.48-.79-.57.79-1.09v1.66ZM17.53 1.71 23.55 10h-.3l-8.57-6.22 2.85-2.07ZM12 3.37l8.75 6.36L9.93 6.2 12 3.37ZM7.25 6.66 17.54 10H6.16l1.09-3.34Zm15.22 31.63L16.45 30h.3l8.57 6.22-2.85 2.07ZM28 36.63l-8.75-6.36 10.82 3.52L28 36.63Zm4.75-3.29L22.46 30h11.38l-1.09 3.34Zm3.5-4.59H3.75v-17.5h32.5v17.5Zm1.25-12.33.64.2-.64 2.02v-2.22Zm0 6.31.22-.67.57.41-.79 1.09v-.83Z"/><path d="M8.44 26.88v.62h23.44v-.63c0-3.08 2.7-2.4 3.12-2.5v-8.75h-.63c-3.08 0-2.4-2.7-2.5-3.12H8.13c-.1.42.6 3.13-2.5 3.13H5v8.74c.4.05 3.44-.42 3.44 2.5ZM6.25 16.84c1.82-.2 2.9-1.27 3.1-3.09h21.3c.2 1.82 1.28 2.9 3.1 3.1v1.27h-2.5v1.25h2.5v1.25H27.5v1.25h6.25v1.29c-1.82.2-2.9 1.27-3.1 3.09h-21c-.24-1.76-1.48-2.9-3.4-3.1v-6.3Z"/><path d="M18.75 20.63H20a.62.62 0 1 1 0 1.25h-2.5v1.25h1.25v1.25H20v-1.25a1.87 1.87 0 1 0 0-3.75h-1.25a.62.62 0 1 1 0-1.25h2.5v-1.25H20v-1.25h-1.25v1.24a1.87 1.87 0 1 0 0 3.75ZM23.13 19.38h1.25v1.25h-1.25v-1.25ZM14.38 19.38h1.24v1.25h-1.24v-1.25ZM28.75 18.13H30v1.25h-1.25v-1.25Z"/></g><defs><clipPath id="a"><path fill="#fff" d="M0 0h40v40H0z"/></clipPath></defs></svg>