<svg width="40" height="40" fill="none" xmlns="http://www.w3.org/2000/svg"><g clip-path="url(#a)" fill="#333F48"><path d="M19.97 20.42a5.55 5.55 0 1 0 .01 11.1 5.55 5.55 0 0 0-.01-11.1Zm0 9.91a4.38 4.38 0 1 1 0-8.75 4.38 4.38 0 0 1 0 8.75ZM13.21 10.98c0 .54.44.97.98.97h20.83c.54 0 .98-.43.98-.97V8.92a.98.98 0 0 0-.98-.97H23.36a.59.59 0 0 0 0 1.17h11.47v1.66H14.38V9.12h6.25a.59.59 0 1 0 0-1.17H14.2a.98.98 0 0 0-.98.97v2.06ZM28.37 6.46a.59.59 0 0 0 0-1.17H13.8a.59.59 0 1 0 0 1.17h14.57ZM13.8 14.45H35.4a.59.59 0 0 0 0-1.17H13.8a.59.59 0 1 0 0 1.17ZM35.41 6.46a.59.59 0 0 0 0-1.17H31.2a.59.59 0 1 0 0 1.17h4.22ZM5.49 11.94c-.37 0-.66.5-.66.83 0 .65 1.07 1.42 2.5 1.45v.33c0 .16.17.3.4.3.2 0 .4-.14.4-.3v-.36c1.31-.21 2.22-1.05 2.22-2.5 0-1.6-1.18-2.12-2.23-2.51V7.1c.8.06 1.06.43 1.4.43.43 0 .61-.54.61-.81 0-.68-1.24-.9-2-.93v-.3c0-.16-.2-.3-.4-.3-.23 0-.4.14-.4.3v.32c-1.18.16-2.29.8-2.29 2.3 0 1.5 1.21 1.96 2.28 2.36v2.34c-1.03-.11-1.39-.88-1.83-.88Zm2.54-1.17c.5.22.88.5.88 1.08 0 .55-.36.86-.88.96v-2.04Zm-1.55-2.8c0-.45.35-.73.94-.83v1.78c-.54-.21-.94-.44-.94-.95Z"/><path d="M36.9 0H3.03A3.04 3.04 0 0 0 0 3.03v18.28a.59.59 0 1 0 1.17 0V3.03c0-1.02.84-1.86 1.86-1.86H36.9c1.03 0 1.87.84 1.87 1.86V26.9c0 1.03-.84 1.87-1.87 1.87h-9.7c.01-.17.03-.32.07-.44.07-.21.25-.46.45-.72.36-.46.76-.98.76-1.65 0-.67-.4-1.2-.76-1.65-.2-.26-.38-.51-.45-.72-.08-.23-.07-.55-.06-.9 0-.57.02-1.21-.36-1.73-.38-.53-1-.71-1.55-.88-.33-.1-.63-.19-.82-.33-.19-.13-.37-.4-.56-.67-.33-.47-.7-1.01-1.32-1.21-.6-.2-1.21.01-1.74.2-.33.1-.64.22-.9.22-.24 0-.55-.11-.88-.22-.53-.19-1.14-.4-1.74-.2-.63.2-1 .74-1.33 1.21-.19.28-.37.54-.55.67-.2.14-.5.23-.82.33-.55.17-1.17.35-1.56.88-.37.52-.36 1.16-.35 1.73 0 .35.01.67-.06.9-.07.2-.26.46-.46.72-.35.46-.75.98-.75 1.65 0 .67.4 1.2.75 1.65.2.26.39.51.46.72.04.12.05.27.06.44h-9.7a1.87 1.87 0 0 1-1.86-1.87v-2.86a.58.58 0 1 0-1.17 0v2.86a3.04 3.04 0 0 0 3.03 3.04h9.71c.03.36.12.71.34 1.02.39.53 1 .71 1.56.88.32.1.63.19.82.33.18.13.36.4.55.67.1.14.2.29.32.43v5.67a1.06 1.06 0 0 0 1.44.99l2.2-.85 2.2.85a1.06 1.06 0 0 0 1.44-1v-5.66l.31-.43c.2-.28.37-.54.56-.67.19-.14.5-.23.82-.33.55-.17 1.17-.35 1.55-.88.23-.3.31-.66.34-1.02h9.71a3.04 3.04 0 0 0 3.04-3.04V3.03A3.04 3.04 0 0 0 36.9 0ZM22.44 38.78l-2.1-.8a1.06 1.06 0 0 0-.75 0l-2.1.8v-4.69c.13.03.24.04.36.04.43 0 .85-.14 1.23-.28.33-.11.64-.22.89-.22s.56.11.89.22c.48.17 1.03.36 1.58.24v4.69Zm4.35-11.88c-.25.33-.5.67-.64 1.07-.13.42-.12.85-.11 1.28 0 .4.01.82-.13 1.02-.16.21-.56.33-.95.45-.4.12-.82.25-1.17.5s-.6.6-.83.95c-.23.34-.47.69-.72.77-.23.07-.62-.06-1-.2-.4-.13-.82-.28-1.27-.28-.45 0-.87.15-1.27.29-.38.13-.77.26-1 .19-.25-.08-.5-.43-.72-.77-.24-.34-.49-.7-.83-.95-.35-.25-.77-.38-1.18-.5-.39-.12-.79-.24-.94-.45-.15-.2-.14-.62-.13-1.02 0-.43.02-.86-.12-1.28a3.7 3.7 0 0 0-.64-1.07c-.25-.33-.51-.67-.51-.94 0-.27.26-.61.51-.94.25-.33.51-.67.64-1.07.14-.42.13-.86.12-1.28 0-.4-.02-.82.13-1.02.15-.21.55-.33.94-.45.4-.12.83-.25 1.18-.5.34-.25.59-.61.83-.95.23-.34.47-.69.72-.77a.5.5 0 0 1 .15-.02c.23 0 .54.1.85.21.4.14.82.29 1.27.29.45 0 .86-.15 1.27-.29.38-.13.77-.27 1-.2.25.09.49.44.72.78.24.34.48.7.83.95s.77.38 1.17.5c.4.12.8.24.95.45.14.2.13.62.13 1.02-.01.42-.02.86.11 1.28.13.4.4.74.64 1.07.26.33.52.67.52.94 0 .27-.26.61-.52.94Z"/><path d="M4.04 19.72c0 .32.26.59.58.59h6.94a.59.59 0 1 0 0-1.17H4.62a.59.59 0 0 0-.58.58ZM4.62 22.78h5.62a.59.59 0 0 0 0-1.17H4.62a.59.59 0 0 0 0 1.17ZM4.62 25.25H9.3a.59.59 0 0 0 0-1.17H4.62a.59.59 0 0 0 0 1.17ZM35.31 19.14h-6.93a.59.59 0 0 0 0 1.17h6.93a.58.58 0 1 0 0-1.17ZM35.31 21.6H29.7a.59.59 0 0 0 0 1.18h5.62a.59.59 0 0 0 0-1.17ZM35.31 24.08h-4.68a.59.59 0 1 0 0 1.17h4.68a.59.59 0 0 0 0-1.17Z"/></g><defs><clipPath id="a"><path fill="#fff" d="M0 0h40v40H0z"/></clipPath></defs></svg>