<svg width="81" height="80" fill="none" xmlns="http://www.w3.org/2000/svg"><g clip-path="url(#a)" fill="#5C656D"><path d="M58.2 48.9a1.18 1.18 0 0 0-1.67 0l-1.91 1.9-1.92-1.9a1.18 1.18 0 0 0-1.66 1.66l1.91 1.91-1.9 1.91a1.18 1.18 0 0 0 1.65 1.67l1.92-1.92 1.91 1.92a1.17 1.17 0 0 0 1.66 0c.46-.46.46-1.2 0-1.67l-1.9-1.9 1.9-1.92c.46-.46.46-1.2 0-1.67ZM49.91 63.06v7.06c0 .65.53 1.17 1.18 1.17h7.06c.65 0 1.17-.52 1.17-1.17v-7.06c0-.65-.52-1.18-1.17-1.18h-7.06c-.65 0-1.18.53-1.18 1.18Zm2.35 1.18h4.71v4.7h-4.7v-4.7ZM64.03 48.94V56c0 .65.53 1.18 1.18 1.18h7.05c.65 0 1.18-.53 1.18-1.18v-7.06c0-.65-.53-1.18-1.18-1.18h-7.05c-.65 0-1.18.53-1.18 1.18Zm2.35 1.18h4.7v4.7h-4.7v-4.7Z"/><path d="M79.32 60.7c.65 0 1.18-.52 1.18-1.17v-45.3a5.89 5.89 0 0 0-5.88-5.88h-8.24V6a4.71 4.71 0 0 0-9.21-1.35 1.18 1.18 0 0 0 2.25.68 2.36 2.36 0 0 1 4.6.67v7.53a2.36 2.36 0 0 1-4.7 0v-4a1.18 1.18 0 0 0-1.3-1.17H23.88V6a4.71 4.71 0 0 0-9.4 0v2.35H6.37A5.89 5.89 0 0 0 .5 14.24v58.58a5.89 5.89 0 0 0 5.88 5.89h68.24a5.89 5.89 0 0 0 5.88-5.89v-6.58a1.18 1.18 0 1 0-2.35 0v6.58a3.53 3.53 0 0 1-3.53 3.53H6.38a3.53 3.53 0 0 1-3.53-3.53v-43.3h3.87a1.18 1.18 0 0 0 0-2.34H2.85V14.24a3.53 3.53 0 0 1 3.53-3.53h8.08v2.82a4.71 4.71 0 0 0 9.41 0v-2.82h33.1v2.82a4.71 4.71 0 0 0 9.41 0v-2.82h8.24a3.53 3.53 0 0 1 3.53 3.53v12.94h-64.9a1.18 1.18 0 0 0 0 2.35h64.9v30c0 .65.52 1.18 1.17 1.18Zm-57.8-47.17a2.36 2.36 0 0 1-4.7 0V6a2.36 2.36 0 0 1 4.7 0v7.53Z"/><path d="M59.68 35.1a1.18 1.18 0 0 0-1.66 0l-4.16 4.16-1.94-1.94a1.18 1.18 0 0 0-1.66 1.66l2.77 2.77a1.17 1.17 0 0 0 1.66 0l5-4.99c.45-.46.45-1.2 0-1.66ZM72.31 34.85a1.18 1.18 0 0 0-1.66 0l-1.91 1.91-1.92-1.91a1.18 1.18 0 0 0-1.66 1.66l1.91 1.91-1.91 1.92A1.18 1.18 0 0 0 66.82 42l1.92-1.91 1.9 1.91a1.17 1.17 0 0 0 1.67 0c.46-.46.46-1.2 0-1.66l-1.91-1.92 1.91-1.9c.46-.47.46-1.21 0-1.67ZM17.33 49.14a1.18 1.18 0 0 0-1.66 0L11.5 53.3l-1.94-1.94a1.18 1.18 0 0 0-1.67 1.67l2.78 2.77a1.18 1.18 0 0 0 1.66 0l5-5c.45-.45.45-1.2 0-1.66ZM8.74 61.88c-.65 0-1.18.53-1.18 1.18v7.06c0 .65.53 1.17 1.18 1.17h7.05c.65 0 1.18-.52 1.18-1.17v-7.06c0-.65-.53-1.18-1.18-1.18H8.74Zm5.88 7.06h-4.7v-4.7h4.7v4.7ZM16.97 41.95V34.9c0-.65-.53-1.18-1.18-1.18H8.74c-.65 0-1.18.53-1.18 1.18v7.05c0 .65.53 1.18 1.18 1.18h7.05c.65 0 1.18-.53 1.18-1.18Zm-2.35-1.17h-4.7v-4.7h4.7v4.7ZM31.45 35.1a1.18 1.18 0 0 0-1.66 0l-4.16 4.16-1.95-1.94a1.18 1.18 0 0 0-1.66 1.66l2.77 2.77a1.17 1.17 0 0 0 1.67 0l4.99-4.99c.46-.46.46-1.2 0-1.66ZM22.85 61.88c-.65 0-1.17.53-1.17 1.18v7.06c0 .65.52 1.17 1.17 1.17h7.06c.65 0 1.18-.52 1.18-1.17v-7.06c0-.65-.53-1.18-1.18-1.18h-7.06Zm5.89 7.06h-4.71v-4.7h4.7v4.7ZM45.57 35.1a1.18 1.18 0 0 0-1.67 0l-4.16 4.16-1.94-1.94a1.18 1.18 0 0 0-1.66 1.66l2.77 2.77a1.17 1.17 0 0 0 1.67 0l4.99-4.99c.46-.46.46-1.2 0-1.66ZM45.57 49.14a1.18 1.18 0 0 0-1.67 0l-4.16 4.16-1.94-1.94a1.18 1.18 0 0 0-1.66 1.67l2.77 2.77a1.18 1.18 0 0 0 1.67 0l4.99-5c.46-.45.46-1.2 0-1.66ZM36.97 61.88c-.65 0-1.18.53-1.18 1.18v7.06c0 .65.53 1.17 1.18 1.17h7.06c.65 0 1.18-.52 1.18-1.17v-7.06c0-.65-.53-1.18-1.18-1.18h-7.06Zm5.88 7.06h-4.7v-4.7h4.7v4.7ZM31.45 49.14a1.18 1.18 0 0 0-1.66 0l-4.16 4.16-1.95-1.94a1.18 1.18 0 0 0-1.66 1.67l2.77 2.77a1.18 1.18 0 0 0 1.67 0l4.99-5c.46-.45.46-1.2 0-1.66Z"/></g><defs><clipPath id="a"><path fill="#fff" transform="translate(.5)" d="M0 0h80v80H0z"/></clipPath></defs></svg>