<svg width="24" height="24" viewBox="0 0 24 24" fill="none" xmlns="http://www.w3.org/2000/svg">
<path d="M16.5 21.75H1.5C1.30109 21.75 1.11032 21.671 0.96967 21.5303C0.829018 21.3897 0.75 21.1989 0.75 21V6C0.75 5.60218 0.908035 5.22064 1.18934 4.93934C1.47064 4.65804 1.85218 4.5 2.25 4.5H18.75C19.1478 4.5 19.5294 4.65804 19.8107 4.93934C20.092 5.22064 20.25 5.60218 20.25 6V18C20.2506 18.0987 20.2317 18.1966 20.1943 18.2879C20.157 18.3793 20.102 18.4624 20.0325 18.5325L17.0325 21.5325C16.9624 21.602 16.8793 21.657 16.7879 21.6943C16.6966 21.7317 16.5987 21.7506 16.5 21.75ZM2.25 20.25H16.1925L18.75 17.6925V6H2.25V20.25Z" fill="#3EC227"/>
<path d="M11.25 3H9.75V5.25H11.25V3Z" fill="#3EC227"/>
<path d="M6 3H4.5V5.25H6V3Z" fill="#3EC227"/>
<path d="M16.5 3H15V5.25H16.5V3Z" fill="#3EC227"/>
<path d="M18.8301 10.5H1.33008C1.16432 10.5 1.00535 10.421 0.888136 10.2803C0.770926 10.1397 0.705078 9.94891 0.705078 9.75C0.705078 9.55109 0.770926 9.36032 0.888136 9.21967C1.00535 9.07902 1.16432 9 1.33008 9H18.8301C18.9958 9 19.1548 9.07902 19.272 9.21967C19.3892 9.36032 19.4551 9.55109 19.4551 9.75C19.4551 9.94891 19.3892 10.1397 19.272 10.2803C19.1548 10.421 18.9958 10.5 18.8301 10.5Z" fill="#3EC227"/>
<path d="M19.5 18L16.5 21V18H19.5Z" fill="#3EC227"/>
<path d="M16.5 21.75C16.4016 21.7525 16.304 21.732 16.215 21.69C16.078 21.6337 15.9608 21.5382 15.878 21.4154C15.7953 21.2926 15.7507 21.1481 15.75 21V18C15.75 17.8011 15.829 17.6103 15.9697 17.4697C16.1103 17.329 16.3011 17.25 16.5 17.25H19.5C19.6481 17.2507 19.7926 17.2953 19.9154 17.378C20.0382 17.4608 20.1337 17.578 20.19 17.715C20.2474 17.8516 20.2631 18.0021 20.2351 18.1476C20.2071 18.2931 20.1366 18.427 20.0325 18.5325L17.0325 21.5325C16.9624 21.602 16.8793 21.657 16.7879 21.6943C16.6966 21.7317 16.5987 21.7506 16.5 21.75ZM17.25 18.75V19.1925L17.6925 18.75H17.25Z" fill="#3EC227"/>
<rect x="3.70508" y="12" width="2.25" height="2.25" fill="#3EC227"/>
<rect x="3.70508" y="15.75" width="2.25" height="2.25" fill="#3EC227"/>
<rect x="7.45508" y="12" width="2.25" height="2.25" fill="#3EC227"/>
<rect x="7.45508" y="15.75" width="2.25" height="2.25" fill="#3EC227"/>
<rect x="11.2051" y="12" width="2.25" height="2.25" fill="#3EC227"/>
<rect x="11.2051" y="15.75" width="2.25" height="2.25" fill="#3EC227"/>
<rect x="14.9551" y="12" width="2.25" height="2.25" fill="#3EC227"/>
</svg>
