<svg width="40" height="40" fill="none" xmlns="http://www.w3.org/2000/svg"><path fill-rule="evenodd" clip-rule="evenodd" d="M9.159 14.159a1.19 1.19 0 0 1 1.682 0l7.738 7.737c.41.41.667.666.877.844.198.169.274.196.294.202a.81.81 0 0 0 .5 0c.02-.006.096-.034.294-.202.21-.178.467-.434.877-.844l7.738-7.737a1.19 1.19 0 0 1 1.683 1.682l-7.738 7.738-.03.031c-.37.37-.697.696-.99.944-.31.264-.66.51-1.098.652a3.19 3.19 0 0 1-1.972 0c-.437-.143-.787-.388-1.099-.652-.292-.248-.619-.575-.988-.944l-.031-.031-7.737-7.738a1.19 1.19 0 0 1 0-1.682Z" fill="#3EC227"/></svg>