<svg width="24" height="24" viewBox="0 0 24 24" fill="none" xmlns="http://www.w3.org/2000/svg">
<path fill-rule="evenodd" clip-rule="evenodd" d="M5.46967 8.46967C5.76256 8.17678 6.23744 8.17678 6.53033 8.46967L11.399 13.3383C11.6057 13.5451 11.7293 13.6678 11.8281 13.7517C11.8884 13.8028 11.9178 13.8203 11.926 13.8246C11.9742 13.8395 12.0258 13.8395 12.074 13.8246C12.0822 13.8203 12.1116 13.8028 12.1719 13.7517C12.2707 13.6678 12.3943 13.5451 12.601 13.3383L17.4697 8.46967C17.7626 8.17678 18.2374 8.17678 18.5303 8.46967C18.8232 8.76256 18.8232 9.23744 18.5303 9.53033L13.6617 14.399L13.6432 14.4175C13.4611 14.5996 13.2939 14.7668 13.1427 14.8952C12.9797 15.0336 12.7866 15.1703 12.5408 15.2501C12.1893 15.3643 11.8107 15.3643 11.4592 15.2501C11.2134 15.1703 11.0203 15.0336 10.8573 14.8952C10.7061 14.7668 10.5389 14.5996 10.3568 14.4175L10.3383 14.399L5.46967 9.53033C5.17678 9.23744 5.17678 8.76256 5.46967 8.46967Z" fill="#233441"/>
</svg>
