<svg width="33" height="34" viewBox="0 0 33 34" fill="none" xmlns="http://www.w3.org/2000/svg">
<g clip-path="url(#clip0_44_2748)">
<path d="M27.3051 13.8488C27.8659 14.6805 28.4776 15.2198 29.1457 15.3996C29.803 15.5767 30.5731 15.4157 31.4799 14.8603C31.8448 14.6349 32.3224 14.7503 32.5451 15.1152C32.6202 15.2386 32.6578 15.3728 32.6605 15.5096C32.6953 15.8852 32.7168 16.2662 32.7249 16.6526C32.7329 17.0443 32.7302 17.4333 32.7114 17.8197C32.7114 17.8546 32.7088 17.8894 32.7034 17.9216C32.4592 22.4077 30.4309 26.3759 27.3373 29.1716C24.2384 31.9727 20.0771 33.5959 15.5803 33.3813V33.3839C15.5454 33.3839 15.5105 33.3813 15.4783 33.3759C10.9923 33.1317 7.02411 31.1034 4.22839 28.0098C1.42462 24.9109 -0.195926 20.7496 0.0187166 16.2528C0.0187166 16.2179 0.0213996 16.183 0.0267657 16.1508C0.268238 11.6594 2.36369 7.66978 5.51893 4.85796C8.67686 2.04078 12.9026 0.40413 17.3994 0.618773C17.8287 0.618773 18.1748 0.964884 18.1748 1.39417C18.1748 1.50149 18.1533 1.60345 18.1131 1.69467C17.7992 2.7169 17.7777 3.66401 18.0406 4.41526C18.2794 5.09675 18.7651 5.62531 19.4922 5.89629C19.8785 6.04118 20.0824 6.45973 19.959 6.84877H19.9617C19.4707 8.42908 19.46 9.82157 19.8222 10.9431C20.0422 11.6219 20.3963 12.2014 20.8632 12.6602C21.33 13.1217 21.9096 13.4651 22.5776 13.6744C23.6616 14.0125 24.9763 13.991 26.4171 13.5268C26.7578 13.4195 27.12 13.559 27.3051 13.8488ZM15.9049 16.124C16.6481 16.124 17.2491 16.725 17.2491 17.4682C17.2491 18.2114 16.6481 18.8124 15.9049 18.8124C15.1617 18.8124 14.5607 18.2114 14.5607 17.4682C14.5607 16.725 15.1644 16.124 15.9049 16.124ZM10.0774 21.6591C10.9816 21.6591 11.7167 22.3916 11.7167 23.2984C11.7167 24.2053 10.9843 24.9378 10.0774 24.9378C9.17053 24.9378 8.43807 24.2053 8.43807 23.2984C8.43807 22.3916 9.17053 21.6591 10.0774 21.6591ZM13.6083 9.11861C14.3193 9.11861 14.8934 9.69278 14.8934 10.4038C14.8934 11.1148 14.3193 11.689 13.6083 11.689C12.8973 11.689 12.3231 11.1148 12.3231 10.4038C12.3231 9.69278 12.8999 9.11861 13.6083 9.11861ZM32.0085 9.29301C32.5397 9.29301 32.969 9.7223 32.969 10.2535C32.969 10.7848 32.5397 11.2141 32.0085 11.2141C31.4773 11.2141 31.048 10.7848 31.048 10.2535C31.0453 9.72498 31.4773 9.29301 32.0085 9.29301ZM25.1185 6.74682C25.918 6.74682 26.5646 7.39343 26.5646 8.19297C26.5646 8.99251 25.918 9.63912 25.1185 9.63912C24.3189 9.63912 23.6723 8.99251 23.6723 8.19297C23.6723 7.39611 24.3189 6.74682 25.1185 6.74682ZM26.2373 0.758291C27.0932 0.758291 27.7881 1.4532 27.7881 2.30908C27.7881 3.16497 27.0932 3.85987 26.2373 3.85987C25.3814 3.85987 24.6865 3.16497 24.6865 2.30908C24.6892 1.45051 25.3814 0.758291 26.2373 0.758291ZM20.5868 22.2333C21.7754 22.2333 22.7413 23.1965 22.7413 24.3877C22.7413 25.5763 21.7781 26.5422 20.5868 26.5422C19.3956 26.5422 18.4324 25.579 18.4324 24.3877C18.4324 23.1965 19.3956 22.2333 20.5868 22.2333ZM8.56149 13.1512C9.84934 13.1512 10.893 14.1949 10.893 15.4828C10.893 16.7706 9.84934 17.8143 8.56149 17.8143C7.27363 17.8143 6.22993 16.7706 6.22993 15.4828C6.22993 14.1976 7.27363 13.1512 8.56149 13.1512ZM28.7432 16.8967C27.8337 16.6526 27.0395 16.0542 26.3419 15.1581C24.7911 15.5659 23.3477 15.5364 22.1135 15.1528C21.2093 14.871 20.4178 14.3988 19.7766 13.7629C19.1353 13.1271 18.647 12.3356 18.3492 11.4153C17.944 10.165 17.8958 8.6786 18.3009 7.03658C17.4691 6.55364 16.8923 5.82117 16.5784 4.92235C16.294 4.10403 16.235 3.15424 16.4147 2.14542C12.6826 2.1964 9.20273 3.64791 6.54921 6.01435C3.68642 8.56591 1.78683 12.1773 1.56683 16.2394V16.2528L1.56414 16.2877C1.36023 20.3793 2.83053 24.1624 5.37136 26.9742C7.90414 29.7753 11.4994 31.6131 15.5669 31.8305H15.5803L15.6152 31.8332C19.7041 32.0397 23.4899 30.5694 26.3017 28.0259C29.1028 25.4932 30.9406 21.8979 31.158 17.8304V17.817L31.1607 17.7821C31.1794 17.4226 31.1848 17.0738 31.1768 16.7331C30.3128 17.0577 29.5025 17.1033 28.7432 16.8967Z" fill="black"/>
</g>
<defs>
<clipPath id="clip0_44_2748">
<rect width="32.9691" height="32.8" fill="white" transform="translate(0 0.599976)"/>
</clipPath>
</defs>
</svg>
