<svg width="62" height="62" viewBox="0 0 62 62" fill="none" xmlns="http://www.w3.org/2000/svg">
<path fill-rule="evenodd" clip-rule="evenodd" d="M30.9994 4.01221C16.0945 4.01221 4.01172 16.095 4.01172 30.9999C4.01172 45.9049 16.0945 57.9877 30.9994 57.9877C45.9044 57.9877 57.9872 45.9049 57.9872 30.9999C57.9872 16.095 45.9044 4.01221 30.9994 4.01221ZM0.0117188 30.9999C0.0117188 13.8859 13.8854 0.012207 30.9994 0.012207C48.1135 0.012207 61.9872 13.8859 61.9872 30.9999C61.9872 48.114 48.1135 61.9877 30.9994 61.9877C13.8854 61.9877 0.0117188 48.114 0.0117188 30.9999ZM20.4385 20.439C21.2196 19.658 22.4859 19.658 23.267 20.439L31.5059 28.6779L39.7448 20.439C40.5258 19.658 41.7921 19.658 42.5732 20.439C43.3542 21.2201 43.3542 22.4864 42.5732 23.2675L34.3343 31.5064L42.5732 39.7453C43.3542 40.5263 43.3542 41.7926 42.5732 42.5737C41.7921 43.3547 40.5258 43.3547 39.7448 42.5737L31.5059 34.3348L23.267 42.5737C22.4859 43.3547 21.2196 43.3547 20.4385 42.5737C19.6575 41.7926 19.6575 40.5263 20.4385 39.7453L28.6774 31.5064L20.4385 23.2675C19.6575 22.4864 19.6575 21.2201 20.4385 20.439Z" fill="#3EC227"/>
</svg>
