<svg width="15" height="16" viewBox="0 0 15 16" fill="none" xmlns="http://www.w3.org/2000/svg">
<path fill-rule="evenodd" clip-rule="evenodd" d="M1.81226 8C1.81226 4.85888 4.35864 2.3125 7.49976 2.3125C10.6409 2.3125 13.1873 4.85888 13.1873 8C13.1873 11.1411 10.6409 13.6875 7.49976 13.6875C4.35864 13.6875 1.81226 11.1411 1.81226 8ZM7.49976 1.1875C3.73732 1.1875 0.687256 4.23756 0.687256 8C0.687256 11.7624 3.73732 14.8125 7.49976 14.8125C11.2622 14.8125 14.3123 11.7624 14.3123 8C14.3123 4.23756 11.2622 1.1875 7.49976 1.1875ZM6.02262 5.72726C5.80296 5.50759 5.4468 5.50759 5.22713 5.72726C5.00746 5.94693 5.00746 6.30308 5.22713 6.52275L6.70438 8.00001L5.22713 9.47726C5.00746 9.69693 5.00746 10.0531 5.22713 10.2728C5.4468 10.4924 5.80296 10.4924 6.02262 10.2728L7.49988 8.7955L8.97713 10.2728C9.1968 10.4924 9.55295 10.4924 9.77262 10.2728C9.99229 10.0531 9.99229 9.69693 9.77262 9.47726L8.29537 8.00001L9.77262 6.52275C9.99229 6.30308 9.99229 5.94693 9.77262 5.72726C9.55295 5.50759 9.1968 5.50759 8.97713 5.72726L7.49988 7.20451L6.02262 5.72726Z" fill="#F65A5A"/>
</svg>
