<svg width="81" height="80" fill="none" xmlns="http://www.w3.org/2000/svg"><g clip-path="url(#a)"><path d="M18.78 14.76a1.17 1.17 0 1 0 0-2.34 1.17 1.17 0 0 0 0 2.34Zm-9.38 0a1.17 1.17 0 1 0 0-2.34 1.17 1.17 0 0 0 0 2.34Zm4.69 0a1.17 1.17 0 1 0 0-2.34 1.17 1.17 0 0 0 0 2.34Zm-.26 12.42h10.62c.73 0 1.35-.48 1.55-1.18.19-.7-.1-1.43-.73-1.8l-1.61-.96A13.58 13.58 0 1 0 .5 13.6c0 7.24 5.96 13.43 13.33 13.59ZM6.2 5.58a11.16 11.16 0 0 1 8.06-3.24 11.24 11.24 0 0 1 7.22 19.72 1.72 1.72 0 0 0 .25 2.77h.01-7.87A11.27 11.27 0 0 1 2.84 13.6c0-3.04 1.2-5.88 3.36-8.01Zm73.13 72.08h-1.17V60.2c0-4.57-2.7-8.72-6.9-10.58l-6.18-2.65a9.25 9.25 0 0 0 3.97-2.49 9.7 9.7 0 0 0 2.62-6.59c0-2.22-.77-4.31-2.24-6.06a12.13 12.13 0 0 1-2.85-7.8V18.4c0-4.92-1.92-9.54-5.4-13.02a18.43 18.43 0 0 0-31.43 13.02v5.43c0 2.96-1.15 5.77-3.04 8.04a9.4 9.4 0 0 0-1.28 10.09A9.39 9.39 0 0 0 31.24 47l-6.13 2.67c-4.3 1.81-7.08 6-7.08 10.67v13.8a1.17 1.17 0 1 0 2.34 0v-13.8a9.21 9.21 0 0 1 5.66-8.51l7.69-3.35v7.06h-3.53a3.52 3.52 0 0 0-3.5 3.88l1.93 18.23H1.67a1.17 1.17 0 1 0 0 2.34h77.66a1.17 1.17 0 1 0 0-2.34Zm-11.7-44.32a7 7 0 0 1 1.7 4.55c0 1.83-.73 3.65-1.99 4.98a7.02 7.02 0 0 1-5.16 2.2h-1.53l-2-.86a5.35 5.35 0 0 1-3.2-4.21 11.53 11.53 0 0 0 6.08-10.16v-8.8a15.16 15.16 0 0 0 2.7-.07v3.06c0 3.4 1.21 6.7 3.4 9.31Zm-19.18 18.5c-4.19.07-8.35-.46-12.39-1.58v-2.79l.34-.14h.01l2.09-.92a7.7 7.7 0 0 0 4.47-5.5c1.02.3 2.1.46 3.21.46H50c1.12 0 2.2-.17 3.23-.46a7.7 7.7 0 0 0 4.49 5.46l2.23.95.17.08v2.63a43.5 43.5 0 0 1-11.67 1.81Zm11.67.63v3.08H36.06v-2.86a45.8 45.8 0 0 0 24.06-.22Zm4.12-33.86c-3.23.44-6.87-.43-9.38-2.37a1.17 1.17 0 0 0-1.43 1.85 14.16 14.16 0 0 0 5.75 2.62v6.38a8.99 8.99 0 0 1-4.55 4.74 3.44 3.44 0 0 0-3.05-1.88h-2.75a3.44 3.44 0 0 0 0 6.87h2.75c1.6 0 2.94-1.09 3.32-2.56 1.57-.6 4.12-2.73 4.13-2.73a9.2 9.2 0 0 1-9.03 7.5h-3.82A9.2 9.2 0 0 1 37 29.83v-9.06A31.42 31.42 0 0 0 58.84 6.4a16.06 16.06 0 0 1 5.4 12.21ZM52.67 33.39c0 .6-.5 1.09-1.1 1.09h-2.74a1.1 1.1 0 0 1 0-2.18h2.75c.6 0 1.09.48 1.09 1.08v.01ZM32.1 18.41A16.09 16.09 0 0 1 56.98 4.97a29.14 29.14 0 0 1-21.07 13.6H32.1v-.16Zm-4.55 22.56a7.07 7.07 0 0 1 .96-7.59 14.97 14.97 0 0 0 3.59-9.54v-2.92h2.56v8.92c0 4.4 2.46 8.21 6.08 10.16a5.35 5.35 0 0 1-3.17 4.26l-1.87.81H34a7.07 7.07 0 0 1-6.45-4.1Zm40.8 18.22-1.97 18.47h-35.4l-1.96-18.47c-.03-.34.07-.66.3-.91.22-.25.53-.39.87-.39h36.99c.33 0 .64.14.87.39.22.25.33.57.3.9Zm7.46 18.47h-7.07l1.93-18.23a3.52 3.52 0 0 0-3.5-3.88h-4.7V48.4l7.85 3.37a9.23 9.23 0 0 1 5.5 8.43v17.46ZM48.68 63.32a4.46 4.46 0 1 0 .01 8.92 4.46 4.46 0 0 0 0-8.92Zm0 6.56a2.11 2.11 0 1 1 0-4.22 2.11 2.11 0 0 1 0 4.22Z" fill="#5C656D"/></g><defs><clipPath id="a"><path fill="#fff" transform="translate(.5)" d="M0 0h80v80H0z"/></clipPath></defs></svg>