<svg width="251" height="203" viewBox="0 0 251 203" fill="none" xmlns="http://www.w3.org/2000/svg">
<path d="M0.283578 112.983C7.84461 109.669 17.2377 85.1759 22.3535 62.959C29.5006 31.9207 66.0056 15.8863 86.6798 81.8864C107.354 147.886 149.78 127.323 171.356 59.7473C188.618 5.68685 235.424 0.117637 250.786 2.98752" stroke="#3EC227" stroke-width="1.11537" stroke-dasharray="4.46 4.46"/>
<path d="M90.3245 124.871C90.3245 124.871 94.4474 119.795 100.801 124.871" stroke="#7B858D" stroke-width="1.38329" stroke-miterlimit="10" stroke-linecap="round" stroke-linejoin="round"/>
<path d="M95.5632 141.152C93.4032 141.152 91.6533 139.401 91.6533 137.242C91.6533 135.083 93.4032 133.331 95.5632 133.331C97.7225 133.331 99.473 135.083 99.473 137.242C99.473 139.401 97.7225 141.152 95.5632 141.152ZM129.574 124.512H61.5515C58.8278 124.512 56.6194 126.72 56.6194 129.444V167.386C56.6194 186.723 72.2948 202.398 91.6312 202.398H99.4945C118.831 202.398 134.506 186.723 134.506 167.386V129.444C134.506 126.72 132.298 124.512 129.574 124.512Z" fill="white"/>
<path d="M62.2339 167.811V130.125H128.892V167.811C128.892 183.812 115.921 196.783 99.9202 196.783H91.2062C75.2057 196.783 62.2339 183.811 62.2339 167.811Z" stroke="#3EC227" stroke-width="0.691645" stroke-miterlimit="10" stroke-linecap="round" stroke-linejoin="round" stroke-dasharray="2.07 2.07"/>
<path d="M95.5632 139.911C94.0886 139.911 92.8934 138.716 92.8934 137.241C92.8934 135.767 94.0886 134.572 95.5632 134.572C97.0378 134.572 98.2322 135.767 98.2322 137.241C98.2322 138.716 97.0378 139.911 95.5632 139.911ZM95.5632 133.332C93.4032 133.332 91.6533 135.082 91.6533 137.241C91.6533 139.401 93.4032 141.151 95.5632 141.151C97.7225 141.151 99.4731 139.401 99.4731 137.241C99.4731 135.082 97.7225 133.332 95.5632 133.332Z" fill="#298219"/>
<path d="M95.5631 138.188C95.5631 138.188 89.1471 113.589 91.4502 103.076C92.076 100.219 93.3458 98.4023 95.5631 98.4023C105.94 98.4023 95.5631 138.188 95.5631 138.188Z" stroke="#7B858D" stroke-width="1.38329" stroke-miterlimit="10" stroke-linecap="round" stroke-linejoin="round"/>
<path d="M77.4312 156.889V155.925H84.8367V156.889H77.4312ZM77.4312 154.989V154.026H84.8367V154.989H77.4312ZM83.9557 160.413C83.2124 160.413 82.5242 160.293 81.891 160.055C81.267 159.807 80.7256 159.463 80.2667 159.022C79.8079 158.573 79.45 158.045 79.1931 157.439C78.9361 156.834 78.8076 156.173 78.8076 155.457C78.8076 154.742 78.9361 154.081 79.1931 153.475C79.45 152.87 79.8079 152.346 80.2667 151.906C80.7256 151.456 81.267 151.112 81.891 150.874C82.5242 150.626 83.2124 150.502 83.9557 150.502C84.7449 150.502 85.4653 150.64 86.1168 150.915C86.7776 151.181 87.3281 151.58 87.7686 152.112L86.6261 153.2C86.2774 152.824 85.8874 152.544 85.4561 152.36C85.0248 152.168 84.5568 152.071 84.0521 152.071C83.5474 152.071 83.084 152.154 82.6618 152.319C82.2489 152.484 81.8864 152.718 81.5744 153.021C81.2716 153.324 81.033 153.682 80.8586 154.095C80.6843 154.508 80.5971 154.962 80.5971 155.457C80.5971 155.953 80.6843 156.407 80.8586 156.82C81.033 157.233 81.2716 157.591 81.5744 157.894C81.8864 158.197 82.2489 158.431 82.6618 158.596C83.084 158.761 83.5474 158.844 84.0521 158.844C84.5568 158.844 85.0248 158.752 85.4561 158.568C85.8874 158.376 86.2774 158.086 86.6261 157.701L87.7686 158.802C87.3281 159.325 86.7776 159.724 86.1168 160C85.4653 160.275 84.7449 160.413 83.9557 160.413Z" fill="#233441"/>
<path d="M91.9354 150.502C92.8164 150.502 93.5643 150.69 94.1791 151.066C94.8031 151.433 95.2803 151.97 95.6107 152.677C95.941 153.383 96.1062 154.255 96.1062 155.292C96.1062 156.393 95.9043 157.325 95.5005 158.086C95.106 158.848 94.5554 159.426 93.8488 159.821C93.1422 160.215 92.3208 160.413 91.3848 160.413C90.8985 160.413 90.435 160.362 89.9946 160.261C89.5541 160.16 89.1733 160.004 88.8521 159.793L89.5128 158.444C89.7789 158.619 90.068 158.743 90.38 158.816C90.692 158.88 91.0132 158.912 91.3435 158.912C92.252 158.912 92.9724 158.632 93.5046 158.073C94.0369 157.513 94.303 156.687 94.303 155.595C94.303 155.421 94.2984 155.219 94.2892 154.989C94.2801 154.751 94.2479 154.512 94.1929 154.274L94.7435 154.879C94.5875 155.255 94.3626 155.572 94.069 155.829C93.7753 156.077 93.4312 156.265 93.0366 156.393C92.642 156.522 92.2061 156.586 91.729 156.586C91.1049 156.586 90.5406 156.467 90.0359 156.228C89.5403 155.98 89.1457 155.636 88.8521 155.196C88.5584 154.746 88.4116 154.223 88.4116 153.627C88.4116 152.984 88.5676 152.434 88.8796 151.975C89.1916 151.507 89.6137 151.144 90.146 150.887C90.6874 150.63 91.2839 150.502 91.9354 150.502ZM92.0318 151.906C91.6647 151.906 91.3389 151.975 91.0545 152.112C90.77 152.241 90.5452 152.429 90.38 152.677C90.224 152.915 90.146 153.204 90.146 153.544C90.146 154.049 90.3203 154.448 90.6691 154.742C91.0178 155.035 91.4858 155.182 92.0731 155.182C92.4585 155.182 92.798 155.113 93.0917 154.976C93.3853 154.829 93.6147 154.631 93.7799 154.384C93.9451 154.127 94.0277 153.842 94.0277 153.53C94.0277 153.227 93.9497 152.957 93.7937 152.718C93.6377 152.47 93.4129 152.273 93.1192 152.126C92.8256 151.979 92.4631 151.906 92.0318 151.906Z" fill="#233441"/>
<path d="M97.1795 160.275V159.078L101.006 155.444C101.327 155.141 101.566 154.875 101.722 154.645C101.878 154.416 101.979 154.205 102.025 154.012C102.08 153.81 102.107 153.622 102.107 153.448C102.107 153.007 101.956 152.668 101.653 152.429C101.35 152.181 100.905 152.057 100.318 152.057C99.8499 152.057 99.4232 152.14 99.0378 152.305C98.6616 152.47 98.3358 152.723 98.0605 153.062L96.8079 152.099C97.1841 151.594 97.6888 151.204 98.322 150.929C98.9644 150.644 99.6802 150.502 100.469 150.502C101.167 150.502 101.772 150.617 102.286 150.846C102.809 151.066 103.209 151.383 103.484 151.796C103.768 152.209 103.911 152.7 103.911 153.269C103.911 153.581 103.869 153.893 103.787 154.205C103.704 154.508 103.548 154.829 103.319 155.168C103.089 155.508 102.754 155.889 102.314 156.311L99.024 159.435L98.6524 158.761H104.282V160.275H97.1795Z" fill="#233441"/>
<path d="M109.334 160.413C108.573 160.413 107.885 160.22 107.27 159.835C106.664 159.449 106.187 158.889 105.838 158.155C105.489 157.412 105.315 156.513 105.315 155.457C105.315 154.402 105.489 153.507 105.838 152.773C106.187 152.03 106.664 151.465 107.27 151.08C107.885 150.695 108.573 150.502 109.334 150.502C110.105 150.502 110.794 150.695 111.399 151.08C112.005 151.465 112.482 152.03 112.831 152.773C113.189 153.507 113.368 154.402 113.368 155.457C113.368 156.513 113.189 157.412 112.831 158.155C112.482 158.889 112.005 159.449 111.399 159.835C110.794 160.22 110.105 160.413 109.334 160.413ZM109.334 158.857C109.784 158.857 110.174 158.738 110.504 158.499C110.835 158.252 111.092 157.875 111.275 157.371C111.468 156.866 111.564 156.228 111.564 155.457C111.564 154.677 111.468 154.04 111.275 153.544C111.092 153.039 110.835 152.668 110.504 152.429C110.174 152.181 109.784 152.057 109.334 152.057C108.903 152.057 108.518 152.181 108.178 152.429C107.848 152.668 107.586 153.039 107.394 153.544C107.21 154.04 107.118 154.677 107.118 155.457C107.118 156.228 107.21 156.866 107.394 157.371C107.586 157.875 107.848 158.252 108.178 158.499C108.518 158.738 108.903 158.857 109.334 158.857Z" fill="#233441"/>
<path d="M69.1223 174.322V172.912H79.9568V174.322H69.1223ZM69.1223 171.543V170.133H79.9568V171.543H69.1223ZM78.668 179.477C77.5805 179.477 76.5736 179.303 75.6472 178.954C74.7342 178.591 73.9421 178.088 73.2708 177.443C72.5996 176.785 72.076 176.013 71.7 175.127C71.3241 174.241 71.1362 173.275 71.1362 172.227C71.1362 171.18 71.3241 170.214 71.7 169.327C72.076 168.441 72.5996 167.676 73.2708 167.032C73.9421 166.374 74.7342 165.87 75.6472 165.521C76.5736 165.159 77.5805 164.978 78.668 164.978C79.8226 164.978 80.8765 165.179 81.8297 165.582C82.7963 165.971 83.6019 166.555 84.2463 167.334L82.5748 168.925C82.0646 168.374 81.4941 167.965 80.8631 167.696C80.232 167.414 79.5473 167.273 78.8089 167.273C78.0705 167.273 77.3925 167.394 76.7749 167.636C76.1708 167.877 75.6405 168.22 75.184 168.663C74.741 169.106 74.3919 169.63 74.1368 170.234C73.8817 170.838 73.7542 171.502 73.7542 172.227C73.7542 172.952 73.8817 173.617 74.1368 174.221C74.3919 174.825 74.741 175.349 75.184 175.792C75.6405 176.235 76.1708 176.577 76.7749 176.819C77.3925 177.061 78.0705 177.181 78.8089 177.181C79.5473 177.181 80.232 177.047 80.8631 176.779C81.4941 176.497 82.0646 176.074 82.5748 175.51L84.2463 177.121C83.6019 177.886 82.7963 178.47 81.8297 178.873C80.8765 179.276 79.8226 179.477 78.668 179.477Z" fill="#3EC227"/>
<path d="M88.1426 179.276L93.9627 166.226L94.6474 167.394H86.6524L87.901 166.125V169.791H85.4642V165.179H96.4196V166.931L90.9419 179.276H88.1426Z" fill="#3EC227"/>
<path d="M103.344 179.477C102.176 179.477 101.162 179.303 100.303 178.954C99.4434 178.605 98.7789 178.115 98.309 177.484C97.8391 176.839 97.6041 176.087 97.6041 175.228C97.6041 174.369 97.8323 173.644 98.2888 173.053C98.7453 172.462 99.4032 172.013 100.262 171.704C101.122 171.395 102.149 171.241 103.344 171.241C104.538 171.241 105.566 171.395 106.425 171.704C107.297 172.013 107.962 172.469 108.418 173.073C108.888 173.664 109.123 174.382 109.123 175.228C109.123 176.087 108.882 176.839 108.398 177.484C107.928 178.115 107.257 178.605 106.384 178.954C105.525 179.303 104.512 179.477 103.344 179.477ZM103.344 177.423C104.31 177.423 105.075 177.222 105.639 176.819C106.203 176.416 106.485 175.859 106.485 175.147C106.485 174.449 106.203 173.899 105.639 173.496C105.075 173.093 104.31 172.892 103.344 172.892C102.377 172.892 101.618 173.093 101.068 173.496C100.517 173.899 100.242 174.449 100.242 175.147C100.242 175.859 100.517 176.416 101.068 176.819C101.618 177.222 102.377 177.423 103.344 177.423ZM103.344 172.61C102.256 172.61 101.323 172.469 100.544 172.187C99.7656 171.892 99.1615 171.469 98.7319 170.918C98.3157 170.355 98.1076 169.683 98.1076 168.905C98.1076 168.099 98.3224 167.408 98.752 166.83C99.1951 166.24 99.8126 165.783 100.605 165.461C101.397 165.139 102.31 164.978 103.344 164.978C104.391 164.978 105.31 165.139 106.103 165.461C106.895 165.783 107.512 166.24 107.955 166.83C108.398 167.408 108.62 168.099 108.62 168.905C108.62 169.683 108.405 170.355 107.975 170.918C107.559 171.469 106.955 171.892 106.163 172.187C105.371 172.469 104.431 172.61 103.344 172.61ZM103.344 170.999C104.176 170.999 104.834 170.824 105.317 170.475C105.8 170.113 106.042 169.63 106.042 169.025C106.042 168.394 105.794 167.904 105.297 167.555C104.8 167.206 104.149 167.032 103.344 167.032C102.538 167.032 101.894 167.206 101.41 167.555C100.927 167.904 100.685 168.394 100.685 169.025C100.685 169.63 100.92 170.113 101.39 170.475C101.873 170.824 102.525 170.999 103.344 170.999Z" fill="#3EC227"/>
<path d="M110.641 179.276V177.524L116.239 172.207C116.709 171.764 117.058 171.375 117.286 171.039C117.515 170.704 117.662 170.395 117.729 170.113C117.81 169.817 117.85 169.542 117.85 169.287C117.85 168.643 117.629 168.146 117.186 167.797C116.743 167.434 116.091 167.253 115.232 167.253C114.548 167.253 113.923 167.374 113.359 167.616C112.809 167.857 112.332 168.227 111.93 168.723L110.097 167.314C110.647 166.575 111.386 166.005 112.312 165.602C113.252 165.186 114.299 164.978 115.454 164.978C116.474 164.978 117.36 165.145 118.112 165.481C118.877 165.803 119.461 166.266 119.864 166.871C120.28 167.475 120.488 168.193 120.488 169.025C120.488 169.482 120.428 169.938 120.307 170.395C120.186 170.838 119.958 171.308 119.622 171.804C119.287 172.301 118.797 172.858 118.152 173.476L113.339 178.047L112.795 177.061H121.032V179.276H110.641Z" fill="#3EC227"/>
<rect x="71.8269" y="154.771" width="46.9255" height="1.20925" fill="#233441"/>
<path d="M27.6963 58.6455C27.6963 58.6455 30.7891 54.8377 35.5552 58.6455" stroke="#7B858D" stroke-width="1.24674" stroke-miterlimit="10" stroke-linecap="round" stroke-linejoin="round"/>
<path d="M31.626 70.8589C30.0056 70.8589 28.6929 69.5457 28.6929 67.9259C28.6929 66.3061 30.0056 64.9923 31.626 64.9923C33.2458 64.9923 34.559 66.3061 34.559 67.9259C34.559 69.5457 33.2458 70.8589 31.626 70.8589ZM57.1396 58.376H6.11175C4.06854 58.376 2.41187 60.0327 2.41187 62.0759V90.5387C2.41187 105.045 14.171 116.804 28.6763 116.804H34.5751C49.0804 116.804 60.8395 105.045 60.8395 90.5387V62.0759C60.8395 60.0327 59.1829 58.376 57.1396 58.376Z" fill="white"/>
<path d="M6.62378 90.8579V62.5876H56.628V90.8579C56.628 102.861 46.8976 112.592 34.8946 112.592H28.3577C16.3547 112.592 6.62378 102.861 6.62378 90.8579Z" stroke="#3EC227" stroke-width="0.623371" stroke-miterlimit="10" stroke-linecap="round" stroke-linejoin="round" stroke-dasharray="1.87 1.87"/>
<path d="M31.6261 69.9281C30.52 69.9281 29.6234 69.0315 29.6234 67.9254C29.6234 66.8192 30.52 65.9226 31.6261 65.9226C32.7323 65.9226 33.6284 66.8192 33.6284 67.9254C33.6284 69.0315 32.7323 69.9281 31.6261 69.9281ZM31.6261 64.9923C30.0058 64.9923 28.6931 66.3055 28.6931 67.9254C28.6931 69.5452 30.0058 70.8584 31.6261 70.8584C33.246 70.8584 34.5592 69.5452 34.5592 67.9254C34.5592 66.3055 33.246 64.9923 31.6261 64.9923Z" fill="#298219"/>
<path d="M31.6259 68.6357C31.6259 68.6357 26.8129 50.182 28.5406 42.2956C29.0101 40.1524 29.9626 38.7897 31.6259 38.7897C39.4102 38.7897 31.6259 68.6357 31.6259 68.6357Z" stroke="#7B858D" stroke-width="1.24674" stroke-miterlimit="10" stroke-linecap="round" stroke-linejoin="round"/>
<path d="M15.4417 79.151V78.2826H22.1162V79.151H15.4417ZM15.4417 77.4389V76.5705H22.1162V77.4389H15.4417ZM21.3222 82.327C20.6522 82.327 20.0319 82.2195 19.4612 82.0044C18.8988 81.7811 18.4109 81.4709 17.9973 81.0739C17.5838 80.6687 17.2612 80.1931 17.0296 79.6472C16.7981 79.1014 16.6823 78.5059 16.6823 77.8608C16.6823 77.2156 16.7981 76.6201 17.0296 76.0743C17.2612 75.5284 17.5838 75.057 17.9973 74.66C18.4109 74.2547 18.8988 73.9445 19.4612 73.7295C20.0319 73.5062 20.6522 73.3945 21.3222 73.3945C22.0335 73.3945 22.6827 73.5186 23.2699 73.7667C23.8654 74.0066 24.3617 74.3663 24.7587 74.8461L23.729 75.8261C23.4147 75.487 23.0632 75.2348 22.6744 75.0694C22.2857 74.8957 21.8639 74.8088 21.409 74.8088C20.9541 74.8088 20.5364 74.8833 20.156 75.0321C19.7838 75.181 19.4571 75.3919 19.1759 75.6649C18.903 75.9378 18.6879 76.2604 18.5308 76.6325C18.3736 77.0047 18.2951 77.4141 18.2951 77.8608C18.2951 78.3074 18.3736 78.7168 18.5308 79.089C18.6879 79.4611 18.903 79.7837 19.1759 80.0566C19.4571 80.3296 19.7838 80.5405 20.156 80.6894C20.5364 80.8382 20.9541 80.9127 21.409 80.9127C21.8639 80.9127 22.2857 80.83 22.6744 80.6645C23.0632 80.4909 23.4147 80.2303 23.729 79.883L24.7587 80.8754C24.3617 81.3469 23.8654 81.7067 23.2699 81.9548C22.6827 82.2029 22.0335 82.327 21.3222 82.327Z" fill="#233441"/>
<path d="M29.2121 82.327C28.4264 82.327 27.7523 82.1616 27.1899 81.8307C26.6275 81.4916 26.1974 81.0036 25.8997 80.3668C25.6019 79.7299 25.453 78.9442 25.453 78.0096C25.453 77.0171 25.6309 76.1776 25.9865 75.4912C26.3504 74.8047 26.8508 74.2836 27.4876 73.928C28.1328 73.5724 28.873 73.3945 29.7084 73.3945C30.1467 73.3945 30.5644 73.44 30.9614 73.531C31.3666 73.622 31.7099 73.7626 31.9911 73.9528L31.3956 75.1686C31.1557 75.0115 30.8952 74.9039 30.614 74.8461C30.3411 74.7799 30.0516 74.7468 29.7456 74.7468C28.9268 74.7468 28.2775 74.9991 27.7978 75.5036C27.3181 76.0081 27.0782 76.7525 27.0782 77.7367C27.0782 77.8938 27.0824 78.0799 27.0907 78.295C27.0989 78.5017 27.1279 78.7126 27.1775 78.9277L26.6812 78.3818C26.8301 78.0427 27.0328 77.7615 27.2892 77.5382C27.5538 77.3066 27.864 77.1329 28.2196 77.0171C28.5835 76.9013 28.9764 76.8434 29.3982 76.8434C29.9689 76.8434 30.4775 76.9551 30.9242 77.1784C31.3708 77.3935 31.7264 77.7036 31.9911 78.1089C32.2558 78.5059 32.3881 78.9732 32.3881 79.5108C32.3881 80.0815 32.2475 80.5777 31.9663 80.9995C31.6851 81.4213 31.3046 81.748 30.8249 81.9796C30.3452 82.2112 29.8076 82.327 29.2121 82.327ZM29.1253 81.0615C29.4561 81.0615 29.7497 81.0036 30.0061 80.8879C30.2625 80.7638 30.461 80.5901 30.6016 80.3668C30.7505 80.1435 30.8249 79.883 30.8249 79.5852C30.8249 79.1303 30.6678 78.7705 30.3535 78.5059C30.0392 78.2412 29.6174 78.1089 29.088 78.1089C28.7407 78.1089 28.4347 78.175 28.17 78.3074C27.9136 78.4314 27.7068 78.6051 27.5497 78.8284C27.4008 79.0517 27.3264 79.3081 27.3264 79.5976C27.3264 79.8623 27.3967 80.1063 27.5373 80.3296C27.6779 80.5529 27.8805 80.7307 28.1452 80.863C28.4181 80.9954 28.7448 81.0615 29.1253 81.0615Z" fill="#233441"/>
<path d="M36.7173 82.327C35.9977 82.327 35.3733 82.2195 34.8439 82.0044C34.3146 81.7894 33.9052 81.4875 33.6157 81.0988C33.3262 80.7018 33.1815 80.2386 33.1815 79.7093C33.1815 79.1799 33.3221 78.7333 33.6033 78.3694C33.8845 78.0055 34.2898 77.7284 34.8191 77.5382C35.3484 77.348 35.9812 77.2528 36.7173 77.2528C37.4534 77.2528 38.0861 77.348 38.6154 77.5382C39.153 77.7284 39.5624 78.0096 39.8436 78.3818C40.1331 78.7457 40.2778 79.1882 40.2778 79.7093C40.2778 80.2386 40.129 80.7018 39.8312 81.0988C39.5417 81.4875 39.1282 81.7894 38.5906 82.0044C38.0613 82.2195 37.4368 82.327 36.7173 82.327ZM36.7173 81.0615C37.3127 81.0615 37.7842 80.9375 38.1316 80.6894C38.4789 80.4412 38.6526 80.098 38.6526 79.6596C38.6526 79.2296 38.4789 78.8905 38.1316 78.6423C37.7842 78.3942 37.3127 78.2702 36.7173 78.2702C36.1218 78.2702 35.6545 78.3942 35.3154 78.6423C34.9763 78.8905 34.8067 79.2296 34.8067 79.6596C34.8067 80.098 34.9763 80.4412 35.3154 80.6894C35.6545 80.9375 36.1218 81.0615 36.7173 81.0615ZM36.7173 78.0965C36.0473 78.0965 35.4725 78.0096 34.9928 77.8359C34.5131 77.654 34.1409 77.3935 33.8762 77.0544C33.6198 76.707 33.4916 76.2934 33.4916 75.8137C33.4916 75.3175 33.624 74.8915 33.8886 74.5359C34.1616 74.172 34.542 73.8908 35.03 73.6923C35.518 73.4938 36.0804 73.3945 36.7173 73.3945C37.3624 73.3945 37.9289 73.4938 38.4169 73.6923C38.9049 73.8908 39.2853 74.172 39.5583 74.5359C39.8312 74.8915 39.9677 75.3175 39.9677 75.8137C39.9677 76.2934 39.8353 76.707 39.5707 77.0544C39.3143 77.3935 38.9421 77.654 38.4541 77.8359C37.9661 78.0096 37.3872 78.0965 36.7173 78.0965ZM36.7173 77.104C37.23 77.104 37.6353 76.9965 37.9331 76.7814C38.2308 76.5581 38.3797 76.2604 38.3797 75.8882C38.3797 75.4994 38.2267 75.1976 37.9207 74.9825C37.6146 74.7675 37.2135 74.66 36.7173 74.66C36.221 74.66 35.824 74.7675 35.5263 74.9825C35.2285 75.1976 35.0796 75.4994 35.0796 75.8882C35.0796 76.2604 35.2244 76.5581 35.5139 76.7814C35.8116 76.9965 36.2127 77.104 36.7173 77.104Z" fill="#233441"/>
<path d="M44.9468 82.327C44.2603 82.327 43.64 82.1533 43.0859 81.8059C42.54 81.4585 42.1099 80.954 41.7956 80.2924C41.4814 79.6224 41.3242 78.8119 41.3242 77.8608C41.3242 76.9096 41.4814 76.1032 41.7956 75.4415C42.1099 74.7716 42.54 74.263 43.0859 73.9156C43.64 73.5682 44.2603 73.3945 44.9468 73.3945C45.6416 73.3945 46.2619 73.5682 46.8077 73.9156C47.3536 74.263 47.7837 74.7716 48.098 75.4415C48.4205 76.1032 48.5818 76.9096 48.5818 77.8608C48.5818 78.8119 48.4205 79.6224 48.098 80.2924C47.7837 80.954 47.3536 81.4585 46.8077 81.8059C46.2619 82.1533 45.6416 82.327 44.9468 82.327ZM44.9468 80.9251C45.3521 80.9251 45.7036 80.8176 46.0013 80.6025C46.2991 80.3792 46.5307 80.0401 46.6961 79.5852C46.8698 79.1303 46.9566 78.5555 46.9566 77.8608C46.9566 77.1577 46.8698 76.5829 46.6961 76.1363C46.5307 75.6814 46.2991 75.3464 46.0013 75.1314C45.7036 74.9081 45.3521 74.7964 44.9468 74.7964C44.5581 74.7964 44.2107 74.9081 43.9047 75.1314C43.6069 75.3464 43.3712 75.6814 43.1975 76.1363C43.0321 76.5829 42.9494 77.1577 42.9494 77.8608C42.9494 78.5555 43.0321 79.1303 43.1975 79.5852C43.3712 80.0401 43.6069 80.3792 43.9047 80.6025C44.2107 80.8176 44.5581 80.9251 44.9468 80.9251Z" fill="#233441"/>
<path d="M8.25073 95.7383V94.4677H18.0157V95.7383H8.25073ZM8.25073 93.2335V91.9629H18.0157V93.2335H8.25073ZM16.8541 100.385C15.874 100.385 14.9664 100.228 14.1315 99.9129C13.3087 99.5862 12.5948 99.1324 11.9897 98.5516C11.3847 97.9587 10.9128 97.2629 10.574 96.4643C10.2352 95.6657 10.0658 94.7944 10.0658 93.8506C10.0658 92.9068 10.2352 92.0356 10.574 91.2369C10.9128 90.4383 11.3847 89.7486 11.9897 89.1678C12.5948 88.5748 13.3087 88.1211 14.1315 87.8065C14.9664 87.4798 15.874 87.3164 16.8541 87.3164C17.8947 87.3164 18.8446 87.4979 19.7037 87.8609C20.575 88.2118 21.301 88.7382 21.8818 89.44L20.3753 90.8739C19.9155 90.3778 19.4012 90.0087 18.8325 89.7667C18.2638 89.5126 17.6467 89.3856 16.9811 89.3856C16.3156 89.3856 15.7046 89.4945 15.1479 89.7123C14.6034 89.9301 14.1255 90.2386 13.714 90.638C13.3147 91.0373 13.0001 91.5092 12.7702 92.0537C12.5403 92.5982 12.4254 93.1972 12.4254 93.8506C12.4254 94.504 12.5403 95.103 12.7702 95.6475C13.0001 96.192 13.3147 96.6639 13.714 97.0633C14.1255 97.4626 14.6034 97.7711 15.1479 97.9889C15.7046 98.2067 16.3156 98.3156 16.9811 98.3156C17.6467 98.3156 18.2638 98.1946 18.8325 97.9526C19.4012 97.6985 19.9155 97.3174 20.3753 96.8091L21.8818 98.2612C21.301 98.9509 20.575 99.4773 19.7037 99.8403C18.8446 100.203 17.8947 100.385 16.8541 100.385Z" fill="#3EC227"/>
<path d="M27.3036 100.385C26.4081 100.385 25.5309 100.258 24.6717 100.004C23.8247 99.7374 23.1108 99.3744 22.53 98.9146L23.5283 97.0814C23.9881 97.4565 24.5447 97.759 25.1981 97.9889C25.8636 98.2188 26.5533 98.3338 27.2673 98.3338C28.1022 98.3338 28.7556 98.1583 29.2275 97.8074C29.7115 97.4565 29.9535 96.9846 29.9535 96.3917C29.9535 95.9924 29.8507 95.6415 29.645 95.339C29.4514 95.0364 29.1005 94.8065 28.5923 94.6492C28.0961 94.4919 27.4125 94.4133 26.5412 94.4133H23.4738L24.1272 87.4979H31.5871V89.4763H24.9984L26.2327 88.351L25.7426 93.5239L24.5084 92.4167H27.0676C28.326 92.4167 29.3364 92.5861 30.0988 92.9249C30.8732 93.2516 31.4358 93.7115 31.7868 94.3044C32.1498 94.8852 32.3313 95.5507 32.3313 96.3009C32.3313 97.0391 32.1498 97.7167 31.7868 98.3338C31.4237 98.9509 30.8671 99.447 30.1169 99.8221C29.3788 100.197 28.441 100.385 27.3036 100.385Z" fill="#3EC227"/>
<path d="M35.5855 100.203L40.831 88.4417L41.4481 89.4945H34.2423L35.3677 88.351V91.6544H33.1714V87.4979H43.0453V89.077L38.1084 100.203H35.5855Z" fill="#3EC227"/>
<path d="M49.2859 100.385C48.2331 100.385 47.3196 100.228 46.5451 99.9129C45.7707 99.5983 45.1717 99.1566 44.7482 98.5879C44.3247 98.0071 44.113 97.3295 44.113 96.555C44.113 95.7806 44.3187 95.1272 44.7301 94.5948C45.1415 94.0624 45.7344 93.657 46.5088 93.3787C47.2833 93.1004 48.2089 92.9612 49.2859 92.9612C50.3628 92.9612 51.2885 93.1004 52.0629 93.3787C52.8494 93.657 53.4484 94.0684 53.8598 94.6129C54.2833 95.1453 54.4951 95.7927 54.4951 96.555C54.4951 97.3295 54.2773 98.0071 53.8417 98.5879C53.4182 99.1566 52.8131 99.5983 52.0266 99.9129C51.2522 100.228 50.3386 100.385 49.2859 100.385ZM49.2859 98.5334C50.1571 98.5334 50.8468 98.3519 51.355 97.9889C51.8633 97.6259 52.1174 97.1238 52.1174 96.4824C52.1174 95.8532 51.8633 95.3571 51.355 94.9941C50.8468 94.6311 50.1571 94.4496 49.2859 94.4496C48.4146 94.4496 47.731 94.6311 47.2349 94.9941C46.7387 95.3571 46.4907 95.8532 46.4907 96.4824C46.4907 97.1238 46.7387 97.6259 47.2349 97.9889C47.731 98.3519 48.4146 98.5334 49.2859 98.5334ZM49.2859 94.1955C48.3057 94.1955 47.4648 94.0684 46.7629 93.8143C46.0611 93.5481 45.5166 93.1669 45.1294 92.6708C44.7543 92.1626 44.5667 91.5576 44.5667 90.8558C44.5667 90.1297 44.7603 89.5066 45.1475 88.9863C45.5469 88.4538 46.1035 88.0424 46.8174 87.752C47.5313 87.4616 48.3541 87.3164 49.2859 87.3164C50.2297 87.3164 51.0586 87.4616 51.7725 87.752C52.4864 88.0424 53.043 88.4538 53.4424 88.9863C53.8417 89.5066 54.0413 90.1297 54.0413 90.8558C54.0413 91.5576 53.8477 92.1626 53.4605 92.6708C53.0854 93.1669 52.5409 93.5481 51.827 93.8143C51.113 94.0684 50.266 94.1955 49.2859 94.1955ZM49.2859 92.7434C50.0361 92.7434 50.629 92.5861 51.0646 92.2715C51.5002 91.9448 51.718 91.5092 51.718 90.9647C51.718 90.396 51.4942 89.9543 51.0465 89.6397C50.5988 89.3251 50.0119 89.1678 49.2859 89.1678C48.5599 89.1678 47.979 89.3251 47.5434 89.6397C47.1078 89.9543 46.89 90.396 46.89 90.9647C46.89 91.5092 47.1018 91.9448 47.5253 92.2715C47.9609 92.5861 48.5478 92.7434 49.2859 92.7434Z" fill="#3EC227"/>
<rect x="13.8037" y="78.374" width="35.8044" height="1.08989" fill="#233441"/>
<path d="M189.42 40.4844C189.42 40.4844 194.989 33.6274 203.572 40.4844" stroke="#7B858D" stroke-width="1.65083" stroke-miterlimit="10" stroke-linecap="round" stroke-linejoin="round"/>
<path d="M196.496 62.4784C193.579 62.4784 191.215 60.1136 191.215 57.1967C191.215 54.2798 193.579 51.9141 196.496 51.9141C199.413 51.9141 201.778 54.2798 201.778 57.1967C201.778 60.1136 199.413 62.4784 196.496 62.4784ZM242.44 39.9997H150.552C146.872 39.9997 143.889 42.983 143.889 46.6623V97.917C143.889 124.039 165.064 145.214 191.185 145.214H201.807C227.928 145.214 249.103 124.039 249.103 97.917V46.6623C249.103 42.983 246.12 39.9997 242.44 39.9997Z" fill="white"/>
<path d="M151.473 98.4914V47.5834H241.519V98.4914C241.519 120.107 223.997 137.629 202.382 137.629H190.611C168.996 137.629 151.473 120.106 151.473 98.4914Z" stroke="#3EC227" stroke-width="0.825417" stroke-miterlimit="10" stroke-linecap="round" stroke-linejoin="round" stroke-dasharray="2.48 2.48"/>
<path d="M196.497 60.8023C194.505 60.8023 192.89 59.1878 192.89 57.1959C192.89 55.2039 194.505 53.5894 196.497 53.5894C198.488 53.5894 200.102 55.2039 200.102 57.1959C200.102 59.1878 198.488 60.8023 196.497 60.8023ZM196.497 51.9142C193.579 51.9142 191.215 54.2789 191.215 57.1959C191.215 60.1128 193.579 62.4775 196.497 62.4775C199.413 62.4775 201.778 60.1128 201.778 57.1959C201.778 54.2789 199.413 51.9142 196.497 51.9142Z" fill="#298219"/>
<path d="M196.496 58.4746C196.496 58.4746 187.829 25.2438 190.94 11.0423C191.786 7.18305 193.501 4.72907 196.496 4.72907C210.514 4.72907 196.496 58.4746 196.496 58.4746Z" stroke="#7B858D" stroke-width="1.65083" stroke-miterlimit="10" stroke-linecap="round" stroke-linejoin="round"/>
<path d="M171.723 82.7111V81.5612H180.561V82.7111H171.723ZM171.723 80.4441V79.2942H180.561V80.4441H171.723ZM179.51 86.9165C178.623 86.9165 177.801 86.7741 177.046 86.4894C176.301 86.1937 175.655 85.783 175.107 85.2573C174.56 84.7207 174.132 84.091 173.826 83.3682C173.519 82.6454 173.366 81.8569 173.366 81.0027C173.366 80.1485 173.519 79.3599 173.826 78.6372C174.132 77.9144 174.56 77.2901 175.107 76.7644C175.655 76.2278 176.301 75.8171 177.046 75.5324C177.801 75.2367 178.623 75.0889 179.51 75.0889C180.451 75.0889 181.311 75.2531 182.089 75.5817C182.877 75.8993 183.534 76.3757 184.06 77.0109L182.697 78.3086C182.28 77.8596 181.815 77.5256 181.3 77.3065C180.786 77.0766 180.227 76.9616 179.625 76.9616C179.022 76.9616 178.469 77.0601 177.965 77.2573C177.473 77.4544 177.04 77.7337 176.668 78.0951C176.306 78.4565 176.022 78.8836 175.814 79.3764C175.605 79.8692 175.501 80.4113 175.501 81.0027C175.501 81.5941 175.605 82.1362 175.814 82.629C176.022 83.1218 176.306 83.5489 176.668 83.9103C177.04 84.2717 177.473 84.551 177.965 84.7481C178.469 84.9452 179.022 85.0438 179.625 85.0438C180.227 85.0438 180.786 84.9343 181.3 84.7152C181.815 84.4852 182.28 84.1403 182.697 83.6803L184.06 84.9945C183.534 85.6187 182.877 86.0951 182.089 86.4237C181.311 86.7522 180.451 86.9165 179.51 86.9165Z" fill="#233441"/>
<path d="M187.317 86.7522V76.0745L188.253 77.0437H184.885V75.2531H189.452V86.7522H187.317Z" fill="#233441"/>
<path d="M191.569 84.1403V82.6618L197.236 75.2531H199.52L193.934 82.6618L192.867 82.3333H201.984V84.1403H191.569ZM197.877 86.7522V84.1403L197.943 82.3333V80.017H199.947V86.7522H197.877Z" fill="#233441"/>
<path d="M206.694 86.9165C205.883 86.9165 205.089 86.8015 204.312 86.5715C203.545 86.3306 202.899 86.002 202.373 85.5859L203.277 83.9267C203.693 84.2662 204.197 84.54 204.788 84.7481C205.39 84.9562 206.015 85.0602 206.661 85.0602C207.416 85.0602 208.008 84.9014 208.435 84.5838C208.873 84.2662 209.092 83.8391 209.092 83.3025C209.092 82.9411 208.999 82.6235 208.813 82.3497C208.638 82.0759 208.32 81.8678 207.86 81.7255C207.411 81.5831 206.792 81.5119 206.004 81.5119H203.228L203.819 75.2531H210.57V77.0437H204.607L205.724 76.0252L205.281 80.707L204.164 79.7049H206.48C207.619 79.7049 208.534 79.8582 209.223 80.1649C209.924 80.4606 210.434 80.8767 210.751 81.4134C211.08 81.939 211.244 82.5414 211.244 83.2204C211.244 83.8884 211.08 84.5017 210.751 85.0602C210.423 85.6187 209.919 86.0677 209.24 86.4072C208.572 86.7467 207.723 86.9165 206.694 86.9165Z" fill="#233441"/>
<path d="M217.273 86.9165C216.364 86.9165 215.542 86.6865 214.808 86.2265C214.086 85.7666 213.516 85.0985 213.1 84.2224C212.684 83.3353 212.476 82.2621 212.476 81.0027C212.476 79.7433 212.684 78.6755 213.1 77.7994C213.516 76.9123 214.086 76.2388 214.808 75.7788C215.542 75.3188 216.364 75.0889 217.273 75.0889C218.192 75.0889 219.014 75.3188 219.737 75.7788C220.459 76.2388 221.029 76.9123 221.445 77.7994C221.872 78.6755 222.086 79.7433 222.086 81.0027C222.086 82.2621 221.872 83.3353 221.445 84.2224C221.029 85.0985 220.459 85.7666 219.737 86.2265C219.014 86.6865 218.192 86.9165 217.273 86.9165ZM217.273 85.0602C217.809 85.0602 218.275 84.9178 218.669 84.6331C219.063 84.3374 219.37 83.8884 219.589 83.2861C219.819 82.6837 219.934 81.9226 219.934 81.0027C219.934 80.0718 219.819 79.3107 219.589 78.7193C219.37 78.117 219.063 77.6734 218.669 77.3887C218.275 77.093 217.809 76.9451 217.273 76.9451C216.758 76.9451 216.298 77.093 215.893 77.3887C215.498 77.6734 215.186 78.117 214.956 78.7193C214.737 79.3107 214.628 80.0718 214.628 81.0027C214.628 81.9226 214.737 82.6837 214.956 83.2861C215.186 83.8884 215.498 84.3374 215.893 84.6331C216.298 84.9178 216.758 85.0602 217.273 85.0602Z" fill="#233441"/>
<path d="M162.451 103.84V102.158H175.381V103.84H162.451ZM162.451 100.523V98.8411H175.381V100.523H162.451ZM173.843 109.993C172.545 109.993 171.344 109.784 170.238 109.368C169.149 108.935 168.203 108.334 167.402 107.565C166.601 106.78 165.976 105.859 165.527 104.801C165.079 103.744 164.855 102.59 164.855 101.341C164.855 100.091 165.079 98.9372 165.527 97.8797C165.976 96.8222 166.601 95.909 167.402 95.1399C168.203 94.3548 169.149 93.754 170.238 93.3374C171.344 92.9048 172.545 92.6885 173.843 92.6885C175.221 92.6885 176.479 92.9288 177.616 93.4095C178.77 93.8741 179.731 94.5711 180.5 95.5004L178.506 97.399C177.897 96.7421 177.216 96.2534 176.463 95.933C175.71 95.5965 174.893 95.4283 174.011 95.4283C173.13 95.4283 172.321 95.5725 171.584 95.8609C170.863 96.1493 170.23 96.5579 169.685 97.0866C169.157 97.6153 168.74 98.2402 168.436 98.9612C168.131 99.6822 167.979 100.475 167.979 101.341C167.979 102.206 168.131 102.999 168.436 103.72C168.74 104.441 169.157 105.066 169.685 105.594C170.23 106.123 170.863 106.532 171.584 106.82C172.321 107.109 173.13 107.253 174.011 107.253C174.893 107.253 175.71 107.093 176.463 106.772C177.216 106.436 177.897 105.931 178.506 105.258L180.5 107.181C179.731 108.094 178.77 108.791 177.616 109.272C176.479 109.752 175.221 109.993 173.843 109.993Z" fill="#3EC227"/>
<path d="M185.265 109.752V94.1305L186.635 95.5485H181.708V92.9288H188.389V109.752H185.265Z" fill="#3EC227"/>
<path d="M191.51 109.752V107.661L198.191 101.317C198.752 100.788 199.169 100.323 199.441 99.9226C199.714 99.522 199.89 99.1535 199.97 98.817C200.066 98.4645 200.114 98.1361 200.114 97.8316C200.114 97.0626 199.85 96.4697 199.321 96.0532C198.792 95.6206 198.015 95.4043 196.99 95.4043C196.173 95.4043 195.428 95.5485 194.755 95.8369C194.098 96.1253 193.529 96.5659 193.048 97.1587L190.861 95.4764C191.518 94.5951 192.399 93.9142 193.505 93.4335C194.626 92.9368 195.876 92.6885 197.254 92.6885C198.472 92.6885 199.529 92.8888 200.427 93.2893C201.34 93.6738 202.037 94.2266 202.517 94.9476C203.014 95.6686 203.262 96.5258 203.262 97.5192C203.262 98.064 203.19 98.6087 203.046 99.1535C202.902 99.6822 202.63 100.243 202.229 100.836C201.828 101.429 201.244 102.094 200.475 102.831L194.731 108.286L194.082 107.109H203.911V109.752H191.51Z" fill="#3EC227"/>
<path d="M211.002 109.993C209.816 109.993 208.655 109.824 207.517 109.488C206.396 109.135 205.45 108.655 204.681 108.046L206.027 105.618C206.636 106.115 207.373 106.516 208.238 106.82C209.103 107.125 210.009 107.277 210.954 107.277C212.076 107.277 212.949 107.052 213.574 106.604C214.198 106.139 214.511 105.514 214.511 104.729C214.511 103.96 214.223 103.351 213.646 102.903C213.069 102.454 212.14 102.23 210.858 102.23H209.32V100.091L214.126 94.3708L214.535 95.5485H205.498V92.9288H216.962V95.0197L212.156 100.74L210.521 99.7784H211.459C213.526 99.7784 215.072 100.243 216.097 101.172C217.139 102.086 217.659 103.263 217.659 104.705C217.659 105.651 217.419 106.524 216.938 107.325C216.458 108.126 215.721 108.775 214.727 109.272C213.75 109.752 212.508 109.993 211.002 109.993Z" fill="#3EC227"/>
<path d="M219.369 109.752V107.661L226.051 101.317C226.611 100.788 227.028 100.323 227.3 99.9226C227.573 99.522 227.749 99.1535 227.829 98.817C227.925 98.4645 227.973 98.1361 227.973 97.8316C227.973 97.0626 227.709 96.4697 227.18 96.0532C226.651 95.6206 225.874 95.4043 224.849 95.4043C224.032 95.4043 223.287 95.5485 222.614 95.8369C221.957 96.1253 221.388 96.5659 220.907 97.1587L218.72 95.4764C219.377 94.5951 220.258 93.9142 221.364 93.4335C222.486 92.9368 223.735 92.6885 225.113 92.6885C226.331 92.6885 227.388 92.8888 228.286 93.2893C229.199 93.6738 229.896 94.2266 230.377 94.9476C230.873 95.6686 231.122 96.5258 231.122 97.5192C231.122 98.064 231.05 98.6087 230.905 99.1535C230.761 99.6822 230.489 100.243 230.088 100.836C229.688 101.429 229.103 102.094 228.334 102.831L222.59 108.286L221.941 107.109H231.771V109.752H219.369Z" fill="#3EC227"/>
<rect x="165.181" y="79.8486" width="63.2685" height="1.44314" fill="#233441"/>
</svg>
