<svg width="274" height="27" viewBox="0 0 274 27" fill="none" xmlns="http://www.w3.org/2000/svg">
<path d="M271.575 11.0886C270.237 11.0886 269.152 12.1686 269.152 13.4999C269.152 14.8319 270.237 15.9112 271.575 15.9112C272.913 15.9112 273.997 14.8312 273.997 13.4999C273.997 12.1679 272.912 11.0886 271.575 11.0886Z" fill="white"/>
<path d="M168.301 9.00128H171.334C174.174 9.00128 176.175 10.9931 176.175 13.4992C176.175 16.0054 174.173 17.9971 171.334 17.9971H168.301V9.00197V9.00128ZM171.334 16.5827C173.335 16.5827 174.626 15.2978 174.626 13.4985C174.626 11.6992 173.335 10.4143 171.334 10.4143H169.785V16.5827H171.334Z" fill="white"/>
<path d="M179.607 9.00128H186.126V10.415H181.092V12.728H185.158V14.141H181.092V16.5827H186.126V17.9964H179.607V9.00128Z" fill="white"/>
<path d="M189.805 9.00122H191.289V16.5827H195.872V17.9964H189.805V9.00122Z" fill="white"/>
<path d="M199.099 9.00128H200.583V17.9964H199.099V9.00128Z" fill="white"/>
<path d="M205.553 9.00122L207.489 16.5827H208.909L210.782 9.00122H212.266L210.006 17.9964H206.327L204.004 9.00122H205.553Z" fill="white"/>
<path d="M215.688 9.00122H222.206V10.4149H217.172V12.7279H221.238V14.1409H217.172V16.5827H222.206V17.9964H215.688V9.00122Z" fill="white"/>
<path d="M225.885 9.00122H229.822C232.016 9.00122 233.308 10.2861 233.308 11.8923C233.308 13.1772 232.469 14.2828 230.984 14.6553L233.244 17.9964H231.501L229.371 14.7834H227.37V17.9964H225.886V9.00122H225.885ZM229.822 13.3704C231.178 13.3704 231.758 12.8055 231.758 11.893C231.758 10.9805 231.177 10.4156 229.822 10.4156H227.369V13.3711L229.822 13.3704Z" fill="white"/>
<path d="M237.115 9.00122H238.599V17.9964H237.115V9.00122Z" fill="white"/>
<path d="M242.731 9.00128H249.249V10.415H244.215V12.728H248.281V14.141H244.215V16.5827H249.249V17.9964H242.731V9.00128Z" fill="white"/>
<path d="M253.874 15.2985C253.938 15.6065 254.067 15.8765 254.248 16.1078C254.558 16.5065 255.114 16.9046 256.133 16.9046C257.566 16.9046 258.134 16.3265 258.134 15.5553C258.134 14.8485 257.372 14.5148 256.417 14.2572C254.829 13.846 252.712 13.4223 252.712 11.443C252.712 10.0425 254.003 8.74438 256.068 8.74438C257.644 8.74438 258.547 9.41246 259.025 10.0681C259.309 10.4537 259.502 10.8905 259.619 11.3793H258.069C258.004 11.1349 257.902 10.9293 257.746 10.7368C257.475 10.4156 256.985 10.0944 256.068 10.0944C254.842 10.0944 254.26 10.6725 254.26 11.3793C254.26 12.073 255.022 12.433 255.977 12.6905C257.565 13.153 259.682 13.5386 259.682 15.4916C259.682 16.969 258.391 18.2546 256.132 18.2546C254.429 18.2546 253.461 17.5222 252.944 16.7772C252.634 16.3535 252.427 15.8523 252.324 15.2998H253.873L253.874 15.2985Z" fill="white"/>
<path d="M146.23 11.4355H141.014C139.958 11.4355 139.102 12.2879 139.102 13.3394C139.102 14.3909 139.958 15.2432 141.014 15.2432H146.23C147.286 15.2432 148.142 14.3909 148.142 13.3394C148.142 12.2879 147.286 11.4355 146.23 11.4355Z" fill="white"/>
<path d="M123.79 13.5V16.0013C123.79 18.108 125.172 19.9682 127.197 20.5802C128.112 20.8572 128.994 21.2455 129.821 21.7392C130.882 22.3726 131.707 23.2962 132.22 24.3734C133.001 26.0162 134.735 26.9993 136.561 26.9993H154.24C155.37 26.9993 156.383 26.1575 156.442 25.0338C156.505 23.8362 155.549 22.8455 154.359 22.8455H135.465C133.1 22.8455 130.807 21.8001 129.25 19.8921C128.382 18.8287 127.962 17.4711 127.962 16.1003V10.8983C127.962 9.52823 128.382 8.16992 129.25 7.10654C130.807 5.19854 133.1 4.15315 135.465 4.15315H154.241C155.37 4.15315 156.384 3.31131 156.442 2.18769C156.503 0.990692 155.546 0 154.357 0H136.559C134.733 0 133 0.983077 132.218 2.62592C131.706 3.70315 130.88 4.62669 129.82 5.26015C128.992 5.75446 128.11 6.14285 127.195 6.41977C125.171 7.03177 123.789 8.892 123.789 10.9987V13.5H123.79Z" fill="white"/>
<path d="M4.17647 11.077C4.17647 9.92992 3.24241 9.00005 2.09019 9.00005C0.937966 9.00005 0.00390625 9.92992 0.00390625 11.077V15.9231C0.00390625 17.0702 0.937966 18 2.09019 18C3.24241 18 4.17647 17.0702 4.17647 15.9231V11.077Z" fill="white"/>
<path d="M114.053 0C112.901 0 111.967 0.929769 111.967 2.07692V21.5508L110.542 20.9748C109.648 20.6135 108.813 20.1226 108.064 19.5182L106.93 18.6023C105.903 17.7736 105.056 16.7448 104.441 15.5804L104.415 15.5305C103.794 14.355 102.937 13.3186 101.897 12.4851L99.5668 10.6179C98.5271 9.78508 97.3268 9.17308 96.0403 8.82L95.9791 8.80338C94.7085 8.45515 93.5221 7.85354 92.4915 7.03661L92.166 6.77838C91.4066 6.17608 90.7418 5.46438 90.1938 4.66754L88.8182 2.66677C88.2793 1.88308 87.6506 1.11531 86.9072 0.519923C86.5407 0.201462 86.0664 0.00138462 85.5414 0.00138462C84.3891 0.00138462 83.4551 0.931154 83.4551 2.07831V24.9245C83.4551 26.0716 84.3891 27.0014 85.5414 27.0014C86.6937 27.0014 87.6277 26.0716 87.6277 24.9245V5.382L89.159 6.00023C90.0422 6.35677 90.8684 6.84 91.6104 7.43469L91.9115 7.67631C92.9623 8.51815 93.8267 9.56838 94.4491 10.7598C95.0715 11.9513 95.9359 13.0015 96.9867 13.8434L99.2816 15.6828C100.332 16.5247 101.547 17.1408 102.85 17.4918C104.152 17.8428 105.367 18.459 106.418 19.3008L107.541 20.2008C108.285 20.7962 108.936 21.4975 109.475 22.2819L110.865 24.3042C111.339 24.993 111.903 25.7587 112.536 26.3423C112.587 26.3956 112.81 26.5839 112.81 26.5839C113.158 26.8428 113.585 27.0014 114.053 27.0014C115.206 27.0014 116.139 26.0716 116.139 24.9245V2.07692C116.139 0.929769 115.206 0 114.053 0Z" fill="white"/>
<path d="M75.8041 10.9987C75.8041 8.892 74.423 7.03177 72.3979 6.41977C71.4827 6.14285 70.6009 5.75515 69.7734 5.26085C68.7129 4.62738 67.8874 3.70385 67.3749 2.62662C66.5939 0.983077 64.8602 0 63.034 0H53.1158C51.2896 0 49.5566 0.983077 48.775 2.62592C48.2624 3.70315 47.437 4.62669 46.3764 5.26015C45.5489 5.75446 44.6671 6.14285 43.7519 6.41908C41.7275 7.03108 40.3457 8.89131 40.3457 10.998V16.0013C40.3457 18.108 41.7268 19.9682 43.7519 20.5802C44.6671 20.8572 45.5489 21.2448 46.3764 21.7392C47.437 22.3726 48.2624 23.2962 48.775 24.3734C49.5566 26.0162 51.2903 26.9993 53.1158 26.9993H63.034C64.8602 26.9993 66.5932 26.0162 67.3749 24.3734C67.8874 23.2962 68.7129 22.3726 69.7734 21.7392C70.6009 21.2448 71.4827 20.8565 72.3979 20.5802C74.4223 19.9682 75.8041 18.108 75.8041 16.0013V10.998V10.9987ZM71.635 16.101C71.635 17.4711 71.215 18.8294 70.3471 19.8928C68.7894 21.8008 66.4965 22.8462 64.1314 22.8462H52.0191C49.654 22.8462 47.3612 21.8008 45.8034 19.8928C44.9355 18.8294 44.5155 17.4711 44.5155 16.101V10.899C44.5155 9.52892 44.9355 8.17062 45.8034 7.10723C47.3612 5.19923 49.654 4.15385 52.0191 4.15385H64.1314C66.4965 4.15385 68.7894 5.19923 70.3471 7.10723C71.215 8.17062 71.635 9.52823 71.635 10.899V16.101Z" fill="white"/>
<path d="M32.6893 10.9988C32.6893 8.89209 31.3082 7.03186 29.2831 6.41986C28.3679 6.14294 27.4861 5.75455 26.6586 5.26094C25.5981 4.62748 24.7726 3.70394 24.2601 2.62671C23.4784 0.983168 21.7447 9.15527e-05 19.9192 9.15527e-05H2.20876C1.0787 9.15527e-05 0.0661535 0.84263 0.0070422 1.96555C-0.0562416 3.16325 0.900666 4.15394 2.09054 4.15394H21.0159C23.381 4.15394 25.6739 5.19932 27.2316 7.10732C28.0995 8.17071 28.5195 9.52832 28.5195 10.8991V16.1011C28.5195 17.4712 28.0995 18.8295 27.2316 19.8929C25.6739 21.8009 23.381 22.8462 21.0159 22.8462H2.20876C1.07939 22.8462 0.0661535 23.6881 0.00773763 24.8117C-0.0555462 26.0094 0.901361 27.0001 2.09124 27.0001H19.9199C21.7461 27.0001 23.4791 26.017 24.2607 24.3742C24.7733 23.2969 25.5987 22.3734 26.6593 21.7399C27.4868 21.2456 28.3686 20.8572 29.2838 20.5803C31.3082 19.9683 32.69 18.1081 32.69 16.0014V10.9981L32.6893 10.9988Z" fill="white"/>
</svg>
