<svg width="40" height="40" fill="none" xmlns="http://www.w3.org/2000/svg"><g clip-path="url(#a)" fill="#333F48"><path d="M39.83.17a.59.59 0 0 0-.83 0L28.67 10.5a1.9 1.9 0 0 0-2.12.35l-2 2-.18-.17a1 1 0 0 0-1.42 0l-12.4 12.4a.59.59 0 0 0 .82.83l1.67-1.66 2.71 2.71-5.3 5.3-2.72-2.7 1.7-1.7a.59.59 0 1 0-.83-.83l-1.7 1.7-.38-.38a1 1 0 0 0-1.42 0L4.04 29.4a1 1 0 0 0 0 1.42l1.27 1.26-1.83 1.83-.7-.7a1 1 0 0 0-1.43 0L.3 34.27a1 1 0 0 0 0 1.41l4.02 4.02a1 1 0 0 0 1.41 0l1.07-1.07a1 1 0 0 0 0-1.41l-.71-.71 1.83-1.83 1.26 1.27a1 1 0 0 0 1.42 0l1.06-1.06a1 1 0 0 0 0-1.42l-.38-.38 9.49-9.5a.59.59 0 0 0-.83-.82l-1.58 1.58-2.71-2.71.94-.94.85.85a.58.58 0 1 0 .83-.83l-.85-.85.94-.94 1.33 1.33a.58.58 0 0 0 .82 0 .59.59 0 0 0 0-.83l-1.32-1.33.94-.94.85.85a.58.58 0 0 0 .83 0 .59.59 0 0 0 0-.83l-.85-.85.94-.94 1.33 1.32a.58.58 0 1 0 .82-.82l-1.32-1.33.94-.94 2.71 2.71-4.51 4.51a.59.59 0 0 0 .83.83l4.63-4.63a1 1 0 0 0 0-1.42l-.18-.18 2-2c.58-.57.7-1.43.35-2.12L39.83 1a.59.59 0 0 0 0-.83ZM5 38.76l-3.77-3.77.82-.83 3.78 3.78-.83.82Zm.24-3.07-.94-.94 1.83-1.83.94.94-1.83 1.83Zm4.63-.68-4.9-4.9.83-.82 4.9 4.9-.83.82Zm7.64-9.82-.94.94-2.71-2.71.94-.94 2.71 2.71Zm10.8-12.57-2 2-.95-.94 2-2c.2-.19.6-.3.95 0a.66.66 0 0 1 0 .94ZM6.13 16.02a4.89 4.89 0 0 0 .22-9.77.59.59 0 1 0-.05 1.18 3.7 3.7 0 0 1 3.1 1.95H2.86c.29-.53.7-.98 1.2-1.32a.59.59 0 0 0-.66-.98 4.88 4.88 0 0 0 2.73 8.94Zm0-1.18c-1.4 0-2.64-.79-3.26-1.95H9.4a3.71 3.71 0 0 1-3.27 1.95Zm3.67-4.3a3.75 3.75 0 0 1 0 1.18H2.47a3.72 3.72 0 0 1 0-1.17H9.8ZM37.48 17.8a.59.59 0 0 0-.2.8c.32.52.5 1.1.53 1.7l-5.93-2.77a3.7 3.7 0 0 1 3.64-.45.59.59 0 1 0 .45-1.08 4.87 4.87 0 0 0-3.93 8.93 4.91 4.91 0 0 0 6.49-2.36c.68-1.47.6-3.18-.24-4.58a.59.59 0 0 0-.8-.2Zm-.02 4.28c-.08.18-.18.35-.29.5l-6.64-3.09a3.77 3.77 0 0 1 .5-1.06l6.64 3.1a3.7 3.7 0 0 1-.2.55ZM35.37 24a3.69 3.69 0 0 1-4.76-2.22c-.12-.35-.2-.7-.21-1.06l5.92 2.76c-.28.22-.6.39-.95.52ZM15.33 9.48c.99.51 2.44.11 2.97-1.02l1.93-3.95a2.23 2.23 0 0 0-4-1.95L14.3 6.5a2.23 2.23 0 0 0 1.03 2.97Zm1.92-1.54c-.23.46-.81.75-1.4.49a1.06 1.06 0 0 1-.5-1.41l.71-1.45 1.9.93-.7 1.44Zm.03-4.87c.29-.45.71-.76 1.41-.48.52.25.74.88.49 1.4l-.71 1.45-1.9-.92.71-1.45ZM27.84 28.93l-4.3-.9c-1.08-.24-2.41.51-2.64 1.73-.25 1.08.51 2.41 1.73 2.64l4.3.9c1.03.25 2.43-.52 2.63-1.73.25-1.08-.5-2.41-1.72-2.64ZM22.2 30.8c-.15-.23-.2-.51-.15-.79.11-.5.6-.92 1.25-.82l1.58.33-.43 2.07-1.58-.33a1.05 1.05 0 0 1-.67-.46Zm6.22.54c-.11.5-.6.92-1.25.81l-1.58-.32.43-2.07 1.58.33c.5.1.92.6.82 1.25ZM8.3 19.95l-4.3-.9c-1.07-.25-2.4.5-2.63 1.73-.25 1.08.5 2.4 1.73 2.63l4.3.9c1.03.26 2.43-.51 2.63-1.73.25-1.08-.5-2.4-1.72-2.63ZM2.68 21.8c-.15-.24-.2-.52-.15-.8.1-.5.6-.92 1.25-.81l1.57.33-.43 2.06-1.57-.33a1.05 1.05 0 0 1-.67-.45Zm6.21.53c-.1.5-.6.92-1.24.82l-1.58-.33.43-2.06 1.58.32c.5.11.92.6.81 1.25ZM35.27 29.14a3.01 3.01 0 1 0 .01 6.02 3.01 3.01 0 0 0 0-6.02Zm0 4.84a1.84 1.84 0 1 1 0-3.67 1.84 1.84 0 0 1 0 3.67ZM27.85 6.48a3.01 3.01 0 1 0 0-6.02 3.01 3.01 0 0 0 0 6.02Zm0-4.84a1.84 1.84 0 1 1 0 3.68 1.84 1.84 0 0 1 0-3.68ZM17.54 32.34a3.01 3.01 0 1 0 0 6.03 3.01 3.01 0 0 0 0-6.03Zm0 4.85a1.84 1.84 0 1 1 0-3.68 1.84 1.84 0 0 1 0 3.68Z"/></g><defs><clipPath id="a"><path fill="#fff" d="M0 0h40v40H0z"/></clipPath></defs></svg>