<svg width="18" height="18" viewBox="0 0 18 18" fill="none" xmlns="http://www.w3.org/2000/svg">
<g clip-path="url(#clip0_4_1450)">
<path fill-rule="evenodd" clip-rule="evenodd" d="M14.616 1.01532L16.3073 2.36208C16.4706 2.51579 16.5627 2.7305 16.5614 2.95479C16.5602 3.17908 16.4658 3.39277 16.3008 3.54468L15.0156 5.0826L10.6427 10.2979C10.5661 10.3855 10.4643 10.4471 10.3511 10.474L8.08309 10.9881C7.78555 11.003 7.52645 10.7866 7.48801 10.4913V8.16062C7.49567 8.04819 7.54093 7.9417 7.61653 7.85822L11.9084 3.00576L13.3816 1.24644C13.6729 0.864421 14.206 0.764618 14.616 1.01532Z" stroke="#3EC227" stroke-width="1.44" stroke-linecap="round" stroke-linejoin="round"/>
<path d="M8.49571 3.70562C8.94304 3.70562 9.30571 3.34297 9.30571 2.89562C9.30571 2.44827 8.94304 2.08562 8.49571 2.08562V3.70562ZM5.47172 2.89562V2.08562H5.46977L5.47172 2.89562ZM1.44008 6.94567H2.25008V6.94383L1.44008 6.94567ZM1.44008 13.0207L2.25008 13.0224V13.0207H1.44008ZM5.47172 17.0707L5.46977 17.8807H5.47172V17.0707ZM11.5197 17.0707V17.8807H11.5217L11.5197 17.0707ZM15.5513 13.0207H14.7413V13.0224L15.5513 13.0207ZM16.3613 8.97067C16.3613 8.52323 15.9987 8.16067 15.5513 8.16067C15.104 8.16067 14.7413 8.52323 14.7413 8.97067H16.3613ZM12.6573 2.69669C12.4865 2.28319 12.0129 2.08636 11.5994 2.25707C11.1859 2.42777 10.9891 2.90136 11.1599 3.31486L12.6573 2.69669ZM15.1905 5.8692C15.6273 5.77265 15.9031 5.34027 15.8065 4.90347C15.71 4.46666 15.2777 4.19083 14.8408 4.28739L15.1905 5.8692ZM4.46408 13.2237C4.01673 13.2237 3.65408 13.5863 3.65408 14.0337C3.65408 14.481 4.01673 14.8437 4.46408 14.8437V13.2237ZM12.5284 14.8437C12.9758 14.8437 13.3384 14.481 13.3384 14.0337C13.3384 13.5863 12.9758 13.2237 12.5284 13.2237V14.8437ZM8.49571 2.08562H5.47172V3.70562H8.49571V2.08562ZM5.46977 2.08562C2.79094 2.09205 0.624342 4.26852 0.630077 6.9474L2.25008 6.94383C2.24625 5.15959 3.68937 3.7099 5.47366 3.70562L5.46977 2.08562ZM0.630077 6.94567V13.0207H2.25008V6.94567H0.630077ZM0.630077 13.0188C0.624342 15.6977 2.79094 17.8742 5.46977 17.8807L5.47366 16.2607C3.68937 16.2564 2.24625 14.8067 2.25008 13.0224L0.630077 13.0188ZM5.47172 17.8807H11.5197V16.2607H5.47172V17.8807ZM11.5217 17.8807C14.2005 17.8742 16.3671 15.6977 16.3613 13.0188L14.7413 13.0224C14.7451 14.8067 13.302 16.2564 11.5178 16.2607L11.5217 17.8807ZM16.3613 13.0207V8.97067H14.7413V13.0207H16.3613ZM11.1599 3.31486C11.3703 3.82476 11.7998 4.54748 12.4416 5.1059C13.098 5.67712 14.0414 6.12323 15.1905 5.8692L14.8408 4.28739C14.3386 4.3984 13.9023 4.22946 13.505 3.88376C13.0929 3.52526 12.7945 3.02919 12.6573 2.69669L11.1599 3.31486ZM4.46408 14.8437H12.5284V13.2237H4.46408V14.8437Z" fill="#3EC227"/>
</g>
<defs>
<clipPath id="clip0_4_1450">
<rect width="18" height="18" fill="white"/>
</clipPath>
</defs>
</svg>
