<svg width="48" height="202" fill="none" xmlns="http://www.w3.org/2000/svg"><path stroke="#D6D9DA" stroke-linecap="round" d="M24.5 56.5v15M24.5 136.5v15"/><circle cx="24" cy="24" r="24" fill="#F5F5F6"/><path d="m12.5 33 .5-7h4.5l2 5h2V18.5h3v-6H31v6h3V31h1v2.5l-2 .5-1.5 1-1.5.5-2-2H17.5L16 35h-2l-1.5-2Z" fill="#fff"/><path d="M12 13.4V12h5.81v1.4h-2.2v11.87h2.7l1.75 4.81h.9V18.03h3.02V12h7.43v6.03h3v12.05H36v4.22h-2.7a2.96 2.96 0 0 1-5.35 0H17.63A2.96 2.96 0 0 1 12 33.04v-7.77h2.21V13.41H12Zm8.57 18.09.5 1.4h6.6c.02-.5.18-.99.44-1.4h-7.54Zm1.79-1.4h4.62v-4.63h-1.6v1.68h-1.41v-1.68h-1.61v4.62Zm0-6.03h4.62v-4.63h-1.6v1.68h-1.41v-1.68h-1.61v4.63Zm7.65-10.65h-1.62v1.67h-1.4v-1.67h-1.6v4.62H30V13.4Zm3 6.02h-1.6v1.68h-1.4v-1.68h-1.62v4.63H33v-4.63Zm0 6.03h-1.6v1.68h-1.4v-1.68h-1.62v4.62H33v-4.62Zm1.58 6.03h-1.45c.26.41.41.9.44 1.4h1.01v-1.4Zm-3.97 3.1a1.55 1.55 0 1 0 0-3.1 1.55 1.55 0 0 0 0 3.1Zm-15.66 0a1.55 1.55 0 1 0 0-3.1 1.55 1.55 0 0 0 0 3.1Zm-1.55-4.07a2.96 2.96 0 0 1 4.5 2.37h1.67l-2.26-6.21h-3.91v3.84Z" fill="#333F48"/><circle cx="24" cy="104" r="24" fill="#F5F5F6"/><path fill="#fff" d="M18 91h11v13H18z"/><path fill="#fff" d="M13 102h22v11H13z"/><path d="M21.65 104.09H15.4v1.56h6.26v-1.56Z" fill="#333F48"/><path d="M30.52 100.96V90H17.48v10.96h-5.22V114h23.48v-13.04h-5.22Zm-11.48-9.4h9.92v9.4h-9.92v-9.4Zm4.18 20.88h-9.4v-9.92h9.4v9.92Zm10.95 0h-9.39v-9.92h9.4v9.92Z" fill="#333F48"/><path d="M32.6 104.09h-6.25v1.56h6.26v-1.56ZM27.4 93.13h-6.8v1.57h6.8v-1.57Z" fill="#333F48"/><circle cx="24" cy="178" r="24" fill="#F5F5F6"/><path d="M13 183v-11.5h14.5v2.5H32l2 3.5h1v5.5h-1.5l-1 2h-2l-1-2h-10l-1.5 1.5h-2l-1-1.5h-2Z" fill="#fff"/><path d="M31.4 180.23a2.76 2.76 0 1 0 .01 5.53 2.76 2.76 0 0 0 0-5.53Zm0 3.98a1.21 1.21 0 1 1 0-2.43 1.21 1.21 0 0 1 0 2.43ZM27.43 170.25H12.77a.77.77 0 0 0-.77.77v11.92c0 .43.35.78.77.78h2.43v-1.55h-1.65v-10.38h13.1v11.15h1.56v-11.92a.77.77 0 0 0-.78-.78Z" fill="#333F48"/><path d="M29.42 182.17H18.99v1.55h10.43v-1.55Z" fill="#333F48"/><path d="M17.08 180.23a2.76 2.76 0 1 0 0 5.53 2.76 2.76 0 0 0 0-5.53Zm0 3.98a1.21 1.21 0 1 1 0-2.43 1.21 1.21 0 0 1 0 2.43ZM35.23 176.67h-7.8v1.55h7.02v3.95h-1.1v1.55h1.88c.42 0 .77-.35.77-.78v-5.5a.77.77 0 0 0-.77-.77Z" fill="#333F48"/><path d="M32.88 173.46a.77.77 0 0 0-.67-.4h-4.78v1.55h4.32l1.77 3.2 1.35-.74-1.99-3.61Z" fill="#333F48"/></svg>