<svg width="66" height="42" viewBox="0 0 66 42" fill="none" xmlns="http://www.w3.org/2000/svg">
<rect x="0.5" y="0.5" width="65" height="41" rx="3.5" stroke="white"/>
<path d="M52.6733 21.0377C52.6733 24.3543 50.4371 26.7663 47.1457 26.7663C44.0552 26.7663 41.7688 24.5553 41.7688 21.0126C41.7436 17.2186 44.5075 15.2588 47.2713 15.2588C49.9095 15.2588 52.6733 17.1181 52.6733 21.0377ZM49.9849 21.0377C49.9849 19.4296 49.2311 17.5703 47.221 17.5703C45.3869 17.5703 44.4321 19.1281 44.4321 21.0126C44.4321 23.1231 45.613 24.4799 47.1959 24.4799C49.206 24.4799 49.9849 22.6457 49.9849 21.0126M40.7889 25.711C39.606 26.4182 38.2469 26.7754 36.8693 26.7412C33.1758 26.7412 31.3416 24.2035 31.3416 21.0879C31.3416 17.5703 33.8291 15.2588 37.0703 15.2588C38.6783 15.2588 39.7085 15.51 40.613 15.9874L39.6833 18.1482C38.9798 17.8467 38.1758 17.6708 37.221 17.6708C34.8843 17.6708 34.0803 19.0779 34.0803 21.0126C34.0803 23.098 35.1607 24.4548 37.02 24.4548C37.6984 24.4548 38.2009 24.304 38.3517 24.2035V22.294H36.4673V20.0829H40.7889V25.7362M28.1507 26.5653C27.7738 25.2337 27.1457 24.2035 26.6431 23.5502C26.2411 22.9975 25.8894 22.897 25.8894 22.897H25.01V26.5653H22.3969V15.5603C23.4751 15.3665 24.5678 15.2657 25.6632 15.2588C26.5426 15.2588 27.2964 15.3593 27.8994 15.5352C28.5024 15.7362 29.005 16.0126 29.3818 16.3392C29.7838 16.6658 30.0602 17.093 30.2361 17.5452C30.4486 18.0766 30.5364 18.6495 30.4928 19.2201C30.4493 19.7907 30.2755 20.3437 29.9848 20.8367C29.6582 21.3392 29.1306 21.8417 28.5778 22.1683V22.2186C29.8341 22.7965 30.5125 24.6055 31.1909 26.5402H28.1507V26.5653ZM27.9497 19.0528C27.9497 18.6005 27.7738 18.2236 27.4472 17.9724C27.052 17.6916 26.5747 17.5502 26.0904 17.5703C25.7296 17.5684 25.369 17.5851 25.01 17.6206V20.8116L25.814 20.8367C26.4421 20.8367 27.02 20.6608 27.3718 20.3844C27.7487 20.0829 27.9497 19.6306 27.9497 19.0528ZM13.3517 23.9271V15.4347H20.9396V17.7965H15.9145V19.706H20.1859V21.9673H15.9145V23.1482C15.9145 23.902 16.3668 24.2035 16.9446 24.2035H21.1406V26.5653H15.9647C14.0301 26.5653 13.3517 25.6859 13.3517 23.9271Z" fill="white"/>
</svg>
