<svg width="162" height="37" fill="none" xmlns="http://www.w3.org/2000/svg"><path d="M54.882.225H.06v36.55h54.822V.225Z" fill="#164194"/><path d="m26.305 8.19 1.156-.842 1.156.842-.439-1.366 1.177-.842h-1.45L27.46 4.6l-.44 1.382h-1.454l1.173.842-.435 1.366ZM20.314 9.797l1.16-.846 1.156.846-.439-1.365 1.172-.846h-1.446l-.443-1.382-.443 1.39-1.447-.008 1.173.846-.443 1.365ZM17.09 10.595l-.439 1.386-1.45-.004 1.172.846-.439 1.366 1.156-.842 1.16.842-.438-1.366 1.176-.846h-1.45l-.448-1.382ZM15.487 19.318l1.152.85-.439-1.366 1.177-.846H15.93l-.443-1.382-.447 1.386-1.447-.004 1.173.846-.435 1.366 1.156-.85ZM17.538 23.955l-.448-1.382-.439 1.382h-1.45l1.172.846-.439 1.362 1.156-.846 1.16.846-.442-1.362 1.18-.846h-1.45ZM21.925 28.343l-.443-1.382-.447 1.386-1.447-.004 1.177.846-.44 1.362 1.157-.842 1.16.842-.443-1.362 1.177-.846h-1.45ZM27.904 29.93l-.443-1.382-.44 1.382h-1.454l1.177.846-.44 1.366 1.157-.846 1.16.846-.447-1.366 1.185-.846h-1.455ZM33.883 28.343l-.443-1.382-.447 1.386-1.443-.004 1.173.846-.44 1.362 1.157-.842 1.156.842-.439-1.362 1.18-.846h-1.454ZM38.275 23.955l-.448-1.382-.439 1.382h-1.446l1.172.846-.443 1.362 1.156-.846 1.16.846-.442-1.362 1.18-.846h-1.45ZM41.309 17.94h-1.447l-.44-1.386-.45 1.386h-1.443l1.177.846-.447 1.362 1.164-.842 1.156.842-.443-1.362 1.172-.846ZM36.671 14.165l1.16-.838 1.157.838-.44-1.362 1.177-.842h-1.45l-.444-1.386-.443 1.39-1.446-.004 1.172.842-.443 1.362ZM33.456 6.204l-.44 1.39-1.45-.004 1.177.842-.44 1.37 1.161-.85 1.152.85-.439-1.37 1.173-.842h-1.447l-.447-1.386Z" fill="#FFED00"/><path d="M67.122 24.02v-6.044h3.683v.722h-2.84v1.792h2.525v.706h-2.526v2.09h3.058v.722l-3.9.012ZM75.434 23.794a9.51 9.51 0 0 1-.733.15 6.37 6.37 0 0 1-1.06.076c-.3.01-.6-.043-.878-.153-.23-.091-.43-.24-.585-.431a1.745 1.745 0 0 1-.314-.657 3.628 3.628 0 0 1-.089-.838v-2.543h.806v2.365c-.034.412.055.825.258 1.185a1.016 1.016 0 0 0 .883.358h.27c.092 0 .177 0 .261-.024l.222-.024a.564.564 0 0 0 .14-.032v-3.828h.807l.012 4.396ZM78.456 19.398h.237c.09.008.178.02.266.037.089 0 .17.028.242.044.054.008.108.02.161.036l-.141.705c-.065 0-.17-.048-.318-.08a2.734 2.734 0 0 0-1.02 0l-.29.064v3.804h-.806v-4.323c.234-.08.472-.144.714-.194.313-.066.634-.097.954-.093ZM84.096 21.65c.005.332-.048.662-.157.976-.096.276-.245.53-.44.75a1.954 1.954 0 0 1-.672.482 2.24 2.24 0 0 1-1.708 0 1.881 1.881 0 0 1-.673-.483 2.171 2.171 0 0 1-.44-.75 3.079 3.079 0 0 1 0-1.941c.093-.28.243-.536.44-.754.185-.209.415-.374.673-.483a2.24 2.24 0 0 1 1.708 0c.256.111.486.276.673.483.196.22.345.476.439.754.108.31.16.638.157.967Zm-.846 0a1.946 1.946 0 0 0-.343-1.208 1.208 1.208 0 0 0-1.869 0 2.304 2.304 0 0 0 0 2.417 1.208 1.208 0 0 0 1.87 0 1.95 1.95 0 0 0 .342-1.208ZM89.18 21.764a3.12 3.12 0 0 1-.136.95c-.083.274-.22.53-.403.75-.174.209-.393.376-.64.487-.273.121-.57.18-.867.174a2.115 2.115 0 0 1-.69-.105 2.141 2.141 0 0 1-.45-.202v1.813h-.806v-5.999c.193-.044.431-.097.721-.153.329-.057.662-.084.995-.08.32-.007.64.05.939.165.271.102.516.263.717.471.203.211.36.462.46.737.112.319.167.654.16.992Zm-.846 0c.025-.44-.119-.872-.402-1.21a1.341 1.341 0 0 0-1.044-.426 4.206 4.206 0 0 0-.572.028c-.11.011-.22.031-.326.06v2.853c.13.1.273.18.427.238.193.077.4.115.608.112.206.005.41-.038.596-.125.161-.082.3-.202.403-.35.109-.157.186-.333.226-.52a2.8 2.8 0 0 0 .085-.66ZM90.023 21.663a2.872 2.872 0 0 1 .177-1.052 2.25 2.25 0 0 1 .46-.745 1.91 1.91 0 0 1 .66-.443 2.12 2.12 0 0 1 .77-.145 1.736 1.736 0 0 1 1.398.568c.362.501.535 1.115.487 1.732v.137c.004.05.004.1 0 .15h-3.098c.003.393.146.773.403 1.07a1.486 1.486 0 0 0 1.112.367c.242.005.484-.02.72-.072a3 3 0 0 0 .436-.145l.117.68a2.947 2.947 0 0 1-.52.166c-.277.06-.559.088-.842.085a2.695 2.695 0 0 1-1.02-.178 1.894 1.894 0 0 1-.708-.491 2.016 2.016 0 0 1-.403-.746 3.171 3.171 0 0 1-.15-.938Zm3.106-.448a1.358 1.358 0 0 0-.274-.898.939.939 0 0 0-.782-.355 1.074 1.074 0 0 0-.85.391 1.29 1.29 0 0 0-.233.403 2.308 2.308 0 0 0-.11.46h2.249ZM96.562 19.294c.273-.007.546.036.806.125a1.309 1.309 0 0 1 .833.906c.059.23.087.465.085.701v2.82l-.29.049c-.125 0-.266.04-.423.056l-.508.049h-.544a2.95 2.95 0 0 1-.705-.077c-.2-.045-.389-.13-.556-.25a1.112 1.112 0 0 1-.366-.447 1.547 1.547 0 0 1-.133-.669 1.294 1.294 0 0 1 .153-.644c.094-.178.233-.328.403-.436.186-.117.392-.2.608-.245.24-.053.484-.078.73-.077h.253c.084.008.167.02.25.036l.205.037.121.028v-.226c0-.135-.015-.27-.044-.403a.88.88 0 0 0-.157-.346.805.805 0 0 0-.31-.246 1.208 1.208 0 0 0-.508-.089 3.637 3.637 0 0 0-.701.057 2.29 2.29 0 0 0-.447.117l-.097-.67c.169-.065.345-.11.524-.136.271-.032.545-.039.818-.02Zm.072 4.057h.508c.124-.01.248-.025.37-.049v-1.361a1.082 1.082 0 0 0-.281-.077 3.553 3.553 0 0 0-.863 0c-.13.018-.255.055-.374.109a.879.879 0 0 0-.287.226.62.62 0 0 0-.112.378.649.649 0 0 0 .282.609c.233.123.494.18.757.165ZM99.6 19.624c.185-.048.435-.097.741-.149a6.37 6.37 0 0 1 1.063-.077c.306-.01.61.042.895.154.222.088.419.23.572.415.147.195.249.42.298.66.062.277.092.56.089.842v2.543h-.806V21.65a4.055 4.055 0 0 0-.056-.713 1.245 1.245 0 0 0-.19-.48.707.707 0 0 0-.346-.262 1.51 1.51 0 0 0-.54-.084h-.536l-.226.032-.145.028v3.82h-.805l-.009-4.368ZM107.976 23.29c.882 0 1.321-.302 1.321-.906a.88.88 0 0 0-.117-.476 1.15 1.15 0 0 0-.318-.338 2.353 2.353 0 0 0-.455-.25l-.544-.205a6.41 6.41 0 0 1-.629-.258 2.14 2.14 0 0 1-.511-.343 1.413 1.413 0 0 1-.347-.463 1.623 1.623 0 0 1-.125-.653 1.52 1.52 0 0 1 .54-1.236 2.268 2.268 0 0 1 1.491-.444c.335-.005.67.035.995.117.231.051.453.138.657.258l-.27.685a2.496 2.496 0 0 0-.544-.222 2.921 2.921 0 0 0-.838-.108c-.153 0-.306.017-.455.052a1.26 1.26 0 0 0-.367.157.758.758 0 0 0-.338.645c-.004.14.029.279.096.403a.965.965 0 0 0 .27.29c.126.09.261.167.403.23.157.072.326.14.512.209.262.105.499.21.717.314.206.098.397.224.568.375.157.144.282.32.367.515.094.232.139.48.133.73a1.405 1.405 0 0 1-.581 1.209 2.7 2.7 0 0 1-1.611.426 4.16 4.16 0 0 1-.657-.048 4.77 4.77 0 0 1-.536-.113 3.69 3.69 0 0 1-.403-.137c-.112-.052-.201-.092-.262-.129l.25-.697c.195.103.399.188.609.254.316.104.646.157.979.157ZM111.868 19.39h1.712v.677h-1.712v2.091c-.005.188.013.376.052.56a.807.807 0 0 0 .153.347c.069.083.16.146.262.181.119.038.242.055.367.052.199.007.398-.021.588-.084l.31-.117.157.673c-.139.059-.281.109-.427.149a2.45 2.45 0 0 1-.697.093 2.153 2.153 0 0 1-.761-.117 1.115 1.115 0 0 1-.484-.355 1.428 1.428 0 0 1-.258-.576 3.89 3.89 0 0 1-.072-.806V18.13l.806-.137.004 1.398ZM116.235 19.398h.242l.266.037.237.044c.055.008.109.02.162.036l-.141.705c-.061 0-.17-.048-.315-.08a2.774 2.774 0 0 0-.572-.049c-.15 0-.3.017-.447.049l-.294.064v3.804h-.806v-4.323a5.73 5.73 0 0 1 .717-.194c.313-.066.632-.097.951-.093ZM121.485 23.794a9.588 9.588 0 0 1-.733.15c-.351.054-.705.08-1.06.076-.3.01-.599-.043-.878-.153a1.425 1.425 0 0 1-.577-.431 1.691 1.691 0 0 1-.31-.657 3.379 3.379 0 0 1-.096-.838v-2.543h.805v2.365c-.031.414.066.828.278 1.185a1.006 1.006 0 0 0 .879.358h.27c.092 0 .177 0 .261-.024l.222-.024a.562.562 0 0 0 .141-.032v-3.828h.806l-.008 4.396ZM124.801 24.028a2.437 2.437 0 0 1-.959-.173 1.923 1.923 0 0 1-.697-.488 2.013 2.013 0 0 1-.423-.745 3.065 3.065 0 0 1-.141-.951c-.003-.326.048-.65.153-.96.095-.273.241-.526.431-.744.19-.213.424-.382.685-.496.285-.123.592-.183.902-.177.204 0 .408.017.609.052.199.032.394.088.58.165l-.181.685a2.259 2.259 0 0 0-.931-.19 1.277 1.277 0 0 0-1.04.428 1.87 1.87 0 0 0-.362 1.245c-.002.226.026.45.084.669.048.19.136.37.258.523.125.147.282.262.46.335.215.082.445.122.676.117a2.441 2.441 0 0 0 .988-.19l.112.677a1.007 1.007 0 0 1-.201.085 3.243 3.243 0 0 1-.294.068l-.355.053c-.117.004-.238.012-.354.012ZM127.597 19.39h1.716v.677h-1.716v2.091c-.005.188.013.376.052.56a.84.84 0 0 0 .157.347.575.575 0 0 0 .262.181c.117.038.24.055.363.052.199.008.399-.021.588-.084l.31-.117.157.673c-.138.06-.281.11-.427.149a2.414 2.414 0 0 1-.697.093 2.157 2.157 0 0 1-.761-.117 1.115 1.115 0 0 1-.484-.355 1.438 1.438 0 0 1-.254-.576 3.633 3.633 0 0 1-.076-.806V18.13l.806-.137.004 1.398ZM133.898 23.794a9.105 9.105 0 0 1-.733.15c-.351.054-.705.08-1.06.076-.3.01-.599-.043-.878-.153a1.447 1.447 0 0 1-.576-.431 1.806 1.806 0 0 1-.311-.657 3.379 3.379 0 0 1-.096-.838v-2.543h.805v2.365c-.036.413.055.826.262 1.185a1.006 1.006 0 0 0 .879.358h.27c.092 0 .181 0 .261-.024l.222-.024a.562.562 0 0 0 .141-.032v-3.828h.806l.008 4.396ZM136.92 19.398h.242l.265.037.238.044c.055.008.109.02.161.036l-.141.705c-.064 0-.169-.048-.318-.08a2.708 2.708 0 0 0-1.015 0l-.294.064v3.804h-.806v-4.323c.233-.08.471-.144.713-.194.314-.066.634-.097.955-.093ZM140.03 19.294c.274-.006.547.037.806.125.206.074.391.197.54.358.139.157.239.345.29.548.06.23.09.465.088.701v2.82l-.294.049c-.125 0-.266.04-.403.056l-.511.049h-.544a2.982 2.982 0 0 1-.705-.077 1.609 1.609 0 0 1-.556-.25 1.141 1.141 0 0 1-.367-.447 1.563 1.563 0 0 1-.121-.64 1.301 1.301 0 0 1 .149-.645c.096-.176.235-.326.403-.435.187-.117.393-.2.609-.246.241-.053.486-.078.733-.077h.25c.084.008.167.02.25.037l.205.036.121.028v-.226a2.02 2.02 0 0 0-.044-.402.89.89 0 0 0-.158-.347.773.773 0 0 0-.306-.246 1.24 1.24 0 0 0-.511-.088 3.634 3.634 0 0 0-.701.056 2.46 2.46 0 0 0-.448.117l-.096-.669c.168-.065.344-.111.523-.137.264-.04.531-.056.798-.048Zm.069 4.057h.507c.125-.009.248-.025.371-.048V21.94a1.036 1.036 0 0 0-.282-.077 3.24 3.24 0 0 0-.476-.028c-.134 0-.269.008-.402.024a1.345 1.345 0 0 0-.355.121.861.861 0 0 0-.282.226.597.597 0 0 0-.113.378.66.66 0 0 0 .274.605c.233.121.495.177.758.161ZM144.426 24.02a1.546 1.546 0 0 1-1.064-.323 1.26 1.26 0 0 1-.314-.947v-5.435l.806-.137v5.44c-.003.11.009.222.036.33.018.078.057.15.113.21.058.056.13.097.209.116.106.031.213.054.322.069l-.108.677ZM68.552 29.958c.274-.004.547.04.806.13.206.072.391.194.54.354.139.157.238.345.29.548.062.228.092.464.089.7v2.821l-.29.048-.423.057-.512.044c-.18.016-.361.024-.544.024-.237 0-.474-.025-.705-.076a1.67 1.67 0 0 1-.556-.25 1.128 1.128 0 0 1-.367-.451 1.584 1.584 0 0 1-.129-.67 1.262 1.262 0 0 1 .153-.644 1.25 1.25 0 0 1 .403-.435c.19-.115.396-.196.613-.242a3.29 3.29 0 0 1 .729-.08c.085-.006.17-.006.254 0l.246.032.205.04.12.024v-.225a1.842 1.842 0 0 0-.04-.403 1.026 1.026 0 0 0-.156-.35.806.806 0 0 0-.31-.242 1.236 1.236 0 0 0-.512-.093 3.894 3.894 0 0 0-.697.056 2.373 2.373 0 0 0-.452.121l-.096-.672a2.73 2.73 0 0 1 .535-.085c.266-.05.536-.076.806-.08Zm.069 4.058h.507c.125-.005.25-.021.371-.049v-1.362a1.069 1.069 0 0 0-.282-.072 3.152 3.152 0 0 0-.878-.004c-.13.014-.257.05-.375.109a.806.806 0 0 0-.282.225.588.588 0 0 0-.113.379.648.648 0 0 0 .278.604c.232.123.492.182.754.17h.02ZM71.57 30.289c.185-.043.431-.091.737-.145a6.454 6.454 0 0 1 1.064-.08c.307-.01.612.042.898.152.224.091.42.238.569.427.145.196.248.42.302.657.059.278.087.562.084.846v2.542h-.806V32.32a3.65 3.65 0 0 0-.056-.713 1.21 1.21 0 0 0-.17-.48.769.769 0 0 0-.35-.265 1.494 1.494 0 0 0-.54-.08h-.531l-.23.032-.141.024v3.823h-.806l-.024-4.371ZM79.43 27.968l.806-.141v6.644a8.83 8.83 0 0 1-.713.157 5.67 5.67 0 0 1-.999.08 2.572 2.572 0 0 1-.943-.165 2.08 2.08 0 0 1-.693-.475 2.015 2.015 0 0 1-.455-.745 2.82 2.82 0 0 1-.161-.988 3.282 3.282 0 0 1 .133-.959 2.09 2.09 0 0 1 .403-.745c.174-.208.393-.375.64-.487.273-.122.568-.182.867-.178a2.202 2.202 0 0 1 1.14.306l-.025-2.304Zm0 3.046a1.785 1.785 0 0 0-1.035-.35 1.29 1.29 0 0 0-.596.128c-.161.08-.3.2-.403.347-.11.159-.187.338-.226.528-.05.214-.074.433-.072.652-.02.44.124.87.403 1.209a1.354 1.354 0 0 0 1.047.427c.185.003.369-.007.552-.028.116-.013.23-.035.343-.065l-.013-2.848ZM83.625 28.653h.846v6.043h-.846v-6.043ZM85.877 30.289c.185-.043.43-.091.737-.145a6.454 6.454 0 0 1 1.064-.08c.306-.01.612.042.898.152.223.091.419.238.568.427.146.196.25.42.302.657.06.278.088.562.085.846v2.542h-.806V32.32a3.65 3.65 0 0 0-.056-.713 1.21 1.21 0 0 0-.185-.48.77.77 0 0 0-.35-.265 1.486 1.486 0 0 0-.537-.08h-.536l-.23.032-.14.024v3.823h-.806l-.008-4.371ZM94.22 30.16c-.221.82-.49 1.628-.805 2.417-.302.778-.6 1.475-.882 2.091h-.734c-.268-.618-.562-1.315-.882-2.09a23.957 23.957 0 0 1-.806-2.418h.87c.073.286.154.588.25.91.097.323.198.64.306.96.11.317.214.62.327.914.113.294.213.564.31.806.1-.23.206-.496.314-.806.11-.31.222-.6.327-.915.105-.314.21-.636.306-.959.097-.322.177-.624.25-.91h.85ZM94.64 32.327c-.008-.356.05-.712.173-1.047.103-.277.26-.53.463-.745.185-.195.411-.346.661-.444.243-.099.503-.15.766-.149a1.74 1.74 0 0 1 1.402.572c.361.504.534 1.119.487 1.737V32.537H95.49c.004.393.147.773.403 1.072a1.502 1.502 0 0 0 1.112.362 2.82 2.82 0 0 0 1.16-.214l.113.678c-.166.075-.34.13-.52.165-.275.06-.556.09-.838.088a2.629 2.629 0 0 1-1.023-.18 1.882 1.882 0 0 1-.71-.492 2.055 2.055 0 0 1-.402-.742 3.223 3.223 0 0 1-.145-.947Zm3.106-.443a1.35 1.35 0 0 0-.274-.902.946.946 0 0 0-.777-.35 1.1 1.1 0 0 0-.854.39 1.21 1.21 0 0 0-.23.403c-.056.15-.092.305-.109.463l2.244-.004ZM100.784 34c.251.014.502-.03.733-.13a.44.44 0 0 0 .242-.402.556.556 0 0 0-.238-.472c-.24-.166-.5-.301-.773-.403a11.742 11.742 0 0 1-.5-.213 1.683 1.683 0 0 1-.403-.258c-.114-.1-.208-.22-.278-.355a1.265 1.265 0 0 1 .339-1.466 1.89 1.89 0 0 1 1.208-.355c.135 0 .27.008.403.024.129 0 .246.029.355.049.109.02.209.044.294.068l.197.06-.193.698a1.925 1.925 0 0 0-.403-.145 2.672 2.672 0 0 0-.669-.073 1.259 1.259 0 0 0-.592.133.446.446 0 0 0-.254.403c-.001.09.018.18.057.262a.63.63 0 0 0 .177.201c.088.071.186.13.29.174.117.052.254.104.403.165.149.06.403.161.572.238.156.07.301.162.431.273.119.104.213.234.274.38.069.172.102.357.097.543a1.082 1.082 0 0 1-.468.95c-.399.239-.861.35-1.325.323a3.53 3.53 0 0 1-.939-.1 4.625 4.625 0 0 1-.463-.154l.149-.697c.093.037.238.09.443.158.27.085.551.126.834.12ZM104.309 30.039h1.713v.68h-1.717v2.088c-.002.19.015.378.053.564a.89.89 0 0 0 .157.346.535.535 0 0 0 .262.178c.118.037.242.055.366.052.2.008.399-.02.589-.08l.306-.117.157.669a2.832 2.832 0 0 1-.427.153 2.424 2.424 0 0 1-.697.092 2.07 2.07 0 0 1-.762-.12 1.124 1.124 0 0 1-.483-.351 1.424 1.424 0 0 1-.254-.58 3.634 3.634 0 0 1-.076-.806v-4.029l.805-.141.008 1.402ZM107.009 30.289c.185-.043.431-.092.737-.145a6.263 6.263 0 0 1 1.056-.08c.25-.008.499.033.733.12.191.071.361.19.496.342l.189-.12c.103-.06.211-.111.322-.153.14-.052.283-.097.427-.134.167-.037.337-.056.508-.056.291-.01.581.043.85.153.211.092.391.241.52.431.13.2.216.425.254.661.043.277.064.558.064.838v2.542h-.806V32.32a4.81 4.81 0 0 0-.04-.689 1.326 1.326 0 0 0-.149-.479.686.686 0 0 0-.294-.282 1.118 1.118 0 0 0-.484-.089 1.768 1.768 0 0 0-.673.11 1.33 1.33 0 0 0-.362.192c.047.163.082.328.105.496.021.189.032.378.032.568v2.542h-.806V32.32a4.983 4.983 0 0 0-.04-.668 1.524 1.524 0 0 0-.153-.48.698.698 0 0 0-.298-.282 1.087 1.087 0 0 0-.472-.089h-.528l-.229.033-.141.024v3.823h-.806l-.012-4.391ZM114.208 32.327a2.877 2.877 0 0 1 .174-1.047c.102-.277.26-.53.463-.745.185-.195.411-.346.661-.444.243-.099.503-.15.765-.149a1.742 1.742 0 0 1 1.402.572c.364.503.537 1.119.488 1.737V32.537h-3.098c.001.394.144.774.403 1.072a1.5 1.5 0 0 0 1.116.362c.241.005.481-.02.717-.072.15-.035.297-.082.439-.141l.113.676a2.268 2.268 0 0 1-.516.166c-.277.06-.559.09-.842.088a2.635 2.635 0 0 1-1.023-.18 1.885 1.885 0 0 1-.71-.492 2.045 2.045 0 0 1-.402-.742 3.236 3.236 0 0 1-.15-.947Zm3.107-.443a1.35 1.35 0 0 0-.274-.902.946.946 0 0 0-.778-.35 1.06 1.06 0 0 0-.491.108c-.138.07-.261.166-.363.282-.098.12-.176.257-.23.403-.055.15-.092.305-.108.463l2.244-.004ZM119.285 30.289c.185-.043.431-.092.737-.145a6.462 6.462 0 0 1 1.064-.08c.306-.01.612.043.898.152.219.093.41.24.556.427.146.195.249.42.302.657.059.278.088.562.085.846v2.542h-.806V32.32a3.627 3.627 0 0 0-.056-.713 1.22 1.22 0 0 0-.185-.48.774.774 0 0 0-.351-.265 1.491 1.491 0 0 0-.54-.08h-.532l-.229.032-.141.024v3.823h-.806l.004-4.371ZM124.994 30.039h1.716v.68h-1.716v2.088c-.003.19.015.378.052.564a.905.905 0 0 0 .157.346.54.54 0 0 0 .262.178c.119.037.243.055.367.052.198.008.396-.02.584-.08l.31-.117.158.669a2.805 2.805 0 0 1-.428.153 2.414 2.414 0 0 1-.697.092 2.065 2.065 0 0 1-.761-.12 1.07 1.07 0 0 1-.483-.351 1.398 1.398 0 0 1-.254-.58 3.576 3.576 0 0 1-.077-.806v-4.029l.806-.141.004 1.402ZM129.712 34.688v-6.043h3.626v.725h-2.78v1.817h2.482v.713h-2.482v2.78l-.846.008ZM137.677 34.47c-.185.045-.431.094-.733.146-.35.056-.705.083-1.06.08-.3.008-.598-.044-.878-.153a1.42 1.42 0 0 1-.576-.43 1.77 1.77 0 0 1-.314-.657 3.615 3.615 0 0 1-.093-.842v-2.55h.806v2.368c-.035.412.055.825.258 1.185a1.017 1.017 0 0 0 .882.354h.528l.221-.028a.596.596 0 0 0 .145-.028v-3.852h.806l.008 4.408ZM139.027 30.289c.185-.045.431-.093.741-.145a6.35 6.35 0 0 1 1.06-.081c.306-.01.612.043.898.153.219.093.41.24.556.427.149.193.253.418.302.657.061.278.09.562.089.846v2.542h-.806V32.32a3.963 3.963 0 0 0-.056-.713 1.21 1.21 0 0 0-.19-.48.76.76 0 0 0-.346-.265 1.515 1.515 0 0 0-.54-.08h-.536l-.225.031-.145.025v3.823h-.806l.004-4.371ZM146.908 27.968l.805-.141v6.644a8.807 8.807 0 0 1-.713.157c-.33.056-.664.083-.999.08a2.586 2.586 0 0 1-.943-.165 2.078 2.078 0 0 1-.713-.475 2.013 2.013 0 0 1-.451-.762 2.811 2.811 0 0 1-.161-.987 3.242 3.242 0 0 1 .133-.959c.082-.273.219-.526.403-.745a1.75 1.75 0 0 1 .636-.487c.273-.122.568-.182.866-.178.236-.003.47.032.693.105.157.051.309.119.452.201l-.008-2.288Zm0 3.046a1.639 1.639 0 0 0-.428-.234 1.605 1.605 0 0 0-.612-.117 1.299 1.299 0 0 0-.596.13c-.161.08-.3.199-.403.346-.11.159-.187.338-.226.528a2.811 2.811 0 0 0-.072.652c-.022.44.122.87.403 1.209a1.334 1.334 0 0 0 1.043.427c.185.003.369-.007.552-.028a2.6 2.6 0 0 0 .347-.065l-.008-2.848ZM150.119 34c.251.014.502-.03.733-.13a.447.447 0 0 0 .242-.402.568.568 0 0 0-.238-.472c-.24-.166-.5-.301-.774-.403a11.692 11.692 0 0 1-.499-.213 1.677 1.677 0 0 1-.403-.258 1.145 1.145 0 0 1-.278-.355 1.265 1.265 0 0 1 .338-1.466 1.891 1.891 0 0 1 1.209-.355c.128 0 .256.008.383.024.129 0 .246.029.354.049.109.02.21.044.294.068l.194.06-.153.698a1.946 1.946 0 0 0-.403-.145 2.672 2.672 0 0 0-.669-.073 1.256 1.256 0 0 0-.592.133.44.44 0 0 0-.254.403c-.001.09.018.18.056.262a.67.67 0 0 0 .174.201c.09.07.189.128.294.174.117.052.254.104.403.165.149.06.402.161.572.238.156.07.301.162.431.273.119.104.213.234.274.38.069.172.101.357.096.543a1.081 1.081 0 0 1-.467.95c-.4.239-.861.35-1.325.323a3.581 3.581 0 0 1-.943-.1 4.876 4.876 0 0 1-.46-.154l.15-.697c.092.037.237.09.443.158.264.084.54.124.818.12ZM67.195 11.836V2.694h5.87V4.11h-4.21V6.36H72.6v1.386h-3.747v2.679h4.533v1.41h-6.192ZM80.2 11.482c-.31.076-.709.16-1.209.245-.533.085-1.072.127-1.611.125a3.588 3.588 0 0 1-1.39-.238 2.264 2.264 0 0 1-.899-.66 2.562 2.562 0 0 1-.495-1.012c-.1-.42-.15-.852-.145-1.285V4.793h1.611V8.42a2.905 2.905 0 0 0 .323 1.583 1.27 1.27 0 0 0 1.128.475c.193 0 .403 0 .612-.028.163-.01.324-.031.484-.064V4.793h1.611l-.02 6.689ZM86.082 6.377a4.949 4.949 0 0 0-.548-.141 4.03 4.03 0 0 0-.805-.073c-.188.002-.376.02-.56.057-.136.02-.271.05-.403.088v5.528h-1.612V5.269a8.426 8.426 0 0 1 1.156-.322 6.978 6.978 0 0 1 1.535-.154c.11 0 .23 0 .371.02s.282.029.423.053c.136.02.27.047.403.08.108.022.214.05.318.085l-.278 1.346ZM93.629 8.21a4.486 4.486 0 0 1-.238 1.49 3.312 3.312 0 0 1-.665 1.149c-.294.316-.65.567-1.047.737a3.38 3.38 0 0 1-1.354.266 3.315 3.315 0 0 1-1.346-.266 3.105 3.105 0 0 1-1.043-.737c-.3-.334-.53-.724-.677-1.148a4.287 4.287 0 0 1-.246-1.491 4.223 4.223 0 0 1 .246-1.483c.148-.423.381-.813.685-1.144a3.03 3.03 0 0 1 1.047-.73 3.59 3.59 0 0 1 2.671 0c.405.162.768.411 1.064.73.3.333.53.722.677 1.144.163.477.24.98.226 1.483Zm-1.636 0a2.69 2.69 0 0 0-.443-1.612 1.567 1.567 0 0 0-2.466 0 2.692 2.692 0 0 0-.443 1.612c-.031.582.124 1.16.443 1.648a1.555 1.555 0 0 0 2.466 0 2.747 2.747 0 0 0 .443-1.648ZM101.412 8.395c.006.492-.063.98-.205 1.45a3.39 3.39 0 0 1-.588 1.137 2.63 2.63 0 0 1-.955.737c-.41.182-.854.271-1.301.262a3.33 3.33 0 0 1-1.567-.383v2.68h-1.612V5.164c.322-.088.725-.173 1.208-.254.497-.079 1-.118 1.503-.116a4.06 4.06 0 0 1 1.463.25c.415.157.792.403 1.104.72.32.321.568.707.725 1.133.162.482.238.99.225 1.498Zm-1.635.025a2.563 2.563 0 0 0-.484-1.66 1.87 1.87 0 0 0-1.55-.597h-.468a3.223 3.223 0 0 0-.48.085v3.948c.175.113.363.204.56.27.24.085.492.128.746.125a1.427 1.427 0 0 0 1.273-.596 2.82 2.82 0 0 0 .403-1.575ZM102.597 8.283c-.013-.55.08-1.097.274-1.612.162-.428.412-.818.733-1.144a2.984 2.984 0 0 1 1.028-.69 3.22 3.22 0 0 1 1.188-.229 2.844 2.844 0 0 1 2.216.883c.537.59.806 1.47.806 2.639v.298c0 .108 0 .21-.02.298h-4.573a1.811 1.811 0 0 0 .584 1.285c.432.33.969.491 1.511.455.357.003.714-.032 1.064-.104.258-.053.512-.128.757-.226l.214 1.305a2.114 2.114 0 0 1-.367.137 5.01 5.01 0 0 1-.528.133 6.708 6.708 0 0 1-1.337.141 4.232 4.232 0 0 1-1.584-.274 2.906 2.906 0 0 1-1.108-.75 3.117 3.117 0 0 1-.657-1.135 4.644 4.644 0 0 1-.201-1.41Zm4.633-.734a2.13 2.13 0 0 0-.092-.624 1.624 1.624 0 0 0-.27-.516 1.338 1.338 0 0 0-.443-.342 1.395 1.395 0 0 0-.617-.125 1.421 1.421 0 0 0-.645.137c-.179.087-.338.21-.467.362-.13.152-.232.327-.298.516-.072.191-.121.39-.145.592h2.977ZM112.73 4.656c.452-.012.904.055 1.333.198.329.11.626.299.863.552.219.247.378.542.463.862.095.363.141.737.137 1.112v4.166a21.39 21.39 0 0 1-1.116.193c-.557.078-1.118.116-1.68.113a4.962 4.962 0 0 1-1.136-.12 2.314 2.314 0 0 1-.875-.383 1.79 1.79 0 0 1-.568-.685 2.371 2.371 0 0 1-.205-1.044 2.011 2.011 0 0 1 .229-1.003c.153-.27.369-.498.629-.665.28-.177.59-.303.915-.37a5.361 5.361 0 0 1 1.643-.077c.209.023.417.06.621.109v-.262a2.236 2.236 0 0 0-.065-.528 1.15 1.15 0 0 0-.233-.443 1.074 1.074 0 0 0-.435-.294 1.913 1.913 0 0 0-.677-.105 6.138 6.138 0 0 0-1.02.077c-.254.04-.505.102-.749.185l-.197-1.293c.288-.091.583-.162.882-.21.41-.064.826-.093 1.241-.085Zm.141 5.927c.375.01.75-.016 1.12-.076v-1.77a3.188 3.188 0 0 0-.383-.08 3.871 3.871 0 0 0-.556-.04 4.042 4.042 0 0 0-.532.04 1.775 1.775 0 0 0-.487.145.9.9 0 0 0-.371.286.807.807 0 0 0-.133.48.85.85 0 0 0 .359.806c.302.16.642.232.983.209ZM117.399 5.164a10.479 10.479 0 0 1 2.821-.37c.48-.014.959.064 1.41.23.353.135.666.358.91.648.237.291.402.633.484 1 .097.42.144.852.141 1.284v3.876h-1.612V8.206a5.223 5.223 0 0 0-.072-.943 1.656 1.656 0 0 0-.238-.632.969.969 0 0 0-.435-.363 1.925 1.925 0 0 0-.689-.113 5.884 5.884 0 0 0-.637.04l-.487.073v5.568h-1.612l.016-6.672ZM131.634 11.852a4.308 4.308 0 0 1-1.612-.274 2.928 2.928 0 0 1-1.112-.757 3.083 3.083 0 0 1-.653-1.148 4.722 4.722 0 0 1-.213-1.45V2.508h1.676v5.556c-.007.36.039.718.137 1.064.078.266.216.511.403.717a1.5 1.5 0 0 0 .604.403 2.2 2.2 0 0 0 .806.133c.274.005.548-.04.806-.133.235-.083.446-.221.616-.403a1.88 1.88 0 0 0 .403-.717 3.64 3.64 0 0 0 .137-1.064V2.509h1.676v5.713c.006.492-.068.982-.217 1.45a3.108 3.108 0 0 1-.661 1.149c-.31.337-.695.597-1.124.757a4.404 4.404 0 0 1-1.672.274ZM137.226 5.164a10.477 10.477 0 0 1 2.82-.37 3.78 3.78 0 0 1 1.41.23c.352.136.664.359.907.648.238.29.405.633.487.999.097.421.145.853.141 1.285v3.876h-1.611V8.206a5.224 5.224 0 0 0-.073-.943 1.731 1.731 0 0 0-.237-.632.968.968 0 0 0-.452-.359 1.933 1.933 0 0 0-.693-.113 5.858 5.858 0 0 0-.632.04l-.488.065v5.572h-1.611l.032-6.672ZM146.646 2.92a.922.922 0 0 1-.29.713 1 1 0 0 1-.689.262 1.009 1.009 0 0 1-.697-.262.918.918 0 0 1-.27-.713.932.932 0 0 1 .29-.725.999.999 0 0 1 .697-.266.989.989 0 0 1 .689.266.928.928 0 0 1 .27.725Zm-.174 8.916h-1.611V4.94h1.611v6.897ZM154.663 8.21a4.393 4.393 0 0 1-.237 1.49 3.334 3.334 0 0 1-.673 1.149c-.293.317-.65.569-1.048.737a3.345 3.345 0 0 1-1.349.266 3.3 3.3 0 0 1-1.346-.266 3.077 3.077 0 0 1-1.044-.737 3.48 3.48 0 0 1-.681-1.148 4.37 4.37 0 0 1-.241-1.491 4.324 4.324 0 0 1 .241-1.483c.15-.424.385-.813.689-1.144.293-.315.65-.564 1.048-.73a3.336 3.336 0 0 1 1.334-.257c.458-.005.913.082 1.337.258a2.96 2.96 0 0 1 1.048.73c.299.333.53.721.681 1.143.166.477.248.978.241 1.483Zm-1.635 0a2.691 2.691 0 0 0-.44-1.612 1.568 1.568 0 0 0-2.469 0 2.691 2.691 0 0 0-.44 1.612 2.745 2.745 0 0 0 .44 1.648 1.552 1.552 0 0 0 1.235.607 1.563 1.563 0 0 0 1.234-.607 2.745 2.745 0 0 0 .44-1.648ZM156.235 5.164a10.466 10.466 0 0 1 2.82-.37c.48-.014.959.064 1.41.23.352.136.664.359.906.648.238.29.405.633.488.999.097.421.144.853.141 1.285v3.876h-1.612V8.206a5.134 5.134 0 0 0-.072-.943 1.656 1.656 0 0 0-.238-.632.966.966 0 0 0-.451-.359 1.933 1.933 0 0 0-.693-.113 5.876 5.876 0 0 0-.633.04l-.487.065v5.572h-1.612l.033-6.672Z" fill="#000"/></svg>