<svg width="162" height="38" viewBox="0 0 162 38" fill="none" xmlns="http://www.w3.org/2000/svg">
<g clip-path="url(#clip0_89_4624)">
<path d="M54.8221 0.713867H0V37.2646H54.8221V0.713867Z" fill="#164194"/>
<path d="M26.2446 8.67867L27.4009 7.83662L28.5572 8.67867L28.1181 7.31285L29.2945 6.4708H27.8441L27.4009 5.08887L26.9618 6.4708H25.5073L26.6798 7.31285L26.2446 8.67867Z" fill="#FFED00"/>
<path d="M20.2535 10.2862L21.4139 9.44013L22.5702 10.2862L22.131 8.9204L23.3035 8.07432H21.8571L21.4139 6.69238L20.9707 8.08237L19.5243 8.07432L20.6967 8.9204L20.2535 10.2862Z" fill="#FFED00"/>
<path d="M17.0305 11.085L16.5913 12.4709L15.1409 12.4669L16.3133 13.313L15.8741 14.6788L17.0305 13.8367L18.1908 14.6788L17.7516 13.313L18.9281 12.4669H17.4777L17.0305 11.085Z" fill="#FFED00"/>
<path d="M15.4269 19.8072L16.5792 20.6573L16.1401 19.2915L17.3165 18.4454H15.8701L15.4269 17.0635L14.9797 18.4494L13.5333 18.4454L14.7058 19.2915L14.2706 20.6573L15.4269 19.8072Z" fill="#FFED00"/>
<path d="M17.4777 24.4444L17.0305 23.0625L16.5913 24.4444H15.1409L16.3133 25.2905L15.8741 26.6523L17.0305 25.8062L18.1908 26.6523L17.7476 25.2905L18.9281 24.4444H17.4777Z" fill="#FFED00"/>
<path d="M21.8651 28.8321L21.4219 27.4502L20.9747 28.8362L19.5283 28.8321L20.7048 29.6782L20.2656 31.04L21.4219 30.1979L22.5823 31.04L22.1391 29.6782L23.3155 28.8321H21.8651Z" fill="#FFED00"/>
<path d="M27.8441 30.419L27.4009 29.0371L26.9618 30.419H25.5073L26.6838 31.2651L26.2446 32.6309L27.4009 31.7849L28.5613 32.6309L28.1141 31.2651L29.2986 30.419H27.8441Z" fill="#FFED00"/>
<path d="M33.8231 28.8321L33.3799 27.4502L32.9327 28.8362L31.4904 28.8321L32.6628 29.6782L32.2236 31.04L33.3799 30.1979L34.5362 31.04L34.0971 29.6782L35.2776 28.8321H33.8231Z" fill="#FFED00"/>
<path d="M38.2147 24.4444L37.7675 23.0625L37.3284 24.4444H35.882L37.0544 25.2905L36.6112 26.6523L37.7675 25.8062L38.9279 26.6523L38.4847 25.2905L39.6652 24.4444H38.2147Z" fill="#FFED00"/>
<path d="M41.2485 18.4289H39.8021L39.363 17.043L38.9117 18.4289H37.4694L38.6458 19.275L38.1986 20.6368L39.363 19.7947L40.5193 20.6368L40.0761 19.275L41.2485 18.4289Z" fill="#FFED00"/>
<path d="M36.6112 14.6543L37.7715 13.8162L38.9279 14.6543L38.4887 13.2925L39.6652 12.4504H38.2147L37.7715 11.0645L37.3284 12.4544L35.882 12.4504L37.0544 13.2925L36.6112 14.6543Z" fill="#FFED00"/>
<path d="M33.3961 6.69238L32.9569 8.08237L31.5065 8.07835L32.6829 8.9204L32.2438 10.2902L33.4041 9.44013L34.5564 10.2902L34.1172 8.9204L35.2897 8.07835H33.8433L33.3961 6.69238Z" fill="#FFED00"/>
<path d="M67.062 24.5093V18.4658H70.7445V19.187H67.9041V20.9799H70.4302V21.685H67.9041V23.776H70.962V24.4972L67.062 24.5093Z" fill="white"/>
<path d="M75.3738 24.2833C75.1885 24.3316 74.9427 24.38 74.6405 24.4324C74.2901 24.4873 73.9356 24.5129 73.5809 24.5089C73.2807 24.5188 72.9817 24.4667 72.7026 24.3558C72.4738 24.2651 72.2725 24.1165 72.1184 23.9247C71.9686 23.7303 71.8615 23.5066 71.8041 23.268C71.7421 22.993 71.7124 22.7118 71.7155 22.43V19.8877H72.5213V22.2527C72.4867 22.6644 72.5765 23.0771 72.7791 23.4372C72.8857 23.5646 73.0218 23.6639 73.1757 23.7264C73.3295 23.7889 73.4963 23.8127 73.6615 23.7958H73.9314C74.0241 23.7958 74.1087 23.7958 74.1933 23.7716L74.4149 23.7474C74.4631 23.7428 74.5105 23.732 74.5559 23.7152V19.8877H75.3617L75.3738 24.2833Z" fill="white"/>
<path d="M78.3955 19.8881H78.6332C78.7224 19.8957 78.8111 19.9078 78.8991 19.9243C78.9877 19.9243 79.0683 19.9525 79.1408 19.9687C79.1954 19.9767 79.2492 19.9889 79.302 20.0049L79.161 20.71C79.0965 20.71 78.9918 20.6616 78.8427 20.6294C78.6555 20.5935 78.4651 20.5773 78.2746 20.5811C78.1229 20.581 77.9716 20.5972 77.8234 20.6294L77.5333 20.6939V24.4972H76.7275V20.1741C76.9609 20.0947 77.1991 20.0301 77.4406 19.9807C77.7545 19.9149 78.0747 19.8839 78.3955 19.8881Z" fill="white"/>
<path d="M84.036 22.1397C84.0409 22.4714 83.9877 22.8013 83.8789 23.1147C83.783 23.3908 83.6338 23.6454 83.4398 23.8641C83.2526 24.0715 83.0232 24.2363 82.7669 24.3475C82.2198 24.5732 81.6057 24.5732 81.0586 24.3475C80.8012 24.2384 80.5714 24.0732 80.3858 23.8641C80.1904 23.6465 80.041 23.3915 79.9466 23.1147C79.7371 22.4843 79.7371 21.8031 79.9466 21.1727C80.039 20.8938 80.1886 20.6371 80.3858 20.4193C80.5714 20.2102 80.8012 20.045 81.0586 19.9358C81.6057 19.7102 82.2198 19.7102 82.7669 19.9358C83.0232 20.047 83.2526 20.2119 83.4398 20.4193C83.6356 20.6382 83.785 20.8945 83.8789 21.1727C83.9867 21.4835 84.0399 21.8107 84.036 22.1397ZM83.19 22.1397C83.2126 21.71 83.0921 21.2849 82.8475 20.931C82.7341 20.7927 82.5915 20.6813 82.4298 20.6048C82.2682 20.5283 82.0916 20.4886 81.9128 20.4886C81.734 20.4886 81.5574 20.5283 81.3957 20.6048C81.2341 20.6813 81.0914 20.7927 80.9781 20.931C80.7542 21.2944 80.6357 21.7128 80.6357 22.1397C80.6357 22.5665 80.7542 22.9849 80.9781 23.3484C81.0914 23.4867 81.2341 23.5981 81.3957 23.6746C81.5574 23.7511 81.734 23.7907 81.9128 23.7907C82.0916 23.7907 82.2682 23.7511 82.4298 23.6746C82.5915 23.5981 82.7341 23.4867 82.8475 23.3484C83.0919 22.9943 83.2123 22.5693 83.19 22.1397Z" fill="white"/>
<path d="M89.1206 22.2531C89.1243 22.5753 89.0781 22.896 88.9836 23.204C88.9006 23.4781 88.7636 23.7329 88.5807 23.9534C88.4071 24.1625 88.188 24.3293 87.9401 24.4409C87.6677 24.562 87.3719 24.6212 87.0739 24.6141C86.84 24.6175 86.6072 24.5821 86.3849 24.5094C86.2272 24.4599 86.0758 24.3923 85.9337 24.3079V26.1209H85.1279V20.1218C85.3213 20.0775 85.559 20.0251 85.8491 19.9687C86.1777 19.9121 86.5107 19.8851 86.8442 19.8881C87.1649 19.882 87.4837 19.9381 87.783 20.0533C88.054 20.1554 88.2989 20.3164 88.5001 20.5247C88.7031 20.7356 88.8596 20.9868 88.9594 21.262C89.072 21.5801 89.1266 21.9158 89.1206 22.2531ZM88.2745 22.2531C88.2994 21.8136 88.1553 21.3811 87.8716 21.0445C87.7391 20.9018 87.5771 20.7897 87.3969 20.716C87.2167 20.6422 87.0226 20.6086 86.8281 20.6174C86.637 20.6138 86.4458 20.6232 86.256 20.6456C86.1457 20.6566 86.0365 20.6768 85.9296 20.706V23.5585C86.0593 23.6586 86.2033 23.7387 86.3567 23.7962C86.5501 23.8734 86.7569 23.9117 86.9651 23.909C87.1708 23.9135 87.3748 23.8708 87.5614 23.7841C87.7223 23.702 87.8607 23.5817 87.9643 23.4336C88.073 23.277 88.1497 23.1003 88.1899 22.9139C88.2443 22.6978 88.2727 22.476 88.2745 22.2531Z" fill="white"/>
<path d="M89.9626 22.1523C89.9555 21.7938 90.0157 21.4371 90.1399 21.1008C90.2426 20.8246 90.3987 20.5714 90.5992 20.3554C90.7859 20.1629 91.011 20.0119 91.2599 19.9122C91.5052 19.8165 91.7662 19.7673 92.0295 19.7672C92.2902 19.7506 92.5514 19.7931 92.7934 19.8914C93.0355 19.9898 93.2522 20.1415 93.4275 20.3353C93.7902 20.8367 93.963 21.4507 93.915 22.0677V22.2047C93.9193 22.2543 93.9193 22.3042 93.915 22.3538H90.8167C90.82 22.7474 90.9628 23.1271 91.2196 23.4255C91.3705 23.5587 91.5469 23.6598 91.738 23.7229C91.9292 23.7859 92.1311 23.8094 92.3316 23.7921C92.574 23.7966 92.8161 23.7722 93.0528 23.7196C93.2014 23.6825 93.3468 23.634 93.4879 23.5745L93.6048 24.2554C93.437 24.3264 93.263 24.3817 93.085 24.4206C92.8084 24.4802 92.5259 24.5085 92.243 24.5052C91.895 24.5125 91.5488 24.4523 91.2237 24.328C90.9526 24.2209 90.71 24.0527 90.5146 23.8364C90.3289 23.6193 90.1916 23.3653 90.1117 23.0911C90.0151 22.7874 89.9648 22.4709 89.9626 22.1523ZM93.0689 21.7051C93.0874 21.3826 92.9903 21.064 92.795 20.8066C92.7022 20.6897 92.583 20.5965 92.447 20.5348C92.3111 20.4732 92.1624 20.4448 92.0133 20.4521C91.8432 20.449 91.6747 20.4863 91.5218 20.5609C91.3851 20.6308 91.2633 20.7266 91.1632 20.8429C91.0615 20.9619 90.9823 21.0984 90.9295 21.2458C90.8777 21.3948 90.8412 21.5487 90.8208 21.7051H93.0689Z" fill="white"/>
<path d="M96.5017 19.7826C96.7755 19.7764 97.0483 19.8187 97.3075 19.9075C97.5146 19.9799 97.7003 20.1032 97.8473 20.2661C97.9863 20.4236 98.087 20.6112 98.1414 20.8141C98.2 21.0431 98.2284 21.2787 98.2261 21.5151V24.3354L97.936 24.3837C97.8111 24.3837 97.6701 24.424 97.5129 24.4401L97.0053 24.4885C96.8199 24.4885 96.6386 24.4885 96.4614 24.4885C96.2241 24.4914 95.9874 24.4657 95.7563 24.4119C95.5561 24.3668 95.367 24.2818 95.2003 24.1621C95.0408 24.048 94.9143 23.8937 94.8337 23.7149C94.7402 23.5046 94.6947 23.2762 94.7007 23.0461C94.6949 22.8216 94.7477 22.5994 94.8538 22.4015C94.9483 22.2241 95.0871 22.0742 95.2567 21.9663C95.4431 21.8486 95.6492 21.7653 95.8651 21.7206C96.1046 21.6682 96.3492 21.6425 96.5943 21.644H96.8482C96.932 21.6516 97.0154 21.6637 97.0979 21.6803L97.3034 21.7165L97.4243 21.7447V21.5191C97.4238 21.3836 97.4089 21.2486 97.38 21.1162C97.3535 20.9906 97.2999 20.8724 97.2228 20.7697C97.1415 20.6633 97.0348 20.5788 96.9126 20.524C96.7517 20.4583 96.5786 20.428 96.405 20.4353C96.17 20.4314 95.9352 20.4503 95.7039 20.4917C95.5513 20.5155 95.4015 20.5546 95.2567 20.6086L95.16 19.9398C95.3289 19.8744 95.5046 19.8285 95.6838 19.8028C95.9552 19.7709 96.229 19.7641 96.5017 19.7826ZM96.5742 23.8398C96.7622 23.8398 96.9314 23.8398 97.0818 23.8398C97.2062 23.8308 97.33 23.8147 97.4525 23.7915V22.4297C97.3624 22.3915 97.2675 22.3658 97.1705 22.3531C96.8841 22.3181 96.5946 22.3181 96.3083 22.3531C96.1788 22.3711 96.0526 22.4077 95.9336 22.4619C95.8235 22.5163 95.7261 22.5932 95.6475 22.6875C95.5696 22.7981 95.53 22.9311 95.5347 23.0662C95.5218 23.1837 95.5413 23.3025 95.591 23.4097C95.6407 23.5169 95.7188 23.6085 95.8167 23.6746C96.0495 23.7976 96.3114 23.8547 96.5742 23.8398Z" fill="white"/>
<path d="M99.5394 20.1137C99.7248 20.0654 99.9746 20.0171 100.281 19.9647C100.633 19.9096 100.988 19.884 101.344 19.8881C101.65 19.8773 101.954 19.9294 102.239 20.0412C102.461 20.1295 102.658 20.2722 102.811 20.4562C102.958 20.6517 103.06 20.8774 103.109 21.117C103.171 21.3933 103.201 21.6758 103.198 21.959V24.5013H102.392V22.1403C102.394 21.9014 102.376 21.6627 102.336 21.4272C102.307 21.2559 102.242 21.0926 102.146 20.9477C102.061 20.8264 101.94 20.7348 101.8 20.6859C101.626 20.6249 101.443 20.5962 101.26 20.6013H100.99H100.724L100.498 20.6335L100.353 20.6617V24.4811H99.5475L99.5394 20.1137Z" fill="white"/>
<path d="M107.916 23.7794C108.798 23.7794 109.237 23.4772 109.237 22.8729C109.244 22.7066 109.203 22.5418 109.12 22.3975C109.038 22.2641 108.93 22.149 108.802 22.059C108.66 21.9591 108.507 21.8753 108.347 21.8092L107.803 21.6037C107.589 21.529 107.379 21.4429 107.174 21.3459C106.988 21.257 106.816 21.1416 106.663 21.0034C106.516 20.8745 106.399 20.7168 106.316 20.5401C106.23 20.3336 106.187 20.1113 106.191 19.8874C106.18 19.6535 106.222 19.4201 106.316 19.2055C106.41 18.9909 106.552 18.8009 106.731 18.6505C107.16 18.3317 107.688 18.1748 108.222 18.2073C108.557 18.2026 108.892 18.2418 109.217 18.3242C109.448 18.3751 109.67 18.4621 109.874 18.582L109.604 19.267C109.432 19.1718 109.249 19.0974 109.06 19.0454C108.787 18.9686 108.505 18.932 108.222 18.9366C108.069 18.9367 107.916 18.9542 107.767 18.989C107.637 19.0215 107.513 19.0746 107.4 19.1461C107.298 19.2141 107.214 19.3053 107.154 19.412C107.091 19.5281 107.059 19.6586 107.062 19.7907C107.058 19.9311 107.091 20.07 107.158 20.1936C107.227 20.308 107.319 20.4068 107.428 20.4837C107.554 20.574 107.689 20.6509 107.831 20.7134C107.988 20.7859 108.157 20.8544 108.343 20.9229C108.605 21.0276 108.842 21.1324 109.06 21.2371C109.266 21.3346 109.457 21.4607 109.628 21.6118C109.785 21.7558 109.91 21.9316 109.995 22.1275C110.089 22.3587 110.134 22.6071 110.128 22.8568C110.138 23.0905 110.091 23.3233 109.99 23.5342C109.889 23.7452 109.737 23.9277 109.547 24.0654C109.069 24.374 108.505 24.5235 107.936 24.4925C107.716 24.4938 107.496 24.4776 107.279 24.4442C107.098 24.4169 106.92 24.3792 106.743 24.3314C106.606 24.2935 106.472 24.2478 106.34 24.1944C106.228 24.142 106.139 24.1017 106.078 24.0654L106.328 23.3684C106.523 23.4708 106.727 23.5557 106.937 23.6223C107.253 23.726 107.583 23.779 107.916 23.7794Z" fill="white"/>
<path d="M111.808 19.8795H113.52V20.5564H111.808V22.6474C111.803 22.8355 111.821 23.0234 111.86 23.2074C111.883 23.3334 111.935 23.4522 112.013 23.5539C112.082 23.6371 112.173 23.6998 112.275 23.7352C112.394 23.7726 112.517 23.7903 112.642 23.7876C112.841 23.7945 113.04 23.7658 113.23 23.703L113.54 23.5861L113.697 24.259C113.558 24.3182 113.416 24.368 113.27 24.408C113.044 24.4722 112.809 24.5034 112.573 24.5007C112.314 24.5077 112.056 24.4681 111.812 24.3839C111.621 24.312 111.454 24.1894 111.328 24.0293C111.2 23.8589 111.112 23.6621 111.07 23.4532C111.018 23.1878 110.994 22.9178 110.998 22.6474V18.6184L111.804 18.4814L111.808 19.8795Z" fill="white"/>
<path d="M116.175 19.8881H116.417L116.683 19.9244L116.92 19.9687C116.975 19.9768 117.029 19.9889 117.082 20.005L116.941 20.71C116.88 20.71 116.771 20.6617 116.626 20.6294C116.438 20.5936 116.246 20.5774 116.054 20.5811C115.904 20.5812 115.754 20.5974 115.607 20.6294L115.313 20.6939V24.4972H114.507V20.1742C114.742 20.0942 114.981 20.0296 115.224 19.9808C115.537 19.9148 115.856 19.8837 116.175 19.8881Z" fill="white"/>
<path d="M121.425 24.2833C121.239 24.3316 120.994 24.38 120.692 24.4324C120.341 24.4875 119.987 24.5131 119.632 24.5089C119.332 24.5188 119.033 24.4667 118.754 24.3558C118.528 24.2639 118.329 24.1154 118.177 23.9247C118.027 23.731 117.922 23.5069 117.867 23.268C117.8 22.9938 117.768 22.7122 117.771 22.43V19.8877H118.576V22.2527C118.545 22.6667 118.642 23.0805 118.854 23.4372C118.96 23.5645 119.095 23.6638 119.249 23.7264C119.402 23.7889 119.568 23.8128 119.733 23.7958H120.003C120.095 23.7958 120.18 23.7958 120.264 23.7716L120.486 23.7474C120.534 23.7428 120.582 23.732 120.627 23.7152V19.8877H121.433L121.425 24.2833Z" fill="white"/>
<path d="M124.741 24.5166C124.413 24.524 124.086 24.4651 123.782 24.3434C123.516 24.2349 123.278 24.0683 123.085 23.8559C122.892 23.6407 122.748 23.3865 122.662 23.1105C122.565 22.8029 122.518 22.4821 122.521 22.1597C122.518 21.8337 122.569 21.5096 122.674 21.2008C122.769 20.9272 122.915 20.6742 123.105 20.4555C123.295 20.243 123.529 20.074 123.79 19.9599C124.075 19.8372 124.382 19.7767 124.692 19.7826C124.896 19.7822 125.1 19.7997 125.301 19.835C125.5 19.8672 125.695 19.9227 125.881 20.0002L125.7 20.6851C125.564 20.6245 125.422 20.5786 125.277 20.5481C125.11 20.5115 124.94 20.4939 124.769 20.4957C124.575 20.483 124.38 20.5148 124.2 20.5888C124.019 20.6628 123.859 20.7771 123.729 20.9228C123.464 21.2811 123.335 21.7228 123.367 22.1678C123.365 22.3935 123.393 22.6185 123.451 22.8366C123.499 23.0275 123.587 23.206 123.709 23.3603C123.834 23.5067 123.991 23.6213 124.169 23.6947C124.384 23.7774 124.614 23.8171 124.845 23.8116C125.042 23.8137 125.238 23.7935 125.43 23.7511C125.567 23.7202 125.702 23.677 125.833 23.6222L125.945 24.2991C125.881 24.3345 125.814 24.3629 125.744 24.3837C125.659 24.4079 125.559 24.432 125.45 24.4522L125.095 24.5046C124.978 24.5086 124.857 24.5166 124.741 24.5166Z" fill="white"/>
<path d="M127.537 19.8795H129.253V20.5564H127.537V22.6474C127.532 22.8355 127.55 23.0234 127.589 23.2074C127.614 23.3334 127.668 23.4519 127.746 23.5539C127.815 23.6379 127.905 23.7008 128.008 23.7352C128.125 23.7727 128.248 23.7904 128.371 23.7876C128.57 23.7948 128.77 23.7662 128.959 23.703L129.269 23.5861L129.426 24.259C129.288 24.3188 129.145 24.3687 128.999 24.408C128.773 24.4727 128.538 24.504 128.302 24.5007C128.043 24.5077 127.786 24.4681 127.541 24.3839C127.35 24.312 127.183 24.1894 127.057 24.0293C126.931 23.8586 126.844 23.6618 126.803 23.4532C126.748 23.1883 126.722 22.918 126.727 22.6474V18.6184L127.533 18.4814L127.537 19.8795Z" fill="white"/>
<path d="M133.838 24.2833C133.653 24.3316 133.411 24.38 133.105 24.4324C132.754 24.4875 132.4 24.5131 132.045 24.5089C131.745 24.5188 131.446 24.4667 131.167 24.3558C130.942 24.2628 130.743 24.1145 130.591 23.9247C130.444 23.7291 130.338 23.5057 130.28 23.268C130.213 22.9938 130.181 22.7122 130.184 22.43V19.8877H130.989V22.2527C130.953 22.6651 131.044 23.0787 131.251 23.4372C131.357 23.5645 131.492 23.6638 131.646 23.7264C131.799 23.7889 131.965 23.8128 132.13 23.7958H132.4C132.492 23.7958 132.581 23.7958 132.661 23.7716L132.883 23.7474C132.931 23.7428 132.979 23.732 133.024 23.7152V19.8877H133.83L133.838 24.2833Z" fill="white"/>
<path d="M136.86 19.8881H137.102L137.367 19.9243L137.605 19.9687C137.66 19.9767 137.714 19.9889 137.766 20.0049L137.625 20.71C137.561 20.71 137.456 20.6616 137.307 20.6294C137.12 20.5933 136.929 20.5771 136.739 20.5811C136.589 20.581 136.439 20.5972 136.292 20.6294L135.998 20.6939V24.4972H135.192V20.1741C135.425 20.0947 135.663 20.0301 135.905 19.9807C136.219 19.9149 136.539 19.8839 136.86 19.8881Z" fill="white"/>
<path d="M139.97 19.7832C140.244 19.7776 140.517 19.8199 140.776 19.9081C140.982 19.9826 141.167 20.1056 141.316 20.2667C141.455 20.4234 141.555 20.6113 141.606 20.8146C141.666 21.0434 141.696 21.2791 141.694 21.5157V24.3359L141.4 24.3843C141.275 24.3843 141.134 24.4246 140.997 24.4407L140.486 24.489C140.305 24.489 140.123 24.489 139.942 24.489C139.705 24.4917 139.468 24.466 139.237 24.4125C139.037 24.3653 138.849 24.2806 138.681 24.1627C138.522 24.0475 138.396 23.8935 138.314 23.7155C138.229 23.5129 138.188 23.2946 138.193 23.0749C138.186 22.8507 138.238 22.6286 138.342 22.4302C138.438 22.254 138.577 22.1044 138.745 21.9951C138.932 21.878 139.138 21.7948 139.354 21.7493C139.595 21.6967 139.84 21.6711 140.087 21.6728H140.337C140.421 21.6801 140.504 21.6922 140.587 21.7091L140.792 21.7453L140.913 21.7735V21.5479C140.912 21.4124 140.897 21.2774 140.869 21.145C140.842 21.0194 140.788 20.9011 140.711 20.7985C140.632 20.6919 140.527 20.6073 140.405 20.5527C140.243 20.4874 140.068 20.4572 139.894 20.4641C139.659 20.4601 139.424 20.479 139.193 20.5205C139.04 20.5453 138.89 20.5845 138.745 20.6374L138.649 19.9685C138.817 19.9032 138.993 19.8572 139.172 19.8316C139.436 19.7915 139.703 19.7753 139.97 19.7832ZM140.039 23.8404C140.228 23.8404 140.401 23.8404 140.546 23.8404C140.671 23.8317 140.794 23.8155 140.917 23.792V22.4302C140.827 22.3915 140.732 22.3657 140.635 22.3537C140.477 22.3326 140.318 22.3231 140.159 22.3255C140.025 22.3254 139.89 22.3334 139.757 22.3497C139.633 22.3733 139.514 22.414 139.402 22.4705C139.293 22.525 139.197 22.6019 139.12 22.6961C139.04 22.8059 139.001 22.9395 139.007 23.0749C138.995 23.1909 139.014 23.308 139.062 23.4142C139.11 23.5204 139.186 23.6119 139.281 23.6792C139.514 23.8004 139.776 23.8561 140.039 23.8404Z" fill="white"/>
<path d="M144.366 24.5091C143.984 24.5372 143.604 24.4223 143.302 24.1868C143.188 24.0585 143.102 23.9085 143.048 23.7457C142.994 23.5829 142.973 23.4109 142.988 23.24V17.805L143.794 17.668V23.1071C143.791 23.2183 143.803 23.3294 143.83 23.4374C143.848 23.516 143.887 23.5883 143.943 23.6469C144.001 23.7038 144.073 23.7441 144.152 23.7638C144.258 23.795 144.365 23.8179 144.475 23.8323L144.366 24.5091Z" fill="white"/>
<path d="M68.4923 30.4476C68.7664 30.4431 69.0391 30.4868 69.2981 30.5765C69.5039 30.6495 69.6891 30.7712 69.838 30.931C69.9765 31.0883 70.0759 31.276 70.128 31.479C70.1897 31.7075 70.2196 31.9434 70.2167 32.18V35.0003L69.9266 35.0486L69.5036 35.1051L68.9919 35.1494C68.8119 35.1655 68.6306 35.1735 68.448 35.1735C68.2108 35.174 67.9744 35.1484 67.7429 35.097C67.5438 35.0485 67.3554 34.9638 67.1869 34.8472C67.0274 34.7314 66.901 34.5758 66.8203 34.396C66.7293 34.185 66.6853 33.9568 66.6913 33.7271C66.684 33.5025 66.7369 33.2799 66.8444 33.0825C66.9419 32.9072 67.0801 32.758 67.2473 32.6474C67.4363 32.5326 67.6434 32.4509 67.8597 32.4056C68.0991 32.3517 68.3437 32.3246 68.589 32.3251C68.6735 32.3193 68.7583 32.3193 68.8428 32.3251L69.0886 32.3573L69.2941 32.3976L69.4149 32.4218V32.1961C69.4163 32.0608 69.4028 31.9257 69.3746 31.7932C69.3448 31.6676 69.2915 31.5486 69.2175 31.4427C69.1356 31.3378 69.0291 31.2547 68.9073 31.201C68.7452 31.1342 68.5708 31.1026 68.3956 31.1083C68.162 31.1062 67.9288 31.1251 67.6986 31.1647C67.5446 31.1901 67.3934 31.2306 67.2473 31.2856L67.1506 30.6128C67.326 30.5668 67.5055 30.5385 67.6865 30.5282C67.9524 30.479 68.2219 30.452 68.4923 30.4476ZM68.5608 34.5047C68.7542 34.5047 68.9234 34.5047 69.0684 34.5047C69.1932 34.5001 69.3173 34.484 69.4391 34.4564V33.0946C69.3489 33.0576 69.254 33.0332 69.1571 33.0221C68.9996 32.9993 68.8407 32.9886 68.6817 32.9898C68.5469 32.9912 68.4124 33.0006 68.2788 33.018C68.1485 33.0322 68.0217 33.069 67.9041 33.1268C67.7942 33.1797 67.6978 33.2569 67.622 33.3525C67.5419 33.4619 67.502 33.5957 67.5092 33.7312C67.4967 33.8476 67.5159 33.9653 67.5649 34.0717C67.6138 34.1781 67.6906 34.2693 67.7872 34.3355C68.0185 34.4588 68.2788 34.5172 68.5406 34.5047H68.5608Z" fill="white"/>
<path d="M71.51 30.7783C71.6953 30.7354 71.9411 30.687 72.2473 30.6333C72.599 30.5771 72.9548 30.5502 73.311 30.5527C73.6176 30.5439 73.923 30.5959 74.2094 30.7058C74.4325 30.7967 74.6282 30.9438 74.7775 31.1329C74.9234 31.3281 75.0264 31.5519 75.0797 31.7896C75.1386 32.0677 75.1669 32.3514 75.1643 32.6357V35.178H74.3585V32.8089C74.3631 32.57 74.3442 32.3311 74.3021 32.0958C74.2803 31.9258 74.2226 31.7624 74.1329 31.6164C74.0444 31.4955 73.9226 31.4031 73.7823 31.3505C73.6089 31.2907 73.4258 31.2634 73.2425 31.2699C73.1578 31.2699 73.0692 31.2699 72.9725 31.2699H72.7106L72.481 31.3021L72.34 31.3263V35.1498H71.5342L71.51 30.7783Z" fill="white"/>
<path d="M79.3705 28.4574L80.1763 28.3164V34.9602C79.991 35.0112 79.7533 35.0636 79.4632 35.1173C79.1331 35.1736 78.7988 35.2006 78.464 35.1979C78.1422 35.2023 77.8224 35.1463 77.5212 35.0327C77.2603 34.923 77.0245 34.7613 76.8282 34.5573C76.6238 34.3451 76.4684 34.0907 76.373 33.8119C76.2609 33.4951 76.2063 33.1608 76.2118 32.8248C76.2085 32.5004 76.2533 32.1772 76.3448 31.8659C76.4268 31.5926 76.5639 31.3389 76.7477 31.1206C76.9219 30.912 77.1408 30.7454 77.3883 30.6331C77.6607 30.5118 77.9563 30.4513 78.2545 30.4558C78.4897 30.4524 78.7238 30.4878 78.9475 30.5605C79.1036 30.6108 79.2536 30.6784 79.3947 30.762L79.3705 28.4574ZM79.3705 31.5033C79.0705 31.281 78.7084 31.1585 78.3351 31.1528C78.1288 31.1474 77.9244 31.1917 77.7388 31.2817C77.5778 31.362 77.4393 31.4811 77.3359 31.6282C77.2257 31.787 77.1489 31.9666 77.1103 32.156C77.0608 32.37 77.0364 32.5891 77.0377 32.8087C77.0184 33.2475 77.1619 33.678 77.4406 34.0174C77.5741 34.1599 77.7368 34.2719 77.9177 34.3456C78.0985 34.4193 78.2931 34.453 78.4882 34.4445C78.6726 34.447 78.8569 34.4375 79.0401 34.4163C79.1557 34.4031 79.2702 34.3816 79.3826 34.3518L79.3705 31.5033Z" fill="white"/>
<path d="M83.5646 29.1426H84.4107V35.186H83.5646V29.1426Z" fill="white"/>
<path d="M85.8168 30.7783C86.0022 30.7354 86.2479 30.687 86.5541 30.6333C86.9058 30.5771 87.2616 30.5502 87.6178 30.5527C87.9244 30.5439 88.2298 30.5959 88.5162 30.7058C88.7393 30.7967 88.935 30.9438 89.0843 31.1329C89.2302 31.3281 89.3332 31.5519 89.3865 31.7896C89.4454 32.0677 89.4738 32.3514 89.4711 32.6357V35.178H88.6653V32.8089C88.6699 32.57 88.651 32.3311 88.6089 32.0958C88.5822 31.9246 88.519 31.761 88.4236 31.6164C88.3351 31.4955 88.2133 31.4031 88.0731 31.3505C87.9009 31.291 87.7192 31.2637 87.5372 31.2699C87.4486 31.2699 87.3599 31.2699 87.2673 31.2699H87.0013L86.7717 31.3021L86.6307 31.3263V35.1498H85.8249L85.8168 30.7783Z" fill="white"/>
<path d="M94.1608 30.6494C93.9389 31.47 93.6698 32.2771 93.355 33.0668C93.0528 33.8444 92.7547 34.5414 92.4727 35.1578H91.7394C91.4708 34.54 91.1767 33.843 90.8571 33.0668C90.5458 32.2758 90.2768 31.4689 90.0513 30.6494H90.9215C90.994 30.9355 91.0746 31.2376 91.1713 31.56C91.268 31.8823 91.3687 32.2006 91.4775 32.5189C91.5863 32.8371 91.6911 33.1393 91.8039 33.4334C91.9167 33.7275 92.0174 33.9975 92.1141 34.2392C92.2148 34.0096 92.3196 33.7437 92.4284 33.4334C92.5371 33.1232 92.65 32.8331 92.7547 32.5189C92.8595 32.2046 92.9642 31.8823 93.0609 31.56C93.1576 31.2376 93.2382 30.9355 93.3107 30.6494H94.1608Z" fill="white"/>
<path d="M94.5798 32.8163C94.5719 32.4594 94.6306 32.1041 94.7531 31.7688C94.8557 31.4916 95.0133 31.2381 95.2164 31.0234C95.4013 30.8288 95.6269 30.6774 95.8771 30.5802C96.1202 30.4811 96.3802 30.4305 96.6426 30.4311C96.9043 30.4147 97.1664 30.4577 97.4092 30.5567C97.6519 30.6558 97.8692 30.8084 98.0447 31.0033C98.4064 31.5067 98.579 32.1216 98.5322 32.7397V32.8727C98.5322 32.9291 98.5322 32.9815 98.5322 33.0258H95.4299C95.4339 33.4193 95.5766 33.7988 95.8328 34.0975C95.9845 34.2292 96.1611 34.3291 96.3521 34.3914C96.5431 34.4537 96.7446 34.4771 96.9448 34.4601C97.1872 34.4646 97.4293 34.4402 97.666 34.3876C97.816 34.3527 97.9629 34.3055 98.1052 34.2466L98.218 34.9234C98.0518 34.9988 97.8774 35.0542 97.6982 35.0886C97.4231 35.1497 97.142 35.1794 96.8602 35.1773C96.5104 35.1856 96.1625 35.1239 95.8368 34.996C95.5656 34.8893 95.3229 34.721 95.1277 34.5044C94.9436 34.2878 94.8064 34.0354 94.7249 33.7631C94.6296 33.4565 94.5807 33.1374 94.5798 32.8163ZM97.6861 32.3731C97.7063 32.0491 97.609 31.7287 97.4122 31.4706C97.319 31.3554 97.2001 31.2637 97.0651 31.2028C96.93 31.142 96.7826 31.1136 96.6346 31.1201C96.4644 31.1165 96.2958 31.1538 96.143 31.2289C96.0037 31.2963 95.8801 31.3924 95.7804 31.5109C95.6786 31.6291 95.6006 31.7659 95.5508 31.9138C95.4951 32.063 95.4586 32.2187 95.442 32.3771L97.6861 32.3731Z" fill="white"/>
<path d="M100.724 34.4886C100.975 34.5034 101.226 34.4593 101.457 34.3596C101.531 34.3215 101.593 34.2636 101.635 34.1925C101.678 34.1213 101.7 34.0397 101.699 33.9567C101.701 33.8647 101.681 33.7735 101.639 33.6913C101.598 33.609 101.537 33.5383 101.461 33.4853C101.221 33.3195 100.961 33.1841 100.688 33.0824C100.515 33.014 100.349 32.9414 100.188 32.8689C100.042 32.8025 99.9067 32.7157 99.7853 32.6111C99.6712 32.5113 99.5769 32.3911 99.5073 32.2565C99.3992 32.008 99.3738 31.7315 99.4347 31.4674C99.4956 31.2034 99.6397 30.966 99.8457 30.79C100.196 30.537 100.623 30.4119 101.054 30.4354C101.189 30.4347 101.324 30.4428 101.457 30.4596C101.586 30.4596 101.703 30.4878 101.812 30.5079C101.921 30.5281 102.021 30.5523 102.106 30.5764L102.303 30.6369L102.11 31.3339C101.982 31.2707 101.846 31.2221 101.707 31.1888C101.488 31.1366 101.263 31.1122 101.038 31.1163C100.833 31.1116 100.63 31.1572 100.446 31.2493C100.37 31.2853 100.305 31.3424 100.26 31.4137C100.215 31.4851 100.192 31.5678 100.192 31.6522C100.191 31.7426 100.21 31.8322 100.249 31.9141C100.293 31.9931 100.353 32.0618 100.426 32.1155C100.514 32.1865 100.612 32.2449 100.716 32.2887C100.833 32.3411 100.97 32.3935 101.119 32.4539C101.268 32.5144 101.522 32.6151 101.691 32.6916C101.847 32.762 101.992 32.8542 102.122 32.9656C102.241 33.0692 102.335 33.1988 102.396 33.3443C102.465 33.5172 102.498 33.7023 102.493 33.8882C102.503 34.0735 102.465 34.2582 102.383 34.4247C102.301 34.5911 102.178 34.7338 102.025 34.8391C101.626 35.0767 101.164 35.1889 100.7 35.1614C100.384 35.17 100.068 35.1361 99.7611 35.0607C99.6041 35.0178 99.4494 34.9667 99.2978 34.9076L99.4469 34.2106C99.5395 34.2468 99.6846 34.2992 99.89 34.3677C100.16 34.4534 100.441 34.4942 100.724 34.4886Z" fill="white"/>
<path d="M104.249 30.5281H105.962V31.209H104.245V33.296C104.243 33.4853 104.26 33.6744 104.298 33.86C104.325 33.9854 104.378 34.1036 104.455 34.2065C104.522 34.2906 104.614 34.3524 104.717 34.3838C104.835 34.4215 104.959 34.4392 105.083 34.4361C105.283 34.4438 105.482 34.4166 105.672 34.3556L105.978 34.2387L106.135 34.9075C105.997 34.97 105.854 35.0212 105.708 35.0606C105.481 35.1253 105.246 35.1565 105.011 35.1533C104.752 35.1611 104.493 35.1201 104.249 35.0324C104.06 34.9613 103.893 34.8402 103.766 34.6819C103.639 34.5102 103.552 34.3118 103.512 34.1017C103.457 33.8368 103.431 33.5666 103.436 33.296V29.267L104.241 29.126L104.249 30.5281Z" fill="white"/>
<path d="M106.949 30.7775C107.134 30.7346 107.38 30.6862 107.686 30.6325C108.035 30.5758 108.388 30.5489 108.742 30.5519C108.992 30.5449 109.24 30.586 109.475 30.6728C109.666 30.7442 109.836 30.8619 109.97 31.0152L110.16 30.8944C110.263 30.8347 110.371 30.7835 110.482 30.7413C110.622 30.6893 110.765 30.6449 110.909 30.6083C111.076 30.5703 111.246 30.5514 111.417 30.5519C111.708 30.5423 111.998 30.5944 112.267 30.705C112.478 30.7964 112.658 30.946 112.787 31.1361C112.917 31.336 113.003 31.5612 113.041 31.7969C113.084 32.0741 113.105 32.3543 113.105 32.6349V35.1772H112.299V32.8081C112.302 32.5778 112.289 32.3476 112.259 32.1192C112.24 31.9513 112.19 31.7885 112.11 31.6397C112.043 31.5181 111.94 31.4197 111.816 31.3577C111.663 31.2926 111.498 31.2623 111.332 31.2691C111.103 31.2613 110.874 31.2982 110.659 31.3779C110.529 31.4232 110.407 31.4884 110.297 31.5712C110.344 31.7336 110.379 31.8993 110.402 32.0668C110.423 32.2554 110.434 32.4451 110.434 32.6349V35.1772H109.628V32.8081C109.63 32.5845 109.616 32.3611 109.588 32.1393C109.564 31.972 109.512 31.8099 109.435 31.6599C109.366 31.5379 109.262 31.4396 109.136 31.3779C108.988 31.3135 108.827 31.2832 108.665 31.2892C108.58 31.2892 108.496 31.2892 108.403 31.2892H108.137L107.908 31.3214L107.767 31.3456V35.1691H106.961L106.949 30.7775Z" fill="white"/>
<path d="M114.148 32.8163C114.141 32.4594 114.199 32.1041 114.322 31.7688C114.424 31.4916 114.582 31.2381 114.785 31.0234C114.97 30.8288 115.196 30.6774 115.446 30.5802C115.689 30.4811 115.949 30.4305 116.211 30.4311C116.473 30.4147 116.735 30.4577 116.978 30.5567C117.221 30.6558 117.438 30.8084 117.613 31.0033C117.977 31.5058 118.15 32.1214 118.101 32.7397V32.8727C118.101 32.9291 118.101 32.9815 118.101 33.0258H115.003C115.005 33.4197 115.147 33.7999 115.406 34.0975C115.558 34.2295 115.735 34.3296 115.927 34.3919C116.118 34.4542 116.321 34.4774 116.522 34.4601C116.763 34.4646 117.003 34.4402 117.239 34.3876C117.389 34.3532 117.536 34.306 117.678 34.2466L117.791 34.9234C117.626 34.9989 117.453 35.0544 117.275 35.0886C116.998 35.1494 116.716 35.1791 116.433 35.1773C116.083 35.1853 115.735 35.1236 115.41 34.996C115.138 34.8893 114.896 34.721 114.7 34.5044C114.516 34.2878 114.379 34.0354 114.298 33.7631C114.201 33.4567 114.151 33.1376 114.148 32.8163ZM117.255 32.3731C117.275 32.0491 117.178 31.7287 116.981 31.4706C116.888 31.3554 116.769 31.2637 116.634 31.2028C116.499 31.142 116.351 31.1136 116.203 31.1201C116.033 31.1165 115.864 31.1538 115.712 31.2289C115.574 31.2988 115.451 31.3946 115.349 31.5109C115.251 31.6314 115.173 31.7676 115.119 31.9138C115.064 32.063 115.027 32.2187 115.011 32.3771L117.255 32.3731Z" fill="white"/>
<path d="M119.225 30.7783C119.41 30.7353 119.656 30.6869 119.962 30.6332C120.314 30.577 120.67 30.5501 121.026 30.5526C121.332 30.5442 121.638 30.5962 121.924 30.7057C122.143 30.7984 122.334 30.9454 122.48 31.1328C122.626 31.328 122.729 31.5518 122.782 31.7895C122.841 32.0676 122.87 32.3513 122.867 32.6356V35.1779H122.061V32.8089C122.066 32.5699 122.047 32.331 122.005 32.0957C121.978 31.9245 121.915 31.761 121.82 31.6163C121.731 31.4954 121.609 31.403 121.469 31.3504C121.296 31.2906 121.113 31.2633 120.929 31.2698C120.845 31.2698 120.752 31.2698 120.659 31.2698H120.397L120.168 31.302L120.027 31.3262V35.1497H119.221L119.225 30.7783Z" fill="white"/>
<path d="M124.934 30.5281H126.65V31.209H124.934V33.296C124.932 33.4853 124.949 33.6744 124.986 33.86C125.013 33.9854 125.067 34.1036 125.144 34.2065C125.211 34.2906 125.302 34.3524 125.405 34.3838C125.524 34.4215 125.648 34.4392 125.772 34.4361C125.97 34.4441 126.168 34.4168 126.356 34.3556L126.666 34.2387L126.824 34.9075C126.686 34.97 126.543 35.0212 126.397 35.0606C126.17 35.1253 125.935 35.1565 125.7 35.1533C125.44 35.1611 125.182 35.1201 124.938 35.0324C124.747 34.9636 124.579 34.842 124.455 34.6819C124.327 34.5102 124.24 34.3118 124.201 34.1017C124.145 33.8368 124.12 33.5666 124.124 33.296V29.267L124.93 29.126L124.934 30.5281Z" fill="white"/>
<path d="M129.652 35.1772V29.1338H133.278V29.859H130.498V31.6761H132.98V32.3892H130.498V35.1692L129.652 35.1772Z" fill="white"/>
<path d="M137.617 34.9604C137.432 35.0047 137.186 35.0531 136.884 35.1055C136.534 35.1619 136.179 35.1889 135.824 35.186C135.524 35.1939 135.226 35.1419 134.946 35.0329C134.72 34.941 134.522 34.7926 134.37 34.6018C134.221 34.407 134.114 34.1834 134.056 33.9451C133.992 33.669 133.961 33.3864 133.963 33.1031V30.5527H134.769V32.9218C134.734 33.3335 134.824 33.7462 135.027 34.1063C135.134 34.2324 135.27 34.3305 135.424 34.3923C135.578 34.454 135.744 34.4775 135.909 34.4608C135.993 34.4608 136.086 34.4608 136.179 34.4608H136.437L136.658 34.4326C136.708 34.4292 136.756 34.4197 136.803 34.4044V30.5527H137.609L137.617 34.9604Z" fill="white"/>
<path d="M138.967 30.7784C139.152 30.7341 139.398 30.6857 139.708 30.6334C140.059 30.5769 140.413 30.5499 140.768 30.5528C141.074 30.5436 141.38 30.5957 141.666 30.7059C141.885 30.7986 142.076 30.9456 142.222 31.133C142.371 31.3262 142.475 31.5507 142.524 31.7897C142.585 32.0676 142.614 32.3513 142.613 32.6358V35.178H141.807V32.809C141.81 32.5701 141.791 32.3314 141.751 32.0959C141.723 31.9243 141.658 31.7608 141.562 31.6164C141.474 31.4959 141.354 31.4034 141.215 31.3505C141.041 31.2911 140.858 31.2638 140.675 31.2699C140.587 31.2699 140.498 31.2699 140.405 31.2699H140.139L139.914 31.3022L139.769 31.3264V35.1498H138.963L138.967 30.7784Z" fill="white"/>
<path d="M146.848 28.4574L147.653 28.3164V34.9602C147.468 35.0112 147.23 35.0636 146.94 35.1173C146.61 35.1736 146.276 35.2006 145.941 35.1979C145.619 35.2019 145.299 35.1459 144.998 35.0327C144.73 34.9255 144.487 34.7635 144.285 34.5573C144.08 34.34 143.926 34.0799 143.834 33.7958C143.722 33.479 143.667 33.1447 143.673 32.8087C143.669 32.4843 143.714 32.1611 143.806 31.8498C143.888 31.5765 144.025 31.3229 144.209 31.1044C144.38 30.8951 144.598 30.7283 144.845 30.6169C145.118 30.4957 145.413 30.4352 145.711 30.4397C145.947 30.436 146.181 30.4714 146.404 30.5444C146.561 30.5957 146.713 30.6632 146.856 30.7459L146.848 28.4574ZM146.848 31.5033C146.718 31.4047 146.574 31.326 146.42 31.2696C146.226 31.1912 146.018 31.1515 145.808 31.1528C145.602 31.1479 145.397 31.1921 145.212 31.2817C145.051 31.362 144.912 31.4811 144.809 31.6282C144.699 31.787 144.622 31.9666 144.583 32.156C144.534 32.37 144.509 32.5891 144.511 32.8087C144.489 33.2478 144.633 33.6789 144.914 34.0174C145.046 34.1602 145.208 34.2725 145.388 34.3462C145.568 34.42 145.763 34.4535 145.957 34.4445C146.142 34.4471 146.326 34.4377 146.509 34.4163C146.626 34.4027 146.742 34.3811 146.856 34.3518L146.848 31.5033Z" fill="white"/>
<path d="M150.059 34.4886C150.31 34.5034 150.561 34.4593 150.792 34.3596C150.866 34.3215 150.927 34.2636 150.97 34.1925C151.013 34.1213 151.035 34.0397 151.034 33.9567C151.036 33.8647 151.015 33.7735 150.974 33.6913C150.932 33.609 150.871 33.5383 150.796 33.4853C150.556 33.3195 150.296 33.1841 150.022 33.0824C149.849 33.014 149.684 32.9414 149.523 32.8689C149.377 32.8025 149.241 32.7157 149.12 32.6111C149.005 32.5125 148.91 32.392 148.842 32.2565C148.734 32.008 148.708 31.7315 148.769 31.4674C148.83 31.2034 148.974 30.966 149.18 30.79C149.531 30.537 149.957 30.4119 150.389 30.4354C150.517 30.4356 150.645 30.4436 150.772 30.4596C150.901 30.4596 151.018 30.4878 151.126 30.5079C151.235 30.5281 151.336 30.5523 151.42 30.5764L151.614 30.6369L151.461 31.3339C151.332 31.2707 151.197 31.2221 151.058 31.1888C150.839 31.1366 150.614 31.1122 150.389 31.1163C150.184 31.1116 149.98 31.1572 149.797 31.2493C149.72 31.2853 149.656 31.3424 149.611 31.4137C149.566 31.4851 149.543 31.5678 149.543 31.6522C149.542 31.7426 149.561 31.8322 149.599 31.9141C149.643 31.9921 149.702 32.0606 149.773 32.1155C149.863 32.1855 149.962 32.2437 150.067 32.2887C150.184 32.3411 150.321 32.3935 150.47 32.4539C150.619 32.5144 150.872 32.6151 151.042 32.6916C151.198 32.762 151.343 32.8542 151.473 32.9656C151.592 33.0692 151.686 33.1988 151.747 33.3443C151.816 33.5172 151.849 33.7023 151.843 33.8882C151.853 34.0735 151.816 34.2582 151.734 34.4247C151.652 34.5911 151.529 34.7338 151.376 34.8391C150.976 35.0767 150.515 35.1889 150.051 35.1614C149.733 35.1697 149.416 35.1358 149.108 35.0607C148.882 34.9922 148.729 34.9438 148.648 34.9076L148.798 34.2106C148.89 34.2468 149.035 34.2992 149.241 34.3677C149.505 34.4516 149.781 34.4925 150.059 34.4886Z" fill="white"/>
<path d="M67.1345 12.3253V3.18359H73.0047V4.59776H68.7945V6.84995H72.5414V8.23591H68.7945V10.9152H73.327V12.3253H67.1345Z" fill="white"/>
<path d="M80.14 11.9713C79.8298 12.0478 79.431 12.1324 78.9314 12.217C78.3984 12.3018 77.8595 12.3435 77.3198 12.3419C76.8453 12.3555 76.3728 12.2747 75.9298 12.1042C75.5799 11.9623 75.271 11.7352 75.0313 11.4435C74.7932 11.1473 74.6239 10.8019 74.5358 10.4322C74.4355 10.0113 74.3868 9.57968 74.3907 9.14698V5.2832H76.0023V8.90927C75.9578 9.45692 76.0696 10.006 76.3246 10.4926C76.4573 10.6606 76.6303 10.7922 76.8276 10.8754C77.0248 10.9585 77.2399 10.9904 77.4527 10.9681C77.6461 10.9681 77.8556 10.9681 78.0651 10.9399C78.2276 10.9298 78.3892 10.9083 78.5486 10.8754V5.2832H80.1602L80.14 11.9713Z" fill="white"/>
<path d="M86.0224 6.86606C85.8425 6.80865 85.6596 6.76157 85.4744 6.72504C85.2089 6.67389 84.939 6.6496 84.6686 6.65252C84.4806 6.65432 84.2932 6.6732 84.1086 6.70893C83.9726 6.73005 83.838 6.75966 83.7057 6.79757V12.3253H82.0941V5.75809C82.4714 5.6233 82.8578 5.51558 83.2504 5.43578C83.7549 5.32817 84.2697 5.27682 84.7855 5.28268C84.8942 5.28268 85.0151 5.28268 85.1561 5.30282C85.2971 5.32297 85.4382 5.33102 85.5792 5.3552C85.7148 5.37519 85.8492 5.40208 85.9821 5.43578C86.0898 5.45737 86.1961 5.48562 86.3004 5.52038L86.0224 6.86606Z" fill="white"/>
<path d="M93.5686 8.69879C93.5742 9.20556 93.4938 9.70961 93.3309 10.1895C93.189 10.6132 92.9629 11.0038 92.6661 11.3378C92.3723 11.6541 92.0155 11.9053 91.6186 12.0751C91.1904 12.2558 90.7296 12.3463 90.2648 12.341C89.8026 12.3471 89.3443 12.2565 88.9192 12.0751C88.524 11.9043 88.1686 11.6532 87.8757 11.3378C87.5761 11.0037 87.3461 10.6133 87.1988 10.1895C87.0293 9.71107 86.9461 9.20633 86.953 8.69879C86.9456 8.19385 87.0289 7.69168 87.1988 7.21614C87.3474 6.79233 87.5804 6.40307 87.8837 6.07191C88.1772 5.7572 88.5342 5.50861 88.9312 5.34267C89.7885 4.99906 90.7452 4.99906 91.6024 5.34267C92.0066 5.50395 92.3699 5.75303 92.6661 6.07191C92.9655 6.40456 93.1956 6.79355 93.343 7.21614C93.506 7.69293 93.5824 8.19507 93.5686 8.69879ZM91.9328 8.69879C91.9599 8.12818 91.8047 7.56375 91.4896 7.08721C91.343 6.90038 91.1558 6.74933 90.9422 6.64546C90.7287 6.54158 90.4943 6.48761 90.2568 6.48761C90.0193 6.48761 89.7849 6.54158 89.5713 6.64546C89.3577 6.74933 89.1706 6.90038 89.0239 7.08721C88.7089 7.56375 88.5537 8.12818 88.5807 8.69879C88.5498 9.28119 88.7051 9.85831 89.0239 10.3466C89.1692 10.5355 89.3559 10.6885 89.5696 10.7938C89.7834 10.8991 90.0185 10.9539 90.2568 10.9539C90.4951 10.9539 90.7302 10.8991 90.9439 10.7938C91.1577 10.6885 91.3444 10.5355 91.4896 10.3466C91.8085 9.85831 91.9637 9.28119 91.9328 8.69879Z" fill="white"/>
<path d="M101.353 8.88455C101.358 9.37565 101.289 9.86474 101.147 10.335C101.025 10.7477 100.826 11.1334 100.559 11.4711C100.302 11.7877 99.9752 12.0401 99.604 12.2084C99.1945 12.3897 98.7503 12.4791 98.3026 12.4703C98.0004 12.4746 97.6992 12.4352 97.4082 12.3535C97.1749 12.2895 96.9493 12.2003 96.7354 12.0876V14.7668H95.1238V5.65332C95.4461 5.56468 95.849 5.48007 96.3325 5.3995C96.8295 5.32036 97.332 5.28129 97.8353 5.28266C98.334 5.27541 98.8298 5.36009 99.2978 5.53245C99.7134 5.69062 100.09 5.93662 100.402 6.25363C100.722 6.5742 100.97 6.96044 101.127 7.38577C101.289 7.86838 101.365 8.37562 101.353 8.88455ZM99.7168 8.90872C99.7528 8.31611 99.5819 7.72938 99.2333 7.24879C99.0382 7.03652 98.7967 6.87225 98.5276 6.76881C98.2586 6.66537 97.9692 6.62556 97.6822 6.6525C97.5331 6.6525 97.38 6.6525 97.2148 6.6525C97.0531 6.66858 96.8928 6.69686 96.7354 6.73711V10.6855C96.9101 10.7984 97.0982 10.889 97.2954 10.9554C97.5346 11.0406 97.7869 11.0828 98.0407 11.0803C98.2864 11.0994 98.5328 11.0545 98.7559 10.95C98.979 10.8455 99.1713 10.6849 99.3139 10.484C99.5999 10.0099 99.7401 9.46199 99.7168 8.90872Z" fill="white"/>
<path d="M102.537 8.77226C102.524 8.22248 102.617 7.67538 102.811 7.16068C102.973 6.73231 103.223 6.34255 103.544 6.01645C103.835 5.71741 104.185 5.48269 104.572 5.3275C104.95 5.17657 105.353 5.09865 105.76 5.09785C106.171 5.07575 106.583 5.1432 106.965 5.29554C107.348 5.44788 107.693 5.68148 107.976 5.98019C108.513 6.57111 108.782 7.45076 108.782 8.61916C108.782 8.7078 108.782 8.80852 108.782 8.9173C108.782 9.02609 108.782 9.12681 108.762 9.21545H104.189C104.195 9.45794 104.25 9.69673 104.35 9.91755C104.451 10.1384 104.594 10.3367 104.773 10.5007C105.205 10.83 105.742 10.9917 106.284 10.956C106.641 10.9583 106.998 10.9232 107.348 10.8512C107.606 10.7989 107.86 10.7234 108.105 10.6256L108.319 11.931C108.201 11.9879 108.078 12.0338 107.952 12.0679C107.779 12.1218 107.602 12.1662 107.424 12.2009C107.227 12.2412 107.021 12.2734 106.788 12.3016C106.555 12.3273 106.321 12.3408 106.087 12.3419C105.546 12.3526 105.009 12.2596 104.503 12.0679C104.081 11.9079 103.701 11.6513 103.395 11.3186C103.098 10.991 102.874 10.6036 102.738 10.1824C102.599 9.72563 102.531 9.2499 102.537 8.77226ZM107.17 8.03899C107.171 7.82738 107.139 7.6169 107.078 7.4145C107.02 7.22764 106.928 7.05289 106.808 6.89879C106.686 6.75456 106.535 6.63783 106.365 6.55633C106.171 6.46815 105.96 6.42542 105.748 6.43143C105.525 6.42584 105.305 6.47277 105.103 6.56842C104.924 6.6557 104.765 6.77917 104.636 6.93103C104.506 7.08291 104.404 7.2578 104.338 7.44673C104.266 7.63763 104.217 7.83647 104.193 8.03899H107.17Z" fill="white"/>
<path d="M112.67 5.14594C113.122 5.13376 113.574 5.20056 114.003 5.34336C114.332 5.45276 114.629 5.64248 114.866 5.89533C115.085 6.14255 115.244 6.43785 115.329 6.75753C115.424 7.12041 115.47 7.4944 115.466 7.86952V12.0355C115.22 12.0878 114.85 12.1523 114.35 12.2289C113.793 12.3069 113.232 12.3446 112.67 12.3417C112.288 12.3452 111.906 12.3047 111.534 12.2208C111.219 12.1555 110.921 12.0251 110.659 11.838C110.415 11.6614 110.22 11.4257 110.091 11.1531C109.945 10.8253 109.874 10.4685 109.886 10.1096C109.874 9.76097 109.953 9.41529 110.115 9.10641C110.268 8.83707 110.484 8.6089 110.744 8.44163C111.024 8.26452 111.334 8.13899 111.659 8.07097C112.018 7.9975 112.384 7.96105 112.75 7.96219C112.935 7.96143 113.119 7.9722 113.302 7.99442C113.511 8.01739 113.719 8.05372 113.923 8.1032V7.84132C113.922 7.66346 113.901 7.48629 113.858 7.31352C113.814 7.15035 113.734 6.99899 113.625 6.87034C113.506 6.7376 113.357 6.6365 113.19 6.57622C112.972 6.5008 112.743 6.46531 112.513 6.47147C112.171 6.46859 111.83 6.4942 111.493 6.54802C111.239 6.58873 110.988 6.65073 110.744 6.73335L110.547 5.44006C110.835 5.34901 111.13 5.27899 111.429 5.23055C111.839 5.16622 112.255 5.13791 112.67 5.14594ZM112.811 11.0725C113.186 11.0821 113.561 11.0565 113.931 10.996V9.22728C113.805 9.19257 113.677 9.16566 113.548 9.1467C113.364 9.11993 113.178 9.10646 112.992 9.10641C112.814 9.10808 112.637 9.12154 112.46 9.1467C112.292 9.17131 112.128 9.22016 111.973 9.29174C111.826 9.35283 111.698 9.4515 111.602 9.5778C111.508 9.71959 111.462 9.88741 111.469 10.0572C111.449 10.2115 111.472 10.3684 111.535 10.5106C111.598 10.6527 111.7 10.7747 111.828 10.863C112.13 11.0231 112.47 11.0957 112.811 11.0725Z" fill="white"/>
<path d="M117.339 5.65352C118.258 5.4023 119.207 5.2776 120.16 5.28285C120.64 5.26885 121.119 5.3468 121.57 5.5125C121.923 5.64845 122.236 5.87159 122.48 6.16116C122.717 6.45222 122.882 6.79429 122.964 7.16035C123.061 7.58181 123.108 8.01314 123.105 8.44558V12.3214H121.493V8.69538C121.498 8.37957 121.473 8.06402 121.421 7.7526C121.386 7.52769 121.305 7.31238 121.183 7.12006C121.077 6.95846 120.926 6.83218 120.748 6.75745C120.527 6.67819 120.294 6.63996 120.059 6.64464C119.846 6.64652 119.634 6.65997 119.422 6.68493L118.935 6.75745V12.3255H117.323L117.339 5.65352Z" fill="white"/>
<path d="M131.574 12.3412C131.024 12.3536 130.477 12.2606 129.962 12.0672C129.538 11.9047 129.157 11.6454 128.85 11.3098C128.552 10.9787 128.329 10.587 128.197 10.1615C128.051 9.69213 127.979 9.20276 127.984 8.71111V2.99805H129.66V8.55398C129.653 8.91336 129.699 9.27183 129.797 9.61763C129.875 9.88406 130.013 10.1293 130.2 10.3348C130.365 10.5165 130.573 10.6548 130.804 10.7377C131.062 10.8319 131.335 10.877 131.61 10.8706C131.884 10.8764 132.158 10.8314 132.416 10.7377C132.651 10.6551 132.862 10.5169 133.032 10.3348C133.218 10.1283 133.355 9.88342 133.435 9.61763C133.533 9.27183 133.579 8.91336 133.572 8.55398V2.99805H135.248V8.71111C135.254 9.2031 135.18 9.69279 135.031 10.1615C134.896 10.5875 134.67 10.9792 134.37 11.3098C134.06 11.6474 133.675 11.9069 133.246 12.0672C132.711 12.2659 132.144 12.359 131.574 12.3412Z" fill="white"/>
<path d="M137.166 5.65345C138.085 5.40224 139.034 5.27754 139.986 5.28279C140.467 5.26908 140.945 5.34702 141.396 5.51244C141.748 5.64898 142.06 5.87208 142.303 6.1611C142.541 6.45176 142.708 6.79387 142.79 7.16028C142.887 7.58175 142.935 8.01308 142.931 8.44552V12.3214H141.32V8.69532C141.324 8.37951 141.3 8.06395 141.247 7.75254C141.21 7.52811 141.13 7.31315 141.01 7.11999C140.899 6.95738 140.742 6.83229 140.558 6.76142C140.336 6.68185 140.101 6.64361 139.865 6.64861C139.654 6.65062 139.443 6.66407 139.233 6.6889L138.745 6.75336V12.3254H137.134L137.166 5.65345Z" fill="white"/>
<path d="M146.586 3.40926C146.592 3.54203 146.569 3.67456 146.519 3.79768C146.469 3.9208 146.393 4.03158 146.296 4.12238C146.108 4.29428 145.861 4.38796 145.607 4.38426C145.349 4.38879 145.1 4.29515 144.91 4.12238C144.816 4.02978 144.744 3.91818 144.697 3.79515C144.651 3.67212 144.631 3.54052 144.64 3.40926C144.633 3.27461 144.655 3.14008 144.705 3.0149C144.755 2.88972 144.832 2.77685 144.93 2.68404C145.119 2.50874 145.369 2.41346 145.627 2.41813C145.882 2.41429 146.129 2.5096 146.316 2.68404C146.41 2.77864 146.483 2.89231 146.529 3.0174C146.576 3.1425 146.595 3.27611 146.586 3.40926ZM146.412 12.3253H144.801V5.42777H146.412V12.3253Z" fill="white"/>
<path d="M154.603 8.69927C154.611 9.20618 154.53 9.71056 154.366 10.19C154.221 10.6143 153.992 11.005 153.693 11.3382C153.4 11.6555 153.043 11.9068 152.645 12.0755C152.219 12.2566 151.759 12.3472 151.295 12.3414C150.833 12.348 150.375 12.2575 149.95 12.0755C149.554 11.9057 149.199 11.6545 148.906 11.3382C148.607 11.0033 148.376 10.6133 148.225 10.19C148.059 9.7108 147.977 9.20641 147.984 8.69927C147.977 8.19472 148.059 7.69291 148.225 7.21661C148.375 6.79256 148.61 6.40332 148.914 6.07238C149.207 5.75682 149.564 5.50809 149.962 5.34314C150.384 5.16664 150.838 5.07888 151.295 5.08529C151.754 5.08002 152.209 5.16774 152.633 5.34314C153.031 5.50707 153.389 5.75595 153.681 6.07238C153.98 6.40582 154.211 6.7945 154.362 7.21661C154.528 7.69291 154.61 8.19472 154.603 8.69927ZM152.967 8.69927C152.996 8.12909 152.842 7.5647 152.528 7.08768C152.381 6.9008 152.194 6.74973 151.98 6.64585C151.766 6.54198 151.531 6.48801 151.293 6.48801C151.056 6.48801 150.821 6.54198 150.607 6.64585C150.393 6.74973 150.206 6.9008 150.059 7.08768C149.745 7.5647 149.591 8.12909 149.619 8.69927C149.587 9.28122 149.741 9.85831 150.059 10.3471C150.204 10.5361 150.391 10.6891 150.605 10.7943C150.819 10.8996 151.055 10.9544 151.293 10.9544C151.532 10.9544 151.767 10.8996 151.982 10.7943C152.196 10.6891 152.383 10.5361 152.528 10.3471C152.846 9.85831 153 9.28122 152.967 8.69927Z" fill="white"/>
<path d="M156.175 5.65345C157.093 5.40224 158.042 5.27754 158.995 5.28279C159.475 5.26908 159.954 5.34702 160.405 5.51244C160.757 5.64898 161.069 5.87208 161.311 6.1611C161.549 6.45176 161.716 6.79387 161.799 7.16028C161.896 7.58175 161.943 8.01308 161.94 8.44552V12.3214H160.328V8.69532C160.333 8.37951 160.309 8.06395 160.256 7.75254C160.221 7.52762 160.14 7.31231 160.018 7.11999C159.908 6.95738 159.75 6.83229 159.567 6.76142C159.345 6.68185 159.11 6.64361 158.874 6.64861C158.663 6.65062 158.451 6.66407 158.241 6.6889L157.754 6.75336V12.3254H156.142L156.175 5.65345Z" fill="white"/>
</g>
<defs>
<clipPath id="clip0_89_4624">
<rect width="161.94" height="36.5507" fill="white" transform="translate(0 0.713867)"/>
</clipPath>
</defs>
</svg>
