<svg width="57" height="57" fill="none" xmlns="http://www.w3.org/2000/svg"><g clip-path="url(#clip0)" stroke-width="3" stroke-linecap="round" stroke-linejoin="round"><path d="M28.22 16.07a7 7 0 100-14 7 7 0 000 14zM36.97 33.57v-5.25a8.75 8.75 0 00-17.5 0v5.25h3.5l1.75 14h7l1.75-14h3.5zM10.72 19.57a5.25 5.25 0 100-10.5 5.25 5.25 0 000 10.5zM13.52 23.53a8.76 8.76 0 00-11.55 8.3v1.74h3.5l1.75 10.5h7l.88-5.26M45.72 19.57a5.25 5.25 0 100-10.5 5.25 5.25 0 000 10.5zM42.92 23.53a8.76 8.76 0 0111.55 8.3v1.74h-3.5l-1.75 10.5h-7l-.88-5.26" stroke="#858C91"/><path d="M54.47 49.32c0 2.9-11.75 5.25-26.25 5.25S1.97 52.22 1.97 49.32" stroke="#3EC227"/></g><defs><clipPath id="clip0"><path fill="#fff" transform="translate(.22 .32)" d="M0 0h56v56H0z"/></clipPath></defs></svg>