<svg width="113" height="49" fill="none" xmlns="http://www.w3.org/2000/svg"><rect x="1.43" y="1.46" width="76.41" height="34.28" rx="3" stroke="#858C91" stroke-width="2"/><rect x="47.48" y="7.26" width="15.47" height="23.19" rx="3" stroke="#858C91" stroke-width="2"/><circle cx="23.64" cy="43.27" r="4.27" stroke="#858C91" stroke-width="2"/><circle cx="97.55" cy="43.27" r="4.27" stroke="#858C91" stroke-width="2"/><path d="m84.66 2.59 4.84 8.7h-7.05v-8.7h2.21z" stroke="#858C91" stroke-width="2"/><path stroke="#3EC227" stroke-width="2" stroke-linecap="round" stroke-linejoin="round" d="M33.43 39.74h44.41"/><path stroke="#858C91" stroke-width="2" stroke-linecap="round" stroke-linejoin="round" d="M1.43 39.74h12.41"/><path d="m99.75 25.62.16.19.23.1 7.05 2.97 4.56 6.83v6.52h-6.6a7.6 7.6 0 0 0-15.16 0h-7.52V15.4h8.95l8.33 10.22z" stroke="#858C91" stroke-width="2"/><g stroke="#858C91" stroke-width="2" stroke-linecap="round" stroke-linejoin="round"><path d="m14.24 9.89 3.37 2.24 3.36-2.24M17.6 25.6V7.65M14.24 23.35l3.37-2.24 3.36 2.24M24.34 13.26l-2.24 3.36L24.34 20M8.63 16.62h17.95M10.88 13.26l2.24 3.36L10.88 20"/></g></svg>