<svg width="48" height="24" fill="none" xmlns="http://www.w3.org/2000/svg"><path d="M.75 2C.75 1.31 1.31.75 2 .75h27.1c.7 0 1.25.56 1.25 1.25v14.11c0 .7-.56 1.25-1.25 1.25H2c-.69 0-1.25-.56-1.25-1.25V2Z" stroke="#858C91" stroke-width="1.5"/><rect x="18.22" y="3.64" width="7.2" height="11.07" rx="1.25" stroke="#858C91" stroke-width="1.5"/><path d="M13.44 21.37a1.88 1.88 0 1 1-3.76 0 1.88 1.88 0 0 1 3.76 0ZM42.3 21.37a1.88 1.88 0 1 1-3.75 0 1.88 1.88 0 0 1 3.76 0ZM33.98 1.54l1.14 2.05a1.05 1.05 0 1 1-1.97.51V1.76a.44.44 0 0 1 .83-.22Z" stroke="#858C91" stroke-width="1.5"/><path stroke="#3EC227" stroke-width="1.5" stroke-linecap="round" stroke-linejoin="round" d="M16.7 20.36h13.65"/><path stroke="#858C91" stroke-width="1.5" stroke-linecap="round" stroke-linejoin="round" d="M.75 20.36h5.68"/><path d="M33.16 19.35V8.95c0-.68.56-1.24 1.25-1.24h2.25c.37 0 .73.16.97.46l3.39 4.16c.28.35.64.62 1.06.8l2.64 1.11c.22.1.42.26.55.46l1.77 2.66c.14.2.21.44.21.7v1.29c0 .69-.56 1.25-1.25 1.25h-.52a1 1 0 0 1-1-1 2.5 2.5 0 0 0-2.51-2.51H38.9a2.5 2.5 0 0 0-2.5 2.5 1 1 0 0 1-1.01 1.01h-.98c-.69 0-1.25-.56-1.25-1.25Z" stroke="#858C91" stroke-width="1.5"/><path d="M14.43 9.66c.08.19-.01.4-.2.47l-.99.4.92.56a.36.36 0 1 1-.37.6l-.91-.54.1 1.06a.36.36 0 0 1-.7.07l-.17-1.6-1.76-1.05v2.05l1.29.96a.36.36 0 0 1-.43.57l-.86-.64v1.07a.36.36 0 1 1-.71 0v-1.07l-.86.64a.36.36 0 0 1-.43-.57l1.29-.96V9.63L7.89 10.7l-.17 1.6a.36.36 0 1 1-.7-.08l.1-1.06-.92.55a.36.36 0 1 1-.37-.61l.92-.56-.99-.4a.36.36 0 0 1 .27-.66l1.49.6L9.3 9 7.52 7.93l-1.5.6a.36.36 0 0 1-.26-.66l1-.4-.93-.56a.36.36 0 1 1 .37-.6l.92.54-.1-1.06a.36.36 0 0 1 .7-.07l.17 1.6 1.75 1.05V6.32l-1.29-.96a.36.36 0 1 1 .43-.57l.86.64V4.36a.36.36 0 1 1 .71 0v1.07l.86-.64a.36.36 0 1 1 .43.57l-1.29.96v2.05l1.76-1.06.16-1.6a.36.36 0 0 1 .71.08l-.1 1.06.91-.55a.36.36 0 1 1 .37.61l-.92.56 1 .4a.36.36 0 0 1-.27.66l-1.5-.6L10.7 9l1.79 1.07 1.49-.6c.18-.08.39.01.46.2Z" fill="#858C91"/></svg>