<svg width="66" height="42" viewBox="0 0 66 42" fill="none" xmlns="http://www.w3.org/2000/svg">
<rect x="0.5" y="0.5" width="65" height="41" rx="3.5" stroke="white"/>
<path fill-rule="evenodd" clip-rule="evenodd" d="M31.4433 25.663V20.8144H33.9458C34.9712 20.8144 35.8367 20.4708 36.5423 19.7931L36.7117 19.6213C38.0005 18.2183 37.9158 16.0326 36.5423 14.7345C35.8556 14.0473 34.9148 13.6751 33.9458 13.6942H29.9287V25.663H31.4433ZM31.4435 19.3444V15.1639H33.984C34.5297 15.1639 35.0472 15.3739 35.433 15.7557C36.2516 16.5574 36.2704 17.8937 35.4801 18.724C35.0943 19.1345 34.5485 19.3635 33.984 19.3444H31.4435Z" fill="white"/>
<path fill-rule="evenodd" clip-rule="evenodd" d="M43.7769 18.1133C43.1278 17.512 42.2435 17.2065 41.1239 17.2065C39.6846 17.2065 38.6027 17.741 37.8877 18.8005L39.2236 19.6499C39.7128 18.9245 40.3807 18.5618 41.2274 18.5618C41.7637 18.5618 42.2811 18.7623 42.6856 19.125C43.0807 19.4686 43.3065 19.9649 43.3065 20.4898V20.843C42.7232 20.5185 41.9894 20.3467 41.0863 20.3467C40.0326 20.3467 39.1859 20.5948 38.5556 21.1007C37.9253 21.6065 37.6054 22.2747 37.6054 23.1241C37.5866 23.8972 37.9159 24.6322 38.4992 25.1285C39.0919 25.663 39.8445 25.9302 40.7288 25.9302C41.7731 25.9302 42.6009 25.4625 43.2313 24.5272H43.2971V25.663H44.7459V20.6139C44.7459 19.5545 44.4261 18.7146 43.7769 18.1133ZM39.666 24.1549C39.3555 23.9258 39.1673 23.5536 39.1673 23.1527C39.1673 22.7041 39.3743 22.3319 39.7789 22.036C40.1929 21.7401 40.7104 21.5874 41.322 21.5874C42.1689 21.5779 42.8275 21.7688 43.298 22.1506C43.298 22.7996 43.0439 23.3627 42.5452 23.8399C42.0936 24.2981 41.482 24.5558 40.8422 24.5558C40.4187 24.5653 40.0047 24.4221 39.666 24.1549Z" fill="white"/>
<path d="M53.0624 17.4738L48.001 29.2612H46.4393L48.3209 25.138L45 17.4738H46.6463L49.0453 23.3532H49.0735L51.416 17.4738H53.0624Z" fill="white"/>
<path d="M26.2142 19.7644C26.2142 19.2967 26.1766 18.829 26.1013 18.3709H19.7135V21.0147H23.3731C23.2226 21.8642 22.7334 22.6277 22.0184 23.105V24.823H24.201C25.4804 23.6299 26.2142 21.8642 26.2142 19.7644Z" fill="white"/>
<path d="M19.7137 26.4837C21.5388 26.4837 23.0815 25.8729 24.201 24.823L22.0184 23.105C21.4069 23.5249 20.6263 23.7635 19.7137 23.7635C17.9451 23.7635 16.4493 22.5513 15.913 20.9288H13.6646V22.704C14.8123 25.0234 17.1548 26.4837 19.7137 26.4837Z" fill="white"/>
<path d="M15.913 20.9288C15.6307 20.0793 15.631 19.1537 15.9133 18.2947V16.5289H13.6645C12.6953 18.4665 12.6953 20.7571 13.6645 22.6947L15.913 20.9288Z" fill="white"/>
<path d="M19.7137 15.4599C20.6827 15.4408 21.6141 15.813 22.3103 16.4907L24.2483 14.5245C23.0158 13.3601 21.3977 12.7206 19.7137 12.7397C17.1548 12.7397 14.8122 14.2096 13.6645 16.5289L15.913 18.3041C16.4493 16.672 17.9451 15.4599 19.7137 15.4599Z" fill="white"/>
</svg>
