<svg width="64" height="64" fill="none" xmlns="http://www.w3.org/2000/svg"><path d="M57.06 55.38h-5.62a.94.94 0 0 0 0 1.87h5.62c.17 0 .31.14.31.31v1.25c0 .17-.14.32-.3.32H37.14c.12-.6.13-1.27.04-1.88h9.87a.94.94 0 1 0 0-1.87H36.6a5.98 5.98 0 0 0-2.48-2.55V46.5H54.5a4.7 4.7 0 0 0 4.69-4.69v-1.5a.94.94 0 1 0-1.88 0v1.5a2.82 2.82 0 0 1-2.81 2.81h-45a2.82 2.82 0 0 1-2.81-2.8v-7.38a2.82 2.82 0 0 1 2.81-2.81h20.82a.94.94 0 1 0 0-1.88H9.5a2.82 2.82 0 0 1-2.81-2.81v-7.38a2.82 2.82 0 0 1 2.81-2.81h45a2.82 2.82 0 0 1 2.81 2.81v7.38a2.82 2.82 0 0 1-2.81 2.81H34.69a.94.94 0 1 0 0 1.88H54.5a2.82 2.82 0 0 1 2.81 2.8v1.5a.94.94 0 1 0 1.88 0v-1.5c0-1.52-.74-2.89-1.88-3.74a4.68 4.68 0 0 0 1.88-3.75v-7.38c0-1.53-.74-2.9-1.88-3.75a4.68 4.68 0 0 0 1.88-3.75V4.7A4.7 4.7 0 0 0 54.5 0H18.44a.94.94 0 1 0 0 1.88H54.5a2.82 2.82 0 0 1 2.81 2.8v7.38a2.82 2.82 0 0 1-2.81 2.81h-45a2.82 2.82 0 0 1-2.81-2.8V4.68A2.82 2.82 0 0 1 9.5 1.87h4.44a.94.94 0 1 0 0-1.87H9.5a4.7 4.7 0 0 0-4.69 4.69v7.37c0 1.53.74 2.9 1.88 3.75a4.68 4.68 0 0 0-1.88 3.75v7.38c0 1.53.74 2.9 1.88 3.75a4.68 4.68 0 0 0-1.88 3.75v7.37A4.7 4.7 0 0 0 9.5 46.5h19v6.33a5.98 5.98 0 0 0-2.48 2.55H6.94c-1.2 0-2.19.98-2.19 2.18v1.25c0 1.2.98 2.19 2.19 2.19h19.22a5.94 5.94 0 0 0 10.3 0h20.6c1.2 0 2.19-.98 2.19-2.19v-1.25c0-1.2-.98-2.18-2.19-2.18ZM30.37 46.5h1.88v5.7c-.6-.1-1.27-.1-1.88 0v-5.7ZM6.95 59.13a.31.31 0 0 1-.32-.32v-1.25c0-.17.15-.31.32-.31h18.5a5.9 5.9 0 0 0 .03 1.88H6.94Zm24.37 3a4.07 4.07 0 1 1 .01-8.14 4.07 4.07 0 0 1 0 8.13Z" fill="#3EC227"/><path d="M54.94 8.31a4.07 4.07 0 1 0-8.14.01 4.07 4.07 0 0 0 8.14 0Zm-6.25 0a2.19 2.19 0 1 1 4.38 0 2.19 2.19 0 0 1-4.38 0ZM44.31 8.31a4.07 4.07 0 1 0-8.13.01 4.07 4.07 0 0 0 8.13 0Zm-6.25 0a2.19 2.19 0 1 1 4.38 0 2.19 2.19 0 0 1-4.38 0ZM54.94 23.19a4.07 4.07 0 1 0-8.14 0 4.07 4.07 0 0 0 8.14 0Zm-6.25 0a2.19 2.19 0 1 1 4.38 0 2.19 2.19 0 0 1-4.38 0ZM50.88 34a4.07 4.07 0 1 0 0 8.13 4.07 4.07 0 0 0 0-8.13Zm0 6.25a2.19 2.19 0 1 1 0-4.38 2.19 2.19 0 0 1 0 4.38ZM9.19 6.19c0 .52.42.93.94.93h5.24a.94.94 0 1 0 0-1.87h-5.24a.94.94 0 0 0-.94.94ZM15.38 9.63h-5.26a.94.94 0 1 0 0 1.87h5.26a.94.94 0 1 0 0-1.88ZM19.75 7.13h5.5a.94.94 0 1 0 0-1.88h-5.5a.94.94 0 1 0 0 1.88ZM19.75 11.5h5.5a.94.94 0 1 0 0-1.88h-5.5a.94.94 0 1 0 0 1.88ZM44.31 23.19a4.07 4.07 0 1 0-8.13 0 4.07 4.07 0 0 0 8.13 0Zm-6.25 0a2.19 2.19 0 1 1 4.38 0 2.19 2.19 0 0 1-4.38 0ZM15.38 20.13h-5.26a.94.94 0 1 0 0 1.87h5.26a.94.94 0 1 0 0-1.88ZM15.38 24.5h-5.26a.94.94 0 1 0 0 1.88h5.26a.94.94 0 1 0 0-1.88ZM25.25 20.13h-5.5a.94.94 0 1 0 0 1.87h5.5a.94.94 0 1 0 0-1.88ZM25.25 24.5h-5.5a.94.94 0 1 0 0 1.88h5.5a.94.94 0 1 0 0-1.88ZM36.19 38.06a4.07 4.07 0 1 0 8.13 0 4.07 4.07 0 0 0-8.13 0Zm6.25 0a2.19 2.19 0 1 1-4.38 0 2.19 2.19 0 0 1 4.38 0ZM15.38 35h-5.26a.94.94 0 1 0 0 1.88h5.26a.94.94 0 1 0 0-1.88ZM15.38 39.38h-5.26a.94.94 0 1 0 0 1.87h5.26a.94.94 0 1 0 0-1.88ZM25.25 35h-5.5a.94.94 0 1 0 0 1.88h5.5a.94.94 0 1 0 0-1.88ZM25.25 39.38h-5.5a.94.94 0 1 0 0 1.87h5.5a.94.94 0 1 0 0-1.88Z" fill="#3EC227"/></svg>