<svg width="16" height="16" fill="none" xmlns="http://www.w3.org/2000/svg"><g clip-path="url(#a)" fill="#333F48"><path d="M15.78 4.09a.5.5 0 0 0-.47-.05L10.5 5.96l-.81-.32a.5.5 0 0 0-.37.92l.68.28v7.92l-4-1.6V5.24l.31.12a.5.5 0 0 0 .38-.92l-1-.4a.5.5 0 0 0-.37 0H5.3l-5 2a.5.5 0 0 0-.3.46v9a.5.5 0 0 0 .68.46l4.81-1.92 4.8 1.92h.02a.5.5 0 0 0 .37 0l5-2a.5.5 0 0 0 .31-.46v-9a.5.5 0 0 0-.22-.41ZM5 13.16l-4 1.6V6.84l4-1.6v7.92Zm10 0-4 1.6V6.84l4-1.6v7.92Z"/><path d="M8 0a2 2 0 0 0-.5 3.93V9a.5.5 0 0 0 1 0V3.93A2 2 0 0 0 8 0Zm0 3a1 1 0 1 1 0-2 1 1 0 0 1 0 2Z"/></g><defs><clipPath id="a"><path fill="#fff" d="M0 0h16v16H0z"/></clipPath></defs></svg>