<svg xmlns="http://www.w3.org/2000/svg" viewBox="0 0 159.5 195" xml:space="preserve"><path d="M159.5 88.2c0-8.8-5.4-14-14.2-14.1h-3.5v-2.4c0-9.5 0-4.6-.3-14.1a56.4 56.4 0 0 0-13.8-34.7A60.4 60.4 0 0 0 98.8 3c-4.2-1.3-8.6-1.8-13-2.7L84 0h-8.4c-3.7.6-7.4 1-11 2a58.9 58.9 0 0 0-29 16.8A60.7 60.7 0 0 0 17.6 63V74.1h-5.2A13 13 0 0 0 .1 86.4v2.3L0 180.4c0 4.8 1.4 8.9 5.3 11.9a13 13 0 0 0 8 2.7h131.9c5.8 0 10.4-2.2 13-7.6.9-2 1.2-4.4 1.3-6.6V88.2zm-79.7 65.2a20.4 20.4 0 1 1 0-40.8 20.4 20.4 0 0 1 0 40.8zm35.4-80.1-.2.7H44.6l-.2-.5c0-10.4-.4-6.4.5-16.8A34.7 34.7 0 0 1 74.3 27 35 35 0 0 1 115 59.3c.4 9.5.2 4.5.2 14z" style="fill:#d2d3d5"/></svg>
