<svg width="64" height="64" viewBox="0 0 64 64" fill="none" xmlns="http://www.w3.org/2000/svg">
<g clip-path="url(#clip0_3773:1992)">
<path d="M59.2935 19.96H59.2529C59.2466 17.3906 57.8027 16.981 55.6191 16.3618L55.5752 16.3491C54.8789 16.1499 54.1782 15.9824 53.4531 15.8399C53.4629 15.6626 53.4683 15.481 53.4683 15.2944C53.4648 12.8169 52.6226 10.6807 51.0332 9.11671C49.3745 7.48439 46.9658 6.57228 44.4077 6.60353C41.8579 6.56593 39.4443 7.4839 37.7861 9.11574C36.1963 10.6802 35.354 12.8169 35.3506 15.2944C35.3506 15.6026 35.3647 15.897 35.3911 16.1802C34.0137 16.4927 32.877 16.8677 31.998 17.2998C29.7715 16.2056 25.9351 15.4834 20.8374 15.2061C20.3188 15.1792 19.8711 15.5767 19.8428 16.0977C19.8145 16.6187 20.2139 17.064 20.7349 17.0923C26.7939 17.4224 29.7095 18.3106 31.0537 18.9419V53.9199C28.5259 52.9502 24.584 52.272 20.4209 52.1279C17.2808 52.0186 11.5474 52.1411 6.63623 53.9834V19.9771C6.63623 19.126 6.81738 18.9829 6.92578 18.897C7.23926 18.6489 7.93262 18.4522 8.89209 18.1797L8.93945 18.166C11.0195 17.5757 13.1201 17.2666 16.1899 17.0996C16.7109 17.0713 17.1099 16.626 17.0815 16.105C17.0532 15.584 16.605 15.1826 16.0869 15.2129C12.8677 15.3882 10.6475 15.7173 8.42334 16.3486L8.37598 16.3623C6.19531 16.9815 4.75342 17.3916 4.74707 19.96H4.70312C2.10986 19.96 0 22.0708 0 24.6651V57.5464C0 60.5484 2.16016 63.5894 6.28906 63.5933L31.9971 63.6255H31.998H31.999L42.3472 63.6148C42.8687 63.6143 43.291 63.1909 43.2905 62.669C43.29 62.1475 42.8672 61.7256 42.3462 61.7256C42.3457 61.7256 42.3452 61.7256 42.3452 61.7256L32.9429 61.7349V58.8555H56.3599C57.9551 58.8555 59.2529 57.5357 59.2529 55.9136V21.8491H59.293C60.8467 21.8491 62.1108 23.1123 62.1108 24.6651V57.5464C62.1108 59.5464 60.7329 61.7012 57.7085 61.7041L46.7231 61.7183C46.2012 61.7188 45.7788 62.1426 45.7798 62.6641C45.7803 63.1856 46.2031 63.6074 46.7246 63.6074H46.7256L57.7104 63.5933C61.8398 63.5894 64 60.5484 64 57.5464V24.6651C64 22.0708 61.8887 19.96 59.2935 19.96V19.96ZM39.1108 10.4629C40.4146 9.18019 42.3433 8.45851 44.3936 8.49269H44.4219C46.4731 8.45753 48.4043 9.18068 49.708 10.4634C50.9292 11.6651 51.5762 13.3364 51.5791 15.2969C51.582 17.7525 50.5063 19.0484 49.2612 20.5488C48.1753 21.8569 46.9614 23.3198 46.6943 25.6079H45.3521V19.0625H46.8345C47.356 19.0625 47.7788 18.6397 47.7788 18.1182C47.7788 17.5962 47.356 17.1734 46.8345 17.1734H41.8853C41.3633 17.1734 40.9404 17.5962 40.9404 18.1182C40.9404 18.6397 41.3633 19.0625 41.8853 19.0625H43.4629V25.6079H42.1245C41.8574 23.3198 40.6436 21.8569 39.5576 20.5488C38.312 19.0484 37.2368 17.7525 37.2397 15.2969C37.2427 13.3359 37.8896 11.6646 39.1108 10.4629V10.4629ZM41.4604 27.4971H47.3584C48.1172 27.4971 48.7344 28.1138 48.7344 28.8716C48.7344 29.6275 48.1172 30.2427 47.3584 30.2427H41.4604C40.7017 30.2427 40.0845 29.6275 40.0845 28.8716C40.0845 28.1138 40.7017 27.4971 41.4604 27.4971ZM38.104 21.7554C39.1416 23.0054 40.0522 24.1055 40.2485 25.8418C39.0469 26.3237 38.1953 27.5 38.1953 28.8716C38.1953 30.6694 39.6602 32.1318 41.4604 32.1318H47.3584C49.1587 32.1318 50.6235 30.6694 50.6235 28.8716C50.6235 27.5 49.772 26.3237 48.5703 25.8418C48.7666 24.1055 49.6772 23.0049 50.7148 21.7549C51.6328 20.6494 52.6372 19.438 53.1411 17.7046C53.7944 17.8345 54.4282 17.9859 55.0571 18.166L55.1035 18.1792C56.0649 18.4517 56.7593 18.6489 57.0742 18.8975C57.1826 18.9829 57.3638 19.126 57.3638 19.9771V53.9834C52.4507 52.1411 46.7178 52.0191 43.5767 52.1279C39.4141 52.272 35.4712 52.9507 32.9429 53.9199V18.9424C33.5342 18.6641 34.4336 18.3369 35.7798 18.0288C36.3091 19.5913 37.2441 20.7197 38.104 21.7554V21.7554ZM31.0537 55.9697V56.9663H7.63623C7.1167 56.9663 6.68896 56.5469 6.64111 56.0132C14.459 52.7442 26.8569 53.9873 31.0537 55.9697ZM1.88916 57.5464V24.6651C1.88916 23.1123 3.15186 21.8491 4.70312 21.8491H4.74707V55.9141C4.74707 57.5361 6.04346 58.8555 7.63672 58.8555H31.0537V61.7349L6.29102 61.7041C3.26709 61.7012 1.88916 59.5464 1.88916 57.5464V57.5464ZM56.3599 56.9663H32.9429V55.9702C37.1411 53.9883 49.5415 52.7456 57.3589 56.0132C57.3091 56.5391 56.8721 56.9663 56.3599 56.9663Z" fill="#3EC227"/>
<path d="M27.4039 38.3623C25.9205 37.5014 22.9791 36.8965 19.7266 36.7837C17.5582 36.709 13.4288 36.8086 10.1402 38.3213C9.6661 38.539 9.45858 39.1001 9.67635 39.5742C9.83553 39.9204 10.1778 40.124 10.5352 40.124C10.6676 40.124 10.8014 40.0962 10.9293 40.0376C15.8697 37.7656 24.1793 38.6753 26.4552 39.9961C26.9063 40.2583 27.4845 40.1049 27.7467 39.6533C28.0084 39.2026 27.8551 38.6245 27.4039 38.3623V38.3623Z" fill="#3EC227"/>
<path d="M27.4039 45.2954C25.9205 44.4345 22.9791 43.8295 19.7266 43.7167C17.5582 43.6415 13.4288 43.7416 10.1402 45.2543C9.6661 45.4721 9.45858 46.0331 9.67635 46.5073C9.83553 46.8535 10.1778 47.0571 10.5352 47.0571C10.6676 47.0571 10.8014 47.0292 10.9293 46.9706C15.8697 44.6987 24.1793 45.6083 26.4552 46.9291C26.9063 47.1909 27.4845 47.038 27.7467 46.5864C28.0084 46.1357 27.8551 45.5576 27.4039 45.2954V45.2954Z" fill="#3EC227"/>
<path d="M27.4038 31.4292C25.9199 30.5679 22.978 29.9624 19.7265 29.8496C17.5571 29.7739 13.4272 29.8736 10.1396 31.3882C9.66551 31.6065 9.45848 32.1675 9.67674 32.6416C9.83592 32.9873 10.1782 33.1909 10.5351 33.1909C10.6675 33.1909 10.8017 33.1631 10.9302 33.1045C15.8672 30.8301 24.1777 31.7407 26.4551 33.063C26.9062 33.3247 27.4844 33.1714 27.7466 32.7202C28.0083 32.2691 27.855 31.6909 27.4038 31.4292V31.4292Z" fill="#3EC227"/>
<path d="M37.5465 39.9961C39.8204 38.6738 48.1276 37.7637 53.068 40.0376C53.1959 40.0967 53.3302 40.124 53.4625 40.124C53.82 40.124 54.1618 39.9204 54.3214 39.5742C54.5392 39.1006 54.3317 38.5396 53.858 38.3213C50.5714 36.8086 46.4415 36.7085 44.2731 36.7842C41.0197 36.8965 38.0783 37.5015 36.5973 38.3628C36.1461 38.625 35.9928 39.2031 36.255 39.6543C36.5172 40.1055 37.0953 40.2583 37.5465 39.9961V39.9961Z" fill="#3EC227"/>
<path d="M53.8577 45.2543C50.571 43.7416 46.4412 43.6415 44.2727 43.7167C41.0193 43.8295 38.0784 44.4345 36.5969 45.2958C36.1458 45.558 35.9929 46.1362 36.2551 46.5873C36.5173 47.0385 37.0955 47.1913 37.5466 46.9291C39.8206 45.6069 48.1272 44.6967 53.0681 46.9706C53.196 47.0297 53.3303 47.0576 53.4622 47.0576C53.8201 47.0576 54.1619 46.8535 54.321 46.5073C54.5393 46.0336 54.3318 45.4726 53.8577 45.2543V45.2543Z" fill="#3EC227"/>
<path d="M44.415 4.74268C44.937 4.74268 45.3599 4.31982 45.3599 3.79834V1.31982C45.3599 0.797852 44.937 0.375 44.415 0.375C43.8936 0.375 43.4707 0.797852 43.4707 1.31982V3.79834C43.4707 4.31982 43.8936 4.74268 44.415 4.74268Z" fill="#3EC227"/>
<path d="M35.71 6.67627C35.8945 6.86035 36.1362 6.95264 36.3779 6.95264C36.6196 6.95264 36.8613 6.86035 37.0459 6.67578C37.415 6.30664 37.4146 5.7085 37.0454 5.33984L35.2886 3.5835C34.9194 3.21484 34.3213 3.21484 33.9526 3.58398C33.5835 3.95264 33.5835 4.55078 33.9526 4.91992L35.71 6.67627Z" fill="#3EC227"/>
<path d="M52.4525 6.95264C52.6946 6.95264 52.9363 6.86035 53.1209 6.67529L54.8743 4.91895C55.243 4.54981 55.2425 3.95166 54.8734 3.58301C54.5042 3.21484 53.9061 3.21484 53.5374 3.58447L51.784 5.34033C51.4153 5.70947 51.4158 6.30762 51.785 6.67627C51.9695 6.86035 52.2112 6.95264 52.4525 6.95264Z" fill="#3EC227"/>
<path d="M9.67635 25.7041C9.83553 26.0503 10.1778 26.2544 10.5352 26.2544C10.6676 26.2544 10.8014 26.2266 10.9293 26.168C15.8648 23.8979 24.1768 24.8071 26.4561 26.127C26.9073 26.3887 27.4854 26.2344 27.7472 25.7832C28.0084 25.3315 27.8546 24.7534 27.4029 24.4922C25.919 23.6328 22.9776 23.0283 19.7266 22.9155C17.5577 22.8403 13.4278 22.9395 10.1402 24.4512C9.6661 24.6694 9.45858 25.2305 9.67635 25.7041Z" fill="#3EC227"/>
</g>
<defs>
<clipPath id="clip0_3773:1992">
<rect width="64" height="64" fill="white"/>
</clipPath>
</defs>
</svg>
