<svg width="64" height="64" fill="none" xmlns="http://www.w3.org/2000/svg"><g clip-path="url(#a)" fill="#3EC227"><path d="M62.74 14.92h-1.47c-.1-.27-.21-.54-.33-.8l1.03-1.04c.5-.5.5-1.3 0-1.79l-2.92-2.92a1.25 1.25 0 0 0-1.78 0l-1.04 1.04a9.75 9.75 0 0 0-.8-.34V7.61c0-.7-.57-1.26-1.27-1.26h-4.13c-.7 0-1.26.56-1.26 1.26v1.46c-.27.1-.54.22-.8.34l-1.04-1.04c-.5-.49-1.3-.49-1.79 0l-2.92 2.92c-.5.5-.5 1.3 0 1.79l1.04 1.04c-.13.26-.24.53-.34.8h-1.46c-.7 0-1.27.57-1.27 1.26v4.13c0 .7.57 1.27 1.27 1.27h1.46c.1.27.21.54.34.8l-1.04 1.04a1.25 1.25 0 0 0 0 1.79l2.92 2.92c.5.49 1.3.49 1.79 0l1.03-1.04.8.33v1.47c0 .7.58 1.26 1.27 1.26h4.13c.7 0 1.26-.56 1.26-1.26v-1.47c.28-.1.55-.2.81-.33l1.04 1.04a1.25 1.25 0 0 0 1.78 0l2.92-2.92a1.25 1.25 0 0 0 0-1.79l-1.03-1.04c.12-.26.23-.53.33-.8h1.47c.7 0 1.26-.57 1.26-1.27v-4.13c0-.7-.57-1.26-1.26-1.26Zm-.62 4.78H60.6a.94.94 0 0 0-.9.69c-.17.6-.41 1.17-.72 1.71-.2.37-.14.83.16 1.13l1.08 1.08-2.05 2.06-1.09-1.09a.94.94 0 0 0-1.12-.15c-.54.3-1.12.54-1.72.7a.94.94 0 0 0-.68.91v1.54h-2.9v-1.54a.94.94 0 0 0-.69-.9c-.6-.17-1.18-.4-1.72-.71a.94.94 0 0 0-1.12.15l-1.09 1.09-2.05-2.06 1.09-1.08c.3-.3.36-.76.15-1.13a7.84 7.84 0 0 1-.71-1.71.94.94 0 0 0-.9-.69h-1.54v-2.9h1.53c.42 0 .8-.28.9-.69.18-.6.42-1.17.72-1.72a.94.94 0 0 0-.16-1.12l-1.08-1.08 2.05-2.06 1.09 1.09c.3.3.76.36 1.12.15.54-.3 1.12-.54 1.72-.7.4-.12.68-.5.68-.91V8.22h2.9v1.54c0 .42.29.79.7.9.6.17 1.17.4 1.71.71.37.2.83.15 1.12-.15l1.09-1.09 2.05 2.06-1.08 1.08c-.3.3-.36.76-.16 1.12.3.55.55 1.12.72 1.72.1.4.48.69.9.69h1.53v2.9Z"/><path d="M52.1 13.24a5.02 5.02 0 1 0 0 10.03 5.02 5.02 0 0 0 0-10.03Zm0 8.15a3.14 3.14 0 1 1 0-6.29 3.14 3.14 0 0 1 0 6.29ZM18.22 38.86l-2.53-2.7 2.53-2.69a.94.94 0 0 0-1.36-1.28l-3.14 3.33a.94.94 0 0 0 0 1.29l3.14 3.33a.94.94 0 0 0 1.36-1.28ZM29.72 35.52l-3.14-3.33a.94.94 0 1 0-1.37 1.28l2.54 2.7-2.54 2.69a.94.94 0 0 0 1.37 1.28l3.14-3.33a.94.94 0 0 0 0-1.29ZM23 31.94a.94.94 0 0 0-1.18.6l-2.2 6.67a.94.94 0 0 0 1.79.58l2.19-6.67a.94.94 0 0 0-.6-1.18Z"/><path d="M42.04 34.92c.52 0 .94-.42.94-.94V32.3c0-.86-.7-1.55-1.55-1.55H38.1a17.4 17.4 0 0 0-1.04-2.5l2.36-2.36c.6-.6.6-1.58 0-2.18l-5.47-5.48c-.6-.6-1.59-.6-2.19 0L29.4 20.6c-.8-.4-1.64-.75-2.5-1.03v-3.34c0-.85-.69-1.54-1.54-1.54h-7.74c-.85 0-1.55.69-1.55 1.54v3.34c-.86.28-1.7.62-2.5 1.03l-2.35-2.36c-.6-.6-1.59-.6-2.19 0l-5.47 5.48a1.54 1.54 0 0 0 0 2.18l2.35 2.36c-.4.8-.75 1.64-1.03 2.5H1.55c-.86 0-1.55.7-1.55 1.55v7.74c0 .85.7 1.54 1.55 1.54h3.33c.28.86.63 1.7 1.03 2.5l-2.35 2.36a1.54 1.54 0 0 0 0 2.18l5.47 5.48c.6.6 1.59.6 2.19 0l2.35-2.36c.8.4 1.64.75 2.5 1.03v3.34c0 .85.7 1.54 1.55 1.54h7.74c.85 0 1.55-.69 1.55-1.54v-3.34c.85-.28 1.69-.62 2.5-1.03l2.35 2.36c.6.6 1.58.6 2.19 0l5.47-5.48c.6-.6.6-1.58 0-2.18l-2.36-2.36c.41-.8.76-1.64 1.04-2.5h3.33c.85 0 1.55-.7 1.55-1.54v-1.69a.94.94 0 1 0-1.88 0v1.36h-3.7a.94.94 0 0 0-.9.68c-.33 1.19-.8 2.33-1.4 3.4-.21.37-.15.83.15 1.12l2.61 2.62-5 5-2.62-2.6a.94.94 0 0 0-1.12-.16c-1.08.6-2.22 1.07-3.4 1.4a.94.94 0 0 0-.69.91v3.7h-7.08v-3.7a.94.94 0 0 0-.69-.9c-1.18-.34-2.33-.81-3.4-1.41a.94.94 0 0 0-1.12.15l-2.62 2.62-5-5.01 2.61-2.62c.3-.3.36-.75.16-1.12a15.53 15.53 0 0 1-1.41-3.4.94.94 0 0 0-.9-.68h-3.7v-7.09h3.7c.41 0 .78-.28.9-.68.33-1.19.8-2.33 1.4-3.4a.94.94 0 0 0-.15-1.12L5.12 24.8l5-5 2.62 2.6c.3.3.76.37 1.12.16 1.07-.6 2.22-1.07 3.4-1.4.4-.12.69-.49.69-.9v-3.7h7.08v3.7c0 .41.28.78.68.9 1.19.33 2.33.8 3.4 1.4.37.2.83.15 1.13-.15l2.61-2.62 5.01 5.01-2.61 2.62c-.3.3-.36.75-.16 1.12.6 1.07 1.08 2.21 1.41 3.4.11.4.48.68.9.68h3.7v1.36c0 .52.42.94.94.94Z"/><path d="M23.85 23.9a.94.94 0 0 0-.34 1.85 10.58 10.58 0 1 1-4.02.03.94.94 0 0 0-.37-1.83 12.48 12.48 0 0 0 2.46 24.68 12.48 12.48 0 0 0 2.27-24.72Z"/></g><defs><clipPath id="a"><path fill="#fff" d="M0 0h64v64H0z"/></clipPath></defs></svg>