<svg width="16" height="16" fill="none" xmlns="http://www.w3.org/2000/svg"><path d="M14.3 15.6H9.9c-.8 0-1.4-.6-1.4-1.3V8.8c0-.7.6-1.3 1.4-1.3h4.4c.7 0 1.3.6 1.3 1.3v5.5c0 .7-.6 1.3-1.3 1.3Zm-4.4-7c-.1 0-.3 0-.3.2v5.5l.3.2h4.4c.1 0 .2 0 .2-.2V8.8c0-.1 0-.3-.2-.3H9.9ZM14.3 6.4H9.9C9 6.4 8.5 5.8 8.5 5V1.7C8.5 1 9.1.4 10 .4h4.4c.7 0 1.3.6 1.3 1.3V5c0 .8-.6 1.4-1.3 1.4Zm-4.4-5-.3.3V5c0 .2.2.3.3.3h4.4c.1 0 .2-.1.2-.3V1.7c0-.1 0-.2-.2-.2H9.9ZM6.1 8.5H1.7C1 8.5.4 8 .4 7.2V1.7C.4 1 1 .4 1.7.4h4.4c.8 0 1.4.6 1.4 1.3v5.5c0 .7-.6 1.3-1.4 1.3Zm-4.4-7c-.1 0-.2 0-.2.2v5.5c0 .1 0 .3.2.3h4.4l.3-.3V1.7L6 1.5H1.7ZM6.1 15.6H1.7C1 15.6.4 15 .4 14.3V11c0-.8.6-1.4 1.3-1.4h4.4c.8 0 1.4.6 1.4 1.4v3.3c0 .7-.6 1.3-1.4 1.3Zm-4.4-4.9c-.1 0-.2.1-.2.3v3.3c0 .1 0 .2.2.2h4.4c.1 0 .3 0 .3-.2V11c0-.2-.2-.3-.3-.3H1.7Z" fill="#333F48"/></svg>