<svg width="24" height="24" fill="none" xmlns="http://www.w3.org/2000/svg"><path d="M19.4 14.2a2.8 2.8 0 1 0 0 5.6 2.8 2.8 0 0 0 0-5.6Zm0 4a1.2 1.2 0 1 1 0-2.4 1.2 1.2 0 0 1 0 2.4ZM15.4 4.2H.8c-.5 0-.8.4-.8.8v12c0 .4.3.7.8.7h2.4v-1.5H1.5V5.8h13.2v11.1h1.5V5c0-.4-.3-.8-.8-.8Z" fill="#333F48"/><path d="M17.4 16.2H7v1.5h10.4v-1.5Z" fill="#333F48"/><path d="M5 14.2a2.8 2.8 0 1 0 0 5.6 2.8 2.8 0 0 0 0-5.6Zm0 4a1.2 1.2 0 1 1 0-2.4 1.2 1.2 0 0 1 0 2.4ZM23.2 10.7h-7.8v1.5h7v4h-1v1.5h1.8c.5 0 .8-.3.8-.8v-5.5c0-.4-.3-.7-.8-.7Z" fill="#333F48"/><path d="M20.9 7.5a.8.8 0 0 0-.7-.4h-4.8v1.5h4.3l1.8 3.2 1.4-.7-2-3.6Z" fill="#333F48"/></svg>