<svg width="64" height="64" fill="none" xmlns="http://www.w3.org/2000/svg"><g clip-path="url(#a)" fill="#3EC227"><path d="M44.6 5.24a17 17 0 0 0-9.68-3 17.04 17.04 0 0 0-15.23 9.32c-.48.93-1.33.81-2.16.81-5.15 0-9.72 3.27-11.39 8.13-.14.43-.5.78-.99.95a7.68 7.68 0 0 0-5.14 7.58 7.8 7.8 0 0 0 7.85 7.4h2.82v3.4H7.94a2.93 2.93 0 1 0 0 1.87h3.68c.52 0 .94-.42.94-.94v-4.32h8.47v12.51H15.4a3.36 3.36 0 1 0 0 1.88h6.56c.51 0 .93-.42.93-.94V36.44h8.47V53.9a4 4 0 1 0 1.87 0V36.44h2.04a.94.94 0 1 0 0-1.88H7.86a5.97 5.97 0 0 1-5.98-5.6 5.81 5.81 0 0 1 3.9-5.74 3.42 3.42 0 0 0 2.14-2.1c1.4-4.12 5.27-6.87 9.6-6.87.65 0 2.78.24 3.84-1.84a15.17 15.17 0 0 1 13.56-8.3c3.1 0 6.08.92 8.62 2.67a.94.94 0 1 0 1.06-1.54ZM5.17 41.82a1.05 1.05 0 1 1 0-2.11 1.05 1.05 0 0 1 0 2.1Zm7.02 9.55a1.48 1.48 0 1 1 0-2.96 1.48 1.48 0 0 1 0 2.96Zm22.23 6.41a2.11 2.11 0 1 1-4.23 0 2.11 2.11 0 0 1 4.23 0Z"/><path d="M51.52 34.56H39.66a.94.94 0 1 0 0 1.88h2.04v13.45c0 .52.42.94.94.94h6.56a3.36 3.36 0 1 0 0-1.88h-5.62V36.44h7.94c.2 0 .4 0 .6-.02v4.34c0 .52.41.94.93.94h3.68a2.93 2.93 0 1 0 0-1.87H54v-3.64c5.7-1.16 10.12-6.18 10-12.24a12.24 12.24 0 0 0-12.67-12.01c-.56.02-1.1-.3-1.38-.8a17.18 17.18 0 0 0-1.9-2.77.94.94 0 1 0-1.44 1.2c.65.77 1.21 1.6 1.7 2.48a3.42 3.42 0 0 0 3.09 1.76 10.37 10.37 0 0 1 10.73 10.17c.12 5.86-4.81 10.58-10.6 10.58Zm.9 13.85a1.48 1.48 0 1 1 0 2.96 1.48 1.48 0 0 1 0-2.96Zm7.08-8.7a1.05 1.05 0 1 1 0 2.1 1.05 1.05 0 0 1 0-2.1Z"/></g><defs><clipPath id="a"><path fill="#fff" d="M0 0h64v64H0z"/></clipPath></defs></svg>