<svg width="20" height="19" viewBox="0 0 20 19" fill="none" xmlns="http://www.w3.org/2000/svg">
<path fill-rule="evenodd" clip-rule="evenodd" d="M9.99935 1.91666C5.81119 1.91666 2.41602 5.31184 2.41602 9.5C2.41602 13.6882 5.81119 17.0833 9.99935 17.0833C14.1875 17.0833 17.5827 13.6882 17.5827 9.5C17.5827 5.31184 14.1875 1.91666 9.99935 1.91666ZM0.916016 9.5C0.916016 4.48341 4.98276 0.416664 9.99935 0.416664C15.0159 0.416664 19.0827 4.48341 19.0827 9.5C19.0827 14.5166 15.0159 18.5833 9.99935 18.5833C4.98276 18.5833 0.916016 14.5166 0.916016 9.5ZM9.99935 7.91666C10.4136 7.91666 10.7493 8.25245 10.7493 8.66666V12.8333C10.7493 13.2475 10.4136 13.5833 9.99935 13.5833C9.58514 13.5833 9.24935 13.2475 9.24935 12.8333V8.66666C9.24935 8.25245 9.58514 7.91666 9.99935 7.91666ZM9.99935 7C10.4596 7 10.8327 6.6269 10.8327 6.16666C10.8327 5.70643 10.4596 5.33333 9.99935 5.33333C9.53911 5.33333 9.16602 5.70643 9.16602 6.16666C9.16602 6.6269 9.53911 7 9.99935 7Z" fill="#3EC227"/>
</svg>
