<svg width="21" height="21" viewBox="0 0 21 21" fill="none" xmlns="http://www.w3.org/2000/svg">
<path fill-rule="evenodd" clip-rule="evenodd" d="M20.3054 3.58851C20.0398 2.91569 19.6926 2.32442 19.1206 1.75354C18.5486 1.18266 17.9766 0.836051 17.2821 0.571C16.6284 0.305948 15.8726 0.142839 14.7695 0.0816735C13.6664 0.0408964 13.3191 0.0205078 10.5001 0.0205078C7.68109 0.0205078 7.33381 0.0205078 6.23072 0.0816735C5.12762 0.122451 4.37181 0.305948 3.71812 0.571C3.04401 0.836051 2.4516 1.18266 1.87963 1.75354C1.30765 2.32442 0.96038 2.8953 0.69482 3.58851C0.429261 4.24094 0.265844 4.99532 0.204561 6.0963C0.163705 7.19729 0.14328 7.54389 0.14328 10.3575C0.14328 13.1711 0.143278 13.5177 0.204561 14.6187C0.245416 15.7197 0.429261 16.4741 0.69482 17.1265C0.96038 17.7993 1.30765 18.3906 1.87963 18.9615C2.4516 19.5324 3.02358 19.879 3.71812 20.144C4.37181 20.4091 5.12762 20.5722 6.23072 20.6334C7.33381 20.6741 7.68109 20.6945 10.5001 20.6945C13.3191 20.6945 13.6664 20.6945 14.7695 20.6334C15.8726 20.5926 16.6284 20.4091 17.2821 20.144C17.9562 19.879 18.5486 19.5324 19.1206 18.9615C19.6926 18.3906 20.0398 17.8197 20.3054 17.1265C20.5709 16.4741 20.7344 15.7197 20.7957 14.6187C20.8365 13.5177 20.8569 13.1711 20.8569 10.3575C20.8569 7.54389 20.8569 7.19729 20.7957 6.0963C20.7548 4.99532 20.5709 4.24094 20.3054 3.58851ZM10.5001 15.6585C7.55852 15.6585 5.18892 13.2935 5.18892 10.3575C5.18892 7.42156 7.55852 5.05649 10.5001 5.05649C13.4417 5.05649 15.8113 7.42156 15.8113 10.3575C15.8113 13.2935 13.4417 15.6585 10.5001 15.6585ZM16.0156 6.0963C15.321 6.0963 14.7695 5.54581 14.7695 4.8526C14.7695 4.15939 15.321 3.6089 16.0156 3.6089C16.7101 3.6089 17.2617 4.15939 17.2617 4.8526C17.2617 5.54581 16.7101 6.0963 16.0156 6.0963ZM13.9524 10.3575C13.9524 12.2537 12.3999 13.8032 10.5001 13.8032C8.60034 13.8032 7.04783 12.2537 7.04783 10.3575C7.04783 8.46138 8.60034 6.91185 10.5001 6.91185C12.3999 6.91185 13.9524 8.46138 13.9524 10.3575Z" fill="white"/>
</svg>
