<svg width="49" height="48" fill="none" xmlns="http://www.w3.org/2000/svg"><g clip-path="url(#clip0)" stroke-width="3" stroke-linecap="round" stroke-linejoin="round"><path d="M15.49 43.5h-1.58a3 3 0 01-3-3v-12a3 3 0 013-3h18a3 3 0 013 3v10.58M34.91 28.5h6a6 6 0 016 6v6a3 3 0 01-3 3h-4.57" stroke="#3EC227"/><path d="M35.66 46.5a3.75 3.75 0 100-7.5 3.75 3.75 0 000 7.5zM19.16 46.5a3.75 3.75 0 100-7.5 3.75 3.75 0 000 7.5zM31.99 43.5h-9.15M46.91 34.5h-6" stroke="#3EC227"/><path d="M3.93 27.78A18 18 0 1137.9 19.5M19.91 1.5a23.71 23.71 0 00-7.5 18M19.91 1.5a23.71 23.71 0 017.5 18M2.94 13.5h33.94" stroke="#858C91"/></g><defs><clipPath id="clip0"><path fill="#fff" transform="translate(.41)" d="M0 0h48v48H0z"/></clipPath></defs></svg>