<svg width="40" height="40" fill="none" xmlns="http://www.w3.org/2000/svg"><path d="M37.5 26.25a2.5 2.5 0 0 1-2.5 2.5h-1.25a.63.63 0 0 1-.63-.63v-2.18a2.19 2.19 0 0 0-4.35-.32H27.5v1.25h1.35c.08.4.2.77.39 1.12l.14.28v2.9a3.83 3.83 0 0 0 2.5 3.6v3.98h1.25V35h1.24v3.75h1.26v-3.93a4.38 4.38 0 0 0 3.12-4.2v-4.37H37.5Zm0 4.38a3.13 3.13 0 0 1-3.13 3.12H33.2a2.58 2.58 0 0 1-2.58-2.58v-3.2l-.27-.54a3.36 3.36 0 0 1-.35-1.5.94.94 0 0 1 1.88 0v2.2A1.88 1.88 0 0 0 33.74 30H35c.92 0 1.81-.34 2.5-.96v1.59ZM10 6.25H8.75V7.5H10V6.25Z" fill="#333F48"/><path d="M27.5 20.63a1.87 1.87 0 0 0 3.13 1.4 1.87 1.87 0 0 0 3.12-1.4V9.38a4.36 4.36 0 0 0-1.32-3.13h.7A1.88 1.88 0 0 1 35 8.13V15h1.25V8.13A3.13 3.13 0 0 0 33.12 5h-17.3c.69-.9 1.06-2 1.05-3.12v-.63h-.62a5.12 5.12 0 0 0-3.64 1.5l-.37.38h-.44a2.5 2.5 0 0 0-2.43-1.88H8.12V2.5h1.25a1.25 1.25 0 0 1 1.09.63h-.05a3.1 3.1 0 0 0-2.2.91L4.7 7.54a2.54 2.54 0 0 0 1.8 4.33h3.36a2.02 2.02 0 0 1 2.02 2.02v6.73a1.87 1.87 0 0 0 3.12 1.4 1.87 1.87 0 0 0 3.13-1.4v-3.24c0-.17 0-.34.04-.5h.69a.62.62 0 0 1 .44.18l.41.4c.27.28.58.52.91.71v1.2h1.25v-.72c.31.07.62.1.93.1h.02c.31 0 .62-.03.93-.1v.73H25v-1.21c.33-.2.64-.43.92-.7l.4-.41a.62.62 0 0 1 .45-.18h.73v3.75Zm2.5 0a.63.63 0 0 1-1.25 0v-4.6A2.75 2.75 0 0 1 30 18.35v2.27Zm-.63-14.38a3.13 3.13 0 0 1 3.13 3.13v1.24h-.55a.7.7 0 0 1-.7-.7 1.94 1.94 0 0 0-.57-1.38l-1.1-1.1a.7.7 0 0 1-.2-.49v-.7Zm-10.62 0h6L23.7 7.29a1.94 1.94 0 0 0-.57 1.38.7.7 0 0 1-.7.7h-1.88a.7.7 0 0 1-.5-.2l-1.1-1.1a.7.7 0 0 1-.2-.5V6.26Zm8.02 9.38a1.86 1.86 0 0 0-1.33.54l-.4.41a3.1 3.1 0 0 1-2.22.92h-.02a3.1 3.1 0 0 1-2.2-.92l-.42-.4a1.86 1.86 0 0 0-1.32-.55h-.2c.47-.71.72-1.54.71-2.38v-1.38h-1.25v1.38c0 .61-.18 1.2-.52 1.72a4.33 4.33 0 0 0-.73 2.4v3.25a.63.63 0 0 1-1.25 0v-8.75h-1.24v8.76a.63.63 0 0 1-1.26 0v-6.74a3.27 3.27 0 0 0-3.26-3.27H7.42l.6-.9-1.04-.7-1 1.5a1.29 1.29 0 0 1-.4-2.1l3.5-3.5a1.86 1.86 0 0 1 1.33-.54H11l-.8.8.88.89 2.42-2.43a3.87 3.87 0 0 1 2.08-1.08 3.87 3.87 0 0 1-1.09 2.07l-1.17 1.18.88.88.44-.44h2.87v1.33a1.94 1.94 0 0 0 .57 1.38l1.1 1.1a1.94 1.94 0 0 0 1.38.56h1.87a1.95 1.95 0 0 0 1.95-1.95.7.7 0 0 1 .21-.5l1.93-1.92h1.61v.7a1.94 1.94 0 0 0 .58 1.38l1.1 1.1a.7.7 0 0 1 .2.5 1.95 1.95 0 0 0 1.95 1.95h.55v8.74a.63.63 0 0 1-1.25 0v-2.5a4 4 0 0 0-2.22-3.37 2.75 2.75 0 0 1-1.53-2.47v-.4h-1.25v.4a4 4 0 0 0 1.25 2.91v.44h-.73Z" fill="#333F48"/><path d="M22.5 23.75H9.35a.62.62 0 0 1-.49-.23l-.95-1.2a4.5 4.5 0 0 0-3.54-1.7h-.62v.89c0 1.1.4 2.18 1.14 3l-.86 2.16a.63.63 0 0 1-.43.38l-.93.23a1.87 1.87 0 0 0-1.42 1.82v.08a1.87 1.87 0 0 0 1.14 1.72l3.23 1.39v4.59a1.87 1.87 0 0 0 3.13 1.4 1.87 1.87 0 0 0 3.13-1.4v-2.25c0-.24.05-.48.16-.69a8.84 8.84 0 0 0 7.96.22v2.72a1.87 1.87 0 0 0 3.13 1.4 1.87 1.87 0 0 0 3.12-1.4V27.5a3.75 3.75 0 0 0-3.75-3.75Zm0 13.13a.62.62 0 1 1-1.25 0v-4.25l.49.32a1.7 1.7 0 0 1 .76 1.42v2.5Zm2.5 0a.62.62 0 1 1-1.25 0v-2.5a2.96 2.96 0 0 0-1.32-2.47l-1.67-1.11a1.7 1.7 0 0 1-.76-1.43h-1.25A2.95 2.95 0 0 0 20 31.8v.96a7.6 7.6 0 0 1-7.2.17c.21-.4.33-.85.32-1.3v-2.25h-1.24v2.25a1.5 1.5 0 0 1-.45 1.06 2.74 2.74 0 0 0-.8 1.95v2.24a.62.62 0 1 1-1.26 0v-5.62H8.13v5.63a.63.63 0 0 1-1.26 0v-5.42l-4-1.71a.62.62 0 0 1-.37-.57v-.08a.62.62 0 0 1 .47-.6l.94-.24a1.88 1.88 0 0 0 1.28-1.12l1.17-2.92-.4-.4a3.25 3.25 0 0 1-.93-1.88c.75.15 1.43.56 1.9 1.16l.96 1.2a1.87 1.87 0 0 0 1.46.7H22.5c.55 0 1.09.18 1.53.52l-.42.28a2.5 2.5 0 0 0-1.11 2.08v.87h1.25v-.87a1.25 1.25 0 0 1 .56-1.04l.49-.33c.13.31.2.65.2.99v9.38Z" fill="#333F48"/><path d="M8.13 26.25H6.87v1.25h1.25v-1.25Z" fill="#333F48"/></svg>