<svg width="20" height="20" viewBox="0 0 20 20" fill="none" xmlns="http://www.w3.org/2000/svg">
<path d="M17.6097 11.4876L17.1625 9.10517C17.0399 8.43638 16.8286 7.92571 16.5163 7.54412C16.1136 7.0523 15.5489 6.79226 14.8828 6.79226H13.0469V3.5168C13.0469 3.06508 12.6971 2.69897 12.2656 2.69897C11.8341 2.69897 11.4844 3.06508 11.4844 3.5168V11.4539H3.90625C3.47473 11.4539 3.125 11.82 3.125 12.2717C3.125 12.7233 3.47473 13.0895 3.90625 13.0895H16.9141C16.9865 13.0895 17.0563 13.0783 17.1228 13.059C17.8616 13.1475 18.4375 13.8058 18.4375 14.6025V16.7288H16.7406C16.4182 15.7768 15.5498 15.0932 14.5312 15.0932C13.5127 15.0932 12.6443 15.7768 12.3219 16.7288H7.48276C7.16034 15.7768 6.29196 15.0932 5.27344 15.0932C4.25552 15.0932 3.3876 15.7762 3.06458 16.7272C2.23099 16.6939 1.5625 15.9738 1.5625 15.0932V3.5168C1.5625 3.06508 1.21277 2.69897 0.78125 2.69897C0.349731 2.69897 0 3.06508 0 3.5168V15.0932C0 16.8753 1.36871 18.3282 3.06351 18.3627C3.38562 19.3155 4.25446 20.0001 5.27344 20.0001C6.29196 20.0001 7.16034 19.3163 7.48276 18.3645H12.3219C12.6443 19.3163 13.5127 20.0001 14.5312 20.0001C15.5498 20.0001 16.4182 19.3163 16.7406 18.3645H19.2188C19.6503 18.3645 20 17.9982 20 17.5467V14.6025C20 13.0796 18.9752 11.8027 17.6097 11.4876ZM13.0469 8.42791H14.8828C15.1213 8.42791 15.4478 8.42791 15.6282 9.41473C15.6284 9.41617 15.6287 9.41745 15.629 9.41889L16.011 11.4539H13.0469V8.42791ZM5.27344 18.3645C4.84268 18.3645 4.49219 17.9976 4.49219 17.5467C4.49219 17.0956 4.84268 16.7288 5.27344 16.7288C5.70419 16.7288 6.05469 17.0956 6.05469 17.5467C6.05469 17.9976 5.70419 18.3645 5.27344 18.3645ZM14.5312 18.3645C14.1005 18.3645 13.75 17.9976 13.75 17.5467C13.75 17.0956 14.1005 16.7288 14.5312 16.7288C14.962 16.7288 15.3125 17.0956 15.3125 17.5467C15.3125 17.9976 14.962 18.3645 14.5312 18.3645Z" fill="#333F48"/>
<path d="M9.61931 7.44375C9.92189 7.12189 9.91807 6.60404 9.61061 6.28729C9.30315 5.97038 8.80861 5.97438 8.50572 6.29623L7.3047 7.57345L7.3047 0.817757C7.3047 0.366036 6.95497 -6.79752e-05 6.52345 -6.80147e-05C6.09193 -6.80542e-05 5.7422 0.366036 5.7422 0.817757L5.7422 7.53208L4.54118 6.25502C4.38829 6.09242 4.18642 6.01095 3.98439 6.01095C3.78648 6.01095 3.58842 6.08922 3.43629 6.24592C3.12883 6.56283 3.12501 7.08068 3.4276 7.40254L5.16374 9.24855C5.53148 9.63942 6.02113 9.85474 6.54283 9.85474C7.06438 9.85474 7.55418 9.63942 7.92192 9.24855L9.61931 7.44375Z" fill="#3EC227"/>
</svg>
