<svg xmlns="http://www.w3.org/2000/svg" width="1024" height="215" viewBox="-1.8 -1.8 294.6 62"><path d="M258.8 20l.1-.5.2-.6.3-.4.2-.5.5-.3.5-.3.6-.2h1.1l.5.2.6.3.3.3.4.5.3.4.2.6v1.2l-.2.5-.3.6-.4.3-.3.4-.6.3-.5.1-.6.1h-.5l-.6-.2-.5-.3-.5-.4-.2-.3-.3-.6-.2-.5zM243 51.7l1 .8 1 .8 1 .7 1 .7 1.2.6 1 .6 1.2.5 1.3.4 1.1.4 1.3.4 1.2.3 1.3.3 1.2.2h1.3l1.3.2h2.6l1.4-.1 1.2-.1 1.3-.2 1.2-.3 1.3-.3 1.2-.4 1.2-.4 1.3-.4 1.1-.5 1-.6 1.3-.6 1-.7 1-.7 1-.8 1-.8-3.6-3.8-1.3 1.1-1.5 1-1.5 1-1.5.7-1.6.7-1.6.5-1.8.4-1.8.2V33h5V29h-5v-3l.9-.4.8-.5.7-.6.6-.7.5-.8.3-.9.3-1v-2.3l-.3-.7-.1-.5-.4-.7-.3-.5-.4-.5-.4-.5-.5-.4-.6-.4-.5-.3-.5-.2-.7-.3-.6-.2h-2.8l-.6.2-.6.3-.5.2-.6.3-.5.4-.6.4-.3.5-.5.5-.2.5-.4.7-.2.5-.1.7-.1.7v1.7l.2 1 .4.8.4.8.7.7.7.6.8.5.9.4v3H254V33h5v20.5l-1.7-.2-1.8-.4-1.6-.5-1.6-.7-1.6-.8-1.5-.9-1.4-1-1.3-1.1zM232.3 29l.1-1.4.1-1.5.2-1.4.3-1.5.3-1.3.4-1.5.4-1.3.6-1.4.6-1.2.6-1.3.7-1.1.8-1.3.8-1 1-1.2.8-1 1-1 1-1 1-.9 1.1-.9 1.2-.8 1.3-.8 1.1-.6 1.3-.7 1.3-.6 1.4-.5 1.3-.5 1.4-.3 1.5-.4 1.4-.2 1.4-.2 1.6-.1 1.4-.1h1.5l1.5.2 1.5.2 1.4.2 1.4.4 1.5.3 1.3.5 1.3.5 1.3.6 1.3.7 1.2.6 1.3.8 1.1.8 1 1 1.2.8 1 1 1 1 .8 1 1 1.1.7 1.1.8 1.3.7 1.1.7 1.3.6 1.2.5 1.4.5 1.3.3 1.5.4 1.3.3 1.5.2 1.4v1.5l.1 1.4v1.5l-.1 1.2-.2 1.4-.2 1.3-.3 1.3-.3 1.2-.4 1.3-.4 1.2-.5 1.2-.5 1.2-.7 1.1-.6 1.1-.6 1-.7 1.2-.8 1-.8 1-3.8-3.8 1.2-1.6 1.1-1.8 1-1.8.7-2 .6-2 .4-2 .3-2V26.6l-.2-1.1-.2-1.2-.2-1.2-.4-1.1-.4-1.1-.4-1-.4-1.2-.6-1-.6-1-.6-1-.7-1-.7-.9-.7-.8-.8-.9-.9-.8-.8-.7-.9-.7-1-.8-1-.6-1-.5-1-.6-1-.5-1-.4-1.2-.4-1.1-.3-1.2-.2-1.1-.3-1.2-.1h-1.3l-1.2-.2-1.2.1-1.2.1H258l-1.2.4-1.1.2-1 .3-1.3.4-1 .4-1.1.5-1 .6-1 .5-1 .6-1 .8-.8.7-.8.7-1 .8-.7.9-.8.8-.7 1-.6.9-.6 1-.7 1-.5 1-.4 1.1-.5 1-.3 1.2-.4 1.1-.3 1.2-.2 1.2-.1 1.1-.1 1.3V31.2l.3 2 .5 2 .5 2 .8 2 1 1.8 1 1.8 1.3 1.6-3.8 3.8-.8-1-.8-1-.7-1.1-.7-1-.6-1.2-.6-1.1-.6-1.2-.4-1.2-.4-1.2-.4-1.3-.4-1.2-.2-1.3-.2-1.3-.2-1.4v-1.2zm-25 9.3V20.2h4.8v14h8.2v4zm-17.1 0h13.5v-4.1h-9V31h7.4v-3.7h-7.4V24h8.5v-4h-13zm-20.7-9V28l.2-1 .2-.8.2-1 .4-.8.4-.8.5-.8.5-.6.6-.6.7-.5.8-.5.7-.4.9-.3.9-.2.9-.2h1l1.5.1.7.1.7.2.6.3.7.2.5.3.5.4.6.4.4.5.5.5.3.5.3.7.3.6.2.7.1.7h-4.8l-.2-.6-.2-.5-.3-.3-.4-.4-.4-.2-.5-.1-.5-.1h-1.4l-.5.2-.4.2-.4.3-.4.3-.5.6-.4.9-.4.9-.2 1v2.4l.3 1 .3 1 .5.9.6.7.4.2.3.3.5.2h.4l.6.2h1.5l.7-.2.7-.3.7-.3v-2.4h-3.3v-3.6h7.8v8.2l-.9.6-1 .6-.9.4-1 .4-1 .2-.8.3-1 .1H178l-1-.2-1-.2-1-.2-.7-.4-.8-.4-.8-.6-.6-.5-.5-.7-.6-.7-.4-.8-.4-.9-.2-1-.2-1-.1-1zM157 31.7l2.3-6.9 2.3 7zm-7.2 6.5h5l.8-2.7h7.3l1 2.7h4.9l-6.9-18.1h-5.2zm-18.1 0h4.4V27.4l6.4 10.9h5V20.2H143v10.6l-6.5-10.6h-5zM111.2 31v-2.3h7.1v-7.4h2.8v7.4h7.2V31h-7.2v7.3h-2.8V31zm-15.7 7.3H109v-4.1h-9V31h7.4v-3.7H100V24h8.5v-4H95.5zm-20.2 0h4.5V27.4l6.3 10.9h5.1V20.2h-4.5v10.6l-6.5-10.6h-5zm-20.4 0h4.8v-7h6.5v7H71V20.2h-4.8V27h-6.5v-6.8h-4.8zm-17.1 0h13.5v-4.1h-9V31h7.4v-3.7h-7.4V24h8.5v-4h-13zm-19.9-7.5V33l.4.9.2.8.4.7.3.6.5.7.5.5.6.5.6.3.6.3.7.3.7.2.9.1.7.1h2.3l.8-.2.7-.2.6-.3.8-.3.6-.3.5-.5.6-.5.4-.7.4-.6.3-.7.3-.8.2-.9.2-1V20.2h-4.9v12.1l-.3.7-.1.5-.4.5-.4.3-.5.3-.6.2H25l-.7-.2-.5-.3-.4-.3-.3-.5-.3-.5v-.7l-.2-.7V20.2H18zM0 38.3h4.7v-5.1l1.7-2 4.2 7h5.6L9.6 27.7l5.8-7.4H9.8l-5 6.4v-6.4H0z" fill="#003369"/></svg>