<svg width="257" height="48" fill="none" xmlns="http://www.w3.org/2000/svg"><g clip-path="url(#clip0)" fill="#858C91"><path d="M48.6 31.9l1.3-.5c1.7-.7 2-1.2 2-2.4v-4.8c1.3 3.5 2.6 5.9 5.2 5.9.4 0 .7 0 1.2-.2l1-.2-.7-.8c-.5-.4-.7-.8-1-1.3 0-.2-.1-.3-.3-.5-.6-1-2-1.4-3.2-.8L52.4 22l-.2-.3-.3-.8a24.1 24.1 0 00-2.8-4.7 8.7 8.7 0 00-5.4-3l-4-.4H39l-3.1-.2-2.4-.2v-.7-.7h8.8c2.2 0 3.8-1 4.8-3 2.3 0 4-1 4.9-3h.3c2.3 0 4-1 5-3.1l.4-1H27.7c-2 0-3.6 1.4-4.2 3.3v.1A6.6 6.6 0 0021 1.1a6.6 6.6 0 00-5-.9l-1.4.6-1.2 1-1 1.7-.4.5-.3.6c-.5 1-1 1.7-1.4 2.2-.4.4-.4.9-.3 1.2 0 .3.2.5.4.7-.2.2-.2.5-.2.7 0 .8.6 1.4 1.5 1.4.6 0 1.1-.3 1.6-.7l1-.5c.2 0 .4.2.4.4 0 .7-.8 1-1.4 1l-1.2.2c-.9 0-1.3.6-1.3 1s.2.6.4.8l.4.3-1.3 2c-1-.8-2-1.3-3-1.3a2 2 0 00-1.5.5l-.2.4c-1 0-2 .5-2.3 1.1-.4.7-.3 1.8.3 2.7l-3.3.8V35h59.2v-3H48.6zm7.7-4.2l.3.5.4.6c-1 0-1.7-.5-2.3-1.5.6-.2 1.3 0 1.6.4zM43.5 14.5a7.4 7.4 0 015.3 3.5c-3.2-.5-4.3-1-6-3.6h.7zM42 9.8h-6c.5-.4.9-1 1.2-1.7h8.2c-.7 1.2-1.9 1.7-3.4 1.7zm4.8-3h-6c.5-.4.9-1 1.3-1.7h8.2c-.8 1.2-2 1.8-3.5 1.8zm.4-4.5h8.2c-.8 1-1.9 1.6-3.4 1.6h-6c.4-.5.9-1 1.2-1.6zm-33 .3a4.3 4.3 0 012-1.2 4 4 0 011.9 0L16 2.5h-1.8.1zm-2.5 9.6l.1-.2h1c1.4 0 2.7-.5 2.8-1.9 0-.9-.6-1.8-1.5-1.8-.5 0-1 .3-1.7.8-.4.3-.7.5-1 .5l-.2-.2.7-1-.6-.4c-.1 0-.3-.2-.3-.4v-.1l.8-1c.2-.3.3-.4.6-.4s.5.2.5.5c0 .2.2.3.5.3.2 0 .3-.1.5-.3 0 0 .6-.6.3-.8-.4-.3-1.8.3-1.4-1v-.2c.2-.2 1-.8 2.4-.8h.8l.2.1 3-1.9v.2c.2.9-.4 2-1.3 2.5l-.3.2.2 1.4c-.8.2-1.3.9-1.3 1.6l.1 1 .2 1.4c0 1.5-2 2.4-3.6 2.4-.2 0-1.2-.1-1.5-.3v-.2zm-7.6 4.5c.3-.4.8-.7 1.5-.6h.5l.2-.4c0-.2 0-.3.2-.4l.6-.2c.7 0 1.7.6 2.4 1.4a5.5 5.5 0 01.9 1.2v.2l.4.6.8-1v-.2l-.3-.4-.1-.2-.3-.4 1.6-2.6h.9c2.3 0 4.6-1.2 4.6-3.4 0-.7 0-1.2-.2-1.7l-.1-.7c0-.2.3-.5.8-.5h.7L19 5.5a4 4 0 001.7-3.1c1 .8 1.8 2.3 2 3.8 0 .5 0 1.1-.2 1.8v.3c-.4 1-.7 2.2-1 2.7l-.1.5.4.3c.9.5 1.3.8 1.3 1.9 0 1.2-1 2.2-2.2 2.4l-1.4.2 1.2.9c.4.3.6.7.6 1.1 0 .8-.6 1.4-1.4 1.4h-.5l-.1.5c-.4 1.5-1 2.2-2.6 2.3L17 21v-.7l-.1-1.4-1 1.1c-.3.3-1 .6-1.6.7v-1.2l-7-1.8-2.5.7c-.5-.6-.6-1.5-.5-1.7zm-2 15.2l5-1.4 5 1.4h-10zM13 30.8l-5.7-1.5-5.9 1.5V20.5L7.2 19l5.8 1.5v10.3zm2.7-2c-.5.7-.6 1.8-.2 3h-1.3V22l1.4-.4-.1 1.2v.3l-.2.8h.7c1.1 0 1.9-.2 2.5-.5v4.1c0 .1 0 .2-.2.2h-.2c-1 0-2 .4-2.4 1zM29 29c-.4.5-.9 1.4-.6 2.8h-7.5c.8-.1 1.4-.3 1.8-.7.5-.5.5-1.2.5-1.7l.5-.4.6-.3-.4-.6c-.6-1-.3-3.1 0-4.3 2.5 0 4.2-.5 5.9-1l1.4-.5 1.2-.3 2.4 4c.3.4.4.6 0 1.1l-1.3 1.3-2-.3c-1-.2-2 .2-2.5.9zm.7 2.8c-.3-1-.1-1.6.3-2 .3-.5 1-.6 1.3-.6l2.3.5h.4l1.6-1.8c.3-.3 1.2-1.3.3-2.6l-2.2-3.6 1.1-.1s1.1 0 2.3.7l.6 1.3 1.2 2.5c0 .2.2.6-.3 1.2l-4.2 4.5h-4.7zm14.3 0h-8l3.5-3.6c.7-.8.9-1.6.6-2.4a24 24 0 00-1.1-2.4c1.4.6 3.4 1.2 7.6 1.5.5 0 .6.2.7.7l.2 1.8-2.2.5c-.7.1-1.3.6-1.5 1.3-.3.8-.2 1.7.2 2.6zm1-2.2c0-.3.3-.5.6-.5l3.3-.7-.3-3c0-.4-.3-1.6-1.8-1.7-5.9-.5-7.2-1.3-8.7-2.3-1.6-1-3.1-1-3.2-1-1.7 0-3.8.6-4 .7l-1.4.5c-1.8.6-3.4 1-6 1h-.6v.4c-.2.4-1 3.3-.2 5.2-.6.6-.6 1.1-.6 1.2 0 .6-.2.8-.2.8-.3.4-1.3.4-2.2.4h-.3l-.2.2c-.5.8-1.7 1-2.4.8-.3-1-.3-1.8 0-2.2.3-.5 1.1-.6 1.4-.6h.2c.7 0 1.4-.6 1.4-1.4v-5.3l.6-1.3a2.7 2.7 0 002.3-2.6c0-.5-.2-1-.4-1.4a3.6 3.6 0 002.2-3.2c0-1.6-.8-2.3-1.5-2.7l.7-2.7 1-3.7a3.2 3.2 0 013.1-2.3h18c-.7 1-1.8 1.6-3.3 1.6h-11L31 5h9.8C40 6.4 38.9 7 37.3 7h-7.1l-.6 1.3H36c-.8 1.1-2 1.7-3.5 1.7h-3.9l-.5 1.2h4s.2.3.2.7c0 .9-.7 1.5-1.5 1.5l-1-.2-.4-.3-1 .9.5.2c.8.4 1.3.5 1.9.5.8 0 1.4-.3 2-.8a64.7 64.7 0 016 .5h1l1.4.1c2.5 4 3.8 4.5 8.6 5.1l1 2V29l-.1.6-1.2.6-4 1.5c-.6-.7-.8-1.5-.6-2z"/><path d="M11.7 22L8 21v1.3l3.8 1v-1.2zM2.7 23.3l3.9-1v-1.2l-3.9 1v1.2zM2.7 25.9l3.9-1v-1.3l-3.9 1v1.3zM11.7 24.6l-3.8-1v1.3l3.8 1v-1.3zM11.7 27.1l-3.8-1v1.3l3.8 1v-1.3zM2.7 28.4l3.9-1v-1.3l-3.9 1v1.3z"/></g><path d="M101.8 17.3V4.1c8.3 0 11.3-.4 12.7 9.7h.9V2.5H92.8v1.6h4v29h-4.4v1.6h23.3v-12h-1.2c-1.2 9-3.4 10.4-9.9 10.4h-3V19h1.7c2.9.1 4.6 1.7 5 6.6h1.1V11h-1c0 .2-.3 6.3-5.2 6.3h-1.4v.1z" fill="#858C91"/><path d="M92.6 18H79.8v1.4h4.5v10.5c-.8 2.6-4.7 3.8-5.9 3.8-8.2 0-7.5-12-7.5-15.1 0-2.9-.3-15 7.5-15C84 3.5 87 9 88 13.8h1V2.2L85.1 5s-1.7-2.6-6.8-2.6c-9.6-.2-13 9.5-13 16 0 6.2 2.8 16.5 13 16.5 3.3 0 5.5-1.6 6.8-3.5l4 3.3V19.4h3.4V18zM241.1 22.9c-1.1 9-3.3 10.4-9.8 10.4h-.4V4h4V2.5h-13.4v1.6h4v29h-3.2L210.6 1.6H209l-10 28.7c0-.2-.7 2.4-2.2 2.7-1.6.1-1.5-.6-1.5-1v-5.5c0-1.4-.1-4.7-1.5-6.2-1.7-1.7-4.6-1.8-4.6-2 0 0 7.3-1.5 7.3-8.4 0-4.8-3.4-7.3-9-7.5h-16.2v1.5h4.2V33h-4.2v1.6h13.1V33h-4.1V19h5.4c9.5.8-1.7 15.6 10.8 15.6h7.8V33c-.4 0-3.4.1-3.5-2-.2-1.4 2-6.6 2-6.6h10.6l3.3 8.6h-3.5v1.6h29.1v-12h-1.2v.3zm-55.5-5.3h-5.2V4h6.6c4 .6 4 5 4 6.6.2 3.5-1.3 6.9-5.4 6.9zm18 5.5l4.7-13.8 5 13.8h-9.7zM155.5 4c8.3 0 11.3-.3 12.7 9.8h1V2.5h-33v1.6h1c1.2 0 3.9.1 4 2.4v18.6L126 2.5h-8.4v1.6h1.4c1.7 0 4 .1 4 2.4v23.8c0 2.3-3.5 3.2-5 3.2v1.2h11.4v-1.2c-1.4 0-5-.9-5-3.2v-21L142 34.8h.5V6.5c.1-2.4 2.9-2.4 4-2.4h3.8v29H146v1.6h23.2v-12h-1.1c-1.2 9-3.4 10.4-9.9 10.4h-3V19h1.7c2.9.1 4.6 1.7 5 6.6h1.1V11h-1c0 .2-.3 6.3-5.2 6.3h-1.6V4h.3zM257 4V2.6h-13.1v1.6h4l.1 29H244v1.6h13V33h-4v-29h4z" fill="#858C91"/><defs><clipPath id="clip0"><path fill="#fff" transform="translate(.2)" d="M0 0h59.2v48H0z"/></clipPath></defs></svg>