<svg width="175" height="30" fill="none" xmlns="http://www.w3.org/2000/svg"><path d="M171.4 18.8c-.5-.8-1-1.2-1.5-1.6 2.1-.7 3-1.9 3-4 0-3.3-2-5-6-5h-6.2v16.5h4.2v-6.5h.5c1 0 1.3.3 2 1.6l3 5h4.5l-3.5-6zm-6.5-7.4h1.9c1.6 0 2.1.5 2.1 2 0 1.4-.6 2-2.1 2h-2v-4zm-14.6 10v-3.5h5.6v-3.1h-5.6v-3.2h7V8.3h-11.2v16.4h11.6l.3-3.3h-7.7zM137.5 16l6.2-7.7h-4.4l-5.3 7v-7h-4.2v16.4h4.2v-7l5.2 7h5l-6.7-8.7zm-14.8-7.7v9l-6.7-9h-3.5v16.4h3.5v-10l7.5 10h2.8V8.3h-3.6zm-20.6 13.1v-3.5h5.6v-3.1H102v-3.2h7V8.3H98v16.4h11.6l.3-3.3H102zM90.2 8.3v6.4h-5.8V8.3h-4.1v16.4h4.1V18h5.8v6.8h4.2V8.3h-4.2zM77.2 21a10 10 0 01-3.8.8c-2.7 0-3.8-1.5-3.8-5.2 0-4 1-5.4 3.8-5.4 1.3 0 2.4.2 3.8.7l.2.1V8.6h-.1c-1.3-.5-2.5-.7-4-.7-2.2 0-4.2.6-5.5 1.8-1.8 1.6-2.6 3.7-2.6 6.9 0 2.6.6 4.5 1.8 6 1.3 1.6 3.5 2.5 6.2 2.5 1.5 0 3-.3 4.2-1V21l-.2.1zM59.3 15l-.3-.1-2.1-1c-.6-.5-.7-.8-.7-1.3 0-.9.7-1.4 2.2-1.4 1.3 0 2.2.3 3.7 1h.3V8.7h-.2c-1.4-.6-2.6-.8-4-.8-3.8 0-5.9 1.8-5.9 5 0 2.4 1 3.8 3.8 4.9 3 1.2 3.2 1.5 3.2 2.4 0 1-.9 1.6-2.6 1.6-1.5 0-2.6-.3-4.2-1.1l-.3-.1V24h.1c1.6.8 3 1 4.7 1 4 0 6.3-1.8 6.3-5 0-2.6-1-3.9-4-5.1z" fill="#000"/><path d="M12.9 24.7h-7V5.3h7c5 0 7.6 3.2 7.6 9.6 0 5.7-1.8 9.8-7.6 9.8zm3-9.4c0-3.9-.4-7-4.5-7h-1v13.3h1.7c2.4 0 3.8-2 3.8-6.3zm14 9.4h-7.4V5.3h7.8c3.7 0 5.6 1.5 5.6 5.2 0 1.9-1.5 3.2-3.2 4 2.4.7 4 2.2 4 4.6 0 4-3.3 5.6-6.8 5.6zM27.1 13h1.6c1.5 0 2.6-.7 2.6-2.3 0-1.9-1.4-2.4-3-2.4h-1.2V13zm4.7 6c0-2-1.2-2.4-3-2.4H27v5h1.6c1.6 0 3.1-.6 3.1-2.6zm6-18.8H4.2A4.2 4.2 0 00.1 4.4v21.2c0 2.4 2 4.3 4.2 4.3h33.4c2.3 0 4.2-2 4.2-4.3V4.4c0-2.4-2-4.2-4.2-4.2zm1 25.4c0 .7-.4 1.2-1 1.2H4.2c-.6 0-1.1-.5-1.1-1.2V4.4c0-.7.5-1.2 1.1-1.2h33.4c.7 0 1.1.5 1.1 1.2v21.2z" fill="red"/></svg>