<svg width="68" height="12" fill="none" xmlns="http://www.w3.org/2000/svg"><path d="M3.3 11.1a1.1 1.1 0 0 1 0-2.2h4.2a2 2 0 0 0 0-4h-3v.9h3a1.1 1.1 0 0 1 0 2.2H3.3a2 2 0 0 0 0 4h7.2v-.9H3.3ZM4 .7c-.9-1-2.4-1-3.3 0-1 1-1 2.5 0 3.4l1.7 1.7L4 4.1c1-1 1-2.5 0-3.4ZM2.5 3.1a.7.7 0 1 1 0-1.5.7.7 0 0 1 0 1.5Z" fill="#000"/><path d="M14.3 6.9c-.9-1-2.4-1-3.3 0-1 1-1 2.5 0 3.4l1.7 1.7 1.6-1.7c1-1 1-2.5 0-3.4Zm-1.7 2.4a.7.7 0 1 1 0-1.5.7.7 0 0 1 0 1.5ZM20.5 3.2h-1.7V2h5v1.3H22v6.6h-1.5V3.2ZM23.9 9.8V4h1l.4.6c.3-.4.6-.6 1.1-.6h.4v1.6h-1.4v4.2h-1.5ZM30 7.2h-1.2c-.2.2-.3.4-.3.7 0 .3.1.6.3.7H30V7.2ZM27.6 4h2.8c.4.3.7.6.8 1 .2.3.3.8.3 1.4v3.4h-1.3l-.2-.4c-.3.3-.7.4-1.2.4H28A2 2 0 0 1 27 8c0-.8.3-1.4 1-1.9h1l.9.3v-.6c0-.3-.2-.5-.4-.6h-2V4ZM33.8 6.9c0 .3 0 .6.2 1 0 .3.2.5.4.7H36v1.2h-2.5a3.6 3.6 0 0 1-1.3-3c0-1.2.4-2.1 1.4-2.8H36v1.2h-1.7c-.4.4-.6 1-.6 1.7ZM36.8 9.8v-8h1.5v4.3h.2l1-2H41l-1.3 2.5L41 9.8h-1.5l-1-2.5h-.2v2.5h-1.5ZM42.7 5l-.1-.3c-.2-.3-.2-.6-.2-1 0-.6.2-1 .8-1.3H45v1.4h-1.2l2 4.8v1.2h-3.2a2 2 0 0 1-1-.8c-.2-.4-.3-.9-.3-1.4 0-.5 0-1 .3-1.4A3 3 0 0 1 42.7 5Zm.6 1.3c-.4.3-.6.7-.6 1.2s.1.8.4 1h1.2l-1-2.2ZM47.5 3.2h-1.7V2h5v1.3H49v6.6h-1.6V3.2ZM51 9.8V4h1l.3.6c.3-.4.7-.6 1.1-.6h.5v1.6h-1.5v4.2H51ZM57 7.2h-1.2c-.2.2-.2.4-.2.7 0 .3 0 .6.2.7H57V7.2ZM54.6 4h2.8c.4.3.7.6.9 1l.2 1.4v3.4h-1.3l-.2-.4c-.2.3-.7.4-1.2.4h-.7A2 2 0 0 1 54 8c0-.8.4-1.4 1-1.9h1c.4 0 .6.1.9.3v-.6c0-.3-.1-.5-.4-.6h-2V4ZM60.9 6.9l.1 1 .4.7h1.7v1.2h-2.5a3.6 3.6 0 0 1-1.3-3c0-1.2.5-2.1 1.4-2.8h2.4v1.2h-1.7c-.4.4-.5 1-.5 1.7ZM66.2 5.2h-.8l-.3.6v.7h1.5v-.7c-.1-.3-.2-.5-.4-.6Zm1.6 3.4v1.2h-2.9a3 3 0 0 1-1.1-1.3c-.2-.5-.3-1-.3-1.6 0-1.2.4-2.2 1.4-2.9h1.8c.5.4.8.8 1 1.2.2.4.3.8.3 1.3l-.1 1h-2.8c0 .2 0 .4.2.7 0 .2.2.3.3.4h2.2Z" fill="#000"/></svg>