<svg width="101" height="30" fill="none" xmlns="http://www.w3.org/2000/svg"><path d="M87.4 28c-.3.7-1.2 1.9-2.9 1.9h-6.8a3.3 3.3 0 01-3-1.8L65.5 9.4C64.5 7.6 62.7 7 61 7H44.3c-1.6 0-2.5 1-2.5 2.4 0 1.5 1 2.4 2.5 2.4h11.6c4.9 0 9 3 9 9s-4.2 9-9 9H41c-1.4 0-2.5-.8-2.5-2.5v-3.2c0-.6.4-.9.9-.9h13.2c1.3 0 2.4-.8 2.4-2.4 0-1.6-1-2.4-2.4-2.4H40c-2 0-4-.6-5.3-1.5-.7 8-6.4 12.9-14.7 12.9H1.5c-.4 0-.8-.3-.8-.9V12.8c0-.6.4-.9.8-.9H8c1.8 0 2.6 1.2 2.6 2.5v8.1c0 .6.3.8.8.8H17c4.4 0 8.1-2.7 8.1-8.1 0-5.5-3.7-8.1-8.1-8.1H1.5C1 7 .7 6.8.7 6.2V3C.7 1.2 2 .5 3.2.5h17c4.8 0 9.1 1.8 11.7 5 1.3-3.3 4.4-5 8.3-5h24.4c3 0 6.3 1 8.1 4.5l7.9 16.5.4.2c.2 0 .4 0 .5-.2L91.3.9s.2-.4.7-.4h7.5c.4 0 .8.3.8.9v.4L87.3 28z" fill="#00386C"/></svg>