<svg width="300" height="38" viewBox="0 0 300 38" fill="none" xmlns="http://www.w3.org/2000/svg">
<g clip-path="url(#clip0_91_4746)">
<path d="M177.513 5.53687L172.291 10.7657L176.286 14.761H168.115C167.663 11.1916 165.925 7.9095 163.227 5.52931C160.528 3.14911 157.055 1.83405 153.457 1.83039H146.026C142.427 1.83535 138.953 3.1515 136.254 5.53258C133.555 7.91366 131.816 11.1965 131.363 14.767H138.878C139.294 13.1836 140.221 11.7821 141.516 10.7808C142.812 9.77958 144.401 9.23479 146.038 9.23132H153.475C155.111 9.23437 156.7 9.77923 157.993 10.7808C159.286 11.7823 160.211 13.184 160.624 14.767H153.433V22.1679H160.618C160.209 23.7535 159.285 25.1583 157.991 26.1615C156.697 27.1647 155.107 27.7093 153.469 27.7096H146.032C144.397 27.7065 142.808 27.1616 141.515 26.1601C140.221 25.1586 139.296 23.7568 138.884 22.1739H127.572V14.767H116.471V22.1679H127.572C127.572 24.0813 126.327 27.7035 121.585 27.7035H112.788C108.697 27.7035 105.369 24.3822 105.369 20.2906V16.6322C105.369 12.5407 108.691 9.21327 112.788 9.21327H127.572V1.81836H112.788C108.859 1.82155 105.091 3.38395 102.313 6.16253C99.5341 8.94111 97.9717 12.7088 97.9685 16.6383V20.3086C97.9733 24.2371 99.5364 28.0032 102.315 30.7805C105.093 33.5578 108.86 35.1193 112.788 35.1225H121.585C127.464 35.1225 131.513 32.0839 133.505 28.1608C134.831 30.2899 136.678 32.0462 138.87 33.2642C141.063 34.4822 143.53 35.1217 146.038 35.1225H153.475C157.074 35.1159 160.548 33.7983 163.246 31.4161C165.943 29.0339 167.681 25.7504 168.133 22.1799H176.316L172.303 26.1933L177.537 31.4221L190.462 18.4915L177.513 5.53687Z" fill="#3EC227"/>
<path d="M94.7439 32.794H92.4093V35.1226H94.7439V32.794ZM89.7979 28.2451V30.0202L86.2238 26.8372C86.0192 26.6687 85.9229 26.416 85.9711 26.1633C86.0012 25.9226 86.1576 25.724 86.3802 25.5977C86.6209 25.4713 86.8977 25.4051 87.1624 25.4051H92.4273V23.0765H87.1685C86.4103 23.0765 85.6702 23.2631 85.0264 23.594C84.5864 23.8146 84.2056 24.1373 83.9156 24.535C83.6257 24.9328 83.4351 25.3941 83.3597 25.8805C83.3023 26.2848 83.3328 26.6967 83.4491 27.0882C83.5654 27.4797 83.7648 27.8414 84.0336 28.1489C83.5822 28.4434 83.197 28.8287 82.9024 29.2801C82.542 29.8221 82.3495 30.4583 82.3488 31.1092V31.4101C82.3488 33.4559 84.2261 35.1045 86.5246 35.1045H88.2214C90.5199 35.1045 92.4093 33.4378 92.4093 31.392V28.2271H89.7979V28.2391V28.2451ZM85.9109 29.8637L89.0097 32.6195C88.769 32.7399 88.5042 32.806 88.2395 32.806H86.5367C85.6883 32.806 84.9963 32.1923 84.9963 31.4402V31.1393C84.9963 30.8385 85.1046 30.5557 85.3092 30.321C85.4536 30.0984 85.6702 29.96 85.9109 29.8637ZM53.1302 18.4615H49.869C45.7895 18.4615 42.4801 15.1521 42.4801 11.0786V10.4348C42.4801 6.35525 45.7895 3.0459 49.869 3.0459H53.1603C57.2338 3.0459 60.5432 6.35525 60.5432 10.4348V11.0485C60.5432 15.1401 57.2218 18.4615 53.1242 18.4615H53.1302ZM49.863 6.86068C48.914 6.86387 48.0049 7.2431 47.335 7.91529C46.665 8.58747 46.2889 9.4978 46.2889 10.4468V11.0967C46.2905 12.0441 46.6675 12.9522 47.3375 13.6222C48.0074 14.2921 48.9156 14.6692 49.863 14.6708H53.1182C54.0757 14.6708 54.9939 14.2904 55.671 13.6134C56.348 12.9363 56.7284 12.018 56.7284 11.0606V10.4468C56.7268 9.4994 56.3497 8.59124 55.6798 7.92131C55.0099 7.25138 54.1017 6.87431 53.1543 6.87272H49.863V6.86068ZM32.877 18.4615H30.0911C26.3004 18.4615 23.2257 15.3748 23.2257 11.6021V3.39489H27.0344V11.6141C27.0344 12.0171 27.1138 12.4161 27.268 12.7885C27.4222 13.1608 27.6483 13.4991 27.9332 13.784C28.2182 14.069 28.5565 14.295 28.9288 14.4492C29.3011 14.6034 29.7001 14.6828 30.1031 14.6828H32.895C34.5798 14.6828 35.9637 13.3109 35.9637 11.6141V3.39489H39.7724V11.6141C39.7597 13.4346 39.0276 15.1761 37.7359 16.4589C36.4441 17.7417 34.6974 18.4615 32.877 18.4615ZM75.333 3.06395H62.3663V6.85467H66.9513V18.4675H70.742V6.84865H75.327V3.05793L75.333 3.06395ZM92.4093 6.86068V3.06395H78.5401V18.4675H92.4093V14.6708H82.3368V12.637H92.4093V9.28554H82.3368V6.86068H92.4093ZM14.2603 14.6708H7.38889C6.44147 14.6692 5.5333 14.2921 4.86337 13.6222C4.19344 12.9522 3.81638 12.0441 3.81479 11.0967V10.4468C3.81479 8.46121 5.42133 6.86068 7.38889 6.86068H10.6802C11.6276 6.86228 12.5358 7.23934 13.2057 7.90927C13.8756 8.5792 14.2527 9.48737 14.2543 10.4348V14.6708H18.0691V10.4468C18.0691 6.36729 14.7597 3.06395 10.6802 3.06395H7.38889C3.30936 3.06395 0 6.37331 0 10.4468V11.0967C0 15.1702 3.30936 18.4795 7.38287 18.4795H14.2663V14.6708H14.2603ZM21.8538 14.6828H18.0631V18.4735H21.8538V14.6828Z" fill="white"/>
</g>
<path d="M208.984 22.6996C208.456 22.6996 207.987 22.5833 207.576 22.3505C207.165 22.1178 206.839 21.7688 206.598 21.3033C206.366 20.8301 206.249 20.2328 206.249 19.5114C206.249 18.7822 206.37 18.1849 206.61 17.7195C206.858 17.2541 207.188 16.9089 207.599 16.6839C208.018 16.4512 208.48 16.3348 208.984 16.3348C209.597 16.3348 210.136 16.4667 210.601 16.7305C211.074 16.9942 211.447 17.3627 211.718 17.8359C211.997 18.309 212.137 18.8676 212.137 19.5114C212.137 20.1553 211.997 20.7138 211.718 21.187C211.447 21.6602 211.074 22.0325 210.601 22.304C210.136 22.5677 209.597 22.6996 208.984 22.6996ZM205.54 22.6182V13.9844H206.994V17.8475L206.878 19.4998L206.924 21.1521V22.6182H205.54ZM208.821 21.4546C209.17 21.4546 209.48 21.377 209.752 21.2219C210.031 21.0667 210.252 20.8418 210.415 20.547C210.578 20.2522 210.659 19.907 210.659 19.5114C210.659 19.108 210.578 18.7628 210.415 18.4758C210.252 18.1811 210.031 17.9561 209.752 17.801C209.48 17.6458 209.17 17.5682 208.821 17.5682C208.472 17.5682 208.158 17.6458 207.878 17.801C207.599 17.9561 207.378 18.1811 207.215 18.4758C207.052 18.7628 206.971 19.108 206.971 19.5114C206.971 19.907 207.052 20.2522 207.215 20.547C207.378 20.8418 207.599 21.0667 207.878 21.2219C208.158 21.377 208.472 21.4546 208.821 21.4546ZM213.625 24.957C213.323 24.957 213.02 24.9065 212.718 24.8057C212.415 24.7048 212.163 24.5652 211.961 24.3868L212.543 23.3163C212.691 23.4482 212.857 23.5529 213.043 23.6305C213.23 23.708 213.42 23.7468 213.614 23.7468C213.877 23.7468 214.091 23.6809 214.254 23.549C214.416 23.4172 214.568 23.1961 214.707 22.8858L215.068 22.0713L215.184 21.8967L217.535 16.4047H218.931L216.022 23.1185C215.828 23.5839 215.611 23.9524 215.371 24.2239C215.138 24.4954 214.874 24.6855 214.579 24.7941C214.292 24.9027 213.974 24.957 213.625 24.957ZM214.905 22.8392L212.101 16.4047H213.614L215.894 21.7688L214.905 22.8392Z" fill="white"/>
<g clip-path="url(#clip1_91_4746)">
<mask id="path-4-outside-1_91_4746" maskUnits="userSpaceOnUse" x="254.757" y="32.0488" width="37" height="6" fill="black">
<rect fill="white" x="254.757" y="32.0488" width="37" height="6"/>
<path d="M288.351 36.6045C288.546 36.7607 288.825 36.8402 289.187 36.8402C289.444 36.8402 289.67 36.773 289.867 36.639C290.062 36.5055 290.187 36.2993 290.246 36.0205C290.279 35.8257 290.215 35.6622 290.053 35.5287C289.983 35.4592 289.898 35.3947 289.799 35.3325C289.7 35.2717 289.6 35.2108 289.496 35.15C289.394 35.0846 289.297 35.0165 289.204 34.9438C289.106 34.8757 289.022 34.7985 288.95 34.715C288.794 34.5506 288.739 34.343 288.784 34.0906C288.85 33.7654 289.024 33.5102 289.304 33.3231C289.576 33.1433 289.891 33.0516 290.251 33.0488C290.354 33.0488 290.475 33.0561 290.613 33.0711C290.75 33.0947 290.882 33.131 291.011 33.1801L290.878 33.5402C290.703 33.4421 290.47 33.3917 290.179 33.3917C290.076 33.3917 289.973 33.4012 289.87 33.4203C289.766 33.443 289.665 33.4839 289.566 33.5402C289.476 33.5906 289.396 33.6591 289.325 33.7468C289.254 33.8385 289.207 33.9498 289.181 34.0792C289.163 34.175 289.173 34.2627 289.21 34.343C289.249 34.4234 289.304 34.4938 289.376 34.5546C289.452 34.62 289.538 34.6809 289.639 34.7377C289.734 34.7985 289.832 34.8612 289.933 34.9266C290.152 35.041 290.334 35.1863 290.48 35.3616C290.551 35.4465 290.603 35.5455 290.634 35.66C290.662 35.7744 290.662 35.9061 290.633 36.0546C290.548 36.4519 290.354 36.7407 290.048 36.9192C289.746 37.0958 289.433 37.183 289.103 37.183C288.715 37.1744 288.425 37.114 288.234 37.0005L288.351 36.6045ZM285.337 33.1165H287.296L287.23 33.4607H285.666L285.391 34.8871H286.874L286.809 35.2304H285.325L285.028 36.7712H286.66L286.594 37.1154H284.566L285.337 33.1165ZM283.081 33.1165H283.477L282.705 37.1149H282.311L283.081 33.1165ZM279.082 34.8866H279.5C279.748 34.8898 279.983 34.8367 280.207 34.7258C280.435 34.615 280.579 34.4234 280.639 34.1528C280.671 33.9884 280.669 33.8589 280.633 33.764C280.598 33.6678 280.539 33.5992 280.456 33.5574C280.372 33.5116 280.272 33.483 280.151 33.4711C280.03 33.4634 279.902 33.4607 279.764 33.4607H279.357L279.082 34.8866ZM279.028 33.1165H280.059C280.826 33.1047 281.15 33.4507 281.034 34.1532C280.979 34.413 280.854 34.6205 280.656 34.7776C280.457 34.9384 280.227 35.0374 279.968 35.0746L279.966 35.0864C280.114 35.1055 280.216 35.1545 280.268 35.2349C280.299 35.2735 280.323 35.3212 280.339 35.378C280.358 35.4356 280.374 35.4987 280.388 35.5673L280.77 37.114H280.335L280.018 35.7612C279.959 35.5133 279.878 35.3584 279.775 35.2976C279.725 35.2635 279.664 35.2431 279.593 35.2344C279.521 35.2313 279.438 35.229 279.342 35.229H279.015L278.652 37.1135H278.256L279.028 33.1165ZM275.222 33.1165H277.18L277.114 33.4607H275.551L275.275 34.8871H276.759L276.693 35.2304H275.209L274.912 36.7712H276.544L276.478 37.1154H274.45L275.222 33.1165ZM271.473 37.1145H271.048L270.331 33.116H270.749L271.343 36.7189L273.368 33.116H273.763L271.473 37.1145ZM268.535 33.1165H268.93L268.159 37.1149H267.763L268.535 33.1165ZM265.077 33.1165H265.472L264.767 36.7707H266.37L266.304 37.1149H264.306L265.077 33.1165ZM261.315 33.1165H263.274L263.208 33.4607H261.644L261.369 34.8871H262.853L262.787 35.2304H261.303L261.006 36.7712H262.638L262.572 37.1154H260.544L261.315 33.1165ZM256.219 36.7707H256.545C257.758 36.7975 258.491 36.2358 258.743 35.0869C258.852 34.4838 258.777 34.0569 258.52 33.8095C258.257 33.5729 257.895 33.4566 257.436 33.4607H256.858L256.219 36.7707ZM256.529 33.1165H257.52C258.228 33.1242 258.707 33.309 258.954 33.6723C259.192 34.0351 259.253 34.5142 259.133 35.1096C258.989 35.8234 258.674 36.3379 258.189 36.6513C257.709 36.9605 257.132 37.1149 256.457 37.1149H255.757L256.529 33.1165Z"/>
</mask>
<path d="M288.351 36.6045C288.546 36.7607 288.825 36.8402 289.187 36.8402C289.444 36.8402 289.67 36.773 289.867 36.639C290.062 36.5055 290.187 36.2993 290.246 36.0205C290.279 35.8257 290.215 35.6622 290.053 35.5287C289.983 35.4592 289.898 35.3947 289.799 35.3325C289.7 35.2717 289.6 35.2108 289.496 35.15C289.394 35.0846 289.297 35.0165 289.204 34.9438C289.106 34.8757 289.022 34.7985 288.95 34.715C288.794 34.5506 288.739 34.343 288.784 34.0906C288.85 33.7654 289.024 33.5102 289.304 33.3231C289.576 33.1433 289.891 33.0516 290.251 33.0488C290.354 33.0488 290.475 33.0561 290.613 33.0711C290.75 33.0947 290.882 33.131 291.011 33.1801L290.878 33.5402C290.703 33.4421 290.47 33.3917 290.179 33.3917C290.076 33.3917 289.973 33.4012 289.87 33.4203C289.766 33.443 289.665 33.4839 289.566 33.5402C289.476 33.5906 289.396 33.6591 289.325 33.7468C289.254 33.8385 289.207 33.9498 289.181 34.0792C289.163 34.175 289.173 34.2627 289.21 34.343C289.249 34.4234 289.304 34.4938 289.376 34.5546C289.452 34.62 289.538 34.6809 289.639 34.7377C289.734 34.7985 289.832 34.8612 289.933 34.9266C290.152 35.041 290.334 35.1863 290.48 35.3616C290.551 35.4465 290.603 35.5455 290.634 35.66C290.662 35.7744 290.662 35.9061 290.633 36.0546C290.548 36.4519 290.354 36.7407 290.048 36.9192C289.746 37.0958 289.433 37.183 289.103 37.183C288.715 37.1744 288.425 37.114 288.234 37.0005L288.351 36.6045ZM285.337 33.1165H287.296L287.23 33.4607H285.666L285.391 34.8871H286.874L286.809 35.2304H285.325L285.028 36.7712H286.66L286.594 37.1154H284.566L285.337 33.1165ZM283.081 33.1165H283.477L282.705 37.1149H282.311L283.081 33.1165ZM279.082 34.8866H279.5C279.748 34.8898 279.983 34.8367 280.207 34.7258C280.435 34.615 280.579 34.4234 280.639 34.1528C280.671 33.9884 280.669 33.8589 280.633 33.764C280.598 33.6678 280.539 33.5992 280.456 33.5574C280.372 33.5116 280.272 33.483 280.151 33.4711C280.03 33.4634 279.902 33.4607 279.764 33.4607H279.357L279.082 34.8866ZM279.028 33.1165H280.059C280.826 33.1047 281.15 33.4507 281.034 34.1532C280.979 34.413 280.854 34.6205 280.656 34.7776C280.457 34.9384 280.227 35.0374 279.968 35.0746L279.966 35.0864C280.114 35.1055 280.216 35.1545 280.268 35.2349C280.299 35.2735 280.323 35.3212 280.339 35.378C280.358 35.4356 280.374 35.4987 280.388 35.5673L280.77 37.114H280.335L280.018 35.7612C279.959 35.5133 279.878 35.3584 279.775 35.2976C279.725 35.2635 279.664 35.2431 279.593 35.2344C279.521 35.2313 279.438 35.229 279.342 35.229H279.015L278.652 37.1135H278.256L279.028 33.1165ZM275.222 33.1165H277.18L277.114 33.4607H275.551L275.275 34.8871H276.759L276.693 35.2304H275.209L274.912 36.7712H276.544L276.478 37.1154H274.45L275.222 33.1165ZM271.473 37.1145H271.048L270.331 33.116H270.749L271.343 36.7189L273.368 33.116H273.763L271.473 37.1145ZM268.535 33.1165H268.93L268.159 37.1149H267.763L268.535 33.1165ZM265.077 33.1165H265.472L264.767 36.7707H266.37L266.304 37.1149H264.306L265.077 33.1165ZM261.315 33.1165H263.274L263.208 33.4607H261.644L261.369 34.8871H262.853L262.787 35.2304H261.303L261.006 36.7712H262.638L262.572 37.1154H260.544L261.315 33.1165ZM256.219 36.7707H256.545C257.758 36.7975 258.491 36.2358 258.743 35.0869C258.852 34.4838 258.777 34.0569 258.52 33.8095C258.257 33.5729 257.895 33.4566 257.436 33.4607H256.858L256.219 36.7707ZM256.529 33.1165H257.52C258.228 33.1242 258.707 33.309 258.954 33.6723C259.192 34.0351 259.253 34.5142 259.133 35.1096C258.989 35.8234 258.674 36.3379 258.189 36.6513C257.709 36.9605 257.132 37.1149 256.457 37.1149H255.757L256.529 33.1165Z" fill="#CD3E38"/>
<path d="M288.351 36.6045C288.546 36.7607 288.825 36.8402 289.187 36.8402C289.444 36.8402 289.67 36.773 289.867 36.639C290.062 36.5055 290.187 36.2993 290.246 36.0205C290.279 35.8257 290.215 35.6622 290.053 35.5287C289.983 35.4592 289.898 35.3947 289.799 35.3325C289.7 35.2717 289.6 35.2108 289.496 35.15C289.394 35.0846 289.297 35.0165 289.204 34.9438C289.106 34.8757 289.022 34.7985 288.95 34.715C288.794 34.5506 288.739 34.343 288.784 34.0906C288.85 33.7654 289.024 33.5102 289.304 33.3231C289.576 33.1433 289.891 33.0516 290.251 33.0488C290.354 33.0488 290.475 33.0561 290.613 33.0711C290.75 33.0947 290.882 33.131 291.011 33.1801L290.878 33.5402C290.703 33.4421 290.47 33.3917 290.179 33.3917C290.076 33.3917 289.973 33.4012 289.87 33.4203C289.766 33.443 289.665 33.4839 289.566 33.5402C289.476 33.5906 289.396 33.6591 289.325 33.7468C289.254 33.8385 289.207 33.9498 289.181 34.0792C289.163 34.175 289.173 34.2627 289.21 34.343C289.249 34.4234 289.304 34.4938 289.376 34.5546C289.452 34.62 289.538 34.6809 289.639 34.7377C289.734 34.7985 289.832 34.8612 289.933 34.9266C290.152 35.041 290.334 35.1863 290.48 35.3616C290.551 35.4465 290.603 35.5455 290.634 35.66C290.662 35.7744 290.662 35.9061 290.633 36.0546C290.548 36.4519 290.354 36.7407 290.048 36.9192C289.746 37.0958 289.433 37.183 289.103 37.183C288.715 37.1744 288.425 37.114 288.234 37.0005L288.351 36.6045ZM285.337 33.1165H287.296L287.23 33.4607H285.666L285.391 34.8871H286.874L286.809 35.2304H285.325L285.028 36.7712H286.66L286.594 37.1154H284.566L285.337 33.1165ZM283.081 33.1165H283.477L282.705 37.1149H282.311L283.081 33.1165ZM279.082 34.8866H279.5C279.748 34.8898 279.983 34.8367 280.207 34.7258C280.435 34.615 280.579 34.4234 280.639 34.1528C280.671 33.9884 280.669 33.8589 280.633 33.764C280.598 33.6678 280.539 33.5992 280.456 33.5574C280.372 33.5116 280.272 33.483 280.151 33.4711C280.03 33.4634 279.902 33.4607 279.764 33.4607H279.357L279.082 34.8866ZM279.028 33.1165H280.059C280.826 33.1047 281.15 33.4507 281.034 34.1532C280.979 34.413 280.854 34.6205 280.656 34.7776C280.457 34.9384 280.227 35.0374 279.968 35.0746L279.966 35.0864C280.114 35.1055 280.216 35.1545 280.268 35.2349C280.299 35.2735 280.323 35.3212 280.339 35.378C280.358 35.4356 280.374 35.4987 280.388 35.5673L280.77 37.114H280.335L280.018 35.7612C279.959 35.5133 279.878 35.3584 279.775 35.2976C279.725 35.2635 279.664 35.2431 279.593 35.2344C279.521 35.2313 279.438 35.229 279.342 35.229H279.015L278.652 37.1135H278.256L279.028 33.1165ZM275.222 33.1165H277.18L277.114 33.4607H275.551L275.275 34.8871H276.759L276.693 35.2304H275.209L274.912 36.7712H276.544L276.478 37.1154H274.45L275.222 33.1165ZM271.473 37.1145H271.048L270.331 33.116H270.749L271.343 36.7189L273.368 33.116H273.763L271.473 37.1145ZM268.535 33.1165H268.93L268.159 37.1149H267.763L268.535 33.1165ZM265.077 33.1165H265.472L264.767 36.7707H266.37L266.304 37.1149H264.306L265.077 33.1165ZM261.315 33.1165H263.274L263.208 33.4607H261.644L261.369 34.8871H262.853L262.787 35.2304H261.303L261.006 36.7712H262.638L262.572 37.1154H260.544L261.315 33.1165ZM256.219 36.7707H256.545C257.758 36.7975 258.491 36.2358 258.743 35.0869C258.852 34.4838 258.777 34.0569 258.52 33.8095C258.257 33.5729 257.895 33.4566 257.436 33.4607H256.858L256.219 36.7707ZM256.529 33.1165H257.52C258.228 33.1242 258.707 33.309 258.954 33.6723C259.192 34.0351 259.253 34.5142 259.133 35.1096C258.989 35.8234 258.674 36.3379 258.189 36.6513C257.709 36.9605 257.132 37.1149 256.457 37.1149H255.757L256.529 33.1165Z" stroke="#CD3E38" stroke-width="0.295685" mask="url(#path-4-outside-1_91_4746)"/>
<path d="M251.481 22.2577C251.005 22.2577 250.6 22.4525 250.269 22.8448C249.939 23.2372 249.774 23.7203 249.774 24.2943C249.774 24.7157 249.894 25.0513 250.13 25.3025C250.369 25.5549 250.688 25.6789 251.08 25.6789C251.588 25.6789 252 25.4886 252.319 25.1136C252.637 24.7371 252.798 24.2453 252.798 23.6422C252.798 23.2127 252.683 22.8739 252.448 22.63C252.215 22.3825 251.889 22.2577 251.481 22.2577ZM285.036 24.6376H276.732C276.732 25.2652 276.864 25.7525 277.133 26.1003C277.398 26.4468 277.769 26.6207 278.248 26.6207C278.587 26.6207 278.889 26.5372 279.149 26.3723C279.413 26.2071 279.698 25.9182 280.004 25.5055L284.44 26.4505C283.706 27.8387 282.764 28.8799 281.612 29.582C280.459 30.284 279.103 30.6346 277.547 30.6346C275.725 30.6346 274.234 30.0897 273.072 28.9962C272.24 28.2092 271.704 27.266 271.468 26.163L270.739 30.1651H264.795L265.959 23.8702C265.996 23.654 266.029 23.4438 266.05 23.2413C266.071 23.0396 266.078 22.8403 266.078 22.6509C266.078 22.4234 266.009 22.2377 265.872 22.0974C265.736 21.9557 265.559 21.8867 265.339 21.8867C264.905 21.8867 264.554 22.0883 264.294 22.4893C264.029 22.8948 263.81 23.5928 263.633 24.5836L262.618 30.1646H256.71L257.345 26.757C257.125 27.1525 256.866 27.5299 256.569 27.8882C255.842 28.7682 254.958 29.4448 253.912 29.9207C252.868 30.3953 251.744 30.6346 250.541 30.6346C248.716 30.6346 247.216 30.0851 246.039 28.9916C244.98 28.0026 244.396 26.7774 244.289 25.3147C243.687 26.2897 242.92 27.1266 241.982 27.8259C240.883 28.6524 239.615 29.2469 238.169 29.6142C236.724 29.9825 234.905 30.1642 232.713 30.1642H227.132L230.399 12.4426H235.195C236.678 12.4426 237.917 12.5175 238.913 12.6619C239.909 12.8063 240.727 13.0297 241.363 13.3267C242.759 14.0206 243.825 14.971 244.564 16.1767C245.301 17.3792 245.668 18.7737 245.672 20.3536C245.87 20.0843 246.088 19.8286 246.328 19.5852C247.072 18.8291 247.915 18.2552 248.857 17.8619C249.803 17.4695 250.81 17.2761 251.884 17.2761C253.821 17.2761 255.366 17.8169 256.519 18.9032C257.45 19.781 258.006 20.8958 258.185 22.2477L259.043 17.6485H264.587L264.227 19.4531C264.949 18.7174 265.68 18.168 266.409 17.8001C267.14 17.4337 267.879 17.2516 268.631 17.2516C269.714 17.2516 270.581 17.5935 271.237 18.2756C271.894 18.9567 272.225 19.8622 272.225 20.9889C272.225 21.0307 272.225 21.0738 272.224 21.1169C272.525 20.5525 272.896 20.0416 273.336 19.5852C274.064 18.8369 274.906 18.2583 275.86 17.8542C276.815 17.4532 277.826 17.2511 278.892 17.2511C280.714 17.2511 282.21 17.7792 283.378 18.8364C284.548 19.8936 285.134 21.2323 285.134 22.8566C285.134 23.1623 285.126 23.4638 285.109 23.7526C285.093 24.0419 285.069 24.3407 285.036 24.6376ZM277.046 22.3081H280.053V22.1264C280.053 21.7341 279.945 21.4194 279.732 21.1887C279.516 20.9612 279.227 20.8458 278.863 20.8458C278.413 20.8458 278.041 20.9612 277.753 21.1973C277.459 21.4285 277.223 21.7999 277.046 22.3081ZM286.956 23.1268L288.871 5.44929L300.076 0.59668L290.987 23.1268H286.956ZM288.395 30.5615C287.569 30.5615 286.872 30.2954 286.301 29.7659C285.733 29.2323 285.448 28.592 285.448 27.8387C285.448 26.9018 285.779 26.1067 286.442 25.4478C287.104 24.7893 287.915 24.461 288.874 24.461C289.716 24.461 290.42 24.7316 290.992 25.2757C291.559 25.8165 291.844 26.4904 291.844 27.2942C291.844 28.1697 291.502 28.9349 290.816 29.5861C290.132 30.2377 289.325 30.5615 288.395 30.5615ZM234.544 24.8361H234.613C236.042 24.8361 237.162 24.4724 237.968 23.7449C238.773 23.0219 239.178 22.0311 239.178 20.7705C239.178 19.8459 238.889 19.1148 238.31 18.5776C237.736 18.0394 236.951 17.7715 235.956 17.7715H235.836L234.544 24.8361Z" fill="#CD3E38"/>
<path fill-rule="evenodd" clip-rule="evenodd" d="M271.679 4.53795C270.66 3.24783 269.383 2.22562 267.939 1.57579C267.096 1.19616 266.196 0.945039 265.257 0.84014C264.105 0.671212 262.429 0.660315 261.308 0.785649C262.082 1.3769 263.105 2.62569 263.549 3.54254C262.996 2.51398 261.641 1.51222 260.58 0.970464C260.578 0.969555 260.576 0.967294 260.574 0.965932C259.865 0.598104 259.138 0.331993 258.417 0.170785C258.412 0.168968 258.405 0.166694 258.399 0.164424C258.173 0.114472 257.929 0.0586217 257.68 0.0222931C257.595 0.0104862 257.512 0.00094142 257.43 -0.00632432C257.311 -0.0244887 257.198 -0.0244899 257.092 -0.0104125C257.004 -0.0149536 256.916 -0.0181242 256.83 -0.0190324C255.802 0.515453 254.74 1.35919 254.04 2.12663C254.04 2.12663 252.565 2.90361 251.67 3.15382C251.604 3.17017 251.538 3.18607 251.471 3.20105C251.34 3.23102 251.208 3.25645 251.077 3.27916C250.664 3.00124 250.175 2.71788 249.746 2.9304C249.458 3.07344 249.453 3.4776 249.496 3.74416C249.547 4.04251 249.691 4.34267 249.864 4.60924C249.194 5.66867 248.997 6.78487 249.735 7.882C249.602 8.51593 249.21 9.22162 248.894 9.79153L249.178 9.94002C249.841 10.1712 250.621 10.405 251.315 10.1648C251.614 10.0036 251.904 9.82149 252.14 9.57128C252.281 9.42052 252.596 9.02499 252.596 9.02499C252.596 9.02499 253.403 8.91147 253.799 8.74799C254.609 8.41331 255.46 7.58365 255.489 6.68134C255.519 7.42108 255.307 8.07545 254.722 8.5618C254.312 8.90284 253.504 9.34105 252.957 9.35831C252.957 9.35831 252.665 9.77336 252.34 10.0458C252.126 10.2261 251.902 10.3823 251.661 10.5226C249.456 12.4994 248.415 14.3362 248.216 16.4615C249.086 15.7408 250.605 15.4534 251.912 13.884C253.994 13.6487 255.658 12.9816 256.745 11.2369C256.511 10.6734 255.487 9.84828 254.964 9.47909C255.65 9.68117 256.372 10.2329 256.944 10.9C256.945 10.9 256.945 10.9 256.945 10.9C256.963 10.9032 256.955 10.9009 256.946 10.9C256.952 10.9095 256.958 10.9182 256.964 10.9277C256.998 10.974 257.03 11.0208 257.061 11.0689C257.719 12.0612 257.962 13.2918 258.156 14.4888C258.155 14.4888 258.154 14.4888 258.153 14.4888C256.883 14.7254 256.395 15.3462 256.059 15.6904H264.282C265.071 14.2245 266.117 12.3827 267.821 11.6234C267.842 11.632 267.866 11.6298 267.891 11.6361C269.182 11.939 270.08 13.3576 270.682 14.6069C270.002 14.8035 269.338 15.2004 268.93 15.6845L273.673 15.6899C273.966 14.7168 274.147 13.6841 274.194 12.612C274.203 12.4226 274.207 12.2314 274.207 12.0389C274.208 9.15758 273.251 6.52831 271.679 4.53795ZM254.551 4.60106C254.488 4.6778 254.419 4.74547 254.348 4.80314C254.56 4.40761 254.547 3.97894 254.288 3.76596C254.029 3.55344 253.606 3.62292 253.259 3.90719C253.302 3.82454 253.355 3.74462 253.418 3.66878C253.783 3.22467 254.333 3.07435 254.645 3.33183C254.958 3.58977 254.917 4.15739 254.551 4.60106ZM262.777 11.0394L262.715 11.2015C262.299 12.1788 262.182 13.0629 262.095 14.3085C261.858 14.3471 261.509 14.3835 260.9 14.5801C261.446 13.3495 261.867 11.8037 261.734 10.4727C262.074 10.6375 262.348 10.7656 262.8 10.9195L262.777 11.0394Z" fill="#C4C5C5"/>
</g>
<defs>
<clipPath id="clip0_91_4746">
<rect width="190.739" height="33.6953" fill="white" transform="translate(0 1.77051)"/>
</clipPath>
<clipPath id="clip1_91_4746">
<rect width="72.6574" height="37.2369" fill="white" transform="translate(227.343)"/>
</clipPath>
</defs>
</svg>
