<svg width="51" height="18" fill="none" xmlns="http://www.w3.org/2000/svg"><path d="m43.87 2.02-2.89 2.83 2.2 2.16h-4.5a8.09 8.09 0 0 0-8.07-7h-4.1a8.1 8.1 0 0 0-8.09 7h4.15c.45-1.72 2.04-3 3.94-3h4.1c1.89 0 3.49 1.28 3.94 3h-3.96v4h3.96a4.06 4.06 0 0 1-3.94 2.98h-4.1A4.07 4.07 0 0 1 22.57 11h-6.25V7H10.2v4h6.12c0 1.04-.68 3-3.3 3H8.17a4.05 4.05 0 0 1-4.09-4.01V8.02c0-2.21 1.83-4 4.09-4h8.15v-4H8.17a8.1 8.1 0 0 0-8.17 8V10c0 4.41 3.66 8 8.17 8h4.85c3.24 0 5.47-1.64 6.58-3.76A8.18 8.18 0 0 0 26.5 18h4.1a8.1 8.1 0 0 0 8.09-6.99h4.51L41 13.18 43.87 16 51 9.02l-7.13-7z" fill="#3EC227"/></svg>