<svg width="192" height="96" fill="none" xmlns="http://www.w3.org/2000/svg"><g clip-path="url(#a)"><path d="M157.16 29.97h-3.49v3.5h3.5v-3.5zM149.79 23.27v2.64l-5.3-4.7c-.29-.26-.42-.62-.39-.98.07-.36.26-.66.62-.85.36-.2.75-.3 1.18-.3h7.77v-3.46h-7.77a6.6 6.6 0 0 0-3.17.78 4.52 4.52 0 0 0-2.45 3.37 4.1 4.1 0 0 0 .2 2c.16.48.46.94.78 1.37a5.5 5.5 0 0 0-2.48 4.4v.43c0 3.04 2.78 5.5 6.17 5.5h2.52c3.4 0 6.17-2.5 6.17-5.5v-4.7h-3.85zm-5.75 2.38 4.57 4.09c-.36.16-.75.26-1.14.26h-2.52c-1.27 0-2.28-.92-2.28-2.03v-.42c0-.46.16-.88.45-1.21.26-.3.56-.52.92-.69z" fill="#333F48"/><path d="m165.4 34.38-10.9 10.9 8.3 8.32h-16.98a30.7 30.7 0 0 0-30.44-26.94H99.93a30.76 30.76 0 0 0-30.47 26.9h15.61a15.38 15.38 0 0 1 14.86-11.52h15.45c7.14 0 13.16 4.91 14.86 11.52h-14.93v15.39h14.93a15.35 15.35 0 0 1-14.86 11.52H99.93a15.38 15.38 0 0 1-14.86-11.52H61.54V53.56H38.46v15.39h23.08c0 4-2.59 11.52-12.44 11.52H30.8c-8.5 0-15.42-6.9-15.42-15.42v-7.6c0-8.5 6.91-15.4 15.42-15.4h30.74v-15.4H30.8A30.83 30.83 0 0 0 0 57.46v7.64a30.83 30.83 0 0 0 30.8 30.8h18.3c12.2 0 20.62-6.32 24.78-14.47a30.7 30.7 0 0 0 26.05 14.47h15.45a30.76 30.76 0 0 0 30.47-26.91h17.03l-8.35 8.35 10.87 10.86 26.87-26.87-26.88-26.94z" fill="#3EC227"/><path d="M81.58 19.23H77.5a9.2 9.2 0 0 1-9.2-9.2v-.81a9.2 9.2 0 0 1 9.2-9.2h4.1a9.2 9.2 0 0 1 9.21 9.2v.76c0 5.1-4.14 9.25-9.24 9.25zM77.5 4.76c-2.45 0-4.45 2-4.45 4.48v.8c0 2.46 2 4.46 4.45 4.46h4.07a4.5 4.5 0 0 0 4.5-4.5v-.76c0-2.46-2.01-4.46-4.46-4.46h-4.1v-.02zM56.33 19.23h-3.47a8.57 8.57 0 0 1-8.56-8.56V.44h4.75V10.7c0 2.1 1.71 3.83 3.83 3.83h3.47c2.1 0 3.83-1.71 3.83-3.83V.44h4.75V10.7a8.6 8.6 0 0 1-8.6 8.54zM109.25.03H93.1v4.73h5.71v14.47h4.73V4.76h5.71V.03zM130.55 4.76V.03h-17.3v19.2h17.3V14.5h-12.56v-2.53h12.56V7.78h-12.56V4.76h12.56zM33.13 14.5h-8.57c-2.46 0-4.46-2-4.46-4.46v-.8c0-2.48 2-4.48 4.46-4.48h4.1c2.45 0 4.45 2 4.45 4.46v5.28h4.75V9.24a9.2 9.2 0 0 0-9.2-9.2h-4.1a9.2 9.2 0 0 0-9.2 9.2v.8a9.2 9.2 0 0 0 9.2 9.2h8.57V14.5zM42.6 14.52h-4.74v4.73h4.73v-4.73z" fill="#333F48"/></g><defs><clipPath id="a"><path fill="#fff" d="M0 0h191.69v95.85H0z"/></clipPath></defs></svg>