<svg xmlns="http://www.w3.org/2000/svg" version="1.0" width="1024" height="312" viewBox="-1.4 -1.4 159.2 48.5"><path d="M156.5 23c0 13.2-8.9 22.8-22 22.8-12.3 0-21.4-8.8-21.4-22.9C113 7.8 124 0 135 0c10.5 0 21.5 7.4 21.5 23zm-10.7 0c0-6.4-3-13.8-11-13.8-7.3 0-11.1 6.2-11.1 13.7 0 8.4 4.7 13.8 11 13.8 8 0 11.1-7.3 11.1-13.8M109.2 41.6a29 29 0 0 1-15.6 4.1c-14.7 0-22-10.1-22-22.5C71.6 9.2 81.5 0 94.4 0c6.4 0 10.5 1 14.1 2.9l-3.7 8.6c-2.8-1.2-6-1.9-9.8-1.9-9.3 0-12.5 5.6-12.5 13.3 0 8.3 4.3 13.7 11.7 13.7 2.7 0 4.7-.6 5.3-1V28H92v-8.8h17.2v22.5M58.9 45c-1.5-5.3-4-9.4-6-12-1.6-2.2-3-2.6-3-2.6h-3.5V45H36V1.2A76.2 76.2 0 0 1 49 0c3.5 0 6.5.4 8.9 1.1 2.4.8 4.4 1.9 5.9 3.2 1.6 1.3 2.7 3 3.4 4.8a14.9 14.9 0 0 1-1 13.1c-1.3 2-3.4 4-5.6 5.3v.2c5 2.3 7.7 9.5 10.4 17.2H58.9zm-.8-29.9c0-1.8-.7-3.3-2-4.3a8.7 8.7 0 0 0-5.4-1.6 41.4 41.4 0 0 0-4.3.2v12.7l3.2.1c2.5 0 4.8-.7 6.2-1.8 1.5-1.2 2.3-3 2.3-5.3M0 34.5V.7h30.2v9.4h-20v7.6h17v9h-17v4.7c0 3 1.8 4.2 4.1 4.2H31V45H10.4C2.7 45 0 41.5 0 34.5" style="fill:#ee003b;fill-opacity:1;fill-rule:nonzero;stroke:none"/></svg>