<svg width="66" height="42" viewBox="0 0 66 42" fill="none" xmlns="http://www.w3.org/2000/svg">
<rect x="0.5" y="0.5" width="65" height="41" rx="3.5" stroke="white"/>
<path d="M22.7385 33.4451V31.786C22.7385 31.1513 22.3519 30.7357 21.6882 30.7357C21.3564 30.7357 20.9956 30.8452 20.7475 31.2061C20.5542 30.9033 20.2772 30.7357 19.8616 30.7357C19.5845 30.7357 19.3074 30.8195 19.0884 31.1223V30.7905H18.5085V33.4451H19.0884V31.9793C19.0884 31.5089 19.3365 31.2867 19.7231 31.2867C20.1096 31.2867 20.3029 31.5347 20.3029 31.9793V33.4451H20.8828V31.9793C20.8828 31.5089 21.1599 31.2867 21.5175 31.2867C21.9041 31.2867 22.0974 31.5347 22.0974 31.9793V33.4451H22.7385ZM31.3403 30.7905H30.3996V29.9883H29.8197V30.7905H29.2945V31.3156H29.8197V32.5334C29.8197 33.1423 30.0678 33.4999 30.7314 33.4999C30.9795 33.4999 31.2565 33.4161 31.4498 33.3066L31.2823 32.8072C31.1148 32.9168 30.9215 32.9458 30.783 32.9458C30.5059 32.9458 30.3964 32.7783 30.3964 32.5044V31.3156H31.3371V30.7905H31.3403ZM36.263 30.7325C35.9311 30.7325 35.7089 30.9 35.5703 31.1191V30.7872H34.9904V33.4419H35.5703V31.9471C35.5703 31.5057 35.7636 31.2544 36.1244 31.2544C36.234 31.2544 36.3725 31.2834 36.4853 31.3092L36.6528 30.7551C36.5368 30.7325 36.3725 30.7325 36.263 30.7325ZM28.8242 31.0096C28.5471 30.8163 28.1606 30.7325 27.7449 30.7325C27.0813 30.7325 26.6399 31.0643 26.6399 31.5895C26.6399 32.0308 26.9718 32.2821 27.5516 32.3626L27.8287 32.3917C28.1315 32.4464 28.2991 32.5302 28.2991 32.6687C28.2991 32.862 28.0768 33.0005 27.6902 33.0005C27.3036 33.0005 26.9975 32.862 26.8042 32.7235L26.5272 33.1648C26.83 33.3871 27.2456 33.4967 27.6612 33.4967C28.4344 33.4967 28.879 33.1359 28.879 32.6397C28.879 32.1693 28.5181 31.9213 27.9673 31.8375L27.6902 31.8085C27.4421 31.7796 27.2488 31.7247 27.2488 31.5605C27.2488 31.3672 27.4421 31.2576 27.7482 31.2576C28.08 31.2576 28.4118 31.3962 28.5794 31.4799L28.8242 31.0096ZM44.2527 30.7325C43.9208 30.7325 43.6985 30.9 43.56 31.1191V30.7872H42.9801V33.4419H43.56V31.9471C43.56 31.5057 43.7533 31.2544 44.1141 31.2544C44.2236 31.2544 44.3622 31.2834 44.4749 31.3092L44.6425 30.7615C44.5297 30.7325 44.3654 30.7325 44.2527 30.7325ZM36.8429 32.1178C36.8429 32.92 37.397 33.4999 38.254 33.4999C38.6406 33.4999 38.9176 33.4161 39.1947 33.1971L38.9176 32.7267C38.6953 32.8942 38.4763 32.9747 38.2249 32.9747C37.7546 32.9747 37.4228 32.6429 37.4228 32.1178C37.4228 31.6184 37.7546 31.2867 38.2249 31.2609C38.4731 31.2609 38.6953 31.3446 38.9176 31.5089L39.1947 31.0385C38.9176 30.8163 38.6406 30.7357 38.254 30.7357C37.397 30.7325 36.8429 31.3156 36.8429 32.1178ZM42.2069 32.1178V30.7905H41.627V31.1223C41.4337 30.8743 41.1567 30.7357 40.7958 30.7357C40.0485 30.7357 39.4685 31.3156 39.4685 32.1178C39.4685 32.92 40.0485 33.4999 40.7958 33.4999C41.1824 33.4999 41.4595 33.3614 41.627 33.1133V33.4451H42.2069V32.1178ZM40.0774 32.1178C40.0774 31.6475 40.3802 31.2609 40.8796 31.2609C41.3499 31.2609 41.6818 31.6217 41.6818 32.1178C41.6818 32.5882 41.3499 32.9747 40.8796 32.9747C40.3835 32.9458 40.0774 32.585 40.0774 32.1178ZM33.138 30.7325C32.3648 30.7325 31.8107 31.2867 31.8107 32.1146C31.8107 32.9458 32.3648 33.4967 33.167 33.4967C33.5536 33.4967 33.9402 33.3871 34.2462 33.1359L33.9692 32.7202C33.7469 32.8878 33.4698 32.9973 33.196 32.9973C32.8352 32.9973 32.4776 32.8298 32.3938 32.3626H34.3557C34.3557 32.2789 34.3557 32.2242 34.3557 32.1404C34.3815 31.2867 33.8822 30.7325 33.138 30.7325ZM33.138 31.2318C33.4988 31.2318 33.7469 31.4542 33.8016 31.8665H32.4195C32.4743 31.5089 32.7224 31.2318 33.138 31.2318ZM47.5452 32.1178V29.7402H46.9653V31.1223C46.772 30.8743 46.4949 30.7357 46.1341 30.7357C45.3867 30.7357 44.8068 31.3156 44.8068 32.1178C44.8068 32.92 45.3867 33.4999 46.1341 33.4999C46.5207 33.4999 46.7978 33.3614 46.9653 33.1133V33.4451H47.5452V32.1178ZM45.4157 32.1178C45.4157 31.6475 45.7185 31.2609 46.2179 31.2609C46.6882 31.2609 47.0201 31.6217 47.0201 32.1178C47.0201 32.5882 46.6882 32.9747 46.2179 32.9747C45.7185 32.9458 45.4157 32.585 45.4157 32.1178ZM26.002 32.1178V30.7905H25.4221V31.1223C25.2289 30.8743 24.9518 30.7357 24.591 30.7357C23.8435 30.7357 23.2636 31.3156 23.2636 32.1178C23.2636 32.92 23.8435 33.4999 24.591 33.4999C24.9776 33.4999 25.2546 33.3614 25.4221 33.1133V33.4451H26.002V32.1178ZM23.8468 32.1178C23.8468 31.6475 24.1496 31.2609 24.649 31.2609C25.1193 31.2609 25.4511 31.6217 25.4511 32.1178C25.4511 32.5882 25.1193 32.9747 24.649 32.9747C24.1496 32.9458 23.8468 32.585 23.8468 32.1178Z" fill="white"/>
<path d="M16.9237 18.4257C16.9237 23.916 21.3806 28.3657 26.8638 28.3657C28.8159 28.3657 30.7321 27.7771 32.3541 26.7078C27.1221 22.4519 27.158 14.421 32.3541 10.165C30.7321 9.08851 28.8159 8.50717 26.8638 8.50717C21.3806 8.5 16.9237 12.9568 16.9237 18.4257ZM33 26.2341C38.0597 22.2868 38.0382 14.5932 33 10.6244C27.9618 14.5932 27.9403 22.294 33 26.2341ZM49.0763 18.4257C49.0763 12.9568 44.6194 8.5 39.1363 8.5C37.1841 8.5 35.2679 9.08851 33.6459 10.1579C38.8205 14.4138 38.8994 22.4663 33.6459 26.7007C35.2679 27.7772 37.1985 28.3585 39.1363 28.3585C44.6194 28.3657 49.0763 23.916 49.0763 18.4257Z" fill="white"/>
</svg>
