<svg width="20" height="20" viewBox="0 0 20 20" fill="none" xmlns="http://www.w3.org/2000/svg">
<path fill-rule="evenodd" clip-rule="evenodd" d="M10.0001 2.41699C5.81192 2.41699 2.41675 5.81217 2.41675 10.0003C2.41675 14.1885 5.81192 17.5837 10.0001 17.5837C14.1882 17.5837 17.5834 14.1885 17.5834 10.0003C17.5834 5.81217 14.1882 2.41699 10.0001 2.41699ZM0.916748 10.0003C0.916748 4.98374 4.9835 0.916992 10.0001 0.916992C15.0167 0.916992 19.0834 4.98374 19.0834 10.0003C19.0834 15.0169 15.0167 19.0837 10.0001 19.0837C4.9835 19.0837 0.916748 15.0169 0.916748 10.0003ZM10.0001 5.91699C10.4143 5.91699 10.7501 6.25278 10.7501 6.66699V10.8337C10.7501 11.2479 10.4143 11.5837 10.0001 11.5837C9.58587 11.5837 9.25008 11.2479 9.25008 10.8337V6.66699C9.25008 6.25278 9.58587 5.91699 10.0001 5.91699ZM10.0001 14.167C10.4603 14.167 10.8334 13.7939 10.8334 13.3337C10.8334 12.8734 10.4603 12.5003 10.0001 12.5003C9.53984 12.5003 9.16675 12.8734 9.16675 13.3337C9.16675 13.7939 9.53984 14.167 10.0001 14.167Z" fill="#E78022"/>
</svg>
