<svg width="40" height="32" fill="none" xmlns="http://www.w3.org/2000/svg"><path d="M39.41 25.06h-1.07V13.47a.59.59 0 0 0-.58-.58h-8.3V1.3a.59.59 0 0 0-.6-.59H15.8a.59.59 0 1 0 0 1.18h2.08v4.15c0 .32.26.59.58.59h3.05c.33 0 .59-.27.59-.59V1.89h6.2v11H11.66v-11h1.78a.59.59 0 1 0 0-1.18h-2.36a.59.59 0 0 0-.59.59v11.59H2.22a.59.59 0 0 0-.58.58v5.64a.59.59 0 1 0 1.17 0v-5.05H9v4.15c0 .32.26.59.59.59h3.05c.32 0 .58-.27.58-.59v-4.15h6.2v11H2.8v-3.6a.59.59 0 1 0-1.17 0v3.6H.59a.59.59 0 0 0-.59.58v2.63c0 .32.26.58.59.58h1.05v1.24c0 .66.53 1.2 1.2 1.2h3.9c.66 0 1.2-.54 1.2-1.2v-1.24h8.9v1.24c0 .66.55 1.2 1.2 1.2h3.91c.66 0 1.2-.54 1.2-1.2v-1.24h3.02a.59.59 0 1 0 0-1.17h-25v-1.45h37.66v1.45H28.5a.59.59 0 1 0 0 1.17h3.55v1.24c0 .66.54 1.2 1.2 1.2h3.9c.67 0 1.2-.54 1.2-1.2v-1.24h1.05c.33 0 .59-.26.59-.58v-2.63a.59.59 0 0 0-.59-.58Zm-18.5-19.6h-1.87V1.88h1.88v3.56Zm1.07 23.4v1.23c0 .01-.01.02-.03.02h-3.9a.03.03 0 0 1-.03-.02v-1.24h3.96Zm-15.21 0v1.23l-.03.02h-3.9a.03.03 0 0 1-.03-.02v-1.24h3.96Zm23.04-14.8v3.57h-1.88v-3.57h1.88Zm-17.76 3.57h-1.88v-3.57h1.88v3.57Zm8.54-3.57h6.16v4.15c0 .32.27.59.59.59h3.05c.33 0 .59-.27.59-.59v-4.15h6.19v11H20.59v-11Zm16.6 16.03c0 .01-.01.02-.03.02h-3.9a.03.03 0 0 1-.03-.02v-1.24h3.96v1.24Z" fill="#858C91"/></svg>