<svg width="21" height="21" viewBox="0 0 21 21" fill="none" xmlns="http://www.w3.org/2000/svg">
<path d="M2.02216 16.9622V16.4622H1.52216H0.5V16.3364H20.5V16.4622H19.4779H18.9779V16.9622V18.4287V18.9287H19.4779H20.5V19.0545H0.5V18.9287H1.52216H2.02216V18.4287V16.9622ZM4.02587 16.4622H3.52587V16.9622V18.4287V18.9287H4.02587H9.21056H9.71056V18.4287V16.9622V16.4622H9.21056H4.02587ZM16.9742 18.9287H17.4742V18.4287V16.9621V16.4621H16.9742H11.7142H11.2142V16.9621V18.4287V18.9287H11.7142H16.9742Z" stroke="#7B858D"/>
<path d="M12.2689 3.89997V3.11182H18.1032C18.182 3.11182 18.246 3.17581 18.246 3.25467V13.5442C18.246 13.6231 18.182 13.687 18.1032 13.687H1.98026C1.90137 13.687 1.8374 13.6231 1.8374 13.5442V3.25467C1.8374 3.17579 1.90137 3.11182 1.98026 3.11182H7.81449V3.89997C7.81449 4.29438 8.13419 4.61426 8.52877 4.61426H11.5546C11.9492 4.61426 12.2689 4.29438 12.2689 3.89997Z" stroke="#7B858D"/>
</svg>
