<svg width="32" height="32" fill="none" xmlns="http://www.w3.org/2000/svg"><g clip-path="url(#a)" stroke="#3EC227" stroke-width="3" stroke-linecap="round" stroke-linejoin="round"><path d="M5.71 2.99H5.7A6 6 0 0 0 1 8.85v1.18a2 2 0 0 0 2 2h5a2 2 0 0 0 2-2v0a2 2 0 0 1 2-2h8a2 2 0 0 1 2 2 2 2 0 0 0 2 2h5a2 2 0 0 0 2-2V8.85a6 6 0 0 0-4.7-5.86h-.01a54.12 54.12 0 0 0-20.58 0v0zM5 16.03v8a6 6 0 0 0 6 6h10a6 6 0 0 0 6-6v-8"/><path d="M10.5 18.03a.5.5 0 1 0 0 1 .5.5 0 0 0 0-1M16 18.03a.5.5 0 1 0 0 1 .5.5 0 0 0 0-1M16 23.2a.5.5 0 1 0 0 1 .5.5 0 0 0 0-1M21.5 18.03a.5.5 0 1 0 0 1 .5.5 0 0 0 0-1M21.5 23.2a.5.5 0 1 0 0 1 .5.5 0 0 0 0-1M10.5 23.03a.5.5 0 1 0 0 1 .5.5 0 0 0 0-1"/></g><defs><clipPath id="a"><path fill="#fff" d="M0 0h32v32H0z"/></clipPath></defs></svg>