<svg width="12" height="16" viewBox="0 0 12 16" fill="none" xmlns="http://www.w3.org/2000/svg">
<path fill-rule="evenodd" clip-rule="evenodd" d="M0.75 6.19996C0.75 3.15856 3.26518 0.69873 6.375 0.69873C9.48482 0.69873 12 3.15856 12 6.19996C12 9.47712 8.44821 13.996 6.99375 15.7171C6.67232 16.0943 6.08571 16.0943 5.76429 15.7171C4.30179 13.996 0.75 9.47712 0.75 6.19996ZM4.36523 6.19995C4.36523 7.28448 5.26523 8.16468 6.37416 8.16468C7.48309 8.16468 8.38309 7.28448 8.38309 6.19995C8.38309 5.11543 7.48309 4.23523 6.37416 4.23523C5.26523 4.23523 4.36523 5.11543 4.36523 6.19995Z" fill="#3EC227"/>
</svg>
