<svg width="131" height="40" viewBox="0 11 131 37" fill="none" xmlns="http://www.w3.org/2000/svg"><g filter="url(#a)"><path d="M2 24a14 14 0 0 1 14-14h113v24a14 14 0 0 1-14 14H16A14 14 0 0 1 2 34V24z" fill="#fff"/></g><g clip-path="url(#b)" fill="#ADB2B6"><path d="M113.9 43.5c.16.12.41.2.7.2.22 0 .42-.03.6-.16.16-.13.28-.3.33-.54.04-.17-.05-.3-.17-.42-.04-.05-.13-.13-.21-.17-.08-.04-.17-.13-.25-.17-.09-.04-.17-.12-.25-.17a.5.5 0 0 1-.21-.2c-.13-.13-.17-.34-.13-.55.05-.3.21-.5.46-.67.25-.17.5-.25.84-.25h.3c.12 0 .24.04.33.08l-.13.3a1.21 1.21 0 0 0-.58-.13c-.09 0-.17 0-.25.04-.09 0-.17.04-.26.09-.08.04-.16.08-.2.16-.05.09-.09.17-.13.3 0 .08 0 .16.04.2.04.09.08.13.13.17.08.05.12.13.2.17.09.04.17.13.26.17.2.08.33.2.46.38.04.08.12.16.12.25.04.08.04.2 0 .33-.08.34-.25.59-.5.76-.25.16-.54.2-.84.2-.33 0-.58-.04-.75-.16l.09-.21zm-2.63-3.02h1.7l-.03.3h-1.34l-.25 1.25h1.3l-.05.3h-1.3l-.24 1.34h1.42l-.13.29h-1.75l.67-3.48zm-1.92 0h.33l-.67 3.48h-.33l.67-3.48zm-3.47 1.55h.38c.2 0 .41-.04.62-.12.21-.09.34-.25.38-.5.04-.13.04-.26 0-.34a.33.33 0 0 0-.17-.17c-.08-.04-.17-.08-.25-.08h-.67l-.29 1.21zm-.04-1.55h.88c.66 0 .96.3.83.88a.93.93 0 0 1-.33.55c-.17.12-.38.2-.59.25.13 0 .21.04.25.12.05.05.05.09.05.13 0 .04.04.12.04.17l.33 1.34h-.38l-.29-1.18a.79.79 0 0 0-.2-.41c-.05-.05-.09-.05-.17-.05h-.51l-.33 1.64h-.33l.75-3.44zm-3.3 0h1.71l-.04.3h-1.33l-.25 1.25h1.29l-.04.3h-1.3l-.25 1.34h1.42l-.04.29h-1.75l.58-3.48zm-3.26 3.48h-.37l-.63-3.48h.38l.5 3.14 1.75-3.14h.34l-1.97 3.48zm-2.5-3.48h.33l-.66 3.48h-.34l.67-3.48zm-3 0h.33l-.63 3.19h1.38l-.04.29H93.1l.66-3.48zm-3.26 0h1.7l-.03.3h-1.34l-.25 1.25h1.3l-.05.3h-1.3l-.24 1.34h1.42l-.04.29h-1.76l.59-3.48zm-4.39 3.19h.3c1.04.04 1.67-.47 1.87-1.47.09-.5.05-.88-.2-1.09-.21-.2-.55-.3-.92-.3h-.5l-.55 2.86zm.25-3.19h.88c.63 0 1.04.17 1.25.46.21.34.25.72.17 1.26a2.03 2.03 0 0 1-.83 1.34c-.42.25-.92.42-1.5.42h-.6l.63-3.48zM82.04 31.06c-.42 0-.75.17-1.04.5-.3.34-.42.76-.42 1.26 0 .38.08.67.3.88.2.21.5.34.83.34.46 0 .8-.17 1.08-.5.3-.34.42-.76.42-1.26 0-.38-.08-.67-.3-.88-.24-.21-.53-.34-.87-.34zm28.98 2.1h-7.19c0 .54.13.96.34 1.25.2.3.54.46.96.46.3 0 .54-.08.8-.2.2-.13.45-.38.74-.76l3.84.84a6.8 6.8 0 0 1-2.46 2.72c-1 .63-2.17.92-3.5.92a5.36 5.36 0 0 1-3.89-1.42 4.7 4.7 0 0 1-1.38-2.47l-.62 3.47h-5.14l1-5.44c.05-.17.05-.38.09-.55 0-.16.04-.33.04-.5 0-.2-.04-.37-.17-.46-.12-.12-.25-.17-.46-.17-.37 0-.66.17-.91.5-.21.34-.42.97-.59 1.8l-.88 4.82h-5.09L87.1 35a6.37 6.37 0 0 1-2.96 2.72c-.92.42-1.88.63-2.92.63a5.36 5.36 0 0 1-3.89-1.43 4.6 4.6 0 0 1-1.5-3.18 7.6 7.6 0 0 1-2 2.18 9.6 9.6 0 0 1-3.3 1.55c-1.25.33-2.84.46-4.72.46H61l2.84-15.36h4.13c1.3 0 2.34.08 3.22.2.87.13 1.58.34 2.13.6a6.36 6.36 0 0 1 2.75 2.46c.63 1.05.96 2.26.96 3.6.17-.25.38-.46.59-.67a6.35 6.35 0 0 1 4.8-2c1.67 0 3 .45 4 1.41.8.76 1.3 1.72 1.42 2.9l.76-3.98h4.8l-.3 1.55a6.96 6.96 0 0 1 1.88-1.43 3.94 3.94 0 0 1 1.92-.46c.92 0 1.67.3 2.26.88.58.59.83 1.38.83 2.35v.12c.26-.5.59-.92.96-1.34a7.23 7.23 0 0 1 2.17-1.5 7 7 0 0 1 2.63-.5c1.6 0 2.89.45 3.89 1.37 1 .92 1.5 2.1 1.5 3.48 0 .25 0 .54-.04.8-.04.2-.04.5-.08.75zm-6.9-2.05h2.6v-.13c0-.34-.09-.63-.3-.8-.16-.2-.41-.29-.75-.29-.37 0-.7.09-.96.3-.25.16-.46.5-.58.92zm8.57.7 1.67-15.32 9.68-4.18-7.89 19.5h-3.46zm1.25 6.45c-.71 0-1.34-.25-1.8-.67-.5-.46-.75-1-.75-1.67 0-.8.3-1.5.88-2.05a2.77 2.77 0 0 1 2.09-.84c.7 0 1.33.25 1.83.71.5.46.75 1.05.75 1.76 0 .75-.29 1.42-.87 1.97-.63.54-1.34.8-2.13.8zm-46.55-4.94h.04c1.25 0 2.21-.33 2.88-.96.71-.63 1.04-1.46 1.04-2.6 0-.79-.25-1.42-.75-1.88a2.9 2.9 0 0 0-2.04-.71h-.05l-1.12 6.15z"/></g><text fill="#ADB2B6" xml:space="preserve" style="white-space:pre" font-family="Inter, sans-serif" font-size="10" font-weight="600" letter-spacing="0em"><tspan x="12.7" y="28.14">powered</tspan> <tspan x="43.12" y="37.14">by</tspan></text><defs><clipPath id="b"><path fill="#fff" transform="translate(61)" d="M0 0h63v44H0z"/></clipPath><filter id="a" x="0" y="9" width="131" height="42" filterUnits="userSpaceOnUse" color-interpolation-filters="sRGB"><feFlood flood-opacity="0" result="BackgroundImageFix"/><feColorMatrix in="SourceAlpha" values="0 0 0 0 0 0 0 0 0 0 0 0 0 0 0 0 0 0 127 0"/><feOffset dy="1"/><feGaussianBlur stdDeviation="1"/><feColorMatrix values="0 0 0 0 0.2 0 0 0 0 0.247059 0 0 0 0 0.282353 0 0 0 0.2 0"/><feBlend in2="BackgroundImageFix" result="effect1_dropShadow"/><feBlend in="SourceGraphic" in2="effect1_dropShadow" result="shape"/></filter></defs></svg>
