<svg width="24" height="24" fill="none" xmlns="http://www.w3.org/2000/svg"><g clip-path="url(#a)" fill="#333F48"><path d="M3.5 9h8a.7.7 0 0 0 0-1.5h-8a.7.7 0 0 0 0 1.4ZM9.6 10.3h-6a.7.7 0 0 0 0 1.4h6a.7.7 0 0 0 0-1.4ZM9.6 13.1h-6a.7.7 0 0 0 0 1.4h6a.7.7 0 0 0 0-1.4ZM9.6 16h-6a.7.7 0 0 0 0 1.3h6a.7.7 0 0 0 0-1.4Z"/><path d="m23.8 19.8-3.5-3.5a5 5 0 0 0-2-7.5V5.4c0-.2 0-.4-.2-.5L13.4.2a.7.7 0 0 0-.5-.2H2.6A2.6 2.6 0 0 0 0 2.6v18.8C0 22.8 1.2 24 2.6 24h13.1c1.4 0 2.6-1.2 2.6-2.6V18l1-.6 3.5 3.5a.7.7 0 0 0 1 0c.3-.3.3-.7 0-1Zm-5-4a3.5 3.5 0 0 1-5 0 3.5 3.5 0 0 1 0-5 3.5 3.5 0 0 1 5 0 3.5 3.5 0 0 1 0 5Zm-3-11.1h-2.2V2.4l2.3 2.3Zm1 16.7c0 .7-.5 1.2-1.1 1.2H2.6c-.7 0-1.2-.5-1.2-1.2V2.6c0-.7.5-1.2 1.2-1.2h9.6v4c0 .4.3.7.7.7h4v2.4a4.9 4.9 0 0 0-5.5 4.9 4.9 4.9 0 0 0 5.5 4.9v3.1Z"/></g><defs><clipPath id="a"><path fill="#fff" d="M0 0h24v24H0z"/></clipPath></defs></svg>