<svg width="81" height="80" fill="none" xmlns="http://www.w3.org/2000/svg"><path d="M80.5 14C80.5.1 62.4-5.2 54.7 6.2H15.5c-.8 0-1.5.7-1.5 1.6v12.8h-8C2.9 20.6.5 23 .5 26v48.6c0 3 2.4 5.4 5.4 5.4h61c3 0 5.5-2.4 5.5-5.4V43.2c0-2.5-1.6-4.5-3.8-5.2V28a14 14 0 0 0 11.9-14Zm-14-11c6 0 10.9 5 10.9 11-.6 14.5-21.4 14.5-21.9 0 0-6 5-11 11-11ZM53.1 9.4c-.6 1.8-1 3.8-.8 5.7h-7.1c-2 0-2 3 0 3H53a14 14 0 0 0 1.9 4H24v-4h7.2c2.1 0 2.1-3 0-3h-8.7c-.9 0-1.6.7-1.6 1.5v7c0 1 .7 1.6 1.6 1.6h35.3a14 14 0 0 0 7.6 3v9.7H42.8v-7.2c0-.9-.7-1.6-1.6-1.6H22.5c-.9 0-1.6.7-1.6 1.6v7.2h-4V9.3h36.3ZM39.6 32.2v34.3l-1.5.8-2.4-1.2c-.5-.2-1-.2-1.4 0l-2.5 1.2-2.4-1.2c-.4-.2-1-.2-1.4 0l-2.4 1.2-1.6-.8V32.2h15.6ZM10 43.2v31.4C10 76 9 77 7.8 77h-2c-1.2 0-2.2-1-2.2-2.3V26c0-1.3 1-2.3 2.3-2.3h8V38a5.4 5.4 0 0 0-3.9 5.2Zm59.2 0v31.4c0 1.3-1 2.3-2.2 2.3H12.7c.3-.7.5-1.5.5-2.3V43.2c0-1.3 1-2.3 2.2-2.3H21v26.6c0 .6.3 1.1.9 1.4l3 1.6c.5.2 1 .2 1.5 0l2.4-1.3 2.4 1.3c.5.2 1 .2 1.4 0l2.5-1.3 2.4 1.3c.4.2 1 .2 1.4 0l3.1-1.6c.5-.3.9-.8.9-1.4V40.9H67c1.2 0 2.2 1 2.2 2.3Z" fill="#5C656D"/><path d="m65.1 15.2 1.5.6c.2 0 .4.3.5.6a1 1 0 0 1-.5 1.4 1 1 0 0 1-.9 0l-.7-.3a1.6 1.6 0 1 0-1.2 2.9l.7.3h.4v.6c0 2.1 3 2 3.1 0v-.8a4.2 4.2 0 0 0-.3-7.6l-1.4-.6a1 1 0 0 1-.6-.6 1 1 0 0 1 .6-1.4c.3-.1.6-.1.8 0l.8.3A1.6 1.6 0 1 0 69 7.7l-.8-.3-.3-.1v-.6c0-2-3-2-3.1 0v.8a4.2 4.2 0 0 0-2 5.4c.4 1 1.2 1.8 2.2 2.3ZM48.2 32.2h8.6c2.1-.1 2.1-3 0-3.2h-8.6c-2 .1-2 3 0 3.2ZM28.7 39.5H35c2 0 2-3 0-3h-6.3c-2 0-2 3 0 3ZM28.7 47H35c2-.2 2-3.1 0-3.2h-6.3c-2 0-2 3 0 3.1ZM28.7 54.3H35c2 0 2-3 0-3.1h-6.3c-2 0-2 3 0 3.1ZM28.7 61.7H35c2-.1 2-3 0-3.1h-6.3c-2 0-2 3 0 3ZM38.3 18c2 0 2-3 0-3-2.1 0-2.1 3 0 3Z" fill="#5C656D"/></svg>