<svg width="40" height="40" fill="none" xmlns="http://www.w3.org/2000/svg"><path d="M20 40C9.2 40 0 30.8 0 20 0 12.43 4.56 5.36 11.33 2.03a.59.59 0 1 1 .51 1.05A19.16 19.16 0 0 0 1.17 20c0 10.16 8.67 18.83 18.83 18.83 10.16 0 18.83-8.67 18.83-18.83C38.83 9.84 30.16 1.17 20 1.17c-1.82 0-3.63.27-5.37.8a.59.59 0 1 1-.35-1.11A19.5 19.5 0 0 1 20 0c10.8 0 20 9.2 20 20s-9.2 20-20 20Z" fill="#333F48"/><path d="M20 23.63a3.63 3.63 0 1 1 0-7.26 3.63 3.63 0 0 1 0 7.26Zm0-6.08a2.46 2.46 0 1 0 0 4.9 2.46 2.46 0 0 0 0-4.9ZM11.89 34.55c-.1 0-.2-.03-.3-.08a16.79 16.79 0 0 1-8.4-14.55c0-.33.27-.6.6-.6H14.2c.33 0 .59.27.59.6 0 1.73 1.04 3.49 2.64 4.47.28.16.37.51.2.79l-5.23 9.07a.6.6 0 0 1-.51.3ZM4.38 20.5a15.6 15.6 0 0 0 7.3 12.65l4.67-8.08a6.55 6.55 0 0 1-2.7-4.57H4.38ZM22.87 15.53a.59.59 0 0 1-.3-.09 4.9 4.9 0 0 0-5.14 0c-.33.16-.6.1-.8-.2l-5.25-9.08a.59.59 0 0 1 .22-.8 16.8 16.8 0 0 1 16.8 0c.28.16.38.52.22.8l-5.24 9.07a.6.6 0 0 1-.5.3ZM12.7 6.09l4.65 8.06a6.07 6.07 0 0 1 5.3 0L27.3 6.1a15.64 15.64 0 0 0-14.6 0ZM28.11 34.55a.6.6 0 0 1-.5-.3l-.62-1.06c-.38-.66.63-1.24 1.01-.59l.32.55a15.6 15.6 0 0 0 7.3-12.65h-9.27a6.55 6.55 0 0 1-2.7 4.57l2.8 4.86c.39.65-.63 1.24-1 .58l-3.09-5.33a.59.59 0 0 1 .2-.8 5.42 5.42 0 0 0 2.65-4.47c0-.32.26-.58.59-.58h10.42c.32 0 .58.26.58.58a16.79 16.79 0 0 1-8.4 14.56.58.58 0 0 1-.29.08Z" fill="#333F48"/></svg>