<svg width="85" height="51" fill="none" xmlns="http://www.w3.org/2000/svg"><path d="M1.64 5.68a3.5 3.5 0 013.5-3.5h38.8a3.5 3.5 0 013.5 3.5v21.48a3.5 3.5 0 01-3.5 3.5H5.13a3.5 3.5 0 01-3.5-3.5V5.68zM28.2 45.2a3.98 3.98 0 11-7.95 0 3.98 3.98 0 017.96 0zM72.34 45.2a3.98 3.98 0 11-7.96 0 3.98 3.98 0 017.96 0zM54.7 3.35l4.52 8.12h-6.08V3.35h1.57z" stroke="#858C91" stroke-width="3"/><path d="M1.64 36.91h45.8" stroke="#3EC227" stroke-width="3" stroke-linecap="round" stroke-linejoin="round"/><path d="M34.86 43.15h12.57" stroke="#858C91" stroke-width="3" stroke-linecap="round" stroke-linejoin="round"/><path d="M53.16 43.16v-26c0-.27.23-.5.5-.5h7.88c.15 0 .3.08.39.2l8.05 9.88c.36.45.82.8 1.35 1.02l5.77 2.44a3.5 3.5 0 011.55 1.28l3.4 5.12c.38.57.59 1.25.59 1.94v1.62a3.5 3.5 0 01-3.5 3.5h-2.41a7.36 7.36 0 00-7.36-7.32h-1.99a7.36 7.36 0 00-7.35 7.32h-6.37a.5.5 0 01-.5-.5z" stroke="#858C91" stroke-width="3"/><path d="M9.14 26.5a1.41 1.41 0 100-2.83 1.41 1.41 0 000 2.82zM25.1 26.5a1.41 1.41 0 100-2.83 1.41 1.41 0 000 2.82zM41.05 26.5a1.41 1.41 0 100-2.83 1.41 1.41 0 000 2.82z" fill="#858C91" stroke="#858C91"/></svg>