<svg width="20" height="20" fill="none" xmlns="http://www.w3.org/2000/svg"><g clip-path="url(#a)" stroke-width="1.5" stroke-linecap="round" stroke-linejoin="round"><path d="m.64 11.02 2.45 1.24M.72 7.7l2.34 1.25M1.7 4.93l1.41.87" stroke="#3EC227"/><path d="m9.05 4.3 6.87 3.5M11.72 2.93 6.56 5.56a1.76 1.76 0 0 0-.95 1.57v5.74a1.76 1.76 0 0 0 .95 1.57l5.16 2.63a1.68 1.68 0 0 0 1.54 0l5.15-2.63a1.76 1.76 0 0 0 .95-1.57V7.13a1.76 1.76 0 0 0-.95-1.57l-5.15-2.63a1.69 1.69 0 0 0-1.54 0v0Z" stroke="#F5F5F6"/><path d="m19.09 6.19-6.6 3.37-6.6-3.37M12.49 9.56v7.7M15.92 7.8v2.43" stroke="#F5F5F6"/></g><defs><clipPath id="a"><path fill="#fff" d="M0 0h20v20H0z"/></clipPath></defs></svg>