<svg width="33" height="32" fill="none" xmlns="http://www.w3.org/2000/svg"><g clip-path="url(#a)" stroke-width="2" stroke-linecap="round" stroke-linejoin="round"><path d="m1.44 17.63 3.91 1.98M1.56 12.31l3.75 2.01M3.14 7.9 5.4 9.27" stroke="#3EC227"/><path d="m14.9 6.87 11 5.62M19.16 4.69 10.91 8.9a2.82 2.82 0 0 0-1.52 2.52v9.17a2.82 2.82 0 0 0 1.52 2.51l8.25 4.22a2.7 2.7 0 0 0 2.46 0l8.25-4.22a2.82 2.82 0 0 0 1.52-2.51v-9.17a2.81 2.81 0 0 0-1.52-2.52L21.62 4.7a2.7 2.7 0 0 0-2.46 0v0z" stroke="#858C91"/><path d="m30.96 9.9-10.57 5.4L9.83 9.9M20.4 15.3V27.6M25.9 12.49v3.88" stroke="#858C91"/></g><defs><clipPath id="a"><path fill="#fff" transform="translate(.41)" d="M0 0h32v32H0z"/></clipPath></defs></svg>