<svg width="65" height="65" fill="none" xmlns="http://www.w3.org/2000/svg"><g clip-path="url(#clip0)" stroke-width="3" stroke-linecap="round" stroke-linejoin="round"><path d="M2.46 35.93l7.83 3.97M2.7 25.3l7.5 4.02M5.87 16.46l4.5 2.77" stroke="#3EC227"/><path d="M29.37 14.41l22 11.24M37.91 10.05l-16.5 8.43a5.63 5.63 0 00-3.04 5.03v18.34a5.64 5.64 0 003.04 5.03l16.5 8.43a5.4 5.4 0 004.92 0l16.5-8.43a5.63 5.63 0 003.04-5.03V23.51a5.63 5.63 0 00-3.04-5.03l-16.5-8.43a5.4 5.4 0 00-4.92 0v0z" stroke="#858C91"/><path d="M61.5 20.48l-21.13 10.8-21.13-10.8M40.37 31.27V55.9M51.37 25.65v7.77" stroke="#858C91"/></g><defs><clipPath id="clip0"><path fill="#fff" transform="translate(.41 .68)" d="M0 0h64v64H0z"/></clipPath></defs></svg>