<svg width="81" height="80" fill="none" xmlns="http://www.w3.org/2000/svg"><path d="m66.88 24 2-2c1-1 1-2.5 0-3.38L67 16.75c-1-1-2.5-1-3.38 0l-2 2a32.29 32.29 0 0 0-17.37-7.25V8.75h1.25A3.68 3.68 0 0 0 49.25 5a3.68 3.68 0 0 0-3.75-3.75c-.75 0-1.25.5-1.25 1.25s.5 1.25 1.25 1.25 1.25.5 1.25 1.25-.5 1.25-1.25 1.25h-10c-.75 0-1.25-.5-1.25-1.25s.5-1.25 1.25-1.25h5c.75 0 1.25-.5 1.25-1.25s-.5-1.25-1.25-1.25h-5A3.68 3.68 0 0 0 31.75 5a3.68 3.68 0 0 0 3.75 3.75h1.25v2.75a33.3 33.3 0 0 0-17.25 7.13l-2-2c-1-1-2.5-1-3.38 0l-1.87 1.87c-1 1-1 2.5 0 3.38l2 2A33.26 33.26 0 0 0 6.75 45a33.58 33.58 0 0 0 21 31.25c.63.25 1.38 0 1.63-.63.25-.62 0-1.37-.63-1.62a31.26 31.26 0 1 1 43-29c0 17.25-14 31.25-31.25 31.25-.75 0-1.25.5-1.25 1.25s.5 1.25 1.25 1.25A33.77 33.77 0 0 0 74.25 45c0-8-2.75-15.25-7.38-21Zm-51.13-1.88-1.88-1.75 1.76-1.87 1.87 1.88c-.63.5-1.13 1.12-1.75 1.75Zm26-10.87h-2.5v-2.5h2.5v2.5Zm21.63 9 1.74-1.88L67 20.13 65.12 22c-.5-.63-1.12-1.13-1.75-1.75Z" fill="#5C656D"/><path d="m35.13 75.75-1.88-.38c-.63-.12-1.38.25-1.5.88-.13.63.25 1.38.88 1.5a41 41 0 0 0 2.24.38c.63 0 1.13-.38 1.26-1 .12-.63-.38-1.25-1-1.38ZM13 43.75c-.75 0-1.25.5-1.25 1.25a28.75 28.75 0 1 0 .5-5.25c-.13.63.38 1.38 1 1.5.63.13 1.38-.38 1.5-1a26.14 26.14 0 0 1 25.75-21.5A26.25 26.25 0 1 1 14.25 45c0-.75-.5-1.25-1.25-1.25Z" fill="#5C656D"/><path d="M58.5 58.5c.63.38 1.5 0 1.75-.38a23.2 23.2 0 0 0 4-13.12A23.74 23.74 0 0 0 40.5 21.25c-.75 0-1.25.5-1.25 1.25s.5 1.25 1.25 1.25c11.75 0 21.25 9.5 21.25 21.25a20.7 20.7 0 0 1-3.63 11.75c-.37.63-.12 1.38.38 1.75Z" fill="#5C656D"/><path d="M36.75 45a3.68 3.68 0 0 0 3.75 3.75c.88 0 1.63-.25 2.25-.75l12.13 8c.24.13 1 .5 1.74-.38.5-.5.26-1.37-.37-1.74l-12.13-8c.13-.26.13-.5.13-.88a3.68 3.68 0 0 0-3.75-3.75A3.68 3.68 0 0 0 36.75 45Zm3.75-1.25c.75 0 1.25.5 1.25 1.25s-.5 1.25-1.25 1.25-1.25-.5-1.25-1.25.5-1.25 1.25-1.25ZM51.75 65.75a1.25 1.25 0 1 0 0-2.5 1.25 1.25 0 0 0 0 2.5ZM40.5 68.75a1.25 1.25 0 1 0 0-2.5 1.25 1.25 0 0 0 0 2.5ZM29.25 65.75a1.25 1.25 0 1 0 0-2.5 1.25 1.25 0 0 0 0 2.5ZM21 57.5a1.25 1.25 0 1 0 0-2.5 1.25 1.25 0 0 0 0 2.5ZM18 46.25a1.25 1.25 0 1 0 0-2.5 1.25 1.25 0 0 0 0 2.5ZM21 35a1.25 1.25 0 1 0 0-2.5 1.25 1.25 0 0 0 0 2.5ZM29.25 26.75a1.25 1.25 0 1 0 0-2.5 1.25 1.25 0 0 0 0 2.5Z" fill="#5C656D"/></svg>