<svg width="62" height="62" viewBox="0 0 62 62" fill="none" xmlns="http://www.w3.org/2000/svg">
<path fill-rule="evenodd" clip-rule="evenodd" d="M4.01172 31.0001C4.01172 16.0951 16.0945 4.01233 30.9994 4.01233C45.9044 4.01233 57.9872 16.0951 57.9872 31.0001C57.9872 45.905 45.9044 57.9878 30.9994 57.9878C16.0945 57.9878 4.01172 45.905 4.01172 31.0001ZM30.9994 0.0123291C13.8854 0.0123291 0.0117188 13.886 0.0117188 31.0001C0.0117188 48.1141 13.8854 61.9878 30.9994 61.9878C48.1135 61.9878 61.9872 48.1141 61.9872 31.0001C61.9872 13.886 48.1135 0.0123291 30.9994 0.0123291ZM45.4578 25.1666C46.2388 24.3856 46.2388 23.1192 45.4578 22.3382C44.6767 21.5571 43.4104 21.5571 42.6294 22.3382L28.1003 36.8672L22.2676 31.0345C21.4865 30.2535 20.2202 30.2535 19.4392 31.0345C18.6581 31.8156 18.6581 33.0819 19.4392 33.8629L26.6861 41.1099C27.0612 41.4849 27.5699 41.6957 28.1003 41.6957C28.6307 41.6957 29.1395 41.4849 29.5145 41.1099L45.4578 25.1666Z" fill="#3EC227"/>
</svg>
