<svg width="12" height="14" fill="none" xmlns="http://www.w3.org/2000/svg"><g clip-path="url(#a)"><path d="M6 1.667a6 6 0 1 0 0 12 6 6 0 0 0 0-12Zm0 10.667A4.667 4.667 0 1 1 6 3a4.667 4.667 0 0 1 0 9.334Zm2.3-10.78A.667.667 0 1 1 9.033.446l2 1.333A.666.666 0 0 1 10.667 3a.627.627 0 0 1-.367-.113l-2-1.334ZM.78 2.7a.667.667 0 0 1 .187-.92l2-1.333A.667.667 0 1 1 3.7 1.553l-2 1.334A.627.627 0 0 1 1.333 3a.667.667 0 0 1-.553-.3Zm7.027 5.827a.667.667 0 0 1-.217 1.092.667.667 0 0 1-.73-.146L5.527 8.14a.667.667 0 0 1-.194-.473V5a.667.667 0 1 1 1.334 0v2.393l1.14 1.134Z" fill="#fff"/></g><defs><clipPath id="a"><path fill="#fff" d="M0 0h12v14H0z"/></clipPath></defs></svg>