<svg width="48" height="48" fill="none" xmlns="http://www.w3.org/2000/svg"><path d="M11.3 31.5H3.7c-.8 0-1.5.7-1.5 1.5v12c0 .8.7 1.5 1.5 1.5h7.5c.9 0 1.6-.7 1.6-1.5V33c0-.8-.7-1.5-1.6-1.5zM44.3 37.5h-7.5c-.9 0-1.5.7-1.5 1.5v6c0 .8.6 1.5 1.5 1.5h7.5c.8 0 1.5-.7 1.5-1.5v-6c0-.8-.7-1.5-1.5-1.5zM27.8 25.5h-7.6c-.8 0-1.4.7-1.4 1.5v18c0 .8.6 1.5 1.4 1.5h7.6c.8 0 1.4-.7 1.4-1.5V27c0-.8-.6-1.5-1.4-1.5z" stroke="#858C91" stroke-width="3" stroke-linecap="round" stroke-linejoin="round"/><path d="M25.8 2.2L28.3 7h4.3a1.2 1.2 0 01.8 2l-4 3.8 2.3 5a1.2 1.2 0 01-1.7 1.4l-5.3-2.9-5.2 3a1.2 1.2 0 01-1.7-1.5l2.2-5-3.9-3.8a1.2 1.2 0 01.8-2h4.3l2.5-5a1.2 1.2 0 012.1 0v0z" stroke="#3EC227" stroke-width="3" stroke-linecap="round" stroke-linejoin="round"/></svg>