<svg width="48" height="48" fill="none" xmlns="http://www.w3.org/2000/svg"><path d="M39 46.5V34A18.7 18.7 0 0026.2 1.5c-15 0-17.6 13-23.2 27h6v6a6 6 0 006 6h3v6" stroke="#858C91" stroke-width="3" stroke-linecap="round" stroke-linejoin="round"/><path d="M25.5 24a3 3 0 100-6 3 3 0 000 6z" stroke="#3EC227" stroke-width="3" stroke-linecap="round" stroke-linejoin="round"/><path d="M23 9.4l-1 2.9a2 2 0 01-2.3 1.4l-3-.7a2.7 2.7 0 00-2.5 4.4l2 2.2a2 2 0 010 2.8l-2 2.2a2.7 2.7 0 002.6 4.4l3-.7a2 2 0 012.3 1.4l.9 2.9a2.7 2.7 0 005 0l1-2.9a2 2 0 012.3-1.4l3 .7a2.7 2.7 0 002.5-4.4l-2-2.2a2 2 0 010-2.8l2-2.2a2.7 2.7 0 00-2.6-4.4l-3 .7a2 2 0 01-2.3-1.4L28 9.4a2.7 2.7 0 00-5 0v0z" stroke="#3EC227" stroke-width="3" stroke-linecap="round" stroke-linejoin="round"/></svg>