<svg width="48" height="48" fill="none" xmlns="http://www.w3.org/2000/svg"><g clip-path="url(#clip0)" stroke-width="3" stroke-linecap="round" stroke-linejoin="round"><path d="M18 46.5a4.5 4.5 0 100-9 4.5 4.5 0 000 9zM1.5 42h12" stroke="#858C91"/><path d="M22.5 42H27a3 3 0 003-3v-4.5a6 6 0 00-6-6h-6l-4.3-8.7a6 6 0 00-5.4-3.3H1.5M1.5 28.5H18" stroke="#858C91"/><path d="M22 22.5a17.4 17.4 0 01-2.5-7.5 13.5 13.5 0 1127 0c0 5.2-6.5 14-10.5 19" stroke="#3EC227"/><path d="M33 19.5a4.5 4.5 0 100-9 4.5 4.5 0 000 9z" stroke="#3EC227"/></g><defs><clipPath id="clip0"><path fill="#fff" d="M0 0h48v48H0z"/></clipPath></defs></svg>