<svg width="48" height="48" fill="none" xmlns="http://www.w3.org/2000/svg"><g clip-path="url(#clip0)" stroke-width="3" stroke-linecap="round" stroke-linejoin="round"><path d="M39 18h3.8a3.7 3.7 0 013.7 3.7v21.1a3.7 3.7 0 01-3.7 3.7h-9.1a3.7 3.7 0 01-3.7-3.7V36" stroke="#3EC227"/><path d="M22 34.5V30l1.5.2a4.6 4.6 0 005.3-4.5V22l1.4-.4a2.3 2.3 0 001.4-3.4L28.8 14V13C28.8 6.2 22 .9 14 1.6A13.6 13.6 0 008.3 27v7.5" stroke="#858C91"/><path d="M42 30.8L36.7 36l-2.2-3" stroke="#3EC227"/></g><defs><clipPath id="clip0"><path fill="#fff" d="M0 0h48v48H0z"/></clipPath></defs></svg>