<svg width="48" height="48" fill="none" xmlns="http://www.w3.org/2000/svg"><path d="M24 13.5a6 6 0 100-12 6 6 0 000 12zM31.5 28.5V24a7.5 7.5 0 00-15 0v4.5h3l1.5 12h6l1.5-12h3zM9 16.5a4.5 4.5 0 100-9 4.5 4.5 0 000 9zM11.4 19.9A7.5 7.5 0 001.5 27v1.5h3l1.5 9h6l.8-4.5M39 16.5a4.5 4.5 0 100-9 4.5 4.5 0 000 9zM36.6 19.9a7.5 7.5 0 019.9 7.1v1.5h-3l-1.5 9h-6l-.8-4.5" stroke="#858C91" stroke-width="3" stroke-linecap="round" stroke-linejoin="round"/><path d="M46.5 42c0 2.5-10 4.5-22.5 4.5-12.4 0-22.5-2-22.5-4.5" stroke="#3EC227" stroke-width="3" stroke-linecap="round" stroke-linejoin="round"/></svg>