<svg width="48" height="48" fill="none" xmlns="http://www.w3.org/2000/svg"><path d="M15 43.5h-1.5a3 3 0 01-3-3v-12a3 3 0 013-3h18a3 3 0 013 3v10.6M34.5 28.5h6a6 6 0 016 6v6a3 3 0 01-3 3h-4.6" stroke="#3EC227" stroke-width="3" stroke-linecap="round" stroke-linejoin="round"/><path d="M35.3 46.5a3.7 3.7 0 100-7.5 3.7 3.7 0 000 7.5zM18.8 46.5a3.7 3.7 0 100-7.5 3.7 3.7 0 000 7.5zM31.6 43.5h-9.2M46.5 34.5h-6" stroke="#3EC227" stroke-width="3" stroke-linecap="round" stroke-linejoin="round"/><path d="M3.5 27.8a18 18 0 1134-8.3M19.5 1.5a23.7 23.7 0 00-7.5 18M19.5 1.5a23.7 23.7 0 017.5 18M2.5 13.5h34" stroke="#858C91" stroke-width="3" stroke-linecap="round" stroke-linejoin="round"/></svg>