<svg width="48" height="48" fill="none" xmlns="http://www.w3.org/2000/svg"><g clip-path="url(#clip0)" stroke-width="3" stroke-linecap="round" stroke-linejoin="round"><path d="M38 42H31M26 42h-3.5V28.5h18v12M40.5 40.5v-8.6l3.3 1a3.8 3.8 0 012.7 3.6V41a1 1 0 01-1 1h-2.4" stroke="#3EC227"/><path d="M19.5 21v-8a1 1 0 00-1-1h-7a1 1 0 00-1 1v8M1.5 10.5l13.5-9 13.5 9M25.5 21V8.6M4.5 8.5v12.6" stroke="#858C91"/><path d="M28.5 46.5a3 3 0 100-6 3 3 0 000 6zM40.5 46.5a3 3 0 100-6 3 3 0 000 6z" stroke="#3EC227"/><path d="M13.5 25.5V27M13.5 33v1.5M13.5 40.5a3 3 0 003 3" stroke="#858C91"/></g><defs><clipPath id="clip0"><path fill="#fff" d="M0 0h48v48H0z"/></clipPath></defs></svg>