<svg width="32" height="32" fill="none" xmlns="http://www.w3.org/2000/svg"><path d="M25.33 28a2.67 2.67 0 1 0 0-5.33 2.67 2.67 0 0 0 0 5.33zM6.67 28a2.67 2.67 0 1 0 0-5.33 2.67 2.67 0 0 0 0 5.33z" stroke="#3EC227" stroke-linecap="round" stroke-linejoin="round"/><path d="M28 25.33h2.67a.67.67 0 0 0 .66-.66v-6.4a.67.67 0 0 0-.2-.46l-2.46-2.48-3.15-5.65a.67.67 0 0 0-.58-.35l-5.6-2V6h-18a.67.67 0 0 0-.67.67v18a.67.67 0 0 0 .66.66H4M22.67 25.33H9.33M19 7v8M31.33 22.67H.67M28.67 15.33h-9.34" stroke="#3EC227" stroke-linecap="round" stroke-linejoin="round"/></svg>