<svg width="66" height="42" viewBox="0 0 66 42" fill="none" xmlns="http://www.w3.org/2000/svg">
<rect x="0.5" y="0.5" width="65" height="41" rx="3.5" stroke="white"/>
<path fill-rule="evenodd" clip-rule="evenodd" d="M23.3092 27.2682H19.9544L17.4386 17.3883C17.3192 16.9338 17.0657 16.532 16.6928 16.3427C15.762 15.8668 14.7364 15.4881 13.6176 15.297V14.9167H19.022C19.7679 14.9167 20.3273 15.4881 20.4205 16.1517L21.7258 23.2784L25.0791 14.9167H28.3407L23.3092 27.2682ZM30.2054 27.2682H27.037L29.646 14.9167H32.8144L30.2054 27.2682ZM36.9135 18.3385C37.0067 17.6732 37.5661 17.2928 38.2188 17.2928C39.2443 17.1973 40.3615 17.3883 41.2939 17.8626L41.8533 15.2032C40.9209 14.8228 39.8954 14.6318 38.9646 14.6318C35.8895 14.6318 33.6518 16.3427 33.6518 18.7172C33.6518 20.5236 35.2368 21.472 36.3557 22.0434C37.5661 22.6132 38.0323 22.9935 37.939 23.5633C37.939 24.4179 37.0067 24.7983 36.076 24.7983C34.9571 24.7983 33.8383 24.5134 32.8144 24.0375L32.2549 26.6985C33.3738 27.1727 34.5842 27.3638 35.703 27.3638C39.1511 27.4576 41.2939 25.7484 41.2939 23.1829C41.2939 19.9522 36.9135 19.7628 36.9135 18.3385ZM52.3824 27.2682L49.8667 14.9167H47.1645C46.6051 14.9167 46.0457 15.297 45.8592 15.8668L41.2007 27.2682H44.4623L45.1133 25.4635H49.1208L49.4937 27.2682H52.3824ZM47.6306 18.243L48.5613 22.8981H45.9524L47.6306 18.243Z" fill="white"/>
</svg>
