<svg width="840" height="104" viewBox="104 72 840 104" fill="none" xmlns="http://www.w3.org/2000/svg"><circle cx="124.5" cy="156.5" r="7.5" fill="#D6D9DA"/><circle cx="388.5" cy="156.5" r="7.5" fill="#D6D9DA"/><path fill="#D6D9DA" d="M123 155h793v3H123z"/><path fill="#3EC227" d="M117 155h271v3H117z"/><g filter="url(#filter0_d)"><circle cx="388.5" cy="156.5" r="12.5" fill="#fff"/></g><circle cx="388.5" cy="156.5" r="6.5" fill="#3EC227"/><circle cx="129.5" cy="156.5" r="12.5" fill="#3EC227"/><path d="M125 157.4l2.7 2.6 6.3-6" stroke="#fff" stroke-width="3" stroke-linecap="round" stroke-linejoin="round"/><circle cx="652.5" cy="156.5" r="6" fill="#fff" stroke="#D6D9DA" stroke-width="3"/><circle cx="916.5" cy="156.5" r="6" fill="#fff" stroke="#D6D9DA" stroke-width="3"/><g clip-path="url(#clip0)" stroke-width="3" stroke-linecap="round" stroke-linejoin="round"><path d="M149.5 81.5h-39a3 3 0 00-3 3v39a3 3 0 003 3h39a3 3 0 003-3v-39a3 3 0 00-3-3z" stroke="#5C656D"/><path d="M130 89l-9 12-6-6" stroke="#3EC227"/><path d="M134.5 96.5h9" stroke="#5C656D"/><path d="M130 107l-9 12-6-6" stroke="#3EC227"/><path d="M134.5 114.5h9" stroke="#5C656D"/></g><path d="M379.6 98.8a2.6 2.6 0 003.8 0l1.3-1.4a2.6 2.6 0 014.5 1.8v1.9a2.6 2.6 0 002.7 2.7h1.9a2.6 2.6 0 011.8 4.5l-1.4 1.3a2.6 2.6 0 000 3.8l1.4 1.3a2.6 2.6 0 01-1.8 4.5h-2a2.6 2.6 0 00-2.7 2.7l.1 1.8a2.6 2.6 0 01-4.5 2l-1.3-1.5a2.6 2.6 0 00-3.8 0l-1.3 1.4a2.6 2.6 0 01-4.5-1.9V122a2.6 2.6 0 00-2.7-2.8l-1.9.1a2.6 2.6 0 01-1.8-4.5l1.4-1.3a2.6 2.6 0 000-3.8l-1.4-1.3a2.6 2.6 0 011.8-4.5h2a2.6 2.6 0 002.7-2.7l-.1-1.9a2.6 2.6 0 014.5-1.8l1.3 1.4z" stroke="#5C656D" stroke-width="3" stroke-linecap="round" stroke-linejoin="round"/><path d="M381.5 115.3a3.8 3.8 0 100-7.5 3.8 3.8 0 000 7.5zM402.3 90a.7.7 0 00-.6 1.3.8.8 0 001.2-.1.8.8 0 00-.6-1.2z" stroke="#3EC227" stroke-width="3" stroke-linecap="round" stroke-linejoin="round"/><path d="M407.4 83.7a1.5 1.5 0 012 2l-1 2.5a1.5 1.5 0 00.4 1.7l2.1 1.8a1.5 1.5 0 01-.7 2.6l-2.7.4a1.5 1.5 0 00-1.3 1.3l-.4 2.7a1.5 1.5 0 01-1 1.2 1.5 1.5 0 01-1.6-.5l-1.8-2.1a1.5 1.5 0 00-1.7-.5l-2.5 1a1.5 1.5 0 01-2-2l1-2.5a1.5 1.5 0 00-.4-1.7l-2.2-1.8a1.5 1.5 0 01.7-2.6l2.8-.4a1.5 1.5 0 001.2-1.3l.4-2.7a1.5 1.5 0 012.7-.7l1.7 2.1a1.5 1.5 0 001.7.5l2.6-1z" stroke="#5C656D" stroke-width="3" stroke-linecap="round" stroke-linejoin="round"/><g clip-path="url(#clip1)" stroke="#D6D9DA" stroke-linecap="round" stroke-linejoin="round"><path d="M665 81.5a10.5 10.5 0 00-7.9 17.4l-1.3 7.5 6.9-4.2a10.5 10.5 0 102.3-20.7v0zM645.5 117.5a6.7 6.7 0 100-13.5 6.7 6.7 0 000 13.5zM656 126.5a12.1 12.1 0 00-21 0M665 108.5v18" stroke-width="3"/><path d="M630.5 126.5v-39a6 6 0 016-6h15M630.5 93.5h18" stroke-width="3"/><path d="M642.5 87.5h6" stroke-width="2"/><path d="M669.5 91.1A4.2 4.2 0 01665 95a4.2 4.2 0 01-4.5-3.9" stroke-width="3"/></g><g clip-path="url(#clip2)" stroke="#D6D9DA" stroke-width="3" stroke-linecap="round" stroke-linejoin="round"><path d="M931 122a4 4 0 100-8 4 4 0 000 8zM903 122a4 4 0 100-8 4 4 0 000 8z"/><path d="M935 118h4a1 1 0 001-1v-9.6a1 1 0 00-.3-.7L936 103l-4.7-8.5a1 1 0 00-.9-.5l-8.4-3v-2h-27a1 1 0 00-1 1v27a1 1 0 001 1h4M927 118h-20M921.5 90.5v12M940 114h-46"/><path d="M901.4 101l4.8 4.8 9-9M936 103h-14"/></g><rect x="464" y="72" width="114" height="71" rx="16" fill="#EBECED"/><text fill="#5C656D" style="white-space:pre" font-family="Inter, sans-serif" font-size="16" font-weight="600" letter-spacing="0em"><tspan x="490" y="130">next day</tspan></text><g clip-path="url(#clip3)" stroke="#5C656D" stroke-width="2" stroke-linecap="round" stroke-linejoin="round"><path d="M519.5 106.3a9 9 0 100-18 9 9 0 000 18zM525.5 90.5l1.9-1.9M527 88.3l.8.7M519.5 88.3v-4.5M521.8 83.8h-4.5M519.5 98l-3.8-4.2"/></g><defs><clipPath id="clip0"><path fill="#fff" transform="translate(106 80)" d="M0 0h48v48H0z"/></clipPath><clipPath id="clip1"><path fill="#fff" transform="translate(629 80)" d="M0 0h48v48H0z"/></clipPath><clipPath id="clip2"><path fill="#fff" transform="translate(893 80)" d="M0 0h48v48H0z"/></clipPath><clipPath id="clip3"><path fill="#fff" transform="translate(507.5 83)" d="M0 0h24v24H0z"/></clipPath><filter id="filter0_d" x="372" y="144" width="33" height="33" filterUnits="userSpaceOnUse" color-interpolation-filters="sRGB"><feFlood flood-opacity="0" result="BackgroundImageFix"/><feColorMatrix in="SourceAlpha" values="0 0 0 0 0 0 0 0 0 0 0 0 0 0 0 0 0 0 127 0" result="hardAlpha"/><feOffset dy="4"/><feGaussianBlur stdDeviation="2"/><feColorMatrix values="0 0 0 0 0.12549 0 0 0 0 0.0705882 0 0 0 0 0.243137 0 0 0 0.1 0"/><feBlend in2="BackgroundImageFix" result="effect1_dropShadow"/><feBlend in="SourceGraphic" in2="effect1_dropShadow" result="shape"/></filter></defs></svg>
