<svg width="100" height="335" viewBox="4 48 100 335" fill="none" xmlns="http://www.w3.org/2000/svg"><path d="M69.2 382c1.4 0 2.5-1.2 2.5-2.6 0-1.5-1.1-2.6-2.5-2.6a2.6 2.6 0 0 0-2.5 2.6c0 1.4 1 2.5 2.5 2.5ZM51.4 382c1.4 0 2.6-1.2 2.6-2.6a2.6 2.6 0 1 0-5 0c-.1 1.4 1 2.5 2.4 2.5Z" stroke="#ADB2B6" stroke-width="1.5" stroke-linecap="round" stroke-linejoin="round"/><path d="M71.7 379.4h2.6l.4-.2.2-.5v-6.2c0-.2 0-.4-.2-.5l-2.3-2.4-3-5.5a.6.6 0 0 0-.6-.3l-5.3-2v-1.3H46.4l-.5.2-.2.5v17.5c0 .2 0 .3.2.5l.5.2h2.5M66.7 379.4H54M63.2 361.5v7.8M74.9 376.8H45.7" stroke="#ADB2B6" stroke-width="1.5" stroke-linecap="round" stroke-linejoin="round"/><path d="m50.4 368.3 3 3.1 5.8-5.8M72.4 369.6h-9" stroke="#ADB2B6" stroke-width="1.5" stroke-linecap="round" stroke-linejoin="round"/><path fill="#D6D9DA" d="M17 158v213h-2V158z"/><path fill="#3EC227" d="M17 64v92h-2V64z"/><g filter="url(#a)"><circle cx="16" cy="154" r="12" fill="#fff"/></g><circle cx="16" cy="154" r="6.2" fill="#3EC227"/><circle cx="16.6" cy="64.1" r="8" fill="#3EC227"/><path d="m13.7 64.7 1.7 1.7 4-3.9" stroke="#fff" stroke-width="1.5" stroke-linecap="round" stroke-linejoin="round"/><circle cx="16.5" cy="266.5" r="3" fill="#fff" stroke="#D6D9DA" stroke-width="3"/><circle cx="16.5" cy="371.5" r="3" fill="#fff" stroke="#D6D9DA" stroke-width="3"/><path d="M72.6 49H47c-1.1 0-2 1-2 2v25.6c0 1 .9 2 2 2h25.6c1 0 2-1 2-2V51c0-1-1-2-2-2Z" stroke="#5C656D" stroke-width="1.5" stroke-linecap="round" stroke-linejoin="round"/><path d="m59.8 54-6 7.8L50 58" stroke="#3EC227" stroke-width="1.5" stroke-linecap="round" stroke-linejoin="round"/><path d="M62.7 58.9h6" stroke="#5C656D" stroke-width="1.5" stroke-linecap="round" stroke-linejoin="round"/><path d="m59.8 65.8-6 7.9-3.9-4" stroke="#3EC227" stroke-width="1.5" stroke-linecap="round" stroke-linejoin="round"/><path d="M62.7 70.7h6M53.6 150.4a1.7 1.7 0 0 0 2.6 0l.8-1a1.7 1.7 0 0 1 3 1.3l-.1 1.2a1.7 1.7 0 0 0 1.8 1.8h1.2a1.7 1.7 0 0 1 1.3 3l-1 .8a1.7 1.7 0 0 0-.4 2l.4.5 1 .8a1.7 1.7 0 0 1-1.3 3h-1.2a1.7 1.7 0 0 0-1.8 1.7v1.3a1.7 1.7 0 0 1-3 1.2l-.7-1a1.7 1.7 0 0 0-2.6 0l-.8 1a1.7 1.7 0 0 1-3-1.2v-1.3a1.7 1.7 0 0 0-1.7-1.8l-1.3.1a1.7 1.7 0 0 1-1.2-3l1-.8a1.7 1.7 0 0 0 0-2.5l-1-.9a1.7 1.7 0 0 1 1.2-3l1.3.1a1.7 1.7 0 0 0 1.8-1.8l-.1-1.2a1.7 1.7 0 0 1 3-1.2l.8.9Z" stroke="#5C656D" stroke-width="1.5" stroke-linecap="round" stroke-linejoin="round"/><path d="M54.9 161.2a2.5 2.5 0 1 0 0-5 2.5 2.5 0 0 0 0 5ZM68.5 144.6a.5.5 0 1 0 0 1 .5.5 0 0 0 0-1Z" stroke="#3EC227" stroke-width="1.5" stroke-linecap="round" stroke-linejoin="round"/><path d="M71.9 140.5a1 1 0 0 1 1.3.7v.6l-.7 1.7a1 1 0 0 0 .3 1l1.4 1.2a1 1 0 0 1 0 1.5 1 1 0 0 1-.5.3l-1.8.2a1 1 0 0 0-.8.8l-.3 1.8a1 1 0 0 1-.7.8 1 1 0 0 1-1-.3l-1.1-1.4a1 1 0 0 0-1.2-.3l-1.6.6a1 1 0 0 1-1.4-.7v-.5l.7-1.7a1 1 0 0 0-.3-1.1l-1.4-1.2a1 1 0 0 1 0-1.5l.5-.2 1.8-.3a1 1 0 0 0 .8-.8l.3-1.8a1 1 0 0 1 1.7-.5l1.2 1.4a1 1 0 0 0 1 .3l1.8-.6Z" stroke="#5C656D" stroke-width="1.5" stroke-linecap="round" stroke-linejoin="round"/><path d="M67.7 251a6.9 6.9 0 0 0-5.2 11.5l-.9 5 4.5-2.9a6.9 6.9 0 1 0 1.6-13.6v0ZM54.8 274.7a4.4 4.4 0 1 0 0-8.9 4.4 4.4 0 0 0 0 8.9ZM61.7 280.6a8 8 0 0 0-13.7 0M67.7 268.8v11.8" stroke="#ADB2B6" stroke-width="1.5" stroke-linecap="round" stroke-linejoin="round"/><path d="M45 280.6V255a4 4 0 0 1 4-4h9.8M45 259h11.8M52.9 255h4M70.6 257.4a2.8 2.8 0 0 1-3 2.5 2.8 2.8 0 0 1-2.9-2.5" stroke="#ADB2B6" stroke-width="1.5" stroke-linecap="round" stroke-linejoin="round"/><rect x="4" y="192" width="100" height="42" rx="10" fill="#fff"/><text fill="#5C656D" xml:space="preserve" style="white-space:pre" font-family="Montserrat, sans-serif" font-size="14" font-weight="600" letter-spacing="0em"><tspan x="34.1" y="218">15 min</tspan></text><path d="M16.9 220.3c3.8 0 6.9-3 6.9-6.7 0-3.6-3.1-6.6-7-6.6-3.7 0-6.8 3-6.8 6.6 0 3.7 3 6.7 6.9 6.7ZM21.5 208.6l1.4-1.4M22.6 207l.6.5M16.9 207v-3.4M18.6 203.6h-3.4M16.9 214.2l-2.9-3" stroke="#5C656D" stroke-width="2" stroke-linecap="round" stroke-linejoin="round"/><defs><filter id="a" x="0" y="142" width="32" height="32" filterUnits="userSpaceOnUse" color-interpolation-filters="sRGB"><feFlood flood-opacity="0" result="BackgroundImageFix"/><feColorMatrix in="SourceAlpha" values="0 0 0 0 0 0 0 0 0 0 0 0 0 0 0 0 0 0 127 0" result="hardAlpha"/><feOffset dy="4"/><feGaussianBlur stdDeviation="2"/><feColorMatrix values="0 0 0 0 0.12549 0 0 0 0 0.0705882 0 0 0 0 0.243137 0 0 0 0.1 0"/><feBlend in2="BackgroundImageFix" result="effect1_dropShadow"/><feBlend in="SourceGraphic" in2="effect1_dropShadow" result="shape"/></filter></defs></svg>
