<svg width="22" height="21" viewBox="0 0 22 21" fill="none" xmlns="http://www.w3.org/2000/svg">
<path fill-rule="evenodd" clip-rule="evenodd" d="M20.0984 4.15029C19.2993 3.33226 18.4182 3.31181 18.0289 3.27091C15.1193 3.06641 10.7755 3.06641 10.7755 3.06641C10.7755 3.06641 6.4112 3.06641 3.52214 3.27091C3.11234 3.31181 2.23128 3.33226 1.45267 4.15029C0.837973 4.78425 0.633072 6.2158 0.633072 6.2158C0.633072 6.2158 0.428177 7.89274 0.428177 9.56969V11.1444C0.428177 12.8213 0.633072 14.4983 0.633072 14.4983C0.633072 14.4983 0.837973 15.9298 1.45267 16.5638C2.25177 17.3818 3.27626 17.3614 3.74753 17.4432C5.4072 17.6068 10.796 17.6477 10.796 17.6477C10.796 17.6477 15.1603 17.6477 18.0494 17.4227C18.4592 17.3818 19.3403 17.3614 20.1189 16.5433C20.7336 15.9094 20.9385 14.4778 20.9385 14.4778C20.9385 14.4778 21.1434 12.8009 21.1434 11.1239V9.54924C21.1434 7.87229 20.9385 6.19534 20.9385 6.19534C20.9385 6.19534 20.7336 4.7638 20.1189 4.12984L20.0984 4.15029ZM8.62409 13.0258V7.21787L14.2383 10.1423L8.62409 13.0463V13.0258Z" fill="white"/>
</svg>
